%FSLAX45Y45*%
G04 Gerber Fmt 4.5, Leading zero omitted, Abs format (unit mm)*
G04 Created by KiCad (PCBNEW (5.1.9)-1) date 2022-12-05 11:20:03*
%MOMM*%
%LPD*%
G01*
G04 APERTURE LIST*
%TA.AperFunction,Profile*%
%ADD10C,0.050000*%
%TD*%
%ADD11C,0.200000*%
%ADD12C,0.300000*%
G04 APERTURE END LIST*
D10*
X13487000Y-8719000D02*
X14606000Y-8719000D01*
X13487000Y-3689000D02*
X13487000Y-8719000D01*
X22180000Y-8925000D02*
X22180000Y-11999000D01*
X14606000Y-11999000D02*
X14606000Y-8719000D01*
X22180000Y-3689000D02*
X22180000Y-8925000D01*
X14606000Y-11999000D02*
X22180000Y-11999000D01*
X13487000Y-3689000D02*
X22180000Y-3689000D01*
D11*
X15984000Y-10372500D02*
X16194000Y-10582500D01*
X16194000Y-10372500D02*
X15984000Y-10582500D01*
X13886500Y-5930000D02*
G75*
G03*
X13886500Y-5930000I-125000J0D01*
G01*
D12*
X13770928Y-12467214D02*
X13770928Y-12167214D01*
X13842357Y-12167214D01*
X13885214Y-12181500D01*
X13913786Y-12210071D01*
X13928071Y-12238643D01*
X13942357Y-12295786D01*
X13942357Y-12338643D01*
X13928071Y-12395786D01*
X13913786Y-12424357D01*
X13885214Y-12452929D01*
X13842357Y-12467214D01*
X13770928Y-12467214D01*
X14070928Y-12467214D02*
X14070928Y-12267214D01*
X14070928Y-12324357D02*
X14085214Y-12295786D01*
X14099500Y-12281500D01*
X14128071Y-12267214D01*
X14156643Y-12267214D01*
X14256643Y-12467214D02*
X14256643Y-12267214D01*
X14256643Y-12167214D02*
X14242357Y-12181500D01*
X14256643Y-12195786D01*
X14270928Y-12181500D01*
X14256643Y-12167214D01*
X14256643Y-12195786D01*
X14442357Y-12467214D02*
X14413786Y-12452929D01*
X14399500Y-12424357D01*
X14399500Y-12167214D01*
X14599500Y-12467214D02*
X14570928Y-12452929D01*
X14556643Y-12424357D01*
X14556643Y-12167214D01*
X14942357Y-12467214D02*
X14942357Y-12167214D01*
X15042357Y-12381500D01*
X15142357Y-12167214D01*
X15142357Y-12467214D01*
X15413786Y-12467214D02*
X15413786Y-12310071D01*
X15399500Y-12281500D01*
X15370928Y-12267214D01*
X15313786Y-12267214D01*
X15285214Y-12281500D01*
X15413786Y-12452929D02*
X15385214Y-12467214D01*
X15313786Y-12467214D01*
X15285214Y-12452929D01*
X15270928Y-12424357D01*
X15270928Y-12395786D01*
X15285214Y-12367214D01*
X15313786Y-12352929D01*
X15385214Y-12352929D01*
X15413786Y-12338643D01*
X15556643Y-12267214D02*
X15556643Y-12567214D01*
X15556643Y-12281500D02*
X15585214Y-12267214D01*
X15642357Y-12267214D01*
X15670928Y-12281500D01*
X15685214Y-12295786D01*
X15699500Y-12324357D01*
X15699500Y-12410071D01*
X15685214Y-12438643D01*
X15670928Y-12452929D01*
X15642357Y-12467214D01*
X15585214Y-12467214D01*
X15556643Y-12452929D01*
X15828071Y-12438643D02*
X15842357Y-12452929D01*
X15828071Y-12467214D01*
X15813786Y-12452929D01*
X15828071Y-12438643D01*
X15828071Y-12467214D01*
X15828071Y-12281500D02*
X15842357Y-12295786D01*
X15828071Y-12310071D01*
X15813786Y-12295786D01*
X15828071Y-12281500D01*
X15828071Y-12310071D01*
X13274500Y-12856500D02*
X13484500Y-13066500D01*
X13484500Y-12856500D02*
X13274500Y-13066500D01*
X13756643Y-12825786D02*
X13770928Y-12811500D01*
X13799500Y-12797214D01*
X13870928Y-12797214D01*
X13899500Y-12811500D01*
X13913786Y-12825786D01*
X13928071Y-12854357D01*
X13928071Y-12882929D01*
X13913786Y-12925786D01*
X13742357Y-13097214D01*
X13928071Y-13097214D01*
X14056643Y-13068643D02*
X14070928Y-13082929D01*
X14056643Y-13097214D01*
X14042357Y-13082929D01*
X14056643Y-13068643D01*
X14056643Y-13097214D01*
X14356643Y-13097214D02*
X14185214Y-13097214D01*
X14270928Y-13097214D02*
X14270928Y-12797214D01*
X14242357Y-12840071D01*
X14213786Y-12868643D01*
X14185214Y-12882929D01*
X14542357Y-12797214D02*
X14570928Y-12797214D01*
X14599500Y-12811500D01*
X14613786Y-12825786D01*
X14628071Y-12854357D01*
X14642357Y-12911500D01*
X14642357Y-12982929D01*
X14628071Y-13040071D01*
X14613786Y-13068643D01*
X14599500Y-13082929D01*
X14570928Y-13097214D01*
X14542357Y-13097214D01*
X14513786Y-13082929D01*
X14499500Y-13068643D01*
X14485214Y-13040071D01*
X14470928Y-12982929D01*
X14470928Y-12911500D01*
X14485214Y-12854357D01*
X14499500Y-12825786D01*
X14513786Y-12811500D01*
X14542357Y-12797214D01*
X14770928Y-13097214D02*
X14770928Y-12897214D01*
X14770928Y-12925786D02*
X14785214Y-12911500D01*
X14813786Y-12897214D01*
X14856643Y-12897214D01*
X14885214Y-12911500D01*
X14899500Y-12940071D01*
X14899500Y-13097214D01*
X14899500Y-12940071D02*
X14913786Y-12911500D01*
X14942357Y-12897214D01*
X14985214Y-12897214D01*
X15013786Y-12911500D01*
X15028071Y-12940071D01*
X15028071Y-13097214D01*
X15170928Y-13097214D02*
X15170928Y-12897214D01*
X15170928Y-12925786D02*
X15185214Y-12911500D01*
X15213786Y-12897214D01*
X15256643Y-12897214D01*
X15285214Y-12911500D01*
X15299500Y-12940071D01*
X15299500Y-13097214D01*
X15299500Y-12940071D02*
X15313786Y-12911500D01*
X15342357Y-12897214D01*
X15385214Y-12897214D01*
X15413786Y-12911500D01*
X15428071Y-12940071D01*
X15428071Y-13097214D01*
X16013786Y-12782929D02*
X15756643Y-13168643D01*
X16399500Y-12797214D02*
X16428071Y-12797214D01*
X16456643Y-12811500D01*
X16470928Y-12825786D01*
X16485214Y-12854357D01*
X16499500Y-12911500D01*
X16499500Y-12982929D01*
X16485214Y-13040071D01*
X16470928Y-13068643D01*
X16456643Y-13082929D01*
X16428071Y-13097214D01*
X16399500Y-13097214D01*
X16370928Y-13082929D01*
X16356643Y-13068643D01*
X16342357Y-13040071D01*
X16328071Y-12982929D01*
X16328071Y-12911500D01*
X16342357Y-12854357D01*
X16356643Y-12825786D01*
X16370928Y-12811500D01*
X16399500Y-12797214D01*
X16628071Y-13068643D02*
X16642357Y-13082929D01*
X16628071Y-13097214D01*
X16613786Y-13082929D01*
X16628071Y-13068643D01*
X16628071Y-13097214D01*
X16828071Y-12797214D02*
X16856643Y-12797214D01*
X16885214Y-12811500D01*
X16899500Y-12825786D01*
X16913786Y-12854357D01*
X16928071Y-12911500D01*
X16928071Y-12982929D01*
X16913786Y-13040071D01*
X16899500Y-13068643D01*
X16885214Y-13082929D01*
X16856643Y-13097214D01*
X16828071Y-13097214D01*
X16799500Y-13082929D01*
X16785214Y-13068643D01*
X16770928Y-13040071D01*
X16756643Y-12982929D01*
X16756643Y-12911500D01*
X16770928Y-12854357D01*
X16785214Y-12825786D01*
X16799500Y-12811500D01*
X16828071Y-12797214D01*
X17099500Y-12925786D02*
X17070928Y-12911500D01*
X17056643Y-12897214D01*
X17042357Y-12868643D01*
X17042357Y-12854357D01*
X17056643Y-12825786D01*
X17070928Y-12811500D01*
X17099500Y-12797214D01*
X17156643Y-12797214D01*
X17185214Y-12811500D01*
X17199500Y-12825786D01*
X17213786Y-12854357D01*
X17213786Y-12868643D01*
X17199500Y-12897214D01*
X17185214Y-12911500D01*
X17156643Y-12925786D01*
X17099500Y-12925786D01*
X17070928Y-12940071D01*
X17056643Y-12954357D01*
X17042357Y-12982929D01*
X17042357Y-13040071D01*
X17056643Y-13068643D01*
X17070928Y-13082929D01*
X17099500Y-13097214D01*
X17156643Y-13097214D01*
X17185214Y-13082929D01*
X17199500Y-13068643D01*
X17213786Y-13040071D01*
X17213786Y-12982929D01*
X17199500Y-12954357D01*
X17185214Y-12940071D01*
X17156643Y-12925786D01*
X17313786Y-12797214D02*
X17499500Y-12797214D01*
X17399500Y-12911500D01*
X17442357Y-12911500D01*
X17470928Y-12925786D01*
X17485214Y-12940071D01*
X17499500Y-12968643D01*
X17499500Y-13040071D01*
X17485214Y-13068643D01*
X17470928Y-13082929D01*
X17442357Y-13097214D01*
X17356643Y-13097214D01*
X17328071Y-13082929D01*
X17313786Y-13068643D01*
X17613786Y-12797214D02*
X17613786Y-12854357D01*
X17728071Y-12797214D02*
X17728071Y-12854357D01*
X18170928Y-13211500D02*
X18156643Y-13197214D01*
X18128071Y-13154357D01*
X18113786Y-13125786D01*
X18099500Y-13082929D01*
X18085214Y-13011500D01*
X18085214Y-12954357D01*
X18099500Y-12882929D01*
X18113786Y-12840071D01*
X18128071Y-12811500D01*
X18156643Y-12768643D01*
X18170928Y-12754357D01*
X18442357Y-13097214D02*
X18270928Y-13097214D01*
X18356643Y-13097214D02*
X18356643Y-12797214D01*
X18328071Y-12840071D01*
X18299500Y-12868643D01*
X18270928Y-12882929D01*
X18799500Y-13097214D02*
X18799500Y-12797214D01*
X18928071Y-13097214D02*
X18928071Y-12940071D01*
X18913786Y-12911500D01*
X18885214Y-12897214D01*
X18842357Y-12897214D01*
X18813786Y-12911500D01*
X18799500Y-12925786D01*
X19113786Y-13097214D02*
X19085214Y-13082929D01*
X19070928Y-13068643D01*
X19056643Y-13040071D01*
X19056643Y-12954357D01*
X19070928Y-12925786D01*
X19085214Y-12911500D01*
X19113786Y-12897214D01*
X19156643Y-12897214D01*
X19185214Y-12911500D01*
X19199500Y-12925786D01*
X19213786Y-12954357D01*
X19213786Y-13040071D01*
X19199500Y-13068643D01*
X19185214Y-13082929D01*
X19156643Y-13097214D01*
X19113786Y-13097214D01*
X19385214Y-13097214D02*
X19356643Y-13082929D01*
X19342357Y-13054357D01*
X19342357Y-12797214D01*
X19613786Y-13082929D02*
X19585214Y-13097214D01*
X19528071Y-13097214D01*
X19499500Y-13082929D01*
X19485214Y-13054357D01*
X19485214Y-12940071D01*
X19499500Y-12911500D01*
X19528071Y-12897214D01*
X19585214Y-12897214D01*
X19613786Y-12911500D01*
X19628071Y-12940071D01*
X19628071Y-12968643D01*
X19485214Y-12997214D01*
X19728071Y-13211500D02*
X19742357Y-13197214D01*
X19770928Y-13154357D01*
X19785214Y-13125786D01*
X19799500Y-13082929D01*
X19813786Y-13011500D01*
X19813786Y-12954357D01*
X19799500Y-12882929D01*
X19785214Y-12840071D01*
X19770928Y-12811500D01*
X19742357Y-12768643D01*
X19728071Y-12754357D01*
X20270928Y-13211500D02*
X20256643Y-13197214D01*
X20228071Y-13154357D01*
X20213786Y-13125786D01*
X20199500Y-13082929D01*
X20185214Y-13011500D01*
X20185214Y-12954357D01*
X20199500Y-12882929D01*
X20213786Y-12840071D01*
X20228071Y-12811500D01*
X20256643Y-12768643D01*
X20270928Y-12754357D01*
X20385214Y-12897214D02*
X20385214Y-13097214D01*
X20385214Y-12925786D02*
X20399500Y-12911500D01*
X20428071Y-12897214D01*
X20470928Y-12897214D01*
X20499500Y-12911500D01*
X20513786Y-12940071D01*
X20513786Y-13097214D01*
X20699500Y-13097214D02*
X20670928Y-13082929D01*
X20656643Y-13068643D01*
X20642357Y-13040071D01*
X20642357Y-12954357D01*
X20656643Y-12925786D01*
X20670928Y-12911500D01*
X20699500Y-12897214D01*
X20742357Y-12897214D01*
X20770928Y-12911500D01*
X20785214Y-12925786D01*
X20799500Y-12954357D01*
X20799500Y-13040071D01*
X20785214Y-13068643D01*
X20770928Y-13082929D01*
X20742357Y-13097214D01*
X20699500Y-13097214D01*
X20885214Y-12897214D02*
X20999500Y-12897214D01*
X20928071Y-12797214D02*
X20928071Y-13054357D01*
X20942357Y-13082929D01*
X20970928Y-13097214D01*
X20999500Y-13097214D01*
X21328071Y-12897214D02*
X21328071Y-13197214D01*
X21328071Y-12911500D02*
X21356643Y-12897214D01*
X21413786Y-12897214D01*
X21442357Y-12911500D01*
X21456643Y-12925786D01*
X21470928Y-12954357D01*
X21470928Y-13040071D01*
X21456643Y-13068643D01*
X21442357Y-13082929D01*
X21413786Y-13097214D01*
X21356643Y-13097214D01*
X21328071Y-13082929D01*
X21642357Y-13097214D02*
X21613786Y-13082929D01*
X21599500Y-13054357D01*
X21599500Y-12797214D01*
X21885214Y-13097214D02*
X21885214Y-12940071D01*
X21870928Y-12911500D01*
X21842357Y-12897214D01*
X21785214Y-12897214D01*
X21756643Y-12911500D01*
X21885214Y-13082929D02*
X21856643Y-13097214D01*
X21785214Y-13097214D01*
X21756643Y-13082929D01*
X21742357Y-13054357D01*
X21742357Y-13025786D01*
X21756643Y-12997214D01*
X21785214Y-12982929D01*
X21856643Y-12982929D01*
X21885214Y-12968643D01*
X21985214Y-12897214D02*
X22099500Y-12897214D01*
X22028071Y-12797214D02*
X22028071Y-13054357D01*
X22042357Y-13082929D01*
X22070928Y-13097214D01*
X22099500Y-13097214D01*
X22313786Y-13082929D02*
X22285214Y-13097214D01*
X22228071Y-13097214D01*
X22199500Y-13082929D01*
X22185214Y-13054357D01*
X22185214Y-12940071D01*
X22199500Y-12911500D01*
X22228071Y-12897214D01*
X22285214Y-12897214D01*
X22313786Y-12911500D01*
X22328071Y-12940071D01*
X22328071Y-12968643D01*
X22185214Y-12997214D01*
X22585214Y-13097214D02*
X22585214Y-12797214D01*
X22585214Y-13082929D02*
X22556643Y-13097214D01*
X22499500Y-13097214D01*
X22470928Y-13082929D01*
X22456643Y-13068643D01*
X22442357Y-13040071D01*
X22442357Y-12954357D01*
X22456643Y-12925786D01*
X22470928Y-12911500D01*
X22499500Y-12897214D01*
X22556643Y-12897214D01*
X22585214Y-12911500D01*
X22699500Y-13211500D02*
X22713786Y-13197214D01*
X22742357Y-13154357D01*
X22756643Y-13125786D01*
X22770928Y-13082929D01*
X22785214Y-13011500D01*
X22785214Y-12954357D01*
X22770928Y-12882929D01*
X22756643Y-12840071D01*
X22742357Y-12811500D01*
X22713786Y-12768643D01*
X22699500Y-12754357D01*
X13484500Y-13357500D02*
G75*
G03*
X13484500Y-13357500I-125000J0D01*
G01*
X13756643Y-13221786D02*
X13770928Y-13207500D01*
X13799500Y-13193214D01*
X13870928Y-13193214D01*
X13899500Y-13207500D01*
X13913786Y-13221786D01*
X13928071Y-13250357D01*
X13928071Y-13278929D01*
X13913786Y-13321786D01*
X13742357Y-13493214D01*
X13928071Y-13493214D01*
X14056643Y-13464643D02*
X14070928Y-13478929D01*
X14056643Y-13493214D01*
X14042357Y-13478929D01*
X14056643Y-13464643D01*
X14056643Y-13493214D01*
X14342357Y-13193214D02*
X14199500Y-13193214D01*
X14185214Y-13336071D01*
X14199500Y-13321786D01*
X14228071Y-13307500D01*
X14299500Y-13307500D01*
X14328071Y-13321786D01*
X14342357Y-13336071D01*
X14356643Y-13364643D01*
X14356643Y-13436071D01*
X14342357Y-13464643D01*
X14328071Y-13478929D01*
X14299500Y-13493214D01*
X14228071Y-13493214D01*
X14199500Y-13478929D01*
X14185214Y-13464643D01*
X14542357Y-13193214D02*
X14570928Y-13193214D01*
X14599500Y-13207500D01*
X14613786Y-13221786D01*
X14628071Y-13250357D01*
X14642357Y-13307500D01*
X14642357Y-13378929D01*
X14628071Y-13436071D01*
X14613786Y-13464643D01*
X14599500Y-13478929D01*
X14570928Y-13493214D01*
X14542357Y-13493214D01*
X14513786Y-13478929D01*
X14499500Y-13464643D01*
X14485214Y-13436071D01*
X14470928Y-13378929D01*
X14470928Y-13307500D01*
X14485214Y-13250357D01*
X14499500Y-13221786D01*
X14513786Y-13207500D01*
X14542357Y-13193214D01*
X14770928Y-13493214D02*
X14770928Y-13293214D01*
X14770928Y-13321786D02*
X14785214Y-13307500D01*
X14813786Y-13293214D01*
X14856643Y-13293214D01*
X14885214Y-13307500D01*
X14899500Y-13336071D01*
X14899500Y-13493214D01*
X14899500Y-13336071D02*
X14913786Y-13307500D01*
X14942357Y-13293214D01*
X14985214Y-13293214D01*
X15013786Y-13307500D01*
X15028071Y-13336071D01*
X15028071Y-13493214D01*
X15170928Y-13493214D02*
X15170928Y-13293214D01*
X15170928Y-13321786D02*
X15185214Y-13307500D01*
X15213786Y-13293214D01*
X15256643Y-13293214D01*
X15285214Y-13307500D01*
X15299500Y-13336071D01*
X15299500Y-13493214D01*
X15299500Y-13336071D02*
X15313786Y-13307500D01*
X15342357Y-13293214D01*
X15385214Y-13293214D01*
X15413786Y-13307500D01*
X15428071Y-13336071D01*
X15428071Y-13493214D01*
X16013786Y-13178929D02*
X15756643Y-13564643D01*
X16399500Y-13193214D02*
X16428071Y-13193214D01*
X16456643Y-13207500D01*
X16470928Y-13221786D01*
X16485214Y-13250357D01*
X16499500Y-13307500D01*
X16499500Y-13378929D01*
X16485214Y-13436071D01*
X16470928Y-13464643D01*
X16456643Y-13478929D01*
X16428071Y-13493214D01*
X16399500Y-13493214D01*
X16370928Y-13478929D01*
X16356643Y-13464643D01*
X16342357Y-13436071D01*
X16328071Y-13378929D01*
X16328071Y-13307500D01*
X16342357Y-13250357D01*
X16356643Y-13221786D01*
X16370928Y-13207500D01*
X16399500Y-13193214D01*
X16628071Y-13464643D02*
X16642357Y-13478929D01*
X16628071Y-13493214D01*
X16613786Y-13478929D01*
X16628071Y-13464643D01*
X16628071Y-13493214D01*
X16828071Y-13193214D02*
X16856643Y-13193214D01*
X16885214Y-13207500D01*
X16899500Y-13221786D01*
X16913786Y-13250357D01*
X16928071Y-13307500D01*
X16928071Y-13378929D01*
X16913786Y-13436071D01*
X16899500Y-13464643D01*
X16885214Y-13478929D01*
X16856643Y-13493214D01*
X16828071Y-13493214D01*
X16799500Y-13478929D01*
X16785214Y-13464643D01*
X16770928Y-13436071D01*
X16756643Y-13378929D01*
X16756643Y-13307500D01*
X16770928Y-13250357D01*
X16785214Y-13221786D01*
X16799500Y-13207500D01*
X16828071Y-13193214D01*
X17070928Y-13493214D02*
X17128071Y-13493214D01*
X17156643Y-13478929D01*
X17170928Y-13464643D01*
X17199500Y-13421786D01*
X17213786Y-13364643D01*
X17213786Y-13250357D01*
X17199500Y-13221786D01*
X17185214Y-13207500D01*
X17156643Y-13193214D01*
X17099500Y-13193214D01*
X17070928Y-13207500D01*
X17056643Y-13221786D01*
X17042357Y-13250357D01*
X17042357Y-13321786D01*
X17056643Y-13350357D01*
X17070928Y-13364643D01*
X17099500Y-13378929D01*
X17156643Y-13378929D01*
X17185214Y-13364643D01*
X17199500Y-13350357D01*
X17213786Y-13321786D01*
X17385214Y-13321786D02*
X17356643Y-13307500D01*
X17342357Y-13293214D01*
X17328071Y-13264643D01*
X17328071Y-13250357D01*
X17342357Y-13221786D01*
X17356643Y-13207500D01*
X17385214Y-13193214D01*
X17442357Y-13193214D01*
X17470928Y-13207500D01*
X17485214Y-13221786D01*
X17499500Y-13250357D01*
X17499500Y-13264643D01*
X17485214Y-13293214D01*
X17470928Y-13307500D01*
X17442357Y-13321786D01*
X17385214Y-13321786D01*
X17356643Y-13336071D01*
X17342357Y-13350357D01*
X17328071Y-13378929D01*
X17328071Y-13436071D01*
X17342357Y-13464643D01*
X17356643Y-13478929D01*
X17385214Y-13493214D01*
X17442357Y-13493214D01*
X17470928Y-13478929D01*
X17485214Y-13464643D01*
X17499500Y-13436071D01*
X17499500Y-13378929D01*
X17485214Y-13350357D01*
X17470928Y-13336071D01*
X17442357Y-13321786D01*
X17613786Y-13193214D02*
X17613786Y-13250357D01*
X17728071Y-13193214D02*
X17728071Y-13250357D01*
X18170928Y-13607500D02*
X18156643Y-13593214D01*
X18128071Y-13550357D01*
X18113786Y-13521786D01*
X18099500Y-13478929D01*
X18085214Y-13407500D01*
X18085214Y-13350357D01*
X18099500Y-13278929D01*
X18113786Y-13236071D01*
X18128071Y-13207500D01*
X18156643Y-13164643D01*
X18170928Y-13150357D01*
X18442357Y-13493214D02*
X18270928Y-13493214D01*
X18356643Y-13493214D02*
X18356643Y-13193214D01*
X18328071Y-13236071D01*
X18299500Y-13264643D01*
X18270928Y-13278929D01*
X18799500Y-13493214D02*
X18799500Y-13193214D01*
X18928071Y-13493214D02*
X18928071Y-13336071D01*
X18913786Y-13307500D01*
X18885214Y-13293214D01*
X18842357Y-13293214D01*
X18813786Y-13307500D01*
X18799500Y-13321786D01*
X19113786Y-13493214D02*
X19085214Y-13478929D01*
X19070928Y-13464643D01*
X19056643Y-13436071D01*
X19056643Y-13350357D01*
X19070928Y-13321786D01*
X19085214Y-13307500D01*
X19113786Y-13293214D01*
X19156643Y-13293214D01*
X19185214Y-13307500D01*
X19199500Y-13321786D01*
X19213786Y-13350357D01*
X19213786Y-13436071D01*
X19199500Y-13464643D01*
X19185214Y-13478929D01*
X19156643Y-13493214D01*
X19113786Y-13493214D01*
X19385214Y-13493214D02*
X19356643Y-13478929D01*
X19342357Y-13450357D01*
X19342357Y-13193214D01*
X19613786Y-13478929D02*
X19585214Y-13493214D01*
X19528071Y-13493214D01*
X19499500Y-13478929D01*
X19485214Y-13450357D01*
X19485214Y-13336071D01*
X19499500Y-13307500D01*
X19528071Y-13293214D01*
X19585214Y-13293214D01*
X19613786Y-13307500D01*
X19628071Y-13336071D01*
X19628071Y-13364643D01*
X19485214Y-13393214D01*
X19728071Y-13607500D02*
X19742357Y-13593214D01*
X19770928Y-13550357D01*
X19785214Y-13521786D01*
X19799500Y-13478929D01*
X19813786Y-13407500D01*
X19813786Y-13350357D01*
X19799500Y-13278929D01*
X19785214Y-13236071D01*
X19770928Y-13207500D01*
X19742357Y-13164643D01*
X19728071Y-13150357D01*
X20270928Y-13607500D02*
X20256643Y-13593214D01*
X20228071Y-13550357D01*
X20213786Y-13521786D01*
X20199500Y-13478929D01*
X20185214Y-13407500D01*
X20185214Y-13350357D01*
X20199500Y-13278929D01*
X20213786Y-13236071D01*
X20228071Y-13207500D01*
X20256643Y-13164643D01*
X20270928Y-13150357D01*
X20385214Y-13293214D02*
X20385214Y-13493214D01*
X20385214Y-13321786D02*
X20399500Y-13307500D01*
X20428071Y-13293214D01*
X20470928Y-13293214D01*
X20499500Y-13307500D01*
X20513786Y-13336071D01*
X20513786Y-13493214D01*
X20699500Y-13493214D02*
X20670928Y-13478929D01*
X20656643Y-13464643D01*
X20642357Y-13436071D01*
X20642357Y-13350357D01*
X20656643Y-13321786D01*
X20670928Y-13307500D01*
X20699500Y-13293214D01*
X20742357Y-13293214D01*
X20770928Y-13307500D01*
X20785214Y-13321786D01*
X20799500Y-13350357D01*
X20799500Y-13436071D01*
X20785214Y-13464643D01*
X20770928Y-13478929D01*
X20742357Y-13493214D01*
X20699500Y-13493214D01*
X20885214Y-13293214D02*
X20999500Y-13293214D01*
X20928071Y-13193214D02*
X20928071Y-13450357D01*
X20942357Y-13478929D01*
X20970928Y-13493214D01*
X20999500Y-13493214D01*
X21328071Y-13293214D02*
X21328071Y-13593214D01*
X21328071Y-13307500D02*
X21356643Y-13293214D01*
X21413786Y-13293214D01*
X21442357Y-13307500D01*
X21456643Y-13321786D01*
X21470928Y-13350357D01*
X21470928Y-13436071D01*
X21456643Y-13464643D01*
X21442357Y-13478929D01*
X21413786Y-13493214D01*
X21356643Y-13493214D01*
X21328071Y-13478929D01*
X21642357Y-13493214D02*
X21613786Y-13478929D01*
X21599500Y-13450357D01*
X21599500Y-13193214D01*
X21885214Y-13493214D02*
X21885214Y-13336071D01*
X21870928Y-13307500D01*
X21842357Y-13293214D01*
X21785214Y-13293214D01*
X21756643Y-13307500D01*
X21885214Y-13478929D02*
X21856643Y-13493214D01*
X21785214Y-13493214D01*
X21756643Y-13478929D01*
X21742357Y-13450357D01*
X21742357Y-13421786D01*
X21756643Y-13393214D01*
X21785214Y-13378929D01*
X21856643Y-13378929D01*
X21885214Y-13364643D01*
X21985214Y-13293214D02*
X22099500Y-13293214D01*
X22028071Y-13193214D02*
X22028071Y-13450357D01*
X22042357Y-13478929D01*
X22070928Y-13493214D01*
X22099500Y-13493214D01*
X22313786Y-13478929D02*
X22285214Y-13493214D01*
X22228071Y-13493214D01*
X22199500Y-13478929D01*
X22185214Y-13450357D01*
X22185214Y-13336071D01*
X22199500Y-13307500D01*
X22228071Y-13293214D01*
X22285214Y-13293214D01*
X22313786Y-13307500D01*
X22328071Y-13336071D01*
X22328071Y-13364643D01*
X22185214Y-13393214D01*
X22585214Y-13493214D02*
X22585214Y-13193214D01*
X22585214Y-13478929D02*
X22556643Y-13493214D01*
X22499500Y-13493214D01*
X22470928Y-13478929D01*
X22456643Y-13464643D01*
X22442357Y-13436071D01*
X22442357Y-13350357D01*
X22456643Y-13321786D01*
X22470928Y-13307500D01*
X22499500Y-13293214D01*
X22556643Y-13293214D01*
X22585214Y-13307500D01*
X22699500Y-13607500D02*
X22713786Y-13593214D01*
X22742357Y-13550357D01*
X22756643Y-13521786D01*
X22770928Y-13478929D01*
X22785214Y-13407500D01*
X22785214Y-13350357D01*
X22770928Y-13278929D01*
X22756643Y-13236071D01*
X22742357Y-13207500D01*
X22713786Y-13164643D01*
X22699500Y-13150357D01*
M02*
