G04 #@! TF.GenerationSoftware,KiCad,Pcbnew,(5.1.9)-1*
G04 #@! TF.CreationDate,2023-05-10T20:53:47+01:00*
G04 #@! TF.ProjectId,Memory Decoder,4d656d6f-7279-4204-9465-636f6465722e,Rev001*
G04 #@! TF.SameCoordinates,Original*
G04 #@! TF.FileFunction,Copper,L1,Top*
G04 #@! TF.FilePolarity,Positive*
%FSLAX46Y46*%
G04 Gerber Fmt 4.6, Leading zero omitted, Abs format (unit mm)*
G04 Created by KiCad (PCBNEW (5.1.9)-1) date 2023-05-10 20:53:47*
%MOMM*%
%LPD*%
G01*
G04 APERTURE LIST*
G04 #@! TA.AperFunction,ComponentPad*
%ADD10C,1.600000*%
G04 #@! TD*
G04 #@! TA.AperFunction,ComponentPad*
%ADD11R,1.700000X1.700000*%
G04 #@! TD*
G04 #@! TA.AperFunction,ComponentPad*
%ADD12O,1.700000X1.700000*%
G04 #@! TD*
G04 #@! TA.AperFunction,ComponentPad*
%ADD13R,1.600000X1.600000*%
G04 #@! TD*
G04 #@! TA.AperFunction,ComponentPad*
%ADD14O,1.600000X1.600000*%
G04 #@! TD*
G04 #@! TA.AperFunction,ViaPad*
%ADD15C,0.800000*%
G04 #@! TD*
G04 #@! TA.AperFunction,Conductor*
%ADD16C,0.152400*%
G04 #@! TD*
G04 #@! TA.AperFunction,Conductor*
%ADD17C,0.254000*%
G04 #@! TD*
G04 #@! TA.AperFunction,Conductor*
%ADD18C,0.100000*%
G04 #@! TD*
G04 APERTURE END LIST*
D10*
X147315000Y-105255000D03*
X147315000Y-107755000D03*
D11*
X120580000Y-97595000D03*
D12*
X120580000Y-95055000D03*
X123120000Y-97595000D03*
X123120000Y-95055000D03*
X125660000Y-97595000D03*
X125660000Y-95055000D03*
D13*
X148520000Y-81275000D03*
D14*
X120580000Y-88895000D03*
X145980000Y-81275000D03*
X123120000Y-88895000D03*
X143440000Y-81275000D03*
X125660000Y-88895000D03*
X140900000Y-81275000D03*
X128200000Y-88895000D03*
X138360000Y-81275000D03*
X130740000Y-88895000D03*
X135820000Y-81275000D03*
X133280000Y-88895000D03*
X133280000Y-81275000D03*
X135820000Y-88895000D03*
X130740000Y-81275000D03*
X138360000Y-88895000D03*
X128200000Y-81275000D03*
X140900000Y-88895000D03*
X125660000Y-81275000D03*
X143440000Y-88895000D03*
X123120000Y-81275000D03*
X145980000Y-88895000D03*
X120580000Y-81275000D03*
X148520000Y-88895000D03*
D11*
X120580000Y-105215000D03*
D12*
X123120000Y-105215000D03*
X125660000Y-105215000D03*
X128200000Y-105215000D03*
X130740000Y-105215000D03*
X133280000Y-105215000D03*
X135820000Y-105215000D03*
X138360000Y-105215000D03*
X140900000Y-105215000D03*
D13*
X107515000Y-92450000D03*
D14*
X99895000Y-84830000D03*
X107515000Y-89910000D03*
X99895000Y-87370000D03*
X107515000Y-87370000D03*
X99895000Y-89910000D03*
X107515000Y-84830000D03*
X99895000Y-92450000D03*
D13*
X107515000Y-106625000D03*
D14*
X99895000Y-99005000D03*
X107515000Y-104085000D03*
X99895000Y-101545000D03*
X107515000Y-101545000D03*
X99895000Y-104085000D03*
X107515000Y-99005000D03*
X99895000Y-106625000D03*
D11*
X113365000Y-76825000D03*
D12*
X110825000Y-76825000D03*
X108285000Y-76825000D03*
X105745000Y-76825000D03*
X103205000Y-76825000D03*
D11*
X120580000Y-76775000D03*
D12*
X123120000Y-76775000D03*
X125660000Y-76775000D03*
X128200000Y-76775000D03*
D11*
X133280000Y-86005000D03*
D12*
X130740000Y-86005000D03*
X128200000Y-86005000D03*
X125660000Y-86005000D03*
X123120000Y-86005000D03*
X120580000Y-86005000D03*
D11*
X128200000Y-97595000D03*
D12*
X128200000Y-95055000D03*
X130740000Y-97595000D03*
X130740000Y-95055000D03*
X133280000Y-97595000D03*
X133280000Y-95055000D03*
X135820000Y-97595000D03*
X135820000Y-95055000D03*
X138360000Y-97595000D03*
X138360000Y-95055000D03*
D11*
X144745000Y-95055000D03*
D12*
X144745000Y-97595000D03*
X147285000Y-95055000D03*
X147285000Y-97595000D03*
D15*
X124365000Y-99850000D03*
X127512834Y-84197112D03*
X123120000Y-83796390D03*
D16*
X130740000Y-97595000D02*
X133280000Y-97595000D01*
X130740000Y-97595000D02*
X128200000Y-97595000D01*
X129495000Y-96300000D02*
X130740000Y-95055000D01*
X127383518Y-96300000D02*
X129495000Y-96300000D01*
X126965000Y-96718518D02*
X127383518Y-96300000D01*
X126965000Y-99200000D02*
X126965000Y-96718518D01*
X126315000Y-99850000D02*
X126965000Y-99200000D01*
X124365000Y-99850000D02*
X126315000Y-99850000D01*
X125540000Y-102250000D02*
X133705000Y-102250000D01*
X124581399Y-103208601D02*
X125540000Y-102250000D01*
X124581399Y-105732729D02*
X124581399Y-103208601D01*
X124020527Y-106293601D02*
X124581399Y-105732729D01*
X121658601Y-106293601D02*
X124020527Y-106293601D01*
X120580000Y-105215000D02*
X121658601Y-106293601D01*
X135820000Y-100135000D02*
X135820000Y-97595000D01*
X133705000Y-102250000D02*
X135820000Y-100135000D01*
X124640000Y-101550000D02*
X133461330Y-101550000D01*
X123120000Y-103070000D02*
X124640000Y-101550000D01*
X123120000Y-105215000D02*
X123120000Y-103070000D01*
X134741399Y-100269931D02*
X133461330Y-101550000D01*
X134741399Y-96133601D02*
X134741399Y-100269931D01*
X135820000Y-95055000D02*
X134741399Y-96133601D01*
X120580000Y-76775000D02*
X123120000Y-76775000D01*
X123120000Y-76775000D02*
X125660000Y-76775000D01*
X125660000Y-76775000D02*
X128200000Y-76775000D01*
X144745000Y-92515000D02*
X144745000Y-95055000D01*
X147440000Y-89820000D02*
X144745000Y-92515000D01*
X147440000Y-84366482D02*
X147440000Y-89820000D01*
X150065000Y-81741482D02*
X147440000Y-84366482D01*
X150065000Y-78700000D02*
X150065000Y-81741482D01*
X148140000Y-76775000D02*
X150065000Y-78700000D01*
X128200000Y-76775000D02*
X148140000Y-76775000D01*
X144715000Y-89643670D02*
X144715000Y-85080000D01*
X143190000Y-93504427D02*
X143190000Y-91168670D01*
X142465000Y-94229427D02*
X143190000Y-93504427D01*
X142465000Y-96040872D02*
X142465000Y-94229427D01*
X144715000Y-85080000D02*
X148520000Y-81275000D01*
X143190000Y-91168670D02*
X144715000Y-89643670D01*
X142440000Y-98624128D02*
X142465000Y-98599128D01*
X141185189Y-107204811D02*
X142440000Y-105950000D01*
X142440000Y-105950000D02*
X142440000Y-98624128D01*
X138991256Y-107554811D02*
X139341256Y-107204811D01*
X139341256Y-107204811D02*
X141185189Y-107204811D01*
X127999811Y-107554811D02*
X138991256Y-107554811D01*
X142465000Y-96590872D02*
X142465000Y-96050000D01*
X142465000Y-98599128D02*
X142465000Y-96590872D01*
X125660000Y-105215000D02*
X127999811Y-107554811D01*
X137090000Y-90165000D02*
X138360000Y-88895000D01*
X137090000Y-100175000D02*
X137090000Y-90165000D01*
X134615000Y-102650000D02*
X137090000Y-100175000D01*
X130765000Y-102650000D02*
X134615000Y-102650000D01*
X128200000Y-105215000D02*
X130765000Y-102650000D01*
X138865000Y-107250000D02*
X140900000Y-105215000D01*
X135315000Y-107250000D02*
X138865000Y-107250000D01*
X133280000Y-105215000D02*
X135315000Y-107250000D01*
X120580000Y-97595000D02*
X123120000Y-97595000D01*
X123120000Y-97595000D02*
X125660000Y-97595000D01*
X120580000Y-98035000D02*
X120580000Y-97595000D01*
X112990000Y-105625000D02*
X120580000Y-98035000D01*
X108515000Y-105625000D02*
X112990000Y-105625000D01*
X107515000Y-106625000D02*
X108515000Y-105625000D01*
X131560000Y-87725000D02*
X133280000Y-86005000D01*
X127546066Y-87725000D02*
X131560000Y-87725000D01*
X126376066Y-88895000D02*
X127546066Y-87725000D01*
X125660000Y-88895000D02*
X126376066Y-88895000D01*
X124565000Y-87450000D02*
X123120000Y-88895000D01*
X126341330Y-87450000D02*
X124565000Y-87450000D01*
X126965000Y-86826330D02*
X126341330Y-87450000D01*
X126965000Y-85625000D02*
X126965000Y-86826330D01*
X127890000Y-84700000D02*
X126965000Y-85625000D01*
X129435000Y-84700000D02*
X127890000Y-84700000D01*
X130740000Y-86005000D02*
X129435000Y-84700000D01*
X127515000Y-84200000D02*
X127515000Y-84200000D01*
X126980136Y-84729810D02*
X127512834Y-84197112D01*
X122610190Y-84729810D02*
X126980136Y-84729810D01*
X121890000Y-85450000D02*
X122610190Y-84729810D01*
X121890000Y-87585000D02*
X121890000Y-85450000D01*
X120580000Y-88895000D02*
X121890000Y-87585000D01*
X123120000Y-83995000D02*
X123120000Y-83995000D01*
X125660000Y-81275000D02*
X123138610Y-83796390D01*
X123138610Y-83796390D02*
X123120000Y-83796390D01*
X127400001Y-82074999D02*
X128200000Y-81275000D01*
X125050001Y-84424999D02*
X127400001Y-82074999D01*
X122160001Y-84424999D02*
X125050001Y-84424999D01*
X120580000Y-86005000D02*
X122160001Y-84424999D01*
X142411399Y-84843601D02*
X145980000Y-81275000D01*
X142411399Y-89078601D02*
X142411399Y-84843601D01*
X140900000Y-90590000D02*
X142411399Y-89078601D01*
X140900000Y-92515000D02*
X140900000Y-92035000D01*
X140900000Y-92035000D02*
X140900000Y-90590000D01*
X138360000Y-95055000D02*
X140900000Y-92515000D01*
X126795001Y-90299999D02*
X118471065Y-90299999D01*
X100694999Y-85629999D02*
X99895000Y-84830000D01*
X128200000Y-88895000D02*
X126795001Y-90299999D01*
X103641588Y-88576588D02*
X100694999Y-85629999D01*
X118471065Y-90299999D02*
X116747655Y-88576588D01*
X116747655Y-88576588D02*
X103641588Y-88576588D01*
X101406399Y-88881399D02*
X99895000Y-87370000D01*
X128860000Y-90775000D02*
X118515000Y-90775000D01*
X130740000Y-88895000D02*
X128860000Y-90775000D01*
X118515000Y-90775000D02*
X116621399Y-88881399D01*
X116621399Y-88881399D02*
X101406399Y-88881399D01*
X108446149Y-90938601D02*
X100923601Y-90938601D01*
X109103946Y-91596398D02*
X108446149Y-90938601D01*
X130578602Y-91596398D02*
X109103946Y-91596398D01*
X100923601Y-90938601D02*
X99895000Y-89910000D01*
X133280000Y-88895000D02*
X130578602Y-91596398D01*
X131940001Y-92774999D02*
X118789999Y-92774999D01*
X135820000Y-88895000D02*
X131940001Y-92774999D01*
X118789999Y-92774999D02*
X118240000Y-92225000D01*
X100923601Y-91421399D02*
X99895000Y-92450000D01*
X108497881Y-91421399D02*
X100923601Y-91421399D01*
X109301482Y-92225000D02*
X108497881Y-91421399D01*
X118240000Y-92225000D02*
X109301482Y-92225000D01*
X98866399Y-93478601D02*
X99895000Y-92450000D01*
X98866399Y-103056399D02*
X98866399Y-93478601D01*
X99895000Y-104085000D02*
X98866399Y-103056399D01*
X142160190Y-90174810D02*
X143440000Y-88895000D01*
X142160190Y-96334810D02*
X142160190Y-90174810D01*
X140900000Y-97595000D02*
X142160190Y-96334810D01*
X140900000Y-97595000D02*
X138360000Y-97595000D01*
D17*
X151755001Y-109790000D02*
X97955000Y-109790000D01*
X97955000Y-108747702D01*
X146501903Y-108747702D01*
X146573486Y-108991671D01*
X146828996Y-109112571D01*
X147103184Y-109181300D01*
X147385512Y-109195217D01*
X147665130Y-109153787D01*
X147931292Y-109058603D01*
X148056514Y-108991671D01*
X148128097Y-108747702D01*
X147315000Y-107934605D01*
X146501903Y-108747702D01*
X97955000Y-108747702D01*
X97955000Y-106974039D01*
X98503096Y-106974039D01*
X98543754Y-107108087D01*
X98663963Y-107362420D01*
X98831481Y-107588414D01*
X99039869Y-107777385D01*
X99281119Y-107922070D01*
X99545960Y-108016909D01*
X99768000Y-107895624D01*
X99768000Y-106752000D01*
X100022000Y-106752000D01*
X100022000Y-107895624D01*
X100244040Y-108016909D01*
X100508881Y-107922070D01*
X100750131Y-107777385D01*
X100958519Y-107588414D01*
X101126037Y-107362420D01*
X101246246Y-107108087D01*
X101286904Y-106974039D01*
X101164915Y-106752000D01*
X100022000Y-106752000D01*
X99768000Y-106752000D01*
X98625085Y-106752000D01*
X98503096Y-106974039D01*
X97955000Y-106974039D01*
X97955000Y-93478601D01*
X98151759Y-93478601D01*
X98155200Y-93513537D01*
X98155199Y-103021473D01*
X98151759Y-103056399D01*
X98155199Y-103091325D01*
X98155199Y-103091334D01*
X98165490Y-103195818D01*
X98206157Y-103329879D01*
X98272197Y-103453431D01*
X98361072Y-103561725D01*
X98388209Y-103583996D01*
X98507763Y-103703550D01*
X98460000Y-103943665D01*
X98460000Y-104226335D01*
X98515147Y-104503574D01*
X98623320Y-104764727D01*
X98780363Y-104999759D01*
X98980241Y-105199637D01*
X99215273Y-105356680D01*
X99225865Y-105361067D01*
X99039869Y-105472615D01*
X98831481Y-105661586D01*
X98663963Y-105887580D01*
X98543754Y-106141913D01*
X98503096Y-106275961D01*
X98625085Y-106498000D01*
X99768000Y-106498000D01*
X99768000Y-106478000D01*
X100022000Y-106478000D01*
X100022000Y-106498000D01*
X101164915Y-106498000D01*
X101286904Y-106275961D01*
X101246246Y-106141913D01*
X101126037Y-105887580D01*
X100958519Y-105661586D01*
X100750131Y-105472615D01*
X100564135Y-105361067D01*
X100574727Y-105356680D01*
X100809759Y-105199637D01*
X101009637Y-104999759D01*
X101166680Y-104764727D01*
X101274853Y-104503574D01*
X101330000Y-104226335D01*
X101330000Y-103943665D01*
X101274853Y-103666426D01*
X101166680Y-103405273D01*
X101009637Y-103170241D01*
X100809759Y-102970363D01*
X100577241Y-102815000D01*
X100809759Y-102659637D01*
X101009637Y-102459759D01*
X101166680Y-102224727D01*
X101274853Y-101963574D01*
X101330000Y-101686335D01*
X101330000Y-101403665D01*
X101274853Y-101126426D01*
X101166680Y-100865273D01*
X101009637Y-100630241D01*
X100809759Y-100430363D01*
X100577241Y-100275000D01*
X100809759Y-100119637D01*
X101009637Y-99919759D01*
X101166680Y-99684727D01*
X101274853Y-99423574D01*
X101330000Y-99146335D01*
X101330000Y-98863665D01*
X101274853Y-98586426D01*
X101166680Y-98325273D01*
X101009637Y-98090241D01*
X100809759Y-97890363D01*
X100574727Y-97733320D01*
X100313574Y-97625147D01*
X100036335Y-97570000D01*
X99753665Y-97570000D01*
X99577599Y-97605022D01*
X99577599Y-93849978D01*
X99753665Y-93885000D01*
X100036335Y-93885000D01*
X100313574Y-93829853D01*
X100574727Y-93721680D01*
X100809759Y-93564637D01*
X101009637Y-93364759D01*
X101166680Y-93129727D01*
X101274853Y-92868574D01*
X101330000Y-92591335D01*
X101330000Y-92308665D01*
X101294978Y-92132599D01*
X106076928Y-92132599D01*
X106076928Y-93250000D01*
X106089188Y-93374482D01*
X106125498Y-93494180D01*
X106184463Y-93604494D01*
X106263815Y-93701185D01*
X106360506Y-93780537D01*
X106470820Y-93839502D01*
X106590518Y-93875812D01*
X106715000Y-93888072D01*
X108315000Y-93888072D01*
X108439482Y-93875812D01*
X108559180Y-93839502D01*
X108669494Y-93780537D01*
X108766185Y-93701185D01*
X108845537Y-93604494D01*
X108904502Y-93494180D01*
X108940812Y-93374482D01*
X108953072Y-93250000D01*
X108953072Y-92845192D01*
X109028001Y-92885242D01*
X109162062Y-92925909D01*
X109266546Y-92936200D01*
X109266563Y-92936200D01*
X109301481Y-92939639D01*
X109336399Y-92936200D01*
X117945413Y-92936200D01*
X118262401Y-93253189D01*
X118284672Y-93280326D01*
X118392966Y-93369201D01*
X118516518Y-93435241D01*
X118650579Y-93475908D01*
X118755063Y-93486199D01*
X118755072Y-93486199D01*
X118789998Y-93489639D01*
X118824924Y-93486199D01*
X131905075Y-93486199D01*
X131940001Y-93489639D01*
X131974927Y-93486199D01*
X131974937Y-93486199D01*
X132079421Y-93475908D01*
X132213482Y-93435241D01*
X132337034Y-93369201D01*
X132445328Y-93280326D01*
X132467603Y-93253184D01*
X135438551Y-90282238D01*
X135678665Y-90330000D01*
X135961335Y-90330000D01*
X136238574Y-90274853D01*
X136378801Y-90216769D01*
X136378801Y-93679111D01*
X136253158Y-93627068D01*
X135966260Y-93570000D01*
X135673740Y-93570000D01*
X135386842Y-93627068D01*
X135116589Y-93739010D01*
X134873368Y-93901525D01*
X134666525Y-94108368D01*
X134550000Y-94282760D01*
X134433475Y-94108368D01*
X134226632Y-93901525D01*
X133983411Y-93739010D01*
X133713158Y-93627068D01*
X133426260Y-93570000D01*
X133133740Y-93570000D01*
X132846842Y-93627068D01*
X132576589Y-93739010D01*
X132333368Y-93901525D01*
X132126525Y-94108368D01*
X132010000Y-94282760D01*
X131893475Y-94108368D01*
X131686632Y-93901525D01*
X131443411Y-93739010D01*
X131173158Y-93627068D01*
X130886260Y-93570000D01*
X130593740Y-93570000D01*
X130306842Y-93627068D01*
X130036589Y-93739010D01*
X129793368Y-93901525D01*
X129586525Y-94108368D01*
X129470000Y-94282760D01*
X129353475Y-94108368D01*
X129146632Y-93901525D01*
X128903411Y-93739010D01*
X128633158Y-93627068D01*
X128346260Y-93570000D01*
X128053740Y-93570000D01*
X127766842Y-93627068D01*
X127496589Y-93739010D01*
X127253368Y-93901525D01*
X127046525Y-94108368D01*
X126930000Y-94282760D01*
X126813475Y-94108368D01*
X126606632Y-93901525D01*
X126363411Y-93739010D01*
X126093158Y-93627068D01*
X125806260Y-93570000D01*
X125513740Y-93570000D01*
X125226842Y-93627068D01*
X124956589Y-93739010D01*
X124713368Y-93901525D01*
X124506525Y-94108368D01*
X124390000Y-94282760D01*
X124273475Y-94108368D01*
X124066632Y-93901525D01*
X123823411Y-93739010D01*
X123553158Y-93627068D01*
X123266260Y-93570000D01*
X122973740Y-93570000D01*
X122686842Y-93627068D01*
X122416589Y-93739010D01*
X122173368Y-93901525D01*
X121966525Y-94108368D01*
X121850000Y-94282760D01*
X121733475Y-94108368D01*
X121526632Y-93901525D01*
X121283411Y-93739010D01*
X121013158Y-93627068D01*
X120726260Y-93570000D01*
X120433740Y-93570000D01*
X120146842Y-93627068D01*
X119876589Y-93739010D01*
X119633368Y-93901525D01*
X119426525Y-94108368D01*
X119264010Y-94351589D01*
X119152068Y-94621842D01*
X119095000Y-94908740D01*
X119095000Y-95201260D01*
X119152068Y-95488158D01*
X119264010Y-95758411D01*
X119426525Y-96001632D01*
X119558380Y-96133487D01*
X119485820Y-96155498D01*
X119375506Y-96214463D01*
X119278815Y-96293815D01*
X119199463Y-96390506D01*
X119140498Y-96500820D01*
X119104188Y-96620518D01*
X119091928Y-96745000D01*
X119091928Y-98445000D01*
X119098409Y-98510803D01*
X112695413Y-104913800D01*
X108687073Y-104913800D01*
X108786680Y-104764727D01*
X108894853Y-104503574D01*
X108950000Y-104226335D01*
X108950000Y-103943665D01*
X108894853Y-103666426D01*
X108786680Y-103405273D01*
X108629637Y-103170241D01*
X108429759Y-102970363D01*
X108197241Y-102815000D01*
X108429759Y-102659637D01*
X108629637Y-102459759D01*
X108786680Y-102224727D01*
X108894853Y-101963574D01*
X108950000Y-101686335D01*
X108950000Y-101403665D01*
X108894853Y-101126426D01*
X108786680Y-100865273D01*
X108629637Y-100630241D01*
X108429759Y-100430363D01*
X108197241Y-100275000D01*
X108429759Y-100119637D01*
X108629637Y-99919759D01*
X108786680Y-99684727D01*
X108894853Y-99423574D01*
X108950000Y-99146335D01*
X108950000Y-98863665D01*
X108894853Y-98586426D01*
X108786680Y-98325273D01*
X108629637Y-98090241D01*
X108429759Y-97890363D01*
X108194727Y-97733320D01*
X107933574Y-97625147D01*
X107656335Y-97570000D01*
X107373665Y-97570000D01*
X107096426Y-97625147D01*
X106835273Y-97733320D01*
X106600241Y-97890363D01*
X106400363Y-98090241D01*
X106243320Y-98325273D01*
X106135147Y-98586426D01*
X106080000Y-98863665D01*
X106080000Y-99146335D01*
X106135147Y-99423574D01*
X106243320Y-99684727D01*
X106400363Y-99919759D01*
X106600241Y-100119637D01*
X106832759Y-100275000D01*
X106600241Y-100430363D01*
X106400363Y-100630241D01*
X106243320Y-100865273D01*
X106135147Y-101126426D01*
X106080000Y-101403665D01*
X106080000Y-101686335D01*
X106135147Y-101963574D01*
X106243320Y-102224727D01*
X106400363Y-102459759D01*
X106600241Y-102659637D01*
X106832759Y-102815000D01*
X106600241Y-102970363D01*
X106400363Y-103170241D01*
X106243320Y-103405273D01*
X106135147Y-103666426D01*
X106080000Y-103943665D01*
X106080000Y-104226335D01*
X106135147Y-104503574D01*
X106243320Y-104764727D01*
X106400363Y-104999759D01*
X106598961Y-105198357D01*
X106590518Y-105199188D01*
X106470820Y-105235498D01*
X106360506Y-105294463D01*
X106263815Y-105373815D01*
X106184463Y-105470506D01*
X106125498Y-105580820D01*
X106089188Y-105700518D01*
X106076928Y-105825000D01*
X106076928Y-107425000D01*
X106089188Y-107549482D01*
X106125498Y-107669180D01*
X106184463Y-107779494D01*
X106263815Y-107876185D01*
X106360506Y-107955537D01*
X106470820Y-108014502D01*
X106590518Y-108050812D01*
X106715000Y-108063072D01*
X108315000Y-108063072D01*
X108439482Y-108050812D01*
X108559180Y-108014502D01*
X108669494Y-107955537D01*
X108766185Y-107876185D01*
X108845537Y-107779494D01*
X108904502Y-107669180D01*
X108940812Y-107549482D01*
X108953072Y-107425000D01*
X108953072Y-106336200D01*
X112955074Y-106336200D01*
X112990000Y-106339640D01*
X113024926Y-106336200D01*
X113024936Y-106336200D01*
X113129420Y-106325909D01*
X113263481Y-106285242D01*
X113387033Y-106219202D01*
X113495327Y-106130327D01*
X113517602Y-106103185D01*
X120537716Y-99083072D01*
X121430000Y-99083072D01*
X121554482Y-99070812D01*
X121674180Y-99034502D01*
X121784494Y-98975537D01*
X121881185Y-98896185D01*
X121960537Y-98799494D01*
X122019502Y-98689180D01*
X122041513Y-98616620D01*
X122173368Y-98748475D01*
X122416589Y-98910990D01*
X122686842Y-99022932D01*
X122973740Y-99080000D01*
X123266260Y-99080000D01*
X123553158Y-99022932D01*
X123823411Y-98910990D01*
X124066632Y-98748475D01*
X124273475Y-98541632D01*
X124390000Y-98367240D01*
X124506525Y-98541632D01*
X124713368Y-98748475D01*
X124956589Y-98910990D01*
X125226842Y-99022932D01*
X125513740Y-99080000D01*
X125806260Y-99080000D01*
X126093158Y-99022932D01*
X126166772Y-98992440D01*
X126020413Y-99138800D01*
X125117511Y-99138800D01*
X125024774Y-99046063D01*
X124855256Y-98932795D01*
X124666898Y-98854774D01*
X124466939Y-98815000D01*
X124263061Y-98815000D01*
X124063102Y-98854774D01*
X123874744Y-98932795D01*
X123705226Y-99046063D01*
X123561063Y-99190226D01*
X123447795Y-99359744D01*
X123369774Y-99548102D01*
X123330000Y-99748061D01*
X123330000Y-99951939D01*
X123369774Y-100151898D01*
X123447795Y-100340256D01*
X123561063Y-100509774D01*
X123705226Y-100653937D01*
X123874744Y-100767205D01*
X124063102Y-100845226D01*
X124263061Y-100885000D01*
X124382203Y-100885000D01*
X124366518Y-100889758D01*
X124242967Y-100955798D01*
X124161809Y-101022402D01*
X124161804Y-101022407D01*
X124134673Y-101044673D01*
X124112407Y-101071804D01*
X122641810Y-102542403D01*
X122614674Y-102564673D01*
X122592404Y-102591809D01*
X122592403Y-102591810D01*
X122525798Y-102672968D01*
X122469873Y-102777597D01*
X122459759Y-102796519D01*
X122419092Y-102930580D01*
X122408801Y-103035064D01*
X122405360Y-103070000D01*
X122408801Y-103104936D01*
X122408801Y-103904214D01*
X122173368Y-104061525D01*
X122041513Y-104193380D01*
X122019502Y-104120820D01*
X121960537Y-104010506D01*
X121881185Y-103913815D01*
X121784494Y-103834463D01*
X121674180Y-103775498D01*
X121554482Y-103739188D01*
X121430000Y-103726928D01*
X119730000Y-103726928D01*
X119605518Y-103739188D01*
X119485820Y-103775498D01*
X119375506Y-103834463D01*
X119278815Y-103913815D01*
X119199463Y-104010506D01*
X119140498Y-104120820D01*
X119104188Y-104240518D01*
X119091928Y-104365000D01*
X119091928Y-106065000D01*
X119104188Y-106189482D01*
X119140498Y-106309180D01*
X119199463Y-106419494D01*
X119278815Y-106516185D01*
X119375506Y-106595537D01*
X119485820Y-106654502D01*
X119605518Y-106690812D01*
X119730000Y-106703072D01*
X121062284Y-106703072D01*
X121131004Y-106771792D01*
X121153274Y-106798928D01*
X121261568Y-106887803D01*
X121385120Y-106953843D01*
X121519181Y-106994510D01*
X121623665Y-107004801D01*
X121623674Y-107004801D01*
X121658600Y-107008241D01*
X121693526Y-107004801D01*
X123985601Y-107004801D01*
X124020527Y-107008241D01*
X124055453Y-107004801D01*
X124055463Y-107004801D01*
X124159947Y-106994510D01*
X124294008Y-106953843D01*
X124417560Y-106887803D01*
X124525854Y-106798928D01*
X124548128Y-106771787D01*
X124856082Y-106463833D01*
X124956589Y-106530990D01*
X125226842Y-106642932D01*
X125513740Y-106700000D01*
X125806260Y-106700000D01*
X126083972Y-106644759D01*
X127472218Y-108033007D01*
X127494484Y-108060138D01*
X127521615Y-108082404D01*
X127521619Y-108082408D01*
X127602778Y-108149013D01*
X127726330Y-108215053D01*
X127860391Y-108255720D01*
X127964875Y-108266011D01*
X127964892Y-108266011D01*
X127999810Y-108269450D01*
X128034728Y-108266011D01*
X138956330Y-108266011D01*
X138991256Y-108269451D01*
X139026182Y-108266011D01*
X139026192Y-108266011D01*
X139130676Y-108255720D01*
X139264737Y-108215053D01*
X139388289Y-108149013D01*
X139496583Y-108060138D01*
X139518857Y-108032997D01*
X139635843Y-107916011D01*
X141150263Y-107916011D01*
X141185189Y-107919451D01*
X141220115Y-107916011D01*
X141220125Y-107916011D01*
X141324609Y-107905720D01*
X141458670Y-107865053D01*
X141532645Y-107825512D01*
X145874783Y-107825512D01*
X145916213Y-108105130D01*
X146011397Y-108371292D01*
X146078329Y-108496514D01*
X146322298Y-108568097D01*
X147135395Y-107755000D01*
X147494605Y-107755000D01*
X148307702Y-108568097D01*
X148551671Y-108496514D01*
X148672571Y-108241004D01*
X148741300Y-107966816D01*
X148755217Y-107684488D01*
X148713787Y-107404870D01*
X148618603Y-107138708D01*
X148551671Y-107013486D01*
X148307702Y-106941903D01*
X147494605Y-107755000D01*
X147135395Y-107755000D01*
X146322298Y-106941903D01*
X146078329Y-107013486D01*
X145957429Y-107268996D01*
X145888700Y-107543184D01*
X145874783Y-107825512D01*
X141532645Y-107825512D01*
X141582222Y-107799013D01*
X141690516Y-107710138D01*
X141712790Y-107682997D01*
X142918200Y-106477588D01*
X142945326Y-106455327D01*
X142967588Y-106428201D01*
X142967598Y-106428191D01*
X143034202Y-106347033D01*
X143100242Y-106223482D01*
X143140909Y-106089420D01*
X143147546Y-106022032D01*
X143151200Y-105984936D01*
X143151200Y-105984929D01*
X143154640Y-105950000D01*
X143151200Y-105915072D01*
X143151200Y-105113665D01*
X145880000Y-105113665D01*
X145880000Y-105396335D01*
X145935147Y-105673574D01*
X146043320Y-105934727D01*
X146200363Y-106169759D01*
X146400241Y-106369637D01*
X146600869Y-106503692D01*
X146573486Y-106518329D01*
X146501903Y-106762298D01*
X147315000Y-107575395D01*
X148128097Y-106762298D01*
X148056514Y-106518329D01*
X148027659Y-106504676D01*
X148229759Y-106369637D01*
X148429637Y-106169759D01*
X148586680Y-105934727D01*
X148694853Y-105673574D01*
X148750000Y-105396335D01*
X148750000Y-105113665D01*
X148694853Y-104836426D01*
X148586680Y-104575273D01*
X148429637Y-104340241D01*
X148229759Y-104140363D01*
X147994727Y-103983320D01*
X147733574Y-103875147D01*
X147456335Y-103820000D01*
X147173665Y-103820000D01*
X146896426Y-103875147D01*
X146635273Y-103983320D01*
X146400241Y-104140363D01*
X146200363Y-104340241D01*
X146043320Y-104575273D01*
X145935147Y-104836426D01*
X145880000Y-105113665D01*
X143151200Y-105113665D01*
X143151200Y-98787037D01*
X143165909Y-98738548D01*
X143176200Y-98634064D01*
X143176200Y-98634055D01*
X143179640Y-98599129D01*
X143176200Y-98564203D01*
X143176200Y-94524014D01*
X143256928Y-94443286D01*
X143256928Y-95905000D01*
X143269188Y-96029482D01*
X143305498Y-96149180D01*
X143364463Y-96259494D01*
X143443815Y-96356185D01*
X143540506Y-96435537D01*
X143650820Y-96494502D01*
X143723380Y-96516513D01*
X143591525Y-96648368D01*
X143429010Y-96891589D01*
X143317068Y-97161842D01*
X143260000Y-97448740D01*
X143260000Y-97741260D01*
X143317068Y-98028158D01*
X143429010Y-98298411D01*
X143591525Y-98541632D01*
X143798368Y-98748475D01*
X144041589Y-98910990D01*
X144311842Y-99022932D01*
X144598740Y-99080000D01*
X144891260Y-99080000D01*
X145178158Y-99022932D01*
X145448411Y-98910990D01*
X145691632Y-98748475D01*
X145898475Y-98541632D01*
X146015000Y-98367240D01*
X146131525Y-98541632D01*
X146338368Y-98748475D01*
X146581589Y-98910990D01*
X146851842Y-99022932D01*
X147138740Y-99080000D01*
X147431260Y-99080000D01*
X147718158Y-99022932D01*
X147988411Y-98910990D01*
X148231632Y-98748475D01*
X148438475Y-98541632D01*
X148600990Y-98298411D01*
X148712932Y-98028158D01*
X148770000Y-97741260D01*
X148770000Y-97448740D01*
X148712932Y-97161842D01*
X148600990Y-96891589D01*
X148438475Y-96648368D01*
X148231632Y-96441525D01*
X148055594Y-96323900D01*
X148285269Y-96152588D01*
X148480178Y-95936355D01*
X148629157Y-95686252D01*
X148726481Y-95411891D01*
X148605814Y-95182000D01*
X147412000Y-95182000D01*
X147412000Y-95202000D01*
X147158000Y-95202000D01*
X147158000Y-95182000D01*
X147138000Y-95182000D01*
X147138000Y-94928000D01*
X147158000Y-94928000D01*
X147158000Y-93734845D01*
X147412000Y-93734845D01*
X147412000Y-94928000D01*
X148605814Y-94928000D01*
X148726481Y-94698109D01*
X148629157Y-94423748D01*
X148480178Y-94173645D01*
X148285269Y-93957412D01*
X148051920Y-93783359D01*
X147789099Y-93658175D01*
X147641890Y-93613524D01*
X147412000Y-93734845D01*
X147158000Y-93734845D01*
X146928110Y-93613524D01*
X146780901Y-93658175D01*
X146518080Y-93783359D01*
X146284731Y-93957412D01*
X146208966Y-94041466D01*
X146184502Y-93960820D01*
X146125537Y-93850506D01*
X146046185Y-93753815D01*
X145949494Y-93674463D01*
X145839180Y-93615498D01*
X145719482Y-93579188D01*
X145595000Y-93566928D01*
X145456200Y-93566928D01*
X145456200Y-92809587D01*
X147918196Y-90347593D01*
X147945327Y-90325327D01*
X147967593Y-90298196D01*
X147967598Y-90298191D01*
X148017686Y-90237158D01*
X148036913Y-90246246D01*
X148170961Y-90286904D01*
X148393000Y-90164915D01*
X148393000Y-89022000D01*
X148647000Y-89022000D01*
X148647000Y-90164915D01*
X148869039Y-90286904D01*
X149003087Y-90246246D01*
X149257420Y-90126037D01*
X149483414Y-89958519D01*
X149672385Y-89750131D01*
X149817070Y-89508881D01*
X149911909Y-89244040D01*
X149790624Y-89022000D01*
X148647000Y-89022000D01*
X148393000Y-89022000D01*
X148373000Y-89022000D01*
X148373000Y-88768000D01*
X148393000Y-88768000D01*
X148393000Y-87625085D01*
X148647000Y-87625085D01*
X148647000Y-88768000D01*
X149790624Y-88768000D01*
X149911909Y-88545960D01*
X149817070Y-88281119D01*
X149672385Y-88039869D01*
X149483414Y-87831481D01*
X149257420Y-87663963D01*
X149003087Y-87543754D01*
X148869039Y-87503096D01*
X148647000Y-87625085D01*
X148393000Y-87625085D01*
X148170961Y-87503096D01*
X148151200Y-87509090D01*
X148151200Y-84661069D01*
X150543196Y-82269075D01*
X150570327Y-82246809D01*
X150592593Y-82219678D01*
X150592598Y-82219673D01*
X150659202Y-82138515D01*
X150725242Y-82014964D01*
X150765909Y-81880902D01*
X150776200Y-81776418D01*
X150776200Y-81776411D01*
X150779640Y-81741482D01*
X150776200Y-81706554D01*
X150776200Y-78734925D01*
X150779640Y-78699999D01*
X150776200Y-78665073D01*
X150776200Y-78665064D01*
X150765909Y-78560580D01*
X150725242Y-78426519D01*
X150659202Y-78302967D01*
X150627634Y-78264502D01*
X150592597Y-78221809D01*
X150592593Y-78221805D01*
X150570326Y-78194673D01*
X150543195Y-78172407D01*
X148667602Y-76296815D01*
X148645327Y-76269673D01*
X148537033Y-76180798D01*
X148413481Y-76114758D01*
X148279420Y-76074091D01*
X148174936Y-76063800D01*
X148174926Y-76063800D01*
X148140000Y-76060360D01*
X148105074Y-76063800D01*
X129510786Y-76063800D01*
X129353475Y-75828368D01*
X129146632Y-75621525D01*
X128903411Y-75459010D01*
X128633158Y-75347068D01*
X128346260Y-75290000D01*
X128053740Y-75290000D01*
X127766842Y-75347068D01*
X127496589Y-75459010D01*
X127253368Y-75621525D01*
X127046525Y-75828368D01*
X126930000Y-76002760D01*
X126813475Y-75828368D01*
X126606632Y-75621525D01*
X126363411Y-75459010D01*
X126093158Y-75347068D01*
X125806260Y-75290000D01*
X125513740Y-75290000D01*
X125226842Y-75347068D01*
X124956589Y-75459010D01*
X124713368Y-75621525D01*
X124506525Y-75828368D01*
X124390000Y-76002760D01*
X124273475Y-75828368D01*
X124066632Y-75621525D01*
X123823411Y-75459010D01*
X123553158Y-75347068D01*
X123266260Y-75290000D01*
X122973740Y-75290000D01*
X122686842Y-75347068D01*
X122416589Y-75459010D01*
X122173368Y-75621525D01*
X122041513Y-75753380D01*
X122019502Y-75680820D01*
X121960537Y-75570506D01*
X121881185Y-75473815D01*
X121784494Y-75394463D01*
X121674180Y-75335498D01*
X121554482Y-75299188D01*
X121430000Y-75286928D01*
X119730000Y-75286928D01*
X119605518Y-75299188D01*
X119485820Y-75335498D01*
X119375506Y-75394463D01*
X119278815Y-75473815D01*
X119199463Y-75570506D01*
X119140498Y-75680820D01*
X119104188Y-75800518D01*
X119091928Y-75925000D01*
X119091928Y-77625000D01*
X119104188Y-77749482D01*
X119140498Y-77869180D01*
X119199463Y-77979494D01*
X119278815Y-78076185D01*
X119375506Y-78155537D01*
X119485820Y-78214502D01*
X119605518Y-78250812D01*
X119730000Y-78263072D01*
X121430000Y-78263072D01*
X121554482Y-78250812D01*
X121674180Y-78214502D01*
X121784494Y-78155537D01*
X121881185Y-78076185D01*
X121960537Y-77979494D01*
X122019502Y-77869180D01*
X122041513Y-77796620D01*
X122173368Y-77928475D01*
X122416589Y-78090990D01*
X122686842Y-78202932D01*
X122973740Y-78260000D01*
X123266260Y-78260000D01*
X123553158Y-78202932D01*
X123823411Y-78090990D01*
X124066632Y-77928475D01*
X124273475Y-77721632D01*
X124390000Y-77547240D01*
X124506525Y-77721632D01*
X124713368Y-77928475D01*
X124956589Y-78090990D01*
X125226842Y-78202932D01*
X125513740Y-78260000D01*
X125806260Y-78260000D01*
X126093158Y-78202932D01*
X126363411Y-78090990D01*
X126606632Y-77928475D01*
X126813475Y-77721632D01*
X126930000Y-77547240D01*
X127046525Y-77721632D01*
X127253368Y-77928475D01*
X127496589Y-78090990D01*
X127766842Y-78202932D01*
X128053740Y-78260000D01*
X128346260Y-78260000D01*
X128633158Y-78202932D01*
X128903411Y-78090990D01*
X129146632Y-77928475D01*
X129353475Y-77721632D01*
X129510786Y-77486200D01*
X147845413Y-77486200D01*
X149353800Y-78994588D01*
X149353800Y-79840257D01*
X149320000Y-79836928D01*
X147720000Y-79836928D01*
X147595518Y-79849188D01*
X147475820Y-79885498D01*
X147365506Y-79944463D01*
X147268815Y-80023815D01*
X147189463Y-80120506D01*
X147130498Y-80230820D01*
X147094188Y-80350518D01*
X147093357Y-80358961D01*
X146894759Y-80160363D01*
X146659727Y-80003320D01*
X146398574Y-79895147D01*
X146121335Y-79840000D01*
X145838665Y-79840000D01*
X145561426Y-79895147D01*
X145300273Y-80003320D01*
X145065241Y-80160363D01*
X144865363Y-80360241D01*
X144710000Y-80592759D01*
X144554637Y-80360241D01*
X144354759Y-80160363D01*
X144119727Y-80003320D01*
X143858574Y-79895147D01*
X143581335Y-79840000D01*
X143298665Y-79840000D01*
X143021426Y-79895147D01*
X142760273Y-80003320D01*
X142525241Y-80160363D01*
X142325363Y-80360241D01*
X142170000Y-80592759D01*
X142014637Y-80360241D01*
X141814759Y-80160363D01*
X141579727Y-80003320D01*
X141318574Y-79895147D01*
X141041335Y-79840000D01*
X140758665Y-79840000D01*
X140481426Y-79895147D01*
X140220273Y-80003320D01*
X139985241Y-80160363D01*
X139785363Y-80360241D01*
X139630000Y-80592759D01*
X139474637Y-80360241D01*
X139274759Y-80160363D01*
X139039727Y-80003320D01*
X138778574Y-79895147D01*
X138501335Y-79840000D01*
X138218665Y-79840000D01*
X137941426Y-79895147D01*
X137680273Y-80003320D01*
X137445241Y-80160363D01*
X137245363Y-80360241D01*
X137090000Y-80592759D01*
X136934637Y-80360241D01*
X136734759Y-80160363D01*
X136499727Y-80003320D01*
X136238574Y-79895147D01*
X135961335Y-79840000D01*
X135678665Y-79840000D01*
X135401426Y-79895147D01*
X135140273Y-80003320D01*
X134905241Y-80160363D01*
X134705363Y-80360241D01*
X134550000Y-80592759D01*
X134394637Y-80360241D01*
X134194759Y-80160363D01*
X133959727Y-80003320D01*
X133698574Y-79895147D01*
X133421335Y-79840000D01*
X133138665Y-79840000D01*
X132861426Y-79895147D01*
X132600273Y-80003320D01*
X132365241Y-80160363D01*
X132165363Y-80360241D01*
X132010000Y-80592759D01*
X131854637Y-80360241D01*
X131654759Y-80160363D01*
X131419727Y-80003320D01*
X131158574Y-79895147D01*
X130881335Y-79840000D01*
X130598665Y-79840000D01*
X130321426Y-79895147D01*
X130060273Y-80003320D01*
X129825241Y-80160363D01*
X129625363Y-80360241D01*
X129470000Y-80592759D01*
X129314637Y-80360241D01*
X129114759Y-80160363D01*
X128879727Y-80003320D01*
X128618574Y-79895147D01*
X128341335Y-79840000D01*
X128058665Y-79840000D01*
X127781426Y-79895147D01*
X127520273Y-80003320D01*
X127285241Y-80160363D01*
X127085363Y-80360241D01*
X126930000Y-80592759D01*
X126774637Y-80360241D01*
X126574759Y-80160363D01*
X126339727Y-80003320D01*
X126078574Y-79895147D01*
X125801335Y-79840000D01*
X125518665Y-79840000D01*
X125241426Y-79895147D01*
X124980273Y-80003320D01*
X124745241Y-80160363D01*
X124545363Y-80360241D01*
X124390000Y-80592759D01*
X124234637Y-80360241D01*
X124034759Y-80160363D01*
X123799727Y-80003320D01*
X123538574Y-79895147D01*
X123261335Y-79840000D01*
X122978665Y-79840000D01*
X122701426Y-79895147D01*
X122440273Y-80003320D01*
X122205241Y-80160363D01*
X122005363Y-80360241D01*
X121850000Y-80592759D01*
X121694637Y-80360241D01*
X121494759Y-80160363D01*
X121259727Y-80003320D01*
X120998574Y-79895147D01*
X120721335Y-79840000D01*
X120438665Y-79840000D01*
X120161426Y-79895147D01*
X119900273Y-80003320D01*
X119665241Y-80160363D01*
X119465363Y-80360241D01*
X119308320Y-80595273D01*
X119200147Y-80856426D01*
X119145000Y-81133665D01*
X119145000Y-81416335D01*
X119200147Y-81693574D01*
X119308320Y-81954727D01*
X119465363Y-82189759D01*
X119665241Y-82389637D01*
X119900273Y-82546680D01*
X120161426Y-82654853D01*
X120438665Y-82710000D01*
X120721335Y-82710000D01*
X120998574Y-82654853D01*
X121259727Y-82546680D01*
X121494759Y-82389637D01*
X121694637Y-82189759D01*
X121850000Y-81957241D01*
X122005363Y-82189759D01*
X122205241Y-82389637D01*
X122440273Y-82546680D01*
X122701426Y-82654853D01*
X122978665Y-82710000D01*
X123219213Y-82710000D01*
X123167823Y-82761390D01*
X123018061Y-82761390D01*
X122818102Y-82801164D01*
X122629744Y-82879185D01*
X122460226Y-82992453D01*
X122316063Y-83136616D01*
X122202795Y-83306134D01*
X122124774Y-83494492D01*
X122085000Y-83694451D01*
X122085000Y-83717745D01*
X122020581Y-83724090D01*
X121886520Y-83764757D01*
X121762968Y-83830797D01*
X121654674Y-83919672D01*
X121632404Y-83946808D01*
X121003972Y-84575241D01*
X120726260Y-84520000D01*
X120433740Y-84520000D01*
X120146842Y-84577068D01*
X119876589Y-84689010D01*
X119633368Y-84851525D01*
X119426525Y-85058368D01*
X119264010Y-85301589D01*
X119152068Y-85571842D01*
X119095000Y-85858740D01*
X119095000Y-86151260D01*
X119152068Y-86438158D01*
X119264010Y-86708411D01*
X119426525Y-86951632D01*
X119633368Y-87158475D01*
X119876589Y-87320990D01*
X120146842Y-87432932D01*
X120360793Y-87475490D01*
X120161426Y-87515147D01*
X119900273Y-87623320D01*
X119665241Y-87780363D01*
X119465363Y-87980241D01*
X119308320Y-88215273D01*
X119200147Y-88476426D01*
X119145000Y-88753665D01*
X119145000Y-89036335D01*
X119200147Y-89313574D01*
X119308320Y-89574727D01*
X119317723Y-89588799D01*
X118765654Y-89588799D01*
X117275252Y-88098397D01*
X117252982Y-88071261D01*
X117144688Y-87982386D01*
X117021136Y-87916346D01*
X116887075Y-87875679D01*
X116782591Y-87865388D01*
X116782581Y-87865388D01*
X116747655Y-87861948D01*
X116712727Y-87865388D01*
X108863036Y-87865388D01*
X108894853Y-87788574D01*
X108950000Y-87511335D01*
X108950000Y-87228665D01*
X108894853Y-86951426D01*
X108786680Y-86690273D01*
X108629637Y-86455241D01*
X108429759Y-86255363D01*
X108197241Y-86100000D01*
X108429759Y-85944637D01*
X108629637Y-85744759D01*
X108786680Y-85509727D01*
X108894853Y-85248574D01*
X108950000Y-84971335D01*
X108950000Y-84688665D01*
X108894853Y-84411426D01*
X108786680Y-84150273D01*
X108629637Y-83915241D01*
X108429759Y-83715363D01*
X108194727Y-83558320D01*
X107933574Y-83450147D01*
X107656335Y-83395000D01*
X107373665Y-83395000D01*
X107096426Y-83450147D01*
X106835273Y-83558320D01*
X106600241Y-83715363D01*
X106400363Y-83915241D01*
X106243320Y-84150273D01*
X106135147Y-84411426D01*
X106080000Y-84688665D01*
X106080000Y-84971335D01*
X106135147Y-85248574D01*
X106243320Y-85509727D01*
X106400363Y-85744759D01*
X106600241Y-85944637D01*
X106832759Y-86100000D01*
X106600241Y-86255363D01*
X106400363Y-86455241D01*
X106243320Y-86690273D01*
X106135147Y-86951426D01*
X106080000Y-87228665D01*
X106080000Y-87511335D01*
X106135147Y-87788574D01*
X106166964Y-87865388D01*
X103936176Y-87865388D01*
X101282237Y-85211450D01*
X101330000Y-84971335D01*
X101330000Y-84688665D01*
X101274853Y-84411426D01*
X101166680Y-84150273D01*
X101009637Y-83915241D01*
X100809759Y-83715363D01*
X100574727Y-83558320D01*
X100313574Y-83450147D01*
X100036335Y-83395000D01*
X99753665Y-83395000D01*
X99476426Y-83450147D01*
X99215273Y-83558320D01*
X98980241Y-83715363D01*
X98780363Y-83915241D01*
X98623320Y-84150273D01*
X98515147Y-84411426D01*
X98460000Y-84688665D01*
X98460000Y-84971335D01*
X98515147Y-85248574D01*
X98623320Y-85509727D01*
X98780363Y-85744759D01*
X98980241Y-85944637D01*
X99212759Y-86100000D01*
X98980241Y-86255363D01*
X98780363Y-86455241D01*
X98623320Y-86690273D01*
X98515147Y-86951426D01*
X98460000Y-87228665D01*
X98460000Y-87511335D01*
X98515147Y-87788574D01*
X98623320Y-88049727D01*
X98780363Y-88284759D01*
X98980241Y-88484637D01*
X99212759Y-88640000D01*
X98980241Y-88795363D01*
X98780363Y-88995241D01*
X98623320Y-89230273D01*
X98515147Y-89491426D01*
X98460000Y-89768665D01*
X98460000Y-90051335D01*
X98515147Y-90328574D01*
X98623320Y-90589727D01*
X98780363Y-90824759D01*
X98980241Y-91024637D01*
X99212759Y-91180000D01*
X98980241Y-91335363D01*
X98780363Y-91535241D01*
X98623320Y-91770273D01*
X98515147Y-92031426D01*
X98460000Y-92308665D01*
X98460000Y-92591335D01*
X98507763Y-92831450D01*
X98388209Y-92951004D01*
X98361073Y-92973274D01*
X98338803Y-93000410D01*
X98338802Y-93000411D01*
X98302864Y-93044202D01*
X98272198Y-93081568D01*
X98206158Y-93205120D01*
X98183345Y-93280326D01*
X98165491Y-93339182D01*
X98151759Y-93478601D01*
X97955000Y-93478601D01*
X97955000Y-76678740D01*
X101720000Y-76678740D01*
X101720000Y-76971260D01*
X101777068Y-77258158D01*
X101889010Y-77528411D01*
X102051525Y-77771632D01*
X102258368Y-77978475D01*
X102501589Y-78140990D01*
X102771842Y-78252932D01*
X103058740Y-78310000D01*
X103351260Y-78310000D01*
X103638158Y-78252932D01*
X103908411Y-78140990D01*
X104151632Y-77978475D01*
X104358475Y-77771632D01*
X104475000Y-77597240D01*
X104591525Y-77771632D01*
X104798368Y-77978475D01*
X105041589Y-78140990D01*
X105311842Y-78252932D01*
X105598740Y-78310000D01*
X105891260Y-78310000D01*
X106178158Y-78252932D01*
X106448411Y-78140990D01*
X106691632Y-77978475D01*
X106898475Y-77771632D01*
X107015000Y-77597240D01*
X107131525Y-77771632D01*
X107338368Y-77978475D01*
X107581589Y-78140990D01*
X107851842Y-78252932D01*
X108138740Y-78310000D01*
X108431260Y-78310000D01*
X108718158Y-78252932D01*
X108988411Y-78140990D01*
X109231632Y-77978475D01*
X109438475Y-77771632D01*
X109555000Y-77597240D01*
X109671525Y-77771632D01*
X109878368Y-77978475D01*
X110121589Y-78140990D01*
X110391842Y-78252932D01*
X110678740Y-78310000D01*
X110971260Y-78310000D01*
X111258158Y-78252932D01*
X111528411Y-78140990D01*
X111771632Y-77978475D01*
X111903487Y-77846620D01*
X111925498Y-77919180D01*
X111984463Y-78029494D01*
X112063815Y-78126185D01*
X112160506Y-78205537D01*
X112270820Y-78264502D01*
X112390518Y-78300812D01*
X112515000Y-78313072D01*
X114215000Y-78313072D01*
X114339482Y-78300812D01*
X114459180Y-78264502D01*
X114569494Y-78205537D01*
X114666185Y-78126185D01*
X114745537Y-78029494D01*
X114804502Y-77919180D01*
X114840812Y-77799482D01*
X114853072Y-77675000D01*
X114853072Y-75975000D01*
X114840812Y-75850518D01*
X114804502Y-75730820D01*
X114745537Y-75620506D01*
X114666185Y-75523815D01*
X114569494Y-75444463D01*
X114459180Y-75385498D01*
X114339482Y-75349188D01*
X114215000Y-75336928D01*
X112515000Y-75336928D01*
X112390518Y-75349188D01*
X112270820Y-75385498D01*
X112160506Y-75444463D01*
X112063815Y-75523815D01*
X111984463Y-75620506D01*
X111925498Y-75730820D01*
X111903487Y-75803380D01*
X111771632Y-75671525D01*
X111528411Y-75509010D01*
X111258158Y-75397068D01*
X110971260Y-75340000D01*
X110678740Y-75340000D01*
X110391842Y-75397068D01*
X110121589Y-75509010D01*
X109878368Y-75671525D01*
X109671525Y-75878368D01*
X109555000Y-76052760D01*
X109438475Y-75878368D01*
X109231632Y-75671525D01*
X108988411Y-75509010D01*
X108718158Y-75397068D01*
X108431260Y-75340000D01*
X108138740Y-75340000D01*
X107851842Y-75397068D01*
X107581589Y-75509010D01*
X107338368Y-75671525D01*
X107131525Y-75878368D01*
X107015000Y-76052760D01*
X106898475Y-75878368D01*
X106691632Y-75671525D01*
X106448411Y-75509010D01*
X106178158Y-75397068D01*
X105891260Y-75340000D01*
X105598740Y-75340000D01*
X105311842Y-75397068D01*
X105041589Y-75509010D01*
X104798368Y-75671525D01*
X104591525Y-75878368D01*
X104475000Y-76052760D01*
X104358475Y-75878368D01*
X104151632Y-75671525D01*
X103908411Y-75509010D01*
X103638158Y-75397068D01*
X103351260Y-75340000D01*
X103058740Y-75340000D01*
X102771842Y-75397068D01*
X102501589Y-75509010D01*
X102258368Y-75671525D01*
X102051525Y-75878368D01*
X101889010Y-76121589D01*
X101777068Y-76391842D01*
X101720000Y-76678740D01*
X97955000Y-76678740D01*
X97955000Y-75030000D01*
X151755000Y-75030000D01*
X151755001Y-109790000D01*
G04 #@! TA.AperFunction,Conductor*
D18*
G36*
X151755001Y-109790000D02*
G01*
X97955000Y-109790000D01*
X97955000Y-108747702D01*
X146501903Y-108747702D01*
X146573486Y-108991671D01*
X146828996Y-109112571D01*
X147103184Y-109181300D01*
X147385512Y-109195217D01*
X147665130Y-109153787D01*
X147931292Y-109058603D01*
X148056514Y-108991671D01*
X148128097Y-108747702D01*
X147315000Y-107934605D01*
X146501903Y-108747702D01*
X97955000Y-108747702D01*
X97955000Y-106974039D01*
X98503096Y-106974039D01*
X98543754Y-107108087D01*
X98663963Y-107362420D01*
X98831481Y-107588414D01*
X99039869Y-107777385D01*
X99281119Y-107922070D01*
X99545960Y-108016909D01*
X99768000Y-107895624D01*
X99768000Y-106752000D01*
X100022000Y-106752000D01*
X100022000Y-107895624D01*
X100244040Y-108016909D01*
X100508881Y-107922070D01*
X100750131Y-107777385D01*
X100958519Y-107588414D01*
X101126037Y-107362420D01*
X101246246Y-107108087D01*
X101286904Y-106974039D01*
X101164915Y-106752000D01*
X100022000Y-106752000D01*
X99768000Y-106752000D01*
X98625085Y-106752000D01*
X98503096Y-106974039D01*
X97955000Y-106974039D01*
X97955000Y-93478601D01*
X98151759Y-93478601D01*
X98155200Y-93513537D01*
X98155199Y-103021473D01*
X98151759Y-103056399D01*
X98155199Y-103091325D01*
X98155199Y-103091334D01*
X98165490Y-103195818D01*
X98206157Y-103329879D01*
X98272197Y-103453431D01*
X98361072Y-103561725D01*
X98388209Y-103583996D01*
X98507763Y-103703550D01*
X98460000Y-103943665D01*
X98460000Y-104226335D01*
X98515147Y-104503574D01*
X98623320Y-104764727D01*
X98780363Y-104999759D01*
X98980241Y-105199637D01*
X99215273Y-105356680D01*
X99225865Y-105361067D01*
X99039869Y-105472615D01*
X98831481Y-105661586D01*
X98663963Y-105887580D01*
X98543754Y-106141913D01*
X98503096Y-106275961D01*
X98625085Y-106498000D01*
X99768000Y-106498000D01*
X99768000Y-106478000D01*
X100022000Y-106478000D01*
X100022000Y-106498000D01*
X101164915Y-106498000D01*
X101286904Y-106275961D01*
X101246246Y-106141913D01*
X101126037Y-105887580D01*
X100958519Y-105661586D01*
X100750131Y-105472615D01*
X100564135Y-105361067D01*
X100574727Y-105356680D01*
X100809759Y-105199637D01*
X101009637Y-104999759D01*
X101166680Y-104764727D01*
X101274853Y-104503574D01*
X101330000Y-104226335D01*
X101330000Y-103943665D01*
X101274853Y-103666426D01*
X101166680Y-103405273D01*
X101009637Y-103170241D01*
X100809759Y-102970363D01*
X100577241Y-102815000D01*
X100809759Y-102659637D01*
X101009637Y-102459759D01*
X101166680Y-102224727D01*
X101274853Y-101963574D01*
X101330000Y-101686335D01*
X101330000Y-101403665D01*
X101274853Y-101126426D01*
X101166680Y-100865273D01*
X101009637Y-100630241D01*
X100809759Y-100430363D01*
X100577241Y-100275000D01*
X100809759Y-100119637D01*
X101009637Y-99919759D01*
X101166680Y-99684727D01*
X101274853Y-99423574D01*
X101330000Y-99146335D01*
X101330000Y-98863665D01*
X101274853Y-98586426D01*
X101166680Y-98325273D01*
X101009637Y-98090241D01*
X100809759Y-97890363D01*
X100574727Y-97733320D01*
X100313574Y-97625147D01*
X100036335Y-97570000D01*
X99753665Y-97570000D01*
X99577599Y-97605022D01*
X99577599Y-93849978D01*
X99753665Y-93885000D01*
X100036335Y-93885000D01*
X100313574Y-93829853D01*
X100574727Y-93721680D01*
X100809759Y-93564637D01*
X101009637Y-93364759D01*
X101166680Y-93129727D01*
X101274853Y-92868574D01*
X101330000Y-92591335D01*
X101330000Y-92308665D01*
X101294978Y-92132599D01*
X106076928Y-92132599D01*
X106076928Y-93250000D01*
X106089188Y-93374482D01*
X106125498Y-93494180D01*
X106184463Y-93604494D01*
X106263815Y-93701185D01*
X106360506Y-93780537D01*
X106470820Y-93839502D01*
X106590518Y-93875812D01*
X106715000Y-93888072D01*
X108315000Y-93888072D01*
X108439482Y-93875812D01*
X108559180Y-93839502D01*
X108669494Y-93780537D01*
X108766185Y-93701185D01*
X108845537Y-93604494D01*
X108904502Y-93494180D01*
X108940812Y-93374482D01*
X108953072Y-93250000D01*
X108953072Y-92845192D01*
X109028001Y-92885242D01*
X109162062Y-92925909D01*
X109266546Y-92936200D01*
X109266563Y-92936200D01*
X109301481Y-92939639D01*
X109336399Y-92936200D01*
X117945413Y-92936200D01*
X118262401Y-93253189D01*
X118284672Y-93280326D01*
X118392966Y-93369201D01*
X118516518Y-93435241D01*
X118650579Y-93475908D01*
X118755063Y-93486199D01*
X118755072Y-93486199D01*
X118789998Y-93489639D01*
X118824924Y-93486199D01*
X131905075Y-93486199D01*
X131940001Y-93489639D01*
X131974927Y-93486199D01*
X131974937Y-93486199D01*
X132079421Y-93475908D01*
X132213482Y-93435241D01*
X132337034Y-93369201D01*
X132445328Y-93280326D01*
X132467603Y-93253184D01*
X135438551Y-90282238D01*
X135678665Y-90330000D01*
X135961335Y-90330000D01*
X136238574Y-90274853D01*
X136378801Y-90216769D01*
X136378801Y-93679111D01*
X136253158Y-93627068D01*
X135966260Y-93570000D01*
X135673740Y-93570000D01*
X135386842Y-93627068D01*
X135116589Y-93739010D01*
X134873368Y-93901525D01*
X134666525Y-94108368D01*
X134550000Y-94282760D01*
X134433475Y-94108368D01*
X134226632Y-93901525D01*
X133983411Y-93739010D01*
X133713158Y-93627068D01*
X133426260Y-93570000D01*
X133133740Y-93570000D01*
X132846842Y-93627068D01*
X132576589Y-93739010D01*
X132333368Y-93901525D01*
X132126525Y-94108368D01*
X132010000Y-94282760D01*
X131893475Y-94108368D01*
X131686632Y-93901525D01*
X131443411Y-93739010D01*
X131173158Y-93627068D01*
X130886260Y-93570000D01*
X130593740Y-93570000D01*
X130306842Y-93627068D01*
X130036589Y-93739010D01*
X129793368Y-93901525D01*
X129586525Y-94108368D01*
X129470000Y-94282760D01*
X129353475Y-94108368D01*
X129146632Y-93901525D01*
X128903411Y-93739010D01*
X128633158Y-93627068D01*
X128346260Y-93570000D01*
X128053740Y-93570000D01*
X127766842Y-93627068D01*
X127496589Y-93739010D01*
X127253368Y-93901525D01*
X127046525Y-94108368D01*
X126930000Y-94282760D01*
X126813475Y-94108368D01*
X126606632Y-93901525D01*
X126363411Y-93739010D01*
X126093158Y-93627068D01*
X125806260Y-93570000D01*
X125513740Y-93570000D01*
X125226842Y-93627068D01*
X124956589Y-93739010D01*
X124713368Y-93901525D01*
X124506525Y-94108368D01*
X124390000Y-94282760D01*
X124273475Y-94108368D01*
X124066632Y-93901525D01*
X123823411Y-93739010D01*
X123553158Y-93627068D01*
X123266260Y-93570000D01*
X122973740Y-93570000D01*
X122686842Y-93627068D01*
X122416589Y-93739010D01*
X122173368Y-93901525D01*
X121966525Y-94108368D01*
X121850000Y-94282760D01*
X121733475Y-94108368D01*
X121526632Y-93901525D01*
X121283411Y-93739010D01*
X121013158Y-93627068D01*
X120726260Y-93570000D01*
X120433740Y-93570000D01*
X120146842Y-93627068D01*
X119876589Y-93739010D01*
X119633368Y-93901525D01*
X119426525Y-94108368D01*
X119264010Y-94351589D01*
X119152068Y-94621842D01*
X119095000Y-94908740D01*
X119095000Y-95201260D01*
X119152068Y-95488158D01*
X119264010Y-95758411D01*
X119426525Y-96001632D01*
X119558380Y-96133487D01*
X119485820Y-96155498D01*
X119375506Y-96214463D01*
X119278815Y-96293815D01*
X119199463Y-96390506D01*
X119140498Y-96500820D01*
X119104188Y-96620518D01*
X119091928Y-96745000D01*
X119091928Y-98445000D01*
X119098409Y-98510803D01*
X112695413Y-104913800D01*
X108687073Y-104913800D01*
X108786680Y-104764727D01*
X108894853Y-104503574D01*
X108950000Y-104226335D01*
X108950000Y-103943665D01*
X108894853Y-103666426D01*
X108786680Y-103405273D01*
X108629637Y-103170241D01*
X108429759Y-102970363D01*
X108197241Y-102815000D01*
X108429759Y-102659637D01*
X108629637Y-102459759D01*
X108786680Y-102224727D01*
X108894853Y-101963574D01*
X108950000Y-101686335D01*
X108950000Y-101403665D01*
X108894853Y-101126426D01*
X108786680Y-100865273D01*
X108629637Y-100630241D01*
X108429759Y-100430363D01*
X108197241Y-100275000D01*
X108429759Y-100119637D01*
X108629637Y-99919759D01*
X108786680Y-99684727D01*
X108894853Y-99423574D01*
X108950000Y-99146335D01*
X108950000Y-98863665D01*
X108894853Y-98586426D01*
X108786680Y-98325273D01*
X108629637Y-98090241D01*
X108429759Y-97890363D01*
X108194727Y-97733320D01*
X107933574Y-97625147D01*
X107656335Y-97570000D01*
X107373665Y-97570000D01*
X107096426Y-97625147D01*
X106835273Y-97733320D01*
X106600241Y-97890363D01*
X106400363Y-98090241D01*
X106243320Y-98325273D01*
X106135147Y-98586426D01*
X106080000Y-98863665D01*
X106080000Y-99146335D01*
X106135147Y-99423574D01*
X106243320Y-99684727D01*
X106400363Y-99919759D01*
X106600241Y-100119637D01*
X106832759Y-100275000D01*
X106600241Y-100430363D01*
X106400363Y-100630241D01*
X106243320Y-100865273D01*
X106135147Y-101126426D01*
X106080000Y-101403665D01*
X106080000Y-101686335D01*
X106135147Y-101963574D01*
X106243320Y-102224727D01*
X106400363Y-102459759D01*
X106600241Y-102659637D01*
X106832759Y-102815000D01*
X106600241Y-102970363D01*
X106400363Y-103170241D01*
X106243320Y-103405273D01*
X106135147Y-103666426D01*
X106080000Y-103943665D01*
X106080000Y-104226335D01*
X106135147Y-104503574D01*
X106243320Y-104764727D01*
X106400363Y-104999759D01*
X106598961Y-105198357D01*
X106590518Y-105199188D01*
X106470820Y-105235498D01*
X106360506Y-105294463D01*
X106263815Y-105373815D01*
X106184463Y-105470506D01*
X106125498Y-105580820D01*
X106089188Y-105700518D01*
X106076928Y-105825000D01*
X106076928Y-107425000D01*
X106089188Y-107549482D01*
X106125498Y-107669180D01*
X106184463Y-107779494D01*
X106263815Y-107876185D01*
X106360506Y-107955537D01*
X106470820Y-108014502D01*
X106590518Y-108050812D01*
X106715000Y-108063072D01*
X108315000Y-108063072D01*
X108439482Y-108050812D01*
X108559180Y-108014502D01*
X108669494Y-107955537D01*
X108766185Y-107876185D01*
X108845537Y-107779494D01*
X108904502Y-107669180D01*
X108940812Y-107549482D01*
X108953072Y-107425000D01*
X108953072Y-106336200D01*
X112955074Y-106336200D01*
X112990000Y-106339640D01*
X113024926Y-106336200D01*
X113024936Y-106336200D01*
X113129420Y-106325909D01*
X113263481Y-106285242D01*
X113387033Y-106219202D01*
X113495327Y-106130327D01*
X113517602Y-106103185D01*
X120537716Y-99083072D01*
X121430000Y-99083072D01*
X121554482Y-99070812D01*
X121674180Y-99034502D01*
X121784494Y-98975537D01*
X121881185Y-98896185D01*
X121960537Y-98799494D01*
X122019502Y-98689180D01*
X122041513Y-98616620D01*
X122173368Y-98748475D01*
X122416589Y-98910990D01*
X122686842Y-99022932D01*
X122973740Y-99080000D01*
X123266260Y-99080000D01*
X123553158Y-99022932D01*
X123823411Y-98910990D01*
X124066632Y-98748475D01*
X124273475Y-98541632D01*
X124390000Y-98367240D01*
X124506525Y-98541632D01*
X124713368Y-98748475D01*
X124956589Y-98910990D01*
X125226842Y-99022932D01*
X125513740Y-99080000D01*
X125806260Y-99080000D01*
X126093158Y-99022932D01*
X126166772Y-98992440D01*
X126020413Y-99138800D01*
X125117511Y-99138800D01*
X125024774Y-99046063D01*
X124855256Y-98932795D01*
X124666898Y-98854774D01*
X124466939Y-98815000D01*
X124263061Y-98815000D01*
X124063102Y-98854774D01*
X123874744Y-98932795D01*
X123705226Y-99046063D01*
X123561063Y-99190226D01*
X123447795Y-99359744D01*
X123369774Y-99548102D01*
X123330000Y-99748061D01*
X123330000Y-99951939D01*
X123369774Y-100151898D01*
X123447795Y-100340256D01*
X123561063Y-100509774D01*
X123705226Y-100653937D01*
X123874744Y-100767205D01*
X124063102Y-100845226D01*
X124263061Y-100885000D01*
X124382203Y-100885000D01*
X124366518Y-100889758D01*
X124242967Y-100955798D01*
X124161809Y-101022402D01*
X124161804Y-101022407D01*
X124134673Y-101044673D01*
X124112407Y-101071804D01*
X122641810Y-102542403D01*
X122614674Y-102564673D01*
X122592404Y-102591809D01*
X122592403Y-102591810D01*
X122525798Y-102672968D01*
X122469873Y-102777597D01*
X122459759Y-102796519D01*
X122419092Y-102930580D01*
X122408801Y-103035064D01*
X122405360Y-103070000D01*
X122408801Y-103104936D01*
X122408801Y-103904214D01*
X122173368Y-104061525D01*
X122041513Y-104193380D01*
X122019502Y-104120820D01*
X121960537Y-104010506D01*
X121881185Y-103913815D01*
X121784494Y-103834463D01*
X121674180Y-103775498D01*
X121554482Y-103739188D01*
X121430000Y-103726928D01*
X119730000Y-103726928D01*
X119605518Y-103739188D01*
X119485820Y-103775498D01*
X119375506Y-103834463D01*
X119278815Y-103913815D01*
X119199463Y-104010506D01*
X119140498Y-104120820D01*
X119104188Y-104240518D01*
X119091928Y-104365000D01*
X119091928Y-106065000D01*
X119104188Y-106189482D01*
X119140498Y-106309180D01*
X119199463Y-106419494D01*
X119278815Y-106516185D01*
X119375506Y-106595537D01*
X119485820Y-106654502D01*
X119605518Y-106690812D01*
X119730000Y-106703072D01*
X121062284Y-106703072D01*
X121131004Y-106771792D01*
X121153274Y-106798928D01*
X121261568Y-106887803D01*
X121385120Y-106953843D01*
X121519181Y-106994510D01*
X121623665Y-107004801D01*
X121623674Y-107004801D01*
X121658600Y-107008241D01*
X121693526Y-107004801D01*
X123985601Y-107004801D01*
X124020527Y-107008241D01*
X124055453Y-107004801D01*
X124055463Y-107004801D01*
X124159947Y-106994510D01*
X124294008Y-106953843D01*
X124417560Y-106887803D01*
X124525854Y-106798928D01*
X124548128Y-106771787D01*
X124856082Y-106463833D01*
X124956589Y-106530990D01*
X125226842Y-106642932D01*
X125513740Y-106700000D01*
X125806260Y-106700000D01*
X126083972Y-106644759D01*
X127472218Y-108033007D01*
X127494484Y-108060138D01*
X127521615Y-108082404D01*
X127521619Y-108082408D01*
X127602778Y-108149013D01*
X127726330Y-108215053D01*
X127860391Y-108255720D01*
X127964875Y-108266011D01*
X127964892Y-108266011D01*
X127999810Y-108269450D01*
X128034728Y-108266011D01*
X138956330Y-108266011D01*
X138991256Y-108269451D01*
X139026182Y-108266011D01*
X139026192Y-108266011D01*
X139130676Y-108255720D01*
X139264737Y-108215053D01*
X139388289Y-108149013D01*
X139496583Y-108060138D01*
X139518857Y-108032997D01*
X139635843Y-107916011D01*
X141150263Y-107916011D01*
X141185189Y-107919451D01*
X141220115Y-107916011D01*
X141220125Y-107916011D01*
X141324609Y-107905720D01*
X141458670Y-107865053D01*
X141532645Y-107825512D01*
X145874783Y-107825512D01*
X145916213Y-108105130D01*
X146011397Y-108371292D01*
X146078329Y-108496514D01*
X146322298Y-108568097D01*
X147135395Y-107755000D01*
X147494605Y-107755000D01*
X148307702Y-108568097D01*
X148551671Y-108496514D01*
X148672571Y-108241004D01*
X148741300Y-107966816D01*
X148755217Y-107684488D01*
X148713787Y-107404870D01*
X148618603Y-107138708D01*
X148551671Y-107013486D01*
X148307702Y-106941903D01*
X147494605Y-107755000D01*
X147135395Y-107755000D01*
X146322298Y-106941903D01*
X146078329Y-107013486D01*
X145957429Y-107268996D01*
X145888700Y-107543184D01*
X145874783Y-107825512D01*
X141532645Y-107825512D01*
X141582222Y-107799013D01*
X141690516Y-107710138D01*
X141712790Y-107682997D01*
X142918200Y-106477588D01*
X142945326Y-106455327D01*
X142967588Y-106428201D01*
X142967598Y-106428191D01*
X143034202Y-106347033D01*
X143100242Y-106223482D01*
X143140909Y-106089420D01*
X143147546Y-106022032D01*
X143151200Y-105984936D01*
X143151200Y-105984929D01*
X143154640Y-105950000D01*
X143151200Y-105915072D01*
X143151200Y-105113665D01*
X145880000Y-105113665D01*
X145880000Y-105396335D01*
X145935147Y-105673574D01*
X146043320Y-105934727D01*
X146200363Y-106169759D01*
X146400241Y-106369637D01*
X146600869Y-106503692D01*
X146573486Y-106518329D01*
X146501903Y-106762298D01*
X147315000Y-107575395D01*
X148128097Y-106762298D01*
X148056514Y-106518329D01*
X148027659Y-106504676D01*
X148229759Y-106369637D01*
X148429637Y-106169759D01*
X148586680Y-105934727D01*
X148694853Y-105673574D01*
X148750000Y-105396335D01*
X148750000Y-105113665D01*
X148694853Y-104836426D01*
X148586680Y-104575273D01*
X148429637Y-104340241D01*
X148229759Y-104140363D01*
X147994727Y-103983320D01*
X147733574Y-103875147D01*
X147456335Y-103820000D01*
X147173665Y-103820000D01*
X146896426Y-103875147D01*
X146635273Y-103983320D01*
X146400241Y-104140363D01*
X146200363Y-104340241D01*
X146043320Y-104575273D01*
X145935147Y-104836426D01*
X145880000Y-105113665D01*
X143151200Y-105113665D01*
X143151200Y-98787037D01*
X143165909Y-98738548D01*
X143176200Y-98634064D01*
X143176200Y-98634055D01*
X143179640Y-98599129D01*
X143176200Y-98564203D01*
X143176200Y-94524014D01*
X143256928Y-94443286D01*
X143256928Y-95905000D01*
X143269188Y-96029482D01*
X143305498Y-96149180D01*
X143364463Y-96259494D01*
X143443815Y-96356185D01*
X143540506Y-96435537D01*
X143650820Y-96494502D01*
X143723380Y-96516513D01*
X143591525Y-96648368D01*
X143429010Y-96891589D01*
X143317068Y-97161842D01*
X143260000Y-97448740D01*
X143260000Y-97741260D01*
X143317068Y-98028158D01*
X143429010Y-98298411D01*
X143591525Y-98541632D01*
X143798368Y-98748475D01*
X144041589Y-98910990D01*
X144311842Y-99022932D01*
X144598740Y-99080000D01*
X144891260Y-99080000D01*
X145178158Y-99022932D01*
X145448411Y-98910990D01*
X145691632Y-98748475D01*
X145898475Y-98541632D01*
X146015000Y-98367240D01*
X146131525Y-98541632D01*
X146338368Y-98748475D01*
X146581589Y-98910990D01*
X146851842Y-99022932D01*
X147138740Y-99080000D01*
X147431260Y-99080000D01*
X147718158Y-99022932D01*
X147988411Y-98910990D01*
X148231632Y-98748475D01*
X148438475Y-98541632D01*
X148600990Y-98298411D01*
X148712932Y-98028158D01*
X148770000Y-97741260D01*
X148770000Y-97448740D01*
X148712932Y-97161842D01*
X148600990Y-96891589D01*
X148438475Y-96648368D01*
X148231632Y-96441525D01*
X148055594Y-96323900D01*
X148285269Y-96152588D01*
X148480178Y-95936355D01*
X148629157Y-95686252D01*
X148726481Y-95411891D01*
X148605814Y-95182000D01*
X147412000Y-95182000D01*
X147412000Y-95202000D01*
X147158000Y-95202000D01*
X147158000Y-95182000D01*
X147138000Y-95182000D01*
X147138000Y-94928000D01*
X147158000Y-94928000D01*
X147158000Y-93734845D01*
X147412000Y-93734845D01*
X147412000Y-94928000D01*
X148605814Y-94928000D01*
X148726481Y-94698109D01*
X148629157Y-94423748D01*
X148480178Y-94173645D01*
X148285269Y-93957412D01*
X148051920Y-93783359D01*
X147789099Y-93658175D01*
X147641890Y-93613524D01*
X147412000Y-93734845D01*
X147158000Y-93734845D01*
X146928110Y-93613524D01*
X146780901Y-93658175D01*
X146518080Y-93783359D01*
X146284731Y-93957412D01*
X146208966Y-94041466D01*
X146184502Y-93960820D01*
X146125537Y-93850506D01*
X146046185Y-93753815D01*
X145949494Y-93674463D01*
X145839180Y-93615498D01*
X145719482Y-93579188D01*
X145595000Y-93566928D01*
X145456200Y-93566928D01*
X145456200Y-92809587D01*
X147918196Y-90347593D01*
X147945327Y-90325327D01*
X147967593Y-90298196D01*
X147967598Y-90298191D01*
X148017686Y-90237158D01*
X148036913Y-90246246D01*
X148170961Y-90286904D01*
X148393000Y-90164915D01*
X148393000Y-89022000D01*
X148647000Y-89022000D01*
X148647000Y-90164915D01*
X148869039Y-90286904D01*
X149003087Y-90246246D01*
X149257420Y-90126037D01*
X149483414Y-89958519D01*
X149672385Y-89750131D01*
X149817070Y-89508881D01*
X149911909Y-89244040D01*
X149790624Y-89022000D01*
X148647000Y-89022000D01*
X148393000Y-89022000D01*
X148373000Y-89022000D01*
X148373000Y-88768000D01*
X148393000Y-88768000D01*
X148393000Y-87625085D01*
X148647000Y-87625085D01*
X148647000Y-88768000D01*
X149790624Y-88768000D01*
X149911909Y-88545960D01*
X149817070Y-88281119D01*
X149672385Y-88039869D01*
X149483414Y-87831481D01*
X149257420Y-87663963D01*
X149003087Y-87543754D01*
X148869039Y-87503096D01*
X148647000Y-87625085D01*
X148393000Y-87625085D01*
X148170961Y-87503096D01*
X148151200Y-87509090D01*
X148151200Y-84661069D01*
X150543196Y-82269075D01*
X150570327Y-82246809D01*
X150592593Y-82219678D01*
X150592598Y-82219673D01*
X150659202Y-82138515D01*
X150725242Y-82014964D01*
X150765909Y-81880902D01*
X150776200Y-81776418D01*
X150776200Y-81776411D01*
X150779640Y-81741482D01*
X150776200Y-81706554D01*
X150776200Y-78734925D01*
X150779640Y-78699999D01*
X150776200Y-78665073D01*
X150776200Y-78665064D01*
X150765909Y-78560580D01*
X150725242Y-78426519D01*
X150659202Y-78302967D01*
X150627634Y-78264502D01*
X150592597Y-78221809D01*
X150592593Y-78221805D01*
X150570326Y-78194673D01*
X150543195Y-78172407D01*
X148667602Y-76296815D01*
X148645327Y-76269673D01*
X148537033Y-76180798D01*
X148413481Y-76114758D01*
X148279420Y-76074091D01*
X148174936Y-76063800D01*
X148174926Y-76063800D01*
X148140000Y-76060360D01*
X148105074Y-76063800D01*
X129510786Y-76063800D01*
X129353475Y-75828368D01*
X129146632Y-75621525D01*
X128903411Y-75459010D01*
X128633158Y-75347068D01*
X128346260Y-75290000D01*
X128053740Y-75290000D01*
X127766842Y-75347068D01*
X127496589Y-75459010D01*
X127253368Y-75621525D01*
X127046525Y-75828368D01*
X126930000Y-76002760D01*
X126813475Y-75828368D01*
X126606632Y-75621525D01*
X126363411Y-75459010D01*
X126093158Y-75347068D01*
X125806260Y-75290000D01*
X125513740Y-75290000D01*
X125226842Y-75347068D01*
X124956589Y-75459010D01*
X124713368Y-75621525D01*
X124506525Y-75828368D01*
X124390000Y-76002760D01*
X124273475Y-75828368D01*
X124066632Y-75621525D01*
X123823411Y-75459010D01*
X123553158Y-75347068D01*
X123266260Y-75290000D01*
X122973740Y-75290000D01*
X122686842Y-75347068D01*
X122416589Y-75459010D01*
X122173368Y-75621525D01*
X122041513Y-75753380D01*
X122019502Y-75680820D01*
X121960537Y-75570506D01*
X121881185Y-75473815D01*
X121784494Y-75394463D01*
X121674180Y-75335498D01*
X121554482Y-75299188D01*
X121430000Y-75286928D01*
X119730000Y-75286928D01*
X119605518Y-75299188D01*
X119485820Y-75335498D01*
X119375506Y-75394463D01*
X119278815Y-75473815D01*
X119199463Y-75570506D01*
X119140498Y-75680820D01*
X119104188Y-75800518D01*
X119091928Y-75925000D01*
X119091928Y-77625000D01*
X119104188Y-77749482D01*
X119140498Y-77869180D01*
X119199463Y-77979494D01*
X119278815Y-78076185D01*
X119375506Y-78155537D01*
X119485820Y-78214502D01*
X119605518Y-78250812D01*
X119730000Y-78263072D01*
X121430000Y-78263072D01*
X121554482Y-78250812D01*
X121674180Y-78214502D01*
X121784494Y-78155537D01*
X121881185Y-78076185D01*
X121960537Y-77979494D01*
X122019502Y-77869180D01*
X122041513Y-77796620D01*
X122173368Y-77928475D01*
X122416589Y-78090990D01*
X122686842Y-78202932D01*
X122973740Y-78260000D01*
X123266260Y-78260000D01*
X123553158Y-78202932D01*
X123823411Y-78090990D01*
X124066632Y-77928475D01*
X124273475Y-77721632D01*
X124390000Y-77547240D01*
X124506525Y-77721632D01*
X124713368Y-77928475D01*
X124956589Y-78090990D01*
X125226842Y-78202932D01*
X125513740Y-78260000D01*
X125806260Y-78260000D01*
X126093158Y-78202932D01*
X126363411Y-78090990D01*
X126606632Y-77928475D01*
X126813475Y-77721632D01*
X126930000Y-77547240D01*
X127046525Y-77721632D01*
X127253368Y-77928475D01*
X127496589Y-78090990D01*
X127766842Y-78202932D01*
X128053740Y-78260000D01*
X128346260Y-78260000D01*
X128633158Y-78202932D01*
X128903411Y-78090990D01*
X129146632Y-77928475D01*
X129353475Y-77721632D01*
X129510786Y-77486200D01*
X147845413Y-77486200D01*
X149353800Y-78994588D01*
X149353800Y-79840257D01*
X149320000Y-79836928D01*
X147720000Y-79836928D01*
X147595518Y-79849188D01*
X147475820Y-79885498D01*
X147365506Y-79944463D01*
X147268815Y-80023815D01*
X147189463Y-80120506D01*
X147130498Y-80230820D01*
X147094188Y-80350518D01*
X147093357Y-80358961D01*
X146894759Y-80160363D01*
X146659727Y-80003320D01*
X146398574Y-79895147D01*
X146121335Y-79840000D01*
X145838665Y-79840000D01*
X145561426Y-79895147D01*
X145300273Y-80003320D01*
X145065241Y-80160363D01*
X144865363Y-80360241D01*
X144710000Y-80592759D01*
X144554637Y-80360241D01*
X144354759Y-80160363D01*
X144119727Y-80003320D01*
X143858574Y-79895147D01*
X143581335Y-79840000D01*
X143298665Y-79840000D01*
X143021426Y-79895147D01*
X142760273Y-80003320D01*
X142525241Y-80160363D01*
X142325363Y-80360241D01*
X142170000Y-80592759D01*
X142014637Y-80360241D01*
X141814759Y-80160363D01*
X141579727Y-80003320D01*
X141318574Y-79895147D01*
X141041335Y-79840000D01*
X140758665Y-79840000D01*
X140481426Y-79895147D01*
X140220273Y-80003320D01*
X139985241Y-80160363D01*
X139785363Y-80360241D01*
X139630000Y-80592759D01*
X139474637Y-80360241D01*
X139274759Y-80160363D01*
X139039727Y-80003320D01*
X138778574Y-79895147D01*
X138501335Y-79840000D01*
X138218665Y-79840000D01*
X137941426Y-79895147D01*
X137680273Y-80003320D01*
X137445241Y-80160363D01*
X137245363Y-80360241D01*
X137090000Y-80592759D01*
X136934637Y-80360241D01*
X136734759Y-80160363D01*
X136499727Y-80003320D01*
X136238574Y-79895147D01*
X135961335Y-79840000D01*
X135678665Y-79840000D01*
X135401426Y-79895147D01*
X135140273Y-80003320D01*
X134905241Y-80160363D01*
X134705363Y-80360241D01*
X134550000Y-80592759D01*
X134394637Y-80360241D01*
X134194759Y-80160363D01*
X133959727Y-80003320D01*
X133698574Y-79895147D01*
X133421335Y-79840000D01*
X133138665Y-79840000D01*
X132861426Y-79895147D01*
X132600273Y-80003320D01*
X132365241Y-80160363D01*
X132165363Y-80360241D01*
X132010000Y-80592759D01*
X131854637Y-80360241D01*
X131654759Y-80160363D01*
X131419727Y-80003320D01*
X131158574Y-79895147D01*
X130881335Y-79840000D01*
X130598665Y-79840000D01*
X130321426Y-79895147D01*
X130060273Y-80003320D01*
X129825241Y-80160363D01*
X129625363Y-80360241D01*
X129470000Y-80592759D01*
X129314637Y-80360241D01*
X129114759Y-80160363D01*
X128879727Y-80003320D01*
X128618574Y-79895147D01*
X128341335Y-79840000D01*
X128058665Y-79840000D01*
X127781426Y-79895147D01*
X127520273Y-80003320D01*
X127285241Y-80160363D01*
X127085363Y-80360241D01*
X126930000Y-80592759D01*
X126774637Y-80360241D01*
X126574759Y-80160363D01*
X126339727Y-80003320D01*
X126078574Y-79895147D01*
X125801335Y-79840000D01*
X125518665Y-79840000D01*
X125241426Y-79895147D01*
X124980273Y-80003320D01*
X124745241Y-80160363D01*
X124545363Y-80360241D01*
X124390000Y-80592759D01*
X124234637Y-80360241D01*
X124034759Y-80160363D01*
X123799727Y-80003320D01*
X123538574Y-79895147D01*
X123261335Y-79840000D01*
X122978665Y-79840000D01*
X122701426Y-79895147D01*
X122440273Y-80003320D01*
X122205241Y-80160363D01*
X122005363Y-80360241D01*
X121850000Y-80592759D01*
X121694637Y-80360241D01*
X121494759Y-80160363D01*
X121259727Y-80003320D01*
X120998574Y-79895147D01*
X120721335Y-79840000D01*
X120438665Y-79840000D01*
X120161426Y-79895147D01*
X119900273Y-80003320D01*
X119665241Y-80160363D01*
X119465363Y-80360241D01*
X119308320Y-80595273D01*
X119200147Y-80856426D01*
X119145000Y-81133665D01*
X119145000Y-81416335D01*
X119200147Y-81693574D01*
X119308320Y-81954727D01*
X119465363Y-82189759D01*
X119665241Y-82389637D01*
X119900273Y-82546680D01*
X120161426Y-82654853D01*
X120438665Y-82710000D01*
X120721335Y-82710000D01*
X120998574Y-82654853D01*
X121259727Y-82546680D01*
X121494759Y-82389637D01*
X121694637Y-82189759D01*
X121850000Y-81957241D01*
X122005363Y-82189759D01*
X122205241Y-82389637D01*
X122440273Y-82546680D01*
X122701426Y-82654853D01*
X122978665Y-82710000D01*
X123219213Y-82710000D01*
X123167823Y-82761390D01*
X123018061Y-82761390D01*
X122818102Y-82801164D01*
X122629744Y-82879185D01*
X122460226Y-82992453D01*
X122316063Y-83136616D01*
X122202795Y-83306134D01*
X122124774Y-83494492D01*
X122085000Y-83694451D01*
X122085000Y-83717745D01*
X122020581Y-83724090D01*
X121886520Y-83764757D01*
X121762968Y-83830797D01*
X121654674Y-83919672D01*
X121632404Y-83946808D01*
X121003972Y-84575241D01*
X120726260Y-84520000D01*
X120433740Y-84520000D01*
X120146842Y-84577068D01*
X119876589Y-84689010D01*
X119633368Y-84851525D01*
X119426525Y-85058368D01*
X119264010Y-85301589D01*
X119152068Y-85571842D01*
X119095000Y-85858740D01*
X119095000Y-86151260D01*
X119152068Y-86438158D01*
X119264010Y-86708411D01*
X119426525Y-86951632D01*
X119633368Y-87158475D01*
X119876589Y-87320990D01*
X120146842Y-87432932D01*
X120360793Y-87475490D01*
X120161426Y-87515147D01*
X119900273Y-87623320D01*
X119665241Y-87780363D01*
X119465363Y-87980241D01*
X119308320Y-88215273D01*
X119200147Y-88476426D01*
X119145000Y-88753665D01*
X119145000Y-89036335D01*
X119200147Y-89313574D01*
X119308320Y-89574727D01*
X119317723Y-89588799D01*
X118765654Y-89588799D01*
X117275252Y-88098397D01*
X117252982Y-88071261D01*
X117144688Y-87982386D01*
X117021136Y-87916346D01*
X116887075Y-87875679D01*
X116782591Y-87865388D01*
X116782581Y-87865388D01*
X116747655Y-87861948D01*
X116712727Y-87865388D01*
X108863036Y-87865388D01*
X108894853Y-87788574D01*
X108950000Y-87511335D01*
X108950000Y-87228665D01*
X108894853Y-86951426D01*
X108786680Y-86690273D01*
X108629637Y-86455241D01*
X108429759Y-86255363D01*
X108197241Y-86100000D01*
X108429759Y-85944637D01*
X108629637Y-85744759D01*
X108786680Y-85509727D01*
X108894853Y-85248574D01*
X108950000Y-84971335D01*
X108950000Y-84688665D01*
X108894853Y-84411426D01*
X108786680Y-84150273D01*
X108629637Y-83915241D01*
X108429759Y-83715363D01*
X108194727Y-83558320D01*
X107933574Y-83450147D01*
X107656335Y-83395000D01*
X107373665Y-83395000D01*
X107096426Y-83450147D01*
X106835273Y-83558320D01*
X106600241Y-83715363D01*
X106400363Y-83915241D01*
X106243320Y-84150273D01*
X106135147Y-84411426D01*
X106080000Y-84688665D01*
X106080000Y-84971335D01*
X106135147Y-85248574D01*
X106243320Y-85509727D01*
X106400363Y-85744759D01*
X106600241Y-85944637D01*
X106832759Y-86100000D01*
X106600241Y-86255363D01*
X106400363Y-86455241D01*
X106243320Y-86690273D01*
X106135147Y-86951426D01*
X106080000Y-87228665D01*
X106080000Y-87511335D01*
X106135147Y-87788574D01*
X106166964Y-87865388D01*
X103936176Y-87865388D01*
X101282237Y-85211450D01*
X101330000Y-84971335D01*
X101330000Y-84688665D01*
X101274853Y-84411426D01*
X101166680Y-84150273D01*
X101009637Y-83915241D01*
X100809759Y-83715363D01*
X100574727Y-83558320D01*
X100313574Y-83450147D01*
X100036335Y-83395000D01*
X99753665Y-83395000D01*
X99476426Y-83450147D01*
X99215273Y-83558320D01*
X98980241Y-83715363D01*
X98780363Y-83915241D01*
X98623320Y-84150273D01*
X98515147Y-84411426D01*
X98460000Y-84688665D01*
X98460000Y-84971335D01*
X98515147Y-85248574D01*
X98623320Y-85509727D01*
X98780363Y-85744759D01*
X98980241Y-85944637D01*
X99212759Y-86100000D01*
X98980241Y-86255363D01*
X98780363Y-86455241D01*
X98623320Y-86690273D01*
X98515147Y-86951426D01*
X98460000Y-87228665D01*
X98460000Y-87511335D01*
X98515147Y-87788574D01*
X98623320Y-88049727D01*
X98780363Y-88284759D01*
X98980241Y-88484637D01*
X99212759Y-88640000D01*
X98980241Y-88795363D01*
X98780363Y-88995241D01*
X98623320Y-89230273D01*
X98515147Y-89491426D01*
X98460000Y-89768665D01*
X98460000Y-90051335D01*
X98515147Y-90328574D01*
X98623320Y-90589727D01*
X98780363Y-90824759D01*
X98980241Y-91024637D01*
X99212759Y-91180000D01*
X98980241Y-91335363D01*
X98780363Y-91535241D01*
X98623320Y-91770273D01*
X98515147Y-92031426D01*
X98460000Y-92308665D01*
X98460000Y-92591335D01*
X98507763Y-92831450D01*
X98388209Y-92951004D01*
X98361073Y-92973274D01*
X98338803Y-93000410D01*
X98338802Y-93000411D01*
X98302864Y-93044202D01*
X98272198Y-93081568D01*
X98206158Y-93205120D01*
X98183345Y-93280326D01*
X98165491Y-93339182D01*
X98151759Y-93478601D01*
X97955000Y-93478601D01*
X97955000Y-76678740D01*
X101720000Y-76678740D01*
X101720000Y-76971260D01*
X101777068Y-77258158D01*
X101889010Y-77528411D01*
X102051525Y-77771632D01*
X102258368Y-77978475D01*
X102501589Y-78140990D01*
X102771842Y-78252932D01*
X103058740Y-78310000D01*
X103351260Y-78310000D01*
X103638158Y-78252932D01*
X103908411Y-78140990D01*
X104151632Y-77978475D01*
X104358475Y-77771632D01*
X104475000Y-77597240D01*
X104591525Y-77771632D01*
X104798368Y-77978475D01*
X105041589Y-78140990D01*
X105311842Y-78252932D01*
X105598740Y-78310000D01*
X105891260Y-78310000D01*
X106178158Y-78252932D01*
X106448411Y-78140990D01*
X106691632Y-77978475D01*
X106898475Y-77771632D01*
X107015000Y-77597240D01*
X107131525Y-77771632D01*
X107338368Y-77978475D01*
X107581589Y-78140990D01*
X107851842Y-78252932D01*
X108138740Y-78310000D01*
X108431260Y-78310000D01*
X108718158Y-78252932D01*
X108988411Y-78140990D01*
X109231632Y-77978475D01*
X109438475Y-77771632D01*
X109555000Y-77597240D01*
X109671525Y-77771632D01*
X109878368Y-77978475D01*
X110121589Y-78140990D01*
X110391842Y-78252932D01*
X110678740Y-78310000D01*
X110971260Y-78310000D01*
X111258158Y-78252932D01*
X111528411Y-78140990D01*
X111771632Y-77978475D01*
X111903487Y-77846620D01*
X111925498Y-77919180D01*
X111984463Y-78029494D01*
X112063815Y-78126185D01*
X112160506Y-78205537D01*
X112270820Y-78264502D01*
X112390518Y-78300812D01*
X112515000Y-78313072D01*
X114215000Y-78313072D01*
X114339482Y-78300812D01*
X114459180Y-78264502D01*
X114569494Y-78205537D01*
X114666185Y-78126185D01*
X114745537Y-78029494D01*
X114804502Y-77919180D01*
X114840812Y-77799482D01*
X114853072Y-77675000D01*
X114853072Y-75975000D01*
X114840812Y-75850518D01*
X114804502Y-75730820D01*
X114745537Y-75620506D01*
X114666185Y-75523815D01*
X114569494Y-75444463D01*
X114459180Y-75385498D01*
X114339482Y-75349188D01*
X114215000Y-75336928D01*
X112515000Y-75336928D01*
X112390518Y-75349188D01*
X112270820Y-75385498D01*
X112160506Y-75444463D01*
X112063815Y-75523815D01*
X111984463Y-75620506D01*
X111925498Y-75730820D01*
X111903487Y-75803380D01*
X111771632Y-75671525D01*
X111528411Y-75509010D01*
X111258158Y-75397068D01*
X110971260Y-75340000D01*
X110678740Y-75340000D01*
X110391842Y-75397068D01*
X110121589Y-75509010D01*
X109878368Y-75671525D01*
X109671525Y-75878368D01*
X109555000Y-76052760D01*
X109438475Y-75878368D01*
X109231632Y-75671525D01*
X108988411Y-75509010D01*
X108718158Y-75397068D01*
X108431260Y-75340000D01*
X108138740Y-75340000D01*
X107851842Y-75397068D01*
X107581589Y-75509010D01*
X107338368Y-75671525D01*
X107131525Y-75878368D01*
X107015000Y-76052760D01*
X106898475Y-75878368D01*
X106691632Y-75671525D01*
X106448411Y-75509010D01*
X106178158Y-75397068D01*
X105891260Y-75340000D01*
X105598740Y-75340000D01*
X105311842Y-75397068D01*
X105041589Y-75509010D01*
X104798368Y-75671525D01*
X104591525Y-75878368D01*
X104475000Y-76052760D01*
X104358475Y-75878368D01*
X104151632Y-75671525D01*
X103908411Y-75509010D01*
X103638158Y-75397068D01*
X103351260Y-75340000D01*
X103058740Y-75340000D01*
X102771842Y-75397068D01*
X102501589Y-75509010D01*
X102258368Y-75671525D01*
X102051525Y-75878368D01*
X101889010Y-76121589D01*
X101777068Y-76391842D01*
X101720000Y-76678740D01*
X97955000Y-76678740D01*
X97955000Y-75030000D01*
X151755000Y-75030000D01*
X151755001Y-109790000D01*
G37*
G04 #@! TD.AperFunction*
M02*
