G04 #@! TF.GenerationSoftware,KiCad,Pcbnew,(5.1.9)-1*
G04 #@! TF.CreationDate,2023-05-10T20:36:34+01:00*
G04 #@! TF.ProjectId,Memory Decoder,4d656d6f-7279-4204-9465-636f6465722e,Rev001*
G04 #@! TF.SameCoordinates,Original*
G04 #@! TF.FileFunction,Copper,L2,Bot*
G04 #@! TF.FilePolarity,Positive*
%FSLAX46Y46*%
G04 Gerber Fmt 4.6, Leading zero omitted, Abs format (unit mm)*
G04 Created by KiCad (PCBNEW (5.1.9)-1) date 2023-05-10 20:36:34*
%MOMM*%
%LPD*%
G01*
G04 APERTURE LIST*
G04 #@! TA.AperFunction,ComponentPad*
%ADD10C,1.600000*%
G04 #@! TD*
G04 #@! TA.AperFunction,ComponentPad*
%ADD11R,1.700000X1.700000*%
G04 #@! TD*
G04 #@! TA.AperFunction,ComponentPad*
%ADD12O,1.700000X1.700000*%
G04 #@! TD*
G04 #@! TA.AperFunction,ComponentPad*
%ADD13R,1.600000X1.600000*%
G04 #@! TD*
G04 #@! TA.AperFunction,ComponentPad*
%ADD14O,1.600000X1.600000*%
G04 #@! TD*
G04 #@! TA.AperFunction,ViaPad*
%ADD15C,0.800000*%
G04 #@! TD*
G04 #@! TA.AperFunction,Conductor*
%ADD16C,0.152400*%
G04 #@! TD*
G04 #@! TA.AperFunction,Conductor*
%ADD17C,0.254000*%
G04 #@! TD*
G04 #@! TA.AperFunction,Conductor*
%ADD18C,0.100000*%
G04 #@! TD*
G04 APERTURE END LIST*
D10*
X147315000Y-105255000D03*
X147315000Y-107755000D03*
D11*
X120580000Y-97595000D03*
D12*
X120580000Y-95055000D03*
X123120000Y-97595000D03*
X123120000Y-95055000D03*
X125660000Y-97595000D03*
X125660000Y-95055000D03*
D13*
X148520000Y-81275000D03*
D14*
X120580000Y-88895000D03*
X145980000Y-81275000D03*
X123120000Y-88895000D03*
X143440000Y-81275000D03*
X125660000Y-88895000D03*
X140900000Y-81275000D03*
X128200000Y-88895000D03*
X138360000Y-81275000D03*
X130740000Y-88895000D03*
X135820000Y-81275000D03*
X133280000Y-88895000D03*
X133280000Y-81275000D03*
X135820000Y-88895000D03*
X130740000Y-81275000D03*
X138360000Y-88895000D03*
X128200000Y-81275000D03*
X140900000Y-88895000D03*
X125660000Y-81275000D03*
X143440000Y-88895000D03*
X123120000Y-81275000D03*
X145980000Y-88895000D03*
X120580000Y-81275000D03*
X148520000Y-88895000D03*
D11*
X120580000Y-105215000D03*
D12*
X123120000Y-105215000D03*
X125660000Y-105215000D03*
X128200000Y-105215000D03*
X130740000Y-105215000D03*
X133280000Y-105215000D03*
X135820000Y-105215000D03*
X138360000Y-105215000D03*
X140900000Y-105215000D03*
D13*
X107515000Y-92450000D03*
D14*
X99895000Y-84830000D03*
X107515000Y-89910000D03*
X99895000Y-87370000D03*
X107515000Y-87370000D03*
X99895000Y-89910000D03*
X107515000Y-84830000D03*
X99895000Y-92450000D03*
D13*
X107515000Y-106625000D03*
D14*
X99895000Y-99005000D03*
X107515000Y-104085000D03*
X99895000Y-101545000D03*
X107515000Y-101545000D03*
X99895000Y-104085000D03*
X107515000Y-99005000D03*
X99895000Y-106625000D03*
D11*
X113365000Y-76825000D03*
D12*
X110825000Y-76825000D03*
X108285000Y-76825000D03*
X105745000Y-76825000D03*
X103205000Y-76825000D03*
D11*
X120580000Y-76775000D03*
D12*
X123120000Y-76775000D03*
X125660000Y-76775000D03*
X128200000Y-76775000D03*
D11*
X133280000Y-86005000D03*
D12*
X130740000Y-86005000D03*
X128200000Y-86005000D03*
X125660000Y-86005000D03*
X123120000Y-86005000D03*
X120580000Y-86005000D03*
D11*
X128200000Y-97595000D03*
D12*
X128200000Y-95055000D03*
X130740000Y-97595000D03*
X130740000Y-95055000D03*
X133280000Y-97595000D03*
X133280000Y-95055000D03*
X135820000Y-97595000D03*
X135820000Y-95055000D03*
X138360000Y-97595000D03*
X138360000Y-95055000D03*
D11*
X144745000Y-95055000D03*
D12*
X144745000Y-97595000D03*
X147285000Y-95055000D03*
X147285000Y-97595000D03*
D15*
X124365000Y-99850000D03*
X127512834Y-84197112D03*
X123120000Y-83796390D03*
D16*
X147440000Y-94900000D02*
X147285000Y-95055000D01*
X130740000Y-105215000D02*
X130740000Y-97595000D01*
X129661399Y-96516399D02*
X128200000Y-95055000D01*
X129661399Y-100328601D02*
X129661399Y-96516399D01*
X126905000Y-103085000D02*
X129661399Y-100328601D01*
X108515000Y-103085000D02*
X126905000Y-103085000D01*
X107515000Y-104085000D02*
X108515000Y-103085000D01*
X107515000Y-101545000D02*
X122670000Y-101545000D01*
X122670000Y-101545000D02*
X124365000Y-99850000D01*
X124440000Y-98644668D02*
X122959668Y-100125000D01*
X124440000Y-96900000D02*
X124440000Y-98644668D01*
X122959668Y-100125000D02*
X108635000Y-100125000D01*
X127090000Y-93731066D02*
X127090000Y-95625000D01*
X127821066Y-93000000D02*
X127090000Y-93731066D01*
X108635000Y-100125000D02*
X107515000Y-99005000D01*
X132690001Y-93000000D02*
X127821066Y-93000000D01*
X124823601Y-96516399D02*
X124440000Y-96900000D01*
X133280000Y-93589999D02*
X132690001Y-93000000D01*
X126198601Y-96516399D02*
X124823601Y-96516399D01*
X127090000Y-95625000D02*
X126198601Y-96516399D01*
X133280000Y-95055000D02*
X133280000Y-93589999D01*
X144980000Y-88895000D02*
X145980000Y-88895000D01*
X140832500Y-93042500D02*
X140832500Y-95632500D01*
X140832500Y-93042500D02*
X144980000Y-88895000D01*
X140102500Y-96362500D02*
X137052500Y-96362500D01*
X140832500Y-95632500D02*
X140102500Y-96362500D01*
X135820000Y-97595000D02*
X137052500Y-96362500D01*
X140900000Y-89975000D02*
X140900000Y-88895000D01*
X135820000Y-95055000D02*
X140900000Y-89975000D01*
X147511399Y-75696399D02*
X104333601Y-75696399D01*
X150715000Y-78900000D02*
X147511399Y-75696399D01*
X150715000Y-95150000D02*
X150715000Y-78900000D01*
X104333601Y-75696399D02*
X103205000Y-76825000D01*
X148404931Y-97460069D02*
X150715000Y-95150000D01*
X147419931Y-97460069D02*
X148404931Y-97460069D01*
X147285000Y-97595000D02*
X147419931Y-97460069D01*
X143440000Y-82406370D02*
X143440000Y-81275000D01*
X143440000Y-83831066D02*
X143440000Y-82406370D01*
X147008601Y-87399667D02*
X143440000Y-83831066D01*
X147008601Y-89806399D02*
X147008601Y-87399667D01*
X142765000Y-94050000D02*
X147008601Y-89806399D01*
X142765000Y-103350000D02*
X142765000Y-94050000D01*
X140900000Y-105215000D02*
X142765000Y-103350000D01*
X139665000Y-82510000D02*
X140900000Y-81275000D01*
X139665000Y-89525000D02*
X139665000Y-82510000D01*
X138090000Y-91100000D02*
X139665000Y-89525000D01*
X137565000Y-91100000D02*
X138090000Y-91100000D01*
X134715000Y-93950000D02*
X137565000Y-91100000D01*
X135820000Y-99191330D02*
X134715000Y-98086330D01*
X134715000Y-98086330D02*
X134715000Y-93950000D01*
X135820000Y-105215000D02*
X135820000Y-99191330D01*
X137115000Y-82520000D02*
X137560001Y-82074999D01*
X137115000Y-90750000D02*
X137115000Y-82520000D01*
X134410189Y-93454811D02*
X137115000Y-90750000D01*
X137560001Y-82074999D02*
X138360000Y-81275000D01*
X134410189Y-105945189D02*
X134410189Y-93454811D01*
X135040000Y-106575000D02*
X134410189Y-105945189D01*
X137000000Y-106575000D02*
X135040000Y-106575000D01*
X138360000Y-105215000D02*
X137000000Y-106575000D01*
X126072346Y-96211588D02*
X124697345Y-96211588D01*
X121429999Y-95904999D02*
X120580000Y-95055000D01*
X124392535Y-96516399D02*
X122041399Y-96516399D01*
X135820000Y-81275000D02*
X135820000Y-85523790D01*
X124697345Y-96211588D02*
X124392535Y-96516399D01*
X134260189Y-87083601D02*
X134260189Y-88352859D01*
X126785189Y-95498745D02*
X126072346Y-96211588D01*
X135820000Y-85523790D02*
X134260189Y-87083601D01*
X126785189Y-93604810D02*
X126785189Y-95498745D01*
X128049620Y-92340380D02*
X126785189Y-93604810D01*
X131356950Y-92340380D02*
X128049620Y-92340380D01*
X134308601Y-89388729D02*
X131356950Y-92340380D01*
X134260189Y-88352859D02*
X134308601Y-88401271D01*
X122041399Y-96516399D02*
X121429999Y-95904999D01*
X134308601Y-88401271D02*
X134308601Y-89388729D01*
X129640000Y-84915000D02*
X133280000Y-81275000D01*
X129640000Y-85000000D02*
X129640000Y-84915000D01*
X129644811Y-85004811D02*
X129640000Y-85000000D01*
X129644811Y-88972519D02*
X129644811Y-85004811D01*
X126792330Y-91825000D02*
X129644811Y-88972519D01*
X125040000Y-91825000D02*
X126792330Y-91825000D01*
X123140000Y-93725000D02*
X125040000Y-91825000D01*
X123140000Y-95035000D02*
X123140000Y-93725000D01*
X123120000Y-95055000D02*
X123140000Y-95035000D01*
X125660000Y-95055000D02*
X125422866Y-95055000D01*
X129315000Y-82700000D02*
X129940001Y-82074999D01*
X124344265Y-96133601D02*
X122602271Y-96133601D01*
X129315000Y-86486330D02*
X129315000Y-82700000D01*
X121865000Y-95396330D02*
X121865000Y-92668933D01*
X121865000Y-92668933D02*
X123333933Y-91200000D01*
X122602271Y-96133601D02*
X121865000Y-95396330D01*
X126915000Y-87875000D02*
X127340000Y-87450000D01*
X127340000Y-87450000D02*
X128351330Y-87450000D01*
X128351330Y-87450000D02*
X129315000Y-86486330D01*
X125422866Y-95055000D02*
X124344265Y-96133601D01*
X129940001Y-82074999D02*
X130740000Y-81275000D01*
X126915000Y-90000000D02*
X126915000Y-87875000D01*
X123333933Y-91200000D02*
X125715000Y-91200000D01*
X125715000Y-91200000D02*
X126915000Y-90000000D01*
X127512834Y-84222834D02*
X127512834Y-84197112D01*
X128190000Y-85995000D02*
X128190000Y-84900000D01*
X128190000Y-84900000D02*
X127512834Y-84222834D01*
X128200000Y-86005000D02*
X128190000Y-85995000D01*
X125660000Y-83995000D02*
X125660000Y-86005000D01*
X123120000Y-81455000D02*
X125660000Y-83995000D01*
X123120000Y-81275000D02*
X123120000Y-81455000D01*
X123120000Y-86005000D02*
X123120000Y-83796390D01*
X100923601Y-88398601D02*
X99895000Y-87370000D01*
X100923601Y-97976399D02*
X100923601Y-88398601D01*
X99895000Y-99005000D02*
X100923601Y-97976399D01*
X98866399Y-90938601D02*
X99895000Y-89910000D01*
X98866399Y-100516399D02*
X98866399Y-90938601D01*
X99895000Y-101545000D02*
X98866399Y-100516399D01*
X107515000Y-92450000D02*
X111665000Y-88300000D01*
X111665000Y-78525000D02*
X113365000Y-76825000D01*
X111665000Y-88300000D02*
X111665000Y-78525000D01*
X110825000Y-86600000D02*
X110825000Y-76825000D01*
X107515000Y-89910000D02*
X110825000Y-86600000D01*
X108543601Y-77083601D02*
X108285000Y-76825000D01*
X108543601Y-86341399D02*
X108543601Y-77083601D01*
X107515000Y-87370000D02*
X108543601Y-86341399D01*
X107515000Y-78595000D02*
X105745000Y-76825000D01*
X107515000Y-84830000D02*
X107515000Y-78595000D01*
D17*
X104060120Y-75036157D02*
X103936568Y-75102197D01*
X103828274Y-75191072D01*
X103806004Y-75218208D01*
X103628972Y-75395241D01*
X103351260Y-75340000D01*
X103058740Y-75340000D01*
X102771842Y-75397068D01*
X102501589Y-75509010D01*
X102258368Y-75671525D01*
X102051525Y-75878368D01*
X101889010Y-76121589D01*
X101777068Y-76391842D01*
X101720000Y-76678740D01*
X101720000Y-76971260D01*
X101777068Y-77258158D01*
X101889010Y-77528411D01*
X102051525Y-77771632D01*
X102258368Y-77978475D01*
X102501589Y-78140990D01*
X102771842Y-78252932D01*
X103058740Y-78310000D01*
X103351260Y-78310000D01*
X103638158Y-78252932D01*
X103908411Y-78140990D01*
X104151632Y-77978475D01*
X104358475Y-77771632D01*
X104475000Y-77597240D01*
X104591525Y-77771632D01*
X104798368Y-77978475D01*
X105041589Y-78140990D01*
X105311842Y-78252932D01*
X105598740Y-78310000D01*
X105891260Y-78310000D01*
X106168972Y-78254759D01*
X106803801Y-78889589D01*
X106803800Y-83579349D01*
X106600241Y-83715363D01*
X106400363Y-83915241D01*
X106243320Y-84150273D01*
X106135147Y-84411426D01*
X106080000Y-84688665D01*
X106080000Y-84971335D01*
X106135147Y-85248574D01*
X106243320Y-85509727D01*
X106400363Y-85744759D01*
X106600241Y-85944637D01*
X106832759Y-86100000D01*
X106600241Y-86255363D01*
X106400363Y-86455241D01*
X106243320Y-86690273D01*
X106135147Y-86951426D01*
X106080000Y-87228665D01*
X106080000Y-87511335D01*
X106135147Y-87788574D01*
X106243320Y-88049727D01*
X106400363Y-88284759D01*
X106600241Y-88484637D01*
X106832759Y-88640000D01*
X106600241Y-88795363D01*
X106400363Y-88995241D01*
X106243320Y-89230273D01*
X106135147Y-89491426D01*
X106080000Y-89768665D01*
X106080000Y-90051335D01*
X106135147Y-90328574D01*
X106243320Y-90589727D01*
X106400363Y-90824759D01*
X106598961Y-91023357D01*
X106590518Y-91024188D01*
X106470820Y-91060498D01*
X106360506Y-91119463D01*
X106263815Y-91198815D01*
X106184463Y-91295506D01*
X106125498Y-91405820D01*
X106089188Y-91525518D01*
X106076928Y-91650000D01*
X106076928Y-93250000D01*
X106089188Y-93374482D01*
X106125498Y-93494180D01*
X106184463Y-93604494D01*
X106263815Y-93701185D01*
X106360506Y-93780537D01*
X106470820Y-93839502D01*
X106590518Y-93875812D01*
X106715000Y-93888072D01*
X108315000Y-93888072D01*
X108439482Y-93875812D01*
X108559180Y-93839502D01*
X108669494Y-93780537D01*
X108766185Y-93701185D01*
X108845537Y-93604494D01*
X108904502Y-93494180D01*
X108940812Y-93374482D01*
X108953072Y-93250000D01*
X108953072Y-92017715D01*
X112143201Y-88827588D01*
X112170326Y-88805327D01*
X112192588Y-88778201D01*
X112192597Y-88778192D01*
X112259202Y-88697033D01*
X112299565Y-88621519D01*
X112325242Y-88573481D01*
X112365909Y-88439420D01*
X112376200Y-88334936D01*
X112376200Y-88334927D01*
X112379640Y-88300001D01*
X112376200Y-88265075D01*
X112376200Y-81624040D01*
X119188091Y-81624040D01*
X119282930Y-81888881D01*
X119427615Y-82130131D01*
X119616586Y-82338519D01*
X119842580Y-82506037D01*
X120096913Y-82626246D01*
X120230961Y-82666904D01*
X120453000Y-82544915D01*
X120453000Y-81402000D01*
X119309376Y-81402000D01*
X119188091Y-81624040D01*
X112376200Y-81624040D01*
X112376200Y-80925960D01*
X119188091Y-80925960D01*
X119309376Y-81148000D01*
X120453000Y-81148000D01*
X120453000Y-80005085D01*
X120230961Y-79883096D01*
X120096913Y-79923754D01*
X119842580Y-80043963D01*
X119616586Y-80211481D01*
X119427615Y-80419869D01*
X119282930Y-80661119D01*
X119188091Y-80925960D01*
X112376200Y-80925960D01*
X112376200Y-78819587D01*
X112882715Y-78313072D01*
X114215000Y-78313072D01*
X114339482Y-78300812D01*
X114459180Y-78264502D01*
X114569494Y-78205537D01*
X114666185Y-78126185D01*
X114745537Y-78029494D01*
X114804502Y-77919180D01*
X114840812Y-77799482D01*
X114853072Y-77675000D01*
X114853072Y-76407599D01*
X119091928Y-76407599D01*
X119091928Y-77625000D01*
X119104188Y-77749482D01*
X119140498Y-77869180D01*
X119199463Y-77979494D01*
X119278815Y-78076185D01*
X119375506Y-78155537D01*
X119485820Y-78214502D01*
X119605518Y-78250812D01*
X119730000Y-78263072D01*
X121430000Y-78263072D01*
X121554482Y-78250812D01*
X121674180Y-78214502D01*
X121784494Y-78155537D01*
X121881185Y-78076185D01*
X121960537Y-77979494D01*
X122019502Y-77869180D01*
X122041513Y-77796620D01*
X122173368Y-77928475D01*
X122416589Y-78090990D01*
X122686842Y-78202932D01*
X122973740Y-78260000D01*
X123266260Y-78260000D01*
X123553158Y-78202932D01*
X123823411Y-78090990D01*
X124066632Y-77928475D01*
X124273475Y-77721632D01*
X124390000Y-77547240D01*
X124506525Y-77721632D01*
X124713368Y-77928475D01*
X124956589Y-78090990D01*
X125226842Y-78202932D01*
X125513740Y-78260000D01*
X125806260Y-78260000D01*
X126093158Y-78202932D01*
X126363411Y-78090990D01*
X126606632Y-77928475D01*
X126813475Y-77721632D01*
X126930000Y-77547240D01*
X127046525Y-77721632D01*
X127253368Y-77928475D01*
X127496589Y-78090990D01*
X127766842Y-78202932D01*
X128053740Y-78260000D01*
X128346260Y-78260000D01*
X128633158Y-78202932D01*
X128903411Y-78090990D01*
X129146632Y-77928475D01*
X129353475Y-77721632D01*
X129515990Y-77478411D01*
X129627932Y-77208158D01*
X129685000Y-76921260D01*
X129685000Y-76628740D01*
X129641012Y-76407599D01*
X147216812Y-76407599D01*
X150003801Y-79194589D01*
X150003800Y-94855412D01*
X148324660Y-96534553D01*
X148231632Y-96441525D01*
X148057240Y-96325000D01*
X148231632Y-96208475D01*
X148438475Y-96001632D01*
X148600990Y-95758411D01*
X148712932Y-95488158D01*
X148770000Y-95201260D01*
X148770000Y-94908740D01*
X148712932Y-94621842D01*
X148600990Y-94351589D01*
X148438475Y-94108368D01*
X148231632Y-93901525D01*
X147988411Y-93739010D01*
X147718158Y-93627068D01*
X147431260Y-93570000D01*
X147138740Y-93570000D01*
X146851842Y-93627068D01*
X146581589Y-93739010D01*
X146338368Y-93901525D01*
X146206513Y-94033380D01*
X146184502Y-93960820D01*
X146125537Y-93850506D01*
X146046185Y-93753815D01*
X145949494Y-93674463D01*
X145839180Y-93615498D01*
X145719482Y-93579188D01*
X145595000Y-93566928D01*
X144253859Y-93566928D01*
X147486796Y-90333992D01*
X147513927Y-90311726D01*
X147536194Y-90284594D01*
X147536198Y-90284590D01*
X147602803Y-90203432D01*
X147612526Y-90185242D01*
X147668843Y-90079880D01*
X147675841Y-90056810D01*
X147840273Y-90166680D01*
X148101426Y-90274853D01*
X148378665Y-90330000D01*
X148661335Y-90330000D01*
X148938574Y-90274853D01*
X149199727Y-90166680D01*
X149434759Y-90009637D01*
X149634637Y-89809759D01*
X149791680Y-89574727D01*
X149899853Y-89313574D01*
X149955000Y-89036335D01*
X149955000Y-88753665D01*
X149899853Y-88476426D01*
X149791680Y-88215273D01*
X149634637Y-87980241D01*
X149434759Y-87780363D01*
X149199727Y-87623320D01*
X148938574Y-87515147D01*
X148661335Y-87460000D01*
X148378665Y-87460000D01*
X148101426Y-87515147D01*
X147840273Y-87623320D01*
X147719801Y-87703817D01*
X147719801Y-87434595D01*
X147723241Y-87399667D01*
X147719801Y-87364738D01*
X147719801Y-87364731D01*
X147709510Y-87260247D01*
X147668843Y-87126186D01*
X147602803Y-87002634D01*
X147513928Y-86894340D01*
X147486792Y-86872070D01*
X144151200Y-83536479D01*
X144151200Y-82525650D01*
X144354759Y-82389637D01*
X144554637Y-82189759D01*
X144710000Y-81957241D01*
X144865363Y-82189759D01*
X145065241Y-82389637D01*
X145300273Y-82546680D01*
X145561426Y-82654853D01*
X145838665Y-82710000D01*
X146121335Y-82710000D01*
X146398574Y-82654853D01*
X146659727Y-82546680D01*
X146894759Y-82389637D01*
X147093357Y-82191039D01*
X147094188Y-82199482D01*
X147130498Y-82319180D01*
X147189463Y-82429494D01*
X147268815Y-82526185D01*
X147365506Y-82605537D01*
X147475820Y-82664502D01*
X147595518Y-82700812D01*
X147720000Y-82713072D01*
X149320000Y-82713072D01*
X149444482Y-82700812D01*
X149564180Y-82664502D01*
X149674494Y-82605537D01*
X149771185Y-82526185D01*
X149850537Y-82429494D01*
X149909502Y-82319180D01*
X149945812Y-82199482D01*
X149958072Y-82075000D01*
X149958072Y-80475000D01*
X149945812Y-80350518D01*
X149909502Y-80230820D01*
X149850537Y-80120506D01*
X149771185Y-80023815D01*
X149674494Y-79944463D01*
X149564180Y-79885498D01*
X149444482Y-79849188D01*
X149320000Y-79836928D01*
X147720000Y-79836928D01*
X147595518Y-79849188D01*
X147475820Y-79885498D01*
X147365506Y-79944463D01*
X147268815Y-80023815D01*
X147189463Y-80120506D01*
X147130498Y-80230820D01*
X147094188Y-80350518D01*
X147093357Y-80358961D01*
X146894759Y-80160363D01*
X146659727Y-80003320D01*
X146398574Y-79895147D01*
X146121335Y-79840000D01*
X145838665Y-79840000D01*
X145561426Y-79895147D01*
X145300273Y-80003320D01*
X145065241Y-80160363D01*
X144865363Y-80360241D01*
X144710000Y-80592759D01*
X144554637Y-80360241D01*
X144354759Y-80160363D01*
X144119727Y-80003320D01*
X143858574Y-79895147D01*
X143581335Y-79840000D01*
X143298665Y-79840000D01*
X143021426Y-79895147D01*
X142760273Y-80003320D01*
X142525241Y-80160363D01*
X142325363Y-80360241D01*
X142170000Y-80592759D01*
X142014637Y-80360241D01*
X141814759Y-80160363D01*
X141579727Y-80003320D01*
X141318574Y-79895147D01*
X141041335Y-79840000D01*
X140758665Y-79840000D01*
X140481426Y-79895147D01*
X140220273Y-80003320D01*
X139985241Y-80160363D01*
X139785363Y-80360241D01*
X139630000Y-80592759D01*
X139474637Y-80360241D01*
X139274759Y-80160363D01*
X139039727Y-80003320D01*
X138778574Y-79895147D01*
X138501335Y-79840000D01*
X138218665Y-79840000D01*
X137941426Y-79895147D01*
X137680273Y-80003320D01*
X137445241Y-80160363D01*
X137245363Y-80360241D01*
X137090000Y-80592759D01*
X136934637Y-80360241D01*
X136734759Y-80160363D01*
X136499727Y-80003320D01*
X136238574Y-79895147D01*
X135961335Y-79840000D01*
X135678665Y-79840000D01*
X135401426Y-79895147D01*
X135140273Y-80003320D01*
X134905241Y-80160363D01*
X134705363Y-80360241D01*
X134550000Y-80592759D01*
X134394637Y-80360241D01*
X134194759Y-80160363D01*
X133959727Y-80003320D01*
X133698574Y-79895147D01*
X133421335Y-79840000D01*
X133138665Y-79840000D01*
X132861426Y-79895147D01*
X132600273Y-80003320D01*
X132365241Y-80160363D01*
X132165363Y-80360241D01*
X132010000Y-80592759D01*
X131854637Y-80360241D01*
X131654759Y-80160363D01*
X131419727Y-80003320D01*
X131158574Y-79895147D01*
X130881335Y-79840000D01*
X130598665Y-79840000D01*
X130321426Y-79895147D01*
X130060273Y-80003320D01*
X129825241Y-80160363D01*
X129625363Y-80360241D01*
X129470000Y-80592759D01*
X129314637Y-80360241D01*
X129114759Y-80160363D01*
X128879727Y-80003320D01*
X128618574Y-79895147D01*
X128341335Y-79840000D01*
X128058665Y-79840000D01*
X127781426Y-79895147D01*
X127520273Y-80003320D01*
X127285241Y-80160363D01*
X127085363Y-80360241D01*
X126930000Y-80592759D01*
X126774637Y-80360241D01*
X126574759Y-80160363D01*
X126339727Y-80003320D01*
X126078574Y-79895147D01*
X125801335Y-79840000D01*
X125518665Y-79840000D01*
X125241426Y-79895147D01*
X124980273Y-80003320D01*
X124745241Y-80160363D01*
X124545363Y-80360241D01*
X124390000Y-80592759D01*
X124234637Y-80360241D01*
X124034759Y-80160363D01*
X123799727Y-80003320D01*
X123538574Y-79895147D01*
X123261335Y-79840000D01*
X122978665Y-79840000D01*
X122701426Y-79895147D01*
X122440273Y-80003320D01*
X122205241Y-80160363D01*
X122005363Y-80360241D01*
X121848320Y-80595273D01*
X121843933Y-80605865D01*
X121732385Y-80419869D01*
X121543414Y-80211481D01*
X121317420Y-80043963D01*
X121063087Y-79923754D01*
X120929039Y-79883096D01*
X120707000Y-80005085D01*
X120707000Y-81148000D01*
X120727000Y-81148000D01*
X120727000Y-81402000D01*
X120707000Y-81402000D01*
X120707000Y-82544915D01*
X120929039Y-82666904D01*
X121063087Y-82626246D01*
X121317420Y-82506037D01*
X121543414Y-82338519D01*
X121732385Y-82130131D01*
X121843933Y-81944135D01*
X121848320Y-81954727D01*
X122005363Y-82189759D01*
X122205241Y-82389637D01*
X122440273Y-82546680D01*
X122701426Y-82654853D01*
X122978665Y-82710000D01*
X123261335Y-82710000D01*
X123351314Y-82692102D01*
X123487585Y-82828373D01*
X123421898Y-82801164D01*
X123221939Y-82761390D01*
X123018061Y-82761390D01*
X122818102Y-82801164D01*
X122629744Y-82879185D01*
X122460226Y-82992453D01*
X122316063Y-83136616D01*
X122202795Y-83306134D01*
X122124774Y-83494492D01*
X122085000Y-83694451D01*
X122085000Y-83898329D01*
X122124774Y-84098288D01*
X122202795Y-84286646D01*
X122316063Y-84456164D01*
X122408801Y-84548902D01*
X122408801Y-84694214D01*
X122173368Y-84851525D01*
X121966525Y-85058368D01*
X121850000Y-85232760D01*
X121733475Y-85058368D01*
X121526632Y-84851525D01*
X121283411Y-84689010D01*
X121013158Y-84577068D01*
X120726260Y-84520000D01*
X120433740Y-84520000D01*
X120146842Y-84577068D01*
X119876589Y-84689010D01*
X119633368Y-84851525D01*
X119426525Y-85058368D01*
X119264010Y-85301589D01*
X119152068Y-85571842D01*
X119095000Y-85858740D01*
X119095000Y-86151260D01*
X119152068Y-86438158D01*
X119264010Y-86708411D01*
X119426525Y-86951632D01*
X119633368Y-87158475D01*
X119876589Y-87320990D01*
X120146842Y-87432932D01*
X120360793Y-87475490D01*
X120161426Y-87515147D01*
X119900273Y-87623320D01*
X119665241Y-87780363D01*
X119465363Y-87980241D01*
X119308320Y-88215273D01*
X119200147Y-88476426D01*
X119145000Y-88753665D01*
X119145000Y-89036335D01*
X119200147Y-89313574D01*
X119308320Y-89574727D01*
X119465363Y-89809759D01*
X119665241Y-90009637D01*
X119900273Y-90166680D01*
X120161426Y-90274853D01*
X120438665Y-90330000D01*
X120721335Y-90330000D01*
X120998574Y-90274853D01*
X121259727Y-90166680D01*
X121494759Y-90009637D01*
X121694637Y-89809759D01*
X121850000Y-89577241D01*
X122005363Y-89809759D01*
X122205241Y-90009637D01*
X122440273Y-90166680D01*
X122701426Y-90274853D01*
X122978665Y-90330000D01*
X123261335Y-90330000D01*
X123538574Y-90274853D01*
X123799727Y-90166680D01*
X124034759Y-90009637D01*
X124234637Y-89809759D01*
X124390000Y-89577241D01*
X124545363Y-89809759D01*
X124745241Y-90009637D01*
X124980273Y-90166680D01*
X125241426Y-90274853D01*
X125518665Y-90330000D01*
X125579212Y-90330000D01*
X125420413Y-90488800D01*
X123368861Y-90488800D01*
X123333933Y-90485360D01*
X123299004Y-90488800D01*
X123298997Y-90488800D01*
X123194513Y-90499091D01*
X123060452Y-90539758D01*
X122936900Y-90605798D01*
X122828606Y-90694673D01*
X122806336Y-90721809D01*
X121386810Y-92141336D01*
X121359674Y-92163606D01*
X121337404Y-92190742D01*
X121337403Y-92190743D01*
X121270798Y-92271901D01*
X121211811Y-92382258D01*
X121204759Y-92395452D01*
X121164092Y-92529513D01*
X121163095Y-92539640D01*
X121150360Y-92668933D01*
X121153801Y-92703869D01*
X121153801Y-93685324D01*
X121013158Y-93627068D01*
X120726260Y-93570000D01*
X120433740Y-93570000D01*
X120146842Y-93627068D01*
X119876589Y-93739010D01*
X119633368Y-93901525D01*
X119426525Y-94108368D01*
X119264010Y-94351589D01*
X119152068Y-94621842D01*
X119095000Y-94908740D01*
X119095000Y-95201260D01*
X119152068Y-95488158D01*
X119264010Y-95758411D01*
X119426525Y-96001632D01*
X119558380Y-96133487D01*
X119485820Y-96155498D01*
X119375506Y-96214463D01*
X119278815Y-96293815D01*
X119199463Y-96390506D01*
X119140498Y-96500820D01*
X119104188Y-96620518D01*
X119091928Y-96745000D01*
X119091928Y-98445000D01*
X119104188Y-98569482D01*
X119140498Y-98689180D01*
X119199463Y-98799494D01*
X119278815Y-98896185D01*
X119375506Y-98975537D01*
X119485820Y-99034502D01*
X119605518Y-99070812D01*
X119730000Y-99083072D01*
X121430000Y-99083072D01*
X121554482Y-99070812D01*
X121674180Y-99034502D01*
X121784494Y-98975537D01*
X121881185Y-98896185D01*
X121960537Y-98799494D01*
X122019502Y-98689180D01*
X122041513Y-98616620D01*
X122173368Y-98748475D01*
X122416589Y-98910990D01*
X122686842Y-99022932D01*
X122973740Y-99080000D01*
X122998880Y-99080000D01*
X122665081Y-99413800D01*
X108929588Y-99413800D01*
X108902238Y-99386450D01*
X108950000Y-99146335D01*
X108950000Y-98863665D01*
X108894853Y-98586426D01*
X108786680Y-98325273D01*
X108629637Y-98090241D01*
X108429759Y-97890363D01*
X108194727Y-97733320D01*
X107933574Y-97625147D01*
X107656335Y-97570000D01*
X107373665Y-97570000D01*
X107096426Y-97625147D01*
X106835273Y-97733320D01*
X106600241Y-97890363D01*
X106400363Y-98090241D01*
X106243320Y-98325273D01*
X106135147Y-98586426D01*
X106080000Y-98863665D01*
X106080000Y-99146335D01*
X106135147Y-99423574D01*
X106243320Y-99684727D01*
X106400363Y-99919759D01*
X106600241Y-100119637D01*
X106832759Y-100275000D01*
X106600241Y-100430363D01*
X106400363Y-100630241D01*
X106243320Y-100865273D01*
X106135147Y-101126426D01*
X106080000Y-101403665D01*
X106080000Y-101686335D01*
X106135147Y-101963574D01*
X106243320Y-102224727D01*
X106400363Y-102459759D01*
X106600241Y-102659637D01*
X106832759Y-102815000D01*
X106600241Y-102970363D01*
X106400363Y-103170241D01*
X106243320Y-103405273D01*
X106135147Y-103666426D01*
X106080000Y-103943665D01*
X106080000Y-104226335D01*
X106135147Y-104503574D01*
X106243320Y-104764727D01*
X106400363Y-104999759D01*
X106598961Y-105198357D01*
X106590518Y-105199188D01*
X106470820Y-105235498D01*
X106360506Y-105294463D01*
X106263815Y-105373815D01*
X106184463Y-105470506D01*
X106125498Y-105580820D01*
X106089188Y-105700518D01*
X106076928Y-105825000D01*
X106076928Y-107425000D01*
X106089188Y-107549482D01*
X106125498Y-107669180D01*
X106184463Y-107779494D01*
X106263815Y-107876185D01*
X106360506Y-107955537D01*
X106470820Y-108014502D01*
X106590518Y-108050812D01*
X106715000Y-108063072D01*
X108315000Y-108063072D01*
X108439482Y-108050812D01*
X108559180Y-108014502D01*
X108669494Y-107955537D01*
X108766185Y-107876185D01*
X108845537Y-107779494D01*
X108904502Y-107669180D01*
X108921342Y-107613665D01*
X145880000Y-107613665D01*
X145880000Y-107896335D01*
X145935147Y-108173574D01*
X146043320Y-108434727D01*
X146200363Y-108669759D01*
X146400241Y-108869637D01*
X146635273Y-109026680D01*
X146896426Y-109134853D01*
X147173665Y-109190000D01*
X147456335Y-109190000D01*
X147733574Y-109134853D01*
X147994727Y-109026680D01*
X148229759Y-108869637D01*
X148429637Y-108669759D01*
X148586680Y-108434727D01*
X148694853Y-108173574D01*
X148750000Y-107896335D01*
X148750000Y-107613665D01*
X148694853Y-107336426D01*
X148586680Y-107075273D01*
X148429637Y-106840241D01*
X148229759Y-106640363D01*
X148029131Y-106506308D01*
X148056514Y-106491671D01*
X148128097Y-106247702D01*
X147315000Y-105434605D01*
X146501903Y-106247702D01*
X146573486Y-106491671D01*
X146602341Y-106505324D01*
X146400241Y-106640363D01*
X146200363Y-106840241D01*
X146043320Y-107075273D01*
X145935147Y-107336426D01*
X145880000Y-107613665D01*
X108921342Y-107613665D01*
X108940812Y-107549482D01*
X108953072Y-107425000D01*
X108953072Y-105825000D01*
X108940812Y-105700518D01*
X108904502Y-105580820D01*
X108845537Y-105470506D01*
X108766185Y-105373815D01*
X108669494Y-105294463D01*
X108559180Y-105235498D01*
X108439482Y-105199188D01*
X108431039Y-105198357D01*
X108629637Y-104999759D01*
X108786680Y-104764727D01*
X108894853Y-104503574D01*
X108950000Y-104226335D01*
X108950000Y-103943665D01*
X108920667Y-103796200D01*
X119447090Y-103796200D01*
X119375506Y-103834463D01*
X119278815Y-103913815D01*
X119199463Y-104010506D01*
X119140498Y-104120820D01*
X119104188Y-104240518D01*
X119091928Y-104365000D01*
X119091928Y-106065000D01*
X119104188Y-106189482D01*
X119140498Y-106309180D01*
X119199463Y-106419494D01*
X119278815Y-106516185D01*
X119375506Y-106595537D01*
X119485820Y-106654502D01*
X119605518Y-106690812D01*
X119730000Y-106703072D01*
X121430000Y-106703072D01*
X121554482Y-106690812D01*
X121674180Y-106654502D01*
X121784494Y-106595537D01*
X121881185Y-106516185D01*
X121960537Y-106419494D01*
X122019502Y-106309180D01*
X122041513Y-106236620D01*
X122173368Y-106368475D01*
X122416589Y-106530990D01*
X122686842Y-106642932D01*
X122973740Y-106700000D01*
X123266260Y-106700000D01*
X123553158Y-106642932D01*
X123823411Y-106530990D01*
X124066632Y-106368475D01*
X124273475Y-106161632D01*
X124390000Y-105987240D01*
X124506525Y-106161632D01*
X124713368Y-106368475D01*
X124956589Y-106530990D01*
X125226842Y-106642932D01*
X125513740Y-106700000D01*
X125806260Y-106700000D01*
X126093158Y-106642932D01*
X126363411Y-106530990D01*
X126606632Y-106368475D01*
X126813475Y-106161632D01*
X126930000Y-105987240D01*
X127046525Y-106161632D01*
X127253368Y-106368475D01*
X127496589Y-106530990D01*
X127766842Y-106642932D01*
X128053740Y-106700000D01*
X128346260Y-106700000D01*
X128633158Y-106642932D01*
X128903411Y-106530990D01*
X129146632Y-106368475D01*
X129353475Y-106161632D01*
X129470000Y-105987240D01*
X129586525Y-106161632D01*
X129793368Y-106368475D01*
X130036589Y-106530990D01*
X130306842Y-106642932D01*
X130593740Y-106700000D01*
X130886260Y-106700000D01*
X131173158Y-106642932D01*
X131443411Y-106530990D01*
X131686632Y-106368475D01*
X131893475Y-106161632D01*
X132010000Y-105987240D01*
X132126525Y-106161632D01*
X132333368Y-106368475D01*
X132576589Y-106530990D01*
X132846842Y-106642932D01*
X133133740Y-106700000D01*
X133426260Y-106700000D01*
X133713158Y-106642932D01*
X133983411Y-106530990D01*
X133987482Y-106528270D01*
X134512407Y-107053196D01*
X134534673Y-107080327D01*
X134561804Y-107102593D01*
X134561808Y-107102597D01*
X134642967Y-107169202D01*
X134766519Y-107235242D01*
X134900580Y-107275909D01*
X135005064Y-107286200D01*
X135005073Y-107286200D01*
X135039999Y-107289640D01*
X135074925Y-107286200D01*
X136965074Y-107286200D01*
X137000000Y-107289640D01*
X137034926Y-107286200D01*
X137034936Y-107286200D01*
X137139420Y-107275909D01*
X137273481Y-107235242D01*
X137397033Y-107169202D01*
X137505327Y-107080327D01*
X137527601Y-107053186D01*
X137936028Y-106644759D01*
X138213740Y-106700000D01*
X138506260Y-106700000D01*
X138793158Y-106642932D01*
X139063411Y-106530990D01*
X139306632Y-106368475D01*
X139513475Y-106161632D01*
X139630000Y-105987240D01*
X139746525Y-106161632D01*
X139953368Y-106368475D01*
X140196589Y-106530990D01*
X140466842Y-106642932D01*
X140753740Y-106700000D01*
X141046260Y-106700000D01*
X141333158Y-106642932D01*
X141603411Y-106530990D01*
X141846632Y-106368475D01*
X142053475Y-106161632D01*
X142215990Y-105918411D01*
X142327932Y-105648158D01*
X142385000Y-105361260D01*
X142385000Y-105325512D01*
X145874783Y-105325512D01*
X145916213Y-105605130D01*
X146011397Y-105871292D01*
X146078329Y-105996514D01*
X146322298Y-106068097D01*
X147135395Y-105255000D01*
X147494605Y-105255000D01*
X148307702Y-106068097D01*
X148551671Y-105996514D01*
X148672571Y-105741004D01*
X148741300Y-105466816D01*
X148755217Y-105184488D01*
X148713787Y-104904870D01*
X148618603Y-104638708D01*
X148551671Y-104513486D01*
X148307702Y-104441903D01*
X147494605Y-105255000D01*
X147135395Y-105255000D01*
X146322298Y-104441903D01*
X146078329Y-104513486D01*
X145957429Y-104768996D01*
X145888700Y-105043184D01*
X145874783Y-105325512D01*
X142385000Y-105325512D01*
X142385000Y-105068740D01*
X142329759Y-104791029D01*
X142858490Y-104262298D01*
X146501903Y-104262298D01*
X147315000Y-105075395D01*
X148128097Y-104262298D01*
X148056514Y-104018329D01*
X147801004Y-103897429D01*
X147526816Y-103828700D01*
X147244488Y-103814783D01*
X146964870Y-103856213D01*
X146698708Y-103951397D01*
X146573486Y-104018329D01*
X146501903Y-104262298D01*
X142858490Y-104262298D01*
X143243201Y-103877588D01*
X143270326Y-103855327D01*
X143292588Y-103828201D01*
X143292597Y-103828192D01*
X143359202Y-103747033D01*
X143425241Y-103623482D01*
X143425242Y-103623481D01*
X143465909Y-103489420D01*
X143476200Y-103384936D01*
X143476200Y-103384927D01*
X143479640Y-103350001D01*
X143476200Y-103315075D01*
X143476200Y-98352760D01*
X143549822Y-98476355D01*
X143744731Y-98692588D01*
X143978080Y-98866641D01*
X144240901Y-98991825D01*
X144388110Y-99036476D01*
X144618000Y-98915155D01*
X144618000Y-97722000D01*
X144598000Y-97722000D01*
X144598000Y-97468000D01*
X144618000Y-97468000D01*
X144618000Y-97448000D01*
X144872000Y-97448000D01*
X144872000Y-97468000D01*
X144892000Y-97468000D01*
X144892000Y-97722000D01*
X144872000Y-97722000D01*
X144872000Y-98915155D01*
X145101890Y-99036476D01*
X145249099Y-98991825D01*
X145511920Y-98866641D01*
X145745269Y-98692588D01*
X145940178Y-98476355D01*
X146009805Y-98359466D01*
X146131525Y-98541632D01*
X146338368Y-98748475D01*
X146581589Y-98910990D01*
X146851842Y-99022932D01*
X147138740Y-99080000D01*
X147431260Y-99080000D01*
X147718158Y-99022932D01*
X147988411Y-98910990D01*
X148231632Y-98748475D01*
X148438475Y-98541632D01*
X148600990Y-98298411D01*
X148674236Y-98121578D01*
X148678412Y-98120311D01*
X148801964Y-98054271D01*
X148910258Y-97965396D01*
X148932533Y-97938254D01*
X151193195Y-95677593D01*
X151220326Y-95655327D01*
X151242593Y-95628195D01*
X151242597Y-95628191D01*
X151309202Y-95547033D01*
X151342049Y-95485581D01*
X151375242Y-95423481D01*
X151415909Y-95289420D01*
X151426200Y-95184936D01*
X151426200Y-95184929D01*
X151429640Y-95150000D01*
X151426200Y-95115072D01*
X151426200Y-78934928D01*
X151429640Y-78900000D01*
X151426200Y-78865071D01*
X151426200Y-78865064D01*
X151415909Y-78760580D01*
X151375242Y-78626519D01*
X151309202Y-78502967D01*
X151220327Y-78394673D01*
X151193191Y-78372403D01*
X148039001Y-75218214D01*
X148016726Y-75191072D01*
X147908432Y-75102197D01*
X147784880Y-75036157D01*
X147764583Y-75030000D01*
X151755000Y-75030000D01*
X151755001Y-109790000D01*
X97955000Y-109790000D01*
X97955000Y-90938601D01*
X98151759Y-90938601D01*
X98155200Y-90973537D01*
X98155199Y-100481473D01*
X98151759Y-100516399D01*
X98155199Y-100551325D01*
X98155199Y-100551334D01*
X98165490Y-100655818D01*
X98206157Y-100789879D01*
X98272197Y-100913431D01*
X98361072Y-101021725D01*
X98388209Y-101043996D01*
X98507763Y-101163550D01*
X98460000Y-101403665D01*
X98460000Y-101686335D01*
X98515147Y-101963574D01*
X98623320Y-102224727D01*
X98780363Y-102459759D01*
X98980241Y-102659637D01*
X99212759Y-102815000D01*
X98980241Y-102970363D01*
X98780363Y-103170241D01*
X98623320Y-103405273D01*
X98515147Y-103666426D01*
X98460000Y-103943665D01*
X98460000Y-104226335D01*
X98515147Y-104503574D01*
X98623320Y-104764727D01*
X98780363Y-104999759D01*
X98980241Y-105199637D01*
X99212759Y-105355000D01*
X98980241Y-105510363D01*
X98780363Y-105710241D01*
X98623320Y-105945273D01*
X98515147Y-106206426D01*
X98460000Y-106483665D01*
X98460000Y-106766335D01*
X98515147Y-107043574D01*
X98623320Y-107304727D01*
X98780363Y-107539759D01*
X98980241Y-107739637D01*
X99215273Y-107896680D01*
X99476426Y-108004853D01*
X99753665Y-108060000D01*
X100036335Y-108060000D01*
X100313574Y-108004853D01*
X100574727Y-107896680D01*
X100809759Y-107739637D01*
X101009637Y-107539759D01*
X101166680Y-107304727D01*
X101274853Y-107043574D01*
X101330000Y-106766335D01*
X101330000Y-106483665D01*
X101274853Y-106206426D01*
X101166680Y-105945273D01*
X101009637Y-105710241D01*
X100809759Y-105510363D01*
X100577241Y-105355000D01*
X100809759Y-105199637D01*
X101009637Y-104999759D01*
X101166680Y-104764727D01*
X101274853Y-104503574D01*
X101330000Y-104226335D01*
X101330000Y-103943665D01*
X101274853Y-103666426D01*
X101166680Y-103405273D01*
X101009637Y-103170241D01*
X100809759Y-102970363D01*
X100577241Y-102815000D01*
X100809759Y-102659637D01*
X101009637Y-102459759D01*
X101166680Y-102224727D01*
X101274853Y-101963574D01*
X101330000Y-101686335D01*
X101330000Y-101403665D01*
X101274853Y-101126426D01*
X101166680Y-100865273D01*
X101009637Y-100630241D01*
X100809759Y-100430363D01*
X100577241Y-100275000D01*
X100809759Y-100119637D01*
X101009637Y-99919759D01*
X101166680Y-99684727D01*
X101274853Y-99423574D01*
X101330000Y-99146335D01*
X101330000Y-98863665D01*
X101282238Y-98623551D01*
X101401801Y-98503988D01*
X101428927Y-98481726D01*
X101451189Y-98454600D01*
X101451198Y-98454591D01*
X101517802Y-98373433D01*
X101517803Y-98373432D01*
X101583843Y-98249880D01*
X101624510Y-98115819D01*
X101634801Y-98011335D01*
X101634801Y-98011318D01*
X101638240Y-97976400D01*
X101634801Y-97941482D01*
X101634801Y-88433518D01*
X101638240Y-88398600D01*
X101634801Y-88363682D01*
X101634801Y-88363665D01*
X101624510Y-88259181D01*
X101583843Y-88125120D01*
X101517803Y-88001568D01*
X101500300Y-87980241D01*
X101451198Y-87920409D01*
X101451194Y-87920405D01*
X101428928Y-87893274D01*
X101401797Y-87871008D01*
X101282238Y-87751449D01*
X101330000Y-87511335D01*
X101330000Y-87228665D01*
X101274853Y-86951426D01*
X101166680Y-86690273D01*
X101009637Y-86455241D01*
X100809759Y-86255363D01*
X100577241Y-86100000D01*
X100809759Y-85944637D01*
X101009637Y-85744759D01*
X101166680Y-85509727D01*
X101274853Y-85248574D01*
X101330000Y-84971335D01*
X101330000Y-84688665D01*
X101274853Y-84411426D01*
X101166680Y-84150273D01*
X101009637Y-83915241D01*
X100809759Y-83715363D01*
X100574727Y-83558320D01*
X100313574Y-83450147D01*
X100036335Y-83395000D01*
X99753665Y-83395000D01*
X99476426Y-83450147D01*
X99215273Y-83558320D01*
X98980241Y-83715363D01*
X98780363Y-83915241D01*
X98623320Y-84150273D01*
X98515147Y-84411426D01*
X98460000Y-84688665D01*
X98460000Y-84971335D01*
X98515147Y-85248574D01*
X98623320Y-85509727D01*
X98780363Y-85744759D01*
X98980241Y-85944637D01*
X99212759Y-86100000D01*
X98980241Y-86255363D01*
X98780363Y-86455241D01*
X98623320Y-86690273D01*
X98515147Y-86951426D01*
X98460000Y-87228665D01*
X98460000Y-87511335D01*
X98515147Y-87788574D01*
X98623320Y-88049727D01*
X98780363Y-88284759D01*
X98980241Y-88484637D01*
X99212759Y-88640000D01*
X98980241Y-88795363D01*
X98780363Y-88995241D01*
X98623320Y-89230273D01*
X98515147Y-89491426D01*
X98460000Y-89768665D01*
X98460000Y-90051335D01*
X98507763Y-90291450D01*
X98388209Y-90411004D01*
X98361073Y-90433274D01*
X98338803Y-90460410D01*
X98338802Y-90460411D01*
X98272197Y-90541569D01*
X98237866Y-90605798D01*
X98206158Y-90665120D01*
X98169813Y-90784935D01*
X98165491Y-90799182D01*
X98151759Y-90938601D01*
X97955000Y-90938601D01*
X97955000Y-75030000D01*
X104080417Y-75030000D01*
X104060120Y-75036157D01*
G04 #@! TA.AperFunction,Conductor*
D18*
G36*
X104060120Y-75036157D02*
G01*
X103936568Y-75102197D01*
X103828274Y-75191072D01*
X103806004Y-75218208D01*
X103628972Y-75395241D01*
X103351260Y-75340000D01*
X103058740Y-75340000D01*
X102771842Y-75397068D01*
X102501589Y-75509010D01*
X102258368Y-75671525D01*
X102051525Y-75878368D01*
X101889010Y-76121589D01*
X101777068Y-76391842D01*
X101720000Y-76678740D01*
X101720000Y-76971260D01*
X101777068Y-77258158D01*
X101889010Y-77528411D01*
X102051525Y-77771632D01*
X102258368Y-77978475D01*
X102501589Y-78140990D01*
X102771842Y-78252932D01*
X103058740Y-78310000D01*
X103351260Y-78310000D01*
X103638158Y-78252932D01*
X103908411Y-78140990D01*
X104151632Y-77978475D01*
X104358475Y-77771632D01*
X104475000Y-77597240D01*
X104591525Y-77771632D01*
X104798368Y-77978475D01*
X105041589Y-78140990D01*
X105311842Y-78252932D01*
X105598740Y-78310000D01*
X105891260Y-78310000D01*
X106168972Y-78254759D01*
X106803801Y-78889589D01*
X106803800Y-83579349D01*
X106600241Y-83715363D01*
X106400363Y-83915241D01*
X106243320Y-84150273D01*
X106135147Y-84411426D01*
X106080000Y-84688665D01*
X106080000Y-84971335D01*
X106135147Y-85248574D01*
X106243320Y-85509727D01*
X106400363Y-85744759D01*
X106600241Y-85944637D01*
X106832759Y-86100000D01*
X106600241Y-86255363D01*
X106400363Y-86455241D01*
X106243320Y-86690273D01*
X106135147Y-86951426D01*
X106080000Y-87228665D01*
X106080000Y-87511335D01*
X106135147Y-87788574D01*
X106243320Y-88049727D01*
X106400363Y-88284759D01*
X106600241Y-88484637D01*
X106832759Y-88640000D01*
X106600241Y-88795363D01*
X106400363Y-88995241D01*
X106243320Y-89230273D01*
X106135147Y-89491426D01*
X106080000Y-89768665D01*
X106080000Y-90051335D01*
X106135147Y-90328574D01*
X106243320Y-90589727D01*
X106400363Y-90824759D01*
X106598961Y-91023357D01*
X106590518Y-91024188D01*
X106470820Y-91060498D01*
X106360506Y-91119463D01*
X106263815Y-91198815D01*
X106184463Y-91295506D01*
X106125498Y-91405820D01*
X106089188Y-91525518D01*
X106076928Y-91650000D01*
X106076928Y-93250000D01*
X106089188Y-93374482D01*
X106125498Y-93494180D01*
X106184463Y-93604494D01*
X106263815Y-93701185D01*
X106360506Y-93780537D01*
X106470820Y-93839502D01*
X106590518Y-93875812D01*
X106715000Y-93888072D01*
X108315000Y-93888072D01*
X108439482Y-93875812D01*
X108559180Y-93839502D01*
X108669494Y-93780537D01*
X108766185Y-93701185D01*
X108845537Y-93604494D01*
X108904502Y-93494180D01*
X108940812Y-93374482D01*
X108953072Y-93250000D01*
X108953072Y-92017715D01*
X112143201Y-88827588D01*
X112170326Y-88805327D01*
X112192588Y-88778201D01*
X112192597Y-88778192D01*
X112259202Y-88697033D01*
X112299565Y-88621519D01*
X112325242Y-88573481D01*
X112365909Y-88439420D01*
X112376200Y-88334936D01*
X112376200Y-88334927D01*
X112379640Y-88300001D01*
X112376200Y-88265075D01*
X112376200Y-81624040D01*
X119188091Y-81624040D01*
X119282930Y-81888881D01*
X119427615Y-82130131D01*
X119616586Y-82338519D01*
X119842580Y-82506037D01*
X120096913Y-82626246D01*
X120230961Y-82666904D01*
X120453000Y-82544915D01*
X120453000Y-81402000D01*
X119309376Y-81402000D01*
X119188091Y-81624040D01*
X112376200Y-81624040D01*
X112376200Y-80925960D01*
X119188091Y-80925960D01*
X119309376Y-81148000D01*
X120453000Y-81148000D01*
X120453000Y-80005085D01*
X120230961Y-79883096D01*
X120096913Y-79923754D01*
X119842580Y-80043963D01*
X119616586Y-80211481D01*
X119427615Y-80419869D01*
X119282930Y-80661119D01*
X119188091Y-80925960D01*
X112376200Y-80925960D01*
X112376200Y-78819587D01*
X112882715Y-78313072D01*
X114215000Y-78313072D01*
X114339482Y-78300812D01*
X114459180Y-78264502D01*
X114569494Y-78205537D01*
X114666185Y-78126185D01*
X114745537Y-78029494D01*
X114804502Y-77919180D01*
X114840812Y-77799482D01*
X114853072Y-77675000D01*
X114853072Y-76407599D01*
X119091928Y-76407599D01*
X119091928Y-77625000D01*
X119104188Y-77749482D01*
X119140498Y-77869180D01*
X119199463Y-77979494D01*
X119278815Y-78076185D01*
X119375506Y-78155537D01*
X119485820Y-78214502D01*
X119605518Y-78250812D01*
X119730000Y-78263072D01*
X121430000Y-78263072D01*
X121554482Y-78250812D01*
X121674180Y-78214502D01*
X121784494Y-78155537D01*
X121881185Y-78076185D01*
X121960537Y-77979494D01*
X122019502Y-77869180D01*
X122041513Y-77796620D01*
X122173368Y-77928475D01*
X122416589Y-78090990D01*
X122686842Y-78202932D01*
X122973740Y-78260000D01*
X123266260Y-78260000D01*
X123553158Y-78202932D01*
X123823411Y-78090990D01*
X124066632Y-77928475D01*
X124273475Y-77721632D01*
X124390000Y-77547240D01*
X124506525Y-77721632D01*
X124713368Y-77928475D01*
X124956589Y-78090990D01*
X125226842Y-78202932D01*
X125513740Y-78260000D01*
X125806260Y-78260000D01*
X126093158Y-78202932D01*
X126363411Y-78090990D01*
X126606632Y-77928475D01*
X126813475Y-77721632D01*
X126930000Y-77547240D01*
X127046525Y-77721632D01*
X127253368Y-77928475D01*
X127496589Y-78090990D01*
X127766842Y-78202932D01*
X128053740Y-78260000D01*
X128346260Y-78260000D01*
X128633158Y-78202932D01*
X128903411Y-78090990D01*
X129146632Y-77928475D01*
X129353475Y-77721632D01*
X129515990Y-77478411D01*
X129627932Y-77208158D01*
X129685000Y-76921260D01*
X129685000Y-76628740D01*
X129641012Y-76407599D01*
X147216812Y-76407599D01*
X150003801Y-79194589D01*
X150003800Y-94855412D01*
X148324660Y-96534553D01*
X148231632Y-96441525D01*
X148057240Y-96325000D01*
X148231632Y-96208475D01*
X148438475Y-96001632D01*
X148600990Y-95758411D01*
X148712932Y-95488158D01*
X148770000Y-95201260D01*
X148770000Y-94908740D01*
X148712932Y-94621842D01*
X148600990Y-94351589D01*
X148438475Y-94108368D01*
X148231632Y-93901525D01*
X147988411Y-93739010D01*
X147718158Y-93627068D01*
X147431260Y-93570000D01*
X147138740Y-93570000D01*
X146851842Y-93627068D01*
X146581589Y-93739010D01*
X146338368Y-93901525D01*
X146206513Y-94033380D01*
X146184502Y-93960820D01*
X146125537Y-93850506D01*
X146046185Y-93753815D01*
X145949494Y-93674463D01*
X145839180Y-93615498D01*
X145719482Y-93579188D01*
X145595000Y-93566928D01*
X144253859Y-93566928D01*
X147486796Y-90333992D01*
X147513927Y-90311726D01*
X147536194Y-90284594D01*
X147536198Y-90284590D01*
X147602803Y-90203432D01*
X147612526Y-90185242D01*
X147668843Y-90079880D01*
X147675841Y-90056810D01*
X147840273Y-90166680D01*
X148101426Y-90274853D01*
X148378665Y-90330000D01*
X148661335Y-90330000D01*
X148938574Y-90274853D01*
X149199727Y-90166680D01*
X149434759Y-90009637D01*
X149634637Y-89809759D01*
X149791680Y-89574727D01*
X149899853Y-89313574D01*
X149955000Y-89036335D01*
X149955000Y-88753665D01*
X149899853Y-88476426D01*
X149791680Y-88215273D01*
X149634637Y-87980241D01*
X149434759Y-87780363D01*
X149199727Y-87623320D01*
X148938574Y-87515147D01*
X148661335Y-87460000D01*
X148378665Y-87460000D01*
X148101426Y-87515147D01*
X147840273Y-87623320D01*
X147719801Y-87703817D01*
X147719801Y-87434595D01*
X147723241Y-87399667D01*
X147719801Y-87364738D01*
X147719801Y-87364731D01*
X147709510Y-87260247D01*
X147668843Y-87126186D01*
X147602803Y-87002634D01*
X147513928Y-86894340D01*
X147486792Y-86872070D01*
X144151200Y-83536479D01*
X144151200Y-82525650D01*
X144354759Y-82389637D01*
X144554637Y-82189759D01*
X144710000Y-81957241D01*
X144865363Y-82189759D01*
X145065241Y-82389637D01*
X145300273Y-82546680D01*
X145561426Y-82654853D01*
X145838665Y-82710000D01*
X146121335Y-82710000D01*
X146398574Y-82654853D01*
X146659727Y-82546680D01*
X146894759Y-82389637D01*
X147093357Y-82191039D01*
X147094188Y-82199482D01*
X147130498Y-82319180D01*
X147189463Y-82429494D01*
X147268815Y-82526185D01*
X147365506Y-82605537D01*
X147475820Y-82664502D01*
X147595518Y-82700812D01*
X147720000Y-82713072D01*
X149320000Y-82713072D01*
X149444482Y-82700812D01*
X149564180Y-82664502D01*
X149674494Y-82605537D01*
X149771185Y-82526185D01*
X149850537Y-82429494D01*
X149909502Y-82319180D01*
X149945812Y-82199482D01*
X149958072Y-82075000D01*
X149958072Y-80475000D01*
X149945812Y-80350518D01*
X149909502Y-80230820D01*
X149850537Y-80120506D01*
X149771185Y-80023815D01*
X149674494Y-79944463D01*
X149564180Y-79885498D01*
X149444482Y-79849188D01*
X149320000Y-79836928D01*
X147720000Y-79836928D01*
X147595518Y-79849188D01*
X147475820Y-79885498D01*
X147365506Y-79944463D01*
X147268815Y-80023815D01*
X147189463Y-80120506D01*
X147130498Y-80230820D01*
X147094188Y-80350518D01*
X147093357Y-80358961D01*
X146894759Y-80160363D01*
X146659727Y-80003320D01*
X146398574Y-79895147D01*
X146121335Y-79840000D01*
X145838665Y-79840000D01*
X145561426Y-79895147D01*
X145300273Y-80003320D01*
X145065241Y-80160363D01*
X144865363Y-80360241D01*
X144710000Y-80592759D01*
X144554637Y-80360241D01*
X144354759Y-80160363D01*
X144119727Y-80003320D01*
X143858574Y-79895147D01*
X143581335Y-79840000D01*
X143298665Y-79840000D01*
X143021426Y-79895147D01*
X142760273Y-80003320D01*
X142525241Y-80160363D01*
X142325363Y-80360241D01*
X142170000Y-80592759D01*
X142014637Y-80360241D01*
X141814759Y-80160363D01*
X141579727Y-80003320D01*
X141318574Y-79895147D01*
X141041335Y-79840000D01*
X140758665Y-79840000D01*
X140481426Y-79895147D01*
X140220273Y-80003320D01*
X139985241Y-80160363D01*
X139785363Y-80360241D01*
X139630000Y-80592759D01*
X139474637Y-80360241D01*
X139274759Y-80160363D01*
X139039727Y-80003320D01*
X138778574Y-79895147D01*
X138501335Y-79840000D01*
X138218665Y-79840000D01*
X137941426Y-79895147D01*
X137680273Y-80003320D01*
X137445241Y-80160363D01*
X137245363Y-80360241D01*
X137090000Y-80592759D01*
X136934637Y-80360241D01*
X136734759Y-80160363D01*
X136499727Y-80003320D01*
X136238574Y-79895147D01*
X135961335Y-79840000D01*
X135678665Y-79840000D01*
X135401426Y-79895147D01*
X135140273Y-80003320D01*
X134905241Y-80160363D01*
X134705363Y-80360241D01*
X134550000Y-80592759D01*
X134394637Y-80360241D01*
X134194759Y-80160363D01*
X133959727Y-80003320D01*
X133698574Y-79895147D01*
X133421335Y-79840000D01*
X133138665Y-79840000D01*
X132861426Y-79895147D01*
X132600273Y-80003320D01*
X132365241Y-80160363D01*
X132165363Y-80360241D01*
X132010000Y-80592759D01*
X131854637Y-80360241D01*
X131654759Y-80160363D01*
X131419727Y-80003320D01*
X131158574Y-79895147D01*
X130881335Y-79840000D01*
X130598665Y-79840000D01*
X130321426Y-79895147D01*
X130060273Y-80003320D01*
X129825241Y-80160363D01*
X129625363Y-80360241D01*
X129470000Y-80592759D01*
X129314637Y-80360241D01*
X129114759Y-80160363D01*
X128879727Y-80003320D01*
X128618574Y-79895147D01*
X128341335Y-79840000D01*
X128058665Y-79840000D01*
X127781426Y-79895147D01*
X127520273Y-80003320D01*
X127285241Y-80160363D01*
X127085363Y-80360241D01*
X126930000Y-80592759D01*
X126774637Y-80360241D01*
X126574759Y-80160363D01*
X126339727Y-80003320D01*
X126078574Y-79895147D01*
X125801335Y-79840000D01*
X125518665Y-79840000D01*
X125241426Y-79895147D01*
X124980273Y-80003320D01*
X124745241Y-80160363D01*
X124545363Y-80360241D01*
X124390000Y-80592759D01*
X124234637Y-80360241D01*
X124034759Y-80160363D01*
X123799727Y-80003320D01*
X123538574Y-79895147D01*
X123261335Y-79840000D01*
X122978665Y-79840000D01*
X122701426Y-79895147D01*
X122440273Y-80003320D01*
X122205241Y-80160363D01*
X122005363Y-80360241D01*
X121848320Y-80595273D01*
X121843933Y-80605865D01*
X121732385Y-80419869D01*
X121543414Y-80211481D01*
X121317420Y-80043963D01*
X121063087Y-79923754D01*
X120929039Y-79883096D01*
X120707000Y-80005085D01*
X120707000Y-81148000D01*
X120727000Y-81148000D01*
X120727000Y-81402000D01*
X120707000Y-81402000D01*
X120707000Y-82544915D01*
X120929039Y-82666904D01*
X121063087Y-82626246D01*
X121317420Y-82506037D01*
X121543414Y-82338519D01*
X121732385Y-82130131D01*
X121843933Y-81944135D01*
X121848320Y-81954727D01*
X122005363Y-82189759D01*
X122205241Y-82389637D01*
X122440273Y-82546680D01*
X122701426Y-82654853D01*
X122978665Y-82710000D01*
X123261335Y-82710000D01*
X123351314Y-82692102D01*
X123487585Y-82828373D01*
X123421898Y-82801164D01*
X123221939Y-82761390D01*
X123018061Y-82761390D01*
X122818102Y-82801164D01*
X122629744Y-82879185D01*
X122460226Y-82992453D01*
X122316063Y-83136616D01*
X122202795Y-83306134D01*
X122124774Y-83494492D01*
X122085000Y-83694451D01*
X122085000Y-83898329D01*
X122124774Y-84098288D01*
X122202795Y-84286646D01*
X122316063Y-84456164D01*
X122408801Y-84548902D01*
X122408801Y-84694214D01*
X122173368Y-84851525D01*
X121966525Y-85058368D01*
X121850000Y-85232760D01*
X121733475Y-85058368D01*
X121526632Y-84851525D01*
X121283411Y-84689010D01*
X121013158Y-84577068D01*
X120726260Y-84520000D01*
X120433740Y-84520000D01*
X120146842Y-84577068D01*
X119876589Y-84689010D01*
X119633368Y-84851525D01*
X119426525Y-85058368D01*
X119264010Y-85301589D01*
X119152068Y-85571842D01*
X119095000Y-85858740D01*
X119095000Y-86151260D01*
X119152068Y-86438158D01*
X119264010Y-86708411D01*
X119426525Y-86951632D01*
X119633368Y-87158475D01*
X119876589Y-87320990D01*
X120146842Y-87432932D01*
X120360793Y-87475490D01*
X120161426Y-87515147D01*
X119900273Y-87623320D01*
X119665241Y-87780363D01*
X119465363Y-87980241D01*
X119308320Y-88215273D01*
X119200147Y-88476426D01*
X119145000Y-88753665D01*
X119145000Y-89036335D01*
X119200147Y-89313574D01*
X119308320Y-89574727D01*
X119465363Y-89809759D01*
X119665241Y-90009637D01*
X119900273Y-90166680D01*
X120161426Y-90274853D01*
X120438665Y-90330000D01*
X120721335Y-90330000D01*
X120998574Y-90274853D01*
X121259727Y-90166680D01*
X121494759Y-90009637D01*
X121694637Y-89809759D01*
X121850000Y-89577241D01*
X122005363Y-89809759D01*
X122205241Y-90009637D01*
X122440273Y-90166680D01*
X122701426Y-90274853D01*
X122978665Y-90330000D01*
X123261335Y-90330000D01*
X123538574Y-90274853D01*
X123799727Y-90166680D01*
X124034759Y-90009637D01*
X124234637Y-89809759D01*
X124390000Y-89577241D01*
X124545363Y-89809759D01*
X124745241Y-90009637D01*
X124980273Y-90166680D01*
X125241426Y-90274853D01*
X125518665Y-90330000D01*
X125579212Y-90330000D01*
X125420413Y-90488800D01*
X123368861Y-90488800D01*
X123333933Y-90485360D01*
X123299004Y-90488800D01*
X123298997Y-90488800D01*
X123194513Y-90499091D01*
X123060452Y-90539758D01*
X122936900Y-90605798D01*
X122828606Y-90694673D01*
X122806336Y-90721809D01*
X121386810Y-92141336D01*
X121359674Y-92163606D01*
X121337404Y-92190742D01*
X121337403Y-92190743D01*
X121270798Y-92271901D01*
X121211811Y-92382258D01*
X121204759Y-92395452D01*
X121164092Y-92529513D01*
X121163095Y-92539640D01*
X121150360Y-92668933D01*
X121153801Y-92703869D01*
X121153801Y-93685324D01*
X121013158Y-93627068D01*
X120726260Y-93570000D01*
X120433740Y-93570000D01*
X120146842Y-93627068D01*
X119876589Y-93739010D01*
X119633368Y-93901525D01*
X119426525Y-94108368D01*
X119264010Y-94351589D01*
X119152068Y-94621842D01*
X119095000Y-94908740D01*
X119095000Y-95201260D01*
X119152068Y-95488158D01*
X119264010Y-95758411D01*
X119426525Y-96001632D01*
X119558380Y-96133487D01*
X119485820Y-96155498D01*
X119375506Y-96214463D01*
X119278815Y-96293815D01*
X119199463Y-96390506D01*
X119140498Y-96500820D01*
X119104188Y-96620518D01*
X119091928Y-96745000D01*
X119091928Y-98445000D01*
X119104188Y-98569482D01*
X119140498Y-98689180D01*
X119199463Y-98799494D01*
X119278815Y-98896185D01*
X119375506Y-98975537D01*
X119485820Y-99034502D01*
X119605518Y-99070812D01*
X119730000Y-99083072D01*
X121430000Y-99083072D01*
X121554482Y-99070812D01*
X121674180Y-99034502D01*
X121784494Y-98975537D01*
X121881185Y-98896185D01*
X121960537Y-98799494D01*
X122019502Y-98689180D01*
X122041513Y-98616620D01*
X122173368Y-98748475D01*
X122416589Y-98910990D01*
X122686842Y-99022932D01*
X122973740Y-99080000D01*
X122998880Y-99080000D01*
X122665081Y-99413800D01*
X108929588Y-99413800D01*
X108902238Y-99386450D01*
X108950000Y-99146335D01*
X108950000Y-98863665D01*
X108894853Y-98586426D01*
X108786680Y-98325273D01*
X108629637Y-98090241D01*
X108429759Y-97890363D01*
X108194727Y-97733320D01*
X107933574Y-97625147D01*
X107656335Y-97570000D01*
X107373665Y-97570000D01*
X107096426Y-97625147D01*
X106835273Y-97733320D01*
X106600241Y-97890363D01*
X106400363Y-98090241D01*
X106243320Y-98325273D01*
X106135147Y-98586426D01*
X106080000Y-98863665D01*
X106080000Y-99146335D01*
X106135147Y-99423574D01*
X106243320Y-99684727D01*
X106400363Y-99919759D01*
X106600241Y-100119637D01*
X106832759Y-100275000D01*
X106600241Y-100430363D01*
X106400363Y-100630241D01*
X106243320Y-100865273D01*
X106135147Y-101126426D01*
X106080000Y-101403665D01*
X106080000Y-101686335D01*
X106135147Y-101963574D01*
X106243320Y-102224727D01*
X106400363Y-102459759D01*
X106600241Y-102659637D01*
X106832759Y-102815000D01*
X106600241Y-102970363D01*
X106400363Y-103170241D01*
X106243320Y-103405273D01*
X106135147Y-103666426D01*
X106080000Y-103943665D01*
X106080000Y-104226335D01*
X106135147Y-104503574D01*
X106243320Y-104764727D01*
X106400363Y-104999759D01*
X106598961Y-105198357D01*
X106590518Y-105199188D01*
X106470820Y-105235498D01*
X106360506Y-105294463D01*
X106263815Y-105373815D01*
X106184463Y-105470506D01*
X106125498Y-105580820D01*
X106089188Y-105700518D01*
X106076928Y-105825000D01*
X106076928Y-107425000D01*
X106089188Y-107549482D01*
X106125498Y-107669180D01*
X106184463Y-107779494D01*
X106263815Y-107876185D01*
X106360506Y-107955537D01*
X106470820Y-108014502D01*
X106590518Y-108050812D01*
X106715000Y-108063072D01*
X108315000Y-108063072D01*
X108439482Y-108050812D01*
X108559180Y-108014502D01*
X108669494Y-107955537D01*
X108766185Y-107876185D01*
X108845537Y-107779494D01*
X108904502Y-107669180D01*
X108921342Y-107613665D01*
X145880000Y-107613665D01*
X145880000Y-107896335D01*
X145935147Y-108173574D01*
X146043320Y-108434727D01*
X146200363Y-108669759D01*
X146400241Y-108869637D01*
X146635273Y-109026680D01*
X146896426Y-109134853D01*
X147173665Y-109190000D01*
X147456335Y-109190000D01*
X147733574Y-109134853D01*
X147994727Y-109026680D01*
X148229759Y-108869637D01*
X148429637Y-108669759D01*
X148586680Y-108434727D01*
X148694853Y-108173574D01*
X148750000Y-107896335D01*
X148750000Y-107613665D01*
X148694853Y-107336426D01*
X148586680Y-107075273D01*
X148429637Y-106840241D01*
X148229759Y-106640363D01*
X148029131Y-106506308D01*
X148056514Y-106491671D01*
X148128097Y-106247702D01*
X147315000Y-105434605D01*
X146501903Y-106247702D01*
X146573486Y-106491671D01*
X146602341Y-106505324D01*
X146400241Y-106640363D01*
X146200363Y-106840241D01*
X146043320Y-107075273D01*
X145935147Y-107336426D01*
X145880000Y-107613665D01*
X108921342Y-107613665D01*
X108940812Y-107549482D01*
X108953072Y-107425000D01*
X108953072Y-105825000D01*
X108940812Y-105700518D01*
X108904502Y-105580820D01*
X108845537Y-105470506D01*
X108766185Y-105373815D01*
X108669494Y-105294463D01*
X108559180Y-105235498D01*
X108439482Y-105199188D01*
X108431039Y-105198357D01*
X108629637Y-104999759D01*
X108786680Y-104764727D01*
X108894853Y-104503574D01*
X108950000Y-104226335D01*
X108950000Y-103943665D01*
X108920667Y-103796200D01*
X119447090Y-103796200D01*
X119375506Y-103834463D01*
X119278815Y-103913815D01*
X119199463Y-104010506D01*
X119140498Y-104120820D01*
X119104188Y-104240518D01*
X119091928Y-104365000D01*
X119091928Y-106065000D01*
X119104188Y-106189482D01*
X119140498Y-106309180D01*
X119199463Y-106419494D01*
X119278815Y-106516185D01*
X119375506Y-106595537D01*
X119485820Y-106654502D01*
X119605518Y-106690812D01*
X119730000Y-106703072D01*
X121430000Y-106703072D01*
X121554482Y-106690812D01*
X121674180Y-106654502D01*
X121784494Y-106595537D01*
X121881185Y-106516185D01*
X121960537Y-106419494D01*
X122019502Y-106309180D01*
X122041513Y-106236620D01*
X122173368Y-106368475D01*
X122416589Y-106530990D01*
X122686842Y-106642932D01*
X122973740Y-106700000D01*
X123266260Y-106700000D01*
X123553158Y-106642932D01*
X123823411Y-106530990D01*
X124066632Y-106368475D01*
X124273475Y-106161632D01*
X124390000Y-105987240D01*
X124506525Y-106161632D01*
X124713368Y-106368475D01*
X124956589Y-106530990D01*
X125226842Y-106642932D01*
X125513740Y-106700000D01*
X125806260Y-106700000D01*
X126093158Y-106642932D01*
X126363411Y-106530990D01*
X126606632Y-106368475D01*
X126813475Y-106161632D01*
X126930000Y-105987240D01*
X127046525Y-106161632D01*
X127253368Y-106368475D01*
X127496589Y-106530990D01*
X127766842Y-106642932D01*
X128053740Y-106700000D01*
X128346260Y-106700000D01*
X128633158Y-106642932D01*
X128903411Y-106530990D01*
X129146632Y-106368475D01*
X129353475Y-106161632D01*
X129470000Y-105987240D01*
X129586525Y-106161632D01*
X129793368Y-106368475D01*
X130036589Y-106530990D01*
X130306842Y-106642932D01*
X130593740Y-106700000D01*
X130886260Y-106700000D01*
X131173158Y-106642932D01*
X131443411Y-106530990D01*
X131686632Y-106368475D01*
X131893475Y-106161632D01*
X132010000Y-105987240D01*
X132126525Y-106161632D01*
X132333368Y-106368475D01*
X132576589Y-106530990D01*
X132846842Y-106642932D01*
X133133740Y-106700000D01*
X133426260Y-106700000D01*
X133713158Y-106642932D01*
X133983411Y-106530990D01*
X133987482Y-106528270D01*
X134512407Y-107053196D01*
X134534673Y-107080327D01*
X134561804Y-107102593D01*
X134561808Y-107102597D01*
X134642967Y-107169202D01*
X134766519Y-107235242D01*
X134900580Y-107275909D01*
X135005064Y-107286200D01*
X135005073Y-107286200D01*
X135039999Y-107289640D01*
X135074925Y-107286200D01*
X136965074Y-107286200D01*
X137000000Y-107289640D01*
X137034926Y-107286200D01*
X137034936Y-107286200D01*
X137139420Y-107275909D01*
X137273481Y-107235242D01*
X137397033Y-107169202D01*
X137505327Y-107080327D01*
X137527601Y-107053186D01*
X137936028Y-106644759D01*
X138213740Y-106700000D01*
X138506260Y-106700000D01*
X138793158Y-106642932D01*
X139063411Y-106530990D01*
X139306632Y-106368475D01*
X139513475Y-106161632D01*
X139630000Y-105987240D01*
X139746525Y-106161632D01*
X139953368Y-106368475D01*
X140196589Y-106530990D01*
X140466842Y-106642932D01*
X140753740Y-106700000D01*
X141046260Y-106700000D01*
X141333158Y-106642932D01*
X141603411Y-106530990D01*
X141846632Y-106368475D01*
X142053475Y-106161632D01*
X142215990Y-105918411D01*
X142327932Y-105648158D01*
X142385000Y-105361260D01*
X142385000Y-105325512D01*
X145874783Y-105325512D01*
X145916213Y-105605130D01*
X146011397Y-105871292D01*
X146078329Y-105996514D01*
X146322298Y-106068097D01*
X147135395Y-105255000D01*
X147494605Y-105255000D01*
X148307702Y-106068097D01*
X148551671Y-105996514D01*
X148672571Y-105741004D01*
X148741300Y-105466816D01*
X148755217Y-105184488D01*
X148713787Y-104904870D01*
X148618603Y-104638708D01*
X148551671Y-104513486D01*
X148307702Y-104441903D01*
X147494605Y-105255000D01*
X147135395Y-105255000D01*
X146322298Y-104441903D01*
X146078329Y-104513486D01*
X145957429Y-104768996D01*
X145888700Y-105043184D01*
X145874783Y-105325512D01*
X142385000Y-105325512D01*
X142385000Y-105068740D01*
X142329759Y-104791029D01*
X142858490Y-104262298D01*
X146501903Y-104262298D01*
X147315000Y-105075395D01*
X148128097Y-104262298D01*
X148056514Y-104018329D01*
X147801004Y-103897429D01*
X147526816Y-103828700D01*
X147244488Y-103814783D01*
X146964870Y-103856213D01*
X146698708Y-103951397D01*
X146573486Y-104018329D01*
X146501903Y-104262298D01*
X142858490Y-104262298D01*
X143243201Y-103877588D01*
X143270326Y-103855327D01*
X143292588Y-103828201D01*
X143292597Y-103828192D01*
X143359202Y-103747033D01*
X143425241Y-103623482D01*
X143425242Y-103623481D01*
X143465909Y-103489420D01*
X143476200Y-103384936D01*
X143476200Y-103384927D01*
X143479640Y-103350001D01*
X143476200Y-103315075D01*
X143476200Y-98352760D01*
X143549822Y-98476355D01*
X143744731Y-98692588D01*
X143978080Y-98866641D01*
X144240901Y-98991825D01*
X144388110Y-99036476D01*
X144618000Y-98915155D01*
X144618000Y-97722000D01*
X144598000Y-97722000D01*
X144598000Y-97468000D01*
X144618000Y-97468000D01*
X144618000Y-97448000D01*
X144872000Y-97448000D01*
X144872000Y-97468000D01*
X144892000Y-97468000D01*
X144892000Y-97722000D01*
X144872000Y-97722000D01*
X144872000Y-98915155D01*
X145101890Y-99036476D01*
X145249099Y-98991825D01*
X145511920Y-98866641D01*
X145745269Y-98692588D01*
X145940178Y-98476355D01*
X146009805Y-98359466D01*
X146131525Y-98541632D01*
X146338368Y-98748475D01*
X146581589Y-98910990D01*
X146851842Y-99022932D01*
X147138740Y-99080000D01*
X147431260Y-99080000D01*
X147718158Y-99022932D01*
X147988411Y-98910990D01*
X148231632Y-98748475D01*
X148438475Y-98541632D01*
X148600990Y-98298411D01*
X148674236Y-98121578D01*
X148678412Y-98120311D01*
X148801964Y-98054271D01*
X148910258Y-97965396D01*
X148932533Y-97938254D01*
X151193195Y-95677593D01*
X151220326Y-95655327D01*
X151242593Y-95628195D01*
X151242597Y-95628191D01*
X151309202Y-95547033D01*
X151342049Y-95485581D01*
X151375242Y-95423481D01*
X151415909Y-95289420D01*
X151426200Y-95184936D01*
X151426200Y-95184929D01*
X151429640Y-95150000D01*
X151426200Y-95115072D01*
X151426200Y-78934928D01*
X151429640Y-78900000D01*
X151426200Y-78865071D01*
X151426200Y-78865064D01*
X151415909Y-78760580D01*
X151375242Y-78626519D01*
X151309202Y-78502967D01*
X151220327Y-78394673D01*
X151193191Y-78372403D01*
X148039001Y-75218214D01*
X148016726Y-75191072D01*
X147908432Y-75102197D01*
X147784880Y-75036157D01*
X147764583Y-75030000D01*
X151755000Y-75030000D01*
X151755001Y-109790000D01*
X97955000Y-109790000D01*
X97955000Y-90938601D01*
X98151759Y-90938601D01*
X98155200Y-90973537D01*
X98155199Y-100481473D01*
X98151759Y-100516399D01*
X98155199Y-100551325D01*
X98155199Y-100551334D01*
X98165490Y-100655818D01*
X98206157Y-100789879D01*
X98272197Y-100913431D01*
X98361072Y-101021725D01*
X98388209Y-101043996D01*
X98507763Y-101163550D01*
X98460000Y-101403665D01*
X98460000Y-101686335D01*
X98515147Y-101963574D01*
X98623320Y-102224727D01*
X98780363Y-102459759D01*
X98980241Y-102659637D01*
X99212759Y-102815000D01*
X98980241Y-102970363D01*
X98780363Y-103170241D01*
X98623320Y-103405273D01*
X98515147Y-103666426D01*
X98460000Y-103943665D01*
X98460000Y-104226335D01*
X98515147Y-104503574D01*
X98623320Y-104764727D01*
X98780363Y-104999759D01*
X98980241Y-105199637D01*
X99212759Y-105355000D01*
X98980241Y-105510363D01*
X98780363Y-105710241D01*
X98623320Y-105945273D01*
X98515147Y-106206426D01*
X98460000Y-106483665D01*
X98460000Y-106766335D01*
X98515147Y-107043574D01*
X98623320Y-107304727D01*
X98780363Y-107539759D01*
X98980241Y-107739637D01*
X99215273Y-107896680D01*
X99476426Y-108004853D01*
X99753665Y-108060000D01*
X100036335Y-108060000D01*
X100313574Y-108004853D01*
X100574727Y-107896680D01*
X100809759Y-107739637D01*
X101009637Y-107539759D01*
X101166680Y-107304727D01*
X101274853Y-107043574D01*
X101330000Y-106766335D01*
X101330000Y-106483665D01*
X101274853Y-106206426D01*
X101166680Y-105945273D01*
X101009637Y-105710241D01*
X100809759Y-105510363D01*
X100577241Y-105355000D01*
X100809759Y-105199637D01*
X101009637Y-104999759D01*
X101166680Y-104764727D01*
X101274853Y-104503574D01*
X101330000Y-104226335D01*
X101330000Y-103943665D01*
X101274853Y-103666426D01*
X101166680Y-103405273D01*
X101009637Y-103170241D01*
X100809759Y-102970363D01*
X100577241Y-102815000D01*
X100809759Y-102659637D01*
X101009637Y-102459759D01*
X101166680Y-102224727D01*
X101274853Y-101963574D01*
X101330000Y-101686335D01*
X101330000Y-101403665D01*
X101274853Y-101126426D01*
X101166680Y-100865273D01*
X101009637Y-100630241D01*
X100809759Y-100430363D01*
X100577241Y-100275000D01*
X100809759Y-100119637D01*
X101009637Y-99919759D01*
X101166680Y-99684727D01*
X101274853Y-99423574D01*
X101330000Y-99146335D01*
X101330000Y-98863665D01*
X101282238Y-98623551D01*
X101401801Y-98503988D01*
X101428927Y-98481726D01*
X101451189Y-98454600D01*
X101451198Y-98454591D01*
X101517802Y-98373433D01*
X101517803Y-98373432D01*
X101583843Y-98249880D01*
X101624510Y-98115819D01*
X101634801Y-98011335D01*
X101634801Y-98011318D01*
X101638240Y-97976400D01*
X101634801Y-97941482D01*
X101634801Y-88433518D01*
X101638240Y-88398600D01*
X101634801Y-88363682D01*
X101634801Y-88363665D01*
X101624510Y-88259181D01*
X101583843Y-88125120D01*
X101517803Y-88001568D01*
X101500300Y-87980241D01*
X101451198Y-87920409D01*
X101451194Y-87920405D01*
X101428928Y-87893274D01*
X101401797Y-87871008D01*
X101282238Y-87751449D01*
X101330000Y-87511335D01*
X101330000Y-87228665D01*
X101274853Y-86951426D01*
X101166680Y-86690273D01*
X101009637Y-86455241D01*
X100809759Y-86255363D01*
X100577241Y-86100000D01*
X100809759Y-85944637D01*
X101009637Y-85744759D01*
X101166680Y-85509727D01*
X101274853Y-85248574D01*
X101330000Y-84971335D01*
X101330000Y-84688665D01*
X101274853Y-84411426D01*
X101166680Y-84150273D01*
X101009637Y-83915241D01*
X100809759Y-83715363D01*
X100574727Y-83558320D01*
X100313574Y-83450147D01*
X100036335Y-83395000D01*
X99753665Y-83395000D01*
X99476426Y-83450147D01*
X99215273Y-83558320D01*
X98980241Y-83715363D01*
X98780363Y-83915241D01*
X98623320Y-84150273D01*
X98515147Y-84411426D01*
X98460000Y-84688665D01*
X98460000Y-84971335D01*
X98515147Y-85248574D01*
X98623320Y-85509727D01*
X98780363Y-85744759D01*
X98980241Y-85944637D01*
X99212759Y-86100000D01*
X98980241Y-86255363D01*
X98780363Y-86455241D01*
X98623320Y-86690273D01*
X98515147Y-86951426D01*
X98460000Y-87228665D01*
X98460000Y-87511335D01*
X98515147Y-87788574D01*
X98623320Y-88049727D01*
X98780363Y-88284759D01*
X98980241Y-88484637D01*
X99212759Y-88640000D01*
X98980241Y-88795363D01*
X98780363Y-88995241D01*
X98623320Y-89230273D01*
X98515147Y-89491426D01*
X98460000Y-89768665D01*
X98460000Y-90051335D01*
X98507763Y-90291450D01*
X98388209Y-90411004D01*
X98361073Y-90433274D01*
X98338803Y-90460410D01*
X98338802Y-90460411D01*
X98272197Y-90541569D01*
X98237866Y-90605798D01*
X98206158Y-90665120D01*
X98169813Y-90784935D01*
X98165491Y-90799182D01*
X98151759Y-90938601D01*
X97955000Y-90938601D01*
X97955000Y-75030000D01*
X104080417Y-75030000D01*
X104060120Y-75036157D01*
G37*
G04 #@! TD.AperFunction*
M02*
