G04 #@! TF.GenerationSoftware,KiCad,Pcbnew,(5.1.9)-1*
G04 #@! TF.CreationDate,2023-05-10T20:53:47+01:00*
G04 #@! TF.ProjectId,Memory Decoder,4d656d6f-7279-4204-9465-636f6465722e,Rev001*
G04 #@! TF.SameCoordinates,Original*
G04 #@! TF.FileFunction,Legend,Bot*
G04 #@! TF.FilePolarity,Positive*
%FSLAX46Y46*%
G04 Gerber Fmt 4.6, Leading zero omitted, Abs format (unit mm)*
G04 Created by KiCad (PCBNEW (5.1.9)-1) date 2023-05-10 20:53:47*
%MOMM*%
%LPD*%
G01*
G04 APERTURE LIST*
%ADD10C,0.150000*%
%ADD11C,0.010000*%
%ADD12C,0.120000*%
%ADD13C,1.702000*%
%ADD14O,1.802000X1.802000*%
%ADD15O,1.702000X1.702000*%
G04 APERTURE END LIST*
D10*
X149329404Y-76702380D02*
X149329404Y-75702380D01*
X149091309Y-75702380D01*
X148948452Y-75750000D01*
X148853214Y-75845238D01*
X148805595Y-75940476D01*
X148757976Y-76130952D01*
X148757976Y-76273809D01*
X148805595Y-76464285D01*
X148853214Y-76559523D01*
X148948452Y-76654761D01*
X149091309Y-76702380D01*
X149329404Y-76702380D01*
X148329404Y-76178571D02*
X147996071Y-76178571D01*
X147853214Y-76702380D02*
X148329404Y-76702380D01*
X148329404Y-75702380D01*
X147853214Y-75702380D01*
X146853214Y-76607142D02*
X146900833Y-76654761D01*
X147043690Y-76702380D01*
X147138928Y-76702380D01*
X147281785Y-76654761D01*
X147377023Y-76559523D01*
X147424642Y-76464285D01*
X147472261Y-76273809D01*
X147472261Y-76130952D01*
X147424642Y-75940476D01*
X147377023Y-75845238D01*
X147281785Y-75750000D01*
X147138928Y-75702380D01*
X147043690Y-75702380D01*
X146900833Y-75750000D01*
X146853214Y-75797619D01*
X146424642Y-76321428D02*
X145662738Y-76321428D01*
X144662738Y-76702380D02*
X145234166Y-76702380D01*
X144948452Y-76702380D02*
X144948452Y-75702380D01*
X145043690Y-75845238D01*
X145138928Y-75940476D01*
X145234166Y-75988095D01*
X143043690Y-76702380D02*
X143043690Y-75702380D01*
X143043690Y-76654761D02*
X143138928Y-76702380D01*
X143329404Y-76702380D01*
X143424642Y-76654761D01*
X143472261Y-76607142D01*
X143519880Y-76511904D01*
X143519880Y-76226190D01*
X143472261Y-76130952D01*
X143424642Y-76083333D01*
X143329404Y-76035714D01*
X143138928Y-76035714D01*
X143043690Y-76083333D01*
X142186547Y-76654761D02*
X142281785Y-76702380D01*
X142472261Y-76702380D01*
X142567500Y-76654761D01*
X142615119Y-76559523D01*
X142615119Y-76178571D01*
X142567500Y-76083333D01*
X142472261Y-76035714D01*
X142281785Y-76035714D01*
X142186547Y-76083333D01*
X142138928Y-76178571D01*
X142138928Y-76273809D01*
X142615119Y-76369047D01*
X141757976Y-76654761D02*
X141662738Y-76702380D01*
X141472261Y-76702380D01*
X141377023Y-76654761D01*
X141329404Y-76559523D01*
X141329404Y-76511904D01*
X141377023Y-76416666D01*
X141472261Y-76369047D01*
X141615119Y-76369047D01*
X141710357Y-76321428D01*
X141757976Y-76226190D01*
X141757976Y-76178571D01*
X141710357Y-76083333D01*
X141615119Y-76035714D01*
X141472261Y-76035714D01*
X141377023Y-76083333D01*
X140900833Y-76702380D02*
X140900833Y-76035714D01*
X140900833Y-75702380D02*
X140948452Y-75750000D01*
X140900833Y-75797619D01*
X140853214Y-75750000D01*
X140900833Y-75702380D01*
X140900833Y-75797619D01*
X139996071Y-76035714D02*
X139996071Y-76845238D01*
X140043690Y-76940476D01*
X140091309Y-76988095D01*
X140186547Y-77035714D01*
X140329404Y-77035714D01*
X140424642Y-76988095D01*
X139996071Y-76654761D02*
X140091309Y-76702380D01*
X140281785Y-76702380D01*
X140377023Y-76654761D01*
X140424642Y-76607142D01*
X140472261Y-76511904D01*
X140472261Y-76226190D01*
X140424642Y-76130952D01*
X140377023Y-76083333D01*
X140281785Y-76035714D01*
X140091309Y-76035714D01*
X139996071Y-76083333D01*
X139519880Y-76035714D02*
X139519880Y-76702380D01*
X139519880Y-76130952D02*
X139472261Y-76083333D01*
X139377023Y-76035714D01*
X139234166Y-76035714D01*
X139138928Y-76083333D01*
X139091309Y-76178571D01*
X139091309Y-76702380D01*
X149329404Y-78352380D02*
X149329404Y-77352380D01*
X149329404Y-77733333D02*
X149234166Y-77685714D01*
X149043690Y-77685714D01*
X148948452Y-77733333D01*
X148900833Y-77780952D01*
X148853214Y-77876190D01*
X148853214Y-78161904D01*
X148900833Y-78257142D01*
X148948452Y-78304761D01*
X149043690Y-78352380D01*
X149234166Y-78352380D01*
X149329404Y-78304761D01*
X148519880Y-77685714D02*
X148281785Y-78352380D01*
X148043690Y-77685714D02*
X148281785Y-78352380D01*
X148377023Y-78590476D01*
X148424642Y-78638095D01*
X148519880Y-78685714D01*
X146900833Y-78352380D02*
X146900833Y-77352380D01*
X146662738Y-77352380D01*
X146519880Y-77400000D01*
X146424642Y-77495238D01*
X146377023Y-77590476D01*
X146329404Y-77780952D01*
X146329404Y-77923809D01*
X146377023Y-78114285D01*
X146424642Y-78209523D01*
X146519880Y-78304761D01*
X146662738Y-78352380D01*
X146900833Y-78352380D01*
X145472261Y-78352380D02*
X145472261Y-77828571D01*
X145519880Y-77733333D01*
X145615119Y-77685714D01*
X145805595Y-77685714D01*
X145900833Y-77733333D01*
X145472261Y-78304761D02*
X145567500Y-78352380D01*
X145805595Y-78352380D01*
X145900833Y-78304761D01*
X145948452Y-78209523D01*
X145948452Y-78114285D01*
X145900833Y-78019047D01*
X145805595Y-77971428D01*
X145567500Y-77971428D01*
X145472261Y-77923809D01*
X144996071Y-78352380D02*
X144996071Y-77685714D01*
X144996071Y-77876190D02*
X144948452Y-77780952D01*
X144900833Y-77733333D01*
X144805595Y-77685714D01*
X144710357Y-77685714D01*
X144472261Y-77685714D02*
X144234166Y-78352380D01*
X143996071Y-77685714D02*
X144234166Y-78352380D01*
X144329404Y-78590476D01*
X144377023Y-78638095D01*
X144472261Y-78685714D01*
X143472261Y-78352380D02*
X143567500Y-78304761D01*
X143615119Y-78209523D01*
X143615119Y-77352380D01*
X141757976Y-78352380D02*
X142091309Y-77876190D01*
X142329404Y-78352380D02*
X142329404Y-77352380D01*
X141948452Y-77352380D01*
X141853214Y-77400000D01*
X141805595Y-77447619D01*
X141757976Y-77542857D01*
X141757976Y-77685714D01*
X141805595Y-77780952D01*
X141853214Y-77828571D01*
X141948452Y-77876190D01*
X142329404Y-77876190D01*
X141329404Y-78352380D02*
X141329404Y-77685714D01*
X141329404Y-77352380D02*
X141377023Y-77400000D01*
X141329404Y-77447619D01*
X141281785Y-77400000D01*
X141329404Y-77352380D01*
X141329404Y-77447619D01*
X140424642Y-78304761D02*
X140519880Y-78352380D01*
X140710357Y-78352380D01*
X140805595Y-78304761D01*
X140853214Y-78257142D01*
X140900833Y-78161904D01*
X140900833Y-77876190D01*
X140853214Y-77780952D01*
X140805595Y-77733333D01*
X140710357Y-77685714D01*
X140519880Y-77685714D01*
X140424642Y-77733333D01*
X140138928Y-77685714D02*
X139757976Y-77685714D01*
X139996071Y-77352380D02*
X139996071Y-78209523D01*
X139948452Y-78304761D01*
X139853214Y-78352380D01*
X139757976Y-78352380D01*
X139281785Y-78352380D02*
X139377023Y-78304761D01*
X139424642Y-78257142D01*
X139472261Y-78161904D01*
X139472261Y-77876190D01*
X139424642Y-77780952D01*
X139377023Y-77733333D01*
X139281785Y-77685714D01*
X139138928Y-77685714D01*
X139043690Y-77733333D01*
X138996071Y-77780952D01*
X138948452Y-77876190D01*
X138948452Y-78161904D01*
X138996071Y-78257142D01*
X139043690Y-78304761D01*
X139138928Y-78352380D01*
X139281785Y-78352380D01*
X138519880Y-78352380D02*
X138519880Y-77685714D01*
X138519880Y-77876190D02*
X138472261Y-77780952D01*
X138424642Y-77733333D01*
X138329404Y-77685714D01*
X138234166Y-77685714D01*
X147379404Y-102802380D02*
X147379404Y-101802380D01*
X146950833Y-102802380D02*
X146950833Y-102278571D01*
X146998452Y-102183333D01*
X147093690Y-102135714D01*
X147236547Y-102135714D01*
X147331785Y-102183333D01*
X147379404Y-102230952D01*
X146617500Y-102135714D02*
X146236547Y-102135714D01*
X146474642Y-101802380D02*
X146474642Y-102659523D01*
X146427023Y-102754761D01*
X146331785Y-102802380D01*
X146236547Y-102802380D01*
X146046071Y-102135714D02*
X145665119Y-102135714D01*
X145903214Y-101802380D02*
X145903214Y-102659523D01*
X145855595Y-102754761D01*
X145760357Y-102802380D01*
X145665119Y-102802380D01*
X145331785Y-102135714D02*
X145331785Y-103135714D01*
X145331785Y-102183333D02*
X145236547Y-102135714D01*
X145046071Y-102135714D01*
X144950833Y-102183333D01*
X144903214Y-102230952D01*
X144855595Y-102326190D01*
X144855595Y-102611904D01*
X144903214Y-102707142D01*
X144950833Y-102754761D01*
X145046071Y-102802380D01*
X145236547Y-102802380D01*
X145331785Y-102754761D01*
X144474642Y-102754761D02*
X144379404Y-102802380D01*
X144188928Y-102802380D01*
X144093690Y-102754761D01*
X144046071Y-102659523D01*
X144046071Y-102611904D01*
X144093690Y-102516666D01*
X144188928Y-102469047D01*
X144331785Y-102469047D01*
X144427023Y-102421428D01*
X144474642Y-102326190D01*
X144474642Y-102278571D01*
X144427023Y-102183333D01*
X144331785Y-102135714D01*
X144188928Y-102135714D01*
X144093690Y-102183333D01*
X143617500Y-102707142D02*
X143569880Y-102754761D01*
X143617500Y-102802380D01*
X143665119Y-102754761D01*
X143617500Y-102707142D01*
X143617500Y-102802380D01*
X143617500Y-102183333D02*
X143569880Y-102230952D01*
X143617500Y-102278571D01*
X143665119Y-102230952D01*
X143617500Y-102183333D01*
X143617500Y-102278571D01*
X142427023Y-101754761D02*
X143284166Y-103040476D01*
X141379404Y-101754761D02*
X142236547Y-103040476D01*
X140617500Y-102135714D02*
X140617500Y-102945238D01*
X140665119Y-103040476D01*
X140712738Y-103088095D01*
X140807976Y-103135714D01*
X140950833Y-103135714D01*
X141046071Y-103088095D01*
X140617500Y-102754761D02*
X140712738Y-102802380D01*
X140903214Y-102802380D01*
X140998452Y-102754761D01*
X141046071Y-102707142D01*
X141093690Y-102611904D01*
X141093690Y-102326190D01*
X141046071Y-102230952D01*
X140998452Y-102183333D01*
X140903214Y-102135714D01*
X140712738Y-102135714D01*
X140617500Y-102183333D01*
X140141309Y-102802380D02*
X140141309Y-102135714D01*
X140141309Y-101802380D02*
X140188928Y-101850000D01*
X140141309Y-101897619D01*
X140093690Y-101850000D01*
X140141309Y-101802380D01*
X140141309Y-101897619D01*
X139807976Y-102135714D02*
X139427023Y-102135714D01*
X139665119Y-101802380D02*
X139665119Y-102659523D01*
X139617500Y-102754761D01*
X139522261Y-102802380D01*
X139427023Y-102802380D01*
X139093690Y-102802380D02*
X139093690Y-101802380D01*
X138665119Y-102802380D02*
X138665119Y-102278571D01*
X138712738Y-102183333D01*
X138807976Y-102135714D01*
X138950833Y-102135714D01*
X139046071Y-102183333D01*
X139093690Y-102230952D01*
X137760357Y-102135714D02*
X137760357Y-102802380D01*
X138188928Y-102135714D02*
X138188928Y-102659523D01*
X138141309Y-102754761D01*
X138046071Y-102802380D01*
X137903214Y-102802380D01*
X137807976Y-102754761D01*
X137760357Y-102707142D01*
X137284166Y-102802380D02*
X137284166Y-101802380D01*
X137284166Y-102183333D02*
X137188928Y-102135714D01*
X136998452Y-102135714D01*
X136903214Y-102183333D01*
X136855595Y-102230952D01*
X136807976Y-102326190D01*
X136807976Y-102611904D01*
X136855595Y-102707142D01*
X136903214Y-102754761D01*
X136998452Y-102802380D01*
X137188928Y-102802380D01*
X137284166Y-102754761D01*
X136379404Y-102707142D02*
X136331785Y-102754761D01*
X136379404Y-102802380D01*
X136427023Y-102754761D01*
X136379404Y-102707142D01*
X136379404Y-102802380D01*
X135474642Y-102754761D02*
X135569880Y-102802380D01*
X135760357Y-102802380D01*
X135855595Y-102754761D01*
X135903214Y-102707142D01*
X135950833Y-102611904D01*
X135950833Y-102326190D01*
X135903214Y-102230952D01*
X135855595Y-102183333D01*
X135760357Y-102135714D01*
X135569880Y-102135714D01*
X135474642Y-102183333D01*
X134903214Y-102802380D02*
X134998452Y-102754761D01*
X135046071Y-102707142D01*
X135093690Y-102611904D01*
X135093690Y-102326190D01*
X135046071Y-102230952D01*
X134998452Y-102183333D01*
X134903214Y-102135714D01*
X134760357Y-102135714D01*
X134665119Y-102183333D01*
X134617500Y-102230952D01*
X134569880Y-102326190D01*
X134569880Y-102611904D01*
X134617500Y-102707142D01*
X134665119Y-102754761D01*
X134760357Y-102802380D01*
X134903214Y-102802380D01*
X134141309Y-102802380D02*
X134141309Y-102135714D01*
X134141309Y-102230952D02*
X134093690Y-102183333D01*
X133998452Y-102135714D01*
X133855595Y-102135714D01*
X133760357Y-102183333D01*
X133712738Y-102278571D01*
X133712738Y-102802380D01*
X133712738Y-102278571D02*
X133665119Y-102183333D01*
X133569880Y-102135714D01*
X133427023Y-102135714D01*
X133331785Y-102183333D01*
X133284166Y-102278571D01*
X133284166Y-102802380D01*
X132093690Y-101754761D02*
X132950833Y-103040476D01*
X131760357Y-102802380D02*
X131760357Y-101802380D01*
X131665119Y-102421428D02*
X131379404Y-102802380D01*
X131379404Y-102135714D02*
X131760357Y-102516666D01*
X130522261Y-102802380D02*
X130522261Y-102278571D01*
X130569880Y-102183333D01*
X130665119Y-102135714D01*
X130855595Y-102135714D01*
X130950833Y-102183333D01*
X130522261Y-102754761D02*
X130617500Y-102802380D01*
X130855595Y-102802380D01*
X130950833Y-102754761D01*
X130998452Y-102659523D01*
X130998452Y-102564285D01*
X130950833Y-102469047D01*
X130855595Y-102421428D01*
X130617500Y-102421428D01*
X130522261Y-102373809D01*
X130141309Y-102135714D02*
X129903214Y-102802380D01*
X129665119Y-102135714D02*
X129903214Y-102802380D01*
X129998452Y-103040476D01*
X130046071Y-103088095D01*
X130141309Y-103135714D01*
X129427023Y-102135714D02*
X129046071Y-102135714D01*
X129284166Y-101802380D02*
X129284166Y-102659523D01*
X129236547Y-102754761D01*
X129141309Y-102802380D01*
X129046071Y-102802380D01*
X128569880Y-102802380D02*
X128665119Y-102754761D01*
X128712738Y-102707142D01*
X128760357Y-102611904D01*
X128760357Y-102326190D01*
X128712738Y-102230952D01*
X128665119Y-102183333D01*
X128569880Y-102135714D01*
X128427023Y-102135714D01*
X128331785Y-102183333D01*
X128284166Y-102230952D01*
X128236547Y-102326190D01*
X128236547Y-102611904D01*
X128284166Y-102707142D01*
X128331785Y-102754761D01*
X128427023Y-102802380D01*
X128569880Y-102802380D01*
X127093690Y-101754761D02*
X127950833Y-103040476D01*
X147379404Y-101227380D02*
X147379404Y-100227380D01*
X146998452Y-100227380D01*
X146903214Y-100275000D01*
X146855595Y-100322619D01*
X146807976Y-100417857D01*
X146807976Y-100560714D01*
X146855595Y-100655952D01*
X146903214Y-100703571D01*
X146998452Y-100751190D01*
X147379404Y-100751190D01*
X145807976Y-101132142D02*
X145855595Y-101179761D01*
X145998452Y-101227380D01*
X146093690Y-101227380D01*
X146236547Y-101179761D01*
X146331785Y-101084523D01*
X146379404Y-100989285D01*
X146427023Y-100798809D01*
X146427023Y-100655952D01*
X146379404Y-100465476D01*
X146331785Y-100370238D01*
X146236547Y-100275000D01*
X146093690Y-100227380D01*
X145998452Y-100227380D01*
X145855595Y-100275000D01*
X145807976Y-100322619D01*
X145046071Y-100703571D02*
X144903214Y-100751190D01*
X144855595Y-100798809D01*
X144807976Y-100894047D01*
X144807976Y-101036904D01*
X144855595Y-101132142D01*
X144903214Y-101179761D01*
X144998452Y-101227380D01*
X145379404Y-101227380D01*
X145379404Y-100227380D01*
X145046071Y-100227380D01*
X144950833Y-100275000D01*
X144903214Y-100322619D01*
X144855595Y-100417857D01*
X144855595Y-100513095D01*
X144903214Y-100608333D01*
X144950833Y-100655952D01*
X145046071Y-100703571D01*
X145379404Y-100703571D01*
X143617500Y-101227380D02*
X143617500Y-100227380D01*
X143617500Y-100608333D02*
X143522261Y-100560714D01*
X143331785Y-100560714D01*
X143236547Y-100608333D01*
X143188928Y-100655952D01*
X143141309Y-100751190D01*
X143141309Y-101036904D01*
X143188928Y-101132142D01*
X143236547Y-101179761D01*
X143331785Y-101227380D01*
X143522261Y-101227380D01*
X143617500Y-101179761D01*
X142807976Y-100560714D02*
X142569880Y-101227380D01*
X142331785Y-100560714D02*
X142569880Y-101227380D01*
X142665119Y-101465476D01*
X142712738Y-101513095D01*
X142807976Y-101560714D01*
X141236547Y-100941666D02*
X140760357Y-100941666D01*
X141331785Y-101227380D02*
X140998452Y-100227380D01*
X140665119Y-101227380D01*
X139903214Y-101227380D02*
X139903214Y-100227380D01*
X139903214Y-101179761D02*
X139998452Y-101227380D01*
X140188928Y-101227380D01*
X140284166Y-101179761D01*
X140331785Y-101132142D01*
X140379404Y-101036904D01*
X140379404Y-100751190D01*
X140331785Y-100655952D01*
X140284166Y-100608333D01*
X140188928Y-100560714D01*
X139998452Y-100560714D01*
X139903214Y-100608333D01*
X138998452Y-101227380D02*
X138998452Y-100703571D01*
X139046071Y-100608333D01*
X139141309Y-100560714D01*
X139331785Y-100560714D01*
X139427023Y-100608333D01*
X138998452Y-101179761D02*
X139093690Y-101227380D01*
X139331785Y-101227380D01*
X139427023Y-101179761D01*
X139474642Y-101084523D01*
X139474642Y-100989285D01*
X139427023Y-100894047D01*
X139331785Y-100846428D01*
X139093690Y-100846428D01*
X138998452Y-100798809D01*
X138522261Y-101227380D02*
X138522261Y-100560714D01*
X138522261Y-100655952D02*
X138474642Y-100608333D01*
X138379404Y-100560714D01*
X138236547Y-100560714D01*
X138141309Y-100608333D01*
X138093690Y-100703571D01*
X138093690Y-101227380D01*
X138093690Y-100703571D02*
X138046071Y-100608333D01*
X137950833Y-100560714D01*
X137807976Y-100560714D01*
X137712738Y-100608333D01*
X137665119Y-100703571D01*
X137665119Y-101227380D01*
X137331785Y-100227380D02*
X136760357Y-100227380D01*
X137046071Y-101227380D02*
X137046071Y-100227380D01*
X135903214Y-101227380D02*
X136474642Y-101227380D01*
X136188928Y-101227380D02*
X136188928Y-100227380D01*
X136284166Y-100370238D01*
X136379404Y-100465476D01*
X136474642Y-100513095D01*
X134950833Y-101227380D02*
X135522261Y-101227380D01*
X135236547Y-101227380D02*
X135236547Y-100227380D01*
X135331785Y-100370238D01*
X135427023Y-100465476D01*
X135522261Y-100513095D01*
X134617500Y-100227380D02*
X133950833Y-100227380D01*
X134379404Y-101227380D01*
X142821071Y-108503571D02*
X142678214Y-108551190D01*
X142630595Y-108598809D01*
X142582976Y-108694047D01*
X142582976Y-108836904D01*
X142630595Y-108932142D01*
X142678214Y-108979761D01*
X142773452Y-109027380D01*
X143154404Y-109027380D01*
X143154404Y-108027380D01*
X142821071Y-108027380D01*
X142725833Y-108075000D01*
X142678214Y-108122619D01*
X142630595Y-108217857D01*
X142630595Y-108313095D01*
X142678214Y-108408333D01*
X142725833Y-108455952D01*
X142821071Y-108503571D01*
X143154404Y-108503571D01*
X142011547Y-109027380D02*
X142106785Y-108979761D01*
X142154404Y-108932142D01*
X142202023Y-108836904D01*
X142202023Y-108551190D01*
X142154404Y-108455952D01*
X142106785Y-108408333D01*
X142011547Y-108360714D01*
X141868690Y-108360714D01*
X141773452Y-108408333D01*
X141725833Y-108455952D01*
X141678214Y-108551190D01*
X141678214Y-108836904D01*
X141725833Y-108932142D01*
X141773452Y-108979761D01*
X141868690Y-109027380D01*
X142011547Y-109027380D01*
X140821071Y-109027380D02*
X140821071Y-108503571D01*
X140868690Y-108408333D01*
X140963928Y-108360714D01*
X141154404Y-108360714D01*
X141249642Y-108408333D01*
X140821071Y-108979761D02*
X140916309Y-109027380D01*
X141154404Y-109027380D01*
X141249642Y-108979761D01*
X141297261Y-108884523D01*
X141297261Y-108789285D01*
X141249642Y-108694047D01*
X141154404Y-108646428D01*
X140916309Y-108646428D01*
X140821071Y-108598809D01*
X140344880Y-109027380D02*
X140344880Y-108360714D01*
X140344880Y-108551190D02*
X140297261Y-108455952D01*
X140249642Y-108408333D01*
X140154404Y-108360714D01*
X140059166Y-108360714D01*
X139297261Y-109027380D02*
X139297261Y-108027380D01*
X139297261Y-108979761D02*
X139392500Y-109027380D01*
X139582976Y-109027380D01*
X139678214Y-108979761D01*
X139725833Y-108932142D01*
X139773452Y-108836904D01*
X139773452Y-108551190D01*
X139725833Y-108455952D01*
X139678214Y-108408333D01*
X139582976Y-108360714D01*
X139392500Y-108360714D01*
X139297261Y-108408333D01*
X138059166Y-109027380D02*
X138059166Y-108360714D01*
X138059166Y-108551190D02*
X138011547Y-108455952D01*
X137963928Y-108408333D01*
X137868690Y-108360714D01*
X137773452Y-108360714D01*
X137059166Y-108979761D02*
X137154404Y-109027380D01*
X137344880Y-109027380D01*
X137440119Y-108979761D01*
X137487738Y-108884523D01*
X137487738Y-108503571D01*
X137440119Y-108408333D01*
X137344880Y-108360714D01*
X137154404Y-108360714D01*
X137059166Y-108408333D01*
X137011547Y-108503571D01*
X137011547Y-108598809D01*
X137487738Y-108694047D01*
X136678214Y-108360714D02*
X136440119Y-109027380D01*
X136202023Y-108360714D01*
X135821071Y-109027380D02*
X135821071Y-108360714D01*
X135821071Y-108027380D02*
X135868690Y-108075000D01*
X135821071Y-108122619D01*
X135773452Y-108075000D01*
X135821071Y-108027380D01*
X135821071Y-108122619D01*
X135392500Y-108979761D02*
X135297261Y-109027380D01*
X135106785Y-109027380D01*
X135011547Y-108979761D01*
X134963928Y-108884523D01*
X134963928Y-108836904D01*
X135011547Y-108741666D01*
X135106785Y-108694047D01*
X135249642Y-108694047D01*
X135344880Y-108646428D01*
X135392500Y-108551190D01*
X135392500Y-108503571D01*
X135344880Y-108408333D01*
X135249642Y-108360714D01*
X135106785Y-108360714D01*
X135011547Y-108408333D01*
X134535357Y-109027380D02*
X134535357Y-108360714D01*
X134535357Y-108027380D02*
X134582976Y-108075000D01*
X134535357Y-108122619D01*
X134487738Y-108075000D01*
X134535357Y-108027380D01*
X134535357Y-108122619D01*
X133916309Y-109027380D02*
X134011547Y-108979761D01*
X134059166Y-108932142D01*
X134106785Y-108836904D01*
X134106785Y-108551190D01*
X134059166Y-108455952D01*
X134011547Y-108408333D01*
X133916309Y-108360714D01*
X133773452Y-108360714D01*
X133678214Y-108408333D01*
X133630595Y-108455952D01*
X133582976Y-108551190D01*
X133582976Y-108836904D01*
X133630595Y-108932142D01*
X133678214Y-108979761D01*
X133773452Y-109027380D01*
X133916309Y-109027380D01*
X133154404Y-108360714D02*
X133154404Y-109027380D01*
X133154404Y-108455952D02*
X133106785Y-108408333D01*
X133011547Y-108360714D01*
X132868690Y-108360714D01*
X132773452Y-108408333D01*
X132725833Y-108503571D01*
X132725833Y-109027380D01*
X132249642Y-108932142D02*
X132202023Y-108979761D01*
X132249642Y-109027380D01*
X132297261Y-108979761D01*
X132249642Y-108932142D01*
X132249642Y-109027380D01*
X132249642Y-108408333D02*
X132202023Y-108455952D01*
X132249642Y-108503571D01*
X132297261Y-108455952D01*
X132249642Y-108408333D01*
X132249642Y-108503571D01*
X131106785Y-108360714D02*
X130868690Y-109027380D01*
X130630595Y-108360714D01*
X130059166Y-108027380D02*
X129963928Y-108027380D01*
X129868690Y-108075000D01*
X129821071Y-108122619D01*
X129773452Y-108217857D01*
X129725833Y-108408333D01*
X129725833Y-108646428D01*
X129773452Y-108836904D01*
X129821071Y-108932142D01*
X129868690Y-108979761D01*
X129963928Y-109027380D01*
X130059166Y-109027380D01*
X130154404Y-108979761D01*
X130202023Y-108932142D01*
X130249642Y-108836904D01*
X130297261Y-108646428D01*
X130297261Y-108408333D01*
X130249642Y-108217857D01*
X130202023Y-108122619D01*
X130154404Y-108075000D01*
X130059166Y-108027380D01*
X129106785Y-108027380D02*
X129011547Y-108027380D01*
X128916309Y-108075000D01*
X128868690Y-108122619D01*
X128821071Y-108217857D01*
X128773452Y-108408333D01*
X128773452Y-108646428D01*
X128821071Y-108836904D01*
X128868690Y-108932142D01*
X128916309Y-108979761D01*
X129011547Y-109027380D01*
X129106785Y-109027380D01*
X129202023Y-108979761D01*
X129249642Y-108932142D01*
X129297261Y-108836904D01*
X129344880Y-108646428D01*
X129344880Y-108408333D01*
X129297261Y-108217857D01*
X129249642Y-108122619D01*
X129202023Y-108075000D01*
X129106785Y-108027380D01*
X127821071Y-109027380D02*
X128392500Y-109027380D01*
X128106785Y-109027380D02*
X128106785Y-108027380D01*
X128202023Y-108170238D01*
X128297261Y-108265476D01*
X128392500Y-108313095D01*
D11*
G36*
X116090256Y-84794918D02*
G01*
X116034799Y-84822568D01*
X115985852Y-84873480D01*
X115972371Y-84892338D01*
X115957686Y-84917015D01*
X115948158Y-84943816D01*
X115942707Y-84979587D01*
X115940253Y-85031169D01*
X115939714Y-85099267D01*
X115942148Y-85192588D01*
X115950606Y-85262657D01*
X115966826Y-85314931D01*
X115992546Y-85354869D01*
X116029503Y-85387929D01*
X116032218Y-85389886D01*
X116068640Y-85409908D01*
X116112498Y-85419815D01*
X116168276Y-85422257D01*
X116258952Y-85422257D01*
X116258990Y-85510283D01*
X116259834Y-85559308D01*
X116264976Y-85588065D01*
X116278413Y-85605311D01*
X116304142Y-85619808D01*
X116310321Y-85622769D01*
X116339236Y-85636648D01*
X116361624Y-85645414D01*
X116378271Y-85646171D01*
X116389964Y-85636023D01*
X116397490Y-85612073D01*
X116401634Y-85571426D01*
X116403185Y-85511186D01*
X116402929Y-85428455D01*
X116401651Y-85320339D01*
X116401252Y-85288000D01*
X116399815Y-85176524D01*
X116398528Y-85103603D01*
X116259029Y-85103603D01*
X116258245Y-85165499D01*
X116254760Y-85205997D01*
X116246876Y-85232708D01*
X116232895Y-85253244D01*
X116223403Y-85263260D01*
X116184596Y-85292567D01*
X116150237Y-85294952D01*
X116114784Y-85270750D01*
X116113886Y-85269857D01*
X116099461Y-85251153D01*
X116090687Y-85225732D01*
X116086261Y-85186584D01*
X116084882Y-85126697D01*
X116084857Y-85113430D01*
X116088188Y-85030901D01*
X116099031Y-84973691D01*
X116118660Y-84938766D01*
X116148350Y-84923094D01*
X116165509Y-84921514D01*
X116206234Y-84928926D01*
X116234168Y-84953330D01*
X116250983Y-84997980D01*
X116258350Y-85066130D01*
X116259029Y-85103603D01*
X116398528Y-85103603D01*
X116398292Y-85090245D01*
X116396323Y-85025333D01*
X116393550Y-84977958D01*
X116389612Y-84944290D01*
X116384151Y-84920498D01*
X116376808Y-84902753D01*
X116367223Y-84887224D01*
X116363113Y-84881381D01*
X116308595Y-84826185D01*
X116239664Y-84794890D01*
X116159928Y-84786165D01*
X116090256Y-84794918D01*
G37*
X116090256Y-84794918D02*
X116034799Y-84822568D01*
X115985852Y-84873480D01*
X115972371Y-84892338D01*
X115957686Y-84917015D01*
X115948158Y-84943816D01*
X115942707Y-84979587D01*
X115940253Y-85031169D01*
X115939714Y-85099267D01*
X115942148Y-85192588D01*
X115950606Y-85262657D01*
X115966826Y-85314931D01*
X115992546Y-85354869D01*
X116029503Y-85387929D01*
X116032218Y-85389886D01*
X116068640Y-85409908D01*
X116112498Y-85419815D01*
X116168276Y-85422257D01*
X116258952Y-85422257D01*
X116258990Y-85510283D01*
X116259834Y-85559308D01*
X116264976Y-85588065D01*
X116278413Y-85605311D01*
X116304142Y-85619808D01*
X116310321Y-85622769D01*
X116339236Y-85636648D01*
X116361624Y-85645414D01*
X116378271Y-85646171D01*
X116389964Y-85636023D01*
X116397490Y-85612073D01*
X116401634Y-85571426D01*
X116403185Y-85511186D01*
X116402929Y-85428455D01*
X116401651Y-85320339D01*
X116401252Y-85288000D01*
X116399815Y-85176524D01*
X116398528Y-85103603D01*
X116259029Y-85103603D01*
X116258245Y-85165499D01*
X116254760Y-85205997D01*
X116246876Y-85232708D01*
X116232895Y-85253244D01*
X116223403Y-85263260D01*
X116184596Y-85292567D01*
X116150237Y-85294952D01*
X116114784Y-85270750D01*
X116113886Y-85269857D01*
X116099461Y-85251153D01*
X116090687Y-85225732D01*
X116086261Y-85186584D01*
X116084882Y-85126697D01*
X116084857Y-85113430D01*
X116088188Y-85030901D01*
X116099031Y-84973691D01*
X116118660Y-84938766D01*
X116148350Y-84923094D01*
X116165509Y-84921514D01*
X116206234Y-84928926D01*
X116234168Y-84953330D01*
X116250983Y-84997980D01*
X116258350Y-85066130D01*
X116259029Y-85103603D01*
X116398528Y-85103603D01*
X116398292Y-85090245D01*
X116396323Y-85025333D01*
X116393550Y-84977958D01*
X116389612Y-84944290D01*
X116384151Y-84920498D01*
X116376808Y-84902753D01*
X116367223Y-84887224D01*
X116363113Y-84881381D01*
X116308595Y-84826185D01*
X116239664Y-84794890D01*
X116159928Y-84786165D01*
X116090256Y-84794918D01*
G36*
X114973907Y-84802780D02*
G01*
X114927328Y-84829723D01*
X114894943Y-84856466D01*
X114871258Y-84884484D01*
X114854941Y-84918748D01*
X114844661Y-84964227D01*
X114839086Y-85025892D01*
X114836884Y-85108711D01*
X114836629Y-85168246D01*
X114836629Y-85387391D01*
X114898314Y-85415044D01*
X114960000Y-85442697D01*
X114967257Y-85202670D01*
X114970256Y-85113028D01*
X114973402Y-85047962D01*
X114977299Y-85003026D01*
X114982553Y-84973770D01*
X114989769Y-84955748D01*
X114999550Y-84944511D01*
X115002688Y-84942079D01*
X115050239Y-84923083D01*
X115098303Y-84930600D01*
X115126914Y-84950543D01*
X115138553Y-84964675D01*
X115146609Y-84983220D01*
X115151729Y-85011334D01*
X115154559Y-85054173D01*
X115155744Y-85116895D01*
X115155943Y-85182261D01*
X115155982Y-85264268D01*
X115157386Y-85322316D01*
X115162086Y-85361465D01*
X115172013Y-85386780D01*
X115189097Y-85403323D01*
X115215268Y-85416156D01*
X115250225Y-85429491D01*
X115288404Y-85444007D01*
X115283859Y-85186389D01*
X115282029Y-85093519D01*
X115279888Y-85024889D01*
X115276819Y-84975711D01*
X115272206Y-84941198D01*
X115265432Y-84916562D01*
X115255881Y-84897016D01*
X115244366Y-84879770D01*
X115188810Y-84824680D01*
X115121020Y-84792822D01*
X115047287Y-84785191D01*
X114973907Y-84802780D01*
G37*
X114973907Y-84802780D02*
X114927328Y-84829723D01*
X114894943Y-84856466D01*
X114871258Y-84884484D01*
X114854941Y-84918748D01*
X114844661Y-84964227D01*
X114839086Y-85025892D01*
X114836884Y-85108711D01*
X114836629Y-85168246D01*
X114836629Y-85387391D01*
X114898314Y-85415044D01*
X114960000Y-85442697D01*
X114967257Y-85202670D01*
X114970256Y-85113028D01*
X114973402Y-85047962D01*
X114977299Y-85003026D01*
X114982553Y-84973770D01*
X114989769Y-84955748D01*
X114999550Y-84944511D01*
X115002688Y-84942079D01*
X115050239Y-84923083D01*
X115098303Y-84930600D01*
X115126914Y-84950543D01*
X115138553Y-84964675D01*
X115146609Y-84983220D01*
X115151729Y-85011334D01*
X115154559Y-85054173D01*
X115155744Y-85116895D01*
X115155943Y-85182261D01*
X115155982Y-85264268D01*
X115157386Y-85322316D01*
X115162086Y-85361465D01*
X115172013Y-85386780D01*
X115189097Y-85403323D01*
X115215268Y-85416156D01*
X115250225Y-85429491D01*
X115288404Y-85444007D01*
X115283859Y-85186389D01*
X115282029Y-85093519D01*
X115279888Y-85024889D01*
X115276819Y-84975711D01*
X115272206Y-84941198D01*
X115265432Y-84916562D01*
X115255881Y-84897016D01*
X115244366Y-84879770D01*
X115188810Y-84824680D01*
X115121020Y-84792822D01*
X115047287Y-84785191D01*
X114973907Y-84802780D01*
G36*
X116648885Y-84796962D02*
G01*
X116580855Y-84832733D01*
X116530649Y-84890301D01*
X116512815Y-84927312D01*
X116498937Y-84982882D01*
X116491833Y-85053096D01*
X116491160Y-85129727D01*
X116496573Y-85204552D01*
X116507730Y-85269342D01*
X116524286Y-85315873D01*
X116529374Y-85323887D01*
X116589645Y-85383707D01*
X116661231Y-85419535D01*
X116738908Y-85430020D01*
X116817452Y-85413810D01*
X116839311Y-85404092D01*
X116881878Y-85374143D01*
X116919237Y-85334433D01*
X116922768Y-85329397D01*
X116937119Y-85305124D01*
X116946606Y-85279178D01*
X116952210Y-85245022D01*
X116954914Y-85196119D01*
X116955701Y-85125935D01*
X116955714Y-85110200D01*
X116955678Y-85105192D01*
X116810571Y-85105192D01*
X116809727Y-85171430D01*
X116806404Y-85215386D01*
X116799417Y-85243779D01*
X116787584Y-85263325D01*
X116781543Y-85269857D01*
X116746814Y-85294680D01*
X116713097Y-85293548D01*
X116679005Y-85272016D01*
X116658671Y-85249029D01*
X116646629Y-85215478D01*
X116639866Y-85162569D01*
X116639402Y-85156399D01*
X116638248Y-85060513D01*
X116650312Y-84989299D01*
X116675430Y-84943194D01*
X116713440Y-84922635D01*
X116727008Y-84921514D01*
X116762636Y-84927152D01*
X116787006Y-84946686D01*
X116801907Y-84984042D01*
X116809125Y-85043150D01*
X116810571Y-85105192D01*
X116955678Y-85105192D01*
X116955174Y-85035413D01*
X116952904Y-84983159D01*
X116947932Y-84946949D01*
X116939287Y-84920299D01*
X116925995Y-84896722D01*
X116923057Y-84892338D01*
X116873687Y-84833249D01*
X116819891Y-84798947D01*
X116754398Y-84785331D01*
X116732158Y-84784665D01*
X116648885Y-84796962D01*
G37*
X116648885Y-84796962D02*
X116580855Y-84832733D01*
X116530649Y-84890301D01*
X116512815Y-84927312D01*
X116498937Y-84982882D01*
X116491833Y-85053096D01*
X116491160Y-85129727D01*
X116496573Y-85204552D01*
X116507730Y-85269342D01*
X116524286Y-85315873D01*
X116529374Y-85323887D01*
X116589645Y-85383707D01*
X116661231Y-85419535D01*
X116738908Y-85430020D01*
X116817452Y-85413810D01*
X116839311Y-85404092D01*
X116881878Y-85374143D01*
X116919237Y-85334433D01*
X116922768Y-85329397D01*
X116937119Y-85305124D01*
X116946606Y-85279178D01*
X116952210Y-85245022D01*
X116954914Y-85196119D01*
X116955701Y-85125935D01*
X116955714Y-85110200D01*
X116955678Y-85105192D01*
X116810571Y-85105192D01*
X116809727Y-85171430D01*
X116806404Y-85215386D01*
X116799417Y-85243779D01*
X116787584Y-85263325D01*
X116781543Y-85269857D01*
X116746814Y-85294680D01*
X116713097Y-85293548D01*
X116679005Y-85272016D01*
X116658671Y-85249029D01*
X116646629Y-85215478D01*
X116639866Y-85162569D01*
X116639402Y-85156399D01*
X116638248Y-85060513D01*
X116650312Y-84989299D01*
X116675430Y-84943194D01*
X116713440Y-84922635D01*
X116727008Y-84921514D01*
X116762636Y-84927152D01*
X116787006Y-84946686D01*
X116801907Y-84984042D01*
X116809125Y-85043150D01*
X116810571Y-85105192D01*
X116955678Y-85105192D01*
X116955174Y-85035413D01*
X116952904Y-84983159D01*
X116947932Y-84946949D01*
X116939287Y-84920299D01*
X116925995Y-84896722D01*
X116923057Y-84892338D01*
X116873687Y-84833249D01*
X116819891Y-84798947D01*
X116754398Y-84785331D01*
X116732158Y-84784665D01*
X116648885Y-84796962D01*
G36*
X115521697Y-84806239D02*
G01*
X115464473Y-84844735D01*
X115420251Y-84900335D01*
X115393833Y-84971086D01*
X115388490Y-85023162D01*
X115389097Y-85044893D01*
X115394178Y-85061531D01*
X115408145Y-85076437D01*
X115435411Y-85092973D01*
X115480388Y-85114498D01*
X115547489Y-85144374D01*
X115547829Y-85144524D01*
X115609593Y-85172813D01*
X115660241Y-85197933D01*
X115694596Y-85217179D01*
X115707482Y-85227848D01*
X115707486Y-85227934D01*
X115696128Y-85251166D01*
X115669569Y-85276774D01*
X115639077Y-85295221D01*
X115623630Y-85298886D01*
X115581485Y-85286212D01*
X115545192Y-85254471D01*
X115527483Y-85219572D01*
X115510448Y-85193845D01*
X115477078Y-85164546D01*
X115437851Y-85139235D01*
X115403244Y-85125471D01*
X115396007Y-85124714D01*
X115387861Y-85137160D01*
X115387370Y-85168972D01*
X115393357Y-85211866D01*
X115404643Y-85257558D01*
X115420050Y-85297761D01*
X115420829Y-85299322D01*
X115467196Y-85364062D01*
X115527289Y-85408097D01*
X115595535Y-85429711D01*
X115666362Y-85427185D01*
X115734196Y-85398804D01*
X115737212Y-85396808D01*
X115790573Y-85348448D01*
X115825660Y-85285352D01*
X115845078Y-85202387D01*
X115847684Y-85179078D01*
X115852299Y-85069055D01*
X115846767Y-85017748D01*
X115707486Y-85017748D01*
X115705676Y-85049753D01*
X115695778Y-85059093D01*
X115671102Y-85052105D01*
X115632205Y-85035587D01*
X115588725Y-85014881D01*
X115587644Y-85014333D01*
X115550791Y-84994949D01*
X115536000Y-84982013D01*
X115539647Y-84968451D01*
X115555005Y-84950632D01*
X115594077Y-84924845D01*
X115636154Y-84922950D01*
X115673897Y-84941717D01*
X115699966Y-84977915D01*
X115707486Y-85017748D01*
X115846767Y-85017748D01*
X115842806Y-84981027D01*
X115818450Y-84911212D01*
X115784544Y-84862302D01*
X115723347Y-84812878D01*
X115655937Y-84788359D01*
X115587120Y-84786797D01*
X115521697Y-84806239D01*
G37*
X115521697Y-84806239D02*
X115464473Y-84844735D01*
X115420251Y-84900335D01*
X115393833Y-84971086D01*
X115388490Y-85023162D01*
X115389097Y-85044893D01*
X115394178Y-85061531D01*
X115408145Y-85076437D01*
X115435411Y-85092973D01*
X115480388Y-85114498D01*
X115547489Y-85144374D01*
X115547829Y-85144524D01*
X115609593Y-85172813D01*
X115660241Y-85197933D01*
X115694596Y-85217179D01*
X115707482Y-85227848D01*
X115707486Y-85227934D01*
X115696128Y-85251166D01*
X115669569Y-85276774D01*
X115639077Y-85295221D01*
X115623630Y-85298886D01*
X115581485Y-85286212D01*
X115545192Y-85254471D01*
X115527483Y-85219572D01*
X115510448Y-85193845D01*
X115477078Y-85164546D01*
X115437851Y-85139235D01*
X115403244Y-85125471D01*
X115396007Y-85124714D01*
X115387861Y-85137160D01*
X115387370Y-85168972D01*
X115393357Y-85211866D01*
X115404643Y-85257558D01*
X115420050Y-85297761D01*
X115420829Y-85299322D01*
X115467196Y-85364062D01*
X115527289Y-85408097D01*
X115595535Y-85429711D01*
X115666362Y-85427185D01*
X115734196Y-85398804D01*
X115737212Y-85396808D01*
X115790573Y-85348448D01*
X115825660Y-85285352D01*
X115845078Y-85202387D01*
X115847684Y-85179078D01*
X115852299Y-85069055D01*
X115846767Y-85017748D01*
X115707486Y-85017748D01*
X115705676Y-85049753D01*
X115695778Y-85059093D01*
X115671102Y-85052105D01*
X115632205Y-85035587D01*
X115588725Y-85014881D01*
X115587644Y-85014333D01*
X115550791Y-84994949D01*
X115536000Y-84982013D01*
X115539647Y-84968451D01*
X115555005Y-84950632D01*
X115594077Y-84924845D01*
X115636154Y-84922950D01*
X115673897Y-84941717D01*
X115699966Y-84977915D01*
X115707486Y-85017748D01*
X115846767Y-85017748D01*
X115842806Y-84981027D01*
X115818450Y-84911212D01*
X115784544Y-84862302D01*
X115723347Y-84812878D01*
X115655937Y-84788359D01*
X115587120Y-84786797D01*
X115521697Y-84806239D01*
G36*
X114314114Y-84726289D02*
G01*
X114309861Y-84785613D01*
X114304975Y-84820572D01*
X114298205Y-84835820D01*
X114288298Y-84836015D01*
X114285086Y-84834195D01*
X114242356Y-84821015D01*
X114186773Y-84821785D01*
X114130263Y-84835333D01*
X114094918Y-84852861D01*
X114058679Y-84880861D01*
X114032187Y-84912549D01*
X114014001Y-84952813D01*
X114002678Y-85006543D01*
X113996778Y-85078626D01*
X113994857Y-85173951D01*
X113994823Y-85192237D01*
X113994800Y-85397646D01*
X114040509Y-85413580D01*
X114072973Y-85424420D01*
X114090785Y-85429468D01*
X114091309Y-85429514D01*
X114093063Y-85415828D01*
X114094556Y-85378076D01*
X114095674Y-85321224D01*
X114096303Y-85250234D01*
X114096400Y-85207073D01*
X114096602Y-85121973D01*
X114097642Y-85060981D01*
X114100169Y-85019177D01*
X114104836Y-84991642D01*
X114112293Y-84973456D01*
X114123189Y-84959698D01*
X114129993Y-84953073D01*
X114176728Y-84926375D01*
X114227728Y-84924375D01*
X114273999Y-84946955D01*
X114282556Y-84955107D01*
X114295107Y-84970436D01*
X114303812Y-84988618D01*
X114309369Y-85014909D01*
X114312474Y-85054562D01*
X114313824Y-85112832D01*
X114314114Y-85193173D01*
X114314114Y-85397646D01*
X114359823Y-85413580D01*
X114392287Y-85424420D01*
X114410099Y-85429468D01*
X114410623Y-85429514D01*
X114411963Y-85415623D01*
X114413172Y-85376439D01*
X114414199Y-85315700D01*
X114414998Y-85237141D01*
X114415519Y-85144498D01*
X114415714Y-85041509D01*
X114415714Y-84644342D01*
X114368543Y-84624444D01*
X114321371Y-84604547D01*
X114314114Y-84726289D01*
G37*
X114314114Y-84726289D02*
X114309861Y-84785613D01*
X114304975Y-84820572D01*
X114298205Y-84835820D01*
X114288298Y-84836015D01*
X114285086Y-84834195D01*
X114242356Y-84821015D01*
X114186773Y-84821785D01*
X114130263Y-84835333D01*
X114094918Y-84852861D01*
X114058679Y-84880861D01*
X114032187Y-84912549D01*
X114014001Y-84952813D01*
X114002678Y-85006543D01*
X113996778Y-85078626D01*
X113994857Y-85173951D01*
X113994823Y-85192237D01*
X113994800Y-85397646D01*
X114040509Y-85413580D01*
X114072973Y-85424420D01*
X114090785Y-85429468D01*
X114091309Y-85429514D01*
X114093063Y-85415828D01*
X114094556Y-85378076D01*
X114095674Y-85321224D01*
X114096303Y-85250234D01*
X114096400Y-85207073D01*
X114096602Y-85121973D01*
X114097642Y-85060981D01*
X114100169Y-85019177D01*
X114104836Y-84991642D01*
X114112293Y-84973456D01*
X114123189Y-84959698D01*
X114129993Y-84953073D01*
X114176728Y-84926375D01*
X114227728Y-84924375D01*
X114273999Y-84946955D01*
X114282556Y-84955107D01*
X114295107Y-84970436D01*
X114303812Y-84988618D01*
X114309369Y-85014909D01*
X114312474Y-85054562D01*
X114313824Y-85112832D01*
X114314114Y-85193173D01*
X114314114Y-85397646D01*
X114359823Y-85413580D01*
X114392287Y-85424420D01*
X114410099Y-85429468D01*
X114410623Y-85429514D01*
X114411963Y-85415623D01*
X114413172Y-85376439D01*
X114414199Y-85315700D01*
X114414998Y-85237141D01*
X114415519Y-85144498D01*
X114415714Y-85041509D01*
X114415714Y-84644342D01*
X114368543Y-84624444D01*
X114321371Y-84604547D01*
X114314114Y-84726289D01*
G36*
X113650256Y-84825968D02*
G01*
X113593384Y-84847087D01*
X113592733Y-84847493D01*
X113557560Y-84873380D01*
X113531593Y-84903633D01*
X113513330Y-84943058D01*
X113501268Y-84996462D01*
X113493904Y-85068651D01*
X113489736Y-85164432D01*
X113489371Y-85178078D01*
X113484124Y-85383842D01*
X113528284Y-85406678D01*
X113560237Y-85422110D01*
X113579530Y-85429423D01*
X113580422Y-85429514D01*
X113583761Y-85416022D01*
X113586413Y-85379626D01*
X113588044Y-85326452D01*
X113588400Y-85283393D01*
X113588408Y-85213641D01*
X113591597Y-85169837D01*
X113602712Y-85148944D01*
X113626499Y-85147925D01*
X113667704Y-85163741D01*
X113729914Y-85192815D01*
X113775659Y-85216963D01*
X113799187Y-85237913D01*
X113806104Y-85260747D01*
X113806114Y-85261877D01*
X113794701Y-85301212D01*
X113760908Y-85322462D01*
X113709191Y-85325539D01*
X113671939Y-85325006D01*
X113652297Y-85335735D01*
X113640048Y-85361505D01*
X113632998Y-85394337D01*
X113643158Y-85412966D01*
X113646983Y-85415632D01*
X113682999Y-85426340D01*
X113733434Y-85427856D01*
X113785374Y-85420759D01*
X113822178Y-85407788D01*
X113873062Y-85364585D01*
X113901986Y-85304446D01*
X113907714Y-85257462D01*
X113903343Y-85215082D01*
X113887525Y-85180488D01*
X113856203Y-85149763D01*
X113805322Y-85118990D01*
X113730824Y-85084252D01*
X113726286Y-85082288D01*
X113659179Y-85051287D01*
X113617768Y-85025862D01*
X113600019Y-85003014D01*
X113603893Y-84979745D01*
X113627357Y-84953056D01*
X113634373Y-84946914D01*
X113681370Y-84923100D01*
X113730067Y-84924103D01*
X113772478Y-84947451D01*
X113800616Y-84990675D01*
X113803231Y-84999160D01*
X113828692Y-85040308D01*
X113860999Y-85060128D01*
X113907714Y-85079770D01*
X113907714Y-85028950D01*
X113893504Y-84955082D01*
X113851325Y-84887327D01*
X113829376Y-84864661D01*
X113779483Y-84835569D01*
X113716033Y-84822400D01*
X113650256Y-84825968D01*
G37*
X113650256Y-84825968D02*
X113593384Y-84847087D01*
X113592733Y-84847493D01*
X113557560Y-84873380D01*
X113531593Y-84903633D01*
X113513330Y-84943058D01*
X113501268Y-84996462D01*
X113493904Y-85068651D01*
X113489736Y-85164432D01*
X113489371Y-85178078D01*
X113484124Y-85383842D01*
X113528284Y-85406678D01*
X113560237Y-85422110D01*
X113579530Y-85429423D01*
X113580422Y-85429514D01*
X113583761Y-85416022D01*
X113586413Y-85379626D01*
X113588044Y-85326452D01*
X113588400Y-85283393D01*
X113588408Y-85213641D01*
X113591597Y-85169837D01*
X113602712Y-85148944D01*
X113626499Y-85147925D01*
X113667704Y-85163741D01*
X113729914Y-85192815D01*
X113775659Y-85216963D01*
X113799187Y-85237913D01*
X113806104Y-85260747D01*
X113806114Y-85261877D01*
X113794701Y-85301212D01*
X113760908Y-85322462D01*
X113709191Y-85325539D01*
X113671939Y-85325006D01*
X113652297Y-85335735D01*
X113640048Y-85361505D01*
X113632998Y-85394337D01*
X113643158Y-85412966D01*
X113646983Y-85415632D01*
X113682999Y-85426340D01*
X113733434Y-85427856D01*
X113785374Y-85420759D01*
X113822178Y-85407788D01*
X113873062Y-85364585D01*
X113901986Y-85304446D01*
X113907714Y-85257462D01*
X113903343Y-85215082D01*
X113887525Y-85180488D01*
X113856203Y-85149763D01*
X113805322Y-85118990D01*
X113730824Y-85084252D01*
X113726286Y-85082288D01*
X113659179Y-85051287D01*
X113617768Y-85025862D01*
X113600019Y-85003014D01*
X113603893Y-84979745D01*
X113627357Y-84953056D01*
X113634373Y-84946914D01*
X113681370Y-84923100D01*
X113730067Y-84924103D01*
X113772478Y-84947451D01*
X113800616Y-84990675D01*
X113803231Y-84999160D01*
X113828692Y-85040308D01*
X113860999Y-85060128D01*
X113907714Y-85079770D01*
X113907714Y-85028950D01*
X113893504Y-84955082D01*
X113851325Y-84887327D01*
X113829376Y-84864661D01*
X113779483Y-84835569D01*
X113716033Y-84822400D01*
X113650256Y-84825968D01*
G36*
X113160074Y-84824755D02*
G01*
X113094142Y-84849084D01*
X113040727Y-84892117D01*
X113019836Y-84922409D01*
X112997061Y-84977994D01*
X112997534Y-85018186D01*
X113021438Y-85045217D01*
X113030283Y-85049813D01*
X113068470Y-85064144D01*
X113087972Y-85060472D01*
X113094578Y-85036407D01*
X113094914Y-85023114D01*
X113107008Y-84974210D01*
X113138529Y-84939999D01*
X113182341Y-84923476D01*
X113231305Y-84927634D01*
X113271106Y-84949227D01*
X113284550Y-84961544D01*
X113294079Y-84976487D01*
X113300515Y-84999075D01*
X113304683Y-85034328D01*
X113307403Y-85087266D01*
X113309498Y-85162907D01*
X113310040Y-85186857D01*
X113312019Y-85268790D01*
X113314269Y-85326455D01*
X113317643Y-85364608D01*
X113322994Y-85388004D01*
X113331176Y-85401398D01*
X113343041Y-85409545D01*
X113350638Y-85413144D01*
X113382898Y-85425452D01*
X113401889Y-85429514D01*
X113408164Y-85415948D01*
X113411994Y-85374934D01*
X113413400Y-85305999D01*
X113412402Y-85208669D01*
X113412092Y-85193657D01*
X113409899Y-85104859D01*
X113407307Y-85040019D01*
X113403618Y-84994067D01*
X113398136Y-84961935D01*
X113390165Y-84938553D01*
X113379007Y-84918852D01*
X113373170Y-84910410D01*
X113339704Y-84873057D01*
X113302273Y-84844003D01*
X113297691Y-84841467D01*
X113230574Y-84821443D01*
X113160074Y-84824755D01*
G37*
X113160074Y-84824755D02*
X113094142Y-84849084D01*
X113040727Y-84892117D01*
X113019836Y-84922409D01*
X112997061Y-84977994D01*
X112997534Y-85018186D01*
X113021438Y-85045217D01*
X113030283Y-85049813D01*
X113068470Y-85064144D01*
X113087972Y-85060472D01*
X113094578Y-85036407D01*
X113094914Y-85023114D01*
X113107008Y-84974210D01*
X113138529Y-84939999D01*
X113182341Y-84923476D01*
X113231305Y-84927634D01*
X113271106Y-84949227D01*
X113284550Y-84961544D01*
X113294079Y-84976487D01*
X113300515Y-84999075D01*
X113304683Y-85034328D01*
X113307403Y-85087266D01*
X113309498Y-85162907D01*
X113310040Y-85186857D01*
X113312019Y-85268790D01*
X113314269Y-85326455D01*
X113317643Y-85364608D01*
X113322994Y-85388004D01*
X113331176Y-85401398D01*
X113343041Y-85409545D01*
X113350638Y-85413144D01*
X113382898Y-85425452D01*
X113401889Y-85429514D01*
X113408164Y-85415948D01*
X113411994Y-85374934D01*
X113413400Y-85305999D01*
X113412402Y-85208669D01*
X113412092Y-85193657D01*
X113409899Y-85104859D01*
X113407307Y-85040019D01*
X113403618Y-84994067D01*
X113398136Y-84961935D01*
X113390165Y-84938553D01*
X113379007Y-84918852D01*
X113373170Y-84910410D01*
X113339704Y-84873057D01*
X113302273Y-84844003D01*
X113297691Y-84841467D01*
X113230574Y-84821443D01*
X113160074Y-84824755D01*
G36*
X112499883Y-84940358D02*
G01*
X112500067Y-85048837D01*
X112500781Y-85132287D01*
X112502325Y-85194704D01*
X112504999Y-85240085D01*
X112509106Y-85272429D01*
X112514945Y-85295733D01*
X112522818Y-85313995D01*
X112528779Y-85324418D01*
X112578145Y-85380945D01*
X112640736Y-85416377D01*
X112709987Y-85429090D01*
X112779332Y-85417463D01*
X112820625Y-85396568D01*
X112863975Y-85360422D01*
X112893519Y-85316276D01*
X112911345Y-85258462D01*
X112919537Y-85181313D01*
X112920698Y-85124714D01*
X112920542Y-85120647D01*
X112819143Y-85120647D01*
X112818524Y-85185550D01*
X112815686Y-85228514D01*
X112809160Y-85256622D01*
X112797477Y-85276953D01*
X112783517Y-85292288D01*
X112736635Y-85321890D01*
X112686299Y-85324419D01*
X112638724Y-85299705D01*
X112635021Y-85296356D01*
X112619217Y-85278935D01*
X112609307Y-85258209D01*
X112603942Y-85227362D01*
X112601772Y-85179577D01*
X112601429Y-85126748D01*
X112602173Y-85060381D01*
X112605252Y-85016106D01*
X112611939Y-84987009D01*
X112623504Y-84966173D01*
X112632987Y-84955107D01*
X112677040Y-84927198D01*
X112727776Y-84923843D01*
X112776204Y-84945159D01*
X112785550Y-84953073D01*
X112801460Y-84970647D01*
X112811390Y-84991587D01*
X112816722Y-85022782D01*
X112818837Y-85071122D01*
X112819143Y-85120647D01*
X112920542Y-85120647D01*
X112917190Y-85033568D01*
X112905274Y-84965086D01*
X112882865Y-84913600D01*
X112847876Y-84873443D01*
X112820625Y-84852861D01*
X112771093Y-84830625D01*
X112713684Y-84820304D01*
X112660318Y-84823067D01*
X112630457Y-84834212D01*
X112618739Y-84837383D01*
X112610963Y-84825557D01*
X112605535Y-84793866D01*
X112601429Y-84745593D01*
X112596933Y-84691829D01*
X112590687Y-84659482D01*
X112579324Y-84640985D01*
X112559472Y-84628770D01*
X112547000Y-84623362D01*
X112499829Y-84603601D01*
X112499883Y-84940358D01*
G37*
X112499883Y-84940358D02*
X112500067Y-85048837D01*
X112500781Y-85132287D01*
X112502325Y-85194704D01*
X112504999Y-85240085D01*
X112509106Y-85272429D01*
X112514945Y-85295733D01*
X112522818Y-85313995D01*
X112528779Y-85324418D01*
X112578145Y-85380945D01*
X112640736Y-85416377D01*
X112709987Y-85429090D01*
X112779332Y-85417463D01*
X112820625Y-85396568D01*
X112863975Y-85360422D01*
X112893519Y-85316276D01*
X112911345Y-85258462D01*
X112919537Y-85181313D01*
X112920698Y-85124714D01*
X112920542Y-85120647D01*
X112819143Y-85120647D01*
X112818524Y-85185550D01*
X112815686Y-85228514D01*
X112809160Y-85256622D01*
X112797477Y-85276953D01*
X112783517Y-85292288D01*
X112736635Y-85321890D01*
X112686299Y-85324419D01*
X112638724Y-85299705D01*
X112635021Y-85296356D01*
X112619217Y-85278935D01*
X112609307Y-85258209D01*
X112603942Y-85227362D01*
X112601772Y-85179577D01*
X112601429Y-85126748D01*
X112602173Y-85060381D01*
X112605252Y-85016106D01*
X112611939Y-84987009D01*
X112623504Y-84966173D01*
X112632987Y-84955107D01*
X112677040Y-84927198D01*
X112727776Y-84923843D01*
X112776204Y-84945159D01*
X112785550Y-84953073D01*
X112801460Y-84970647D01*
X112811390Y-84991587D01*
X112816722Y-85022782D01*
X112818837Y-85071122D01*
X112819143Y-85120647D01*
X112920542Y-85120647D01*
X112917190Y-85033568D01*
X112905274Y-84965086D01*
X112882865Y-84913600D01*
X112847876Y-84873443D01*
X112820625Y-84852861D01*
X112771093Y-84830625D01*
X112713684Y-84820304D01*
X112660318Y-84823067D01*
X112630457Y-84834212D01*
X112618739Y-84837383D01*
X112610963Y-84825557D01*
X112605535Y-84793866D01*
X112601429Y-84745593D01*
X112596933Y-84691829D01*
X112590687Y-84659482D01*
X112579324Y-84640985D01*
X112559472Y-84628770D01*
X112547000Y-84623362D01*
X112499829Y-84603601D01*
X112499883Y-84940358D01*
G36*
X111910167Y-84833663D02*
G01*
X111907952Y-84871850D01*
X111906216Y-84929886D01*
X111905101Y-85003180D01*
X111904743Y-85080055D01*
X111904743Y-85340196D01*
X111950674Y-85386127D01*
X111982325Y-85414429D01*
X112010110Y-85425893D01*
X112048085Y-85425168D01*
X112063160Y-85423321D01*
X112110274Y-85417948D01*
X112149244Y-85414869D01*
X112158743Y-85414585D01*
X112190767Y-85416445D01*
X112236568Y-85421114D01*
X112254326Y-85423321D01*
X112297943Y-85426735D01*
X112327255Y-85419320D01*
X112356320Y-85396427D01*
X112366812Y-85386127D01*
X112412743Y-85340196D01*
X112412743Y-84853602D01*
X112375774Y-84836758D01*
X112343941Y-84824282D01*
X112325317Y-84819914D01*
X112320542Y-84833718D01*
X112316079Y-84872286D01*
X112312225Y-84931356D01*
X112309278Y-85006663D01*
X112307857Y-85070286D01*
X112303886Y-85320657D01*
X112269241Y-85325556D01*
X112237732Y-85322131D01*
X112222292Y-85311041D01*
X112217977Y-85290308D01*
X112214292Y-85246145D01*
X112211531Y-85184146D01*
X112209988Y-85109909D01*
X112209765Y-85071706D01*
X112209543Y-84851783D01*
X112163834Y-84835849D01*
X112131482Y-84825015D01*
X112113885Y-84819962D01*
X112113377Y-84819914D01*
X112111612Y-84833648D01*
X112109671Y-84871730D01*
X112107718Y-84929482D01*
X112105916Y-85002227D01*
X112104657Y-85070286D01*
X112100686Y-85320657D01*
X112013600Y-85320657D01*
X112009604Y-85092240D01*
X112005608Y-84863822D01*
X111963153Y-84841868D01*
X111931808Y-84826793D01*
X111913256Y-84819951D01*
X111912721Y-84819914D01*
X111910167Y-84833663D01*
G37*
X111910167Y-84833663D02*
X111907952Y-84871850D01*
X111906216Y-84929886D01*
X111905101Y-85003180D01*
X111904743Y-85080055D01*
X111904743Y-85340196D01*
X111950674Y-85386127D01*
X111982325Y-85414429D01*
X112010110Y-85425893D01*
X112048085Y-85425168D01*
X112063160Y-85423321D01*
X112110274Y-85417948D01*
X112149244Y-85414869D01*
X112158743Y-85414585D01*
X112190767Y-85416445D01*
X112236568Y-85421114D01*
X112254326Y-85423321D01*
X112297943Y-85426735D01*
X112327255Y-85419320D01*
X112356320Y-85396427D01*
X112366812Y-85386127D01*
X112412743Y-85340196D01*
X112412743Y-84853602D01*
X112375774Y-84836758D01*
X112343941Y-84824282D01*
X112325317Y-84819914D01*
X112320542Y-84833718D01*
X112316079Y-84872286D01*
X112312225Y-84931356D01*
X112309278Y-85006663D01*
X112307857Y-85070286D01*
X112303886Y-85320657D01*
X112269241Y-85325556D01*
X112237732Y-85322131D01*
X112222292Y-85311041D01*
X112217977Y-85290308D01*
X112214292Y-85246145D01*
X112211531Y-85184146D01*
X112209988Y-85109909D01*
X112209765Y-85071706D01*
X112209543Y-84851783D01*
X112163834Y-84835849D01*
X112131482Y-84825015D01*
X112113885Y-84819962D01*
X112113377Y-84819914D01*
X112111612Y-84833648D01*
X112109671Y-84871730D01*
X112107718Y-84929482D01*
X112105916Y-85002227D01*
X112104657Y-85070286D01*
X112100686Y-85320657D01*
X112013600Y-85320657D01*
X112009604Y-85092240D01*
X112005608Y-84863822D01*
X111963153Y-84841868D01*
X111931808Y-84826793D01*
X111913256Y-84819951D01*
X111912721Y-84819914D01*
X111910167Y-84833663D01*
G36*
X111545124Y-84831335D02*
G01*
X111503333Y-84850344D01*
X111470531Y-84873378D01*
X111446497Y-84899133D01*
X111429903Y-84932358D01*
X111419423Y-84977800D01*
X111413729Y-85040207D01*
X111411493Y-85124327D01*
X111411257Y-85179721D01*
X111411257Y-85395826D01*
X111448226Y-85412670D01*
X111477344Y-85424981D01*
X111491769Y-85429514D01*
X111494528Y-85416025D01*
X111496718Y-85379653D01*
X111498058Y-85326542D01*
X111498343Y-85284372D01*
X111499566Y-85223447D01*
X111502864Y-85175115D01*
X111507679Y-85145518D01*
X111511504Y-85139229D01*
X111537217Y-85145652D01*
X111577582Y-85162125D01*
X111624321Y-85184458D01*
X111669155Y-85208457D01*
X111703807Y-85229930D01*
X111719998Y-85244685D01*
X111720062Y-85244845D01*
X111718670Y-85272152D01*
X111706182Y-85298219D01*
X111684257Y-85319392D01*
X111652257Y-85326474D01*
X111624908Y-85325649D01*
X111586174Y-85325042D01*
X111565842Y-85334116D01*
X111553631Y-85358092D01*
X111552091Y-85362613D01*
X111546797Y-85396806D01*
X111560953Y-85417568D01*
X111597852Y-85427462D01*
X111637711Y-85429292D01*
X111709438Y-85415727D01*
X111746568Y-85396355D01*
X111792424Y-85350845D01*
X111816744Y-85294983D01*
X111818927Y-85235957D01*
X111798371Y-85180953D01*
X111767451Y-85146486D01*
X111736580Y-85127189D01*
X111688058Y-85102759D01*
X111631515Y-85077985D01*
X111622090Y-85074199D01*
X111559981Y-85046791D01*
X111524178Y-85022634D01*
X111512663Y-84998619D01*
X111523420Y-84971635D01*
X111541886Y-84950543D01*
X111585531Y-84924572D01*
X111633554Y-84922624D01*
X111677594Y-84942637D01*
X111709291Y-84982551D01*
X111713451Y-84992848D01*
X111737673Y-85030724D01*
X111773035Y-85058842D01*
X111817657Y-85081917D01*
X111817657Y-85016485D01*
X111815031Y-84976506D01*
X111803770Y-84944997D01*
X111778801Y-84911378D01*
X111754831Y-84885484D01*
X111717559Y-84848817D01*
X111688599Y-84829121D01*
X111657495Y-84821220D01*
X111622287Y-84819914D01*
X111545124Y-84831335D01*
G37*
X111545124Y-84831335D02*
X111503333Y-84850344D01*
X111470531Y-84873378D01*
X111446497Y-84899133D01*
X111429903Y-84932358D01*
X111419423Y-84977800D01*
X111413729Y-85040207D01*
X111411493Y-85124327D01*
X111411257Y-85179721D01*
X111411257Y-85395826D01*
X111448226Y-85412670D01*
X111477344Y-85424981D01*
X111491769Y-85429514D01*
X111494528Y-85416025D01*
X111496718Y-85379653D01*
X111498058Y-85326542D01*
X111498343Y-85284372D01*
X111499566Y-85223447D01*
X111502864Y-85175115D01*
X111507679Y-85145518D01*
X111511504Y-85139229D01*
X111537217Y-85145652D01*
X111577582Y-85162125D01*
X111624321Y-85184458D01*
X111669155Y-85208457D01*
X111703807Y-85229930D01*
X111719998Y-85244685D01*
X111720062Y-85244845D01*
X111718670Y-85272152D01*
X111706182Y-85298219D01*
X111684257Y-85319392D01*
X111652257Y-85326474D01*
X111624908Y-85325649D01*
X111586174Y-85325042D01*
X111565842Y-85334116D01*
X111553631Y-85358092D01*
X111552091Y-85362613D01*
X111546797Y-85396806D01*
X111560953Y-85417568D01*
X111597852Y-85427462D01*
X111637711Y-85429292D01*
X111709438Y-85415727D01*
X111746568Y-85396355D01*
X111792424Y-85350845D01*
X111816744Y-85294983D01*
X111818927Y-85235957D01*
X111798371Y-85180953D01*
X111767451Y-85146486D01*
X111736580Y-85127189D01*
X111688058Y-85102759D01*
X111631515Y-85077985D01*
X111622090Y-85074199D01*
X111559981Y-85046791D01*
X111524178Y-85022634D01*
X111512663Y-84998619D01*
X111523420Y-84971635D01*
X111541886Y-84950543D01*
X111585531Y-84924572D01*
X111633554Y-84922624D01*
X111677594Y-84942637D01*
X111709291Y-84982551D01*
X111713451Y-84992848D01*
X111737673Y-85030724D01*
X111773035Y-85058842D01*
X111817657Y-85081917D01*
X111817657Y-85016485D01*
X111815031Y-84976506D01*
X111803770Y-84944997D01*
X111778801Y-84911378D01*
X111754831Y-84885484D01*
X111717559Y-84848817D01*
X111688599Y-84829121D01*
X111657495Y-84821220D01*
X111622287Y-84819914D01*
X111545124Y-84831335D01*
G36*
X111037400Y-84833752D02*
G01*
X111020052Y-84841334D01*
X110978644Y-84874128D01*
X110943235Y-84921547D01*
X110921336Y-84972151D01*
X110917771Y-84997098D01*
X110929721Y-85031927D01*
X110955933Y-85050357D01*
X110984036Y-85061516D01*
X110996905Y-85063572D01*
X111003171Y-85048649D01*
X111015544Y-85016175D01*
X111020972Y-85001502D01*
X111051410Y-84950744D01*
X111095480Y-84925427D01*
X111151990Y-84926206D01*
X111156175Y-84927203D01*
X111186345Y-84941507D01*
X111208524Y-84969393D01*
X111223673Y-85014287D01*
X111232750Y-85079615D01*
X111236714Y-85168804D01*
X111237086Y-85216261D01*
X111237270Y-85291071D01*
X111238478Y-85342069D01*
X111241691Y-85374471D01*
X111247891Y-85393495D01*
X111258060Y-85404356D01*
X111273181Y-85412272D01*
X111274054Y-85412670D01*
X111303172Y-85424981D01*
X111317597Y-85429514D01*
X111319814Y-85415809D01*
X111321711Y-85377925D01*
X111323153Y-85320715D01*
X111324002Y-85249027D01*
X111324171Y-85196565D01*
X111323308Y-85095047D01*
X111319930Y-85018032D01*
X111312858Y-84961023D01*
X111300912Y-84919526D01*
X111282910Y-84889043D01*
X111257673Y-84865080D01*
X111232753Y-84848355D01*
X111172829Y-84826097D01*
X111103089Y-84821076D01*
X111037400Y-84833752D01*
G37*
X111037400Y-84833752D02*
X111020052Y-84841334D01*
X110978644Y-84874128D01*
X110943235Y-84921547D01*
X110921336Y-84972151D01*
X110917771Y-84997098D01*
X110929721Y-85031927D01*
X110955933Y-85050357D01*
X110984036Y-85061516D01*
X110996905Y-85063572D01*
X111003171Y-85048649D01*
X111015544Y-85016175D01*
X111020972Y-85001502D01*
X111051410Y-84950744D01*
X111095480Y-84925427D01*
X111151990Y-84926206D01*
X111156175Y-84927203D01*
X111186345Y-84941507D01*
X111208524Y-84969393D01*
X111223673Y-85014287D01*
X111232750Y-85079615D01*
X111236714Y-85168804D01*
X111237086Y-85216261D01*
X111237270Y-85291071D01*
X111238478Y-85342069D01*
X111241691Y-85374471D01*
X111247891Y-85393495D01*
X111258060Y-85404356D01*
X111273181Y-85412272D01*
X111274054Y-85412670D01*
X111303172Y-85424981D01*
X111317597Y-85429514D01*
X111319814Y-85415809D01*
X111321711Y-85377925D01*
X111323153Y-85320715D01*
X111324002Y-85249027D01*
X111324171Y-85196565D01*
X111323308Y-85095047D01*
X111319930Y-85018032D01*
X111312858Y-84961023D01*
X111300912Y-84919526D01*
X111282910Y-84889043D01*
X111257673Y-84865080D01*
X111232753Y-84848355D01*
X111172829Y-84826097D01*
X111103089Y-84821076D01*
X111037400Y-84833752D01*
G36*
X110536405Y-84841966D02*
G01*
X110478979Y-84879497D01*
X110451281Y-84913096D01*
X110429338Y-84974064D01*
X110427595Y-85022308D01*
X110431543Y-85086816D01*
X110580314Y-85151934D01*
X110652651Y-85185202D01*
X110699916Y-85211964D01*
X110724493Y-85235144D01*
X110728763Y-85257667D01*
X110715111Y-85282455D01*
X110700057Y-85298886D01*
X110656254Y-85325235D01*
X110608611Y-85327081D01*
X110564855Y-85306546D01*
X110532711Y-85265752D01*
X110526962Y-85251347D01*
X110499424Y-85206356D01*
X110467742Y-85187182D01*
X110424286Y-85170779D01*
X110424286Y-85232966D01*
X110428128Y-85275283D01*
X110443177Y-85310969D01*
X110474720Y-85351943D01*
X110479408Y-85357267D01*
X110514494Y-85393720D01*
X110544653Y-85413283D01*
X110582385Y-85422283D01*
X110613665Y-85425230D01*
X110669615Y-85425965D01*
X110709445Y-85416660D01*
X110734292Y-85402846D01*
X110773344Y-85372467D01*
X110800375Y-85339613D01*
X110817483Y-85298294D01*
X110826762Y-85242521D01*
X110830307Y-85166305D01*
X110830590Y-85127622D01*
X110829628Y-85081247D01*
X110741993Y-85081247D01*
X110740977Y-85106126D01*
X110738444Y-85110200D01*
X110721726Y-85104665D01*
X110685751Y-85090017D01*
X110637669Y-85069190D01*
X110627614Y-85064714D01*
X110566848Y-85033814D01*
X110533368Y-85006657D01*
X110526010Y-84981220D01*
X110543609Y-84955481D01*
X110558144Y-84944109D01*
X110610590Y-84921364D01*
X110659678Y-84925122D01*
X110700773Y-84952884D01*
X110729242Y-85002152D01*
X110738369Y-85041257D01*
X110741993Y-85081247D01*
X110829628Y-85081247D01*
X110828715Y-85037249D01*
X110821804Y-84970384D01*
X110808116Y-84921695D01*
X110785904Y-84885849D01*
X110753426Y-84857513D01*
X110739267Y-84848355D01*
X110674947Y-84824507D01*
X110604527Y-84823006D01*
X110536405Y-84841966D01*
G37*
X110536405Y-84841966D02*
X110478979Y-84879497D01*
X110451281Y-84913096D01*
X110429338Y-84974064D01*
X110427595Y-85022308D01*
X110431543Y-85086816D01*
X110580314Y-85151934D01*
X110652651Y-85185202D01*
X110699916Y-85211964D01*
X110724493Y-85235144D01*
X110728763Y-85257667D01*
X110715111Y-85282455D01*
X110700057Y-85298886D01*
X110656254Y-85325235D01*
X110608611Y-85327081D01*
X110564855Y-85306546D01*
X110532711Y-85265752D01*
X110526962Y-85251347D01*
X110499424Y-85206356D01*
X110467742Y-85187182D01*
X110424286Y-85170779D01*
X110424286Y-85232966D01*
X110428128Y-85275283D01*
X110443177Y-85310969D01*
X110474720Y-85351943D01*
X110479408Y-85357267D01*
X110514494Y-85393720D01*
X110544653Y-85413283D01*
X110582385Y-85422283D01*
X110613665Y-85425230D01*
X110669615Y-85425965D01*
X110709445Y-85416660D01*
X110734292Y-85402846D01*
X110773344Y-85372467D01*
X110800375Y-85339613D01*
X110817483Y-85298294D01*
X110826762Y-85242521D01*
X110830307Y-85166305D01*
X110830590Y-85127622D01*
X110829628Y-85081247D01*
X110741993Y-85081247D01*
X110740977Y-85106126D01*
X110738444Y-85110200D01*
X110721726Y-85104665D01*
X110685751Y-85090017D01*
X110637669Y-85069190D01*
X110627614Y-85064714D01*
X110566848Y-85033814D01*
X110533368Y-85006657D01*
X110526010Y-84981220D01*
X110543609Y-84955481D01*
X110558144Y-84944109D01*
X110610590Y-84921364D01*
X110659678Y-84925122D01*
X110700773Y-84952884D01*
X110729242Y-85002152D01*
X110738369Y-85041257D01*
X110741993Y-85081247D01*
X110829628Y-85081247D01*
X110828715Y-85037249D01*
X110821804Y-84970384D01*
X110808116Y-84921695D01*
X110785904Y-84885849D01*
X110753426Y-84857513D01*
X110739267Y-84848355D01*
X110674947Y-84824507D01*
X110604527Y-84823006D01*
X110536405Y-84841966D01*
G36*
X113586090Y-80117348D02*
G01*
X113507546Y-80117778D01*
X113450702Y-80118942D01*
X113411895Y-80121207D01*
X113387462Y-80124940D01*
X113373738Y-80130506D01*
X113367060Y-80138273D01*
X113363764Y-80148605D01*
X113363444Y-80149943D01*
X113358438Y-80174079D01*
X113349171Y-80221701D01*
X113336608Y-80287741D01*
X113321713Y-80367128D01*
X113305449Y-80454796D01*
X113304881Y-80457875D01*
X113288590Y-80543789D01*
X113273348Y-80619696D01*
X113260139Y-80681045D01*
X113249946Y-80723282D01*
X113243752Y-80741855D01*
X113243457Y-80742184D01*
X113225212Y-80751253D01*
X113187595Y-80766367D01*
X113138729Y-80784262D01*
X113138457Y-80784358D01*
X113076907Y-80807493D01*
X113004343Y-80836965D01*
X112935943Y-80866597D01*
X112932706Y-80868062D01*
X112821298Y-80918626D01*
X112574601Y-80750160D01*
X112498923Y-80698803D01*
X112430369Y-80652889D01*
X112372912Y-80615030D01*
X112330524Y-80587837D01*
X112307175Y-80573921D01*
X112304958Y-80572889D01*
X112287990Y-80577484D01*
X112256299Y-80599655D01*
X112208648Y-80640447D01*
X112143802Y-80700905D01*
X112077603Y-80765227D01*
X112013786Y-80828612D01*
X111956671Y-80886451D01*
X111909695Y-80935175D01*
X111876297Y-80971210D01*
X111859915Y-80990984D01*
X111859306Y-80992002D01*
X111857495Y-81005572D01*
X111864317Y-81027733D01*
X111881460Y-81061478D01*
X111910607Y-81109800D01*
X111953445Y-81175692D01*
X112010552Y-81260517D01*
X112061234Y-81335177D01*
X112106539Y-81402140D01*
X112143850Y-81457516D01*
X112170548Y-81497420D01*
X112184015Y-81517962D01*
X112184863Y-81519356D01*
X112183219Y-81539038D01*
X112170755Y-81577293D01*
X112149952Y-81626889D01*
X112142538Y-81642728D01*
X112110186Y-81713290D01*
X112075672Y-81793353D01*
X112047635Y-81862629D01*
X112027432Y-81914045D01*
X112011385Y-81953119D01*
X112002112Y-81973541D01*
X112000959Y-81975114D01*
X111983904Y-81977721D01*
X111943702Y-81984863D01*
X111885698Y-81995523D01*
X111815237Y-82008685D01*
X111737665Y-82023333D01*
X111658328Y-82038449D01*
X111582569Y-82053018D01*
X111515736Y-82066022D01*
X111463172Y-82076445D01*
X111430224Y-82083270D01*
X111422143Y-82085199D01*
X111413795Y-82089962D01*
X111407494Y-82100718D01*
X111402955Y-82121098D01*
X111399896Y-82154734D01*
X111398033Y-82205255D01*
X111397082Y-82276292D01*
X111396760Y-82371476D01*
X111396743Y-82410492D01*
X111396743Y-82727799D01*
X111472943Y-82742839D01*
X111515337Y-82750995D01*
X111578600Y-82762899D01*
X111655038Y-82777116D01*
X111736957Y-82792210D01*
X111759600Y-82796355D01*
X111835194Y-82811053D01*
X111901047Y-82825505D01*
X111951634Y-82838375D01*
X111981426Y-82848322D01*
X111986388Y-82851287D01*
X111998574Y-82872283D01*
X112016047Y-82912967D01*
X112035423Y-82965322D01*
X112039266Y-82976600D01*
X112064661Y-83046523D01*
X112096183Y-83125418D01*
X112127031Y-83196266D01*
X112127183Y-83196595D01*
X112178553Y-83307733D01*
X112009601Y-83556253D01*
X111840648Y-83804772D01*
X112057571Y-84022058D01*
X112123181Y-84086726D01*
X112183021Y-84143733D01*
X112233733Y-84190033D01*
X112271954Y-84222584D01*
X112294325Y-84238343D01*
X112297534Y-84239343D01*
X112316374Y-84231469D01*
X112354820Y-84209578D01*
X112408670Y-84176267D01*
X112473724Y-84134131D01*
X112544060Y-84086943D01*
X112615445Y-84038810D01*
X112679092Y-83996928D01*
X112730959Y-83963871D01*
X112767005Y-83942218D01*
X112783133Y-83934543D01*
X112802811Y-83941037D01*
X112840125Y-83958150D01*
X112887379Y-83982326D01*
X112892388Y-83985013D01*
X112956023Y-84016927D01*
X112999659Y-84032579D01*
X113026798Y-84032745D01*
X113040943Y-84018204D01*
X113041025Y-84018000D01*
X113048095Y-84000779D01*
X113064958Y-83959899D01*
X113090305Y-83898525D01*
X113122829Y-83819819D01*
X113161222Y-83726947D01*
X113204178Y-83623072D01*
X113245778Y-83522502D01*
X113291496Y-83411516D01*
X113333474Y-83308703D01*
X113370452Y-83217215D01*
X113401173Y-83140201D01*
X113424378Y-83080815D01*
X113438810Y-83042209D01*
X113443257Y-83027800D01*
X113432104Y-83011272D01*
X113402931Y-82984930D01*
X113364029Y-82955887D01*
X113253243Y-82864039D01*
X113166649Y-82758759D01*
X113105284Y-82642266D01*
X113070185Y-82516776D01*
X113062392Y-82384507D01*
X113068057Y-82323457D01*
X113098922Y-82196795D01*
X113152080Y-82084941D01*
X113224233Y-81989001D01*
X113312083Y-81910076D01*
X113412335Y-81849270D01*
X113521690Y-81807687D01*
X113636853Y-81786428D01*
X113754525Y-81786599D01*
X113871410Y-81809301D01*
X113984211Y-81855638D01*
X114089631Y-81926713D01*
X114133632Y-81966911D01*
X114218021Y-82070129D01*
X114276778Y-82182925D01*
X114310296Y-82302010D01*
X114318965Y-82424095D01*
X114303177Y-82545893D01*
X114263322Y-82664116D01*
X114199793Y-82775475D01*
X114112979Y-82876684D01*
X114015971Y-82955887D01*
X113975563Y-82986162D01*
X113947018Y-83012219D01*
X113936743Y-83027825D01*
X113942123Y-83044843D01*
X113957425Y-83085500D01*
X113981388Y-83146642D01*
X114012756Y-83225119D01*
X114050268Y-83317780D01*
X114092667Y-83421472D01*
X114134337Y-83522526D01*
X114180310Y-83633607D01*
X114222893Y-83736541D01*
X114260779Y-83828165D01*
X114292660Y-83905316D01*
X114317229Y-83964831D01*
X114333180Y-84003544D01*
X114339090Y-84018000D01*
X114353052Y-84032685D01*
X114380060Y-84032642D01*
X114423587Y-84017099D01*
X114487110Y-83985284D01*
X114487612Y-83985013D01*
X114535440Y-83960323D01*
X114574103Y-83942338D01*
X114595905Y-83934614D01*
X114596867Y-83934543D01*
X114613279Y-83942378D01*
X114649513Y-83964165D01*
X114701526Y-83997328D01*
X114765275Y-84039291D01*
X114835940Y-84086943D01*
X114907884Y-84135191D01*
X114972726Y-84177151D01*
X115026265Y-84210227D01*
X115064303Y-84231821D01*
X115082467Y-84239343D01*
X115099192Y-84229457D01*
X115132820Y-84201826D01*
X115179990Y-84159495D01*
X115237342Y-84105505D01*
X115301516Y-84042899D01*
X115322503Y-84021983D01*
X115539501Y-83804623D01*
X115374332Y-83562220D01*
X115324136Y-83487781D01*
X115280081Y-83420972D01*
X115244638Y-83365665D01*
X115220281Y-83325729D01*
X115209478Y-83305036D01*
X115209162Y-83303563D01*
X115214857Y-83284058D01*
X115230174Y-83244822D01*
X115252463Y-83192430D01*
X115268107Y-83157355D01*
X115297359Y-83090201D01*
X115324906Y-83022358D01*
X115346263Y-82965034D01*
X115352065Y-82947572D01*
X115368548Y-82900938D01*
X115384660Y-82864905D01*
X115393510Y-82851287D01*
X115413040Y-82842952D01*
X115455666Y-82831137D01*
X115515855Y-82817181D01*
X115588078Y-82802422D01*
X115620400Y-82796355D01*
X115702478Y-82781273D01*
X115781205Y-82766669D01*
X115848891Y-82753980D01*
X115897840Y-82744642D01*
X115907057Y-82742839D01*
X115983257Y-82727799D01*
X115983257Y-82410492D01*
X115983086Y-82306154D01*
X115982384Y-82227213D01*
X115980866Y-82170038D01*
X115978251Y-82130999D01*
X115974254Y-82106465D01*
X115968591Y-82092805D01*
X115960980Y-82086389D01*
X115957857Y-82085199D01*
X115939022Y-82080980D01*
X115897412Y-82072562D01*
X115838370Y-82060961D01*
X115767243Y-82047195D01*
X115689375Y-82032280D01*
X115610113Y-82017232D01*
X115534802Y-82003069D01*
X115468787Y-81990806D01*
X115417413Y-81981461D01*
X115386025Y-81976050D01*
X115379041Y-81975114D01*
X115372715Y-81962596D01*
X115358710Y-81929246D01*
X115339645Y-81881377D01*
X115332366Y-81862629D01*
X115303004Y-81790195D01*
X115268429Y-81710170D01*
X115237463Y-81642728D01*
X115214677Y-81591159D01*
X115199518Y-81548785D01*
X115194458Y-81522834D01*
X115195264Y-81519356D01*
X115205959Y-81502936D01*
X115230380Y-81466417D01*
X115265905Y-81413687D01*
X115309913Y-81348635D01*
X115359783Y-81275151D01*
X115369644Y-81260645D01*
X115427508Y-81174704D01*
X115470044Y-81109261D01*
X115498946Y-81061304D01*
X115515910Y-81027820D01*
X115522633Y-81005795D01*
X115520810Y-80992217D01*
X115520764Y-80992131D01*
X115506414Y-80974297D01*
X115474677Y-80939817D01*
X115428990Y-80892268D01*
X115372796Y-80835222D01*
X115309532Y-80772255D01*
X115302398Y-80765227D01*
X115222670Y-80688020D01*
X115161143Y-80631330D01*
X115116579Y-80594110D01*
X115087743Y-80575315D01*
X115075042Y-80572889D01*
X115056506Y-80583471D01*
X115018039Y-80607916D01*
X114963614Y-80643612D01*
X114897202Y-80687947D01*
X114822775Y-80738311D01*
X114805399Y-80750160D01*
X114558703Y-80918626D01*
X114447294Y-80868062D01*
X114379543Y-80838595D01*
X114306817Y-80808959D01*
X114244297Y-80785330D01*
X114241543Y-80784358D01*
X114192640Y-80766457D01*
X114154943Y-80751320D01*
X114136575Y-80742210D01*
X114136544Y-80742184D01*
X114130715Y-80725717D01*
X114120808Y-80685219D01*
X114107805Y-80625242D01*
X114092691Y-80550340D01*
X114076448Y-80465064D01*
X114075119Y-80457875D01*
X114058825Y-80370014D01*
X114043867Y-80290260D01*
X114031209Y-80223681D01*
X114021814Y-80175347D01*
X114016646Y-80150325D01*
X114016556Y-80149943D01*
X114013411Y-80139299D01*
X114007296Y-80131262D01*
X113994547Y-80125467D01*
X113971500Y-80121547D01*
X113934491Y-80119135D01*
X113879856Y-80117865D01*
X113803933Y-80117371D01*
X113703056Y-80117286D01*
X113690000Y-80117286D01*
X113586090Y-80117348D01*
G37*
X113586090Y-80117348D02*
X113507546Y-80117778D01*
X113450702Y-80118942D01*
X113411895Y-80121207D01*
X113387462Y-80124940D01*
X113373738Y-80130506D01*
X113367060Y-80138273D01*
X113363764Y-80148605D01*
X113363444Y-80149943D01*
X113358438Y-80174079D01*
X113349171Y-80221701D01*
X113336608Y-80287741D01*
X113321713Y-80367128D01*
X113305449Y-80454796D01*
X113304881Y-80457875D01*
X113288590Y-80543789D01*
X113273348Y-80619696D01*
X113260139Y-80681045D01*
X113249946Y-80723282D01*
X113243752Y-80741855D01*
X113243457Y-80742184D01*
X113225212Y-80751253D01*
X113187595Y-80766367D01*
X113138729Y-80784262D01*
X113138457Y-80784358D01*
X113076907Y-80807493D01*
X113004343Y-80836965D01*
X112935943Y-80866597D01*
X112932706Y-80868062D01*
X112821298Y-80918626D01*
X112574601Y-80750160D01*
X112498923Y-80698803D01*
X112430369Y-80652889D01*
X112372912Y-80615030D01*
X112330524Y-80587837D01*
X112307175Y-80573921D01*
X112304958Y-80572889D01*
X112287990Y-80577484D01*
X112256299Y-80599655D01*
X112208648Y-80640447D01*
X112143802Y-80700905D01*
X112077603Y-80765227D01*
X112013786Y-80828612D01*
X111956671Y-80886451D01*
X111909695Y-80935175D01*
X111876297Y-80971210D01*
X111859915Y-80990984D01*
X111859306Y-80992002D01*
X111857495Y-81005572D01*
X111864317Y-81027733D01*
X111881460Y-81061478D01*
X111910607Y-81109800D01*
X111953445Y-81175692D01*
X112010552Y-81260517D01*
X112061234Y-81335177D01*
X112106539Y-81402140D01*
X112143850Y-81457516D01*
X112170548Y-81497420D01*
X112184015Y-81517962D01*
X112184863Y-81519356D01*
X112183219Y-81539038D01*
X112170755Y-81577293D01*
X112149952Y-81626889D01*
X112142538Y-81642728D01*
X112110186Y-81713290D01*
X112075672Y-81793353D01*
X112047635Y-81862629D01*
X112027432Y-81914045D01*
X112011385Y-81953119D01*
X112002112Y-81973541D01*
X112000959Y-81975114D01*
X111983904Y-81977721D01*
X111943702Y-81984863D01*
X111885698Y-81995523D01*
X111815237Y-82008685D01*
X111737665Y-82023333D01*
X111658328Y-82038449D01*
X111582569Y-82053018D01*
X111515736Y-82066022D01*
X111463172Y-82076445D01*
X111430224Y-82083270D01*
X111422143Y-82085199D01*
X111413795Y-82089962D01*
X111407494Y-82100718D01*
X111402955Y-82121098D01*
X111399896Y-82154734D01*
X111398033Y-82205255D01*
X111397082Y-82276292D01*
X111396760Y-82371476D01*
X111396743Y-82410492D01*
X111396743Y-82727799D01*
X111472943Y-82742839D01*
X111515337Y-82750995D01*
X111578600Y-82762899D01*
X111655038Y-82777116D01*
X111736957Y-82792210D01*
X111759600Y-82796355D01*
X111835194Y-82811053D01*
X111901047Y-82825505D01*
X111951634Y-82838375D01*
X111981426Y-82848322D01*
X111986388Y-82851287D01*
X111998574Y-82872283D01*
X112016047Y-82912967D01*
X112035423Y-82965322D01*
X112039266Y-82976600D01*
X112064661Y-83046523D01*
X112096183Y-83125418D01*
X112127031Y-83196266D01*
X112127183Y-83196595D01*
X112178553Y-83307733D01*
X112009601Y-83556253D01*
X111840648Y-83804772D01*
X112057571Y-84022058D01*
X112123181Y-84086726D01*
X112183021Y-84143733D01*
X112233733Y-84190033D01*
X112271954Y-84222584D01*
X112294325Y-84238343D01*
X112297534Y-84239343D01*
X112316374Y-84231469D01*
X112354820Y-84209578D01*
X112408670Y-84176267D01*
X112473724Y-84134131D01*
X112544060Y-84086943D01*
X112615445Y-84038810D01*
X112679092Y-83996928D01*
X112730959Y-83963871D01*
X112767005Y-83942218D01*
X112783133Y-83934543D01*
X112802811Y-83941037D01*
X112840125Y-83958150D01*
X112887379Y-83982326D01*
X112892388Y-83985013D01*
X112956023Y-84016927D01*
X112999659Y-84032579D01*
X113026798Y-84032745D01*
X113040943Y-84018204D01*
X113041025Y-84018000D01*
X113048095Y-84000779D01*
X113064958Y-83959899D01*
X113090305Y-83898525D01*
X113122829Y-83819819D01*
X113161222Y-83726947D01*
X113204178Y-83623072D01*
X113245778Y-83522502D01*
X113291496Y-83411516D01*
X113333474Y-83308703D01*
X113370452Y-83217215D01*
X113401173Y-83140201D01*
X113424378Y-83080815D01*
X113438810Y-83042209D01*
X113443257Y-83027800D01*
X113432104Y-83011272D01*
X113402931Y-82984930D01*
X113364029Y-82955887D01*
X113253243Y-82864039D01*
X113166649Y-82758759D01*
X113105284Y-82642266D01*
X113070185Y-82516776D01*
X113062392Y-82384507D01*
X113068057Y-82323457D01*
X113098922Y-82196795D01*
X113152080Y-82084941D01*
X113224233Y-81989001D01*
X113312083Y-81910076D01*
X113412335Y-81849270D01*
X113521690Y-81807687D01*
X113636853Y-81786428D01*
X113754525Y-81786599D01*
X113871410Y-81809301D01*
X113984211Y-81855638D01*
X114089631Y-81926713D01*
X114133632Y-81966911D01*
X114218021Y-82070129D01*
X114276778Y-82182925D01*
X114310296Y-82302010D01*
X114318965Y-82424095D01*
X114303177Y-82545893D01*
X114263322Y-82664116D01*
X114199793Y-82775475D01*
X114112979Y-82876684D01*
X114015971Y-82955887D01*
X113975563Y-82986162D01*
X113947018Y-83012219D01*
X113936743Y-83027825D01*
X113942123Y-83044843D01*
X113957425Y-83085500D01*
X113981388Y-83146642D01*
X114012756Y-83225119D01*
X114050268Y-83317780D01*
X114092667Y-83421472D01*
X114134337Y-83522526D01*
X114180310Y-83633607D01*
X114222893Y-83736541D01*
X114260779Y-83828165D01*
X114292660Y-83905316D01*
X114317229Y-83964831D01*
X114333180Y-84003544D01*
X114339090Y-84018000D01*
X114353052Y-84032685D01*
X114380060Y-84032642D01*
X114423587Y-84017099D01*
X114487110Y-83985284D01*
X114487612Y-83985013D01*
X114535440Y-83960323D01*
X114574103Y-83942338D01*
X114595905Y-83934614D01*
X114596867Y-83934543D01*
X114613279Y-83942378D01*
X114649513Y-83964165D01*
X114701526Y-83997328D01*
X114765275Y-84039291D01*
X114835940Y-84086943D01*
X114907884Y-84135191D01*
X114972726Y-84177151D01*
X115026265Y-84210227D01*
X115064303Y-84231821D01*
X115082467Y-84239343D01*
X115099192Y-84229457D01*
X115132820Y-84201826D01*
X115179990Y-84159495D01*
X115237342Y-84105505D01*
X115301516Y-84042899D01*
X115322503Y-84021983D01*
X115539501Y-83804623D01*
X115374332Y-83562220D01*
X115324136Y-83487781D01*
X115280081Y-83420972D01*
X115244638Y-83365665D01*
X115220281Y-83325729D01*
X115209478Y-83305036D01*
X115209162Y-83303563D01*
X115214857Y-83284058D01*
X115230174Y-83244822D01*
X115252463Y-83192430D01*
X115268107Y-83157355D01*
X115297359Y-83090201D01*
X115324906Y-83022358D01*
X115346263Y-82965034D01*
X115352065Y-82947572D01*
X115368548Y-82900938D01*
X115384660Y-82864905D01*
X115393510Y-82851287D01*
X115413040Y-82842952D01*
X115455666Y-82831137D01*
X115515855Y-82817181D01*
X115588078Y-82802422D01*
X115620400Y-82796355D01*
X115702478Y-82781273D01*
X115781205Y-82766669D01*
X115848891Y-82753980D01*
X115897840Y-82744642D01*
X115907057Y-82742839D01*
X115983257Y-82727799D01*
X115983257Y-82410492D01*
X115983086Y-82306154D01*
X115982384Y-82227213D01*
X115980866Y-82170038D01*
X115978251Y-82130999D01*
X115974254Y-82106465D01*
X115968591Y-82092805D01*
X115960980Y-82086389D01*
X115957857Y-82085199D01*
X115939022Y-82080980D01*
X115897412Y-82072562D01*
X115838370Y-82060961D01*
X115767243Y-82047195D01*
X115689375Y-82032280D01*
X115610113Y-82017232D01*
X115534802Y-82003069D01*
X115468787Y-81990806D01*
X115417413Y-81981461D01*
X115386025Y-81976050D01*
X115379041Y-81975114D01*
X115372715Y-81962596D01*
X115358710Y-81929246D01*
X115339645Y-81881377D01*
X115332366Y-81862629D01*
X115303004Y-81790195D01*
X115268429Y-81710170D01*
X115237463Y-81642728D01*
X115214677Y-81591159D01*
X115199518Y-81548785D01*
X115194458Y-81522834D01*
X115195264Y-81519356D01*
X115205959Y-81502936D01*
X115230380Y-81466417D01*
X115265905Y-81413687D01*
X115309913Y-81348635D01*
X115359783Y-81275151D01*
X115369644Y-81260645D01*
X115427508Y-81174704D01*
X115470044Y-81109261D01*
X115498946Y-81061304D01*
X115515910Y-81027820D01*
X115522633Y-81005795D01*
X115520810Y-80992217D01*
X115520764Y-80992131D01*
X115506414Y-80974297D01*
X115474677Y-80939817D01*
X115428990Y-80892268D01*
X115372796Y-80835222D01*
X115309532Y-80772255D01*
X115302398Y-80765227D01*
X115222670Y-80688020D01*
X115161143Y-80631330D01*
X115116579Y-80594110D01*
X115087743Y-80575315D01*
X115075042Y-80572889D01*
X115056506Y-80583471D01*
X115018039Y-80607916D01*
X114963614Y-80643612D01*
X114897202Y-80687947D01*
X114822775Y-80738311D01*
X114805399Y-80750160D01*
X114558703Y-80918626D01*
X114447294Y-80868062D01*
X114379543Y-80838595D01*
X114306817Y-80808959D01*
X114244297Y-80785330D01*
X114241543Y-80784358D01*
X114192640Y-80766457D01*
X114154943Y-80751320D01*
X114136575Y-80742210D01*
X114136544Y-80742184D01*
X114130715Y-80725717D01*
X114120808Y-80685219D01*
X114107805Y-80625242D01*
X114092691Y-80550340D01*
X114076448Y-80465064D01*
X114075119Y-80457875D01*
X114058825Y-80370014D01*
X114043867Y-80290260D01*
X114031209Y-80223681D01*
X114021814Y-80175347D01*
X114016646Y-80150325D01*
X114016556Y-80149943D01*
X114013411Y-80139299D01*
X114007296Y-80131262D01*
X113994547Y-80125467D01*
X113971500Y-80121547D01*
X113934491Y-80119135D01*
X113879856Y-80117865D01*
X113803933Y-80117371D01*
X113703056Y-80117286D01*
X113690000Y-80117286D01*
X113586090Y-80117348D01*
G36*
X116025946Y-104221400D02*
G01*
X115912007Y-104210535D01*
X115804384Y-104178918D01*
X115705385Y-104128015D01*
X115617316Y-104059293D01*
X115542484Y-103974219D01*
X115484616Y-103877232D01*
X115444995Y-103770964D01*
X115426427Y-103663950D01*
X115427566Y-103558300D01*
X115447070Y-103456125D01*
X115483594Y-103359534D01*
X115535795Y-103270638D01*
X115602327Y-103191546D01*
X115681848Y-103124369D01*
X115773013Y-103071217D01*
X115874477Y-103034199D01*
X115984898Y-103015427D01*
X116034794Y-103013489D01*
X116122733Y-103013489D01*
X116122733Y-102961560D01*
X116119889Y-102925253D01*
X116108089Y-102898355D01*
X116084351Y-102871249D01*
X116045969Y-102832867D01*
X113854398Y-102832867D01*
X113592261Y-102832876D01*
X113351759Y-102832908D01*
X113131952Y-102832972D01*
X112931899Y-102833076D01*
X112750656Y-102833227D01*
X112587284Y-102833434D01*
X112440840Y-102833706D01*
X112310383Y-102834050D01*
X112194971Y-102834474D01*
X112093662Y-102834987D01*
X112005516Y-102835597D01*
X111929590Y-102836312D01*
X111864943Y-102837140D01*
X111810633Y-102838089D01*
X111765720Y-102839167D01*
X111729260Y-102840383D01*
X111700313Y-102841745D01*
X111677937Y-102843261D01*
X111661191Y-102844938D01*
X111649132Y-102846786D01*
X111640820Y-102848813D01*
X111635313Y-102851025D01*
X111633463Y-102852108D01*
X111626451Y-102856271D01*
X111620004Y-102859805D01*
X111614100Y-102863635D01*
X111608714Y-102868682D01*
X111603822Y-102875871D01*
X111599402Y-102886123D01*
X111595428Y-102900364D01*
X111591879Y-102919514D01*
X111588730Y-102944499D01*
X111585958Y-102976240D01*
X111583539Y-103015662D01*
X111581449Y-103063686D01*
X111579665Y-103121237D01*
X111578163Y-103189237D01*
X111576920Y-103268610D01*
X111575911Y-103360279D01*
X111575115Y-103465166D01*
X111574506Y-103584196D01*
X111574061Y-103718290D01*
X111573757Y-103868373D01*
X111573570Y-104035367D01*
X111573476Y-104220196D01*
X111573452Y-104423783D01*
X111573475Y-104647050D01*
X111573520Y-104890922D01*
X111573563Y-105156321D01*
X111573568Y-105194704D01*
X111573611Y-105461682D01*
X111573682Y-105707002D01*
X111573787Y-105931583D01*
X111573934Y-106136345D01*
X111574131Y-106322206D01*
X111574384Y-106490088D01*
X111574700Y-106640908D01*
X111575087Y-106775587D01*
X111575553Y-106895044D01*
X111576103Y-107000199D01*
X111576747Y-107091971D01*
X111577489Y-107171279D01*
X111578339Y-107239043D01*
X111579303Y-107296182D01*
X111580389Y-107343617D01*
X111581603Y-107382266D01*
X111582953Y-107413049D01*
X111584445Y-107436885D01*
X111586089Y-107454694D01*
X111587889Y-107467395D01*
X111589855Y-107475908D01*
X111591523Y-107480266D01*
X111595094Y-107488728D01*
X111597730Y-107496497D01*
X111600366Y-107503602D01*
X111603938Y-107510073D01*
X111609379Y-107515939D01*
X111617625Y-107521229D01*
X111629610Y-107525974D01*
X111646269Y-107530202D01*
X111668537Y-107533943D01*
X111697348Y-107537227D01*
X111733637Y-107540083D01*
X111778339Y-107542540D01*
X111832389Y-107544629D01*
X111896721Y-107546378D01*
X111972270Y-107547817D01*
X112059970Y-107548976D01*
X112160757Y-107549883D01*
X112275566Y-107550569D01*
X112405330Y-107551063D01*
X112550985Y-107551395D01*
X112713465Y-107551593D01*
X112893705Y-107551687D01*
X113092640Y-107551708D01*
X113311204Y-107551685D01*
X113550332Y-107551646D01*
X113810960Y-107551622D01*
X113853111Y-107551622D01*
X114116008Y-107551636D01*
X114357268Y-107551661D01*
X114577835Y-107551671D01*
X114778648Y-107551642D01*
X114960651Y-107551548D01*
X115124784Y-107551362D01*
X115271989Y-107551059D01*
X115403208Y-107550614D01*
X115513133Y-107550034D01*
X115513133Y-107247197D01*
X115455289Y-107207407D01*
X115439521Y-107196236D01*
X115425559Y-107186166D01*
X115412216Y-107177138D01*
X115398307Y-107169097D01*
X115382644Y-107161986D01*
X115364042Y-107155747D01*
X115341314Y-107150325D01*
X115313273Y-107145662D01*
X115278733Y-107141701D01*
X115236508Y-107138385D01*
X115185411Y-107135659D01*
X115124256Y-107133464D01*
X115051856Y-107131745D01*
X114967025Y-107130444D01*
X114868578Y-107129505D01*
X114755326Y-107128870D01*
X114626084Y-107128484D01*
X114479666Y-107128288D01*
X114314884Y-107128227D01*
X114130553Y-107128243D01*
X113925487Y-107128280D01*
X113802867Y-107128289D01*
X113585918Y-107128265D01*
X113390358Y-107128231D01*
X113215001Y-107128243D01*
X113058659Y-107128358D01*
X112920143Y-107128630D01*
X112798266Y-107129118D01*
X112691840Y-107129876D01*
X112599678Y-107130962D01*
X112520591Y-107132431D01*
X112453392Y-107134340D01*
X112396893Y-107136744D01*
X112349907Y-107139701D01*
X112311245Y-107143266D01*
X112279720Y-107147495D01*
X112254145Y-107152446D01*
X112233330Y-107158173D01*
X112216089Y-107164733D01*
X112201235Y-107172183D01*
X112187578Y-107180579D01*
X112173931Y-107189976D01*
X112159107Y-107200432D01*
X112150217Y-107206523D01*
X112092600Y-107245296D01*
X112092600Y-106713732D01*
X112092635Y-106590483D01*
X112092785Y-106487987D01*
X112093122Y-106404420D01*
X112093714Y-106337956D01*
X112094633Y-106286771D01*
X112095949Y-106249041D01*
X112097731Y-106222940D01*
X112100049Y-106206644D01*
X112102974Y-106198328D01*
X112106576Y-106196168D01*
X112110925Y-106198339D01*
X112112355Y-106199535D01*
X112149427Y-106224685D01*
X112202228Y-106250583D01*
X112264230Y-106274192D01*
X112290643Y-106282461D01*
X112308584Y-106287078D01*
X112329645Y-106290979D01*
X112355911Y-106294248D01*
X112389468Y-106296966D01*
X112432401Y-106299215D01*
X112486796Y-106301077D01*
X112554738Y-106302636D01*
X112638312Y-106303972D01*
X112739605Y-106305169D01*
X112860700Y-106306308D01*
X112905400Y-106306685D01*
X113030551Y-106307702D01*
X113134918Y-106308460D01*
X113220293Y-106308903D01*
X113288467Y-106308970D01*
X113341235Y-106308605D01*
X113380386Y-106307748D01*
X113407715Y-106306341D01*
X113425014Y-106304325D01*
X113434074Y-106301643D01*
X113436688Y-106298236D01*
X113434649Y-106294044D01*
X113430333Y-106289571D01*
X113417398Y-106279216D01*
X113388324Y-106257158D01*
X113345241Y-106224957D01*
X113290282Y-106184174D01*
X113225577Y-106136370D01*
X113153258Y-106083105D01*
X113075456Y-106025940D01*
X112994302Y-105966437D01*
X112911928Y-105906155D01*
X112830464Y-105846655D01*
X112752043Y-105789498D01*
X112678796Y-105736245D01*
X112612853Y-105688457D01*
X112556346Y-105647693D01*
X112511407Y-105615516D01*
X112480166Y-105593485D01*
X112473534Y-105588917D01*
X112436631Y-105565996D01*
X112388641Y-105539188D01*
X112339103Y-105513789D01*
X112332423Y-105510568D01*
X112284228Y-105488890D01*
X112246666Y-105476304D01*
X112210840Y-105470574D01*
X112168800Y-105469456D01*
X112092600Y-105470090D01*
X112092600Y-104315651D01*
X112186331Y-104406815D01*
X112236225Y-104453612D01*
X112292705Y-104503899D01*
X112346974Y-104549944D01*
X112372327Y-104570369D01*
X112411872Y-104600807D01*
X112465084Y-104640862D01*
X112530333Y-104689361D01*
X112605989Y-104745135D01*
X112690423Y-104807011D01*
X112782006Y-104873819D01*
X112879108Y-104944387D01*
X112980099Y-105017545D01*
X113083350Y-105092121D01*
X113187232Y-105166944D01*
X113290115Y-105240843D01*
X113390369Y-105312646D01*
X113486364Y-105381184D01*
X113576473Y-105445284D01*
X113659064Y-105503775D01*
X113732508Y-105555486D01*
X113795176Y-105599247D01*
X113845439Y-105633885D01*
X113881666Y-105658230D01*
X113902229Y-105671111D01*
X113906332Y-105672869D01*
X113917658Y-105664910D01*
X113944838Y-105644115D01*
X113986171Y-105611847D01*
X114039956Y-105569470D01*
X114104494Y-105518347D01*
X114178082Y-105459841D01*
X114259022Y-105395314D01*
X114345612Y-105326131D01*
X114436152Y-105253653D01*
X114528940Y-105179246D01*
X114603298Y-105119517D01*
X114603298Y-104108511D01*
X114590341Y-104102602D01*
X114568092Y-104088272D01*
X114566609Y-104087225D01*
X114536456Y-104068438D01*
X114499625Y-104048791D01*
X114491489Y-104044892D01*
X114483060Y-104041356D01*
X114472941Y-104038230D01*
X114459740Y-104035486D01*
X114442062Y-104033092D01*
X114418516Y-104031019D01*
X114387707Y-104029235D01*
X114348243Y-104027712D01*
X114298731Y-104026419D01*
X114237777Y-104025326D01*
X114163989Y-104024403D01*
X114075972Y-104023619D01*
X113972335Y-104022945D01*
X113851684Y-104022350D01*
X113712626Y-104021805D01*
X113553768Y-104021279D01*
X113374911Y-104020745D01*
X113189793Y-104020206D01*
X113025855Y-104019772D01*
X112881697Y-104019509D01*
X112755921Y-104019484D01*
X112647129Y-104019765D01*
X112553923Y-104020419D01*
X112474903Y-104021514D01*
X112408672Y-104023118D01*
X112353830Y-104025297D01*
X112308979Y-104028119D01*
X112272722Y-104031651D01*
X112243659Y-104035961D01*
X112220391Y-104041117D01*
X112201521Y-104047185D01*
X112185649Y-104054233D01*
X112171378Y-104062329D01*
X112157309Y-104071540D01*
X112144842Y-104080040D01*
X112118548Y-104097176D01*
X112100963Y-104107322D01*
X112097743Y-104108511D01*
X112096666Y-104097604D01*
X112095665Y-104066411D01*
X112094765Y-104017223D01*
X112093990Y-103952333D01*
X112093363Y-103874030D01*
X112092909Y-103784607D01*
X112092651Y-103686356D01*
X112092600Y-103617445D01*
X112092820Y-103512452D01*
X112093452Y-103415610D01*
X112094451Y-103329107D01*
X112095773Y-103255132D01*
X112097374Y-103195874D01*
X112099209Y-103153520D01*
X112101235Y-103130260D01*
X112102507Y-103126378D01*
X112117409Y-103134076D01*
X112125440Y-103142074D01*
X112142566Y-103155246D01*
X112172817Y-103172485D01*
X112197378Y-103184407D01*
X112256289Y-103211045D01*
X113433155Y-103214120D01*
X114610022Y-103217195D01*
X114610022Y-103662853D01*
X114609858Y-103760670D01*
X114609389Y-103851064D01*
X114608653Y-103931630D01*
X114607684Y-103999962D01*
X114606520Y-104053656D01*
X114605197Y-104090305D01*
X114603751Y-104107504D01*
X114603298Y-104108511D01*
X114603298Y-105119517D01*
X114622278Y-105104270D01*
X114714463Y-105030090D01*
X114803796Y-104958069D01*
X114888576Y-104889569D01*
X114967102Y-104825955D01*
X115037674Y-104768588D01*
X115098591Y-104718833D01*
X115148153Y-104678052D01*
X115168822Y-104660888D01*
X115269484Y-104574596D01*
X115352741Y-104497997D01*
X115420562Y-104429183D01*
X115474911Y-104366248D01*
X115482278Y-104356867D01*
X115512883Y-104317356D01*
X115513133Y-105449116D01*
X115465156Y-105443827D01*
X115407812Y-105447130D01*
X115339537Y-105468661D01*
X115259788Y-105508635D01*
X115187505Y-105553943D01*
X115164860Y-105570161D01*
X115127304Y-105598214D01*
X115076979Y-105636430D01*
X115016027Y-105683137D01*
X114946589Y-105736661D01*
X114870806Y-105795331D01*
X114790820Y-105857475D01*
X114708772Y-105921421D01*
X114626804Y-105985495D01*
X114547057Y-106048027D01*
X114471673Y-106107343D01*
X114402793Y-106161771D01*
X114342558Y-106209639D01*
X114293111Y-106249275D01*
X114256592Y-106279006D01*
X114235142Y-106297161D01*
X114231844Y-106300220D01*
X114239851Y-106303079D01*
X114270145Y-106305293D01*
X114322444Y-106306857D01*
X114396469Y-106307767D01*
X114491937Y-106308020D01*
X114608566Y-106307613D01*
X114728555Y-106306704D01*
X114860667Y-106305382D01*
X114972406Y-106303857D01*
X115065975Y-106301881D01*
X115143581Y-106299206D01*
X115207426Y-106295582D01*
X115259717Y-106290761D01*
X115302656Y-106284494D01*
X115338449Y-106276532D01*
X115369300Y-106266627D01*
X115397414Y-106254531D01*
X115424995Y-106239993D01*
X115450034Y-106225311D01*
X115513133Y-106187314D01*
X115513133Y-107247197D01*
X115513133Y-107550034D01*
X115519383Y-107550001D01*
X115621456Y-107549195D01*
X115710367Y-107548170D01*
X115787059Y-107546900D01*
X115852473Y-107545360D01*
X115907551Y-107543524D01*
X115953235Y-107541367D01*
X115990466Y-107538863D01*
X116020187Y-107535987D01*
X116043338Y-107532713D01*
X116060861Y-107529015D01*
X116073699Y-107524869D01*
X116082792Y-107520247D01*
X116089082Y-107515126D01*
X116093512Y-107509478D01*
X116097022Y-107503279D01*
X116100555Y-107496504D01*
X116104124Y-107490508D01*
X116106700Y-107485275D01*
X116109028Y-107477099D01*
X116111122Y-107464886D01*
X116112993Y-107447541D01*
X116114653Y-107423969D01*
X116116116Y-107393077D01*
X116117392Y-107353768D01*
X116118496Y-107304950D01*
X116119439Y-107245527D01*
X116120233Y-107174404D01*
X116120891Y-107090488D01*
X116121425Y-106992683D01*
X116121847Y-106879894D01*
X116122171Y-106751029D01*
X116122408Y-106604991D01*
X116122570Y-106440686D01*
X116122670Y-106257020D01*
X116122720Y-106052897D01*
X116122733Y-105841753D01*
X116122733Y-104221400D01*
X116025946Y-104221400D01*
G37*
X116025946Y-104221400D02*
X115912007Y-104210535D01*
X115804384Y-104178918D01*
X115705385Y-104128015D01*
X115617316Y-104059293D01*
X115542484Y-103974219D01*
X115484616Y-103877232D01*
X115444995Y-103770964D01*
X115426427Y-103663950D01*
X115427566Y-103558300D01*
X115447070Y-103456125D01*
X115483594Y-103359534D01*
X115535795Y-103270638D01*
X115602327Y-103191546D01*
X115681848Y-103124369D01*
X115773013Y-103071217D01*
X115874477Y-103034199D01*
X115984898Y-103015427D01*
X116034794Y-103013489D01*
X116122733Y-103013489D01*
X116122733Y-102961560D01*
X116119889Y-102925253D01*
X116108089Y-102898355D01*
X116084351Y-102871249D01*
X116045969Y-102832867D01*
X113854398Y-102832867D01*
X113592261Y-102832876D01*
X113351759Y-102832908D01*
X113131952Y-102832972D01*
X112931899Y-102833076D01*
X112750656Y-102833227D01*
X112587284Y-102833434D01*
X112440840Y-102833706D01*
X112310383Y-102834050D01*
X112194971Y-102834474D01*
X112093662Y-102834987D01*
X112005516Y-102835597D01*
X111929590Y-102836312D01*
X111864943Y-102837140D01*
X111810633Y-102838089D01*
X111765720Y-102839167D01*
X111729260Y-102840383D01*
X111700313Y-102841745D01*
X111677937Y-102843261D01*
X111661191Y-102844938D01*
X111649132Y-102846786D01*
X111640820Y-102848813D01*
X111635313Y-102851025D01*
X111633463Y-102852108D01*
X111626451Y-102856271D01*
X111620004Y-102859805D01*
X111614100Y-102863635D01*
X111608714Y-102868682D01*
X111603822Y-102875871D01*
X111599402Y-102886123D01*
X111595428Y-102900364D01*
X111591879Y-102919514D01*
X111588730Y-102944499D01*
X111585958Y-102976240D01*
X111583539Y-103015662D01*
X111581449Y-103063686D01*
X111579665Y-103121237D01*
X111578163Y-103189237D01*
X111576920Y-103268610D01*
X111575911Y-103360279D01*
X111575115Y-103465166D01*
X111574506Y-103584196D01*
X111574061Y-103718290D01*
X111573757Y-103868373D01*
X111573570Y-104035367D01*
X111573476Y-104220196D01*
X111573452Y-104423783D01*
X111573475Y-104647050D01*
X111573520Y-104890922D01*
X111573563Y-105156321D01*
X111573568Y-105194704D01*
X111573611Y-105461682D01*
X111573682Y-105707002D01*
X111573787Y-105931583D01*
X111573934Y-106136345D01*
X111574131Y-106322206D01*
X111574384Y-106490088D01*
X111574700Y-106640908D01*
X111575087Y-106775587D01*
X111575553Y-106895044D01*
X111576103Y-107000199D01*
X111576747Y-107091971D01*
X111577489Y-107171279D01*
X111578339Y-107239043D01*
X111579303Y-107296182D01*
X111580389Y-107343617D01*
X111581603Y-107382266D01*
X111582953Y-107413049D01*
X111584445Y-107436885D01*
X111586089Y-107454694D01*
X111587889Y-107467395D01*
X111589855Y-107475908D01*
X111591523Y-107480266D01*
X111595094Y-107488728D01*
X111597730Y-107496497D01*
X111600366Y-107503602D01*
X111603938Y-107510073D01*
X111609379Y-107515939D01*
X111617625Y-107521229D01*
X111629610Y-107525974D01*
X111646269Y-107530202D01*
X111668537Y-107533943D01*
X111697348Y-107537227D01*
X111733637Y-107540083D01*
X111778339Y-107542540D01*
X111832389Y-107544629D01*
X111896721Y-107546378D01*
X111972270Y-107547817D01*
X112059970Y-107548976D01*
X112160757Y-107549883D01*
X112275566Y-107550569D01*
X112405330Y-107551063D01*
X112550985Y-107551395D01*
X112713465Y-107551593D01*
X112893705Y-107551687D01*
X113092640Y-107551708D01*
X113311204Y-107551685D01*
X113550332Y-107551646D01*
X113810960Y-107551622D01*
X113853111Y-107551622D01*
X114116008Y-107551636D01*
X114357268Y-107551661D01*
X114577835Y-107551671D01*
X114778648Y-107551642D01*
X114960651Y-107551548D01*
X115124784Y-107551362D01*
X115271989Y-107551059D01*
X115403208Y-107550614D01*
X115513133Y-107550034D01*
X115513133Y-107247197D01*
X115455289Y-107207407D01*
X115439521Y-107196236D01*
X115425559Y-107186166D01*
X115412216Y-107177138D01*
X115398307Y-107169097D01*
X115382644Y-107161986D01*
X115364042Y-107155747D01*
X115341314Y-107150325D01*
X115313273Y-107145662D01*
X115278733Y-107141701D01*
X115236508Y-107138385D01*
X115185411Y-107135659D01*
X115124256Y-107133464D01*
X115051856Y-107131745D01*
X114967025Y-107130444D01*
X114868578Y-107129505D01*
X114755326Y-107128870D01*
X114626084Y-107128484D01*
X114479666Y-107128288D01*
X114314884Y-107128227D01*
X114130553Y-107128243D01*
X113925487Y-107128280D01*
X113802867Y-107128289D01*
X113585918Y-107128265D01*
X113390358Y-107128231D01*
X113215001Y-107128243D01*
X113058659Y-107128358D01*
X112920143Y-107128630D01*
X112798266Y-107129118D01*
X112691840Y-107129876D01*
X112599678Y-107130962D01*
X112520591Y-107132431D01*
X112453392Y-107134340D01*
X112396893Y-107136744D01*
X112349907Y-107139701D01*
X112311245Y-107143266D01*
X112279720Y-107147495D01*
X112254145Y-107152446D01*
X112233330Y-107158173D01*
X112216089Y-107164733D01*
X112201235Y-107172183D01*
X112187578Y-107180579D01*
X112173931Y-107189976D01*
X112159107Y-107200432D01*
X112150217Y-107206523D01*
X112092600Y-107245296D01*
X112092600Y-106713732D01*
X112092635Y-106590483D01*
X112092785Y-106487987D01*
X112093122Y-106404420D01*
X112093714Y-106337956D01*
X112094633Y-106286771D01*
X112095949Y-106249041D01*
X112097731Y-106222940D01*
X112100049Y-106206644D01*
X112102974Y-106198328D01*
X112106576Y-106196168D01*
X112110925Y-106198339D01*
X112112355Y-106199535D01*
X112149427Y-106224685D01*
X112202228Y-106250583D01*
X112264230Y-106274192D01*
X112290643Y-106282461D01*
X112308584Y-106287078D01*
X112329645Y-106290979D01*
X112355911Y-106294248D01*
X112389468Y-106296966D01*
X112432401Y-106299215D01*
X112486796Y-106301077D01*
X112554738Y-106302636D01*
X112638312Y-106303972D01*
X112739605Y-106305169D01*
X112860700Y-106306308D01*
X112905400Y-106306685D01*
X113030551Y-106307702D01*
X113134918Y-106308460D01*
X113220293Y-106308903D01*
X113288467Y-106308970D01*
X113341235Y-106308605D01*
X113380386Y-106307748D01*
X113407715Y-106306341D01*
X113425014Y-106304325D01*
X113434074Y-106301643D01*
X113436688Y-106298236D01*
X113434649Y-106294044D01*
X113430333Y-106289571D01*
X113417398Y-106279216D01*
X113388324Y-106257158D01*
X113345241Y-106224957D01*
X113290282Y-106184174D01*
X113225577Y-106136370D01*
X113153258Y-106083105D01*
X113075456Y-106025940D01*
X112994302Y-105966437D01*
X112911928Y-105906155D01*
X112830464Y-105846655D01*
X112752043Y-105789498D01*
X112678796Y-105736245D01*
X112612853Y-105688457D01*
X112556346Y-105647693D01*
X112511407Y-105615516D01*
X112480166Y-105593485D01*
X112473534Y-105588917D01*
X112436631Y-105565996D01*
X112388641Y-105539188D01*
X112339103Y-105513789D01*
X112332423Y-105510568D01*
X112284228Y-105488890D01*
X112246666Y-105476304D01*
X112210840Y-105470574D01*
X112168800Y-105469456D01*
X112092600Y-105470090D01*
X112092600Y-104315651D01*
X112186331Y-104406815D01*
X112236225Y-104453612D01*
X112292705Y-104503899D01*
X112346974Y-104549944D01*
X112372327Y-104570369D01*
X112411872Y-104600807D01*
X112465084Y-104640862D01*
X112530333Y-104689361D01*
X112605989Y-104745135D01*
X112690423Y-104807011D01*
X112782006Y-104873819D01*
X112879108Y-104944387D01*
X112980099Y-105017545D01*
X113083350Y-105092121D01*
X113187232Y-105166944D01*
X113290115Y-105240843D01*
X113390369Y-105312646D01*
X113486364Y-105381184D01*
X113576473Y-105445284D01*
X113659064Y-105503775D01*
X113732508Y-105555486D01*
X113795176Y-105599247D01*
X113845439Y-105633885D01*
X113881666Y-105658230D01*
X113902229Y-105671111D01*
X113906332Y-105672869D01*
X113917658Y-105664910D01*
X113944838Y-105644115D01*
X113986171Y-105611847D01*
X114039956Y-105569470D01*
X114104494Y-105518347D01*
X114178082Y-105459841D01*
X114259022Y-105395314D01*
X114345612Y-105326131D01*
X114436152Y-105253653D01*
X114528940Y-105179246D01*
X114603298Y-105119517D01*
X114603298Y-104108511D01*
X114590341Y-104102602D01*
X114568092Y-104088272D01*
X114566609Y-104087225D01*
X114536456Y-104068438D01*
X114499625Y-104048791D01*
X114491489Y-104044892D01*
X114483060Y-104041356D01*
X114472941Y-104038230D01*
X114459740Y-104035486D01*
X114442062Y-104033092D01*
X114418516Y-104031019D01*
X114387707Y-104029235D01*
X114348243Y-104027712D01*
X114298731Y-104026419D01*
X114237777Y-104025326D01*
X114163989Y-104024403D01*
X114075972Y-104023619D01*
X113972335Y-104022945D01*
X113851684Y-104022350D01*
X113712626Y-104021805D01*
X113553768Y-104021279D01*
X113374911Y-104020745D01*
X113189793Y-104020206D01*
X113025855Y-104019772D01*
X112881697Y-104019509D01*
X112755921Y-104019484D01*
X112647129Y-104019765D01*
X112553923Y-104020419D01*
X112474903Y-104021514D01*
X112408672Y-104023118D01*
X112353830Y-104025297D01*
X112308979Y-104028119D01*
X112272722Y-104031651D01*
X112243659Y-104035961D01*
X112220391Y-104041117D01*
X112201521Y-104047185D01*
X112185649Y-104054233D01*
X112171378Y-104062329D01*
X112157309Y-104071540D01*
X112144842Y-104080040D01*
X112118548Y-104097176D01*
X112100963Y-104107322D01*
X112097743Y-104108511D01*
X112096666Y-104097604D01*
X112095665Y-104066411D01*
X112094765Y-104017223D01*
X112093990Y-103952333D01*
X112093363Y-103874030D01*
X112092909Y-103784607D01*
X112092651Y-103686356D01*
X112092600Y-103617445D01*
X112092820Y-103512452D01*
X112093452Y-103415610D01*
X112094451Y-103329107D01*
X112095773Y-103255132D01*
X112097374Y-103195874D01*
X112099209Y-103153520D01*
X112101235Y-103130260D01*
X112102507Y-103126378D01*
X112117409Y-103134076D01*
X112125440Y-103142074D01*
X112142566Y-103155246D01*
X112172817Y-103172485D01*
X112197378Y-103184407D01*
X112256289Y-103211045D01*
X113433155Y-103214120D01*
X114610022Y-103217195D01*
X114610022Y-103662853D01*
X114609858Y-103760670D01*
X114609389Y-103851064D01*
X114608653Y-103931630D01*
X114607684Y-103999962D01*
X114606520Y-104053656D01*
X114605197Y-104090305D01*
X114603751Y-104107504D01*
X114603298Y-104108511D01*
X114603298Y-105119517D01*
X114622278Y-105104270D01*
X114714463Y-105030090D01*
X114803796Y-104958069D01*
X114888576Y-104889569D01*
X114967102Y-104825955D01*
X115037674Y-104768588D01*
X115098591Y-104718833D01*
X115148153Y-104678052D01*
X115168822Y-104660888D01*
X115269484Y-104574596D01*
X115352741Y-104497997D01*
X115420562Y-104429183D01*
X115474911Y-104366248D01*
X115482278Y-104356867D01*
X115512883Y-104317356D01*
X115513133Y-105449116D01*
X115465156Y-105443827D01*
X115407812Y-105447130D01*
X115339537Y-105468661D01*
X115259788Y-105508635D01*
X115187505Y-105553943D01*
X115164860Y-105570161D01*
X115127304Y-105598214D01*
X115076979Y-105636430D01*
X115016027Y-105683137D01*
X114946589Y-105736661D01*
X114870806Y-105795331D01*
X114790820Y-105857475D01*
X114708772Y-105921421D01*
X114626804Y-105985495D01*
X114547057Y-106048027D01*
X114471673Y-106107343D01*
X114402793Y-106161771D01*
X114342558Y-106209639D01*
X114293111Y-106249275D01*
X114256592Y-106279006D01*
X114235142Y-106297161D01*
X114231844Y-106300220D01*
X114239851Y-106303079D01*
X114270145Y-106305293D01*
X114322444Y-106306857D01*
X114396469Y-106307767D01*
X114491937Y-106308020D01*
X114608566Y-106307613D01*
X114728555Y-106306704D01*
X114860667Y-106305382D01*
X114972406Y-106303857D01*
X115065975Y-106301881D01*
X115143581Y-106299206D01*
X115207426Y-106295582D01*
X115259717Y-106290761D01*
X115302656Y-106284494D01*
X115338449Y-106276532D01*
X115369300Y-106266627D01*
X115397414Y-106254531D01*
X115424995Y-106239993D01*
X115450034Y-106225311D01*
X115513133Y-106187314D01*
X115513133Y-107247197D01*
X115513133Y-107550034D01*
X115519383Y-107550001D01*
X115621456Y-107549195D01*
X115710367Y-107548170D01*
X115787059Y-107546900D01*
X115852473Y-107545360D01*
X115907551Y-107543524D01*
X115953235Y-107541367D01*
X115990466Y-107538863D01*
X116020187Y-107535987D01*
X116043338Y-107532713D01*
X116060861Y-107529015D01*
X116073699Y-107524869D01*
X116082792Y-107520247D01*
X116089082Y-107515126D01*
X116093512Y-107509478D01*
X116097022Y-107503279D01*
X116100555Y-107496504D01*
X116104124Y-107490508D01*
X116106700Y-107485275D01*
X116109028Y-107477099D01*
X116111122Y-107464886D01*
X116112993Y-107447541D01*
X116114653Y-107423969D01*
X116116116Y-107393077D01*
X116117392Y-107353768D01*
X116118496Y-107304950D01*
X116119439Y-107245527D01*
X116120233Y-107174404D01*
X116120891Y-107090488D01*
X116121425Y-106992683D01*
X116121847Y-106879894D01*
X116122171Y-106751029D01*
X116122408Y-106604991D01*
X116122570Y-106440686D01*
X116122670Y-106257020D01*
X116122720Y-106052897D01*
X116122733Y-105841753D01*
X116122733Y-104221400D01*
X116025946Y-104221400D01*
G36*
X115565929Y-100946571D02*
G01*
X115544755Y-100786430D01*
X115504615Y-100622490D01*
X115445111Y-100452687D01*
X115365846Y-100274957D01*
X115360301Y-100263690D01*
X115332275Y-100205995D01*
X115308198Y-100154448D01*
X115289751Y-100112809D01*
X115278614Y-100084838D01*
X115276067Y-100075267D01*
X115271059Y-100056050D01*
X115266853Y-100051439D01*
X115256420Y-100056542D01*
X115230132Y-100072582D01*
X115190743Y-100097712D01*
X115141009Y-100130086D01*
X115083685Y-100167857D01*
X115021524Y-100209178D01*
X114957282Y-100252202D01*
X114893715Y-100295083D01*
X114833575Y-100335974D01*
X114779620Y-100373029D01*
X114734603Y-100404400D01*
X114701279Y-100428241D01*
X114682403Y-100442706D01*
X114680213Y-100444691D01*
X114684862Y-100454809D01*
X114702038Y-100477150D01*
X114728560Y-100507720D01*
X114743036Y-100523464D01*
X114818318Y-100619953D01*
X114873759Y-100726664D01*
X114908859Y-100842168D01*
X114923120Y-100965038D01*
X114921949Y-101034439D01*
X114904788Y-101155577D01*
X114868906Y-101264795D01*
X114814041Y-101362418D01*
X114739930Y-101448772D01*
X114646312Y-101524185D01*
X114532924Y-101588982D01*
X114446333Y-101626399D01*
X114310634Y-101670252D01*
X114163150Y-101702572D01*
X114007686Y-101723443D01*
X113848044Y-101732949D01*
X113688027Y-101731173D01*
X113531439Y-101718197D01*
X113382082Y-101694106D01*
X113243760Y-101658982D01*
X113120276Y-101612908D01*
X113086022Y-101596627D01*
X112971936Y-101528380D01*
X112875443Y-101447921D01*
X112797330Y-101356430D01*
X112738383Y-101255089D01*
X112699388Y-101145080D01*
X112681132Y-101027585D01*
X112679789Y-100986117D01*
X112690710Y-100864559D01*
X112723526Y-100744122D01*
X112777561Y-100626334D01*
X112852135Y-100512723D01*
X112930461Y-100421315D01*
X112974992Y-100374785D01*
X112677729Y-100193517D01*
X112603567Y-100148420D01*
X112535354Y-100107181D01*
X112475541Y-100071265D01*
X112426580Y-100042134D01*
X112390921Y-100021250D01*
X112371016Y-100010076D01*
X112367921Y-100008625D01*
X112358282Y-100016854D01*
X112341001Y-100042433D01*
X112317717Y-100082127D01*
X112290066Y-100132703D01*
X112259685Y-100190926D01*
X112228210Y-100253563D01*
X112197278Y-100317379D01*
X112168527Y-100379140D01*
X112143592Y-100435612D01*
X112124111Y-100483562D01*
X112115682Y-100507014D01*
X112077867Y-100640779D01*
X112052864Y-100778673D01*
X112039860Y-100926378D01*
X112037532Y-101053167D01*
X112038627Y-101121122D01*
X112040725Y-101186723D01*
X112043566Y-101244153D01*
X112046894Y-101287597D01*
X112048578Y-101301702D01*
X112077413Y-101440716D01*
X112122532Y-101582243D01*
X112181250Y-101719725D01*
X112250880Y-101846606D01*
X112303559Y-101924111D01*
X112411761Y-102051519D01*
X112538329Y-102169822D01*
X112680134Y-102276828D01*
X112834049Y-102370348D01*
X112996947Y-102448190D01*
X113114244Y-102492044D01*
X113297872Y-102542292D01*
X113492419Y-102575791D01*
X113693675Y-102592551D01*
X113897432Y-102592584D01*
X114099479Y-102575899D01*
X114295608Y-102542507D01*
X114481609Y-102492420D01*
X114493197Y-102488603D01*
X114655250Y-102425719D01*
X114803168Y-102348972D01*
X114941135Y-102255758D01*
X115073339Y-102143473D01*
X115118601Y-102099608D01*
X115242543Y-101963466D01*
X115345085Y-101823509D01*
X115427344Y-101677589D01*
X115490436Y-101523558D01*
X115535477Y-101359268D01*
X115552967Y-101263711D01*
X115568534Y-101104977D01*
X115565929Y-100946571D01*
G37*
X115565929Y-100946571D02*
X115544755Y-100786430D01*
X115504615Y-100622490D01*
X115445111Y-100452687D01*
X115365846Y-100274957D01*
X115360301Y-100263690D01*
X115332275Y-100205995D01*
X115308198Y-100154448D01*
X115289751Y-100112809D01*
X115278614Y-100084838D01*
X115276067Y-100075267D01*
X115271059Y-100056050D01*
X115266853Y-100051439D01*
X115256420Y-100056542D01*
X115230132Y-100072582D01*
X115190743Y-100097712D01*
X115141009Y-100130086D01*
X115083685Y-100167857D01*
X115021524Y-100209178D01*
X114957282Y-100252202D01*
X114893715Y-100295083D01*
X114833575Y-100335974D01*
X114779620Y-100373029D01*
X114734603Y-100404400D01*
X114701279Y-100428241D01*
X114682403Y-100442706D01*
X114680213Y-100444691D01*
X114684862Y-100454809D01*
X114702038Y-100477150D01*
X114728560Y-100507720D01*
X114743036Y-100523464D01*
X114818318Y-100619953D01*
X114873759Y-100726664D01*
X114908859Y-100842168D01*
X114923120Y-100965038D01*
X114921949Y-101034439D01*
X114904788Y-101155577D01*
X114868906Y-101264795D01*
X114814041Y-101362418D01*
X114739930Y-101448772D01*
X114646312Y-101524185D01*
X114532924Y-101588982D01*
X114446333Y-101626399D01*
X114310634Y-101670252D01*
X114163150Y-101702572D01*
X114007686Y-101723443D01*
X113848044Y-101732949D01*
X113688027Y-101731173D01*
X113531439Y-101718197D01*
X113382082Y-101694106D01*
X113243760Y-101658982D01*
X113120276Y-101612908D01*
X113086022Y-101596627D01*
X112971936Y-101528380D01*
X112875443Y-101447921D01*
X112797330Y-101356430D01*
X112738383Y-101255089D01*
X112699388Y-101145080D01*
X112681132Y-101027585D01*
X112679789Y-100986117D01*
X112690710Y-100864559D01*
X112723526Y-100744122D01*
X112777561Y-100626334D01*
X112852135Y-100512723D01*
X112930461Y-100421315D01*
X112974992Y-100374785D01*
X112677729Y-100193517D01*
X112603567Y-100148420D01*
X112535354Y-100107181D01*
X112475541Y-100071265D01*
X112426580Y-100042134D01*
X112390921Y-100021250D01*
X112371016Y-100010076D01*
X112367921Y-100008625D01*
X112358282Y-100016854D01*
X112341001Y-100042433D01*
X112317717Y-100082127D01*
X112290066Y-100132703D01*
X112259685Y-100190926D01*
X112228210Y-100253563D01*
X112197278Y-100317379D01*
X112168527Y-100379140D01*
X112143592Y-100435612D01*
X112124111Y-100483562D01*
X112115682Y-100507014D01*
X112077867Y-100640779D01*
X112052864Y-100778673D01*
X112039860Y-100926378D01*
X112037532Y-101053167D01*
X112038627Y-101121122D01*
X112040725Y-101186723D01*
X112043566Y-101244153D01*
X112046894Y-101287597D01*
X112048578Y-101301702D01*
X112077413Y-101440716D01*
X112122532Y-101582243D01*
X112181250Y-101719725D01*
X112250880Y-101846606D01*
X112303559Y-101924111D01*
X112411761Y-102051519D01*
X112538329Y-102169822D01*
X112680134Y-102276828D01*
X112834049Y-102370348D01*
X112996947Y-102448190D01*
X113114244Y-102492044D01*
X113297872Y-102542292D01*
X113492419Y-102575791D01*
X113693675Y-102592551D01*
X113897432Y-102592584D01*
X114099479Y-102575899D01*
X114295608Y-102542507D01*
X114481609Y-102492420D01*
X114493197Y-102488603D01*
X114655250Y-102425719D01*
X114803168Y-102348972D01*
X114941135Y-102255758D01*
X115073339Y-102143473D01*
X115118601Y-102099608D01*
X115242543Y-101963466D01*
X115345085Y-101823509D01*
X115427344Y-101677589D01*
X115490436Y-101523558D01*
X115535477Y-101359268D01*
X115552967Y-101263711D01*
X115568534Y-101104977D01*
X115565929Y-100946571D01*
G36*
X114648448Y-98601426D02*
G01*
X114628433Y-98449508D01*
X114594798Y-98314244D01*
X114547275Y-98194761D01*
X114485595Y-98090185D01*
X114422035Y-98012576D01*
X114347901Y-97943735D01*
X114268129Y-97889994D01*
X114175909Y-97847090D01*
X114132839Y-97831616D01*
X114093858Y-97818756D01*
X114057711Y-97807554D01*
X114022566Y-97797880D01*
X113986590Y-97789604D01*
X113947950Y-97782597D01*
X113904815Y-97776728D01*
X113855351Y-97771869D01*
X113797727Y-97767890D01*
X113730109Y-97764660D01*
X113650666Y-97762051D01*
X113557564Y-97759933D01*
X113448973Y-97758176D01*
X113323058Y-97756651D01*
X113177988Y-97755228D01*
X113035222Y-97753975D01*
X112879032Y-97752649D01*
X112743761Y-97751444D01*
X112627754Y-97750234D01*
X112529355Y-97748894D01*
X112446907Y-97747300D01*
X112378754Y-97745325D01*
X112323240Y-97742844D01*
X112278708Y-97739731D01*
X112243502Y-97735862D01*
X112215966Y-97731111D01*
X112194444Y-97725352D01*
X112177278Y-97718461D01*
X112162814Y-97710311D01*
X112149394Y-97700777D01*
X112135362Y-97689734D01*
X112129929Y-97685434D01*
X112107090Y-97669614D01*
X112091537Y-97662578D01*
X112091078Y-97662556D01*
X112088879Y-97673433D01*
X112086853Y-97704418D01*
X112085058Y-97753043D01*
X112083549Y-97816837D01*
X112082384Y-97893331D01*
X112081620Y-97980056D01*
X112081314Y-98074543D01*
X112081311Y-98085450D01*
X112081311Y-98508343D01*
X112177378Y-98511605D01*
X112273444Y-98514867D01*
X112222457Y-98576956D01*
X112154943Y-98674286D01*
X112100251Y-98784187D01*
X112070022Y-98870651D01*
X112055334Y-98939722D01*
X112045341Y-99023075D01*
X112040354Y-99112841D01*
X112040687Y-99201155D01*
X112046649Y-99280149D01*
X112052362Y-99316378D01*
X112090224Y-99456397D01*
X112145068Y-99582822D01*
X112216076Y-99694740D01*
X112302432Y-99791238D01*
X112403321Y-99871400D01*
X112517924Y-99934313D01*
X112644016Y-99978688D01*
X112700599Y-99991022D01*
X112762798Y-99998632D01*
X112837637Y-100002261D01*
X112871533Y-100002755D01*
X112874718Y-100002690D01*
X112874718Y-99242752D01*
X112799667Y-99233459D01*
X112735840Y-99205272D01*
X112680202Y-99156803D01*
X112675789Y-99151746D01*
X112640963Y-99103452D01*
X112618380Y-99051743D01*
X112606460Y-98991011D01*
X112603617Y-98915648D01*
X112604022Y-98897541D01*
X112606675Y-98843722D01*
X112612091Y-98803692D01*
X112622255Y-98768676D01*
X112639150Y-98729897D01*
X112644328Y-98719255D01*
X112680156Y-98658604D01*
X112722788Y-98611785D01*
X112738027Y-98599048D01*
X112794538Y-98554378D01*
X112990414Y-98554378D01*
X113069061Y-98554914D01*
X113127012Y-98556604D01*
X113166125Y-98559572D01*
X113188259Y-98563943D01*
X113194726Y-98568028D01*
X113197889Y-98583953D01*
X113200512Y-98617736D01*
X113202345Y-98664660D01*
X113203143Y-98720007D01*
X113203158Y-98728894D01*
X113197904Y-98849670D01*
X113181737Y-98952340D01*
X113154039Y-99038894D01*
X113114192Y-99111319D01*
X113067242Y-99166249D01*
X113009355Y-99210796D01*
X112946307Y-99235520D01*
X112874718Y-99242752D01*
X112874718Y-100002690D01*
X112965288Y-100000822D01*
X113044188Y-99992478D01*
X113115410Y-99976232D01*
X113186136Y-99950595D01*
X113238507Y-99926599D01*
X113333804Y-99867980D01*
X113421830Y-99789883D01*
X113500983Y-99694685D01*
X113569660Y-99584762D01*
X113626259Y-99462490D01*
X113669179Y-99330245D01*
X113684118Y-99265578D01*
X113706223Y-99129396D01*
X113720806Y-98980951D01*
X113727187Y-98829495D01*
X113725555Y-98702936D01*
X113718776Y-98541050D01*
X113777755Y-98548470D01*
X113876908Y-98567762D01*
X113957628Y-98598896D01*
X114020534Y-98642731D01*
X114066244Y-98700129D01*
X114095378Y-98771952D01*
X114108553Y-98859059D01*
X114106389Y-98962314D01*
X114102388Y-99000289D01*
X114077220Y-99141480D01*
X114036186Y-99278293D01*
X113998185Y-99372822D01*
X113978810Y-99417982D01*
X113963240Y-99456415D01*
X113953595Y-99482766D01*
X113951548Y-99490454D01*
X113960626Y-99500198D01*
X113989595Y-99516917D01*
X114038783Y-99540768D01*
X114108516Y-99571907D01*
X114199121Y-99610493D01*
X114214911Y-99617090D01*
X114287228Y-99647147D01*
X114352575Y-99674126D01*
X114408094Y-99696864D01*
X114450928Y-99714194D01*
X114478219Y-99724952D01*
X114487058Y-99728059D01*
X114491813Y-99718060D01*
X114497090Y-99691783D01*
X114500769Y-99663511D01*
X114505526Y-99633354D01*
X114514972Y-99585567D01*
X114528180Y-99524388D01*
X114544224Y-99454054D01*
X114562180Y-99378806D01*
X114569203Y-99350245D01*
X114594791Y-99245184D01*
X114614853Y-99157520D01*
X114630031Y-99082932D01*
X114640965Y-99017097D01*
X114648296Y-98955693D01*
X114652665Y-98894398D01*
X114654713Y-98828890D01*
X114655111Y-98770872D01*
X114648448Y-98601426D01*
G37*
X114648448Y-98601426D02*
X114628433Y-98449508D01*
X114594798Y-98314244D01*
X114547275Y-98194761D01*
X114485595Y-98090185D01*
X114422035Y-98012576D01*
X114347901Y-97943735D01*
X114268129Y-97889994D01*
X114175909Y-97847090D01*
X114132839Y-97831616D01*
X114093858Y-97818756D01*
X114057711Y-97807554D01*
X114022566Y-97797880D01*
X113986590Y-97789604D01*
X113947950Y-97782597D01*
X113904815Y-97776728D01*
X113855351Y-97771869D01*
X113797727Y-97767890D01*
X113730109Y-97764660D01*
X113650666Y-97762051D01*
X113557564Y-97759933D01*
X113448973Y-97758176D01*
X113323058Y-97756651D01*
X113177988Y-97755228D01*
X113035222Y-97753975D01*
X112879032Y-97752649D01*
X112743761Y-97751444D01*
X112627754Y-97750234D01*
X112529355Y-97748894D01*
X112446907Y-97747300D01*
X112378754Y-97745325D01*
X112323240Y-97742844D01*
X112278708Y-97739731D01*
X112243502Y-97735862D01*
X112215966Y-97731111D01*
X112194444Y-97725352D01*
X112177278Y-97718461D01*
X112162814Y-97710311D01*
X112149394Y-97700777D01*
X112135362Y-97689734D01*
X112129929Y-97685434D01*
X112107090Y-97669614D01*
X112091537Y-97662578D01*
X112091078Y-97662556D01*
X112088879Y-97673433D01*
X112086853Y-97704418D01*
X112085058Y-97753043D01*
X112083549Y-97816837D01*
X112082384Y-97893331D01*
X112081620Y-97980056D01*
X112081314Y-98074543D01*
X112081311Y-98085450D01*
X112081311Y-98508343D01*
X112177378Y-98511605D01*
X112273444Y-98514867D01*
X112222457Y-98576956D01*
X112154943Y-98674286D01*
X112100251Y-98784187D01*
X112070022Y-98870651D01*
X112055334Y-98939722D01*
X112045341Y-99023075D01*
X112040354Y-99112841D01*
X112040687Y-99201155D01*
X112046649Y-99280149D01*
X112052362Y-99316378D01*
X112090224Y-99456397D01*
X112145068Y-99582822D01*
X112216076Y-99694740D01*
X112302432Y-99791238D01*
X112403321Y-99871400D01*
X112517924Y-99934313D01*
X112644016Y-99978688D01*
X112700599Y-99991022D01*
X112762798Y-99998632D01*
X112837637Y-100002261D01*
X112871533Y-100002755D01*
X112874718Y-100002690D01*
X112874718Y-99242752D01*
X112799667Y-99233459D01*
X112735840Y-99205272D01*
X112680202Y-99156803D01*
X112675789Y-99151746D01*
X112640963Y-99103452D01*
X112618380Y-99051743D01*
X112606460Y-98991011D01*
X112603617Y-98915648D01*
X112604022Y-98897541D01*
X112606675Y-98843722D01*
X112612091Y-98803692D01*
X112622255Y-98768676D01*
X112639150Y-98729897D01*
X112644328Y-98719255D01*
X112680156Y-98658604D01*
X112722788Y-98611785D01*
X112738027Y-98599048D01*
X112794538Y-98554378D01*
X112990414Y-98554378D01*
X113069061Y-98554914D01*
X113127012Y-98556604D01*
X113166125Y-98559572D01*
X113188259Y-98563943D01*
X113194726Y-98568028D01*
X113197889Y-98583953D01*
X113200512Y-98617736D01*
X113202345Y-98664660D01*
X113203143Y-98720007D01*
X113203158Y-98728894D01*
X113197904Y-98849670D01*
X113181737Y-98952340D01*
X113154039Y-99038894D01*
X113114192Y-99111319D01*
X113067242Y-99166249D01*
X113009355Y-99210796D01*
X112946307Y-99235520D01*
X112874718Y-99242752D01*
X112874718Y-100002690D01*
X112965288Y-100000822D01*
X113044188Y-99992478D01*
X113115410Y-99976232D01*
X113186136Y-99950595D01*
X113238507Y-99926599D01*
X113333804Y-99867980D01*
X113421830Y-99789883D01*
X113500983Y-99694685D01*
X113569660Y-99584762D01*
X113626259Y-99462490D01*
X113669179Y-99330245D01*
X113684118Y-99265578D01*
X113706223Y-99129396D01*
X113720806Y-98980951D01*
X113727187Y-98829495D01*
X113725555Y-98702936D01*
X113718776Y-98541050D01*
X113777755Y-98548470D01*
X113876908Y-98567762D01*
X113957628Y-98598896D01*
X114020534Y-98642731D01*
X114066244Y-98700129D01*
X114095378Y-98771952D01*
X114108553Y-98859059D01*
X114106389Y-98962314D01*
X114102388Y-99000289D01*
X114077220Y-99141480D01*
X114036186Y-99278293D01*
X113998185Y-99372822D01*
X113978810Y-99417982D01*
X113963240Y-99456415D01*
X113953595Y-99482766D01*
X113951548Y-99490454D01*
X113960626Y-99500198D01*
X113989595Y-99516917D01*
X114038783Y-99540768D01*
X114108516Y-99571907D01*
X114199121Y-99610493D01*
X114214911Y-99617090D01*
X114287228Y-99647147D01*
X114352575Y-99674126D01*
X114408094Y-99696864D01*
X114450928Y-99714194D01*
X114478219Y-99724952D01*
X114487058Y-99728059D01*
X114491813Y-99718060D01*
X114497090Y-99691783D01*
X114500769Y-99663511D01*
X114505526Y-99633354D01*
X114514972Y-99585567D01*
X114528180Y-99524388D01*
X114544224Y-99454054D01*
X114562180Y-99378806D01*
X114569203Y-99350245D01*
X114594791Y-99245184D01*
X114614853Y-99157520D01*
X114630031Y-99082932D01*
X114640965Y-99017097D01*
X114648296Y-98955693D01*
X114652665Y-98894398D01*
X114654713Y-98828890D01*
X114655111Y-98770872D01*
X114648448Y-98601426D01*
G36*
X114042755Y-95088493D02*
G01*
X113808338Y-95088474D01*
X113595397Y-95088448D01*
X113402832Y-95088375D01*
X113229541Y-95088218D01*
X113074424Y-95087936D01*
X112936380Y-95087491D01*
X112814308Y-95086844D01*
X112707106Y-95085955D01*
X112613674Y-95084787D01*
X112532910Y-95083299D01*
X112463714Y-95081454D01*
X112404985Y-95079211D01*
X112355621Y-95076531D01*
X112314522Y-95073377D01*
X112280587Y-95069708D01*
X112252714Y-95065487D01*
X112229802Y-95060673D01*
X112210751Y-95055227D01*
X112194460Y-95049112D01*
X112179827Y-95042288D01*
X112165751Y-95034715D01*
X112151132Y-95026355D01*
X112142026Y-95021161D01*
X112081311Y-94986896D01*
X112081311Y-95845045D01*
X112177267Y-95845045D01*
X112220630Y-95845776D01*
X112253795Y-95847728D01*
X112271576Y-95850537D01*
X112273222Y-95851779D01*
X112266338Y-95863201D01*
X112248495Y-95885916D01*
X112229121Y-95908615D01*
X112188386Y-95963200D01*
X112147383Y-96032679D01*
X112109877Y-96109730D01*
X112079636Y-96187035D01*
X112069988Y-96217887D01*
X112055422Y-96286384D01*
X112045461Y-96369236D01*
X112040417Y-96458629D01*
X112040604Y-96546752D01*
X112046334Y-96625793D01*
X112052142Y-96663489D01*
X112090203Y-96801586D01*
X112147927Y-96928887D01*
X112224789Y-97044708D01*
X112320261Y-97148363D01*
X112433821Y-97239167D01*
X112544619Y-97305969D01*
X112661375Y-97360836D01*
X112780724Y-97402837D01*
X112906717Y-97432833D01*
X113043406Y-97451689D01*
X113194842Y-97460268D01*
X113272289Y-97460994D01*
X113329066Y-97458900D01*
X113329066Y-96629783D01*
X113235998Y-96629576D01*
X113148308Y-96626663D01*
X113071228Y-96621000D01*
X113009991Y-96612545D01*
X112997650Y-96609962D01*
X112890367Y-96578160D01*
X112803342Y-96536502D01*
X112736358Y-96484637D01*
X112689195Y-96422219D01*
X112661635Y-96348900D01*
X112653459Y-96264331D01*
X112664449Y-96168165D01*
X112680171Y-96104689D01*
X112698361Y-96055546D01*
X112724209Y-96001417D01*
X112747911Y-95960756D01*
X112794279Y-95890200D01*
X113944470Y-95890200D01*
X113988038Y-95957608D01*
X114028960Y-96036133D01*
X114055611Y-96120319D01*
X114067535Y-96205443D01*
X114064278Y-96286784D01*
X114045385Y-96359620D01*
X114029816Y-96391574D01*
X113986819Y-96449499D01*
X113930047Y-96498456D01*
X113857425Y-96539610D01*
X113766879Y-96574126D01*
X113656334Y-96603167D01*
X113650467Y-96604448D01*
X113588212Y-96614619D01*
X113510406Y-96622261D01*
X113422280Y-96627330D01*
X113329066Y-96629783D01*
X113329066Y-97458900D01*
X113485105Y-97453143D01*
X113680941Y-97431198D01*
X113859668Y-97395214D01*
X114021155Y-97345241D01*
X114165274Y-97281332D01*
X114291894Y-97203538D01*
X114400885Y-97111911D01*
X114492117Y-97006503D01*
X114523068Y-96961338D01*
X114579215Y-96860389D01*
X114618826Y-96757099D01*
X114642986Y-96647011D01*
X114652781Y-96525670D01*
X114651735Y-96433164D01*
X114640769Y-96303510D01*
X114618954Y-96190916D01*
X114585286Y-96092125D01*
X114538764Y-96003879D01*
X114504552Y-95955014D01*
X114482638Y-95925647D01*
X114467667Y-95903957D01*
X114463267Y-95895747D01*
X114474096Y-95894132D01*
X114504749Y-95892841D01*
X114552474Y-95891862D01*
X114614521Y-95891183D01*
X114688138Y-95890790D01*
X114770573Y-95890670D01*
X114859075Y-95890812D01*
X114950893Y-95891203D01*
X115043276Y-95891829D01*
X115133472Y-95892680D01*
X115218729Y-95893740D01*
X115296297Y-95894999D01*
X115363424Y-95896444D01*
X115417359Y-95898062D01*
X115455350Y-95899839D01*
X115462333Y-95900331D01*
X115532749Y-95907908D01*
X115587898Y-95919469D01*
X115635019Y-95937208D01*
X115681353Y-95963318D01*
X115690933Y-95969585D01*
X115727622Y-95994017D01*
X115727622Y-95088689D01*
X114042755Y-95088493D01*
G37*
X114042755Y-95088493D02*
X113808338Y-95088474D01*
X113595397Y-95088448D01*
X113402832Y-95088375D01*
X113229541Y-95088218D01*
X113074424Y-95087936D01*
X112936380Y-95087491D01*
X112814308Y-95086844D01*
X112707106Y-95085955D01*
X112613674Y-95084787D01*
X112532910Y-95083299D01*
X112463714Y-95081454D01*
X112404985Y-95079211D01*
X112355621Y-95076531D01*
X112314522Y-95073377D01*
X112280587Y-95069708D01*
X112252714Y-95065487D01*
X112229802Y-95060673D01*
X112210751Y-95055227D01*
X112194460Y-95049112D01*
X112179827Y-95042288D01*
X112165751Y-95034715D01*
X112151132Y-95026355D01*
X112142026Y-95021161D01*
X112081311Y-94986896D01*
X112081311Y-95845045D01*
X112177267Y-95845045D01*
X112220630Y-95845776D01*
X112253795Y-95847728D01*
X112271576Y-95850537D01*
X112273222Y-95851779D01*
X112266338Y-95863201D01*
X112248495Y-95885916D01*
X112229121Y-95908615D01*
X112188386Y-95963200D01*
X112147383Y-96032679D01*
X112109877Y-96109730D01*
X112079636Y-96187035D01*
X112069988Y-96217887D01*
X112055422Y-96286384D01*
X112045461Y-96369236D01*
X112040417Y-96458629D01*
X112040604Y-96546752D01*
X112046334Y-96625793D01*
X112052142Y-96663489D01*
X112090203Y-96801586D01*
X112147927Y-96928887D01*
X112224789Y-97044708D01*
X112320261Y-97148363D01*
X112433821Y-97239167D01*
X112544619Y-97305969D01*
X112661375Y-97360836D01*
X112780724Y-97402837D01*
X112906717Y-97432833D01*
X113043406Y-97451689D01*
X113194842Y-97460268D01*
X113272289Y-97460994D01*
X113329066Y-97458900D01*
X113329066Y-96629783D01*
X113235998Y-96629576D01*
X113148308Y-96626663D01*
X113071228Y-96621000D01*
X113009991Y-96612545D01*
X112997650Y-96609962D01*
X112890367Y-96578160D01*
X112803342Y-96536502D01*
X112736358Y-96484637D01*
X112689195Y-96422219D01*
X112661635Y-96348900D01*
X112653459Y-96264331D01*
X112664449Y-96168165D01*
X112680171Y-96104689D01*
X112698361Y-96055546D01*
X112724209Y-96001417D01*
X112747911Y-95960756D01*
X112794279Y-95890200D01*
X113944470Y-95890200D01*
X113988038Y-95957608D01*
X114028960Y-96036133D01*
X114055611Y-96120319D01*
X114067535Y-96205443D01*
X114064278Y-96286784D01*
X114045385Y-96359620D01*
X114029816Y-96391574D01*
X113986819Y-96449499D01*
X113930047Y-96498456D01*
X113857425Y-96539610D01*
X113766879Y-96574126D01*
X113656334Y-96603167D01*
X113650467Y-96604448D01*
X113588212Y-96614619D01*
X113510406Y-96622261D01*
X113422280Y-96627330D01*
X113329066Y-96629783D01*
X113329066Y-97458900D01*
X113485105Y-97453143D01*
X113680941Y-97431198D01*
X113859668Y-97395214D01*
X114021155Y-97345241D01*
X114165274Y-97281332D01*
X114291894Y-97203538D01*
X114400885Y-97111911D01*
X114492117Y-97006503D01*
X114523068Y-96961338D01*
X114579215Y-96860389D01*
X114618826Y-96757099D01*
X114642986Y-96647011D01*
X114652781Y-96525670D01*
X114651735Y-96433164D01*
X114640769Y-96303510D01*
X114618954Y-96190916D01*
X114585286Y-96092125D01*
X114538764Y-96003879D01*
X114504552Y-95955014D01*
X114482638Y-95925647D01*
X114467667Y-95903957D01*
X114463267Y-95895747D01*
X114474096Y-95894132D01*
X114504749Y-95892841D01*
X114552474Y-95891862D01*
X114614521Y-95891183D01*
X114688138Y-95890790D01*
X114770573Y-95890670D01*
X114859075Y-95890812D01*
X114950893Y-95891203D01*
X115043276Y-95891829D01*
X115133472Y-95892680D01*
X115218729Y-95893740D01*
X115296297Y-95894999D01*
X115363424Y-95896444D01*
X115417359Y-95898062D01*
X115455350Y-95899839D01*
X115462333Y-95900331D01*
X115532749Y-95907908D01*
X115587898Y-95919469D01*
X115635019Y-95937208D01*
X115681353Y-95963318D01*
X115690933Y-95969585D01*
X115727622Y-95994017D01*
X115727622Y-95088689D01*
X114042755Y-95088493D01*
G36*
X116488429Y-103548043D02*
G01*
X116464191Y-103451768D01*
X116421359Y-103365184D01*
X116361581Y-103290373D01*
X116286506Y-103229418D01*
X116197780Y-103184399D01*
X116101470Y-103158136D01*
X116004205Y-103152286D01*
X115910346Y-103167140D01*
X115822489Y-103200840D01*
X115743230Y-103251528D01*
X115675164Y-103317345D01*
X115620888Y-103396434D01*
X115582998Y-103486934D01*
X115570574Y-103538200D01*
X115563053Y-103582698D01*
X115560081Y-103616999D01*
X115561906Y-103649960D01*
X115568775Y-103690434D01*
X115575750Y-103723531D01*
X115607259Y-103816947D01*
X115658383Y-103900619D01*
X115727571Y-103972665D01*
X115813272Y-104031200D01*
X115840511Y-104045148D01*
X115876878Y-104061586D01*
X115907418Y-104071894D01*
X115939550Y-104077460D01*
X115980693Y-104079669D01*
X116026778Y-104079948D01*
X116111135Y-104075861D01*
X116180414Y-104062446D01*
X116241039Y-104037256D01*
X116299433Y-103997846D01*
X116343698Y-103959298D01*
X116409516Y-103887406D01*
X116454947Y-103812313D01*
X116482150Y-103729562D01*
X116492424Y-103651928D01*
X116488429Y-103548043D01*
G37*
X116488429Y-103548043D02*
X116464191Y-103451768D01*
X116421359Y-103365184D01*
X116361581Y-103290373D01*
X116286506Y-103229418D01*
X116197780Y-103184399D01*
X116101470Y-103158136D01*
X116004205Y-103152286D01*
X115910346Y-103167140D01*
X115822489Y-103200840D01*
X115743230Y-103251528D01*
X115675164Y-103317345D01*
X115620888Y-103396434D01*
X115582998Y-103486934D01*
X115570574Y-103538200D01*
X115563053Y-103582698D01*
X115560081Y-103616999D01*
X115561906Y-103649960D01*
X115568775Y-103690434D01*
X115575750Y-103723531D01*
X115607259Y-103816947D01*
X115658383Y-103900619D01*
X115727571Y-103972665D01*
X115813272Y-104031200D01*
X115840511Y-104045148D01*
X115876878Y-104061586D01*
X115907418Y-104071894D01*
X115939550Y-104077460D01*
X115980693Y-104079669D01*
X116026778Y-104079948D01*
X116111135Y-104075861D01*
X116180414Y-104062446D01*
X116241039Y-104037256D01*
X116299433Y-103997846D01*
X116343698Y-103959298D01*
X116409516Y-103887406D01*
X116454947Y-103812313D01*
X116482150Y-103729562D01*
X116492424Y-103651928D01*
X116488429Y-103548043D01*
G36*
X111245934Y-107396371D02*
G01*
X111245533Y-107356889D01*
X111242741Y-107241200D01*
X111234450Y-107144311D01*
X111219768Y-107062919D01*
X111197807Y-106993723D01*
X111167678Y-106933420D01*
X111128490Y-106878708D01*
X111111468Y-106859167D01*
X111071637Y-106826750D01*
X111017587Y-106797520D01*
X110957677Y-106774991D01*
X110900261Y-106762679D01*
X110879044Y-106761400D01*
X110820231Y-106769417D01*
X110755987Y-106790899D01*
X110695179Y-106821999D01*
X110646670Y-106858866D01*
X110640818Y-106864854D01*
X110599679Y-106915579D01*
X110567565Y-106971125D01*
X110543635Y-107034696D01*
X110527047Y-107109494D01*
X110516959Y-107198722D01*
X110512531Y-107305582D01*
X110512155Y-107354528D01*
X110512455Y-107416762D01*
X110513708Y-107460528D01*
X110516446Y-107489931D01*
X110521199Y-107509079D01*
X110528499Y-107522077D01*
X110534733Y-107529045D01*
X110542306Y-107535626D01*
X110552076Y-107540788D01*
X110566660Y-107544703D01*
X110588674Y-107547543D01*
X110620736Y-107549480D01*
X110665464Y-107550684D01*
X110725474Y-107551328D01*
X110803383Y-107551583D01*
X110879044Y-107551622D01*
X110979959Y-107551870D01*
X111060573Y-107551817D01*
X111099178Y-107550857D01*
X111099178Y-107404867D01*
X110658911Y-107404867D01*
X110658996Y-107311734D01*
X110660604Y-107255693D01*
X110664744Y-107196999D01*
X110670536Y-107148028D01*
X110670774Y-107146538D01*
X110689910Y-107067392D01*
X110719713Y-107006002D01*
X110762122Y-106959305D01*
X110808039Y-106929635D01*
X110858974Y-106911353D01*
X110906800Y-106912771D01*
X110958067Y-106933988D01*
X111011101Y-106975489D01*
X111050400Y-107032998D01*
X111076669Y-107107750D01*
X111085965Y-107157708D01*
X111092493Y-107214416D01*
X111097218Y-107274519D01*
X111099183Y-107325639D01*
X111099192Y-107328667D01*
X111099178Y-107404867D01*
X111099178Y-107550857D01*
X111123149Y-107550260D01*
X111169945Y-107545998D01*
X111203222Y-107537830D01*
X111225241Y-107524556D01*
X111238261Y-107504974D01*
X111244543Y-107477883D01*
X111246347Y-107442082D01*
X111245934Y-107396371D01*
G37*
X111245934Y-107396371D02*
X111245533Y-107356889D01*
X111242741Y-107241200D01*
X111234450Y-107144311D01*
X111219768Y-107062919D01*
X111197807Y-106993723D01*
X111167678Y-106933420D01*
X111128490Y-106878708D01*
X111111468Y-106859167D01*
X111071637Y-106826750D01*
X111017587Y-106797520D01*
X110957677Y-106774991D01*
X110900261Y-106762679D01*
X110879044Y-106761400D01*
X110820231Y-106769417D01*
X110755987Y-106790899D01*
X110695179Y-106821999D01*
X110646670Y-106858866D01*
X110640818Y-106864854D01*
X110599679Y-106915579D01*
X110567565Y-106971125D01*
X110543635Y-107034696D01*
X110527047Y-107109494D01*
X110516959Y-107198722D01*
X110512531Y-107305582D01*
X110512155Y-107354528D01*
X110512455Y-107416762D01*
X110513708Y-107460528D01*
X110516446Y-107489931D01*
X110521199Y-107509079D01*
X110528499Y-107522077D01*
X110534733Y-107529045D01*
X110542306Y-107535626D01*
X110552076Y-107540788D01*
X110566660Y-107544703D01*
X110588674Y-107547543D01*
X110620736Y-107549480D01*
X110665464Y-107550684D01*
X110725474Y-107551328D01*
X110803383Y-107551583D01*
X110879044Y-107551622D01*
X110979959Y-107551870D01*
X111060573Y-107551817D01*
X111099178Y-107550857D01*
X111099178Y-107404867D01*
X110658911Y-107404867D01*
X110658996Y-107311734D01*
X110660604Y-107255693D01*
X110664744Y-107196999D01*
X110670536Y-107148028D01*
X110670774Y-107146538D01*
X110689910Y-107067392D01*
X110719713Y-107006002D01*
X110762122Y-106959305D01*
X110808039Y-106929635D01*
X110858974Y-106911353D01*
X110906800Y-106912771D01*
X110958067Y-106933988D01*
X111011101Y-106975489D01*
X111050400Y-107032998D01*
X111076669Y-107107750D01*
X111085965Y-107157708D01*
X111092493Y-107214416D01*
X111097218Y-107274519D01*
X111099183Y-107325639D01*
X111099192Y-107328667D01*
X111099178Y-107404867D01*
X111099178Y-107550857D01*
X111123149Y-107550260D01*
X111169945Y-107545998D01*
X111203222Y-107537830D01*
X111225241Y-107524556D01*
X111238261Y-107504974D01*
X111244543Y-107477883D01*
X111246347Y-107442082D01*
X111245934Y-107396371D01*
G36*
X111245854Y-105987794D02*
G01*
X111245482Y-105918386D01*
X111244615Y-105865997D01*
X111243054Y-105827847D01*
X111240597Y-105801159D01*
X111237043Y-105783153D01*
X111232190Y-105771049D01*
X111225839Y-105762069D01*
X111222916Y-105758818D01*
X111191858Y-105739043D01*
X111156172Y-105735482D01*
X111124490Y-105748491D01*
X111118087Y-105754506D01*
X111111879Y-105764235D01*
X111107090Y-105779901D01*
X111103486Y-105804408D01*
X111100836Y-105840661D01*
X111098905Y-105891565D01*
X111097461Y-105960026D01*
X111096582Y-106022617D01*
X111093533Y-106270334D01*
X111028622Y-106273719D01*
X110963711Y-106277105D01*
X110963711Y-106108958D01*
X110963081Y-106035959D01*
X110960447Y-105982517D01*
X110954691Y-105945628D01*
X110944696Y-105922288D01*
X110929344Y-105909494D01*
X110907518Y-105904242D01*
X110887262Y-105903445D01*
X110862408Y-105905923D01*
X110844094Y-105915277D01*
X110831363Y-105934383D01*
X110823259Y-105966118D01*
X110818824Y-106013359D01*
X110817101Y-106078983D01*
X110816955Y-106114801D01*
X110816955Y-106275978D01*
X110658911Y-106275978D01*
X110658911Y-106027622D01*
X110658798Y-105946213D01*
X110658288Y-105884342D01*
X110657130Y-105838968D01*
X110655070Y-105807054D01*
X110651854Y-105785559D01*
X110647228Y-105771443D01*
X110640941Y-105761668D01*
X110636333Y-105756689D01*
X110609440Y-105739610D01*
X110585533Y-105734111D01*
X110556333Y-105741963D01*
X110534733Y-105756689D01*
X110527934Y-105764546D01*
X110522654Y-105774688D01*
X110518702Y-105789844D01*
X110515887Y-105812741D01*
X110514018Y-105846109D01*
X110512902Y-105892675D01*
X110512349Y-105955167D01*
X110512167Y-106036314D01*
X110512155Y-106078422D01*
X110512235Y-106168598D01*
X110512602Y-106238924D01*
X110513448Y-106292129D01*
X110514964Y-106330940D01*
X110517341Y-106358087D01*
X110520771Y-106376298D01*
X110525446Y-106388300D01*
X110531556Y-106396822D01*
X110534733Y-106400156D01*
X110542330Y-106406755D01*
X110552130Y-106411927D01*
X110566761Y-106415846D01*
X110588848Y-106418684D01*
X110621018Y-106420615D01*
X110665897Y-106421812D01*
X110726111Y-106422448D01*
X110804287Y-106422697D01*
X110877077Y-106422734D01*
X110970293Y-106422700D01*
X111043569Y-106422465D01*
X111099542Y-106421830D01*
X111140849Y-106420594D01*
X111170128Y-106418556D01*
X111190016Y-106415517D01*
X111203150Y-106411277D01*
X111212168Y-106405635D01*
X111219707Y-106398391D01*
X111221388Y-106396606D01*
X111228828Y-106387945D01*
X111234591Y-106377882D01*
X111238888Y-106363625D01*
X111241936Y-106342383D01*
X111243949Y-106311364D01*
X111245140Y-106267777D01*
X111245725Y-106208831D01*
X111245917Y-106131734D01*
X111245933Y-106077001D01*
X111245854Y-105987794D01*
G37*
X111245854Y-105987794D02*
X111245482Y-105918386D01*
X111244615Y-105865997D01*
X111243054Y-105827847D01*
X111240597Y-105801159D01*
X111237043Y-105783153D01*
X111232190Y-105771049D01*
X111225839Y-105762069D01*
X111222916Y-105758818D01*
X111191858Y-105739043D01*
X111156172Y-105735482D01*
X111124490Y-105748491D01*
X111118087Y-105754506D01*
X111111879Y-105764235D01*
X111107090Y-105779901D01*
X111103486Y-105804408D01*
X111100836Y-105840661D01*
X111098905Y-105891565D01*
X111097461Y-105960026D01*
X111096582Y-106022617D01*
X111093533Y-106270334D01*
X111028622Y-106273719D01*
X110963711Y-106277105D01*
X110963711Y-106108958D01*
X110963081Y-106035959D01*
X110960447Y-105982517D01*
X110954691Y-105945628D01*
X110944696Y-105922288D01*
X110929344Y-105909494D01*
X110907518Y-105904242D01*
X110887262Y-105903445D01*
X110862408Y-105905923D01*
X110844094Y-105915277D01*
X110831363Y-105934383D01*
X110823259Y-105966118D01*
X110818824Y-106013359D01*
X110817101Y-106078983D01*
X110816955Y-106114801D01*
X110816955Y-106275978D01*
X110658911Y-106275978D01*
X110658911Y-106027622D01*
X110658798Y-105946213D01*
X110658288Y-105884342D01*
X110657130Y-105838968D01*
X110655070Y-105807054D01*
X110651854Y-105785559D01*
X110647228Y-105771443D01*
X110640941Y-105761668D01*
X110636333Y-105756689D01*
X110609440Y-105739610D01*
X110585533Y-105734111D01*
X110556333Y-105741963D01*
X110534733Y-105756689D01*
X110527934Y-105764546D01*
X110522654Y-105774688D01*
X110518702Y-105789844D01*
X110515887Y-105812741D01*
X110514018Y-105846109D01*
X110512902Y-105892675D01*
X110512349Y-105955167D01*
X110512167Y-106036314D01*
X110512155Y-106078422D01*
X110512235Y-106168598D01*
X110512602Y-106238924D01*
X110513448Y-106292129D01*
X110514964Y-106330940D01*
X110517341Y-106358087D01*
X110520771Y-106376298D01*
X110525446Y-106388300D01*
X110531556Y-106396822D01*
X110534733Y-106400156D01*
X110542330Y-106406755D01*
X110552130Y-106411927D01*
X110566761Y-106415846D01*
X110588848Y-106418684D01*
X110621018Y-106420615D01*
X110665897Y-106421812D01*
X110726111Y-106422448D01*
X110804287Y-106422697D01*
X110877077Y-106422734D01*
X110970293Y-106422700D01*
X111043569Y-106422465D01*
X111099542Y-106421830D01*
X111140849Y-106420594D01*
X111170128Y-106418556D01*
X111190016Y-106415517D01*
X111203150Y-106411277D01*
X111212168Y-106405635D01*
X111219707Y-106398391D01*
X111221388Y-106396606D01*
X111228828Y-106387945D01*
X111234591Y-106377882D01*
X111238888Y-106363625D01*
X111241936Y-106342383D01*
X111243949Y-106311364D01*
X111245140Y-106267777D01*
X111245725Y-106208831D01*
X111245917Y-106131734D01*
X111245933Y-106077001D01*
X111245854Y-105987794D01*
G36*
X111244649Y-104966703D02*
G01*
X111239419Y-104891888D01*
X111231250Y-104822306D01*
X111220450Y-104762002D01*
X111207327Y-104715020D01*
X111192187Y-104685406D01*
X111187731Y-104680860D01*
X111153150Y-104665054D01*
X111117649Y-104669847D01*
X111087275Y-104694364D01*
X111086404Y-104695534D01*
X111077046Y-104709954D01*
X111072124Y-104725008D01*
X111071527Y-104746005D01*
X111075139Y-104778257D01*
X111082846Y-104827073D01*
X111083495Y-104831000D01*
X111092431Y-104903739D01*
X111096839Y-104982217D01*
X111096881Y-105060927D01*
X111092721Y-105134361D01*
X111084521Y-105197011D01*
X111072443Y-105243370D01*
X111071229Y-105246416D01*
X111052385Y-105280048D01*
X111033315Y-105291864D01*
X111014561Y-105282614D01*
X110996663Y-105253047D01*
X110980163Y-105203911D01*
X110965604Y-105135957D01*
X110958594Y-105090645D01*
X110945111Y-104996456D01*
X110932786Y-104921544D01*
X110920551Y-104862717D01*
X110907339Y-104816785D01*
X110892083Y-104780555D01*
X110873715Y-104750838D01*
X110851169Y-104724442D01*
X110829029Y-104703230D01*
X110798181Y-104678065D01*
X110771655Y-104665681D01*
X110738974Y-104661808D01*
X110727005Y-104661667D01*
X110687288Y-104664576D01*
X110657741Y-104676202D01*
X110631514Y-104696323D01*
X110591424Y-104737216D01*
X110560851Y-104782817D01*
X110538797Y-104836513D01*
X110524265Y-104901692D01*
X110516259Y-104981744D01*
X110513782Y-105080057D01*
X110513823Y-105096289D01*
X110515182Y-105161849D01*
X110518270Y-105226866D01*
X110522644Y-105284252D01*
X110527860Y-105326922D01*
X110528459Y-105330372D01*
X110538509Y-105372796D01*
X110551204Y-105408780D01*
X110562810Y-105429150D01*
X110593428Y-105448107D01*
X110629082Y-105449427D01*
X110660856Y-105433085D01*
X110664449Y-105429429D01*
X110675124Y-105414315D01*
X110679724Y-105395415D01*
X110678941Y-105366162D01*
X110674873Y-105330651D01*
X110671238Y-105290970D01*
X110668172Y-105235345D01*
X110665947Y-105170406D01*
X110664836Y-105102785D01*
X110664763Y-105085000D01*
X110665036Y-105017128D01*
X110666354Y-104967454D01*
X110669173Y-104931610D01*
X110673950Y-104905224D01*
X110681143Y-104883926D01*
X110687133Y-104871126D01*
X110703767Y-104843000D01*
X110718832Y-104825068D01*
X110723103Y-104822447D01*
X110740737Y-104827976D01*
X110757808Y-104854260D01*
X110773542Y-104899478D01*
X110787162Y-104961808D01*
X110790196Y-104980171D01*
X110805262Y-105076090D01*
X110817854Y-105152641D01*
X110828889Y-105212780D01*
X110839280Y-105259460D01*
X110849944Y-105295637D01*
X110861795Y-105324265D01*
X110875749Y-105348298D01*
X110892719Y-105370692D01*
X110913622Y-105394402D01*
X110920951Y-105402380D01*
X110948301Y-105430353D01*
X110969971Y-105445160D01*
X110994768Y-105450952D01*
X111026017Y-105451889D01*
X111087295Y-105441575D01*
X111139360Y-105410752D01*
X111182042Y-105359595D01*
X111215175Y-105288283D01*
X111230036Y-105237400D01*
X111239634Y-105182100D01*
X111245064Y-105115853D01*
X111246633Y-105042706D01*
X111244649Y-104966703D01*
G37*
X111244649Y-104966703D02*
X111239419Y-104891888D01*
X111231250Y-104822306D01*
X111220450Y-104762002D01*
X111207327Y-104715020D01*
X111192187Y-104685406D01*
X111187731Y-104680860D01*
X111153150Y-104665054D01*
X111117649Y-104669847D01*
X111087275Y-104694364D01*
X111086404Y-104695534D01*
X111077046Y-104709954D01*
X111072124Y-104725008D01*
X111071527Y-104746005D01*
X111075139Y-104778257D01*
X111082846Y-104827073D01*
X111083495Y-104831000D01*
X111092431Y-104903739D01*
X111096839Y-104982217D01*
X111096881Y-105060927D01*
X111092721Y-105134361D01*
X111084521Y-105197011D01*
X111072443Y-105243370D01*
X111071229Y-105246416D01*
X111052385Y-105280048D01*
X111033315Y-105291864D01*
X111014561Y-105282614D01*
X110996663Y-105253047D01*
X110980163Y-105203911D01*
X110965604Y-105135957D01*
X110958594Y-105090645D01*
X110945111Y-104996456D01*
X110932786Y-104921544D01*
X110920551Y-104862717D01*
X110907339Y-104816785D01*
X110892083Y-104780555D01*
X110873715Y-104750838D01*
X110851169Y-104724442D01*
X110829029Y-104703230D01*
X110798181Y-104678065D01*
X110771655Y-104665681D01*
X110738974Y-104661808D01*
X110727005Y-104661667D01*
X110687288Y-104664576D01*
X110657741Y-104676202D01*
X110631514Y-104696323D01*
X110591424Y-104737216D01*
X110560851Y-104782817D01*
X110538797Y-104836513D01*
X110524265Y-104901692D01*
X110516259Y-104981744D01*
X110513782Y-105080057D01*
X110513823Y-105096289D01*
X110515182Y-105161849D01*
X110518270Y-105226866D01*
X110522644Y-105284252D01*
X110527860Y-105326922D01*
X110528459Y-105330372D01*
X110538509Y-105372796D01*
X110551204Y-105408780D01*
X110562810Y-105429150D01*
X110593428Y-105448107D01*
X110629082Y-105449427D01*
X110660856Y-105433085D01*
X110664449Y-105429429D01*
X110675124Y-105414315D01*
X110679724Y-105395415D01*
X110678941Y-105366162D01*
X110674873Y-105330651D01*
X110671238Y-105290970D01*
X110668172Y-105235345D01*
X110665947Y-105170406D01*
X110664836Y-105102785D01*
X110664763Y-105085000D01*
X110665036Y-105017128D01*
X110666354Y-104967454D01*
X110669173Y-104931610D01*
X110673950Y-104905224D01*
X110681143Y-104883926D01*
X110687133Y-104871126D01*
X110703767Y-104843000D01*
X110718832Y-104825068D01*
X110723103Y-104822447D01*
X110740737Y-104827976D01*
X110757808Y-104854260D01*
X110773542Y-104899478D01*
X110787162Y-104961808D01*
X110790196Y-104980171D01*
X110805262Y-105076090D01*
X110817854Y-105152641D01*
X110828889Y-105212780D01*
X110839280Y-105259460D01*
X110849944Y-105295637D01*
X110861795Y-105324265D01*
X110875749Y-105348298D01*
X110892719Y-105370692D01*
X110913622Y-105394402D01*
X110920951Y-105402380D01*
X110948301Y-105430353D01*
X110969971Y-105445160D01*
X110994768Y-105450952D01*
X111026017Y-105451889D01*
X111087295Y-105441575D01*
X111139360Y-105410752D01*
X111182042Y-105359595D01*
X111215175Y-105288283D01*
X111230036Y-105237400D01*
X111239634Y-105182100D01*
X111245064Y-105115853D01*
X111246633Y-105042706D01*
X111244649Y-104966703D01*
G36*
X111223355Y-104198822D02*
G01*
X111215782Y-104192242D01*
X111206013Y-104187079D01*
X111191429Y-104183164D01*
X111169415Y-104180324D01*
X111137352Y-104178387D01*
X111092625Y-104177183D01*
X111032615Y-104176539D01*
X110954706Y-104176284D01*
X110879044Y-104176245D01*
X110785198Y-104176314D01*
X110711311Y-104176638D01*
X110654768Y-104177386D01*
X110612951Y-104178732D01*
X110583243Y-104180846D01*
X110563027Y-104183900D01*
X110549686Y-104188066D01*
X110540602Y-104193516D01*
X110534733Y-104198822D01*
X110515053Y-104231826D01*
X110516819Y-104266991D01*
X110538283Y-104298455D01*
X110546663Y-104305684D01*
X110556386Y-104311334D01*
X110570139Y-104315599D01*
X110590611Y-104318673D01*
X110620488Y-104320752D01*
X110662459Y-104322030D01*
X110719211Y-104322701D01*
X110793433Y-104322959D01*
X110877463Y-104323000D01*
X111190515Y-104323000D01*
X111218224Y-104295291D01*
X111241537Y-104261137D01*
X111242377Y-104228006D01*
X111223355Y-104198822D01*
G37*
X111223355Y-104198822D02*
X111215782Y-104192242D01*
X111206013Y-104187079D01*
X111191429Y-104183164D01*
X111169415Y-104180324D01*
X111137352Y-104178387D01*
X111092625Y-104177183D01*
X111032615Y-104176539D01*
X110954706Y-104176284D01*
X110879044Y-104176245D01*
X110785198Y-104176314D01*
X110711311Y-104176638D01*
X110654768Y-104177386D01*
X110612951Y-104178732D01*
X110583243Y-104180846D01*
X110563027Y-104183900D01*
X110549686Y-104188066D01*
X110540602Y-104193516D01*
X110534733Y-104198822D01*
X110515053Y-104231826D01*
X110516819Y-104266991D01*
X110538283Y-104298455D01*
X110546663Y-104305684D01*
X110556386Y-104311334D01*
X110570139Y-104315599D01*
X110590611Y-104318673D01*
X110620488Y-104320752D01*
X110662459Y-104322030D01*
X110719211Y-104322701D01*
X110793433Y-104322959D01*
X110877463Y-104323000D01*
X111190515Y-104323000D01*
X111218224Y-104295291D01*
X111241537Y-104261137D01*
X111242377Y-104228006D01*
X111223355Y-104198822D01*
G36*
X111240401Y-103225081D02*
G01*
X111228905Y-103156565D01*
X111211033Y-103103943D01*
X111187501Y-103069708D01*
X111174076Y-103060379D01*
X111142852Y-103050893D01*
X111114605Y-103057277D01*
X111087818Y-103077430D01*
X111075287Y-103108745D01*
X111076304Y-103154183D01*
X111083094Y-103189326D01*
X111096029Y-103267419D01*
X111097258Y-103347226D01*
X111086759Y-103436555D01*
X111082310Y-103461229D01*
X111058892Y-103544291D01*
X111024055Y-103609273D01*
X110978396Y-103655461D01*
X110922506Y-103682145D01*
X110893612Y-103687663D01*
X110834988Y-103684051D01*
X110783121Y-103660729D01*
X110739022Y-103619824D01*
X110703701Y-103563459D01*
X110678171Y-103493760D01*
X110663441Y-103412852D01*
X110660522Y-103322860D01*
X110670425Y-103225910D01*
X110671359Y-103220436D01*
X110678541Y-103181875D01*
X110685479Y-103160494D01*
X110695773Y-103151227D01*
X110713024Y-103149006D01*
X110722159Y-103148956D01*
X110760511Y-103148956D01*
X110760511Y-103217431D01*
X110764653Y-103277900D01*
X110777853Y-103319165D01*
X110801270Y-103343175D01*
X110836064Y-103351877D01*
X110840606Y-103351983D01*
X110870346Y-103346892D01*
X110891581Y-103329433D01*
X110905634Y-103296939D01*
X110913827Y-103246743D01*
X110916839Y-103198123D01*
X110918567Y-103127456D01*
X110915930Y-103076198D01*
X110906200Y-103041239D01*
X110886647Y-103019470D01*
X110854544Y-103007780D01*
X110807162Y-103003060D01*
X110744929Y-103002200D01*
X110675465Y-103003609D01*
X110628214Y-103007848D01*
X110602988Y-103014936D01*
X110601012Y-103016311D01*
X110569492Y-103055228D01*
X110544530Y-103112286D01*
X110526660Y-103183869D01*
X110516414Y-103266358D01*
X110514327Y-103356139D01*
X110520932Y-103449592D01*
X110529044Y-103504556D01*
X110553446Y-103590766D01*
X110593338Y-103670892D01*
X110645113Y-103737977D01*
X110655461Y-103748173D01*
X110698965Y-103781302D01*
X110752882Y-103811194D01*
X110809408Y-103834357D01*
X110860741Y-103847298D01*
X110880456Y-103848858D01*
X110921581Y-103842218D01*
X110972748Y-103824568D01*
X111026606Y-103799297D01*
X111075805Y-103769789D01*
X111108666Y-103743719D01*
X111157548Y-103682765D01*
X111196455Y-103603969D01*
X111224506Y-103510157D01*
X111240821Y-103404150D01*
X111244808Y-103307000D01*
X111240401Y-103225081D01*
G37*
X111240401Y-103225081D02*
X111228905Y-103156565D01*
X111211033Y-103103943D01*
X111187501Y-103069708D01*
X111174076Y-103060379D01*
X111142852Y-103050893D01*
X111114605Y-103057277D01*
X111087818Y-103077430D01*
X111075287Y-103108745D01*
X111076304Y-103154183D01*
X111083094Y-103189326D01*
X111096029Y-103267419D01*
X111097258Y-103347226D01*
X111086759Y-103436555D01*
X111082310Y-103461229D01*
X111058892Y-103544291D01*
X111024055Y-103609273D01*
X110978396Y-103655461D01*
X110922506Y-103682145D01*
X110893612Y-103687663D01*
X110834988Y-103684051D01*
X110783121Y-103660729D01*
X110739022Y-103619824D01*
X110703701Y-103563459D01*
X110678171Y-103493760D01*
X110663441Y-103412852D01*
X110660522Y-103322860D01*
X110670425Y-103225910D01*
X110671359Y-103220436D01*
X110678541Y-103181875D01*
X110685479Y-103160494D01*
X110695773Y-103151227D01*
X110713024Y-103149006D01*
X110722159Y-103148956D01*
X110760511Y-103148956D01*
X110760511Y-103217431D01*
X110764653Y-103277900D01*
X110777853Y-103319165D01*
X110801270Y-103343175D01*
X110836064Y-103351877D01*
X110840606Y-103351983D01*
X110870346Y-103346892D01*
X110891581Y-103329433D01*
X110905634Y-103296939D01*
X110913827Y-103246743D01*
X110916839Y-103198123D01*
X110918567Y-103127456D01*
X110915930Y-103076198D01*
X110906200Y-103041239D01*
X110886647Y-103019470D01*
X110854544Y-103007780D01*
X110807162Y-103003060D01*
X110744929Y-103002200D01*
X110675465Y-103003609D01*
X110628214Y-103007848D01*
X110602988Y-103014936D01*
X110601012Y-103016311D01*
X110569492Y-103055228D01*
X110544530Y-103112286D01*
X110526660Y-103183869D01*
X110516414Y-103266358D01*
X110514327Y-103356139D01*
X110520932Y-103449592D01*
X110529044Y-103504556D01*
X110553446Y-103590766D01*
X110593338Y-103670892D01*
X110645113Y-103737977D01*
X110655461Y-103748173D01*
X110698965Y-103781302D01*
X110752882Y-103811194D01*
X110809408Y-103834357D01*
X110860741Y-103847298D01*
X110880456Y-103848858D01*
X110921581Y-103842218D01*
X110972748Y-103824568D01*
X111026606Y-103799297D01*
X111075805Y-103769789D01*
X111108666Y-103743719D01*
X111157548Y-103682765D01*
X111196455Y-103603969D01*
X111224506Y-103510157D01*
X111240821Y-103404150D01*
X111244808Y-103307000D01*
X111240401Y-103225081D01*
G36*
X111241552Y-102575114D02*
G01*
X111227727Y-102551548D01*
X111205119Y-102520735D01*
X111172662Y-102481078D01*
X111129292Y-102430980D01*
X111073942Y-102368843D01*
X111005549Y-102293072D01*
X110926916Y-102206334D01*
X110763122Y-102025711D01*
X110982971Y-102020067D01*
X111058649Y-102018029D01*
X111115006Y-102016063D01*
X111155294Y-102013734D01*
X111182765Y-102010606D01*
X111200671Y-102006245D01*
X111212263Y-102000216D01*
X111220792Y-101992084D01*
X111224377Y-101987772D01*
X111243330Y-101953241D01*
X111240559Y-101920383D01*
X111224367Y-101894318D01*
X111202801Y-101867667D01*
X110887849Y-101864352D01*
X110795221Y-101863435D01*
X110722456Y-101862968D01*
X110666839Y-101863113D01*
X110625658Y-101864032D01*
X110596197Y-101865887D01*
X110575745Y-101868839D01*
X110561587Y-101873050D01*
X110551009Y-101878682D01*
X110542526Y-101884927D01*
X110526793Y-101898439D01*
X110516364Y-101911883D01*
X110512361Y-101927124D01*
X110515906Y-101946026D01*
X110528121Y-101970455D01*
X110550129Y-102002273D01*
X110583051Y-102043348D01*
X110628009Y-102095542D01*
X110686125Y-102160722D01*
X110752901Y-102234556D01*
X110993542Y-102499845D01*
X110774411Y-102505489D01*
X110698872Y-102507531D01*
X110642646Y-102509502D01*
X110602476Y-102511839D01*
X110575104Y-102514981D01*
X110557272Y-102519364D01*
X110545721Y-102525424D01*
X110537193Y-102533600D01*
X110533718Y-102537784D01*
X110514628Y-102574765D01*
X110517507Y-102609708D01*
X110541900Y-102640136D01*
X110551714Y-102647097D01*
X110563174Y-102652523D01*
X110579032Y-102656603D01*
X110602037Y-102659529D01*
X110634938Y-102661492D01*
X110680484Y-102662683D01*
X110741427Y-102663292D01*
X110820514Y-102663511D01*
X110879044Y-102663534D01*
X110970593Y-102663460D01*
X111042313Y-102663113D01*
X111096955Y-102662301D01*
X111137268Y-102660833D01*
X111166002Y-102658519D01*
X111185907Y-102655167D01*
X111199732Y-102650588D01*
X111210228Y-102644589D01*
X111216189Y-102640136D01*
X111230309Y-102628850D01*
X111240971Y-102618301D01*
X111247108Y-102606893D01*
X111247657Y-102593030D01*
X111241552Y-102575114D01*
G37*
X111241552Y-102575114D02*
X111227727Y-102551548D01*
X111205119Y-102520735D01*
X111172662Y-102481078D01*
X111129292Y-102430980D01*
X111073942Y-102368843D01*
X111005549Y-102293072D01*
X110926916Y-102206334D01*
X110763122Y-102025711D01*
X110982971Y-102020067D01*
X111058649Y-102018029D01*
X111115006Y-102016063D01*
X111155294Y-102013734D01*
X111182765Y-102010606D01*
X111200671Y-102006245D01*
X111212263Y-102000216D01*
X111220792Y-101992084D01*
X111224377Y-101987772D01*
X111243330Y-101953241D01*
X111240559Y-101920383D01*
X111224367Y-101894318D01*
X111202801Y-101867667D01*
X110887849Y-101864352D01*
X110795221Y-101863435D01*
X110722456Y-101862968D01*
X110666839Y-101863113D01*
X110625658Y-101864032D01*
X110596197Y-101865887D01*
X110575745Y-101868839D01*
X110561587Y-101873050D01*
X110551009Y-101878682D01*
X110542526Y-101884927D01*
X110526793Y-101898439D01*
X110516364Y-101911883D01*
X110512361Y-101927124D01*
X110515906Y-101946026D01*
X110528121Y-101970455D01*
X110550129Y-102002273D01*
X110583051Y-102043348D01*
X110628009Y-102095542D01*
X110686125Y-102160722D01*
X110752901Y-102234556D01*
X110993542Y-102499845D01*
X110774411Y-102505489D01*
X110698872Y-102507531D01*
X110642646Y-102509502D01*
X110602476Y-102511839D01*
X110575104Y-102514981D01*
X110557272Y-102519364D01*
X110545721Y-102525424D01*
X110537193Y-102533600D01*
X110533718Y-102537784D01*
X110514628Y-102574765D01*
X110517507Y-102609708D01*
X110541900Y-102640136D01*
X110551714Y-102647097D01*
X110563174Y-102652523D01*
X110579032Y-102656603D01*
X110602037Y-102659529D01*
X110634938Y-102661492D01*
X110680484Y-102662683D01*
X110741427Y-102663292D01*
X110820514Y-102663511D01*
X110879044Y-102663534D01*
X110970593Y-102663460D01*
X111042313Y-102663113D01*
X111096955Y-102662301D01*
X111137268Y-102660833D01*
X111166002Y-102658519D01*
X111185907Y-102655167D01*
X111199732Y-102650588D01*
X111210228Y-102644589D01*
X111216189Y-102640136D01*
X111230309Y-102628850D01*
X111240971Y-102618301D01*
X111247108Y-102606893D01*
X111247657Y-102593030D01*
X111241552Y-102575114D01*
G36*
X111245740Y-101044657D02*
G01*
X111244826Y-100968299D01*
X111242689Y-100909783D01*
X111238825Y-100866745D01*
X111232733Y-100836817D01*
X111223910Y-100817632D01*
X111211854Y-100806824D01*
X111196061Y-100802027D01*
X111176030Y-100800873D01*
X111173665Y-100800867D01*
X111151008Y-100801869D01*
X111133497Y-100806604D01*
X111120426Y-100817667D01*
X111111087Y-100837652D01*
X111104773Y-100869154D01*
X111100778Y-100914768D01*
X111098394Y-100977087D01*
X111096914Y-101058707D01*
X111096586Y-101083723D01*
X111093533Y-101325800D01*
X111028622Y-101329186D01*
X110963711Y-101332571D01*
X110963711Y-101164424D01*
X110963469Y-101098734D01*
X110962444Y-101051828D01*
X110960189Y-101019917D01*
X110956258Y-100999209D01*
X110950202Y-100985916D01*
X110941576Y-100976245D01*
X110941507Y-100976183D01*
X110907888Y-100958644D01*
X110871552Y-100959278D01*
X110840577Y-100977686D01*
X110837393Y-100981329D01*
X110829188Y-100994259D01*
X110823479Y-101011976D01*
X110819838Y-101038430D01*
X110817833Y-101077568D01*
X110817036Y-101133338D01*
X110816955Y-101169006D01*
X110816955Y-101331445D01*
X110658911Y-101331445D01*
X110658911Y-101084839D01*
X110658769Y-101003420D01*
X110658186Y-100941590D01*
X110656932Y-100896363D01*
X110654773Y-100864752D01*
X110651477Y-100843769D01*
X110646811Y-100830427D01*
X110640543Y-100821739D01*
X110638267Y-100819550D01*
X110606720Y-100803386D01*
X110570832Y-100802203D01*
X110539715Y-100815464D01*
X110529729Y-100825957D01*
X110524231Y-100836871D01*
X110519978Y-100853783D01*
X110516820Y-100879367D01*
X110514608Y-100916299D01*
X110513194Y-100967254D01*
X110512428Y-101034906D01*
X110512162Y-101121931D01*
X110512155Y-101141606D01*
X110512213Y-101230089D01*
X110512533Y-101298773D01*
X110513333Y-101350436D01*
X110514833Y-101387855D01*
X110517251Y-101413810D01*
X110520806Y-101431078D01*
X110525718Y-101442438D01*
X110532205Y-101450668D01*
X110536862Y-101455183D01*
X110545111Y-101461979D01*
X110555331Y-101467288D01*
X110570200Y-101471294D01*
X110592398Y-101474179D01*
X110624607Y-101476126D01*
X110669504Y-101477319D01*
X110729772Y-101477939D01*
X110808089Y-101478171D01*
X110874006Y-101478200D01*
X110966372Y-101478129D01*
X111038883Y-101477792D01*
X111094263Y-101477002D01*
X111135235Y-101475574D01*
X111164522Y-101473321D01*
X111184847Y-101470057D01*
X111198934Y-101465596D01*
X111209505Y-101459752D01*
X111216189Y-101454803D01*
X111245933Y-101431406D01*
X111245933Y-101141226D01*
X111245740Y-101044657D01*
G37*
X111245740Y-101044657D02*
X111244826Y-100968299D01*
X111242689Y-100909783D01*
X111238825Y-100866745D01*
X111232733Y-100836817D01*
X111223910Y-100817632D01*
X111211854Y-100806824D01*
X111196061Y-100802027D01*
X111176030Y-100800873D01*
X111173665Y-100800867D01*
X111151008Y-100801869D01*
X111133497Y-100806604D01*
X111120426Y-100817667D01*
X111111087Y-100837652D01*
X111104773Y-100869154D01*
X111100778Y-100914768D01*
X111098394Y-100977087D01*
X111096914Y-101058707D01*
X111096586Y-101083723D01*
X111093533Y-101325800D01*
X111028622Y-101329186D01*
X110963711Y-101332571D01*
X110963711Y-101164424D01*
X110963469Y-101098734D01*
X110962444Y-101051828D01*
X110960189Y-101019917D01*
X110956258Y-100999209D01*
X110950202Y-100985916D01*
X110941576Y-100976245D01*
X110941507Y-100976183D01*
X110907888Y-100958644D01*
X110871552Y-100959278D01*
X110840577Y-100977686D01*
X110837393Y-100981329D01*
X110829188Y-100994259D01*
X110823479Y-101011976D01*
X110819838Y-101038430D01*
X110817833Y-101077568D01*
X110817036Y-101133338D01*
X110816955Y-101169006D01*
X110816955Y-101331445D01*
X110658911Y-101331445D01*
X110658911Y-101084839D01*
X110658769Y-101003420D01*
X110658186Y-100941590D01*
X110656932Y-100896363D01*
X110654773Y-100864752D01*
X110651477Y-100843769D01*
X110646811Y-100830427D01*
X110640543Y-100821739D01*
X110638267Y-100819550D01*
X110606720Y-100803386D01*
X110570832Y-100802203D01*
X110539715Y-100815464D01*
X110529729Y-100825957D01*
X110524231Y-100836871D01*
X110519978Y-100853783D01*
X110516820Y-100879367D01*
X110514608Y-100916299D01*
X110513194Y-100967254D01*
X110512428Y-101034906D01*
X110512162Y-101121931D01*
X110512155Y-101141606D01*
X110512213Y-101230089D01*
X110512533Y-101298773D01*
X110513333Y-101350436D01*
X110514833Y-101387855D01*
X110517251Y-101413810D01*
X110520806Y-101431078D01*
X110525718Y-101442438D01*
X110532205Y-101450668D01*
X110536862Y-101455183D01*
X110545111Y-101461979D01*
X110555331Y-101467288D01*
X110570200Y-101471294D01*
X110592398Y-101474179D01*
X110624607Y-101476126D01*
X110669504Y-101477319D01*
X110729772Y-101477939D01*
X110808089Y-101478171D01*
X110874006Y-101478200D01*
X110966372Y-101478129D01*
X111038883Y-101477792D01*
X111094263Y-101477002D01*
X111135235Y-101475574D01*
X111164522Y-101473321D01*
X111184847Y-101470057D01*
X111198934Y-101465596D01*
X111209505Y-101459752D01*
X111216189Y-101454803D01*
X111245933Y-101431406D01*
X111245933Y-101141226D01*
X111245740Y-101044657D01*
G36*
X111245725Y-100256691D02*
G01*
X111241364Y-100127712D01*
X111228139Y-100018009D01*
X111205259Y-99925774D01*
X111171930Y-99849198D01*
X111127362Y-99786473D01*
X111070764Y-99735788D01*
X111001342Y-99695337D01*
X110999649Y-99694541D01*
X110937517Y-99670399D01*
X110882491Y-99661797D01*
X110827113Y-99668769D01*
X110763927Y-99691346D01*
X110754311Y-99695628D01*
X110698034Y-99724828D01*
X110654549Y-99757644D01*
X110617583Y-99799998D01*
X110580865Y-99857810D01*
X110578948Y-99861169D01*
X110554773Y-99911496D01*
X110536718Y-99968379D01*
X110524161Y-100035473D01*
X110516478Y-100116435D01*
X110513047Y-100214918D01*
X110512749Y-100249714D01*
X110512155Y-100415406D01*
X110541900Y-100438803D01*
X110551681Y-100445743D01*
X110563103Y-100451158D01*
X110578905Y-100455235D01*
X110601825Y-100458163D01*
X110634604Y-100460133D01*
X110658911Y-100460775D01*
X110658911Y-100304156D01*
X110658911Y-100210274D01*
X110660517Y-100155336D01*
X110664745Y-100098940D01*
X110670708Y-100052655D01*
X110671210Y-100049861D01*
X110693264Y-99967652D01*
X110726400Y-99903886D01*
X110772153Y-99856548D01*
X110832061Y-99823618D01*
X110847939Y-99817892D01*
X110872667Y-99812279D01*
X110897098Y-99814709D01*
X110929600Y-99826533D01*
X110945566Y-99833660D01*
X110987994Y-99857000D01*
X111017760Y-99885120D01*
X111038489Y-99916060D01*
X111065463Y-99978034D01*
X111085002Y-100057349D01*
X111096254Y-100149747D01*
X111098730Y-100216667D01*
X111099178Y-100304156D01*
X110658911Y-100304156D01*
X110658911Y-100460775D01*
X110679979Y-100461332D01*
X110740689Y-100461950D01*
X110819474Y-100462175D01*
X110881080Y-100462200D01*
X111190515Y-100462200D01*
X111218224Y-100434491D01*
X111229456Y-100422194D01*
X111237147Y-100408897D01*
X111241960Y-100390328D01*
X111244554Y-100362214D01*
X111245590Y-100320283D01*
X111245730Y-100260263D01*
X111245725Y-100256691D01*
G37*
X111245725Y-100256691D02*
X111241364Y-100127712D01*
X111228139Y-100018009D01*
X111205259Y-99925774D01*
X111171930Y-99849198D01*
X111127362Y-99786473D01*
X111070764Y-99735788D01*
X111001342Y-99695337D01*
X110999649Y-99694541D01*
X110937517Y-99670399D01*
X110882491Y-99661797D01*
X110827113Y-99668769D01*
X110763927Y-99691346D01*
X110754311Y-99695628D01*
X110698034Y-99724828D01*
X110654549Y-99757644D01*
X110617583Y-99799998D01*
X110580865Y-99857810D01*
X110578948Y-99861169D01*
X110554773Y-99911496D01*
X110536718Y-99968379D01*
X110524161Y-100035473D01*
X110516478Y-100116435D01*
X110513047Y-100214918D01*
X110512749Y-100249714D01*
X110512155Y-100415406D01*
X110541900Y-100438803D01*
X110551681Y-100445743D01*
X110563103Y-100451158D01*
X110578905Y-100455235D01*
X110601825Y-100458163D01*
X110634604Y-100460133D01*
X110658911Y-100460775D01*
X110658911Y-100304156D01*
X110658911Y-100210274D01*
X110660517Y-100155336D01*
X110664745Y-100098940D01*
X110670708Y-100052655D01*
X110671210Y-100049861D01*
X110693264Y-99967652D01*
X110726400Y-99903886D01*
X110772153Y-99856548D01*
X110832061Y-99823618D01*
X110847939Y-99817892D01*
X110872667Y-99812279D01*
X110897098Y-99814709D01*
X110929600Y-99826533D01*
X110945566Y-99833660D01*
X110987994Y-99857000D01*
X111017760Y-99885120D01*
X111038489Y-99916060D01*
X111065463Y-99978034D01*
X111085002Y-100057349D01*
X111096254Y-100149747D01*
X111098730Y-100216667D01*
X111099178Y-100304156D01*
X110658911Y-100304156D01*
X110658911Y-100460775D01*
X110679979Y-100461332D01*
X110740689Y-100461950D01*
X110819474Y-100462175D01*
X110881080Y-100462200D01*
X111190515Y-100462200D01*
X111218224Y-100434491D01*
X111229456Y-100422194D01*
X111237147Y-100408897D01*
X111241960Y-100390328D01*
X111244554Y-100362214D01*
X111245590Y-100320283D01*
X111245730Y-100260263D01*
X111245725Y-100256691D01*
G36*
X111243966Y-97530335D02*
G01*
X111236965Y-97510745D01*
X111236623Y-97509990D01*
X111216322Y-97483387D01*
X111195439Y-97468730D01*
X111185648Y-97465862D01*
X111172639Y-97466004D01*
X111154105Y-97470039D01*
X111127743Y-97478854D01*
X111091248Y-97493331D01*
X111042313Y-97514355D01*
X110978635Y-97542812D01*
X110897907Y-97579585D01*
X110853784Y-97599825D01*
X110775015Y-97636375D01*
X110702577Y-97670685D01*
X110639120Y-97701448D01*
X110587292Y-97727352D01*
X110549741Y-97747090D01*
X110529116Y-97759350D01*
X110526267Y-97761776D01*
X110513698Y-97792817D01*
X110515381Y-97827879D01*
X110530668Y-97856000D01*
X110531911Y-97857146D01*
X110548846Y-97868332D01*
X110581830Y-97887096D01*
X110626620Y-97911125D01*
X110678968Y-97938103D01*
X110698258Y-97947799D01*
X110844850Y-98020986D01*
X110685607Y-98100760D01*
X110630585Y-98129233D01*
X110582868Y-98155650D01*
X110546107Y-98177852D01*
X110523956Y-98193681D01*
X110519259Y-98199046D01*
X110512898Y-98240743D01*
X110526267Y-98275151D01*
X110540554Y-98285272D01*
X110572308Y-98302786D01*
X110618403Y-98326265D01*
X110675715Y-98354280D01*
X110741120Y-98385401D01*
X110811493Y-98418201D01*
X110883709Y-98451250D01*
X110954645Y-98483119D01*
X111021175Y-98512381D01*
X111080174Y-98537605D01*
X111128519Y-98557364D01*
X111163085Y-98570228D01*
X111180747Y-98574769D01*
X111181387Y-98574723D01*
X111203612Y-98563674D01*
X111226247Y-98541590D01*
X111227232Y-98540290D01*
X111242575Y-98513147D01*
X111242426Y-98488042D01*
X111239534Y-98478632D01*
X111233282Y-98467166D01*
X111220986Y-98454990D01*
X111200092Y-98440643D01*
X111168051Y-98422664D01*
X111122312Y-98399593D01*
X111060323Y-98369970D01*
X111003102Y-98343255D01*
X110936774Y-98312520D01*
X110877126Y-98284979D01*
X110827275Y-98262062D01*
X110790336Y-98245202D01*
X110769427Y-98235827D01*
X110766155Y-98234460D01*
X110771503Y-98228311D01*
X110793891Y-98214178D01*
X110830054Y-98193943D01*
X110876723Y-98169485D01*
X110895978Y-98159752D01*
X110960996Y-98126783D01*
X111008346Y-98101357D01*
X111040781Y-98081388D01*
X111061054Y-98064790D01*
X111071918Y-98049476D01*
X111076125Y-98033360D01*
X111076600Y-98022857D01*
X111074958Y-98004330D01*
X111068169Y-97988096D01*
X111053434Y-97971965D01*
X111027956Y-97953749D01*
X110988939Y-97931261D01*
X110933586Y-97902311D01*
X110902097Y-97886338D01*
X110851913Y-97860430D01*
X110810296Y-97837833D01*
X110780758Y-97820542D01*
X110766811Y-97810550D01*
X110766230Y-97809191D01*
X110777207Y-97802739D01*
X110805710Y-97788292D01*
X110848756Y-97767297D01*
X110903362Y-97741203D01*
X110966546Y-97711454D01*
X110997929Y-97696820D01*
X111078922Y-97658750D01*
X111141244Y-97628095D01*
X111186929Y-97603263D01*
X111218011Y-97582663D01*
X111236522Y-97564702D01*
X111244496Y-97547790D01*
X111243966Y-97530335D01*
G37*
X111243966Y-97530335D02*
X111236965Y-97510745D01*
X111236623Y-97509990D01*
X111216322Y-97483387D01*
X111195439Y-97468730D01*
X111185648Y-97465862D01*
X111172639Y-97466004D01*
X111154105Y-97470039D01*
X111127743Y-97478854D01*
X111091248Y-97493331D01*
X111042313Y-97514355D01*
X110978635Y-97542812D01*
X110897907Y-97579585D01*
X110853784Y-97599825D01*
X110775015Y-97636375D01*
X110702577Y-97670685D01*
X110639120Y-97701448D01*
X110587292Y-97727352D01*
X110549741Y-97747090D01*
X110529116Y-97759350D01*
X110526267Y-97761776D01*
X110513698Y-97792817D01*
X110515381Y-97827879D01*
X110530668Y-97856000D01*
X110531911Y-97857146D01*
X110548846Y-97868332D01*
X110581830Y-97887096D01*
X110626620Y-97911125D01*
X110678968Y-97938103D01*
X110698258Y-97947799D01*
X110844850Y-98020986D01*
X110685607Y-98100760D01*
X110630585Y-98129233D01*
X110582868Y-98155650D01*
X110546107Y-98177852D01*
X110523956Y-98193681D01*
X110519259Y-98199046D01*
X110512898Y-98240743D01*
X110526267Y-98275151D01*
X110540554Y-98285272D01*
X110572308Y-98302786D01*
X110618403Y-98326265D01*
X110675715Y-98354280D01*
X110741120Y-98385401D01*
X110811493Y-98418201D01*
X110883709Y-98451250D01*
X110954645Y-98483119D01*
X111021175Y-98512381D01*
X111080174Y-98537605D01*
X111128519Y-98557364D01*
X111163085Y-98570228D01*
X111180747Y-98574769D01*
X111181387Y-98574723D01*
X111203612Y-98563674D01*
X111226247Y-98541590D01*
X111227232Y-98540290D01*
X111242575Y-98513147D01*
X111242426Y-98488042D01*
X111239534Y-98478632D01*
X111233282Y-98467166D01*
X111220986Y-98454990D01*
X111200092Y-98440643D01*
X111168051Y-98422664D01*
X111122312Y-98399593D01*
X111060323Y-98369970D01*
X111003102Y-98343255D01*
X110936774Y-98312520D01*
X110877126Y-98284979D01*
X110827275Y-98262062D01*
X110790336Y-98245202D01*
X110769427Y-98235827D01*
X110766155Y-98234460D01*
X110771503Y-98228311D01*
X110793891Y-98214178D01*
X110830054Y-98193943D01*
X110876723Y-98169485D01*
X110895978Y-98159752D01*
X110960996Y-98126783D01*
X111008346Y-98101357D01*
X111040781Y-98081388D01*
X111061054Y-98064790D01*
X111071918Y-98049476D01*
X111076125Y-98033360D01*
X111076600Y-98022857D01*
X111074958Y-98004330D01*
X111068169Y-97988096D01*
X111053434Y-97971965D01*
X111027956Y-97953749D01*
X110988939Y-97931261D01*
X110933586Y-97902311D01*
X110902097Y-97886338D01*
X110851913Y-97860430D01*
X110810296Y-97837833D01*
X110780758Y-97820542D01*
X110766811Y-97810550D01*
X110766230Y-97809191D01*
X110777207Y-97802739D01*
X110805710Y-97788292D01*
X110848756Y-97767297D01*
X110903362Y-97741203D01*
X110966546Y-97711454D01*
X110997929Y-97696820D01*
X111078922Y-97658750D01*
X111141244Y-97628095D01*
X111186929Y-97603263D01*
X111218011Y-97582663D01*
X111236522Y-97564702D01*
X111244496Y-97547790D01*
X111243966Y-97530335D01*
G36*
X111239123Y-97086386D02*
G01*
X111224353Y-97062673D01*
X111202773Y-97036022D01*
X110881227Y-97036022D01*
X110787170Y-97036107D01*
X110713068Y-97036471D01*
X110656296Y-97037276D01*
X110614232Y-97038687D01*
X110584252Y-97040867D01*
X110563733Y-97043979D01*
X110550051Y-97048186D01*
X110540584Y-97053652D01*
X110535918Y-97057528D01*
X110515425Y-97088966D01*
X110516261Y-97124767D01*
X110533736Y-97156127D01*
X110555316Y-97182778D01*
X111202773Y-97182778D01*
X111224353Y-97156127D01*
X111240051Y-97130406D01*
X111245933Y-97109400D01*
X111239123Y-97086386D01*
G37*
X111239123Y-97086386D02*
X111224353Y-97062673D01*
X111202773Y-97036022D01*
X110881227Y-97036022D01*
X110787170Y-97036107D01*
X110713068Y-97036471D01*
X110656296Y-97037276D01*
X110614232Y-97038687D01*
X110584252Y-97040867D01*
X110563733Y-97043979D01*
X110550051Y-97048186D01*
X110540584Y-97053652D01*
X110535918Y-97057528D01*
X110515425Y-97088966D01*
X110516261Y-97124767D01*
X110533736Y-97156127D01*
X110555316Y-97182778D01*
X111202773Y-97182778D01*
X111224353Y-97156127D01*
X111240051Y-97130406D01*
X111245933Y-97109400D01*
X111239123Y-97086386D01*
G36*
X111245837Y-96311935D02*
G01*
X111245458Y-96233228D01*
X111244667Y-96172137D01*
X111243330Y-96126183D01*
X111241317Y-96092886D01*
X111238494Y-96069764D01*
X111234731Y-96054338D01*
X111229895Y-96044129D01*
X111226178Y-96039187D01*
X111193642Y-96013543D01*
X111159862Y-96010441D01*
X111129174Y-96026289D01*
X111116911Y-96036652D01*
X111108550Y-96047804D01*
X111103343Y-96063965D01*
X111100543Y-96089358D01*
X111099404Y-96128202D01*
X111099179Y-96184720D01*
X111099178Y-96195820D01*
X111099178Y-96341756D01*
X110828244Y-96341756D01*
X110742846Y-96341852D01*
X110677136Y-96342289D01*
X110628226Y-96343288D01*
X110593227Y-96345072D01*
X110569251Y-96347863D01*
X110553407Y-96351883D01*
X110542809Y-96357355D01*
X110534733Y-96364334D01*
X110514888Y-96397266D01*
X110516452Y-96431646D01*
X110539094Y-96462824D01*
X110541900Y-96465114D01*
X110552508Y-96472571D01*
X110564919Y-96478253D01*
X110582150Y-96482399D01*
X110607216Y-96485250D01*
X110643133Y-96487046D01*
X110692917Y-96488028D01*
X110759583Y-96488436D01*
X110835411Y-96488511D01*
X111099178Y-96488511D01*
X111099178Y-96627873D01*
X111099582Y-96687678D01*
X111101160Y-96729082D01*
X111104453Y-96756252D01*
X111110008Y-96773354D01*
X111118369Y-96784557D01*
X111119822Y-96785917D01*
X111153061Y-96802275D01*
X111190638Y-96800828D01*
X111223355Y-96782022D01*
X111229702Y-96774750D01*
X111234734Y-96765373D01*
X111238604Y-96751391D01*
X111241463Y-96730304D01*
X111243465Y-96699611D01*
X111244761Y-96656811D01*
X111245502Y-96599405D01*
X111245842Y-96524890D01*
X111245932Y-96430767D01*
X111245933Y-96410740D01*
X111245837Y-96311935D01*
G37*
X111245837Y-96311935D02*
X111245458Y-96233228D01*
X111244667Y-96172137D01*
X111243330Y-96126183D01*
X111241317Y-96092886D01*
X111238494Y-96069764D01*
X111234731Y-96054338D01*
X111229895Y-96044129D01*
X111226178Y-96039187D01*
X111193642Y-96013543D01*
X111159862Y-96010441D01*
X111129174Y-96026289D01*
X111116911Y-96036652D01*
X111108550Y-96047804D01*
X111103343Y-96063965D01*
X111100543Y-96089358D01*
X111099404Y-96128202D01*
X111099179Y-96184720D01*
X111099178Y-96195820D01*
X111099178Y-96341756D01*
X110828244Y-96341756D01*
X110742846Y-96341852D01*
X110677136Y-96342289D01*
X110628226Y-96343288D01*
X110593227Y-96345072D01*
X110569251Y-96347863D01*
X110553407Y-96351883D01*
X110542809Y-96357355D01*
X110534733Y-96364334D01*
X110514888Y-96397266D01*
X110516452Y-96431646D01*
X110539094Y-96462824D01*
X110541900Y-96465114D01*
X110552508Y-96472571D01*
X110564919Y-96478253D01*
X110582150Y-96482399D01*
X110607216Y-96485250D01*
X110643133Y-96487046D01*
X110692917Y-96488028D01*
X110759583Y-96488436D01*
X110835411Y-96488511D01*
X111099178Y-96488511D01*
X111099178Y-96627873D01*
X111099582Y-96687678D01*
X111101160Y-96729082D01*
X111104453Y-96756252D01*
X111110008Y-96773354D01*
X111118369Y-96784557D01*
X111119822Y-96785917D01*
X111153061Y-96802275D01*
X111190638Y-96800828D01*
X111223355Y-96782022D01*
X111229702Y-96774750D01*
X111234734Y-96765373D01*
X111238604Y-96751391D01*
X111241463Y-96730304D01*
X111243465Y-96699611D01*
X111244761Y-96656811D01*
X111245502Y-96599405D01*
X111245842Y-96524890D01*
X111245932Y-96430767D01*
X111245933Y-96410740D01*
X111245837Y-96311935D01*
G36*
X111240467Y-95046177D02*
G01*
X111218224Y-95014798D01*
X111190515Y-94987089D01*
X110881080Y-94987089D01*
X110789201Y-94987162D01*
X110717160Y-94987505D01*
X110662220Y-94988308D01*
X110621640Y-94989759D01*
X110592683Y-94992048D01*
X110572609Y-94995364D01*
X110558679Y-94999895D01*
X110548155Y-95005831D01*
X110541900Y-95010486D01*
X110517327Y-95041217D01*
X110514659Y-95076504D01*
X110529729Y-95108755D01*
X110538626Y-95119412D01*
X110550443Y-95126536D01*
X110569474Y-95130833D01*
X110600008Y-95133009D01*
X110646338Y-95133772D01*
X110682129Y-95133845D01*
X110816955Y-95133845D01*
X110816955Y-95630556D01*
X110694300Y-95630556D01*
X110638213Y-95631069D01*
X110599667Y-95633124D01*
X110573639Y-95637492D01*
X110555103Y-95644944D01*
X110541900Y-95653953D01*
X110517396Y-95684856D01*
X110514494Y-95719804D01*
X110531911Y-95753262D01*
X110541041Y-95762396D01*
X110553145Y-95768848D01*
X110571999Y-95773103D01*
X110601380Y-95775648D01*
X110645063Y-95776971D01*
X110706825Y-95777557D01*
X110721000Y-95777625D01*
X110837369Y-95778109D01*
X110933273Y-95778359D01*
X111010823Y-95778277D01*
X111072131Y-95777769D01*
X111119310Y-95776738D01*
X111154470Y-95775087D01*
X111179724Y-95772721D01*
X111197183Y-95769543D01*
X111208959Y-95765456D01*
X111217165Y-95760366D01*
X111223355Y-95754734D01*
X111243156Y-95722872D01*
X111240467Y-95689643D01*
X111218224Y-95658265D01*
X111203874Y-95645567D01*
X111188022Y-95637474D01*
X111165446Y-95632958D01*
X111130922Y-95630994D01*
X111079224Y-95630556D01*
X110963711Y-95630556D01*
X110963711Y-95133845D01*
X111082244Y-95133845D01*
X111136852Y-95133338D01*
X111173725Y-95131302D01*
X111197693Y-95126965D01*
X111213585Y-95119553D01*
X111223355Y-95111267D01*
X111243156Y-95079406D01*
X111240467Y-95046177D01*
G37*
X111240467Y-95046177D02*
X111218224Y-95014798D01*
X111190515Y-94987089D01*
X110881080Y-94987089D01*
X110789201Y-94987162D01*
X110717160Y-94987505D01*
X110662220Y-94988308D01*
X110621640Y-94989759D01*
X110592683Y-94992048D01*
X110572609Y-94995364D01*
X110558679Y-94999895D01*
X110548155Y-95005831D01*
X110541900Y-95010486D01*
X110517327Y-95041217D01*
X110514659Y-95076504D01*
X110529729Y-95108755D01*
X110538626Y-95119412D01*
X110550443Y-95126536D01*
X110569474Y-95130833D01*
X110600008Y-95133009D01*
X110646338Y-95133772D01*
X110682129Y-95133845D01*
X110816955Y-95133845D01*
X110816955Y-95630556D01*
X110694300Y-95630556D01*
X110638213Y-95631069D01*
X110599667Y-95633124D01*
X110573639Y-95637492D01*
X110555103Y-95644944D01*
X110541900Y-95653953D01*
X110517396Y-95684856D01*
X110514494Y-95719804D01*
X110531911Y-95753262D01*
X110541041Y-95762396D01*
X110553145Y-95768848D01*
X110571999Y-95773103D01*
X110601380Y-95775648D01*
X110645063Y-95776971D01*
X110706825Y-95777557D01*
X110721000Y-95777625D01*
X110837369Y-95778109D01*
X110933273Y-95778359D01*
X111010823Y-95778277D01*
X111072131Y-95777769D01*
X111119310Y-95776738D01*
X111154470Y-95775087D01*
X111179724Y-95772721D01*
X111197183Y-95769543D01*
X111208959Y-95765456D01*
X111217165Y-95760366D01*
X111223355Y-95754734D01*
X111243156Y-95722872D01*
X111240467Y-95689643D01*
X111218224Y-95658265D01*
X111203874Y-95645567D01*
X111188022Y-95637474D01*
X111165446Y-95632958D01*
X111130922Y-95630994D01*
X111079224Y-95630556D01*
X110963711Y-95630556D01*
X110963711Y-95133845D01*
X111082244Y-95133845D01*
X111136852Y-95133338D01*
X111173725Y-95131302D01*
X111197693Y-95126965D01*
X111213585Y-95119553D01*
X111223355Y-95111267D01*
X111243156Y-95079406D01*
X111240467Y-95046177D01*
D12*
X119250000Y-97595000D02*
X119250000Y-98925000D01*
X119250000Y-98925000D02*
X120580000Y-98925000D01*
X119250000Y-96325000D02*
X121850000Y-96325000D01*
X121850000Y-96325000D02*
X121850000Y-98925000D01*
X121850000Y-98925000D02*
X126990000Y-98925000D01*
X126990000Y-93725000D02*
X126990000Y-98925000D01*
X119250000Y-93725000D02*
X126990000Y-93725000D01*
X119250000Y-93725000D02*
X119250000Y-96325000D01*
X119250000Y-105215000D02*
X119250000Y-106545000D01*
X119250000Y-106545000D02*
X120580000Y-106545000D01*
X121850000Y-106545000D02*
X142230000Y-106545000D01*
X142230000Y-103885000D02*
X142230000Y-106545000D01*
X121850000Y-103885000D02*
X142230000Y-103885000D01*
X121850000Y-103885000D02*
X121850000Y-106545000D01*
X119250000Y-87335000D02*
X119250000Y-84675000D01*
X132010000Y-87335000D02*
X119250000Y-87335000D01*
X132010000Y-84675000D02*
X119250000Y-84675000D01*
X132010000Y-87335000D02*
X132010000Y-84675000D01*
X133280000Y-87335000D02*
X134610000Y-87335000D01*
X134610000Y-87335000D02*
X134610000Y-86005000D01*
X126870000Y-93725000D02*
X126870000Y-96325000D01*
X126870000Y-93725000D02*
X139690000Y-93725000D01*
X139690000Y-93725000D02*
X139690000Y-98925000D01*
X129470000Y-98925000D02*
X139690000Y-98925000D01*
X129470000Y-96325000D02*
X129470000Y-98925000D01*
X126870000Y-96325000D02*
X129470000Y-96325000D01*
X126870000Y-98925000D02*
X128200000Y-98925000D01*
X126870000Y-97595000D02*
X126870000Y-98925000D01*
X148615000Y-93725000D02*
X148615000Y-98925000D01*
X146015000Y-93725000D02*
X148615000Y-93725000D01*
X143415000Y-98925000D02*
X148615000Y-98925000D01*
X146015000Y-93725000D02*
X146015000Y-96325000D01*
X146015000Y-96325000D02*
X143415000Y-96325000D01*
X143415000Y-96325000D02*
X143415000Y-98925000D01*
X144745000Y-93725000D02*
X143415000Y-93725000D01*
X143415000Y-93725000D02*
X143415000Y-95055000D01*
D10*
X124882380Y-95991666D02*
X125596666Y-95991666D01*
X125739523Y-95944047D01*
X125834761Y-95848809D01*
X125882380Y-95705952D01*
X125882380Y-95610714D01*
X125882380Y-96991666D02*
X125882380Y-96420238D01*
X125882380Y-96705952D02*
X124882380Y-96705952D01*
X125025238Y-96610714D01*
X125120476Y-96515476D01*
X125168095Y-96420238D01*
%LPC*%
D13*
X147315000Y-105255000D03*
X147315000Y-107755000D03*
G36*
G01*
X119730000Y-96694000D02*
X121430000Y-96694000D01*
G75*
G02*
X121481000Y-96745000I0J-51000D01*
G01*
X121481000Y-98445000D01*
G75*
G02*
X121430000Y-98496000I-51000J0D01*
G01*
X119730000Y-98496000D01*
G75*
G02*
X119679000Y-98445000I0J51000D01*
G01*
X119679000Y-96745000D01*
G75*
G02*
X119730000Y-96694000I51000J0D01*
G01*
G37*
D14*
X120580000Y-95055000D03*
X123120000Y-97595000D03*
X123120000Y-95055000D03*
X125660000Y-97595000D03*
X125660000Y-95055000D03*
G36*
G01*
X147720000Y-80424000D02*
X149320000Y-80424000D01*
G75*
G02*
X149371000Y-80475000I0J-51000D01*
G01*
X149371000Y-82075000D01*
G75*
G02*
X149320000Y-82126000I-51000J0D01*
G01*
X147720000Y-82126000D01*
G75*
G02*
X147669000Y-82075000I0J51000D01*
G01*
X147669000Y-80475000D01*
G75*
G02*
X147720000Y-80424000I51000J0D01*
G01*
G37*
D15*
X120580000Y-88895000D03*
X145980000Y-81275000D03*
X123120000Y-88895000D03*
X143440000Y-81275000D03*
X125660000Y-88895000D03*
X140900000Y-81275000D03*
X128200000Y-88895000D03*
X138360000Y-81275000D03*
X130740000Y-88895000D03*
X135820000Y-81275000D03*
X133280000Y-88895000D03*
X133280000Y-81275000D03*
X135820000Y-88895000D03*
X130740000Y-81275000D03*
X138360000Y-88895000D03*
X128200000Y-81275000D03*
X140900000Y-88895000D03*
X125660000Y-81275000D03*
X143440000Y-88895000D03*
X123120000Y-81275000D03*
X145980000Y-88895000D03*
X120580000Y-81275000D03*
X148520000Y-88895000D03*
G36*
G01*
X119730000Y-104314000D02*
X121430000Y-104314000D01*
G75*
G02*
X121481000Y-104365000I0J-51000D01*
G01*
X121481000Y-106065000D01*
G75*
G02*
X121430000Y-106116000I-51000J0D01*
G01*
X119730000Y-106116000D01*
G75*
G02*
X119679000Y-106065000I0J51000D01*
G01*
X119679000Y-104365000D01*
G75*
G02*
X119730000Y-104314000I51000J0D01*
G01*
G37*
D14*
X123120000Y-105215000D03*
X125660000Y-105215000D03*
X128200000Y-105215000D03*
X130740000Y-105215000D03*
X133280000Y-105215000D03*
X135820000Y-105215000D03*
X138360000Y-105215000D03*
X140900000Y-105215000D03*
G36*
G01*
X108366000Y-91650000D02*
X108366000Y-93250000D01*
G75*
G02*
X108315000Y-93301000I-51000J0D01*
G01*
X106715000Y-93301000D01*
G75*
G02*
X106664000Y-93250000I0J51000D01*
G01*
X106664000Y-91650000D01*
G75*
G02*
X106715000Y-91599000I51000J0D01*
G01*
X108315000Y-91599000D01*
G75*
G02*
X108366000Y-91650000I0J-51000D01*
G01*
G37*
D15*
X99895000Y-84830000D03*
X107515000Y-89910000D03*
X99895000Y-87370000D03*
X107515000Y-87370000D03*
X99895000Y-89910000D03*
X107515000Y-84830000D03*
X99895000Y-92450000D03*
G36*
G01*
X108366000Y-105825000D02*
X108366000Y-107425000D01*
G75*
G02*
X108315000Y-107476000I-51000J0D01*
G01*
X106715000Y-107476000D01*
G75*
G02*
X106664000Y-107425000I0J51000D01*
G01*
X106664000Y-105825000D01*
G75*
G02*
X106715000Y-105774000I51000J0D01*
G01*
X108315000Y-105774000D01*
G75*
G02*
X108366000Y-105825000I0J-51000D01*
G01*
G37*
X99895000Y-99005000D03*
X107515000Y-104085000D03*
X99895000Y-101545000D03*
X107515000Y-101545000D03*
X99895000Y-104085000D03*
X107515000Y-99005000D03*
X99895000Y-106625000D03*
G36*
G01*
X112515000Y-75924000D02*
X114215000Y-75924000D01*
G75*
G02*
X114266000Y-75975000I0J-51000D01*
G01*
X114266000Y-77675000D01*
G75*
G02*
X114215000Y-77726000I-51000J0D01*
G01*
X112515000Y-77726000D01*
G75*
G02*
X112464000Y-77675000I0J51000D01*
G01*
X112464000Y-75975000D01*
G75*
G02*
X112515000Y-75924000I51000J0D01*
G01*
G37*
D14*
X110825000Y-76825000D03*
X108285000Y-76825000D03*
X105745000Y-76825000D03*
X103205000Y-76825000D03*
G36*
G01*
X121430000Y-77676000D02*
X119730000Y-77676000D01*
G75*
G02*
X119679000Y-77625000I0J51000D01*
G01*
X119679000Y-75925000D01*
G75*
G02*
X119730000Y-75874000I51000J0D01*
G01*
X121430000Y-75874000D01*
G75*
G02*
X121481000Y-75925000I0J-51000D01*
G01*
X121481000Y-77625000D01*
G75*
G02*
X121430000Y-77676000I-51000J0D01*
G01*
G37*
X123120000Y-76775000D03*
X125660000Y-76775000D03*
X128200000Y-76775000D03*
G36*
G01*
X134130000Y-86906000D02*
X132430000Y-86906000D01*
G75*
G02*
X132379000Y-86855000I0J51000D01*
G01*
X132379000Y-85155000D01*
G75*
G02*
X132430000Y-85104000I51000J0D01*
G01*
X134130000Y-85104000D01*
G75*
G02*
X134181000Y-85155000I0J-51000D01*
G01*
X134181000Y-86855000D01*
G75*
G02*
X134130000Y-86906000I-51000J0D01*
G01*
G37*
X130740000Y-86005000D03*
X128200000Y-86005000D03*
X125660000Y-86005000D03*
X123120000Y-86005000D03*
X120580000Y-86005000D03*
G36*
G01*
X127350000Y-96694000D02*
X129050000Y-96694000D01*
G75*
G02*
X129101000Y-96745000I0J-51000D01*
G01*
X129101000Y-98445000D01*
G75*
G02*
X129050000Y-98496000I-51000J0D01*
G01*
X127350000Y-98496000D01*
G75*
G02*
X127299000Y-98445000I0J51000D01*
G01*
X127299000Y-96745000D01*
G75*
G02*
X127350000Y-96694000I51000J0D01*
G01*
G37*
X128200000Y-95055000D03*
X130740000Y-97595000D03*
X130740000Y-95055000D03*
X133280000Y-97595000D03*
X133280000Y-95055000D03*
X135820000Y-97595000D03*
X135820000Y-95055000D03*
X138360000Y-97595000D03*
X138360000Y-95055000D03*
G36*
G01*
X143895000Y-94154000D02*
X145595000Y-94154000D01*
G75*
G02*
X145646000Y-94205000I0J-51000D01*
G01*
X145646000Y-95905000D01*
G75*
G02*
X145595000Y-95956000I-51000J0D01*
G01*
X143895000Y-95956000D01*
G75*
G02*
X143844000Y-95905000I0J51000D01*
G01*
X143844000Y-94205000D01*
G75*
G02*
X143895000Y-94154000I51000J0D01*
G01*
G37*
X144745000Y-97595000D03*
X147285000Y-95055000D03*
X147285000Y-97595000D03*
M02*
