M48
; DRILL file {KiCad (5.1.9)-1} date 04/19/23 20:39:28
; FORMAT={-:-/ absolute / metric / decimal}
; #@! TF.CreationDate,2023-04-19T20:39:28+01:00
; #@! TF.GenerationSoftware,Kicad,Pcbnew,(5.1.9)-1
; #@! TF.FileFunction,Plated,1,2,PTH
FMAT,2
METRIC
T1C0.400
T2C0.800
T3C1.000
%
G90
G05
T1
X123.12Y-83.796
X127.515Y-84.2
T2
X99.895Y-84.83
X99.895Y-87.37
X99.895Y-89.91
X99.895Y-92.45
X99.895Y-99.005
X99.895Y-101.545
X99.895Y-104.085
X99.895Y-106.625
X107.515Y-84.83
X107.515Y-87.37
X107.515Y-89.91
X107.515Y-92.45
X107.515Y-99.005
X107.515Y-101.545
X107.515Y-104.085
X107.515Y-106.625
X120.58Y-81.275
X120.58Y-88.895
X123.12Y-81.275
X123.12Y-88.895
X125.66Y-81.275
X125.66Y-88.895
X128.2Y-81.275
X128.2Y-88.895
X130.74Y-81.275
X130.74Y-88.895
X133.28Y-81.275
X133.28Y-88.895
X135.82Y-81.275
X135.82Y-88.895
X138.36Y-81.275
X138.36Y-88.895
X140.9Y-81.275
X140.9Y-88.895
X143.44Y-81.275
X143.44Y-88.895
X145.98Y-81.275
X145.98Y-88.895
X147.315Y-105.255
X147.315Y-107.755
X148.52Y-81.275
X148.52Y-88.895
T3
X103.205Y-76.825
X105.745Y-76.825
X108.285Y-76.825
X110.825Y-76.825
X113.365Y-76.825
X120.58Y-76.775
X120.58Y-86.535
X120.58Y-95.055
X120.58Y-97.595
X120.58Y-105.215
X123.12Y-76.775
X123.12Y-86.535
X123.12Y-95.055
X123.12Y-97.595
X123.12Y-105.215
X125.66Y-76.775
X125.66Y-86.535
X125.66Y-95.055
X125.66Y-97.595
X125.66Y-105.215
X128.2Y-76.775
X128.2Y-86.535
X128.2Y-105.215
X130.74Y-86.535
X130.74Y-95.055
X130.74Y-97.595
X130.74Y-105.215
X133.28Y-86.535
X133.28Y-95.055
X133.28Y-97.595
X133.28Y-105.215
X135.82Y-95.055
X135.82Y-97.595
X135.82Y-105.215
X138.36Y-95.055
X138.36Y-97.595
X138.36Y-105.215
X140.9Y-95.055
X140.9Y-97.595
X140.9Y-105.215
X144.745Y-95.055
X144.745Y-97.595
X147.285Y-95.055
X147.285Y-97.595
T0
M30
