G04 #@! TF.GenerationSoftware,KiCad,Pcbnew,(5.1.9)-1*
G04 #@! TF.CreationDate,2023-05-10T20:53:47+01:00*
G04 #@! TF.ProjectId,Memory Decoder,4d656d6f-7279-4204-9465-636f6465722e,Rev001*
G04 #@! TF.SameCoordinates,Original*
G04 #@! TF.FileFunction,Soldermask,Bot*
G04 #@! TF.FilePolarity,Negative*
%FSLAX46Y46*%
G04 Gerber Fmt 4.6, Leading zero omitted, Abs format (unit mm)*
G04 Created by KiCad (PCBNEW (5.1.9)-1) date 2023-05-10 20:53:47*
%MOMM*%
%LPD*%
G01*
G04 APERTURE LIST*
%ADD10C,1.702000*%
%ADD11O,1.802000X1.802000*%
%ADD12O,1.702000X1.702000*%
G04 APERTURE END LIST*
D10*
X147315000Y-105255000D03*
X147315000Y-107755000D03*
G36*
G01*
X119730000Y-96694000D02*
X121430000Y-96694000D01*
G75*
G02*
X121481000Y-96745000I0J-51000D01*
G01*
X121481000Y-98445000D01*
G75*
G02*
X121430000Y-98496000I-51000J0D01*
G01*
X119730000Y-98496000D01*
G75*
G02*
X119679000Y-98445000I0J51000D01*
G01*
X119679000Y-96745000D01*
G75*
G02*
X119730000Y-96694000I51000J0D01*
G01*
G37*
D11*
X120580000Y-95055000D03*
X123120000Y-97595000D03*
X123120000Y-95055000D03*
X125660000Y-97595000D03*
X125660000Y-95055000D03*
G36*
G01*
X147720000Y-80424000D02*
X149320000Y-80424000D01*
G75*
G02*
X149371000Y-80475000I0J-51000D01*
G01*
X149371000Y-82075000D01*
G75*
G02*
X149320000Y-82126000I-51000J0D01*
G01*
X147720000Y-82126000D01*
G75*
G02*
X147669000Y-82075000I0J51000D01*
G01*
X147669000Y-80475000D01*
G75*
G02*
X147720000Y-80424000I51000J0D01*
G01*
G37*
D12*
X120580000Y-88895000D03*
X145980000Y-81275000D03*
X123120000Y-88895000D03*
X143440000Y-81275000D03*
X125660000Y-88895000D03*
X140900000Y-81275000D03*
X128200000Y-88895000D03*
X138360000Y-81275000D03*
X130740000Y-88895000D03*
X135820000Y-81275000D03*
X133280000Y-88895000D03*
X133280000Y-81275000D03*
X135820000Y-88895000D03*
X130740000Y-81275000D03*
X138360000Y-88895000D03*
X128200000Y-81275000D03*
X140900000Y-88895000D03*
X125660000Y-81275000D03*
X143440000Y-88895000D03*
X123120000Y-81275000D03*
X145980000Y-88895000D03*
X120580000Y-81275000D03*
X148520000Y-88895000D03*
G36*
G01*
X119730000Y-104314000D02*
X121430000Y-104314000D01*
G75*
G02*
X121481000Y-104365000I0J-51000D01*
G01*
X121481000Y-106065000D01*
G75*
G02*
X121430000Y-106116000I-51000J0D01*
G01*
X119730000Y-106116000D01*
G75*
G02*
X119679000Y-106065000I0J51000D01*
G01*
X119679000Y-104365000D01*
G75*
G02*
X119730000Y-104314000I51000J0D01*
G01*
G37*
D11*
X123120000Y-105215000D03*
X125660000Y-105215000D03*
X128200000Y-105215000D03*
X130740000Y-105215000D03*
X133280000Y-105215000D03*
X135820000Y-105215000D03*
X138360000Y-105215000D03*
X140900000Y-105215000D03*
G36*
G01*
X108366000Y-91650000D02*
X108366000Y-93250000D01*
G75*
G02*
X108315000Y-93301000I-51000J0D01*
G01*
X106715000Y-93301000D01*
G75*
G02*
X106664000Y-93250000I0J51000D01*
G01*
X106664000Y-91650000D01*
G75*
G02*
X106715000Y-91599000I51000J0D01*
G01*
X108315000Y-91599000D01*
G75*
G02*
X108366000Y-91650000I0J-51000D01*
G01*
G37*
D12*
X99895000Y-84830000D03*
X107515000Y-89910000D03*
X99895000Y-87370000D03*
X107515000Y-87370000D03*
X99895000Y-89910000D03*
X107515000Y-84830000D03*
X99895000Y-92450000D03*
G36*
G01*
X108366000Y-105825000D02*
X108366000Y-107425000D01*
G75*
G02*
X108315000Y-107476000I-51000J0D01*
G01*
X106715000Y-107476000D01*
G75*
G02*
X106664000Y-107425000I0J51000D01*
G01*
X106664000Y-105825000D01*
G75*
G02*
X106715000Y-105774000I51000J0D01*
G01*
X108315000Y-105774000D01*
G75*
G02*
X108366000Y-105825000I0J-51000D01*
G01*
G37*
X99895000Y-99005000D03*
X107515000Y-104085000D03*
X99895000Y-101545000D03*
X107515000Y-101545000D03*
X99895000Y-104085000D03*
X107515000Y-99005000D03*
X99895000Y-106625000D03*
G36*
G01*
X112515000Y-75924000D02*
X114215000Y-75924000D01*
G75*
G02*
X114266000Y-75975000I0J-51000D01*
G01*
X114266000Y-77675000D01*
G75*
G02*
X114215000Y-77726000I-51000J0D01*
G01*
X112515000Y-77726000D01*
G75*
G02*
X112464000Y-77675000I0J51000D01*
G01*
X112464000Y-75975000D01*
G75*
G02*
X112515000Y-75924000I51000J0D01*
G01*
G37*
D11*
X110825000Y-76825000D03*
X108285000Y-76825000D03*
X105745000Y-76825000D03*
X103205000Y-76825000D03*
G36*
G01*
X121430000Y-77676000D02*
X119730000Y-77676000D01*
G75*
G02*
X119679000Y-77625000I0J51000D01*
G01*
X119679000Y-75925000D01*
G75*
G02*
X119730000Y-75874000I51000J0D01*
G01*
X121430000Y-75874000D01*
G75*
G02*
X121481000Y-75925000I0J-51000D01*
G01*
X121481000Y-77625000D01*
G75*
G02*
X121430000Y-77676000I-51000J0D01*
G01*
G37*
X123120000Y-76775000D03*
X125660000Y-76775000D03*
X128200000Y-76775000D03*
G36*
G01*
X134130000Y-86906000D02*
X132430000Y-86906000D01*
G75*
G02*
X132379000Y-86855000I0J51000D01*
G01*
X132379000Y-85155000D01*
G75*
G02*
X132430000Y-85104000I51000J0D01*
G01*
X134130000Y-85104000D01*
G75*
G02*
X134181000Y-85155000I0J-51000D01*
G01*
X134181000Y-86855000D01*
G75*
G02*
X134130000Y-86906000I-51000J0D01*
G01*
G37*
X130740000Y-86005000D03*
X128200000Y-86005000D03*
X125660000Y-86005000D03*
X123120000Y-86005000D03*
X120580000Y-86005000D03*
G36*
G01*
X127350000Y-96694000D02*
X129050000Y-96694000D01*
G75*
G02*
X129101000Y-96745000I0J-51000D01*
G01*
X129101000Y-98445000D01*
G75*
G02*
X129050000Y-98496000I-51000J0D01*
G01*
X127350000Y-98496000D01*
G75*
G02*
X127299000Y-98445000I0J51000D01*
G01*
X127299000Y-96745000D01*
G75*
G02*
X127350000Y-96694000I51000J0D01*
G01*
G37*
X128200000Y-95055000D03*
X130740000Y-97595000D03*
X130740000Y-95055000D03*
X133280000Y-97595000D03*
X133280000Y-95055000D03*
X135820000Y-97595000D03*
X135820000Y-95055000D03*
X138360000Y-97595000D03*
X138360000Y-95055000D03*
G36*
G01*
X143895000Y-94154000D02*
X145595000Y-94154000D01*
G75*
G02*
X145646000Y-94205000I0J-51000D01*
G01*
X145646000Y-95905000D01*
G75*
G02*
X145595000Y-95956000I-51000J0D01*
G01*
X143895000Y-95956000D01*
G75*
G02*
X143844000Y-95905000I0J51000D01*
G01*
X143844000Y-94205000D01*
G75*
G02*
X143895000Y-94154000I51000J0D01*
G01*
G37*
X144745000Y-97595000D03*
X147285000Y-95055000D03*
X147285000Y-97595000D03*
M02*
