%FSLAX45Y45*%
G04 Gerber Fmt 4.5, Leading zero omitted, Abs format (unit mm)*
G04 Created by KiCad (PCBNEW (5.1.9)-1) date 2023-04-19 20:39:30*
%MOMM*%
%LPD*%
G01*
G04 APERTURE LIST*
%TA.AperFunction,Profile*%
%ADD10C,0.050000*%
%TD*%
%ADD11C,0.200000*%
%ADD12C,0.300000*%
G04 APERTURE END LIST*
D10*
X9729500Y-11045000D02*
X9729500Y-7437000D01*
X15241500Y-11045000D02*
X9729500Y-11045000D01*
X15241500Y-7437000D02*
X15241500Y-11045000D01*
X9729500Y-7437000D02*
X15241500Y-7437000D01*
D11*
X12292000Y-8359639D02*
X12332000Y-8399639D01*
X12332000Y-8359639D02*
X12292000Y-8399639D01*
X12731500Y-8400000D02*
X12771500Y-8440000D01*
X12771500Y-8400000D02*
X12731500Y-8440000D01*
X10029500Y-8483000D02*
G75*
G03*
X10029500Y-8483000I-40000J0D01*
G01*
X10029500Y-8737000D02*
G75*
G03*
X10029500Y-8737000I-40000J0D01*
G01*
X10029500Y-8991000D02*
G75*
G03*
X10029500Y-8991000I-40000J0D01*
G01*
X10029500Y-9245000D02*
G75*
G03*
X10029500Y-9245000I-40000J0D01*
G01*
X10029500Y-9900500D02*
G75*
G03*
X10029500Y-9900500I-40000J0D01*
G01*
X10029500Y-10154500D02*
G75*
G03*
X10029500Y-10154500I-40000J0D01*
G01*
X10029500Y-10408500D02*
G75*
G03*
X10029500Y-10408500I-40000J0D01*
G01*
X10029500Y-10662500D02*
G75*
G03*
X10029500Y-10662500I-40000J0D01*
G01*
X10791500Y-8483000D02*
G75*
G03*
X10791500Y-8483000I-40000J0D01*
G01*
X10791500Y-8737000D02*
G75*
G03*
X10791500Y-8737000I-40000J0D01*
G01*
X10791500Y-8991000D02*
G75*
G03*
X10791500Y-8991000I-40000J0D01*
G01*
X10791500Y-9245000D02*
G75*
G03*
X10791500Y-9245000I-40000J0D01*
G01*
X10791500Y-9900500D02*
G75*
G03*
X10791500Y-9900500I-40000J0D01*
G01*
X10791500Y-10154500D02*
G75*
G03*
X10791500Y-10154500I-40000J0D01*
G01*
X10791500Y-10408500D02*
G75*
G03*
X10791500Y-10408500I-40000J0D01*
G01*
X10791500Y-10662500D02*
G75*
G03*
X10791500Y-10662500I-40000J0D01*
G01*
X12098000Y-8127500D02*
G75*
G03*
X12098000Y-8127500I-40000J0D01*
G01*
X12098000Y-8889500D02*
G75*
G03*
X12098000Y-8889500I-40000J0D01*
G01*
X12352000Y-8127500D02*
G75*
G03*
X12352000Y-8127500I-40000J0D01*
G01*
X12352000Y-8889500D02*
G75*
G03*
X12352000Y-8889500I-40000J0D01*
G01*
X12606000Y-8127500D02*
G75*
G03*
X12606000Y-8127500I-40000J0D01*
G01*
X12606000Y-8889500D02*
G75*
G03*
X12606000Y-8889500I-40000J0D01*
G01*
X12860000Y-8127500D02*
G75*
G03*
X12860000Y-8127500I-40000J0D01*
G01*
X12860000Y-8889500D02*
G75*
G03*
X12860000Y-8889500I-40000J0D01*
G01*
X13114000Y-8127500D02*
G75*
G03*
X13114000Y-8127500I-40000J0D01*
G01*
X13114000Y-8889500D02*
G75*
G03*
X13114000Y-8889500I-40000J0D01*
G01*
X13368000Y-8127500D02*
G75*
G03*
X13368000Y-8127500I-40000J0D01*
G01*
X13368000Y-8889500D02*
G75*
G03*
X13368000Y-8889500I-40000J0D01*
G01*
X13622000Y-8127500D02*
G75*
G03*
X13622000Y-8127500I-40000J0D01*
G01*
X13622000Y-8889500D02*
G75*
G03*
X13622000Y-8889500I-40000J0D01*
G01*
X13876000Y-8127500D02*
G75*
G03*
X13876000Y-8127500I-40000J0D01*
G01*
X13876000Y-8889500D02*
G75*
G03*
X13876000Y-8889500I-40000J0D01*
G01*
X14130000Y-8127500D02*
G75*
G03*
X14130000Y-8127500I-40000J0D01*
G01*
X14130000Y-8889500D02*
G75*
G03*
X14130000Y-8889500I-40000J0D01*
G01*
X14384000Y-8127500D02*
G75*
G03*
X14384000Y-8127500I-40000J0D01*
G01*
X14384000Y-8889500D02*
G75*
G03*
X14384000Y-8889500I-40000J0D01*
G01*
X14638000Y-8127500D02*
G75*
G03*
X14638000Y-8127500I-40000J0D01*
G01*
X14638000Y-8889500D02*
G75*
G03*
X14638000Y-8889500I-40000J0D01*
G01*
X14771500Y-10525500D02*
G75*
G03*
X14771500Y-10525500I-40000J0D01*
G01*
X14771500Y-10775500D02*
G75*
G03*
X14771500Y-10775500I-40000J0D01*
G01*
X14892000Y-8127500D02*
G75*
G03*
X14892000Y-8127500I-40000J0D01*
G01*
X14892000Y-8889500D02*
G75*
G03*
X14892000Y-8889500I-40000J0D01*
G01*
X10320500Y-7632500D02*
X10320500Y-7732500D01*
X10270500Y-7682500D02*
X10370500Y-7682500D01*
X10574500Y-7632500D02*
X10574500Y-7732500D01*
X10524500Y-7682500D02*
X10624500Y-7682500D01*
X10828500Y-7632500D02*
X10828500Y-7732500D01*
X10778500Y-7682500D02*
X10878500Y-7682500D01*
X11082500Y-7632500D02*
X11082500Y-7732500D01*
X11032500Y-7682500D02*
X11132500Y-7682500D01*
X11336500Y-7632500D02*
X11336500Y-7732500D01*
X11286500Y-7682500D02*
X11386500Y-7682500D01*
X12058000Y-7627500D02*
X12058000Y-7727500D01*
X12008000Y-7677500D02*
X12108000Y-7677500D01*
X12058000Y-8603500D02*
X12058000Y-8703500D01*
X12008000Y-8653500D02*
X12108000Y-8653500D01*
X12058000Y-9455500D02*
X12058000Y-9555500D01*
X12008000Y-9505500D02*
X12108000Y-9505500D01*
X12058000Y-9709500D02*
X12058000Y-9809500D01*
X12008000Y-9759500D02*
X12108000Y-9759500D01*
X12058000Y-10471500D02*
X12058000Y-10571500D01*
X12008000Y-10521500D02*
X12108000Y-10521500D01*
X12312000Y-7627500D02*
X12312000Y-7727500D01*
X12262000Y-7677500D02*
X12362000Y-7677500D01*
X12312000Y-8603500D02*
X12312000Y-8703500D01*
X12262000Y-8653500D02*
X12362000Y-8653500D01*
X12312000Y-9455500D02*
X12312000Y-9555500D01*
X12262000Y-9505500D02*
X12362000Y-9505500D01*
X12312000Y-9709500D02*
X12312000Y-9809500D01*
X12262000Y-9759500D02*
X12362000Y-9759500D01*
X12312000Y-10471500D02*
X12312000Y-10571500D01*
X12262000Y-10521500D02*
X12362000Y-10521500D01*
X12566000Y-7627500D02*
X12566000Y-7727500D01*
X12516000Y-7677500D02*
X12616000Y-7677500D01*
X12566000Y-8603500D02*
X12566000Y-8703500D01*
X12516000Y-8653500D02*
X12616000Y-8653500D01*
X12566000Y-9455500D02*
X12566000Y-9555500D01*
X12516000Y-9505500D02*
X12616000Y-9505500D01*
X12566000Y-9709500D02*
X12566000Y-9809500D01*
X12516000Y-9759500D02*
X12616000Y-9759500D01*
X12566000Y-10471500D02*
X12566000Y-10571500D01*
X12516000Y-10521500D02*
X12616000Y-10521500D01*
X12820000Y-7627500D02*
X12820000Y-7727500D01*
X12770000Y-7677500D02*
X12870000Y-7677500D01*
X12820000Y-8603500D02*
X12820000Y-8703500D01*
X12770000Y-8653500D02*
X12870000Y-8653500D01*
X12820000Y-10471500D02*
X12820000Y-10571500D01*
X12770000Y-10521500D02*
X12870000Y-10521500D01*
X13074000Y-8603500D02*
X13074000Y-8703500D01*
X13024000Y-8653500D02*
X13124000Y-8653500D01*
X13074000Y-9455500D02*
X13074000Y-9555500D01*
X13024000Y-9505500D02*
X13124000Y-9505500D01*
X13074000Y-9709500D02*
X13074000Y-9809500D01*
X13024000Y-9759500D02*
X13124000Y-9759500D01*
X13074000Y-10471500D02*
X13074000Y-10571500D01*
X13024000Y-10521500D02*
X13124000Y-10521500D01*
X13328000Y-8603500D02*
X13328000Y-8703500D01*
X13278000Y-8653500D02*
X13378000Y-8653500D01*
X13328000Y-9455500D02*
X13328000Y-9555500D01*
X13278000Y-9505500D02*
X13378000Y-9505500D01*
X13328000Y-9709500D02*
X13328000Y-9809500D01*
X13278000Y-9759500D02*
X13378000Y-9759500D01*
X13328000Y-10471500D02*
X13328000Y-10571500D01*
X13278000Y-10521500D02*
X13378000Y-10521500D01*
X13582000Y-9455500D02*
X13582000Y-9555500D01*
X13532000Y-9505500D02*
X13632000Y-9505500D01*
X13582000Y-9709500D02*
X13582000Y-9809500D01*
X13532000Y-9759500D02*
X13632000Y-9759500D01*
X13582000Y-10471500D02*
X13582000Y-10571500D01*
X13532000Y-10521500D02*
X13632000Y-10521500D01*
X13836000Y-9455500D02*
X13836000Y-9555500D01*
X13786000Y-9505500D02*
X13886000Y-9505500D01*
X13836000Y-9709500D02*
X13836000Y-9809500D01*
X13786000Y-9759500D02*
X13886000Y-9759500D01*
X13836000Y-10471500D02*
X13836000Y-10571500D01*
X13786000Y-10521500D02*
X13886000Y-10521500D01*
X14090000Y-9455500D02*
X14090000Y-9555500D01*
X14040000Y-9505500D02*
X14140000Y-9505500D01*
X14090000Y-9709500D02*
X14090000Y-9809500D01*
X14040000Y-9759500D02*
X14140000Y-9759500D01*
X14090000Y-10471500D02*
X14090000Y-10571500D01*
X14040000Y-10521500D02*
X14140000Y-10521500D01*
X14474500Y-9455500D02*
X14474500Y-9555500D01*
X14424500Y-9505500D02*
X14524500Y-9505500D01*
X14474500Y-9709500D02*
X14474500Y-9809500D01*
X14424500Y-9759500D02*
X14524500Y-9759500D01*
X14728500Y-9455500D02*
X14728500Y-9555500D01*
X14678500Y-9505500D02*
X14778500Y-9505500D01*
X14728500Y-9709500D02*
X14728500Y-9809500D01*
X14678500Y-9759500D02*
X14778500Y-9759500D01*
D12*
X10013428Y-11513214D02*
X10013428Y-11213214D01*
X10084857Y-11213214D01*
X10127714Y-11227500D01*
X10156286Y-11256071D01*
X10170571Y-11284643D01*
X10184857Y-11341786D01*
X10184857Y-11384643D01*
X10170571Y-11441786D01*
X10156286Y-11470357D01*
X10127714Y-11498929D01*
X10084857Y-11513214D01*
X10013428Y-11513214D01*
X10313428Y-11513214D02*
X10313428Y-11313214D01*
X10313428Y-11370357D02*
X10327714Y-11341786D01*
X10342000Y-11327500D01*
X10370571Y-11313214D01*
X10399143Y-11313214D01*
X10499143Y-11513214D02*
X10499143Y-11313214D01*
X10499143Y-11213214D02*
X10484857Y-11227500D01*
X10499143Y-11241786D01*
X10513428Y-11227500D01*
X10499143Y-11213214D01*
X10499143Y-11241786D01*
X10684857Y-11513214D02*
X10656286Y-11498929D01*
X10642000Y-11470357D01*
X10642000Y-11213214D01*
X10842000Y-11513214D02*
X10813428Y-11498929D01*
X10799143Y-11470357D01*
X10799143Y-11213214D01*
X11184857Y-11513214D02*
X11184857Y-11213214D01*
X11284857Y-11427500D01*
X11384857Y-11213214D01*
X11384857Y-11513214D01*
X11656286Y-11513214D02*
X11656286Y-11356071D01*
X11642000Y-11327500D01*
X11613428Y-11313214D01*
X11556286Y-11313214D01*
X11527714Y-11327500D01*
X11656286Y-11498929D02*
X11627714Y-11513214D01*
X11556286Y-11513214D01*
X11527714Y-11498929D01*
X11513428Y-11470357D01*
X11513428Y-11441786D01*
X11527714Y-11413214D01*
X11556286Y-11398929D01*
X11627714Y-11398929D01*
X11656286Y-11384643D01*
X11799143Y-11313214D02*
X11799143Y-11613214D01*
X11799143Y-11327500D02*
X11827714Y-11313214D01*
X11884857Y-11313214D01*
X11913428Y-11327500D01*
X11927714Y-11341786D01*
X11942000Y-11370357D01*
X11942000Y-11456071D01*
X11927714Y-11484643D01*
X11913428Y-11498929D01*
X11884857Y-11513214D01*
X11827714Y-11513214D01*
X11799143Y-11498929D01*
X12070571Y-11484643D02*
X12084857Y-11498929D01*
X12070571Y-11513214D01*
X12056286Y-11498929D01*
X12070571Y-11484643D01*
X12070571Y-11513214D01*
X12070571Y-11327500D02*
X12084857Y-11341786D01*
X12070571Y-11356071D01*
X12056286Y-11341786D01*
X12070571Y-11327500D01*
X12070571Y-11356071D01*
X9687000Y-11987500D02*
X9727000Y-12027500D01*
X9727000Y-11987500D02*
X9687000Y-12027500D01*
X10070571Y-11843214D02*
X10099143Y-11843214D01*
X10127714Y-11857500D01*
X10142000Y-11871786D01*
X10156286Y-11900357D01*
X10170571Y-11957500D01*
X10170571Y-12028929D01*
X10156286Y-12086071D01*
X10142000Y-12114643D01*
X10127714Y-12128929D01*
X10099143Y-12143214D01*
X10070571Y-12143214D01*
X10042000Y-12128929D01*
X10027714Y-12114643D01*
X10013428Y-12086071D01*
X9999143Y-12028929D01*
X9999143Y-11957500D01*
X10013428Y-11900357D01*
X10027714Y-11871786D01*
X10042000Y-11857500D01*
X10070571Y-11843214D01*
X10299143Y-12114643D02*
X10313428Y-12128929D01*
X10299143Y-12143214D01*
X10284857Y-12128929D01*
X10299143Y-12114643D01*
X10299143Y-12143214D01*
X10570571Y-11943214D02*
X10570571Y-12143214D01*
X10499143Y-11828929D02*
X10427714Y-12043214D01*
X10613428Y-12043214D01*
X10784857Y-11843214D02*
X10813428Y-11843214D01*
X10842000Y-11857500D01*
X10856286Y-11871786D01*
X10870571Y-11900357D01*
X10884857Y-11957500D01*
X10884857Y-12028929D01*
X10870571Y-12086071D01*
X10856286Y-12114643D01*
X10842000Y-12128929D01*
X10813428Y-12143214D01*
X10784857Y-12143214D01*
X10756286Y-12128929D01*
X10742000Y-12114643D01*
X10727714Y-12086071D01*
X10713428Y-12028929D01*
X10713428Y-11957500D01*
X10727714Y-11900357D01*
X10742000Y-11871786D01*
X10756286Y-11857500D01*
X10784857Y-11843214D01*
X11013428Y-12143214D02*
X11013428Y-11943214D01*
X11013428Y-11971786D02*
X11027714Y-11957500D01*
X11056286Y-11943214D01*
X11099143Y-11943214D01*
X11127714Y-11957500D01*
X11142000Y-11986071D01*
X11142000Y-12143214D01*
X11142000Y-11986071D02*
X11156286Y-11957500D01*
X11184857Y-11943214D01*
X11227714Y-11943214D01*
X11256286Y-11957500D01*
X11270571Y-11986071D01*
X11270571Y-12143214D01*
X11413428Y-12143214D02*
X11413428Y-11943214D01*
X11413428Y-11971786D02*
X11427714Y-11957500D01*
X11456286Y-11943214D01*
X11499143Y-11943214D01*
X11527714Y-11957500D01*
X11542000Y-11986071D01*
X11542000Y-12143214D01*
X11542000Y-11986071D02*
X11556286Y-11957500D01*
X11584857Y-11943214D01*
X11627714Y-11943214D01*
X11656286Y-11957500D01*
X11670571Y-11986071D01*
X11670571Y-12143214D01*
X12256286Y-11828929D02*
X11999143Y-12214643D01*
X12642000Y-11843214D02*
X12670571Y-11843214D01*
X12699143Y-11857500D01*
X12713428Y-11871786D01*
X12727714Y-11900357D01*
X12742000Y-11957500D01*
X12742000Y-12028929D01*
X12727714Y-12086071D01*
X12713428Y-12114643D01*
X12699143Y-12128929D01*
X12670571Y-12143214D01*
X12642000Y-12143214D01*
X12613428Y-12128929D01*
X12599143Y-12114643D01*
X12584857Y-12086071D01*
X12570571Y-12028929D01*
X12570571Y-11957500D01*
X12584857Y-11900357D01*
X12599143Y-11871786D01*
X12613428Y-11857500D01*
X12642000Y-11843214D01*
X12870571Y-12114643D02*
X12884857Y-12128929D01*
X12870571Y-12143214D01*
X12856286Y-12128929D01*
X12870571Y-12114643D01*
X12870571Y-12143214D01*
X13070571Y-11843214D02*
X13099143Y-11843214D01*
X13127714Y-11857500D01*
X13142000Y-11871786D01*
X13156286Y-11900357D01*
X13170571Y-11957500D01*
X13170571Y-12028929D01*
X13156286Y-12086071D01*
X13142000Y-12114643D01*
X13127714Y-12128929D01*
X13099143Y-12143214D01*
X13070571Y-12143214D01*
X13042000Y-12128929D01*
X13027714Y-12114643D01*
X13013428Y-12086071D01*
X12999143Y-12028929D01*
X12999143Y-11957500D01*
X13013428Y-11900357D01*
X13027714Y-11871786D01*
X13042000Y-11857500D01*
X13070571Y-11843214D01*
X13456286Y-12143214D02*
X13284857Y-12143214D01*
X13370571Y-12143214D02*
X13370571Y-11843214D01*
X13342000Y-11886071D01*
X13313428Y-11914643D01*
X13284857Y-11928929D01*
X13713428Y-11843214D02*
X13656286Y-11843214D01*
X13627714Y-11857500D01*
X13613428Y-11871786D01*
X13584857Y-11914643D01*
X13570571Y-11971786D01*
X13570571Y-12086071D01*
X13584857Y-12114643D01*
X13599143Y-12128929D01*
X13627714Y-12143214D01*
X13684857Y-12143214D01*
X13713428Y-12128929D01*
X13727714Y-12114643D01*
X13742000Y-12086071D01*
X13742000Y-12014643D01*
X13727714Y-11986071D01*
X13713428Y-11971786D01*
X13684857Y-11957500D01*
X13627714Y-11957500D01*
X13599143Y-11971786D01*
X13584857Y-11986071D01*
X13570571Y-12014643D01*
X13856286Y-11843214D02*
X13856286Y-11900357D01*
X13970571Y-11843214D02*
X13970571Y-11900357D01*
X14413428Y-12257500D02*
X14399143Y-12243214D01*
X14370571Y-12200357D01*
X14356286Y-12171786D01*
X14342000Y-12128929D01*
X14327714Y-12057500D01*
X14327714Y-12000357D01*
X14342000Y-11928929D01*
X14356286Y-11886071D01*
X14370571Y-11857500D01*
X14399143Y-11814643D01*
X14413428Y-11800357D01*
X14513428Y-11871786D02*
X14527714Y-11857500D01*
X14556286Y-11843214D01*
X14627714Y-11843214D01*
X14656286Y-11857500D01*
X14670571Y-11871786D01*
X14684857Y-11900357D01*
X14684857Y-11928929D01*
X14670571Y-11971786D01*
X14499143Y-12143214D01*
X14684857Y-12143214D01*
X15042000Y-12143214D02*
X15042000Y-11843214D01*
X15170571Y-12143214D02*
X15170571Y-11986071D01*
X15156286Y-11957500D01*
X15127714Y-11943214D01*
X15084857Y-11943214D01*
X15056286Y-11957500D01*
X15042000Y-11971786D01*
X15356286Y-12143214D02*
X15327714Y-12128929D01*
X15313428Y-12114643D01*
X15299143Y-12086071D01*
X15299143Y-12000357D01*
X15313428Y-11971786D01*
X15327714Y-11957500D01*
X15356286Y-11943214D01*
X15399143Y-11943214D01*
X15427714Y-11957500D01*
X15442000Y-11971786D01*
X15456286Y-12000357D01*
X15456286Y-12086071D01*
X15442000Y-12114643D01*
X15427714Y-12128929D01*
X15399143Y-12143214D01*
X15356286Y-12143214D01*
X15627714Y-12143214D02*
X15599143Y-12128929D01*
X15584857Y-12100357D01*
X15584857Y-11843214D01*
X15856286Y-12128929D02*
X15827714Y-12143214D01*
X15770571Y-12143214D01*
X15742000Y-12128929D01*
X15727714Y-12100357D01*
X15727714Y-11986071D01*
X15742000Y-11957500D01*
X15770571Y-11943214D01*
X15827714Y-11943214D01*
X15856286Y-11957500D01*
X15870571Y-11986071D01*
X15870571Y-12014643D01*
X15727714Y-12043214D01*
X15984857Y-12128929D02*
X16013428Y-12143214D01*
X16070571Y-12143214D01*
X16099143Y-12128929D01*
X16113428Y-12100357D01*
X16113428Y-12086071D01*
X16099143Y-12057500D01*
X16070571Y-12043214D01*
X16027714Y-12043214D01*
X15999143Y-12028929D01*
X15984857Y-12000357D01*
X15984857Y-11986071D01*
X15999143Y-11957500D01*
X16027714Y-11943214D01*
X16070571Y-11943214D01*
X16099143Y-11957500D01*
X16213428Y-12257500D02*
X16227714Y-12243214D01*
X16256286Y-12200357D01*
X16270571Y-12171786D01*
X16284857Y-12128929D01*
X16299143Y-12057500D01*
X16299143Y-12000357D01*
X16284857Y-11928929D01*
X16270571Y-11886071D01*
X16256286Y-11857500D01*
X16227714Y-11814643D01*
X16213428Y-11800357D01*
X9727000Y-12403500D02*
G75*
G03*
X9727000Y-12403500I-40000J0D01*
G01*
X10070571Y-12239214D02*
X10099143Y-12239214D01*
X10127714Y-12253500D01*
X10142000Y-12267786D01*
X10156286Y-12296357D01*
X10170571Y-12353500D01*
X10170571Y-12424929D01*
X10156286Y-12482071D01*
X10142000Y-12510643D01*
X10127714Y-12524929D01*
X10099143Y-12539214D01*
X10070571Y-12539214D01*
X10042000Y-12524929D01*
X10027714Y-12510643D01*
X10013428Y-12482071D01*
X9999143Y-12424929D01*
X9999143Y-12353500D01*
X10013428Y-12296357D01*
X10027714Y-12267786D01*
X10042000Y-12253500D01*
X10070571Y-12239214D01*
X10299143Y-12510643D02*
X10313428Y-12524929D01*
X10299143Y-12539214D01*
X10284857Y-12524929D01*
X10299143Y-12510643D01*
X10299143Y-12539214D01*
X10484857Y-12367786D02*
X10456286Y-12353500D01*
X10442000Y-12339214D01*
X10427714Y-12310643D01*
X10427714Y-12296357D01*
X10442000Y-12267786D01*
X10456286Y-12253500D01*
X10484857Y-12239214D01*
X10542000Y-12239214D01*
X10570571Y-12253500D01*
X10584857Y-12267786D01*
X10599143Y-12296357D01*
X10599143Y-12310643D01*
X10584857Y-12339214D01*
X10570571Y-12353500D01*
X10542000Y-12367786D01*
X10484857Y-12367786D01*
X10456286Y-12382071D01*
X10442000Y-12396357D01*
X10427714Y-12424929D01*
X10427714Y-12482071D01*
X10442000Y-12510643D01*
X10456286Y-12524929D01*
X10484857Y-12539214D01*
X10542000Y-12539214D01*
X10570571Y-12524929D01*
X10584857Y-12510643D01*
X10599143Y-12482071D01*
X10599143Y-12424929D01*
X10584857Y-12396357D01*
X10570571Y-12382071D01*
X10542000Y-12367786D01*
X10784857Y-12239214D02*
X10813428Y-12239214D01*
X10842000Y-12253500D01*
X10856286Y-12267786D01*
X10870571Y-12296357D01*
X10884857Y-12353500D01*
X10884857Y-12424929D01*
X10870571Y-12482071D01*
X10856286Y-12510643D01*
X10842000Y-12524929D01*
X10813428Y-12539214D01*
X10784857Y-12539214D01*
X10756286Y-12524929D01*
X10742000Y-12510643D01*
X10727714Y-12482071D01*
X10713428Y-12424929D01*
X10713428Y-12353500D01*
X10727714Y-12296357D01*
X10742000Y-12267786D01*
X10756286Y-12253500D01*
X10784857Y-12239214D01*
X11013428Y-12539214D02*
X11013428Y-12339214D01*
X11013428Y-12367786D02*
X11027714Y-12353500D01*
X11056286Y-12339214D01*
X11099143Y-12339214D01*
X11127714Y-12353500D01*
X11142000Y-12382071D01*
X11142000Y-12539214D01*
X11142000Y-12382071D02*
X11156286Y-12353500D01*
X11184857Y-12339214D01*
X11227714Y-12339214D01*
X11256286Y-12353500D01*
X11270571Y-12382071D01*
X11270571Y-12539214D01*
X11413428Y-12539214D02*
X11413428Y-12339214D01*
X11413428Y-12367786D02*
X11427714Y-12353500D01*
X11456286Y-12339214D01*
X11499143Y-12339214D01*
X11527714Y-12353500D01*
X11542000Y-12382071D01*
X11542000Y-12539214D01*
X11542000Y-12382071D02*
X11556286Y-12353500D01*
X11584857Y-12339214D01*
X11627714Y-12339214D01*
X11656286Y-12353500D01*
X11670571Y-12382071D01*
X11670571Y-12539214D01*
X12256286Y-12224929D02*
X11999143Y-12610643D01*
X12642000Y-12239214D02*
X12670571Y-12239214D01*
X12699143Y-12253500D01*
X12713428Y-12267786D01*
X12727714Y-12296357D01*
X12742000Y-12353500D01*
X12742000Y-12424929D01*
X12727714Y-12482071D01*
X12713428Y-12510643D01*
X12699143Y-12524929D01*
X12670571Y-12539214D01*
X12642000Y-12539214D01*
X12613428Y-12524929D01*
X12599143Y-12510643D01*
X12584857Y-12482071D01*
X12570571Y-12424929D01*
X12570571Y-12353500D01*
X12584857Y-12296357D01*
X12599143Y-12267786D01*
X12613428Y-12253500D01*
X12642000Y-12239214D01*
X12870571Y-12510643D02*
X12884857Y-12524929D01*
X12870571Y-12539214D01*
X12856286Y-12524929D01*
X12870571Y-12510643D01*
X12870571Y-12539214D01*
X13070571Y-12239214D02*
X13099143Y-12239214D01*
X13127714Y-12253500D01*
X13142000Y-12267786D01*
X13156286Y-12296357D01*
X13170571Y-12353500D01*
X13170571Y-12424929D01*
X13156286Y-12482071D01*
X13142000Y-12510643D01*
X13127714Y-12524929D01*
X13099143Y-12539214D01*
X13070571Y-12539214D01*
X13042000Y-12524929D01*
X13027714Y-12510643D01*
X13013428Y-12482071D01*
X12999143Y-12424929D01*
X12999143Y-12353500D01*
X13013428Y-12296357D01*
X13027714Y-12267786D01*
X13042000Y-12253500D01*
X13070571Y-12239214D01*
X13270571Y-12239214D02*
X13456286Y-12239214D01*
X13356286Y-12353500D01*
X13399143Y-12353500D01*
X13427714Y-12367786D01*
X13442000Y-12382071D01*
X13456286Y-12410643D01*
X13456286Y-12482071D01*
X13442000Y-12510643D01*
X13427714Y-12524929D01*
X13399143Y-12539214D01*
X13313428Y-12539214D01*
X13284857Y-12524929D01*
X13270571Y-12510643D01*
X13742000Y-12539214D02*
X13570571Y-12539214D01*
X13656286Y-12539214D02*
X13656286Y-12239214D01*
X13627714Y-12282071D01*
X13599143Y-12310643D01*
X13570571Y-12324929D01*
X13856286Y-12239214D02*
X13856286Y-12296357D01*
X13970571Y-12239214D02*
X13970571Y-12296357D01*
X14413428Y-12653500D02*
X14399143Y-12639214D01*
X14370571Y-12596357D01*
X14356286Y-12567786D01*
X14342000Y-12524929D01*
X14327714Y-12453500D01*
X14327714Y-12396357D01*
X14342000Y-12324929D01*
X14356286Y-12282071D01*
X14370571Y-12253500D01*
X14399143Y-12210643D01*
X14413428Y-12196357D01*
X14656286Y-12339214D02*
X14656286Y-12539214D01*
X14584857Y-12224929D02*
X14513428Y-12439214D01*
X14699143Y-12439214D01*
X14799143Y-12267786D02*
X14813428Y-12253500D01*
X14842000Y-12239214D01*
X14913428Y-12239214D01*
X14942000Y-12253500D01*
X14956286Y-12267786D01*
X14970571Y-12296357D01*
X14970571Y-12324929D01*
X14956286Y-12367786D01*
X14784857Y-12539214D01*
X14970571Y-12539214D01*
X15327714Y-12539214D02*
X15327714Y-12239214D01*
X15456286Y-12539214D02*
X15456286Y-12382071D01*
X15442000Y-12353500D01*
X15413428Y-12339214D01*
X15370571Y-12339214D01*
X15342000Y-12353500D01*
X15327714Y-12367786D01*
X15642000Y-12539214D02*
X15613428Y-12524929D01*
X15599143Y-12510643D01*
X15584857Y-12482071D01*
X15584857Y-12396357D01*
X15599143Y-12367786D01*
X15613428Y-12353500D01*
X15642000Y-12339214D01*
X15684857Y-12339214D01*
X15713428Y-12353500D01*
X15727714Y-12367786D01*
X15742000Y-12396357D01*
X15742000Y-12482071D01*
X15727714Y-12510643D01*
X15713428Y-12524929D01*
X15684857Y-12539214D01*
X15642000Y-12539214D01*
X15913428Y-12539214D02*
X15884857Y-12524929D01*
X15870571Y-12496357D01*
X15870571Y-12239214D01*
X16142000Y-12524929D02*
X16113428Y-12539214D01*
X16056286Y-12539214D01*
X16027714Y-12524929D01*
X16013428Y-12496357D01*
X16013428Y-12382071D01*
X16027714Y-12353500D01*
X16056286Y-12339214D01*
X16113428Y-12339214D01*
X16142000Y-12353500D01*
X16156286Y-12382071D01*
X16156286Y-12410643D01*
X16013428Y-12439214D01*
X16270571Y-12524929D02*
X16299143Y-12539214D01*
X16356286Y-12539214D01*
X16384857Y-12524929D01*
X16399143Y-12496357D01*
X16399143Y-12482071D01*
X16384857Y-12453500D01*
X16356286Y-12439214D01*
X16313428Y-12439214D01*
X16284857Y-12424929D01*
X16270571Y-12396357D01*
X16270571Y-12382071D01*
X16284857Y-12353500D01*
X16313428Y-12339214D01*
X16356286Y-12339214D01*
X16384857Y-12353500D01*
X16499143Y-12653500D02*
X16513428Y-12639214D01*
X16542000Y-12596357D01*
X16556286Y-12567786D01*
X16570571Y-12524929D01*
X16584857Y-12453500D01*
X16584857Y-12396357D01*
X16570571Y-12324929D01*
X16556286Y-12282071D01*
X16542000Y-12253500D01*
X16513428Y-12210643D01*
X16499143Y-12196357D01*
X9677000Y-12749500D02*
X9677000Y-12849500D01*
X9627000Y-12799500D02*
X9727000Y-12799500D01*
X10170571Y-12935214D02*
X9999143Y-12935214D01*
X10084857Y-12935214D02*
X10084857Y-12635214D01*
X10056286Y-12678071D01*
X10027714Y-12706643D01*
X9999143Y-12720929D01*
X10299143Y-12906643D02*
X10313428Y-12920929D01*
X10299143Y-12935214D01*
X10284857Y-12920929D01*
X10299143Y-12906643D01*
X10299143Y-12935214D01*
X10499143Y-12635214D02*
X10527714Y-12635214D01*
X10556286Y-12649500D01*
X10570571Y-12663786D01*
X10584857Y-12692357D01*
X10599143Y-12749500D01*
X10599143Y-12820929D01*
X10584857Y-12878071D01*
X10570571Y-12906643D01*
X10556286Y-12920929D01*
X10527714Y-12935214D01*
X10499143Y-12935214D01*
X10470571Y-12920929D01*
X10456286Y-12906643D01*
X10442000Y-12878071D01*
X10427714Y-12820929D01*
X10427714Y-12749500D01*
X10442000Y-12692357D01*
X10456286Y-12663786D01*
X10470571Y-12649500D01*
X10499143Y-12635214D01*
X10784857Y-12635214D02*
X10813428Y-12635214D01*
X10842000Y-12649500D01*
X10856286Y-12663786D01*
X10870571Y-12692357D01*
X10884857Y-12749500D01*
X10884857Y-12820929D01*
X10870571Y-12878071D01*
X10856286Y-12906643D01*
X10842000Y-12920929D01*
X10813428Y-12935214D01*
X10784857Y-12935214D01*
X10756286Y-12920929D01*
X10742000Y-12906643D01*
X10727714Y-12878071D01*
X10713428Y-12820929D01*
X10713428Y-12749500D01*
X10727714Y-12692357D01*
X10742000Y-12663786D01*
X10756286Y-12649500D01*
X10784857Y-12635214D01*
X11013428Y-12935214D02*
X11013428Y-12735214D01*
X11013428Y-12763786D02*
X11027714Y-12749500D01*
X11056286Y-12735214D01*
X11099143Y-12735214D01*
X11127714Y-12749500D01*
X11142000Y-12778071D01*
X11142000Y-12935214D01*
X11142000Y-12778071D02*
X11156286Y-12749500D01*
X11184857Y-12735214D01*
X11227714Y-12735214D01*
X11256286Y-12749500D01*
X11270571Y-12778071D01*
X11270571Y-12935214D01*
X11413428Y-12935214D02*
X11413428Y-12735214D01*
X11413428Y-12763786D02*
X11427714Y-12749500D01*
X11456286Y-12735214D01*
X11499143Y-12735214D01*
X11527714Y-12749500D01*
X11542000Y-12778071D01*
X11542000Y-12935214D01*
X11542000Y-12778071D02*
X11556286Y-12749500D01*
X11584857Y-12735214D01*
X11627714Y-12735214D01*
X11656286Y-12749500D01*
X11670571Y-12778071D01*
X11670571Y-12935214D01*
X12256286Y-12620929D02*
X11999143Y-13006643D01*
X12642000Y-12635214D02*
X12670571Y-12635214D01*
X12699143Y-12649500D01*
X12713428Y-12663786D01*
X12727714Y-12692357D01*
X12742000Y-12749500D01*
X12742000Y-12820929D01*
X12727714Y-12878071D01*
X12713428Y-12906643D01*
X12699143Y-12920929D01*
X12670571Y-12935214D01*
X12642000Y-12935214D01*
X12613428Y-12920929D01*
X12599143Y-12906643D01*
X12584857Y-12878071D01*
X12570571Y-12820929D01*
X12570571Y-12749500D01*
X12584857Y-12692357D01*
X12599143Y-12663786D01*
X12613428Y-12649500D01*
X12642000Y-12635214D01*
X12870571Y-12906643D02*
X12884857Y-12920929D01*
X12870571Y-12935214D01*
X12856286Y-12920929D01*
X12870571Y-12906643D01*
X12870571Y-12935214D01*
X13070571Y-12635214D02*
X13099143Y-12635214D01*
X13127714Y-12649500D01*
X13142000Y-12663786D01*
X13156286Y-12692357D01*
X13170571Y-12749500D01*
X13170571Y-12820929D01*
X13156286Y-12878071D01*
X13142000Y-12906643D01*
X13127714Y-12920929D01*
X13099143Y-12935214D01*
X13070571Y-12935214D01*
X13042000Y-12920929D01*
X13027714Y-12906643D01*
X13013428Y-12878071D01*
X12999143Y-12820929D01*
X12999143Y-12749500D01*
X13013428Y-12692357D01*
X13027714Y-12663786D01*
X13042000Y-12649500D01*
X13070571Y-12635214D01*
X13270571Y-12635214D02*
X13456286Y-12635214D01*
X13356286Y-12749500D01*
X13399143Y-12749500D01*
X13427714Y-12763786D01*
X13442000Y-12778071D01*
X13456286Y-12806643D01*
X13456286Y-12878071D01*
X13442000Y-12906643D01*
X13427714Y-12920929D01*
X13399143Y-12935214D01*
X13313428Y-12935214D01*
X13284857Y-12920929D01*
X13270571Y-12906643D01*
X13599143Y-12935214D02*
X13656286Y-12935214D01*
X13684857Y-12920929D01*
X13699143Y-12906643D01*
X13727714Y-12863786D01*
X13742000Y-12806643D01*
X13742000Y-12692357D01*
X13727714Y-12663786D01*
X13713428Y-12649500D01*
X13684857Y-12635214D01*
X13627714Y-12635214D01*
X13599143Y-12649500D01*
X13584857Y-12663786D01*
X13570571Y-12692357D01*
X13570571Y-12763786D01*
X13584857Y-12792357D01*
X13599143Y-12806643D01*
X13627714Y-12820929D01*
X13684857Y-12820929D01*
X13713428Y-12806643D01*
X13727714Y-12792357D01*
X13742000Y-12763786D01*
X13856286Y-12635214D02*
X13856286Y-12692357D01*
X13970571Y-12635214D02*
X13970571Y-12692357D01*
X14413428Y-13049500D02*
X14399143Y-13035214D01*
X14370571Y-12992357D01*
X14356286Y-12963786D01*
X14342000Y-12920929D01*
X14327714Y-12849500D01*
X14327714Y-12792357D01*
X14342000Y-12720929D01*
X14356286Y-12678071D01*
X14370571Y-12649500D01*
X14399143Y-12606643D01*
X14413428Y-12592357D01*
X14656286Y-12735214D02*
X14656286Y-12935214D01*
X14584857Y-12620929D02*
X14513428Y-12835214D01*
X14699143Y-12835214D01*
X14942000Y-12735214D02*
X14942000Y-12935214D01*
X14870571Y-12620929D02*
X14799143Y-12835214D01*
X14984857Y-12835214D01*
X15327714Y-12935214D02*
X15327714Y-12635214D01*
X15456286Y-12935214D02*
X15456286Y-12778071D01*
X15442000Y-12749500D01*
X15413428Y-12735214D01*
X15370571Y-12735214D01*
X15342000Y-12749500D01*
X15327714Y-12763786D01*
X15642000Y-12935214D02*
X15613428Y-12920929D01*
X15599143Y-12906643D01*
X15584857Y-12878071D01*
X15584857Y-12792357D01*
X15599143Y-12763786D01*
X15613428Y-12749500D01*
X15642000Y-12735214D01*
X15684857Y-12735214D01*
X15713428Y-12749500D01*
X15727714Y-12763786D01*
X15742000Y-12792357D01*
X15742000Y-12878071D01*
X15727714Y-12906643D01*
X15713428Y-12920929D01*
X15684857Y-12935214D01*
X15642000Y-12935214D01*
X15913428Y-12935214D02*
X15884857Y-12920929D01*
X15870571Y-12892357D01*
X15870571Y-12635214D01*
X16142000Y-12920929D02*
X16113428Y-12935214D01*
X16056286Y-12935214D01*
X16027714Y-12920929D01*
X16013428Y-12892357D01*
X16013428Y-12778071D01*
X16027714Y-12749500D01*
X16056286Y-12735214D01*
X16113428Y-12735214D01*
X16142000Y-12749500D01*
X16156286Y-12778071D01*
X16156286Y-12806643D01*
X16013428Y-12835214D01*
X16270571Y-12920929D02*
X16299143Y-12935214D01*
X16356286Y-12935214D01*
X16384857Y-12920929D01*
X16399143Y-12892357D01*
X16399143Y-12878071D01*
X16384857Y-12849500D01*
X16356286Y-12835214D01*
X16313428Y-12835214D01*
X16284857Y-12820929D01*
X16270571Y-12792357D01*
X16270571Y-12778071D01*
X16284857Y-12749500D01*
X16313428Y-12735214D01*
X16356286Y-12735214D01*
X16384857Y-12749500D01*
X16499143Y-13049500D02*
X16513428Y-13035214D01*
X16542000Y-12992357D01*
X16556286Y-12963786D01*
X16570571Y-12920929D01*
X16584857Y-12849500D01*
X16584857Y-12792357D01*
X16570571Y-12720929D01*
X16556286Y-12678071D01*
X16542000Y-12649500D01*
X16513428Y-12606643D01*
X16499143Y-12592357D01*
M02*
