M48
; DRILL file {KiCad (5.1.9)-1} date 12/05/22 11:23:32
; FORMAT={-:-/ absolute / metric / decimal}
; #@! TF.CreationDate,2022-12-05T11:23:32+00:00
; #@! TF.GenerationSoftware,Kicad,Pcbnew,(5.1.9)-1
; #@! TF.FileFunction,Plated,1,2,PTH
FMAT,2
METRIC
T1C0.400
T2C0.508
T3C0.600
T4C0.750
T5C0.800
T6C0.900
T7C1.000
T8C1.100
T9C1.300
T10C3.000
%
G90
G05
T1
X-6.25Y-114.66
X-5.413Y-112.29
X-5.23Y-94.28
X-5.108Y-109.85
X-5.0Y-107.18
X-4.93Y-97.25
X-4.93Y-99.4
X-4.93Y-104.53
X-2.589Y-93.24
X-2.35Y-85.62
X-0.55Y-135.83
X-0.13Y-88.15
X-0.05Y-136.72
X3.04Y-89.25
X3.14Y-84.275
X3.14Y-86.625
X3.34Y-98.35
X3.69Y-95.825
X4.58Y-167.44
X26.88Y-118.42
X34.23Y-59.17
X36.02Y-58.291
X42.211Y-111.53
X42.306Y-127.264
X42.78Y-128.17
X43.13Y-104.95
X43.18Y-59.823
X43.593Y-124.68
X50.292Y-71.628
X52.87Y-90.33
X59.78Y-130.25
X61.655Y-133.678
X66.74Y-129.3
X68.73Y-37.74
X69.72Y-41.26
X89.71Y-149.22
X89.72Y-49.79
X89.72Y-68.94
X89.72Y-118.87
X89.72Y-142.33
X90.5Y-140.24
X90.52Y-148.52
X90.53Y-50.55
X90.53Y-69.74
X90.531Y-116.339
X91.3Y-113.4
X91.31Y-147.7
X91.32Y-51.64
X91.32Y-70.51
X92.08Y-52.7
X92.11Y-147.03
X92.12Y-71.33
X92.12Y-96.46
X92.12Y-111.27
X92.867Y-71.954
X92.886Y-52.103
X92.92Y-108.36
X93.72Y-72.92
X93.72Y-107.17
X93.73Y-53.65
X94.53Y-53.06
X94.53Y-73.74
X94.56Y-105.14
X95.31Y-53.69
X95.346Y-101.052
X95.454Y-74.635
X96.12Y-75.35
X96.12Y-105.23
X96.14Y-54.19
X96.92Y-55.24
X96.92Y-76.12
X96.962Y-107.084
X97.676Y-82.271
X97.7Y-56.17
X97.701Y-130.899
X97.72Y-76.93
X97.72Y-112.8
X97.72Y-141.39
X98.51Y-55.46
X98.52Y-79.95
X98.52Y-83.11
X98.52Y-107.69
X99.31Y-56.25
X99.32Y-65.68
X99.32Y-98.56
X100.12Y-67.09
X100.12Y-71.4
X100.12Y-100.07
X100.14Y-55.7
X100.92Y-68.12
X100.92Y-90.66
X100.94Y-56.461
X101.657Y-68.953
X101.72Y-130.13
X101.75Y-55.91
X102.5Y-140.92
X102.52Y-63.25
X102.53Y-117.85
X103.26Y-141.71
X103.32Y-62.57
X103.33Y-120.39
X104.09Y-142.41
X104.12Y-61.93
X104.13Y-122.93
X104.63Y-40.105
X104.88Y-143.11
X104.91Y-61.34
X104.92Y-125.47
X105.259Y-39.153
X105.68Y-144.06
X105.72Y-128.01
X105.761Y-60.711
X106.53Y-59.9
X106.53Y-126.5
X106.54Y-145.4
X107.2Y-39.19
X107.331Y-123.959
X107.34Y-146.07
X107.359Y-59.261
X107.95Y-38.11
X108.12Y-58.5
X108.12Y-122.73
X108.14Y-146.86
X108.6Y-37.14
X108.845Y-149.235
X108.92Y-57.853
X108.92Y-75.989
X108.92Y-97.56
X108.92Y-135.359
X109.27Y-36.2
X109.549Y-77.68
X109.549Y-117.549
X109.56Y-122.75
X109.56Y-130.34
X110.17Y-35.37
X110.46Y-73.83
X110.46Y-132.86
X110.91Y-34.689
X111.06Y-41.28
X111.089Y-57.495
X111.09Y-62.55
X111.09Y-140.25
X111.108Y-134.438
X111.79Y-112.625
X112.05Y-77.77
X112.07Y-69.85
X112.9Y-136.77
X113.58Y-141.62
X114.086Y-109.169
X114.182Y-122.638
X114.22Y-115.31
X114.93Y-134.179
X115.477Y-86.062
X118.618Y-130.81
X121.728Y-117.848
X121.74Y-115.45
X121.853Y-118.804
X121.961Y-116.925
X122.327Y-119.63
X122.56Y-123.925
X122.565Y-122.973
X122.615Y-122.022
X123.772Y-130.432
X127.99Y-59.9
X128.79Y-83.39
X132.64Y-38.37
X135.91Y-23.5
X136.479Y-37.27
X137.701Y-39.92
X144.061Y-66.45
X147.717Y-43.183
X147.765Y-61.625
X149.04Y-158.25
X154.178Y-136.144
X167.24Y-46.83
X174.859Y-29.549
X174.95Y-124.72
X181.32Y-126.8
X194.255Y-125.645
T2
X-18.73Y-41.19
X-11.435Y-131.25
X-6.94Y-110.05
X1.652Y-150.137
X3.145Y-91.82
X18.565Y-111.125
X34.44Y-104.55
X38.38Y-97.26
X40.66Y-130.62
X43.44Y-133.78
X115.63Y-84.45
T4
X56.33Y-46.85
X57.6Y-46.85
X58.87Y-46.85
T5
X-17.01Y-139.18
X-17.0Y-145.53
X-17.0Y-153.11
X-16.75Y-120.21
X-16.58Y-127.17
X-16.58Y-129.71
X-16.58Y-132.25
X-16.58Y-134.79
X-15.47Y-52.92
X-15.47Y-68.16
X-11.61Y-123.64
X-9.39Y-139.18
X-9.38Y-145.53
X-9.38Y-153.11
X-9.13Y-120.21
X-9.11Y-123.64
X-8.96Y-127.17
X-8.96Y-129.71
X-8.96Y-132.25
X-8.96Y-134.79
X-7.85Y-52.92
X-7.85Y-68.16
X-5.27Y-140.62
X-5.27Y-143.12
X-5.27Y-148.66
X-2.77Y-148.66
X0.239Y-50.09
X4.572Y-142.27
X4.572Y-149.89
X7.112Y-142.27
X7.112Y-149.89
X7.22Y-25.765
X7.22Y-28.265
X7.859Y-50.09
X9.652Y-142.27
X9.652Y-149.89
X11.415Y-50.09
X12.192Y-142.27
X12.192Y-149.89
X14.732Y-142.27
X14.732Y-149.89
X17.272Y-142.27
X17.272Y-149.89
X19.035Y-50.09
X19.812Y-142.27
X19.812Y-149.89
X22.352Y-142.27
X22.352Y-149.89
X24.892Y-142.27
X24.892Y-149.89
X24.892Y-153.575
X26.107Y-39.43
X26.107Y-47.05
X27.337Y-50.09
X27.337Y-52.59
X27.337Y-55.63
X27.432Y-142.27
X27.432Y-149.89
X29.147Y-39.43
X29.147Y-47.05
X29.877Y-55.63
X29.972Y-142.27
X29.972Y-149.89
X32.188Y-39.43
X32.188Y-47.05
X32.417Y-50.09
X32.417Y-52.59
X32.417Y-55.63
X32.512Y-142.27
X32.512Y-149.89
X32.512Y-153.575
X34.957Y-55.63
X35.227Y-39.43
X35.227Y-47.05
X37.497Y-50.09
X37.497Y-52.59
X37.497Y-55.63
X38.267Y-39.43
X38.267Y-47.05
X39.98Y-64.81
X39.98Y-80.05
X39.98Y-136.77
X39.98Y-152.01
X40.037Y-55.63
X41.307Y-39.43
X41.307Y-47.05
X42.52Y-64.81
X42.52Y-80.05
X42.52Y-136.77
X42.52Y-152.01
X42.577Y-50.09
X42.577Y-52.59
X42.577Y-55.63
X44.347Y-39.43
X44.347Y-47.05
X45.06Y-64.81
X45.06Y-80.05
X45.06Y-136.77
X45.06Y-152.01
X45.117Y-55.63
X47.04Y-94.99
X47.04Y-97.53
X47.04Y-100.07
X47.04Y-102.61
X47.04Y-105.15
X47.04Y-107.69
X47.04Y-110.23
X47.04Y-112.77
X47.04Y-115.31
X47.04Y-117.85
X47.04Y-120.39
X47.04Y-122.93
X47.04Y-125.47
X47.04Y-128.01
X47.387Y-39.43
X47.387Y-47.05
X47.457Y-50.09
X47.457Y-52.59
X47.6Y-64.81
X47.6Y-80.05
X47.6Y-136.77
X47.6Y-152.01
X47.657Y-55.63
X50.14Y-64.81
X50.14Y-80.05
X50.14Y-136.77
X50.14Y-152.01
X50.197Y-50.09
X50.197Y-52.59
X50.197Y-55.63
X50.427Y-39.43
X50.427Y-47.05
X52.68Y-64.81
X52.68Y-80.05
X52.68Y-136.77
X52.68Y-152.01
X55.22Y-64.81
X55.22Y-80.05
X55.22Y-136.77
X55.22Y-152.01
X55.89Y-38.74
X55.89Y-41.24
X57.76Y-64.81
X57.76Y-80.05
X57.76Y-136.77
X57.76Y-152.01
X59.2Y-38.74
X59.2Y-41.24
X60.3Y-64.81
X60.3Y-80.05
X60.3Y-136.77
X60.3Y-152.01
X61.21Y-24.57
X61.21Y-27.11
X61.21Y-29.65
X61.21Y-32.19
X62.28Y-94.99
X62.28Y-97.53
X62.28Y-100.07
X62.28Y-102.61
X62.28Y-105.15
X62.28Y-107.69
X62.28Y-110.23
X62.28Y-112.77
X62.28Y-115.31
X62.28Y-117.85
X62.28Y-120.39
X62.28Y-122.93
X62.28Y-125.47
X62.28Y-128.01
X62.84Y-64.81
X62.84Y-80.05
X62.84Y-136.77
X62.84Y-152.01
X65.38Y-64.81
X65.38Y-80.05
X65.38Y-136.77
X65.38Y-152.01
X67.92Y-64.81
X67.92Y-80.05
X67.92Y-136.77
X67.92Y-152.01
X68.072Y-85.852
X68.83Y-24.57
X68.83Y-27.11
X68.83Y-29.65
X68.83Y-32.19
X69.97Y-92.06
X70.06Y-94.99
X70.06Y-97.53
X70.06Y-100.07
X70.06Y-102.61
X70.06Y-105.15
X70.06Y-107.69
X70.06Y-110.23
X70.06Y-112.77
X70.06Y-115.31
X70.06Y-117.85
X70.06Y-120.39
X70.06Y-122.93
X70.06Y-125.47
X70.06Y-128.01
X70.46Y-64.81
X70.46Y-80.05
X70.46Y-136.77
X70.46Y-152.01
X70.572Y-85.852
X71.89Y-24.57
X72.47Y-92.06
X73.0Y-64.81
X73.0Y-80.05
X73.0Y-136.77
X73.0Y-152.01
X74.39Y-24.57
X75.54Y-64.81
X75.54Y-80.05
X75.54Y-136.77
X75.54Y-152.01
X78.08Y-64.81
X78.08Y-80.05
X78.08Y-136.77
X78.08Y-152.01
X79.67Y-32.68
X79.67Y-40.3
X80.62Y-64.81
X80.62Y-80.05
X80.62Y-136.77
X80.62Y-152.01
X83.16Y-64.81
X83.16Y-80.05
X83.16Y-136.77
X83.16Y-152.01
X85.3Y-94.99
X85.3Y-97.53
X85.3Y-100.07
X85.3Y-102.61
X85.3Y-105.15
X85.3Y-107.69
X85.3Y-110.23
X85.3Y-112.77
X85.3Y-115.31
X85.3Y-117.85
X85.3Y-120.39
X85.3Y-122.93
X85.3Y-125.47
X85.3Y-128.01
X85.35Y-92.02
X85.7Y-64.81
X85.7Y-80.05
X85.7Y-136.77
X85.7Y-152.01
X85.74Y-157.34
X87.85Y-92.02
X88.24Y-64.81
X88.24Y-80.05
X88.24Y-136.77
X88.24Y-152.01
X88.24Y-157.34
X93.8Y-31.97
X93.8Y-47.21
X96.34Y-31.97
X96.34Y-47.21
X98.88Y-31.97
X98.88Y-47.21
X101.42Y-31.97
X101.42Y-47.21
X103.96Y-31.97
X103.96Y-47.21
X106.5Y-31.97
X106.5Y-47.21
X109.04Y-31.97
X109.04Y-47.21
X111.58Y-31.97
X111.58Y-47.21
X113.3Y-61.11
X114.12Y-31.97
X114.12Y-47.21
X115.72Y-65.08
X115.72Y-67.62
X115.72Y-70.16
X115.72Y-72.7
X115.72Y-75.24
X115.72Y-77.78
X115.72Y-80.32
X115.72Y-136.81
X115.72Y-152.05
X115.88Y-157.34
X116.66Y-31.97
X116.66Y-47.21
X118.26Y-136.81
X118.26Y-152.05
X118.38Y-157.34
X119.2Y-31.97
X119.2Y-47.21
X120.8Y-136.81
X120.8Y-152.05
X120.92Y-61.11
X121.74Y-31.97
X121.74Y-47.21
X123.34Y-65.08
X123.34Y-67.62
X123.34Y-70.16
X123.34Y-72.7
X123.34Y-75.24
X123.34Y-77.78
X123.34Y-80.32
X123.34Y-136.81
X123.34Y-152.05
X123.36Y-61.11
X124.28Y-31.97
X124.28Y-47.21
X125.86Y-61.11
X125.88Y-136.81
X125.88Y-152.05
X126.82Y-31.97
X126.82Y-47.21
X127.12Y-85.41
X127.12Y-93.03
X127.12Y-98.227
X127.12Y-105.847
X127.12Y-111.043
X127.12Y-118.663
X127.12Y-123.86
X127.12Y-131.48
X128.42Y-136.81
X128.42Y-152.05
X129.04Y-65.08
X129.04Y-67.62
X129.04Y-70.16
X129.04Y-72.7
X129.04Y-75.24
X129.04Y-77.78
X129.04Y-80.32
X129.36Y-31.97
X129.36Y-47.21
X129.66Y-85.41
X129.66Y-93.03
X129.66Y-98.227
X129.66Y-105.847
X129.66Y-111.043
X129.66Y-118.663
X129.66Y-123.86
X129.66Y-131.48
X130.96Y-136.81
X130.96Y-152.05
X131.9Y-31.97
X131.9Y-47.21
X132.2Y-85.41
X132.2Y-93.03
X132.2Y-98.227
X132.2Y-105.847
X132.2Y-111.043
X132.2Y-118.663
X132.2Y-123.86
X132.2Y-131.48
X133.5Y-136.81
X133.5Y-152.05
X134.44Y-31.97
X134.44Y-47.21
X134.74Y-85.41
X134.74Y-93.03
X134.74Y-98.227
X134.74Y-105.847
X134.74Y-111.043
X134.74Y-118.663
X134.74Y-123.86
X134.74Y-131.48
X136.04Y-136.81
X136.04Y-152.05
X136.66Y-65.08
X136.66Y-67.62
X136.66Y-70.16
X136.66Y-72.7
X136.66Y-75.24
X136.66Y-77.78
X136.66Y-80.32
X136.98Y-31.97
X136.98Y-47.21
X137.28Y-85.41
X137.28Y-93.03
X137.28Y-98.227
X137.28Y-105.847
X137.28Y-111.043
X137.28Y-118.663
X137.28Y-123.86
X137.28Y-131.48
X138.58Y-136.81
X138.58Y-152.05
X139.06Y-61.11
X139.52Y-31.97
X139.52Y-47.21
X139.82Y-85.41
X139.82Y-93.03
X139.82Y-98.227
X139.82Y-105.847
X139.82Y-111.043
X139.82Y-118.663
X139.82Y-123.86
X139.82Y-131.48
X141.12Y-136.81
X141.12Y-152.05
X141.56Y-61.11
X142.06Y-31.97
X142.06Y-47.21
X142.36Y-65.08
X142.36Y-67.62
X142.36Y-70.16
X142.36Y-72.7
X142.36Y-75.24
X142.36Y-77.78
X142.36Y-80.32
X142.36Y-85.41
X142.36Y-93.03
X142.36Y-98.227
X142.36Y-105.847
X142.36Y-111.043
X142.36Y-118.663
X142.36Y-123.86
X142.36Y-131.48
X143.66Y-136.81
X143.66Y-152.05
X144.9Y-85.41
X144.9Y-93.03
X144.9Y-98.227
X144.9Y-105.847
X144.9Y-111.043
X144.9Y-118.663
X144.9Y-123.86
X144.9Y-131.48
X146.01Y-34.41
X146.01Y-36.91
X146.2Y-136.81
X146.2Y-152.05
X147.44Y-85.41
X147.44Y-93.03
X147.44Y-98.227
X147.44Y-105.847
X147.44Y-111.043
X147.44Y-118.663
X147.44Y-123.86
X147.44Y-131.48
X148.74Y-136.81
X148.74Y-152.05
X149.98Y-65.08
X149.98Y-67.62
X149.98Y-70.16
X149.98Y-72.7
X149.98Y-75.24
X149.98Y-77.78
X149.98Y-80.32
X149.98Y-85.41
X149.98Y-93.03
X149.98Y-98.227
X149.98Y-105.847
X149.98Y-111.043
X149.98Y-118.663
X149.98Y-123.86
X149.98Y-131.48
X150.23Y-61.11
X152.73Y-61.11
X155.49Y-140.59
X155.49Y-148.21
X155.73Y-26.77
X155.73Y-34.39
X156.977Y-51.683
X156.977Y-54.223
X156.977Y-56.763
X156.977Y-59.303
X156.977Y-61.843
X156.977Y-64.383
X156.977Y-66.923
X156.977Y-69.463
X156.977Y-72.003
X156.977Y-74.543
X158.27Y-26.77
X158.27Y-34.39
X159.557Y-47.52
X160.81Y-26.77
X160.81Y-34.39
X162.057Y-47.52
X162.273Y-86.805
X162.273Y-89.345
X162.273Y-91.885
X162.273Y-94.425
X162.273Y-96.965
X162.273Y-99.505
X162.273Y-102.045
X162.273Y-104.585
X162.273Y-107.125
X162.273Y-112.865
X162.273Y-115.405
X162.273Y-117.945
X162.273Y-120.485
X162.273Y-123.025
X162.273Y-125.565
X162.273Y-128.105
X162.273Y-130.645
X162.273Y-133.185
X163.35Y-26.77
X163.35Y-34.39
X164.597Y-51.683
X164.597Y-54.223
X164.597Y-56.763
X164.597Y-59.303
X164.597Y-61.843
X164.597Y-64.383
X164.597Y-66.923
X164.597Y-69.463
X164.597Y-72.003
X164.597Y-74.543
X165.89Y-26.77
X165.89Y-34.39
X166.973Y-86.785
X166.973Y-89.325
X166.973Y-91.865
X166.973Y-94.405
X166.973Y-96.945
X166.973Y-99.485
X166.973Y-102.025
X166.973Y-104.565
X166.973Y-107.105
X166.973Y-112.865
X166.973Y-115.405
X166.973Y-117.945
X166.973Y-120.485
X166.973Y-123.025
X166.973Y-125.565
X166.973Y-128.105
X166.973Y-130.645
X166.973Y-133.185
X168.43Y-26.77
X168.43Y-34.39
X170.183Y-51.683
X170.183Y-54.223
X170.183Y-56.763
X170.183Y-59.303
X170.183Y-61.843
X170.183Y-64.383
X170.183Y-66.923
X170.183Y-69.463
X170.183Y-72.003
X170.183Y-74.543
X170.289Y-121.565
X170.289Y-129.185
X170.73Y-140.59
X170.73Y-148.21
X170.884Y-101.245
X170.884Y-103.785
X170.884Y-106.325
X170.884Y-108.865
X170.884Y-114.58
X170.97Y-26.77
X170.97Y-34.39
X171.154Y-87.865
X171.154Y-95.62
X173.384Y-114.58
X173.51Y-26.77
X173.51Y-34.39
X173.654Y-87.865
X173.654Y-95.62
X174.47Y-47.52
X174.679Y-121.565
X174.679Y-129.185
X176.05Y-26.77
X176.05Y-34.39
X176.544Y-114.58
X176.97Y-47.52
X177.649Y-86.555
X177.649Y-94.175
X177.803Y-51.683
X177.803Y-54.223
X177.803Y-56.763
X177.803Y-59.303
X177.803Y-61.843
X177.803Y-64.383
X177.803Y-66.923
X177.803Y-69.463
X177.803Y-72.003
X177.803Y-74.543
X178.504Y-101.245
X178.504Y-103.785
X178.504Y-106.325
X178.504Y-108.865
X178.59Y-26.77
X178.59Y-34.39
X179.044Y-114.58
X179.069Y-121.565
X179.069Y-129.185
X181.634Y-86.555
X181.634Y-94.175
X182.03Y-34.39
X183.459Y-121.565
X183.459Y-129.185
X183.49Y-51.683
X183.49Y-54.223
X183.49Y-56.763
X183.49Y-59.303
X183.49Y-61.843
X183.49Y-64.383
X183.49Y-66.923
X183.49Y-69.463
X183.49Y-72.003
X183.49Y-74.543
X183.664Y-101.245
X183.664Y-103.785
X183.664Y-106.325
X183.664Y-108.865
X183.664Y-114.58
X184.53Y-34.52
X185.619Y-86.555
X185.619Y-94.175
X186.164Y-114.58
X187.849Y-121.565
X187.849Y-129.185
X189.284Y-114.58
X189.604Y-86.555
X189.604Y-94.175
X191.11Y-47.52
X191.11Y-51.683
X191.11Y-54.223
X191.11Y-56.763
X191.11Y-59.303
X191.11Y-61.843
X191.11Y-64.383
X191.11Y-66.923
X191.11Y-69.463
X191.11Y-72.003
X191.11Y-74.543
X191.284Y-101.245
X191.284Y-103.785
X191.284Y-106.325
X191.284Y-108.865
X191.784Y-114.58
X192.104Y-121.565
X192.104Y-129.185
X193.589Y-86.555
X193.589Y-94.175
X193.61Y-47.52
X196.11Y-39.35
X196.183Y-51.683
X196.183Y-54.223
X196.183Y-56.763
X196.183Y-59.303
X196.183Y-61.843
X196.183Y-64.383
X196.183Y-66.923
X196.183Y-69.463
X196.183Y-72.003
X196.183Y-74.543
X196.444Y-101.245
X196.444Y-103.785
X196.444Y-106.325
X196.444Y-108.865
X196.444Y-114.58
X196.444Y-121.875
X196.444Y-124.415
X196.444Y-126.955
X196.444Y-129.495
X196.444Y-132.035
X196.444Y-134.575
X196.444Y-137.115
X197.574Y-86.555
X197.574Y-94.175
X198.61Y-39.35
X198.944Y-114.58
X201.559Y-86.555
X201.559Y-94.175
X202.104Y-114.58
X203.343Y-47.52
X203.803Y-51.683
X203.803Y-54.223
X203.803Y-56.763
X203.803Y-59.303
X203.803Y-61.843
X203.803Y-64.383
X203.803Y-66.923
X203.803Y-69.463
X203.803Y-72.003
X203.803Y-74.543
X204.064Y-101.245
X204.064Y-103.785
X204.064Y-106.325
X204.064Y-108.865
X204.064Y-121.875
X204.064Y-124.415
X204.064Y-126.955
X204.064Y-129.495
X204.064Y-132.035
X204.064Y-134.575
X204.064Y-137.115
X204.604Y-114.58
X205.544Y-86.555
X205.544Y-94.175
X205.843Y-47.52
X208.594Y-101.245
X208.594Y-103.785
X208.594Y-106.325
X208.594Y-108.865
X208.594Y-111.405
X208.594Y-113.945
X208.594Y-116.485
X208.594Y-121.875
X208.594Y-124.415
X208.594Y-126.955
X208.594Y-129.495
X208.594Y-132.035
X208.594Y-134.575
X208.594Y-137.115
X209.29Y-39.81
X209.29Y-46.61
X209.529Y-86.555
X209.529Y-94.175
X212.09Y-39.81
X212.09Y-41.91
X212.09Y-44.51
X212.09Y-46.61
X214.364Y-93.16
X216.214Y-101.245
X216.214Y-103.785
X216.214Y-106.325
X216.214Y-108.865
X216.214Y-111.405
X216.214Y-113.945
X216.214Y-116.485
X216.214Y-121.875
X216.214Y-124.415
X216.214Y-126.955
X216.214Y-129.495
X216.214Y-132.035
X216.214Y-134.575
X216.214Y-137.115
X216.864Y-93.16
T6
X77.55Y-27.63
X80.09Y-27.63
X178.069Y-143.915
X180.609Y-143.915
X185.689Y-143.915
X188.229Y-143.915
X193.309Y-143.915
X195.849Y-143.915
X200.929Y-143.915
X203.469Y-143.915
X208.549Y-143.915
X211.089Y-143.915
T7
X-15.47Y-37.31
X-15.47Y-46.49
X-12.93Y-46.49
X-12.905Y-37.31
X-11.56Y-75.46
X-11.56Y-78.0
X-11.56Y-80.54
X-11.56Y-83.08
X-11.56Y-85.62
X-11.56Y-88.16
X-11.56Y-90.7
X-11.56Y-93.24
X-11.56Y-95.78
X-11.56Y-98.32
X-11.56Y-100.86
X-11.56Y-103.4
X-11.56Y-105.94
X-11.56Y-108.48
X-11.56Y-111.02
X-11.56Y-113.56
X-10.39Y-46.49
X-10.365Y-37.31
X-9.02Y-75.46
X-9.02Y-78.0
X-9.02Y-80.54
X-9.02Y-83.08
X-9.02Y-85.62
X-9.02Y-88.16
X-9.02Y-90.7
X-9.02Y-93.24
X-9.02Y-95.78
X-9.02Y-98.32
X-9.02Y-100.86
X-9.02Y-103.4
X-9.02Y-105.94
X-9.02Y-108.48
X-9.02Y-111.02
X-9.02Y-113.56
X-2.37Y-131.52
X0.17Y-131.52
X0.63Y-120.93
X0.63Y-123.47
X0.63Y-126.01
X1.524Y-53.54
X2.54Y-136.91
X2.71Y-131.52
X3.17Y-120.93
X3.17Y-123.47
X3.17Y-126.01
X4.064Y-53.54
X5.08Y-136.91
X5.25Y-131.52
X5.71Y-120.93
X5.71Y-123.47
X5.71Y-126.01
X6.604Y-53.54
X7.62Y-136.91
X7.79Y-131.52
X7.93Y-160.9
X7.93Y-163.44
X8.647Y-75.46
X8.647Y-78.0
X8.647Y-80.54
X8.647Y-83.08
X8.647Y-85.62
X8.647Y-88.16
X8.647Y-90.7
X8.647Y-93.24
X8.647Y-95.78
X8.647Y-98.32
X8.647Y-100.86
X8.647Y-103.4
X8.647Y-105.94
X8.647Y-108.48
X8.647Y-111.02
X8.647Y-113.56
X10.33Y-131.52
X10.47Y-160.9
X10.47Y-163.44
X11.188Y-75.46
X11.188Y-78.0
X11.188Y-80.54
X11.188Y-83.08
X11.188Y-85.62
X11.188Y-88.16
X11.188Y-90.7
X11.188Y-93.24
X11.188Y-95.78
X11.188Y-98.32
X11.188Y-100.86
X11.188Y-103.4
X11.188Y-105.94
X11.188Y-108.48
X11.188Y-111.02
X11.188Y-113.56
X12.7Y-53.54
X12.87Y-131.52
X13.01Y-160.9
X13.01Y-163.44
X14.04Y-136.91
X15.24Y-53.54
X15.41Y-131.52
X15.55Y-160.9
X15.55Y-163.44
X16.58Y-136.91
X17.78Y-53.54
X17.84Y-120.93
X17.84Y-123.47
X17.84Y-126.01
X17.95Y-131.52
X19.12Y-136.91
X20.38Y-120.93
X20.38Y-123.47
X20.38Y-126.01
X20.49Y-131.52
X21.66Y-136.91
X22.92Y-120.93
X22.92Y-123.47
X22.92Y-126.01
X23.03Y-131.52
X24.892Y-160.9
X24.892Y-163.44
X25.23Y-27.63
X25.57Y-131.52
X28.06Y-136.91
X28.11Y-131.52
X28.855Y-75.46
X28.855Y-78.0
X28.855Y-80.54
X28.855Y-83.08
X28.855Y-85.62
X28.855Y-88.16
X28.855Y-90.7
X28.855Y-93.24
X28.855Y-95.78
X28.855Y-98.32
X28.855Y-100.86
X28.855Y-103.4
X28.855Y-105.94
X28.855Y-108.48
X28.855Y-111.02
X28.855Y-113.56
X30.23Y-27.63
X30.6Y-136.91
X30.65Y-131.52
X31.395Y-75.46
X31.395Y-78.0
X31.395Y-80.54
X31.395Y-83.08
X31.395Y-85.62
X31.395Y-88.16
X31.395Y-90.7
X31.395Y-93.24
X31.395Y-95.78
X31.395Y-98.32
X31.395Y-100.86
X31.395Y-103.4
X31.395Y-105.94
X31.395Y-108.48
X31.395Y-111.02
X31.395Y-113.56
X32.512Y-158.36
X32.512Y-160.9
X32.512Y-163.44
X33.14Y-136.91
X33.19Y-131.52
X35.05Y-120.93
X35.05Y-123.47
X35.05Y-126.01
X35.73Y-131.52
X37.59Y-120.93
X37.59Y-123.47
X37.59Y-126.01
X40.13Y-120.93
X40.13Y-123.47
X40.13Y-126.01
X48.54Y-160.9
X48.54Y-163.44
X50.72Y-24.57
X50.72Y-27.49
X50.72Y-30.41
X50.72Y-33.33
X51.08Y-160.9
X51.08Y-163.44
X53.26Y-24.57
X53.26Y-27.49
X53.26Y-30.41
X53.26Y-33.33
X53.62Y-160.9
X53.62Y-163.44
X55.8Y-24.57
X55.8Y-27.49
X55.8Y-30.41
X55.8Y-33.33
X56.16Y-160.9
X56.16Y-163.44
X58.7Y-160.9
X58.7Y-163.44
X61.24Y-160.9
X61.24Y-163.44
X61.99Y-53.87
X61.99Y-56.41
X63.78Y-160.9
X63.78Y-163.44
X64.53Y-53.87
X64.53Y-56.41
X66.32Y-160.9
X66.32Y-163.44
X67.07Y-53.87
X67.07Y-56.41
X68.86Y-160.9
X68.86Y-163.44
X69.61Y-53.87
X69.61Y-56.41
X71.4Y-160.9
X71.4Y-163.44
X72.15Y-53.87
X72.15Y-56.41
X73.94Y-160.9
X73.94Y-163.44
X74.69Y-53.87
X74.69Y-56.41
X76.48Y-160.9
X76.48Y-163.44
X94.2Y-27.11
X95.63Y-152.21
X95.63Y-164.91
X96.74Y-27.11
X98.17Y-152.21
X98.17Y-164.91
X99.28Y-27.11
X100.71Y-152.21
X100.71Y-164.91
X101.82Y-27.11
X103.25Y-152.21
X103.25Y-164.91
X104.36Y-27.11
X105.79Y-152.21
X105.79Y-164.91
X106.9Y-27.11
X108.33Y-152.21
X108.33Y-164.91
X109.44Y-27.11
X111.98Y-27.11
X114.52Y-27.11
X116.52Y-88.36
X116.52Y-90.9
X116.52Y-93.44
X116.52Y-95.98
X116.52Y-98.52
X116.52Y-101.06
X116.52Y-103.6
X116.52Y-106.14
X116.52Y-108.68
X116.52Y-111.22
X116.52Y-113.76
X116.52Y-116.3
X116.52Y-118.84
X116.52Y-121.38
X116.52Y-123.92
X116.52Y-126.46
X117.06Y-27.11
X119.06Y-88.36
X119.06Y-90.9
X119.06Y-93.44
X119.06Y-95.98
X119.06Y-98.52
X119.06Y-101.06
X119.06Y-103.6
X119.06Y-106.14
X119.06Y-108.68
X119.06Y-111.22
X119.06Y-113.76
X119.06Y-116.3
X119.06Y-118.84
X119.06Y-121.38
X119.06Y-123.92
X119.06Y-126.46
X119.6Y-27.11
X122.14Y-27.11
X124.68Y-27.11
X127.22Y-27.11
X129.76Y-27.11
X130.65Y-61.11
X132.3Y-27.11
X133.19Y-61.11
X135.73Y-61.11
X137.32Y-157.6
X137.32Y-160.14
X137.32Y-162.68
X137.32Y-165.22
X139.86Y-157.6
X139.86Y-160.14
X139.86Y-162.68
X139.86Y-165.22
X147.61Y-162.68
X150.15Y-162.68
X152.69Y-162.68
X155.23Y-162.68
X157.77Y-162.68
X160.31Y-162.68
X161.81Y-42.76
X164.35Y-42.76
X166.89Y-42.76
X172.33Y-42.76
X174.87Y-42.76
X177.41Y-42.76
X182.85Y-42.76
X184.15Y-134.45
X184.15Y-136.99
X185.39Y-42.76
X186.69Y-134.45
X186.69Y-136.99
X187.93Y-42.76
X210.63Y-59.36
X210.63Y-61.9
X210.63Y-69.275
X213.17Y-59.36
X213.17Y-61.9
X213.17Y-69.275
X215.71Y-59.36
X215.71Y-61.9
X215.71Y-69.275
T8
X-5.86Y-156.625
X-5.86Y-161.125
X-5.48Y-40.82
X0.64Y-156.625
X0.64Y-161.125
X4.68Y-40.82
X12.8Y-25.725
X15.34Y-25.725
X17.88Y-25.725
X186.379Y-156.625
X186.379Y-161.125
X188.14Y-26.77
X188.14Y-29.31
X188.14Y-31.85
X192.879Y-156.625
X192.879Y-161.125
X199.619Y-156.625
X199.619Y-161.125
X206.119Y-156.625
X206.119Y-161.125
T9
X65.32Y-37.99
X65.32Y-42.99
X75.32Y-40.49
X171.394Y-156.805
X171.394Y-161.805
X181.394Y-159.305
X207.96Y-76.83
X207.96Y-81.83
X217.96Y-79.33
T10
X-12.7Y-27.94
X-12.7Y-162.56
X213.36Y-27.94
X213.36Y-162.56
T3
X38.385Y-25.73G85X38.385Y-26.33
G05
X38.385Y-28.73G85X38.385Y-29.33
G05
X38.385Y-32.73G85X38.385Y-33.33
G05
X42.885Y-34.23G85X42.885Y-34.83
G05
X43.885Y-25.73G85X43.885Y-26.33
G05
T7
X-5.1Y-30.615G85X-5.1Y-32.615
G05
X0.6Y-28.615G85X-1.4Y-28.615
G05
X0.6Y-34.615G85X-1.4Y-34.615
G05
X214.19Y-36.36G85X215.69Y-36.36
G05
X214.19Y-50.06G85X215.69Y-50.06
G05
X215.74Y-44.21G85X215.74Y-42.21
G05
T0
M30
