%FSLAX45Y45*%
G04 Gerber Fmt 4.5, Leading zero omitted, Abs format (unit mm)*
G04 Created by KiCad (PCBNEW (5.1.9)-1) date 2022-12-05 11:23:34*
%MOMM*%
%LPD*%
G01*
G04 APERTURE LIST*
%TA.AperFunction,Profile*%
%ADD10C,0.050000*%
%TD*%
%ADD11C,0.200000*%
%ADD12C,0.300000*%
G04 APERTURE END LIST*
D10*
X-2032000Y-16256000D02*
X-2032000Y-2794000D01*
X21336000Y-17018000D02*
X-1270000Y-17018000D01*
X22098000Y-2794000D02*
X22098000Y-16256000D01*
X-1270000Y-2032000D02*
X21336000Y-2032000D01*
X-1270000Y-17018000D02*
G75*
G02*
X-2032000Y-16256000I0J762000D01*
G01*
X22098000Y-16256000D02*
G75*
G02*
X21336000Y-17018000I-762000J0D01*
G01*
X21336000Y-2032000D02*
G75*
G02*
X22098000Y-2794000I0J-762000D01*
G01*
X-2032000Y-2794000D02*
G75*
G02*
X-1270000Y-2032000I762000J0D01*
G01*
D11*
X4008500Y-2673000D02*
X4128500Y-2793000D01*
X4128500Y-2673000D02*
X4008500Y-2793000D01*
X4008500Y-3373000D02*
X4128500Y-3493000D01*
X4128500Y-3373000D02*
X4008500Y-3493000D01*
X1709000Y-4238500D02*
G75*
G03*
X1709000Y-4238500I-175000J0D01*
G01*
X20655000Y-2931000D02*
G75*
G03*
X20655000Y-2931000I-175000J0D01*
G01*
D12*
X-1748071Y-17486214D02*
X-1748071Y-17186214D01*
X-1676643Y-17186214D01*
X-1633786Y-17200500D01*
X-1605214Y-17229072D01*
X-1590929Y-17257643D01*
X-1576643Y-17314786D01*
X-1576643Y-17357643D01*
X-1590929Y-17414786D01*
X-1605214Y-17443357D01*
X-1633786Y-17471929D01*
X-1676643Y-17486214D01*
X-1748071Y-17486214D01*
X-1448071Y-17486214D02*
X-1448071Y-17286214D01*
X-1448071Y-17343357D02*
X-1433786Y-17314786D01*
X-1419500Y-17300500D01*
X-1390929Y-17286214D01*
X-1362357Y-17286214D01*
X-1262357Y-17486214D02*
X-1262357Y-17286214D01*
X-1262357Y-17186214D02*
X-1276643Y-17200500D01*
X-1262357Y-17214786D01*
X-1248072Y-17200500D01*
X-1262357Y-17186214D01*
X-1262357Y-17214786D01*
X-1076643Y-17486214D02*
X-1105214Y-17471929D01*
X-1119500Y-17443357D01*
X-1119500Y-17186214D01*
X-919500Y-17486214D02*
X-948071Y-17471929D01*
X-962357Y-17443357D01*
X-962357Y-17186214D01*
X-576643Y-17486214D02*
X-576643Y-17186214D01*
X-476643Y-17400500D01*
X-376643Y-17186214D01*
X-376643Y-17486214D01*
X-105214Y-17486214D02*
X-105214Y-17329072D01*
X-119500Y-17300500D01*
X-148072Y-17286214D01*
X-205214Y-17286214D01*
X-233786Y-17300500D01*
X-105214Y-17471929D02*
X-133786Y-17486214D01*
X-205214Y-17486214D01*
X-233786Y-17471929D01*
X-248071Y-17443357D01*
X-248071Y-17414786D01*
X-233786Y-17386214D01*
X-205214Y-17371929D01*
X-133786Y-17371929D01*
X-105214Y-17357643D01*
X37643Y-17286214D02*
X37643Y-17586214D01*
X37643Y-17300500D02*
X66214Y-17286214D01*
X123357Y-17286214D01*
X151928Y-17300500D01*
X166214Y-17314786D01*
X180500Y-17343357D01*
X180500Y-17429072D01*
X166214Y-17457643D01*
X151928Y-17471929D01*
X123357Y-17486214D01*
X66214Y-17486214D01*
X37643Y-17471929D01*
X309071Y-17457643D02*
X323357Y-17471929D01*
X309071Y-17486214D01*
X294786Y-17471929D01*
X309071Y-17457643D01*
X309071Y-17486214D01*
X309071Y-17300500D02*
X323357Y-17314786D01*
X309071Y-17329072D01*
X294786Y-17314786D01*
X309071Y-17300500D01*
X309071Y-17329072D01*
X-2154500Y-17920500D02*
X-2034500Y-18040500D01*
X-2034500Y-17920500D02*
X-2154500Y-18040500D01*
X-1590929Y-18116214D02*
X-1762357Y-18116214D01*
X-1676643Y-18116214D02*
X-1676643Y-17816214D01*
X-1705214Y-17859072D01*
X-1733786Y-17887643D01*
X-1762357Y-17901929D01*
X-1462357Y-18087643D02*
X-1448071Y-18101929D01*
X-1462357Y-18116214D01*
X-1476643Y-18101929D01*
X-1462357Y-18087643D01*
X-1462357Y-18116214D01*
X-1333786Y-17844786D02*
X-1319500Y-17830500D01*
X-1290929Y-17816214D01*
X-1219500Y-17816214D01*
X-1190929Y-17830500D01*
X-1176643Y-17844786D01*
X-1162357Y-17873357D01*
X-1162357Y-17901929D01*
X-1176643Y-17944786D01*
X-1348072Y-18116214D01*
X-1162357Y-18116214D01*
X-976643Y-17816214D02*
X-948071Y-17816214D01*
X-919500Y-17830500D01*
X-905214Y-17844786D01*
X-890929Y-17873357D01*
X-876643Y-17930500D01*
X-876643Y-18001929D01*
X-890929Y-18059072D01*
X-905214Y-18087643D01*
X-919500Y-18101929D01*
X-948071Y-18116214D01*
X-976643Y-18116214D01*
X-1005214Y-18101929D01*
X-1019500Y-18087643D01*
X-1033786Y-18059072D01*
X-1048071Y-18001929D01*
X-1048071Y-17930500D01*
X-1033786Y-17873357D01*
X-1019500Y-17844786D01*
X-1005214Y-17830500D01*
X-976643Y-17816214D01*
X-748071Y-18116214D02*
X-748071Y-17916214D01*
X-748071Y-17944786D02*
X-733786Y-17930500D01*
X-705214Y-17916214D01*
X-662357Y-17916214D01*
X-633786Y-17930500D01*
X-619500Y-17959072D01*
X-619500Y-18116214D01*
X-619500Y-17959072D02*
X-605214Y-17930500D01*
X-576643Y-17916214D01*
X-533786Y-17916214D01*
X-505214Y-17930500D01*
X-490929Y-17959072D01*
X-490929Y-18116214D01*
X-348072Y-18116214D02*
X-348072Y-17916214D01*
X-348072Y-17944786D02*
X-333786Y-17930500D01*
X-305214Y-17916214D01*
X-262357Y-17916214D01*
X-233786Y-17930500D01*
X-219500Y-17959072D01*
X-219500Y-18116214D01*
X-219500Y-17959072D02*
X-205214Y-17930500D01*
X-176643Y-17916214D01*
X-133786Y-17916214D01*
X-105214Y-17930500D01*
X-90929Y-17959072D01*
X-90929Y-18116214D01*
X494786Y-17801929D02*
X237643Y-18187643D01*
X880500Y-17816214D02*
X909071Y-17816214D01*
X937643Y-17830500D01*
X951928Y-17844786D01*
X966214Y-17873357D01*
X980500Y-17930500D01*
X980500Y-18001929D01*
X966214Y-18059072D01*
X951928Y-18087643D01*
X937643Y-18101929D01*
X909071Y-18116214D01*
X880500Y-18116214D01*
X851928Y-18101929D01*
X837643Y-18087643D01*
X823357Y-18059072D01*
X809071Y-18001929D01*
X809071Y-17930500D01*
X823357Y-17873357D01*
X837643Y-17844786D01*
X851928Y-17830500D01*
X880500Y-17816214D01*
X1109071Y-18087643D02*
X1123357Y-18101929D01*
X1109071Y-18116214D01*
X1094786Y-18101929D01*
X1109071Y-18087643D01*
X1109071Y-18116214D01*
X1309071Y-17816214D02*
X1337643Y-17816214D01*
X1366214Y-17830500D01*
X1380500Y-17844786D01*
X1394786Y-17873357D01*
X1409071Y-17930500D01*
X1409071Y-18001929D01*
X1394786Y-18059072D01*
X1380500Y-18087643D01*
X1366214Y-18101929D01*
X1337643Y-18116214D01*
X1309071Y-18116214D01*
X1280500Y-18101929D01*
X1266214Y-18087643D01*
X1251928Y-18059072D01*
X1237643Y-18001929D01*
X1237643Y-17930500D01*
X1251928Y-17873357D01*
X1266214Y-17844786D01*
X1280500Y-17830500D01*
X1309071Y-17816214D01*
X1666214Y-17916214D02*
X1666214Y-18116214D01*
X1594786Y-17801929D02*
X1523357Y-18016214D01*
X1709071Y-18016214D01*
X1794786Y-17816214D02*
X1994786Y-17816214D01*
X1866214Y-18116214D01*
X2094786Y-17816214D02*
X2094786Y-17873357D01*
X2209071Y-17816214D02*
X2209071Y-17873357D01*
X2651928Y-18230500D02*
X2637643Y-18216214D01*
X2609071Y-18173357D01*
X2594786Y-18144786D01*
X2580500Y-18101929D01*
X2566214Y-18030500D01*
X2566214Y-17973357D01*
X2580500Y-17901929D01*
X2594786Y-17859072D01*
X2609071Y-17830500D01*
X2637643Y-17787643D01*
X2651928Y-17773357D01*
X2751928Y-17844786D02*
X2766214Y-17830500D01*
X2794786Y-17816214D01*
X2866214Y-17816214D01*
X2894786Y-17830500D01*
X2909071Y-17844786D01*
X2923357Y-17873357D01*
X2923357Y-17901929D01*
X2909071Y-17944786D01*
X2737643Y-18116214D01*
X2923357Y-18116214D01*
X3280500Y-18116214D02*
X3280500Y-17816214D01*
X3409071Y-18116214D02*
X3409071Y-17959072D01*
X3394786Y-17930500D01*
X3366214Y-17916214D01*
X3323357Y-17916214D01*
X3294786Y-17930500D01*
X3280500Y-17944786D01*
X3594786Y-18116214D02*
X3566214Y-18101929D01*
X3551928Y-18087643D01*
X3537643Y-18059072D01*
X3537643Y-17973357D01*
X3551928Y-17944786D01*
X3566214Y-17930500D01*
X3594786Y-17916214D01*
X3637643Y-17916214D01*
X3666214Y-17930500D01*
X3680500Y-17944786D01*
X3694786Y-17973357D01*
X3694786Y-18059072D01*
X3680500Y-18087643D01*
X3666214Y-18101929D01*
X3637643Y-18116214D01*
X3594786Y-18116214D01*
X3866214Y-18116214D02*
X3837643Y-18101929D01*
X3823357Y-18073357D01*
X3823357Y-17816214D01*
X4094786Y-18101929D02*
X4066214Y-18116214D01*
X4009071Y-18116214D01*
X3980500Y-18101929D01*
X3966214Y-18073357D01*
X3966214Y-17959072D01*
X3980500Y-17930500D01*
X4009071Y-17916214D01*
X4066214Y-17916214D01*
X4094786Y-17930500D01*
X4109071Y-17959072D01*
X4109071Y-17987643D01*
X3966214Y-18016214D01*
X4223357Y-18101929D02*
X4251928Y-18116214D01*
X4309071Y-18116214D01*
X4337643Y-18101929D01*
X4351928Y-18073357D01*
X4351928Y-18059072D01*
X4337643Y-18030500D01*
X4309071Y-18016214D01*
X4266214Y-18016214D01*
X4237643Y-18001929D01*
X4223357Y-17973357D01*
X4223357Y-17959072D01*
X4237643Y-17930500D01*
X4266214Y-17916214D01*
X4309071Y-17916214D01*
X4337643Y-17930500D01*
X4451928Y-18230500D02*
X4466214Y-18216214D01*
X4494786Y-18173357D01*
X4509071Y-18144786D01*
X4523357Y-18101929D01*
X4537643Y-18030500D01*
X4537643Y-17973357D01*
X4523357Y-17901929D01*
X4509071Y-17859072D01*
X4494786Y-17830500D01*
X4466214Y-17787643D01*
X4451928Y-17773357D01*
X4994786Y-18230500D02*
X4980500Y-18216214D01*
X4951928Y-18173357D01*
X4937643Y-18144786D01*
X4923357Y-18101929D01*
X4909071Y-18030500D01*
X4909071Y-17973357D01*
X4923357Y-17901929D01*
X4937643Y-17859072D01*
X4951928Y-17830500D01*
X4980500Y-17787643D01*
X4994786Y-17773357D01*
X5109071Y-17916214D02*
X5109071Y-18116214D01*
X5109071Y-17944786D02*
X5123357Y-17930500D01*
X5151928Y-17916214D01*
X5194786Y-17916214D01*
X5223357Y-17930500D01*
X5237643Y-17959072D01*
X5237643Y-18116214D01*
X5423357Y-18116214D02*
X5394786Y-18101929D01*
X5380500Y-18087643D01*
X5366214Y-18059072D01*
X5366214Y-17973357D01*
X5380500Y-17944786D01*
X5394786Y-17930500D01*
X5423357Y-17916214D01*
X5466214Y-17916214D01*
X5494786Y-17930500D01*
X5509071Y-17944786D01*
X5523357Y-17973357D01*
X5523357Y-18059072D01*
X5509071Y-18087643D01*
X5494786Y-18101929D01*
X5466214Y-18116214D01*
X5423357Y-18116214D01*
X5609071Y-17916214D02*
X5723357Y-17916214D01*
X5651928Y-17816214D02*
X5651928Y-18073357D01*
X5666214Y-18101929D01*
X5694786Y-18116214D01*
X5723357Y-18116214D01*
X6051928Y-17916214D02*
X6051928Y-18216214D01*
X6051928Y-17930500D02*
X6080500Y-17916214D01*
X6137643Y-17916214D01*
X6166214Y-17930500D01*
X6180500Y-17944786D01*
X6194786Y-17973357D01*
X6194786Y-18059072D01*
X6180500Y-18087643D01*
X6166214Y-18101929D01*
X6137643Y-18116214D01*
X6080500Y-18116214D01*
X6051928Y-18101929D01*
X6366214Y-18116214D02*
X6337643Y-18101929D01*
X6323357Y-18073357D01*
X6323357Y-17816214D01*
X6609071Y-18116214D02*
X6609071Y-17959072D01*
X6594786Y-17930500D01*
X6566214Y-17916214D01*
X6509071Y-17916214D01*
X6480500Y-17930500D01*
X6609071Y-18101929D02*
X6580500Y-18116214D01*
X6509071Y-18116214D01*
X6480500Y-18101929D01*
X6466214Y-18073357D01*
X6466214Y-18044786D01*
X6480500Y-18016214D01*
X6509071Y-18001929D01*
X6580500Y-18001929D01*
X6609071Y-17987643D01*
X6709071Y-17916214D02*
X6823357Y-17916214D01*
X6751928Y-17816214D02*
X6751928Y-18073357D01*
X6766214Y-18101929D01*
X6794786Y-18116214D01*
X6823357Y-18116214D01*
X7037643Y-18101929D02*
X7009071Y-18116214D01*
X6951928Y-18116214D01*
X6923357Y-18101929D01*
X6909071Y-18073357D01*
X6909071Y-17959072D01*
X6923357Y-17930500D01*
X6951928Y-17916214D01*
X7009071Y-17916214D01*
X7037643Y-17930500D01*
X7051928Y-17959072D01*
X7051928Y-17987643D01*
X6909071Y-18016214D01*
X7309071Y-18116214D02*
X7309071Y-17816214D01*
X7309071Y-18101929D02*
X7280500Y-18116214D01*
X7223357Y-18116214D01*
X7194786Y-18101929D01*
X7180500Y-18087643D01*
X7166214Y-18059072D01*
X7166214Y-17973357D01*
X7180500Y-17944786D01*
X7194786Y-17930500D01*
X7223357Y-17916214D01*
X7280500Y-17916214D01*
X7309071Y-17930500D01*
X7423357Y-18230500D02*
X7437643Y-18216214D01*
X7466214Y-18173357D01*
X7480500Y-18144786D01*
X7494786Y-18101929D01*
X7509071Y-18030500D01*
X7509071Y-17973357D01*
X7494786Y-17901929D01*
X7480500Y-17859072D01*
X7466214Y-17830500D01*
X7437643Y-17787643D01*
X7423357Y-17773357D01*
X-2034500Y-18376500D02*
G75*
G03*
X-2034500Y-18376500I-175000J0D01*
G01*
X-1776643Y-18212214D02*
X-1590929Y-18212214D01*
X-1690929Y-18326500D01*
X-1648071Y-18326500D01*
X-1619500Y-18340786D01*
X-1605214Y-18355072D01*
X-1590929Y-18383643D01*
X-1590929Y-18455072D01*
X-1605214Y-18483643D01*
X-1619500Y-18497929D01*
X-1648071Y-18512214D01*
X-1733786Y-18512214D01*
X-1762357Y-18497929D01*
X-1776643Y-18483643D01*
X-1462357Y-18483643D02*
X-1448071Y-18497929D01*
X-1462357Y-18512214D01*
X-1476643Y-18497929D01*
X-1462357Y-18483643D01*
X-1462357Y-18512214D01*
X-1176643Y-18212214D02*
X-1319500Y-18212214D01*
X-1333786Y-18355072D01*
X-1319500Y-18340786D01*
X-1290929Y-18326500D01*
X-1219500Y-18326500D01*
X-1190929Y-18340786D01*
X-1176643Y-18355072D01*
X-1162357Y-18383643D01*
X-1162357Y-18455072D01*
X-1176643Y-18483643D01*
X-1190929Y-18497929D01*
X-1219500Y-18512214D01*
X-1290929Y-18512214D01*
X-1319500Y-18497929D01*
X-1333786Y-18483643D01*
X-976643Y-18212214D02*
X-948071Y-18212214D01*
X-919500Y-18226500D01*
X-905214Y-18240786D01*
X-890929Y-18269357D01*
X-876643Y-18326500D01*
X-876643Y-18397929D01*
X-890929Y-18455072D01*
X-905214Y-18483643D01*
X-919500Y-18497929D01*
X-948071Y-18512214D01*
X-976643Y-18512214D01*
X-1005214Y-18497929D01*
X-1019500Y-18483643D01*
X-1033786Y-18455072D01*
X-1048071Y-18397929D01*
X-1048071Y-18326500D01*
X-1033786Y-18269357D01*
X-1019500Y-18240786D01*
X-1005214Y-18226500D01*
X-976643Y-18212214D01*
X-748071Y-18512214D02*
X-748071Y-18312214D01*
X-748071Y-18340786D02*
X-733786Y-18326500D01*
X-705214Y-18312214D01*
X-662357Y-18312214D01*
X-633786Y-18326500D01*
X-619500Y-18355072D01*
X-619500Y-18512214D01*
X-619500Y-18355072D02*
X-605214Y-18326500D01*
X-576643Y-18312214D01*
X-533786Y-18312214D01*
X-505214Y-18326500D01*
X-490929Y-18355072D01*
X-490929Y-18512214D01*
X-348072Y-18512214D02*
X-348072Y-18312214D01*
X-348072Y-18340786D02*
X-333786Y-18326500D01*
X-305214Y-18312214D01*
X-262357Y-18312214D01*
X-233786Y-18326500D01*
X-219500Y-18355072D01*
X-219500Y-18512214D01*
X-219500Y-18355072D02*
X-205214Y-18326500D01*
X-176643Y-18312214D01*
X-133786Y-18312214D01*
X-105214Y-18326500D01*
X-90929Y-18355072D01*
X-90929Y-18512214D01*
X494786Y-18197929D02*
X237643Y-18583643D01*
X880500Y-18212214D02*
X909071Y-18212214D01*
X937643Y-18226500D01*
X951928Y-18240786D01*
X966214Y-18269357D01*
X980500Y-18326500D01*
X980500Y-18397929D01*
X966214Y-18455072D01*
X951928Y-18483643D01*
X937643Y-18497929D01*
X909071Y-18512214D01*
X880500Y-18512214D01*
X851928Y-18497929D01*
X837643Y-18483643D01*
X823357Y-18455072D01*
X809071Y-18397929D01*
X809071Y-18326500D01*
X823357Y-18269357D01*
X837643Y-18240786D01*
X851928Y-18226500D01*
X880500Y-18212214D01*
X1109071Y-18483643D02*
X1123357Y-18497929D01*
X1109071Y-18512214D01*
X1094786Y-18497929D01*
X1109071Y-18483643D01*
X1109071Y-18512214D01*
X1409071Y-18512214D02*
X1237643Y-18512214D01*
X1323357Y-18512214D02*
X1323357Y-18212214D01*
X1294786Y-18255072D01*
X1266214Y-18283643D01*
X1237643Y-18297929D01*
X1509071Y-18212214D02*
X1694786Y-18212214D01*
X1594786Y-18326500D01*
X1637643Y-18326500D01*
X1666214Y-18340786D01*
X1680500Y-18355072D01*
X1694786Y-18383643D01*
X1694786Y-18455072D01*
X1680500Y-18483643D01*
X1666214Y-18497929D01*
X1637643Y-18512214D01*
X1551928Y-18512214D01*
X1523357Y-18497929D01*
X1509071Y-18483643D01*
X1866214Y-18340786D02*
X1837643Y-18326500D01*
X1823357Y-18312214D01*
X1809071Y-18283643D01*
X1809071Y-18269357D01*
X1823357Y-18240786D01*
X1837643Y-18226500D01*
X1866214Y-18212214D01*
X1923357Y-18212214D01*
X1951928Y-18226500D01*
X1966214Y-18240786D01*
X1980500Y-18269357D01*
X1980500Y-18283643D01*
X1966214Y-18312214D01*
X1951928Y-18326500D01*
X1923357Y-18340786D01*
X1866214Y-18340786D01*
X1837643Y-18355072D01*
X1823357Y-18369357D01*
X1809071Y-18397929D01*
X1809071Y-18455072D01*
X1823357Y-18483643D01*
X1837643Y-18497929D01*
X1866214Y-18512214D01*
X1923357Y-18512214D01*
X1951928Y-18497929D01*
X1966214Y-18483643D01*
X1980500Y-18455072D01*
X1980500Y-18397929D01*
X1966214Y-18369357D01*
X1951928Y-18355072D01*
X1923357Y-18340786D01*
X2094786Y-18212214D02*
X2094786Y-18269357D01*
X2209071Y-18212214D02*
X2209071Y-18269357D01*
X2651928Y-18626500D02*
X2637643Y-18612214D01*
X2609071Y-18569357D01*
X2594786Y-18540786D01*
X2580500Y-18497929D01*
X2566214Y-18426500D01*
X2566214Y-18369357D01*
X2580500Y-18297929D01*
X2594786Y-18255072D01*
X2609071Y-18226500D01*
X2637643Y-18183643D01*
X2651928Y-18169357D01*
X2751928Y-18240786D02*
X2766214Y-18226500D01*
X2794786Y-18212214D01*
X2866214Y-18212214D01*
X2894786Y-18226500D01*
X2909071Y-18240786D01*
X2923357Y-18269357D01*
X2923357Y-18297929D01*
X2909071Y-18340786D01*
X2737643Y-18512214D01*
X2923357Y-18512214D01*
X3280500Y-18512214D02*
X3280500Y-18212214D01*
X3409071Y-18512214D02*
X3409071Y-18355072D01*
X3394786Y-18326500D01*
X3366214Y-18312214D01*
X3323357Y-18312214D01*
X3294786Y-18326500D01*
X3280500Y-18340786D01*
X3594786Y-18512214D02*
X3566214Y-18497929D01*
X3551928Y-18483643D01*
X3537643Y-18455072D01*
X3537643Y-18369357D01*
X3551928Y-18340786D01*
X3566214Y-18326500D01*
X3594786Y-18312214D01*
X3637643Y-18312214D01*
X3666214Y-18326500D01*
X3680500Y-18340786D01*
X3694786Y-18369357D01*
X3694786Y-18455072D01*
X3680500Y-18483643D01*
X3666214Y-18497929D01*
X3637643Y-18512214D01*
X3594786Y-18512214D01*
X3866214Y-18512214D02*
X3837643Y-18497929D01*
X3823357Y-18469357D01*
X3823357Y-18212214D01*
X4094786Y-18497929D02*
X4066214Y-18512214D01*
X4009071Y-18512214D01*
X3980500Y-18497929D01*
X3966214Y-18469357D01*
X3966214Y-18355072D01*
X3980500Y-18326500D01*
X4009071Y-18312214D01*
X4066214Y-18312214D01*
X4094786Y-18326500D01*
X4109071Y-18355072D01*
X4109071Y-18383643D01*
X3966214Y-18412214D01*
X4223357Y-18497929D02*
X4251928Y-18512214D01*
X4309071Y-18512214D01*
X4337643Y-18497929D01*
X4351928Y-18469357D01*
X4351928Y-18455072D01*
X4337643Y-18426500D01*
X4309071Y-18412214D01*
X4266214Y-18412214D01*
X4237643Y-18397929D01*
X4223357Y-18369357D01*
X4223357Y-18355072D01*
X4237643Y-18326500D01*
X4266214Y-18312214D01*
X4309071Y-18312214D01*
X4337643Y-18326500D01*
X4451928Y-18626500D02*
X4466214Y-18612214D01*
X4494786Y-18569357D01*
X4509071Y-18540786D01*
X4523357Y-18497929D01*
X4537643Y-18426500D01*
X4537643Y-18369357D01*
X4523357Y-18297929D01*
X4509071Y-18255072D01*
X4494786Y-18226500D01*
X4466214Y-18183643D01*
X4451928Y-18169357D01*
X4994786Y-18626500D02*
X4980500Y-18612214D01*
X4951928Y-18569357D01*
X4937643Y-18540786D01*
X4923357Y-18497929D01*
X4909071Y-18426500D01*
X4909071Y-18369357D01*
X4923357Y-18297929D01*
X4937643Y-18255072D01*
X4951928Y-18226500D01*
X4980500Y-18183643D01*
X4994786Y-18169357D01*
X5109071Y-18312214D02*
X5109071Y-18512214D01*
X5109071Y-18340786D02*
X5123357Y-18326500D01*
X5151928Y-18312214D01*
X5194786Y-18312214D01*
X5223357Y-18326500D01*
X5237643Y-18355072D01*
X5237643Y-18512214D01*
X5423357Y-18512214D02*
X5394786Y-18497929D01*
X5380500Y-18483643D01*
X5366214Y-18455072D01*
X5366214Y-18369357D01*
X5380500Y-18340786D01*
X5394786Y-18326500D01*
X5423357Y-18312214D01*
X5466214Y-18312214D01*
X5494786Y-18326500D01*
X5509071Y-18340786D01*
X5523357Y-18369357D01*
X5523357Y-18455072D01*
X5509071Y-18483643D01*
X5494786Y-18497929D01*
X5466214Y-18512214D01*
X5423357Y-18512214D01*
X5609071Y-18312214D02*
X5723357Y-18312214D01*
X5651928Y-18212214D02*
X5651928Y-18469357D01*
X5666214Y-18497929D01*
X5694786Y-18512214D01*
X5723357Y-18512214D01*
X6051928Y-18312214D02*
X6051928Y-18612214D01*
X6051928Y-18326500D02*
X6080500Y-18312214D01*
X6137643Y-18312214D01*
X6166214Y-18326500D01*
X6180500Y-18340786D01*
X6194786Y-18369357D01*
X6194786Y-18455072D01*
X6180500Y-18483643D01*
X6166214Y-18497929D01*
X6137643Y-18512214D01*
X6080500Y-18512214D01*
X6051928Y-18497929D01*
X6366214Y-18512214D02*
X6337643Y-18497929D01*
X6323357Y-18469357D01*
X6323357Y-18212214D01*
X6609071Y-18512214D02*
X6609071Y-18355072D01*
X6594786Y-18326500D01*
X6566214Y-18312214D01*
X6509071Y-18312214D01*
X6480500Y-18326500D01*
X6609071Y-18497929D02*
X6580500Y-18512214D01*
X6509071Y-18512214D01*
X6480500Y-18497929D01*
X6466214Y-18469357D01*
X6466214Y-18440786D01*
X6480500Y-18412214D01*
X6509071Y-18397929D01*
X6580500Y-18397929D01*
X6609071Y-18383643D01*
X6709071Y-18312214D02*
X6823357Y-18312214D01*
X6751928Y-18212214D02*
X6751928Y-18469357D01*
X6766214Y-18497929D01*
X6794786Y-18512214D01*
X6823357Y-18512214D01*
X7037643Y-18497929D02*
X7009071Y-18512214D01*
X6951928Y-18512214D01*
X6923357Y-18497929D01*
X6909071Y-18469357D01*
X6909071Y-18355072D01*
X6923357Y-18326500D01*
X6951928Y-18312214D01*
X7009071Y-18312214D01*
X7037643Y-18326500D01*
X7051928Y-18355072D01*
X7051928Y-18383643D01*
X6909071Y-18412214D01*
X7309071Y-18512214D02*
X7309071Y-18212214D01*
X7309071Y-18497929D02*
X7280500Y-18512214D01*
X7223357Y-18512214D01*
X7194786Y-18497929D01*
X7180500Y-18483643D01*
X7166214Y-18455072D01*
X7166214Y-18369357D01*
X7180500Y-18340786D01*
X7194786Y-18326500D01*
X7223357Y-18312214D01*
X7280500Y-18312214D01*
X7309071Y-18326500D01*
X7423357Y-18626500D02*
X7437643Y-18612214D01*
X7466214Y-18569357D01*
X7480500Y-18540786D01*
X7494786Y-18497929D01*
X7509071Y-18426500D01*
X7509071Y-18369357D01*
X7494786Y-18297929D01*
X7480500Y-18255072D01*
X7466214Y-18226500D01*
X7437643Y-18183643D01*
X7423357Y-18169357D01*
M02*
