%FSLAX45Y45*%
G04 Gerber Fmt 4.5, Leading zero omitted, Abs format (unit mm)*
G04 Created by KiCad (PCBNEW (5.1.9)-1) date 2023-04-05 16:22:53*
%MOMM*%
%LPD*%
G01*
G04 APERTURE LIST*
%TA.AperFunction,Profile*%
%ADD10C,0.050000*%
%TD*%
%ADD11C,0.200000*%
%ADD12C,0.300000*%
G04 APERTURE END LIST*
D10*
X13487000Y-8719000D02*
X14606000Y-8719000D01*
X13487000Y-3689000D02*
X13487000Y-8719000D01*
X22180000Y-8925000D02*
X22180000Y-11999000D01*
X14606000Y-11999000D02*
X14606000Y-8719000D01*
X22180000Y-3689000D02*
X22180000Y-8925000D01*
X14606000Y-11999000D02*
X22180000Y-11999000D01*
X13487000Y-3689000D02*
X22180000Y-3689000D01*
D11*
D12*
X13770928Y-12467214D02*
X13770928Y-12167214D01*
X13842357Y-12167214D01*
X13885214Y-12181500D01*
X13913786Y-12210071D01*
X13928071Y-12238643D01*
X13942357Y-12295786D01*
X13942357Y-12338643D01*
X13928071Y-12395786D01*
X13913786Y-12424357D01*
X13885214Y-12452929D01*
X13842357Y-12467214D01*
X13770928Y-12467214D01*
X14070928Y-12467214D02*
X14070928Y-12267214D01*
X14070928Y-12324357D02*
X14085214Y-12295786D01*
X14099500Y-12281500D01*
X14128071Y-12267214D01*
X14156643Y-12267214D01*
X14256643Y-12467214D02*
X14256643Y-12267214D01*
X14256643Y-12167214D02*
X14242357Y-12181500D01*
X14256643Y-12195786D01*
X14270928Y-12181500D01*
X14256643Y-12167214D01*
X14256643Y-12195786D01*
X14442357Y-12467214D02*
X14413786Y-12452929D01*
X14399500Y-12424357D01*
X14399500Y-12167214D01*
X14599500Y-12467214D02*
X14570928Y-12452929D01*
X14556643Y-12424357D01*
X14556643Y-12167214D01*
X14942357Y-12467214D02*
X14942357Y-12167214D01*
X15042357Y-12381500D01*
X15142357Y-12167214D01*
X15142357Y-12467214D01*
X15413786Y-12467214D02*
X15413786Y-12310071D01*
X15399500Y-12281500D01*
X15370928Y-12267214D01*
X15313786Y-12267214D01*
X15285214Y-12281500D01*
X15413786Y-12452929D02*
X15385214Y-12467214D01*
X15313786Y-12467214D01*
X15285214Y-12452929D01*
X15270928Y-12424357D01*
X15270928Y-12395786D01*
X15285214Y-12367214D01*
X15313786Y-12352929D01*
X15385214Y-12352929D01*
X15413786Y-12338643D01*
X15556643Y-12267214D02*
X15556643Y-12567214D01*
X15556643Y-12281500D02*
X15585214Y-12267214D01*
X15642357Y-12267214D01*
X15670928Y-12281500D01*
X15685214Y-12295786D01*
X15699500Y-12324357D01*
X15699500Y-12410071D01*
X15685214Y-12438643D01*
X15670928Y-12452929D01*
X15642357Y-12467214D01*
X15585214Y-12467214D01*
X15556643Y-12452929D01*
X15828071Y-12438643D02*
X15842357Y-12452929D01*
X15828071Y-12467214D01*
X15813786Y-12452929D01*
X15828071Y-12438643D01*
X15828071Y-12467214D01*
X15828071Y-12281500D02*
X15842357Y-12295786D01*
X15828071Y-12310071D01*
X15813786Y-12295786D01*
X15828071Y-12281500D01*
X15828071Y-12310071D01*
M02*
