G04 #@! TF.GenerationSoftware,KiCad,Pcbnew,(5.1.9)-1*
G04 #@! TF.CreationDate,2023-04-05T16:21:32+01:00*
G04 #@! TF.ProjectId,AT65C02_HEX_rev002,41543635-4330-4325-9f48-45585f726576,rev?*
G04 #@! TF.SameCoordinates,Original*
G04 #@! TF.FileFunction,Soldermask,Top*
G04 #@! TF.FilePolarity,Negative*
%FSLAX46Y46*%
G04 Gerber Fmt 4.6, Leading zero omitted, Abs format (unit mm)*
G04 Created by KiCad (PCBNEW (5.1.9)-1) date 2023-04-05 16:21:32*
%MOMM*%
%LPD*%
G01*
G04 APERTURE LIST*
%ADD10C,1.702000*%
%ADD11O,1.626000X2.626000*%
%ADD12O,1.602000X1.152000*%
%ADD13O,1.702000X1.702000*%
%ADD14C,2.442000*%
%ADD15O,1.802000X1.802000*%
%ADD16C,0.100000*%
G04 APERTURE END LIST*
D10*
X169015000Y-87050000D03*
X174015000Y-87050000D03*
X158242000Y-87050000D03*
X163242000Y-87050000D03*
X177565000Y-108525000D03*
X177565000Y-113525000D03*
D11*
X209438000Y-40042000D03*
X211978000Y-40042000D03*
X214518000Y-40042000D03*
X217058000Y-40042000D03*
X219598000Y-40042000D03*
X219598000Y-55282000D03*
X217058000Y-55282000D03*
X214518000Y-55282000D03*
X211978000Y-55282000D03*
G36*
G01*
X208625000Y-56544000D02*
X208625000Y-54020000D01*
G75*
G02*
X208676000Y-53969000I51000J0D01*
G01*
X210200000Y-53969000D01*
G75*
G02*
X210251000Y-54020000I0J-51000D01*
G01*
X210251000Y-56544000D01*
G75*
G02*
X210200000Y-56595000I-51000J0D01*
G01*
X208676000Y-56595000D01*
G75*
G02*
X208625000Y-56544000I0J51000D01*
G01*
G37*
D10*
X195290000Y-98750000D03*
X195290000Y-93750000D03*
G36*
G01*
X175756000Y-66196000D02*
X174256000Y-66196000D01*
G75*
G02*
X174205000Y-66145000I0J51000D01*
G01*
X174205000Y-65095000D01*
G75*
G02*
X174256000Y-65044000I51000J0D01*
G01*
X175756000Y-65044000D01*
G75*
G02*
X175807000Y-65095000I0J-51000D01*
G01*
X175807000Y-66145000D01*
G75*
G02*
X175756000Y-66196000I-51000J0D01*
G01*
G37*
D12*
X175006000Y-63080000D03*
X175006000Y-64350000D03*
X183166000Y-64350000D03*
X183166000Y-63080000D03*
G36*
G01*
X183916000Y-66196000D02*
X182416000Y-66196000D01*
G75*
G02*
X182365000Y-66145000I0J51000D01*
G01*
X182365000Y-65095000D01*
G75*
G02*
X182416000Y-65044000I51000J0D01*
G01*
X183916000Y-65044000D01*
G75*
G02*
X183967000Y-65095000I0J-51000D01*
G01*
X183967000Y-66145000D01*
G75*
G02*
X183916000Y-66196000I-51000J0D01*
G01*
G37*
D13*
X202910000Y-105525000D03*
D10*
X195290000Y-105525000D03*
X195290000Y-102150000D03*
D13*
X202910000Y-102150000D03*
D10*
X186806000Y-62290000D03*
D13*
X186806000Y-69910000D03*
X153162000Y-64520000D03*
D10*
X160782000Y-64520000D03*
G36*
G01*
X189573000Y-112738000D02*
X189573000Y-114338000D01*
G75*
G02*
X189522000Y-114389000I-51000J0D01*
G01*
X187922000Y-114389000D01*
G75*
G02*
X187871000Y-114338000I0J51000D01*
G01*
X187871000Y-112738000D01*
G75*
G02*
X187922000Y-112687000I51000J0D01*
G01*
X189522000Y-112687000D01*
G75*
G02*
X189573000Y-112738000I0J-51000D01*
G01*
G37*
D13*
X181102000Y-90678000D03*
X188722000Y-110998000D03*
X181102000Y-93218000D03*
X188722000Y-108458000D03*
X181102000Y-95758000D03*
X188722000Y-105918000D03*
X181102000Y-98298000D03*
X188722000Y-103378000D03*
X181102000Y-100838000D03*
X188722000Y-100838000D03*
X181102000Y-103378000D03*
X188722000Y-98298000D03*
X181102000Y-105918000D03*
X188722000Y-95758000D03*
X181102000Y-108458000D03*
X188722000Y-93218000D03*
X181102000Y-110998000D03*
X188722000Y-90678000D03*
X181102000Y-113538000D03*
G36*
G01*
X198189000Y-91478000D02*
X198189000Y-89878000D01*
G75*
G02*
X198240000Y-89827000I51000J0D01*
G01*
X199840000Y-89827000D01*
G75*
G02*
X199891000Y-89878000I0J-51000D01*
G01*
X199891000Y-91478000D01*
G75*
G02*
X199840000Y-91529000I-51000J0D01*
G01*
X198240000Y-91529000D01*
G75*
G02*
X198189000Y-91478000I0J51000D01*
G01*
G37*
X206660000Y-98298000D03*
X199040000Y-93218000D03*
X206660000Y-95758000D03*
X199040000Y-95758000D03*
X206660000Y-93218000D03*
X199040000Y-98298000D03*
X206660000Y-90678000D03*
G36*
G01*
X139174000Y-66196000D02*
X137674000Y-66196000D01*
G75*
G02*
X137623000Y-66145000I0J51000D01*
G01*
X137623000Y-65095000D01*
G75*
G02*
X137674000Y-65044000I51000J0D01*
G01*
X139174000Y-65044000D01*
G75*
G02*
X139225000Y-65095000I0J-51000D01*
G01*
X139225000Y-66145000D01*
G75*
G02*
X139174000Y-66196000I-51000J0D01*
G01*
G37*
D12*
X138424000Y-63080000D03*
X138424000Y-64350000D03*
X146529333Y-64350000D03*
X146529333Y-63080000D03*
G36*
G01*
X147279333Y-66196000D02*
X145779333Y-66196000D01*
G75*
G02*
X145728333Y-66145000I0J51000D01*
G01*
X145728333Y-65095000D01*
G75*
G02*
X145779333Y-65044000I51000J0D01*
G01*
X147279333Y-65044000D01*
G75*
G02*
X147330333Y-65095000I0J-51000D01*
G01*
X147330333Y-66145000D01*
G75*
G02*
X147279333Y-66196000I-51000J0D01*
G01*
G37*
X191210666Y-64350000D03*
X191210666Y-63080000D03*
G36*
G01*
X191960666Y-66196000D02*
X190460666Y-66196000D01*
G75*
G02*
X190409666Y-66145000I0J51000D01*
G01*
X190409666Y-65095000D01*
G75*
G02*
X190460666Y-65044000I51000J0D01*
G01*
X191960666Y-65044000D01*
G75*
G02*
X192011666Y-65095000I0J-51000D01*
G01*
X192011666Y-66145000D01*
G75*
G02*
X191960666Y-66196000I-51000J0D01*
G01*
G37*
G36*
G01*
X200066000Y-66196000D02*
X198566000Y-66196000D01*
G75*
G02*
X198515000Y-66145000I0J51000D01*
G01*
X198515000Y-65095000D01*
G75*
G02*
X198566000Y-65044000I51000J0D01*
G01*
X200066000Y-65044000D01*
G75*
G02*
X200117000Y-65095000I0J-51000D01*
G01*
X200117000Y-66145000D01*
G75*
G02*
X200066000Y-66196000I-51000J0D01*
G01*
G37*
X199316000Y-63080000D03*
X199316000Y-64350000D03*
D10*
X160782000Y-68160000D03*
D13*
X153162000Y-68160000D03*
D10*
X142064000Y-62290000D03*
D13*
X142064000Y-69910000D03*
X150169333Y-69910000D03*
D10*
X150169333Y-62290000D03*
D13*
X213360000Y-64520000D03*
D10*
X205740000Y-64520000D03*
G36*
G01*
X203670000Y-74079000D02*
X205270000Y-74079000D01*
G75*
G02*
X205321000Y-74130000I0J-51000D01*
G01*
X205321000Y-75730000D01*
G75*
G02*
X205270000Y-75781000I-51000J0D01*
G01*
X203670000Y-75781000D01*
G75*
G02*
X203619000Y-75730000I0J51000D01*
G01*
X203619000Y-74130000D01*
G75*
G02*
X203670000Y-74079000I51000J0D01*
G01*
G37*
D13*
X186690000Y-82550000D03*
X201930000Y-74930000D03*
X189230000Y-82550000D03*
X199390000Y-74930000D03*
X191770000Y-82550000D03*
X196850000Y-74930000D03*
X194310000Y-82550000D03*
X194310000Y-74930000D03*
X196850000Y-82550000D03*
X191770000Y-74930000D03*
X199390000Y-82550000D03*
X189230000Y-74930000D03*
X201930000Y-82550000D03*
X186690000Y-74930000D03*
X204470000Y-82550000D03*
X180167000Y-82550000D03*
X162387000Y-74930000D03*
X177627000Y-82550000D03*
X164927000Y-74930000D03*
X175087000Y-82550000D03*
X167467000Y-74930000D03*
X172547000Y-82550000D03*
X170007000Y-74930000D03*
X170007000Y-82550000D03*
X172547000Y-74930000D03*
X167467000Y-82550000D03*
X175087000Y-74930000D03*
X164927000Y-82550000D03*
X177627000Y-74930000D03*
X162387000Y-82550000D03*
G36*
G01*
X179367000Y-74079000D02*
X180967000Y-74079000D01*
G75*
G02*
X181018000Y-74130000I0J-51000D01*
G01*
X181018000Y-75730000D01*
G75*
G02*
X180967000Y-75781000I-51000J0D01*
G01*
X179367000Y-75781000D01*
G75*
G02*
X179316000Y-75730000I0J51000D01*
G01*
X179316000Y-74130000D01*
G75*
G02*
X179367000Y-74079000I51000J0D01*
G01*
G37*
X170688000Y-68160000D03*
D10*
X163068000Y-68160000D03*
D13*
X170688000Y-64520000D03*
D10*
X163068000Y-64520000D03*
D13*
X178646000Y-69910000D03*
D10*
X178646000Y-62290000D03*
X205740000Y-68160000D03*
D13*
X213360000Y-68160000D03*
D10*
X194850666Y-62290000D03*
D13*
X194850666Y-69910000D03*
D10*
X202956000Y-62290000D03*
D13*
X202956000Y-69910000D03*
G36*
G01*
X155064000Y-74079000D02*
X156664000Y-74079000D01*
G75*
G02*
X156715000Y-74130000I0J-51000D01*
G01*
X156715000Y-75730000D01*
G75*
G02*
X156664000Y-75781000I-51000J0D01*
G01*
X155064000Y-75781000D01*
G75*
G02*
X155013000Y-75730000I0J51000D01*
G01*
X155013000Y-74130000D01*
G75*
G02*
X155064000Y-74079000I51000J0D01*
G01*
G37*
X138084000Y-82550000D03*
X153324000Y-74930000D03*
X140624000Y-82550000D03*
X150784000Y-74930000D03*
X143164000Y-82550000D03*
X148244000Y-74930000D03*
X145704000Y-82550000D03*
X145704000Y-74930000D03*
X148244000Y-82550000D03*
X143164000Y-74930000D03*
X150784000Y-82550000D03*
X140624000Y-74930000D03*
X153324000Y-82550000D03*
X138084000Y-74930000D03*
X155864000Y-82550000D03*
G36*
G01*
X162725000Y-91478000D02*
X162725000Y-89878000D01*
G75*
G02*
X162776000Y-89827000I51000J0D01*
G01*
X164376000Y-89827000D01*
G75*
G02*
X164427000Y-89878000I0J-51000D01*
G01*
X164427000Y-91478000D01*
G75*
G02*
X164376000Y-91529000I-51000J0D01*
G01*
X162776000Y-91529000D01*
G75*
G02*
X162725000Y-91478000I0J51000D01*
G01*
G37*
X171196000Y-113538000D03*
X163576000Y-93218000D03*
X171196000Y-110998000D03*
X163576000Y-95758000D03*
X171196000Y-108458000D03*
X163576000Y-98298000D03*
X171196000Y-105918000D03*
X163576000Y-100838000D03*
X171196000Y-103378000D03*
X163576000Y-103378000D03*
X171196000Y-100838000D03*
X163576000Y-105918000D03*
X171196000Y-98298000D03*
X163576000Y-108458000D03*
X171196000Y-95758000D03*
X163576000Y-110998000D03*
X171196000Y-93218000D03*
X163576000Y-113538000D03*
X171196000Y-90678000D03*
X158242000Y-90678000D03*
X150622000Y-113538000D03*
X158242000Y-93218000D03*
X150622000Y-110998000D03*
X158242000Y-95758000D03*
X150622000Y-108458000D03*
X158242000Y-98298000D03*
X150622000Y-105918000D03*
X158242000Y-100838000D03*
X150622000Y-103378000D03*
X158242000Y-103378000D03*
X150622000Y-100838000D03*
X158242000Y-105918000D03*
X150622000Y-98298000D03*
X158242000Y-108458000D03*
X150622000Y-95758000D03*
X158242000Y-110998000D03*
X150622000Y-93218000D03*
X158242000Y-113538000D03*
G36*
G01*
X149771000Y-91478000D02*
X149771000Y-89878000D01*
G75*
G02*
X149822000Y-89827000I51000J0D01*
G01*
X151422000Y-89827000D01*
G75*
G02*
X151473000Y-89878000I0J-51000D01*
G01*
X151473000Y-91478000D01*
G75*
G02*
X151422000Y-91529000I-51000J0D01*
G01*
X149822000Y-91529000D01*
G75*
G02*
X149771000Y-91478000I0J51000D01*
G01*
G37*
G36*
G01*
X136127000Y-56290000D02*
X136127000Y-53766000D01*
G75*
G02*
X136178000Y-53715000I51000J0D01*
G01*
X137702000Y-53715000D01*
G75*
G02*
X137753000Y-53766000I0J-51000D01*
G01*
X137753000Y-56290000D01*
G75*
G02*
X137702000Y-56341000I-51000J0D01*
G01*
X136178000Y-56341000D01*
G75*
G02*
X136127000Y-56290000I0J51000D01*
G01*
G37*
D11*
X139480000Y-55028000D03*
X142020000Y-55028000D03*
X144560000Y-55028000D03*
X147100000Y-55028000D03*
X147100000Y-39788000D03*
X144560000Y-39788000D03*
X142020000Y-39788000D03*
X139480000Y-39788000D03*
X136940000Y-39788000D03*
X149640000Y-39788000D03*
X152180000Y-39788000D03*
X154720000Y-39788000D03*
X157260000Y-39788000D03*
X159800000Y-39788000D03*
X159800000Y-55028000D03*
X157260000Y-55028000D03*
X154720000Y-55028000D03*
X152180000Y-55028000D03*
G36*
G01*
X148827000Y-56290000D02*
X148827000Y-53766000D01*
G75*
G02*
X148878000Y-53715000I51000J0D01*
G01*
X150402000Y-53715000D01*
G75*
G02*
X150453000Y-53766000I0J-51000D01*
G01*
X150453000Y-56290000D01*
G75*
G02*
X150402000Y-56341000I-51000J0D01*
G01*
X148878000Y-56341000D01*
G75*
G02*
X148827000Y-56290000I0J51000D01*
G01*
G37*
G36*
G01*
X161527000Y-56290000D02*
X161527000Y-53766000D01*
G75*
G02*
X161578000Y-53715000I51000J0D01*
G01*
X163102000Y-53715000D01*
G75*
G02*
X163153000Y-53766000I0J-51000D01*
G01*
X163153000Y-56290000D01*
G75*
G02*
X163102000Y-56341000I-51000J0D01*
G01*
X161578000Y-56341000D01*
G75*
G02*
X161527000Y-56290000I0J51000D01*
G01*
G37*
X164880000Y-55028000D03*
X167420000Y-55028000D03*
X169960000Y-55028000D03*
X172500000Y-55028000D03*
X172500000Y-39788000D03*
X169960000Y-39788000D03*
X167420000Y-39788000D03*
X164880000Y-39788000D03*
X162340000Y-39788000D03*
X175040000Y-39788000D03*
X177580000Y-39788000D03*
X180120000Y-39788000D03*
X182660000Y-39788000D03*
X185200000Y-39788000D03*
X185200000Y-55028000D03*
X182660000Y-55028000D03*
X180120000Y-55028000D03*
X177580000Y-55028000D03*
G36*
G01*
X174227000Y-56290000D02*
X174227000Y-53766000D01*
G75*
G02*
X174278000Y-53715000I51000J0D01*
G01*
X175802000Y-53715000D01*
G75*
G02*
X175853000Y-53766000I0J-51000D01*
G01*
X175853000Y-56290000D01*
G75*
G02*
X175802000Y-56341000I-51000J0D01*
G01*
X174278000Y-56341000D01*
G75*
G02*
X174227000Y-56290000I0J51000D01*
G01*
G37*
G36*
G01*
X195925000Y-56544000D02*
X195925000Y-54020000D01*
G75*
G02*
X195976000Y-53969000I51000J0D01*
G01*
X197500000Y-53969000D01*
G75*
G02*
X197551000Y-54020000I0J-51000D01*
G01*
X197551000Y-56544000D01*
G75*
G02*
X197500000Y-56595000I-51000J0D01*
G01*
X195976000Y-56595000D01*
G75*
G02*
X195925000Y-56544000I0J51000D01*
G01*
G37*
X199278000Y-55282000D03*
X201818000Y-55282000D03*
X204358000Y-55282000D03*
X206898000Y-55282000D03*
X206898000Y-40042000D03*
X204358000Y-40042000D03*
X201818000Y-40042000D03*
X199278000Y-40042000D03*
X196738000Y-40042000D03*
D10*
X206660000Y-101350000D03*
X206660000Y-106350000D03*
D14*
X192565000Y-116250000D03*
X202565000Y-113750000D03*
X192565000Y-111250000D03*
X205840000Y-111250000D03*
X215840000Y-113750000D03*
X205840000Y-116250000D03*
G36*
G01*
X220161000Y-59100000D02*
X220161000Y-60800000D01*
G75*
G02*
X220110000Y-60851000I-51000J0D01*
G01*
X218410000Y-60851000D01*
G75*
G02*
X218359000Y-60800000I0J51000D01*
G01*
X218359000Y-59100000D01*
G75*
G02*
X218410000Y-59049000I51000J0D01*
G01*
X220110000Y-59049000D01*
G75*
G02*
X220161000Y-59100000I0J-51000D01*
G01*
G37*
D15*
X216720000Y-59950000D03*
X219260000Y-62490000D03*
X216720000Y-62490000D03*
X219260000Y-65030000D03*
X216720000Y-65030000D03*
X219260000Y-67570000D03*
X216720000Y-67570000D03*
X219260000Y-70110000D03*
X216720000Y-70110000D03*
X219260000Y-72650000D03*
X216720000Y-72650000D03*
X219260000Y-75190000D03*
X216720000Y-75190000D03*
X219260000Y-77730000D03*
X216720000Y-77730000D03*
X219260000Y-80270000D03*
X216720000Y-80270000D03*
X219260000Y-82810000D03*
X216720000Y-82810000D03*
X219260000Y-85350000D03*
X216720000Y-85350000D03*
X219260000Y-87890000D03*
X216720000Y-87890000D03*
X219260000Y-90430000D03*
X216720000Y-90430000D03*
X219260000Y-92970000D03*
X216720000Y-92970000D03*
X219260000Y-95510000D03*
X216720000Y-95510000D03*
X219260000Y-98050000D03*
X216720000Y-98050000D03*
G36*
G01*
X216415000Y-104124000D02*
X218115000Y-104124000D01*
G75*
G02*
X218166000Y-104175000I0J-51000D01*
G01*
X218166000Y-105875000D01*
G75*
G02*
X218115000Y-105926000I-51000J0D01*
G01*
X216415000Y-105926000D01*
G75*
G02*
X216364000Y-105875000I0J51000D01*
G01*
X216364000Y-104175000D01*
G75*
G02*
X216415000Y-104124000I51000J0D01*
G01*
G37*
X217265000Y-102485000D03*
X214725000Y-105025000D03*
X214725000Y-102485000D03*
X212185000Y-105025000D03*
X212185000Y-102485000D03*
X219440000Y-116455000D03*
X219440000Y-113915000D03*
G36*
G01*
X218539000Y-112225000D02*
X218539000Y-110525000D01*
G75*
G02*
X218590000Y-110474000I51000J0D01*
G01*
X220290000Y-110474000D01*
G75*
G02*
X220341000Y-110525000I0J-51000D01*
G01*
X220341000Y-112225000D01*
G75*
G02*
X220290000Y-112276000I-51000J0D01*
G01*
X218590000Y-112276000D01*
G75*
G02*
X218539000Y-112225000I0J51000D01*
G01*
G37*
D16*
G36*
X199865674Y-64826390D02*
G01*
X199865115Y-64828130D01*
X199852269Y-64840976D01*
X199838874Y-64861024D01*
X199829647Y-64883297D01*
X199824943Y-64906948D01*
X199824943Y-64931054D01*
X199829647Y-64954704D01*
X199838874Y-64976978D01*
X199852268Y-64997025D01*
X199869315Y-65014072D01*
X199889363Y-65027467D01*
X199911636Y-65036694D01*
X199935333Y-65041407D01*
X199947438Y-65042002D01*
X199949119Y-65043086D01*
X199949021Y-65045084D01*
X199947340Y-65046000D01*
X198684660Y-65046000D01*
X198682928Y-65045000D01*
X198682928Y-65043000D01*
X198684464Y-65042010D01*
X198708651Y-65039628D01*
X198731726Y-65032628D01*
X198752990Y-65021263D01*
X198771627Y-65005968D01*
X198786922Y-64987331D01*
X198798287Y-64966067D01*
X198805287Y-64942992D01*
X198807650Y-64919001D01*
X198805287Y-64895010D01*
X198798287Y-64871935D01*
X198786922Y-64850671D01*
X198771595Y-64831995D01*
X198770123Y-64830661D01*
X198769511Y-64828757D01*
X198770854Y-64827275D01*
X198772409Y-64827415D01*
X198871343Y-64880298D01*
X198979023Y-64912962D01*
X199091094Y-64924000D01*
X199540906Y-64924000D01*
X199652977Y-64912962D01*
X199760657Y-64880298D01*
X199859892Y-64827255D01*
X199862432Y-64825170D01*
X199864406Y-64824844D01*
X199865674Y-64826390D01*
G37*
G36*
X147079007Y-64826390D02*
G01*
X147078448Y-64828130D01*
X147065602Y-64840976D01*
X147052207Y-64861024D01*
X147042980Y-64883297D01*
X147038276Y-64906948D01*
X147038276Y-64931054D01*
X147042980Y-64954704D01*
X147052207Y-64976978D01*
X147065601Y-64997025D01*
X147082648Y-65014072D01*
X147102696Y-65027467D01*
X147124969Y-65036694D01*
X147148666Y-65041407D01*
X147160771Y-65042002D01*
X147162452Y-65043086D01*
X147162354Y-65045084D01*
X147160673Y-65046000D01*
X145897993Y-65046000D01*
X145896261Y-65045000D01*
X145896261Y-65043000D01*
X145897797Y-65042010D01*
X145921984Y-65039628D01*
X145945059Y-65032628D01*
X145966323Y-65021263D01*
X145984960Y-65005968D01*
X146000255Y-64987331D01*
X146011620Y-64966067D01*
X146018620Y-64942992D01*
X146020983Y-64919001D01*
X146018620Y-64895010D01*
X146011620Y-64871935D01*
X146000255Y-64850671D01*
X145984928Y-64831995D01*
X145983456Y-64830661D01*
X145982844Y-64828757D01*
X145984187Y-64827275D01*
X145985742Y-64827415D01*
X146084676Y-64880298D01*
X146192356Y-64912962D01*
X146304427Y-64924000D01*
X146754239Y-64924000D01*
X146866310Y-64912962D01*
X146973990Y-64880298D01*
X147073225Y-64827255D01*
X147075765Y-64825170D01*
X147077739Y-64824844D01*
X147079007Y-64826390D01*
G37*
G36*
X175555674Y-64826390D02*
G01*
X175555115Y-64828130D01*
X175542269Y-64840976D01*
X175528874Y-64861024D01*
X175519647Y-64883297D01*
X175514943Y-64906948D01*
X175514943Y-64931054D01*
X175519647Y-64954704D01*
X175528874Y-64976978D01*
X175542268Y-64997025D01*
X175559315Y-65014072D01*
X175579363Y-65027467D01*
X175601636Y-65036694D01*
X175625333Y-65041407D01*
X175637438Y-65042002D01*
X175639119Y-65043086D01*
X175639021Y-65045084D01*
X175637340Y-65046000D01*
X174374660Y-65046000D01*
X174372928Y-65045000D01*
X174372928Y-65043000D01*
X174374464Y-65042010D01*
X174398651Y-65039628D01*
X174421726Y-65032628D01*
X174442990Y-65021263D01*
X174461627Y-65005968D01*
X174476922Y-64987331D01*
X174488287Y-64966067D01*
X174495287Y-64942992D01*
X174497650Y-64919001D01*
X174495287Y-64895010D01*
X174488287Y-64871935D01*
X174476922Y-64850671D01*
X174461595Y-64831995D01*
X174460123Y-64830661D01*
X174459511Y-64828757D01*
X174460854Y-64827275D01*
X174462409Y-64827415D01*
X174561343Y-64880298D01*
X174669023Y-64912962D01*
X174781094Y-64924000D01*
X175230906Y-64924000D01*
X175342977Y-64912962D01*
X175450657Y-64880298D01*
X175549892Y-64827255D01*
X175552432Y-64825170D01*
X175554406Y-64824844D01*
X175555674Y-64826390D01*
G37*
G36*
X183715674Y-64826390D02*
G01*
X183715115Y-64828130D01*
X183702269Y-64840976D01*
X183688874Y-64861024D01*
X183679647Y-64883297D01*
X183674943Y-64906948D01*
X183674943Y-64931054D01*
X183679647Y-64954704D01*
X183688874Y-64976978D01*
X183702268Y-64997025D01*
X183719315Y-65014072D01*
X183739363Y-65027467D01*
X183761636Y-65036694D01*
X183785333Y-65041407D01*
X183797438Y-65042002D01*
X183799119Y-65043086D01*
X183799021Y-65045084D01*
X183797340Y-65046000D01*
X182534660Y-65046000D01*
X182532928Y-65045000D01*
X182532928Y-65043000D01*
X182534464Y-65042010D01*
X182558651Y-65039628D01*
X182581726Y-65032628D01*
X182602990Y-65021263D01*
X182621627Y-65005968D01*
X182636922Y-64987331D01*
X182648287Y-64966067D01*
X182655287Y-64942992D01*
X182657650Y-64919001D01*
X182655287Y-64895010D01*
X182648287Y-64871935D01*
X182636922Y-64850671D01*
X182621595Y-64831995D01*
X182620123Y-64830661D01*
X182619511Y-64828757D01*
X182620854Y-64827275D01*
X182622409Y-64827415D01*
X182721343Y-64880298D01*
X182829023Y-64912962D01*
X182941094Y-64924000D01*
X183390906Y-64924000D01*
X183502977Y-64912962D01*
X183610657Y-64880298D01*
X183709892Y-64827255D01*
X183712432Y-64825170D01*
X183714406Y-64824844D01*
X183715674Y-64826390D01*
G37*
G36*
X191760340Y-64826390D02*
G01*
X191759781Y-64828130D01*
X191746935Y-64840976D01*
X191733540Y-64861024D01*
X191724313Y-64883297D01*
X191719609Y-64906948D01*
X191719609Y-64931054D01*
X191724313Y-64954704D01*
X191733540Y-64976978D01*
X191746934Y-64997025D01*
X191763981Y-65014072D01*
X191784029Y-65027467D01*
X191806302Y-65036694D01*
X191829999Y-65041407D01*
X191842104Y-65042002D01*
X191843785Y-65043086D01*
X191843687Y-65045084D01*
X191842006Y-65046000D01*
X190579326Y-65046000D01*
X190577594Y-65045000D01*
X190577594Y-65043000D01*
X190579130Y-65042010D01*
X190603317Y-65039628D01*
X190626392Y-65032628D01*
X190647656Y-65021263D01*
X190666293Y-65005968D01*
X190681588Y-64987331D01*
X190692953Y-64966067D01*
X190699953Y-64942992D01*
X190702316Y-64919001D01*
X190699953Y-64895010D01*
X190692953Y-64871935D01*
X190681588Y-64850671D01*
X190666261Y-64831995D01*
X190664789Y-64830661D01*
X190664177Y-64828757D01*
X190665520Y-64827275D01*
X190667075Y-64827415D01*
X190766009Y-64880298D01*
X190873689Y-64912962D01*
X190985760Y-64924000D01*
X191435572Y-64924000D01*
X191547643Y-64912962D01*
X191655323Y-64880298D01*
X191754558Y-64827255D01*
X191757098Y-64825170D01*
X191759072Y-64824844D01*
X191760340Y-64826390D01*
G37*
G36*
X138973674Y-64826390D02*
G01*
X138973115Y-64828130D01*
X138960269Y-64840976D01*
X138946874Y-64861024D01*
X138937647Y-64883297D01*
X138932943Y-64906948D01*
X138932943Y-64931054D01*
X138937647Y-64954704D01*
X138946874Y-64976978D01*
X138960268Y-64997025D01*
X138977315Y-65014072D01*
X138997363Y-65027467D01*
X139019636Y-65036694D01*
X139043333Y-65041407D01*
X139055438Y-65042002D01*
X139057119Y-65043086D01*
X139057021Y-65045084D01*
X139055340Y-65046000D01*
X137792660Y-65046000D01*
X137790928Y-65045000D01*
X137790928Y-65043000D01*
X137792464Y-65042010D01*
X137816651Y-65039628D01*
X137839726Y-65032628D01*
X137860990Y-65021263D01*
X137879627Y-65005968D01*
X137894922Y-64987331D01*
X137906287Y-64966067D01*
X137913287Y-64942992D01*
X137915650Y-64919001D01*
X137913287Y-64895010D01*
X137906287Y-64871935D01*
X137894922Y-64850671D01*
X137879595Y-64831995D01*
X137878123Y-64830661D01*
X137877511Y-64828757D01*
X137878854Y-64827275D01*
X137880409Y-64827415D01*
X137979343Y-64880298D01*
X138087023Y-64912962D01*
X138199094Y-64924000D01*
X138648906Y-64924000D01*
X138760977Y-64912962D01*
X138868657Y-64880298D01*
X138967892Y-64827255D01*
X138970432Y-64825170D01*
X138972406Y-64824844D01*
X138973674Y-64826390D01*
G37*
G36*
X190758733Y-63606409D02*
G01*
X190766009Y-63610298D01*
X190873689Y-63642962D01*
X190985760Y-63654000D01*
X191435572Y-63654000D01*
X191547643Y-63642962D01*
X191655323Y-63610298D01*
X191662599Y-63606409D01*
X191664598Y-63606475D01*
X191665541Y-63608238D01*
X191664653Y-63609836D01*
X191649548Y-63619929D01*
X191632501Y-63636976D01*
X191619106Y-63657024D01*
X191609880Y-63679298D01*
X191605176Y-63702948D01*
X191605176Y-63727054D01*
X191609881Y-63750704D01*
X191619107Y-63772978D01*
X191632502Y-63793025D01*
X191649549Y-63810072D01*
X191664653Y-63820164D01*
X191665538Y-63821958D01*
X191664427Y-63823621D01*
X191662599Y-63823591D01*
X191655323Y-63819702D01*
X191547643Y-63787038D01*
X191435572Y-63776000D01*
X190985760Y-63776000D01*
X190873689Y-63787038D01*
X190766009Y-63819702D01*
X190758733Y-63823591D01*
X190756734Y-63823525D01*
X190755791Y-63821762D01*
X190756679Y-63820164D01*
X190771784Y-63810071D01*
X190788831Y-63793024D01*
X190802226Y-63772976D01*
X190811452Y-63750702D01*
X190816156Y-63727052D01*
X190816156Y-63702946D01*
X190811451Y-63679296D01*
X190802225Y-63657022D01*
X190788830Y-63636975D01*
X190771783Y-63619928D01*
X190756679Y-63609836D01*
X190755794Y-63608042D01*
X190756905Y-63606379D01*
X190758733Y-63606409D01*
G37*
G36*
X137972067Y-63606409D02*
G01*
X137979343Y-63610298D01*
X138087023Y-63642962D01*
X138199094Y-63654000D01*
X138648906Y-63654000D01*
X138760977Y-63642962D01*
X138868657Y-63610298D01*
X138875933Y-63606409D01*
X138877932Y-63606475D01*
X138878875Y-63608238D01*
X138877987Y-63609836D01*
X138862882Y-63619929D01*
X138845835Y-63636976D01*
X138832440Y-63657024D01*
X138823214Y-63679298D01*
X138818510Y-63702948D01*
X138818510Y-63727054D01*
X138823215Y-63750704D01*
X138832441Y-63772978D01*
X138845836Y-63793025D01*
X138862883Y-63810072D01*
X138877987Y-63820164D01*
X138878872Y-63821958D01*
X138877761Y-63823621D01*
X138875933Y-63823591D01*
X138868657Y-63819702D01*
X138760977Y-63787038D01*
X138648906Y-63776000D01*
X138199094Y-63776000D01*
X138087023Y-63787038D01*
X137979343Y-63819702D01*
X137972067Y-63823591D01*
X137970068Y-63823525D01*
X137969125Y-63821762D01*
X137970013Y-63820164D01*
X137985118Y-63810071D01*
X138002165Y-63793024D01*
X138015560Y-63772976D01*
X138024786Y-63750702D01*
X138029490Y-63727052D01*
X138029490Y-63702946D01*
X138024785Y-63679296D01*
X138015559Y-63657022D01*
X138002164Y-63636975D01*
X137985117Y-63619928D01*
X137970013Y-63609836D01*
X137969128Y-63608042D01*
X137970239Y-63606379D01*
X137972067Y-63606409D01*
G37*
G36*
X146077400Y-63606409D02*
G01*
X146084676Y-63610298D01*
X146192356Y-63642962D01*
X146304427Y-63654000D01*
X146754239Y-63654000D01*
X146866310Y-63642962D01*
X146973990Y-63610298D01*
X146981266Y-63606409D01*
X146983265Y-63606475D01*
X146984208Y-63608238D01*
X146983320Y-63609836D01*
X146968215Y-63619929D01*
X146951168Y-63636976D01*
X146937773Y-63657024D01*
X146928547Y-63679298D01*
X146923843Y-63702948D01*
X146923843Y-63727054D01*
X146928548Y-63750704D01*
X146937774Y-63772978D01*
X146951169Y-63793025D01*
X146968216Y-63810072D01*
X146983320Y-63820164D01*
X146984205Y-63821958D01*
X146983094Y-63823621D01*
X146981266Y-63823591D01*
X146973990Y-63819702D01*
X146866310Y-63787038D01*
X146754239Y-63776000D01*
X146304427Y-63776000D01*
X146192356Y-63787038D01*
X146084676Y-63819702D01*
X146077400Y-63823591D01*
X146075401Y-63823525D01*
X146074458Y-63821762D01*
X146075346Y-63820164D01*
X146090451Y-63810071D01*
X146107498Y-63793024D01*
X146120893Y-63772976D01*
X146130119Y-63750702D01*
X146134823Y-63727052D01*
X146134823Y-63702946D01*
X146130118Y-63679296D01*
X146120892Y-63657022D01*
X146107497Y-63636975D01*
X146090450Y-63619928D01*
X146075346Y-63609836D01*
X146074461Y-63608042D01*
X146075572Y-63606379D01*
X146077400Y-63606409D01*
G37*
G36*
X198864067Y-63606409D02*
G01*
X198871343Y-63610298D01*
X198979023Y-63642962D01*
X199091094Y-63654000D01*
X199540906Y-63654000D01*
X199652977Y-63642962D01*
X199760657Y-63610298D01*
X199767933Y-63606409D01*
X199769932Y-63606475D01*
X199770875Y-63608238D01*
X199769987Y-63609836D01*
X199754882Y-63619929D01*
X199737835Y-63636976D01*
X199724440Y-63657024D01*
X199715214Y-63679298D01*
X199710510Y-63702948D01*
X199710510Y-63727054D01*
X199715215Y-63750704D01*
X199724441Y-63772978D01*
X199737836Y-63793025D01*
X199754883Y-63810072D01*
X199769987Y-63820164D01*
X199770872Y-63821958D01*
X199769761Y-63823621D01*
X199767933Y-63823591D01*
X199760657Y-63819702D01*
X199652977Y-63787038D01*
X199540906Y-63776000D01*
X199091094Y-63776000D01*
X198979023Y-63787038D01*
X198871343Y-63819702D01*
X198864067Y-63823591D01*
X198862068Y-63823525D01*
X198861125Y-63821762D01*
X198862013Y-63820164D01*
X198877118Y-63810071D01*
X198894165Y-63793024D01*
X198907560Y-63772976D01*
X198916786Y-63750702D01*
X198921490Y-63727052D01*
X198921490Y-63702946D01*
X198916785Y-63679296D01*
X198907559Y-63657022D01*
X198894164Y-63636975D01*
X198877117Y-63619928D01*
X198862013Y-63609836D01*
X198861128Y-63608042D01*
X198862239Y-63606379D01*
X198864067Y-63606409D01*
G37*
G36*
X174554067Y-63606409D02*
G01*
X174561343Y-63610298D01*
X174669023Y-63642962D01*
X174781094Y-63654000D01*
X175230906Y-63654000D01*
X175342977Y-63642962D01*
X175450657Y-63610298D01*
X175457933Y-63606409D01*
X175459932Y-63606475D01*
X175460875Y-63608238D01*
X175459987Y-63609836D01*
X175444882Y-63619929D01*
X175427835Y-63636976D01*
X175414440Y-63657024D01*
X175405214Y-63679298D01*
X175400510Y-63702948D01*
X175400510Y-63727054D01*
X175405215Y-63750704D01*
X175414441Y-63772978D01*
X175427836Y-63793025D01*
X175444883Y-63810072D01*
X175459987Y-63820164D01*
X175460872Y-63821958D01*
X175459761Y-63823621D01*
X175457933Y-63823591D01*
X175450657Y-63819702D01*
X175342977Y-63787038D01*
X175230906Y-63776000D01*
X174781094Y-63776000D01*
X174669023Y-63787038D01*
X174561343Y-63819702D01*
X174554067Y-63823591D01*
X174552068Y-63823525D01*
X174551125Y-63821762D01*
X174552013Y-63820164D01*
X174567118Y-63810071D01*
X174584165Y-63793024D01*
X174597560Y-63772976D01*
X174606786Y-63750702D01*
X174611490Y-63727052D01*
X174611490Y-63702946D01*
X174606785Y-63679296D01*
X174597559Y-63657022D01*
X174584164Y-63636975D01*
X174567117Y-63619928D01*
X174552013Y-63609836D01*
X174551128Y-63608042D01*
X174552239Y-63606379D01*
X174554067Y-63606409D01*
G37*
G36*
X182714067Y-63606409D02*
G01*
X182721343Y-63610298D01*
X182829023Y-63642962D01*
X182941094Y-63654000D01*
X183390906Y-63654000D01*
X183502977Y-63642962D01*
X183610657Y-63610298D01*
X183617933Y-63606409D01*
X183619932Y-63606475D01*
X183620875Y-63608238D01*
X183619987Y-63609836D01*
X183604882Y-63619929D01*
X183587835Y-63636976D01*
X183574440Y-63657024D01*
X183565214Y-63679298D01*
X183560510Y-63702948D01*
X183560510Y-63727054D01*
X183565215Y-63750704D01*
X183574441Y-63772978D01*
X183587836Y-63793025D01*
X183604883Y-63810072D01*
X183619987Y-63820164D01*
X183620872Y-63821958D01*
X183619761Y-63823621D01*
X183617933Y-63823591D01*
X183610657Y-63819702D01*
X183502977Y-63787038D01*
X183390906Y-63776000D01*
X182941094Y-63776000D01*
X182829023Y-63787038D01*
X182721343Y-63819702D01*
X182714067Y-63823591D01*
X182712068Y-63823525D01*
X182711125Y-63821762D01*
X182712013Y-63820164D01*
X182727118Y-63810071D01*
X182744165Y-63793024D01*
X182757560Y-63772976D01*
X182766786Y-63750702D01*
X182771490Y-63727052D01*
X182771490Y-63702946D01*
X182766785Y-63679296D01*
X182757559Y-63657022D01*
X182744164Y-63636975D01*
X182727117Y-63619928D01*
X182712013Y-63609836D01*
X182711128Y-63608042D01*
X182712239Y-63606379D01*
X182714067Y-63606409D01*
G37*
M02*
