G04 #@! TF.GenerationSoftware,KiCad,Pcbnew,(5.1.9)-1*
G04 #@! TF.CreationDate,2023-04-05T16:21:32+01:00*
G04 #@! TF.ProjectId,AT65C02_HEX_rev002,41543635-4330-4325-9f48-45585f726576,rev?*
G04 #@! TF.SameCoordinates,Original*
G04 #@! TF.FileFunction,Legend,Bot*
G04 #@! TF.FilePolarity,Positive*
%FSLAX46Y46*%
G04 Gerber Fmt 4.6, Leading zero omitted, Abs format (unit mm)*
G04 Created by KiCad (PCBNEW (5.1.9)-1) date 2023-04-05 16:21:32*
%MOMM*%
%LPD*%
G01*
G04 APERTURE LIST*
%ADD10C,0.200000*%
%ADD11C,0.120000*%
%ADD12C,0.150000*%
%ADD13C,1.702000*%
%ADD14O,1.626000X2.626000*%
%ADD15O,1.602000X1.152000*%
%ADD16O,1.702000X1.702000*%
%ADD17C,2.442000*%
%ADD18O,1.802000X1.802000*%
G04 APERTURE END LIST*
D10*
X206502857Y-59678571D02*
X206502857Y-58178571D01*
X205860000Y-59678571D02*
X205860000Y-58892857D01*
X205931428Y-58750000D01*
X206074285Y-58678571D01*
X206288571Y-58678571D01*
X206431428Y-58750000D01*
X206502857Y-58821428D01*
X205360000Y-58678571D02*
X204788571Y-58678571D01*
X205145714Y-58178571D02*
X205145714Y-59464285D01*
X205074285Y-59607142D01*
X204931428Y-59678571D01*
X204788571Y-59678571D01*
X204502857Y-58678571D02*
X203931428Y-58678571D01*
X204288571Y-58178571D02*
X204288571Y-59464285D01*
X204217142Y-59607142D01*
X204074285Y-59678571D01*
X203931428Y-59678571D01*
X203431428Y-58678571D02*
X203431428Y-60178571D01*
X203431428Y-58750000D02*
X203288571Y-58678571D01*
X203002857Y-58678571D01*
X202860000Y-58750000D01*
X202788571Y-58821428D01*
X202717142Y-58964285D01*
X202717142Y-59392857D01*
X202788571Y-59535714D01*
X202860000Y-59607142D01*
X203002857Y-59678571D01*
X203288571Y-59678571D01*
X203431428Y-59607142D01*
X202145714Y-59607142D02*
X202002857Y-59678571D01*
X201717142Y-59678571D01*
X201574285Y-59607142D01*
X201502857Y-59464285D01*
X201502857Y-59392857D01*
X201574285Y-59250000D01*
X201717142Y-59178571D01*
X201931428Y-59178571D01*
X202074285Y-59107142D01*
X202145714Y-58964285D01*
X202145714Y-58892857D01*
X202074285Y-58750000D01*
X201931428Y-58678571D01*
X201717142Y-58678571D01*
X201574285Y-58750000D01*
X200860000Y-59535714D02*
X200788571Y-59607142D01*
X200860000Y-59678571D01*
X200931428Y-59607142D01*
X200860000Y-59535714D01*
X200860000Y-59678571D01*
X200860000Y-58750000D02*
X200788571Y-58821428D01*
X200860000Y-58892857D01*
X200931428Y-58821428D01*
X200860000Y-58750000D01*
X200860000Y-58892857D01*
X199074285Y-58107142D02*
X200360000Y-60035714D01*
X197502857Y-58107142D02*
X198788571Y-60035714D01*
X196360000Y-58678571D02*
X196360000Y-59892857D01*
X196431428Y-60035714D01*
X196502857Y-60107142D01*
X196645714Y-60178571D01*
X196860000Y-60178571D01*
X197002857Y-60107142D01*
X196360000Y-59607142D02*
X196502857Y-59678571D01*
X196788571Y-59678571D01*
X196931428Y-59607142D01*
X197002857Y-59535714D01*
X197074285Y-59392857D01*
X197074285Y-58964285D01*
X197002857Y-58821428D01*
X196931428Y-58750000D01*
X196788571Y-58678571D01*
X196502857Y-58678571D01*
X196360000Y-58750000D01*
X195645714Y-59678571D02*
X195645714Y-58678571D01*
X195645714Y-58178571D02*
X195717142Y-58250000D01*
X195645714Y-58321428D01*
X195574285Y-58250000D01*
X195645714Y-58178571D01*
X195645714Y-58321428D01*
X195145714Y-58678571D02*
X194574285Y-58678571D01*
X194931428Y-58178571D02*
X194931428Y-59464285D01*
X194860000Y-59607142D01*
X194717142Y-59678571D01*
X194574285Y-59678571D01*
X194074285Y-59678571D02*
X194074285Y-58178571D01*
X193431428Y-59678571D02*
X193431428Y-58892857D01*
X193502857Y-58750000D01*
X193645714Y-58678571D01*
X193860000Y-58678571D01*
X194002857Y-58750000D01*
X194074285Y-58821428D01*
X192074285Y-58678571D02*
X192074285Y-59678571D01*
X192717142Y-58678571D02*
X192717142Y-59464285D01*
X192645714Y-59607142D01*
X192502857Y-59678571D01*
X192288571Y-59678571D01*
X192145714Y-59607142D01*
X192074285Y-59535714D01*
X191360000Y-59678571D02*
X191360000Y-58178571D01*
X191360000Y-58750000D02*
X191217142Y-58678571D01*
X190931428Y-58678571D01*
X190788571Y-58750000D01*
X190717142Y-58821428D01*
X190645714Y-58964285D01*
X190645714Y-59392857D01*
X190717142Y-59535714D01*
X190788571Y-59607142D01*
X190931428Y-59678571D01*
X191217142Y-59678571D01*
X191360000Y-59607142D01*
X190002857Y-59535714D02*
X189931428Y-59607142D01*
X190002857Y-59678571D01*
X190074285Y-59607142D01*
X190002857Y-59535714D01*
X190002857Y-59678571D01*
X188645714Y-59607142D02*
X188788571Y-59678571D01*
X189074285Y-59678571D01*
X189217142Y-59607142D01*
X189288571Y-59535714D01*
X189360000Y-59392857D01*
X189360000Y-58964285D01*
X189288571Y-58821428D01*
X189217142Y-58750000D01*
X189074285Y-58678571D01*
X188788571Y-58678571D01*
X188645714Y-58750000D01*
X187788571Y-59678571D02*
X187931428Y-59607142D01*
X188002857Y-59535714D01*
X188074285Y-59392857D01*
X188074285Y-58964285D01*
X188002857Y-58821428D01*
X187931428Y-58750000D01*
X187788571Y-58678571D01*
X187574285Y-58678571D01*
X187431428Y-58750000D01*
X187360000Y-58821428D01*
X187288571Y-58964285D01*
X187288571Y-59392857D01*
X187360000Y-59535714D01*
X187431428Y-59607142D01*
X187574285Y-59678571D01*
X187788571Y-59678571D01*
X186645714Y-59678571D02*
X186645714Y-58678571D01*
X186645714Y-58821428D02*
X186574285Y-58750000D01*
X186431428Y-58678571D01*
X186217142Y-58678571D01*
X186074285Y-58750000D01*
X186002857Y-58892857D01*
X186002857Y-59678571D01*
X186002857Y-58892857D02*
X185931428Y-58750000D01*
X185788571Y-58678571D01*
X185574285Y-58678571D01*
X185431428Y-58750000D01*
X185360000Y-58892857D01*
X185360000Y-59678571D01*
X183574285Y-58107142D02*
X184860000Y-60035714D01*
X183074285Y-59678571D02*
X183074285Y-58178571D01*
X182217142Y-59678571D02*
X182860000Y-58821428D01*
X182217142Y-58178571D02*
X183074285Y-59035714D01*
X180931428Y-59678571D02*
X180931428Y-58892857D01*
X181002857Y-58750000D01*
X181145714Y-58678571D01*
X181431428Y-58678571D01*
X181574285Y-58750000D01*
X180931428Y-59607142D02*
X181074285Y-59678571D01*
X181431428Y-59678571D01*
X181574285Y-59607142D01*
X181645714Y-59464285D01*
X181645714Y-59321428D01*
X181574285Y-59178571D01*
X181431428Y-59107142D01*
X181074285Y-59107142D01*
X180931428Y-59035714D01*
X180360000Y-58678571D02*
X180002857Y-59678571D01*
X179645714Y-58678571D02*
X180002857Y-59678571D01*
X180145714Y-60035714D01*
X180217142Y-60107142D01*
X180360000Y-60178571D01*
X179288571Y-58678571D02*
X178717142Y-58678571D01*
X179074285Y-58178571D02*
X179074285Y-59464285D01*
X179002857Y-59607142D01*
X178860000Y-59678571D01*
X178717142Y-59678571D01*
X178002857Y-59678571D02*
X178145714Y-59607142D01*
X178217142Y-59535714D01*
X178288571Y-59392857D01*
X178288571Y-58964285D01*
X178217142Y-58821428D01*
X178145714Y-58750000D01*
X178002857Y-58678571D01*
X177788571Y-58678571D01*
X177645714Y-58750000D01*
X177574285Y-58821428D01*
X177502857Y-58964285D01*
X177502857Y-59392857D01*
X177574285Y-59535714D01*
X177645714Y-59607142D01*
X177788571Y-59678571D01*
X178002857Y-59678571D01*
X171272857Y-55478571D02*
X171272857Y-53978571D01*
X170701428Y-53978571D01*
X170558571Y-54050000D01*
X170487142Y-54121428D01*
X170415714Y-54264285D01*
X170415714Y-54478571D01*
X170487142Y-54621428D01*
X170558571Y-54692857D01*
X170701428Y-54764285D01*
X171272857Y-54764285D01*
X168915714Y-55335714D02*
X168987142Y-55407142D01*
X169201428Y-55478571D01*
X169344285Y-55478571D01*
X169558571Y-55407142D01*
X169701428Y-55264285D01*
X169772857Y-55121428D01*
X169844285Y-54835714D01*
X169844285Y-54621428D01*
X169772857Y-54335714D01*
X169701428Y-54192857D01*
X169558571Y-54050000D01*
X169344285Y-53978571D01*
X169201428Y-53978571D01*
X168987142Y-54050000D01*
X168915714Y-54121428D01*
X167772857Y-54692857D02*
X167558571Y-54764285D01*
X167487142Y-54835714D01*
X167415714Y-54978571D01*
X167415714Y-55192857D01*
X167487142Y-55335714D01*
X167558571Y-55407142D01*
X167701428Y-55478571D01*
X168272857Y-55478571D01*
X168272857Y-53978571D01*
X167772857Y-53978571D01*
X167630000Y-54050000D01*
X167558571Y-54121428D01*
X167487142Y-54264285D01*
X167487142Y-54407142D01*
X167558571Y-54550000D01*
X167630000Y-54621428D01*
X167772857Y-54692857D01*
X168272857Y-54692857D01*
X165630000Y-55478571D02*
X165630000Y-53978571D01*
X165630000Y-54550000D02*
X165487142Y-54478571D01*
X165201428Y-54478571D01*
X165058571Y-54550000D01*
X164987142Y-54621428D01*
X164915714Y-54764285D01*
X164915714Y-55192857D01*
X164987142Y-55335714D01*
X165058571Y-55407142D01*
X165201428Y-55478571D01*
X165487142Y-55478571D01*
X165630000Y-55407142D01*
X164415714Y-54478571D02*
X164058571Y-55478571D01*
X163701428Y-54478571D02*
X164058571Y-55478571D01*
X164201428Y-55835714D01*
X164272857Y-55907142D01*
X164415714Y-55978571D01*
X162058571Y-55050000D02*
X161344285Y-55050000D01*
X162201428Y-55478571D02*
X161701428Y-53978571D01*
X161201428Y-55478571D01*
X160058571Y-55478571D02*
X160058571Y-53978571D01*
X160058571Y-55407142D02*
X160201428Y-55478571D01*
X160487142Y-55478571D01*
X160630000Y-55407142D01*
X160701428Y-55335714D01*
X160772857Y-55192857D01*
X160772857Y-54764285D01*
X160701428Y-54621428D01*
X160630000Y-54550000D01*
X160487142Y-54478571D01*
X160201428Y-54478571D01*
X160058571Y-54550000D01*
X158701428Y-55478571D02*
X158701428Y-54692857D01*
X158772857Y-54550000D01*
X158915714Y-54478571D01*
X159201428Y-54478571D01*
X159344285Y-54550000D01*
X158701428Y-55407142D02*
X158844285Y-55478571D01*
X159201428Y-55478571D01*
X159344285Y-55407142D01*
X159415714Y-55264285D01*
X159415714Y-55121428D01*
X159344285Y-54978571D01*
X159201428Y-54907142D01*
X158844285Y-54907142D01*
X158701428Y-54835714D01*
X157987142Y-55478571D02*
X157987142Y-54478571D01*
X157987142Y-54621428D02*
X157915714Y-54550000D01*
X157772857Y-54478571D01*
X157558571Y-54478571D01*
X157415714Y-54550000D01*
X157344285Y-54692857D01*
X157344285Y-55478571D01*
X157344285Y-54692857D02*
X157272857Y-54550000D01*
X157130000Y-54478571D01*
X156915714Y-54478571D01*
X156772857Y-54550000D01*
X156701428Y-54692857D01*
X156701428Y-55478571D01*
X156201428Y-53978571D02*
X155344285Y-53978571D01*
X155772857Y-55478571D02*
X155772857Y-53978571D01*
X154058571Y-55478571D02*
X154915714Y-55478571D01*
X154487142Y-55478571D02*
X154487142Y-53978571D01*
X154630000Y-54192857D01*
X154772857Y-54335714D01*
X154915714Y-54407142D01*
X152630000Y-55478571D02*
X153487142Y-55478571D01*
X153058571Y-55478571D02*
X153058571Y-53978571D01*
X153201428Y-54192857D01*
X153344285Y-54335714D01*
X153487142Y-54407142D01*
X152130000Y-53978571D02*
X151130000Y-53978571D01*
X151772857Y-55478571D01*
X214287619Y-46333333D02*
X213335238Y-46333333D01*
X214478095Y-46904761D02*
X213811428Y-44904761D01*
X213144761Y-46904761D01*
X212763809Y-44904761D02*
X211620952Y-44904761D01*
X212192380Y-46904761D02*
X212192380Y-44904761D01*
X210097142Y-44904761D02*
X210478095Y-44904761D01*
X210668571Y-45000000D01*
X210763809Y-45095238D01*
X210954285Y-45380952D01*
X211049523Y-45761904D01*
X211049523Y-46523809D01*
X210954285Y-46714285D01*
X210859047Y-46809523D01*
X210668571Y-46904761D01*
X210287619Y-46904761D01*
X210097142Y-46809523D01*
X210001904Y-46714285D01*
X209906666Y-46523809D01*
X209906666Y-46047619D01*
X210001904Y-45857142D01*
X210097142Y-45761904D01*
X210287619Y-45666666D01*
X210668571Y-45666666D01*
X210859047Y-45761904D01*
X210954285Y-45857142D01*
X211049523Y-46047619D01*
X208097142Y-44904761D02*
X209049523Y-44904761D01*
X209144761Y-45857142D01*
X209049523Y-45761904D01*
X208859047Y-45666666D01*
X208382857Y-45666666D01*
X208192380Y-45761904D01*
X208097142Y-45857142D01*
X208001904Y-46047619D01*
X208001904Y-46523809D01*
X208097142Y-46714285D01*
X208192380Y-46809523D01*
X208382857Y-46904761D01*
X208859047Y-46904761D01*
X209049523Y-46809523D01*
X209144761Y-46714285D01*
X206001904Y-46714285D02*
X206097142Y-46809523D01*
X206382857Y-46904761D01*
X206573333Y-46904761D01*
X206859047Y-46809523D01*
X207049523Y-46619047D01*
X207144761Y-46428571D01*
X207240000Y-46047619D01*
X207240000Y-45761904D01*
X207144761Y-45380952D01*
X207049523Y-45190476D01*
X206859047Y-45000000D01*
X206573333Y-44904761D01*
X206382857Y-44904761D01*
X206097142Y-45000000D01*
X206001904Y-45095238D01*
X204763809Y-44904761D02*
X204573333Y-44904761D01*
X204382857Y-45000000D01*
X204287619Y-45095238D01*
X204192380Y-45285714D01*
X204097142Y-45666666D01*
X204097142Y-46142857D01*
X204192380Y-46523809D01*
X204287619Y-46714285D01*
X204382857Y-46809523D01*
X204573333Y-46904761D01*
X204763809Y-46904761D01*
X204954285Y-46809523D01*
X205049523Y-46714285D01*
X205144761Y-46523809D01*
X205240000Y-46142857D01*
X205240000Y-45666666D01*
X205144761Y-45285714D01*
X205049523Y-45095238D01*
X204954285Y-45000000D01*
X204763809Y-44904761D01*
X203335238Y-45095238D02*
X203240000Y-45000000D01*
X203049523Y-44904761D01*
X202573333Y-44904761D01*
X202382857Y-45000000D01*
X202287619Y-45095238D01*
X202192380Y-45285714D01*
X202192380Y-45476190D01*
X202287619Y-45761904D01*
X203430476Y-46904761D01*
X202192380Y-46904761D01*
X216620952Y-50104761D02*
X216620952Y-48104761D01*
X216620952Y-49057142D02*
X215478095Y-49057142D01*
X215478095Y-50104761D02*
X215478095Y-48104761D01*
X213763809Y-50009523D02*
X213954285Y-50104761D01*
X214335238Y-50104761D01*
X214525714Y-50009523D01*
X214620952Y-49819047D01*
X214620952Y-49057142D01*
X214525714Y-48866666D01*
X214335238Y-48771428D01*
X213954285Y-48771428D01*
X213763809Y-48866666D01*
X213668571Y-49057142D01*
X213668571Y-49247619D01*
X214620952Y-49438095D01*
X213001904Y-50104761D02*
X211954285Y-48771428D01*
X213001904Y-48771428D02*
X211954285Y-50104761D01*
X209668571Y-50104761D02*
X209668571Y-48104761D01*
X209192380Y-48104761D01*
X208906666Y-48200000D01*
X208716190Y-48390476D01*
X208620952Y-48580952D01*
X208525714Y-48961904D01*
X208525714Y-49247619D01*
X208620952Y-49628571D01*
X208716190Y-49819047D01*
X208906666Y-50009523D01*
X209192380Y-50104761D01*
X209668571Y-50104761D01*
X207668571Y-50104761D02*
X207668571Y-48771428D01*
X207668571Y-48104761D02*
X207763809Y-48200000D01*
X207668571Y-48295238D01*
X207573333Y-48200000D01*
X207668571Y-48104761D01*
X207668571Y-48295238D01*
X206811428Y-50009523D02*
X206620952Y-50104761D01*
X206240000Y-50104761D01*
X206049523Y-50009523D01*
X205954285Y-49819047D01*
X205954285Y-49723809D01*
X206049523Y-49533333D01*
X206240000Y-49438095D01*
X206525714Y-49438095D01*
X206716190Y-49342857D01*
X206811428Y-49152380D01*
X206811428Y-49057142D01*
X206716190Y-48866666D01*
X206525714Y-48771428D01*
X206240000Y-48771428D01*
X206049523Y-48866666D01*
X205097142Y-48771428D02*
X205097142Y-50771428D01*
X205097142Y-48866666D02*
X204906666Y-48771428D01*
X204525714Y-48771428D01*
X204335238Y-48866666D01*
X204240000Y-48961904D01*
X204144761Y-49152380D01*
X204144761Y-49723809D01*
X204240000Y-49914285D01*
X204335238Y-50009523D01*
X204525714Y-50104761D01*
X204906666Y-50104761D01*
X205097142Y-50009523D01*
X203001904Y-50104761D02*
X203192380Y-50009523D01*
X203287619Y-49819047D01*
X203287619Y-48104761D01*
X201382857Y-50104761D02*
X201382857Y-49057142D01*
X201478095Y-48866666D01*
X201668571Y-48771428D01*
X202049523Y-48771428D01*
X202240000Y-48866666D01*
X201382857Y-50009523D02*
X201573333Y-50104761D01*
X202049523Y-50104761D01*
X202240000Y-50009523D01*
X202335238Y-49819047D01*
X202335238Y-49628571D01*
X202240000Y-49438095D01*
X202049523Y-49342857D01*
X201573333Y-49342857D01*
X201382857Y-49247619D01*
X200620952Y-48771428D02*
X200144761Y-50104761D01*
X199668571Y-48771428D02*
X200144761Y-50104761D01*
X200335238Y-50580952D01*
X200430476Y-50676190D01*
X200620952Y-50771428D01*
X165902857Y-58892857D02*
X165688571Y-58964285D01*
X165617142Y-59035714D01*
X165545714Y-59178571D01*
X165545714Y-59392857D01*
X165617142Y-59535714D01*
X165688571Y-59607142D01*
X165831428Y-59678571D01*
X166402857Y-59678571D01*
X166402857Y-58178571D01*
X165902857Y-58178571D01*
X165760000Y-58250000D01*
X165688571Y-58321428D01*
X165617142Y-58464285D01*
X165617142Y-58607142D01*
X165688571Y-58750000D01*
X165760000Y-58821428D01*
X165902857Y-58892857D01*
X166402857Y-58892857D01*
X164688571Y-59678571D02*
X164831428Y-59607142D01*
X164902857Y-59535714D01*
X164974285Y-59392857D01*
X164974285Y-58964285D01*
X164902857Y-58821428D01*
X164831428Y-58750000D01*
X164688571Y-58678571D01*
X164474285Y-58678571D01*
X164331428Y-58750000D01*
X164260000Y-58821428D01*
X164188571Y-58964285D01*
X164188571Y-59392857D01*
X164260000Y-59535714D01*
X164331428Y-59607142D01*
X164474285Y-59678571D01*
X164688571Y-59678571D01*
X162902857Y-59678571D02*
X162902857Y-58892857D01*
X162974285Y-58750000D01*
X163117142Y-58678571D01*
X163402857Y-58678571D01*
X163545714Y-58750000D01*
X162902857Y-59607142D02*
X163045714Y-59678571D01*
X163402857Y-59678571D01*
X163545714Y-59607142D01*
X163617142Y-59464285D01*
X163617142Y-59321428D01*
X163545714Y-59178571D01*
X163402857Y-59107142D01*
X163045714Y-59107142D01*
X162902857Y-59035714D01*
X162188571Y-59678571D02*
X162188571Y-58678571D01*
X162188571Y-58964285D02*
X162117142Y-58821428D01*
X162045714Y-58750000D01*
X161902857Y-58678571D01*
X161760000Y-58678571D01*
X160617142Y-59678571D02*
X160617142Y-58178571D01*
X160617142Y-59607142D02*
X160760000Y-59678571D01*
X161045714Y-59678571D01*
X161188571Y-59607142D01*
X161260000Y-59535714D01*
X161331428Y-59392857D01*
X161331428Y-58964285D01*
X161260000Y-58821428D01*
X161188571Y-58750000D01*
X161045714Y-58678571D01*
X160760000Y-58678571D01*
X160617142Y-58750000D01*
X158760000Y-59678571D02*
X158760000Y-58678571D01*
X158760000Y-58964285D02*
X158688571Y-58821428D01*
X158617142Y-58750000D01*
X158474285Y-58678571D01*
X158331428Y-58678571D01*
X157260000Y-59607142D02*
X157402857Y-59678571D01*
X157688571Y-59678571D01*
X157831428Y-59607142D01*
X157902857Y-59464285D01*
X157902857Y-58892857D01*
X157831428Y-58750000D01*
X157688571Y-58678571D01*
X157402857Y-58678571D01*
X157260000Y-58750000D01*
X157188571Y-58892857D01*
X157188571Y-59035714D01*
X157902857Y-59178571D01*
X156688571Y-58678571D02*
X156331428Y-59678571D01*
X155974285Y-58678571D01*
X155402857Y-59678571D02*
X155402857Y-58678571D01*
X155402857Y-58178571D02*
X155474285Y-58250000D01*
X155402857Y-58321428D01*
X155331428Y-58250000D01*
X155402857Y-58178571D01*
X155402857Y-58321428D01*
X154760000Y-59607142D02*
X154617142Y-59678571D01*
X154331428Y-59678571D01*
X154188571Y-59607142D01*
X154117142Y-59464285D01*
X154117142Y-59392857D01*
X154188571Y-59250000D01*
X154331428Y-59178571D01*
X154545714Y-59178571D01*
X154688571Y-59107142D01*
X154760000Y-58964285D01*
X154760000Y-58892857D01*
X154688571Y-58750000D01*
X154545714Y-58678571D01*
X154331428Y-58678571D01*
X154188571Y-58750000D01*
X153474285Y-59678571D02*
X153474285Y-58678571D01*
X153474285Y-58178571D02*
X153545714Y-58250000D01*
X153474285Y-58321428D01*
X153402857Y-58250000D01*
X153474285Y-58178571D01*
X153474285Y-58321428D01*
X152545714Y-59678571D02*
X152688571Y-59607142D01*
X152760000Y-59535714D01*
X152831428Y-59392857D01*
X152831428Y-58964285D01*
X152760000Y-58821428D01*
X152688571Y-58750000D01*
X152545714Y-58678571D01*
X152331428Y-58678571D01*
X152188571Y-58750000D01*
X152117142Y-58821428D01*
X152045714Y-58964285D01*
X152045714Y-59392857D01*
X152117142Y-59535714D01*
X152188571Y-59607142D01*
X152331428Y-59678571D01*
X152545714Y-59678571D01*
X151402857Y-58678571D02*
X151402857Y-59678571D01*
X151402857Y-58821428D02*
X151331428Y-58750000D01*
X151188571Y-58678571D01*
X150974285Y-58678571D01*
X150831428Y-58750000D01*
X150760000Y-58892857D01*
X150760000Y-59678571D01*
X150045714Y-59535714D02*
X149974285Y-59607142D01*
X150045714Y-59678571D01*
X150117142Y-59607142D01*
X150045714Y-59535714D01*
X150045714Y-59678571D01*
X150045714Y-58750000D02*
X149974285Y-58821428D01*
X150045714Y-58892857D01*
X150117142Y-58821428D01*
X150045714Y-58750000D01*
X150045714Y-58892857D01*
X148331428Y-58678571D02*
X147974285Y-59678571D01*
X147617142Y-58678571D01*
X146760000Y-58178571D02*
X146617142Y-58178571D01*
X146474285Y-58250000D01*
X146402857Y-58321428D01*
X146331428Y-58464285D01*
X146260000Y-58750000D01*
X146260000Y-59107142D01*
X146331428Y-59392857D01*
X146402857Y-59535714D01*
X146474285Y-59607142D01*
X146617142Y-59678571D01*
X146760000Y-59678571D01*
X146902857Y-59607142D01*
X146974285Y-59535714D01*
X147045714Y-59392857D01*
X147117142Y-59107142D01*
X147117142Y-58750000D01*
X147045714Y-58464285D01*
X146974285Y-58321428D01*
X146902857Y-58250000D01*
X146760000Y-58178571D01*
X145331428Y-58178571D02*
X145188571Y-58178571D01*
X145045714Y-58250000D01*
X144974285Y-58321428D01*
X144902857Y-58464285D01*
X144831428Y-58750000D01*
X144831428Y-59107142D01*
X144902857Y-59392857D01*
X144974285Y-59535714D01*
X145045714Y-59607142D01*
X145188571Y-59678571D01*
X145331428Y-59678571D01*
X145474285Y-59607142D01*
X145545714Y-59535714D01*
X145617142Y-59392857D01*
X145688571Y-59107142D01*
X145688571Y-58750000D01*
X145617142Y-58464285D01*
X145545714Y-58321428D01*
X145474285Y-58250000D01*
X145331428Y-58178571D01*
X144260000Y-58321428D02*
X144188571Y-58250000D01*
X144045714Y-58178571D01*
X143688571Y-58178571D01*
X143545714Y-58250000D01*
X143474285Y-58321428D01*
X143402857Y-58464285D01*
X143402857Y-58607142D01*
X143474285Y-58821428D01*
X144331428Y-59678571D01*
X143402857Y-59678571D01*
D11*
X220590000Y-58620000D02*
X219260000Y-58620000D01*
X220590000Y-59950000D02*
X220590000Y-58620000D01*
X217990000Y-58620000D02*
X215390000Y-58620000D01*
X217990000Y-61220000D02*
X217990000Y-58620000D01*
X220590000Y-61220000D02*
X217990000Y-61220000D01*
X215390000Y-58620000D02*
X215390000Y-99380000D01*
X220590000Y-61220000D02*
X220590000Y-99380000D01*
X220590000Y-99380000D02*
X215390000Y-99380000D01*
D12*
X218323333Y-57072380D02*
X218323333Y-57786666D01*
X218370952Y-57929523D01*
X218466190Y-58024761D01*
X218609047Y-58072380D01*
X218704285Y-58072380D01*
X217323333Y-58072380D02*
X217894761Y-58072380D01*
X217609047Y-58072380D02*
X217609047Y-57072380D01*
X217704285Y-57215238D01*
X217799523Y-57310476D01*
X217894761Y-57358095D01*
%LPC*%
D13*
X169015000Y-87050000D03*
X174015000Y-87050000D03*
X158242000Y-87050000D03*
X163242000Y-87050000D03*
X177565000Y-108525000D03*
X177565000Y-113525000D03*
D14*
X209438000Y-40042000D03*
X211978000Y-40042000D03*
X214518000Y-40042000D03*
X217058000Y-40042000D03*
X219598000Y-40042000D03*
X219598000Y-55282000D03*
X217058000Y-55282000D03*
X214518000Y-55282000D03*
X211978000Y-55282000D03*
G36*
G01*
X208625000Y-56544000D02*
X208625000Y-54020000D01*
G75*
G02*
X208676000Y-53969000I51000J0D01*
G01*
X210200000Y-53969000D01*
G75*
G02*
X210251000Y-54020000I0J-51000D01*
G01*
X210251000Y-56544000D01*
G75*
G02*
X210200000Y-56595000I-51000J0D01*
G01*
X208676000Y-56595000D01*
G75*
G02*
X208625000Y-56544000I0J51000D01*
G01*
G37*
D13*
X195290000Y-98750000D03*
X195290000Y-93750000D03*
G36*
G01*
X175756000Y-66196000D02*
X174256000Y-66196000D01*
G75*
G02*
X174205000Y-66145000I0J51000D01*
G01*
X174205000Y-65095000D01*
G75*
G02*
X174256000Y-65044000I51000J0D01*
G01*
X175756000Y-65044000D01*
G75*
G02*
X175807000Y-65095000I0J-51000D01*
G01*
X175807000Y-66145000D01*
G75*
G02*
X175756000Y-66196000I-51000J0D01*
G01*
G37*
D15*
X175006000Y-63080000D03*
X175006000Y-64350000D03*
X183166000Y-64350000D03*
X183166000Y-63080000D03*
G36*
G01*
X183916000Y-66196000D02*
X182416000Y-66196000D01*
G75*
G02*
X182365000Y-66145000I0J51000D01*
G01*
X182365000Y-65095000D01*
G75*
G02*
X182416000Y-65044000I51000J0D01*
G01*
X183916000Y-65044000D01*
G75*
G02*
X183967000Y-65095000I0J-51000D01*
G01*
X183967000Y-66145000D01*
G75*
G02*
X183916000Y-66196000I-51000J0D01*
G01*
G37*
D16*
X202910000Y-105525000D03*
D13*
X195290000Y-105525000D03*
X195290000Y-102150000D03*
D16*
X202910000Y-102150000D03*
D13*
X186806000Y-62290000D03*
D16*
X186806000Y-69910000D03*
X153162000Y-64520000D03*
D13*
X160782000Y-64520000D03*
G36*
G01*
X189573000Y-112738000D02*
X189573000Y-114338000D01*
G75*
G02*
X189522000Y-114389000I-51000J0D01*
G01*
X187922000Y-114389000D01*
G75*
G02*
X187871000Y-114338000I0J51000D01*
G01*
X187871000Y-112738000D01*
G75*
G02*
X187922000Y-112687000I51000J0D01*
G01*
X189522000Y-112687000D01*
G75*
G02*
X189573000Y-112738000I0J-51000D01*
G01*
G37*
D16*
X181102000Y-90678000D03*
X188722000Y-110998000D03*
X181102000Y-93218000D03*
X188722000Y-108458000D03*
X181102000Y-95758000D03*
X188722000Y-105918000D03*
X181102000Y-98298000D03*
X188722000Y-103378000D03*
X181102000Y-100838000D03*
X188722000Y-100838000D03*
X181102000Y-103378000D03*
X188722000Y-98298000D03*
X181102000Y-105918000D03*
X188722000Y-95758000D03*
X181102000Y-108458000D03*
X188722000Y-93218000D03*
X181102000Y-110998000D03*
X188722000Y-90678000D03*
X181102000Y-113538000D03*
G36*
G01*
X198189000Y-91478000D02*
X198189000Y-89878000D01*
G75*
G02*
X198240000Y-89827000I51000J0D01*
G01*
X199840000Y-89827000D01*
G75*
G02*
X199891000Y-89878000I0J-51000D01*
G01*
X199891000Y-91478000D01*
G75*
G02*
X199840000Y-91529000I-51000J0D01*
G01*
X198240000Y-91529000D01*
G75*
G02*
X198189000Y-91478000I0J51000D01*
G01*
G37*
X206660000Y-98298000D03*
X199040000Y-93218000D03*
X206660000Y-95758000D03*
X199040000Y-95758000D03*
X206660000Y-93218000D03*
X199040000Y-98298000D03*
X206660000Y-90678000D03*
G36*
G01*
X139174000Y-66196000D02*
X137674000Y-66196000D01*
G75*
G02*
X137623000Y-66145000I0J51000D01*
G01*
X137623000Y-65095000D01*
G75*
G02*
X137674000Y-65044000I51000J0D01*
G01*
X139174000Y-65044000D01*
G75*
G02*
X139225000Y-65095000I0J-51000D01*
G01*
X139225000Y-66145000D01*
G75*
G02*
X139174000Y-66196000I-51000J0D01*
G01*
G37*
D15*
X138424000Y-63080000D03*
X138424000Y-64350000D03*
X146529333Y-64350000D03*
X146529333Y-63080000D03*
G36*
G01*
X147279333Y-66196000D02*
X145779333Y-66196000D01*
G75*
G02*
X145728333Y-66145000I0J51000D01*
G01*
X145728333Y-65095000D01*
G75*
G02*
X145779333Y-65044000I51000J0D01*
G01*
X147279333Y-65044000D01*
G75*
G02*
X147330333Y-65095000I0J-51000D01*
G01*
X147330333Y-66145000D01*
G75*
G02*
X147279333Y-66196000I-51000J0D01*
G01*
G37*
X191210666Y-64350000D03*
X191210666Y-63080000D03*
G36*
G01*
X191960666Y-66196000D02*
X190460666Y-66196000D01*
G75*
G02*
X190409666Y-66145000I0J51000D01*
G01*
X190409666Y-65095000D01*
G75*
G02*
X190460666Y-65044000I51000J0D01*
G01*
X191960666Y-65044000D01*
G75*
G02*
X192011666Y-65095000I0J-51000D01*
G01*
X192011666Y-66145000D01*
G75*
G02*
X191960666Y-66196000I-51000J0D01*
G01*
G37*
G36*
G01*
X200066000Y-66196000D02*
X198566000Y-66196000D01*
G75*
G02*
X198515000Y-66145000I0J51000D01*
G01*
X198515000Y-65095000D01*
G75*
G02*
X198566000Y-65044000I51000J0D01*
G01*
X200066000Y-65044000D01*
G75*
G02*
X200117000Y-65095000I0J-51000D01*
G01*
X200117000Y-66145000D01*
G75*
G02*
X200066000Y-66196000I-51000J0D01*
G01*
G37*
X199316000Y-63080000D03*
X199316000Y-64350000D03*
D13*
X160782000Y-68160000D03*
D16*
X153162000Y-68160000D03*
D13*
X142064000Y-62290000D03*
D16*
X142064000Y-69910000D03*
X150169333Y-69910000D03*
D13*
X150169333Y-62290000D03*
D16*
X213360000Y-64520000D03*
D13*
X205740000Y-64520000D03*
G36*
G01*
X203670000Y-74079000D02*
X205270000Y-74079000D01*
G75*
G02*
X205321000Y-74130000I0J-51000D01*
G01*
X205321000Y-75730000D01*
G75*
G02*
X205270000Y-75781000I-51000J0D01*
G01*
X203670000Y-75781000D01*
G75*
G02*
X203619000Y-75730000I0J51000D01*
G01*
X203619000Y-74130000D01*
G75*
G02*
X203670000Y-74079000I51000J0D01*
G01*
G37*
D16*
X186690000Y-82550000D03*
X201930000Y-74930000D03*
X189230000Y-82550000D03*
X199390000Y-74930000D03*
X191770000Y-82550000D03*
X196850000Y-74930000D03*
X194310000Y-82550000D03*
X194310000Y-74930000D03*
X196850000Y-82550000D03*
X191770000Y-74930000D03*
X199390000Y-82550000D03*
X189230000Y-74930000D03*
X201930000Y-82550000D03*
X186690000Y-74930000D03*
X204470000Y-82550000D03*
X180167000Y-82550000D03*
X162387000Y-74930000D03*
X177627000Y-82550000D03*
X164927000Y-74930000D03*
X175087000Y-82550000D03*
X167467000Y-74930000D03*
X172547000Y-82550000D03*
X170007000Y-74930000D03*
X170007000Y-82550000D03*
X172547000Y-74930000D03*
X167467000Y-82550000D03*
X175087000Y-74930000D03*
X164927000Y-82550000D03*
X177627000Y-74930000D03*
X162387000Y-82550000D03*
G36*
G01*
X179367000Y-74079000D02*
X180967000Y-74079000D01*
G75*
G02*
X181018000Y-74130000I0J-51000D01*
G01*
X181018000Y-75730000D01*
G75*
G02*
X180967000Y-75781000I-51000J0D01*
G01*
X179367000Y-75781000D01*
G75*
G02*
X179316000Y-75730000I0J51000D01*
G01*
X179316000Y-74130000D01*
G75*
G02*
X179367000Y-74079000I51000J0D01*
G01*
G37*
X170688000Y-68160000D03*
D13*
X163068000Y-68160000D03*
D16*
X170688000Y-64520000D03*
D13*
X163068000Y-64520000D03*
D16*
X178646000Y-69910000D03*
D13*
X178646000Y-62290000D03*
X205740000Y-68160000D03*
D16*
X213360000Y-68160000D03*
D13*
X194850666Y-62290000D03*
D16*
X194850666Y-69910000D03*
D13*
X202956000Y-62290000D03*
D16*
X202956000Y-69910000D03*
G36*
G01*
X155064000Y-74079000D02*
X156664000Y-74079000D01*
G75*
G02*
X156715000Y-74130000I0J-51000D01*
G01*
X156715000Y-75730000D01*
G75*
G02*
X156664000Y-75781000I-51000J0D01*
G01*
X155064000Y-75781000D01*
G75*
G02*
X155013000Y-75730000I0J51000D01*
G01*
X155013000Y-74130000D01*
G75*
G02*
X155064000Y-74079000I51000J0D01*
G01*
G37*
X138084000Y-82550000D03*
X153324000Y-74930000D03*
X140624000Y-82550000D03*
X150784000Y-74930000D03*
X143164000Y-82550000D03*
X148244000Y-74930000D03*
X145704000Y-82550000D03*
X145704000Y-74930000D03*
X148244000Y-82550000D03*
X143164000Y-74930000D03*
X150784000Y-82550000D03*
X140624000Y-74930000D03*
X153324000Y-82550000D03*
X138084000Y-74930000D03*
X155864000Y-82550000D03*
G36*
G01*
X162725000Y-91478000D02*
X162725000Y-89878000D01*
G75*
G02*
X162776000Y-89827000I51000J0D01*
G01*
X164376000Y-89827000D01*
G75*
G02*
X164427000Y-89878000I0J-51000D01*
G01*
X164427000Y-91478000D01*
G75*
G02*
X164376000Y-91529000I-51000J0D01*
G01*
X162776000Y-91529000D01*
G75*
G02*
X162725000Y-91478000I0J51000D01*
G01*
G37*
X171196000Y-113538000D03*
X163576000Y-93218000D03*
X171196000Y-110998000D03*
X163576000Y-95758000D03*
X171196000Y-108458000D03*
X163576000Y-98298000D03*
X171196000Y-105918000D03*
X163576000Y-100838000D03*
X171196000Y-103378000D03*
X163576000Y-103378000D03*
X171196000Y-100838000D03*
X163576000Y-105918000D03*
X171196000Y-98298000D03*
X163576000Y-108458000D03*
X171196000Y-95758000D03*
X163576000Y-110998000D03*
X171196000Y-93218000D03*
X163576000Y-113538000D03*
X171196000Y-90678000D03*
X158242000Y-90678000D03*
X150622000Y-113538000D03*
X158242000Y-93218000D03*
X150622000Y-110998000D03*
X158242000Y-95758000D03*
X150622000Y-108458000D03*
X158242000Y-98298000D03*
X150622000Y-105918000D03*
X158242000Y-100838000D03*
X150622000Y-103378000D03*
X158242000Y-103378000D03*
X150622000Y-100838000D03*
X158242000Y-105918000D03*
X150622000Y-98298000D03*
X158242000Y-108458000D03*
X150622000Y-95758000D03*
X158242000Y-110998000D03*
X150622000Y-93218000D03*
X158242000Y-113538000D03*
G36*
G01*
X149771000Y-91478000D02*
X149771000Y-89878000D01*
G75*
G02*
X149822000Y-89827000I51000J0D01*
G01*
X151422000Y-89827000D01*
G75*
G02*
X151473000Y-89878000I0J-51000D01*
G01*
X151473000Y-91478000D01*
G75*
G02*
X151422000Y-91529000I-51000J0D01*
G01*
X149822000Y-91529000D01*
G75*
G02*
X149771000Y-91478000I0J51000D01*
G01*
G37*
G36*
G01*
X136127000Y-56290000D02*
X136127000Y-53766000D01*
G75*
G02*
X136178000Y-53715000I51000J0D01*
G01*
X137702000Y-53715000D01*
G75*
G02*
X137753000Y-53766000I0J-51000D01*
G01*
X137753000Y-56290000D01*
G75*
G02*
X137702000Y-56341000I-51000J0D01*
G01*
X136178000Y-56341000D01*
G75*
G02*
X136127000Y-56290000I0J51000D01*
G01*
G37*
D14*
X139480000Y-55028000D03*
X142020000Y-55028000D03*
X144560000Y-55028000D03*
X147100000Y-55028000D03*
X147100000Y-39788000D03*
X144560000Y-39788000D03*
X142020000Y-39788000D03*
X139480000Y-39788000D03*
X136940000Y-39788000D03*
X149640000Y-39788000D03*
X152180000Y-39788000D03*
X154720000Y-39788000D03*
X157260000Y-39788000D03*
X159800000Y-39788000D03*
X159800000Y-55028000D03*
X157260000Y-55028000D03*
X154720000Y-55028000D03*
X152180000Y-55028000D03*
G36*
G01*
X148827000Y-56290000D02*
X148827000Y-53766000D01*
G75*
G02*
X148878000Y-53715000I51000J0D01*
G01*
X150402000Y-53715000D01*
G75*
G02*
X150453000Y-53766000I0J-51000D01*
G01*
X150453000Y-56290000D01*
G75*
G02*
X150402000Y-56341000I-51000J0D01*
G01*
X148878000Y-56341000D01*
G75*
G02*
X148827000Y-56290000I0J51000D01*
G01*
G37*
G36*
G01*
X161527000Y-56290000D02*
X161527000Y-53766000D01*
G75*
G02*
X161578000Y-53715000I51000J0D01*
G01*
X163102000Y-53715000D01*
G75*
G02*
X163153000Y-53766000I0J-51000D01*
G01*
X163153000Y-56290000D01*
G75*
G02*
X163102000Y-56341000I-51000J0D01*
G01*
X161578000Y-56341000D01*
G75*
G02*
X161527000Y-56290000I0J51000D01*
G01*
G37*
X164880000Y-55028000D03*
X167420000Y-55028000D03*
X169960000Y-55028000D03*
X172500000Y-55028000D03*
X172500000Y-39788000D03*
X169960000Y-39788000D03*
X167420000Y-39788000D03*
X164880000Y-39788000D03*
X162340000Y-39788000D03*
X175040000Y-39788000D03*
X177580000Y-39788000D03*
X180120000Y-39788000D03*
X182660000Y-39788000D03*
X185200000Y-39788000D03*
X185200000Y-55028000D03*
X182660000Y-55028000D03*
X180120000Y-55028000D03*
X177580000Y-55028000D03*
G36*
G01*
X174227000Y-56290000D02*
X174227000Y-53766000D01*
G75*
G02*
X174278000Y-53715000I51000J0D01*
G01*
X175802000Y-53715000D01*
G75*
G02*
X175853000Y-53766000I0J-51000D01*
G01*
X175853000Y-56290000D01*
G75*
G02*
X175802000Y-56341000I-51000J0D01*
G01*
X174278000Y-56341000D01*
G75*
G02*
X174227000Y-56290000I0J51000D01*
G01*
G37*
G36*
G01*
X195925000Y-56544000D02*
X195925000Y-54020000D01*
G75*
G02*
X195976000Y-53969000I51000J0D01*
G01*
X197500000Y-53969000D01*
G75*
G02*
X197551000Y-54020000I0J-51000D01*
G01*
X197551000Y-56544000D01*
G75*
G02*
X197500000Y-56595000I-51000J0D01*
G01*
X195976000Y-56595000D01*
G75*
G02*
X195925000Y-56544000I0J51000D01*
G01*
G37*
X199278000Y-55282000D03*
X201818000Y-55282000D03*
X204358000Y-55282000D03*
X206898000Y-55282000D03*
X206898000Y-40042000D03*
X204358000Y-40042000D03*
X201818000Y-40042000D03*
X199278000Y-40042000D03*
X196738000Y-40042000D03*
D13*
X206660000Y-101350000D03*
X206660000Y-106350000D03*
D17*
X192565000Y-116250000D03*
X202565000Y-113750000D03*
X192565000Y-111250000D03*
X205840000Y-111250000D03*
X215840000Y-113750000D03*
X205840000Y-116250000D03*
G36*
G01*
X220161000Y-59100000D02*
X220161000Y-60800000D01*
G75*
G02*
X220110000Y-60851000I-51000J0D01*
G01*
X218410000Y-60851000D01*
G75*
G02*
X218359000Y-60800000I0J51000D01*
G01*
X218359000Y-59100000D01*
G75*
G02*
X218410000Y-59049000I51000J0D01*
G01*
X220110000Y-59049000D01*
G75*
G02*
X220161000Y-59100000I0J-51000D01*
G01*
G37*
D18*
X216720000Y-59950000D03*
X219260000Y-62490000D03*
X216720000Y-62490000D03*
X219260000Y-65030000D03*
X216720000Y-65030000D03*
X219260000Y-67570000D03*
X216720000Y-67570000D03*
X219260000Y-70110000D03*
X216720000Y-70110000D03*
X219260000Y-72650000D03*
X216720000Y-72650000D03*
X219260000Y-75190000D03*
X216720000Y-75190000D03*
X219260000Y-77730000D03*
X216720000Y-77730000D03*
X219260000Y-80270000D03*
X216720000Y-80270000D03*
X219260000Y-82810000D03*
X216720000Y-82810000D03*
X219260000Y-85350000D03*
X216720000Y-85350000D03*
X219260000Y-87890000D03*
X216720000Y-87890000D03*
X219260000Y-90430000D03*
X216720000Y-90430000D03*
X219260000Y-92970000D03*
X216720000Y-92970000D03*
X219260000Y-95510000D03*
X216720000Y-95510000D03*
X219260000Y-98050000D03*
X216720000Y-98050000D03*
G36*
G01*
X216415000Y-104124000D02*
X218115000Y-104124000D01*
G75*
G02*
X218166000Y-104175000I0J-51000D01*
G01*
X218166000Y-105875000D01*
G75*
G02*
X218115000Y-105926000I-51000J0D01*
G01*
X216415000Y-105926000D01*
G75*
G02*
X216364000Y-105875000I0J51000D01*
G01*
X216364000Y-104175000D01*
G75*
G02*
X216415000Y-104124000I51000J0D01*
G01*
G37*
X217265000Y-102485000D03*
X214725000Y-105025000D03*
X214725000Y-102485000D03*
X212185000Y-105025000D03*
X212185000Y-102485000D03*
X219440000Y-116455000D03*
X219440000Y-113915000D03*
G36*
G01*
X218539000Y-112225000D02*
X218539000Y-110525000D01*
G75*
G02*
X218590000Y-110474000I51000J0D01*
G01*
X220290000Y-110474000D01*
G75*
G02*
X220341000Y-110525000I0J-51000D01*
G01*
X220341000Y-112225000D01*
G75*
G02*
X220290000Y-112276000I-51000J0D01*
G01*
X218590000Y-112276000D01*
G75*
G02*
X218539000Y-112225000I0J51000D01*
G01*
G37*
M02*
