G04 #@! TF.GenerationSoftware,KiCad,Pcbnew,(5.1.9)-1*
G04 #@! TF.CreationDate,2023-04-05T16:45:45+01:00*
G04 #@! TF.ProjectId,AT_65C02_Computer_Rev003,41545f36-3543-4303-925f-436f6d707574,rev?*
G04 #@! TF.SameCoordinates,Original*
G04 #@! TF.FileFunction,Legend,Bot*
G04 #@! TF.FilePolarity,Positive*
%FSLAX46Y46*%
G04 Gerber Fmt 4.6, Leading zero omitted, Abs format (unit mm)*
G04 Created by KiCad (PCBNEW (5.1.9)-1) date 2023-04-05 16:45:45*
%MOMM*%
%LPD*%
G01*
G04 APERTURE LIST*
%ADD10C,0.200000*%
%ADD11O,1.702000X1.702000*%
%ADD12O,1.802000X1.802000*%
%ADD13C,6.102000*%
%ADD14C,1.702000*%
%ADD15C,2.102000*%
%ADD16C,2.442000*%
%ADD17O,3.602000X3.602000*%
%ADD18O,2.102000X2.007000*%
%ADD19C,1.902000*%
%ADD20O,2.102000X4.102000*%
%ADD21O,3.602000X2.102000*%
%ADD22O,2.007000X2.102000*%
%ADD23O,2.302000X2.302000*%
%ADD24O,1.502000X2.102000*%
%ADD25C,1.302000*%
%ADD26O,1.152000X1.602000*%
G04 APERTURE END LIST*
D10*
X75412857Y-75728571D02*
X75412857Y-74228571D01*
X74770000Y-75728571D02*
X74770000Y-74942857D01*
X74841428Y-74800000D01*
X74984285Y-74728571D01*
X75198571Y-74728571D01*
X75341428Y-74800000D01*
X75412857Y-74871428D01*
X74270000Y-74728571D02*
X73698571Y-74728571D01*
X74055714Y-74228571D02*
X74055714Y-75514285D01*
X73984285Y-75657142D01*
X73841428Y-75728571D01*
X73698571Y-75728571D01*
X73412857Y-74728571D02*
X72841428Y-74728571D01*
X73198571Y-74228571D02*
X73198571Y-75514285D01*
X73127142Y-75657142D01*
X72984285Y-75728571D01*
X72841428Y-75728571D01*
X72341428Y-74728571D02*
X72341428Y-76228571D01*
X72341428Y-74800000D02*
X72198571Y-74728571D01*
X71912857Y-74728571D01*
X71770000Y-74800000D01*
X71698571Y-74871428D01*
X71627142Y-75014285D01*
X71627142Y-75442857D01*
X71698571Y-75585714D01*
X71770000Y-75657142D01*
X71912857Y-75728571D01*
X72198571Y-75728571D01*
X72341428Y-75657142D01*
X71055714Y-75657142D02*
X70912857Y-75728571D01*
X70627142Y-75728571D01*
X70484285Y-75657142D01*
X70412857Y-75514285D01*
X70412857Y-75442857D01*
X70484285Y-75300000D01*
X70627142Y-75228571D01*
X70841428Y-75228571D01*
X70984285Y-75157142D01*
X71055714Y-75014285D01*
X71055714Y-74942857D01*
X70984285Y-74800000D01*
X70841428Y-74728571D01*
X70627142Y-74728571D01*
X70484285Y-74800000D01*
X69770000Y-75585714D02*
X69698571Y-75657142D01*
X69770000Y-75728571D01*
X69841428Y-75657142D01*
X69770000Y-75585714D01*
X69770000Y-75728571D01*
X69770000Y-74800000D02*
X69698571Y-74871428D01*
X69770000Y-74942857D01*
X69841428Y-74871428D01*
X69770000Y-74800000D01*
X69770000Y-74942857D01*
X67984285Y-74157142D02*
X69270000Y-76085714D01*
X66412857Y-74157142D02*
X67698571Y-76085714D01*
X65270000Y-74728571D02*
X65270000Y-75942857D01*
X65341428Y-76085714D01*
X65412857Y-76157142D01*
X65555714Y-76228571D01*
X65770000Y-76228571D01*
X65912857Y-76157142D01*
X65270000Y-75657142D02*
X65412857Y-75728571D01*
X65698571Y-75728571D01*
X65841428Y-75657142D01*
X65912857Y-75585714D01*
X65984285Y-75442857D01*
X65984285Y-75014285D01*
X65912857Y-74871428D01*
X65841428Y-74800000D01*
X65698571Y-74728571D01*
X65412857Y-74728571D01*
X65270000Y-74800000D01*
X64555714Y-75728571D02*
X64555714Y-74728571D01*
X64555714Y-74228571D02*
X64627142Y-74300000D01*
X64555714Y-74371428D01*
X64484285Y-74300000D01*
X64555714Y-74228571D01*
X64555714Y-74371428D01*
X64055714Y-74728571D02*
X63484285Y-74728571D01*
X63841428Y-74228571D02*
X63841428Y-75514285D01*
X63770000Y-75657142D01*
X63627142Y-75728571D01*
X63484285Y-75728571D01*
X62984285Y-75728571D02*
X62984285Y-74228571D01*
X62341428Y-75728571D02*
X62341428Y-74942857D01*
X62412857Y-74800000D01*
X62555714Y-74728571D01*
X62770000Y-74728571D01*
X62912857Y-74800000D01*
X62984285Y-74871428D01*
X60984285Y-74728571D02*
X60984285Y-75728571D01*
X61627142Y-74728571D02*
X61627142Y-75514285D01*
X61555714Y-75657142D01*
X61412857Y-75728571D01*
X61198571Y-75728571D01*
X61055714Y-75657142D01*
X60984285Y-75585714D01*
X60270000Y-75728571D02*
X60270000Y-74228571D01*
X60270000Y-74800000D02*
X60127142Y-74728571D01*
X59841428Y-74728571D01*
X59698571Y-74800000D01*
X59627142Y-74871428D01*
X59555714Y-75014285D01*
X59555714Y-75442857D01*
X59627142Y-75585714D01*
X59698571Y-75657142D01*
X59841428Y-75728571D01*
X60127142Y-75728571D01*
X60270000Y-75657142D01*
X58912857Y-75585714D02*
X58841428Y-75657142D01*
X58912857Y-75728571D01*
X58984285Y-75657142D01*
X58912857Y-75585714D01*
X58912857Y-75728571D01*
X57555714Y-75657142D02*
X57698571Y-75728571D01*
X57984285Y-75728571D01*
X58127142Y-75657142D01*
X58198571Y-75585714D01*
X58270000Y-75442857D01*
X58270000Y-75014285D01*
X58198571Y-74871428D01*
X58127142Y-74800000D01*
X57984285Y-74728571D01*
X57698571Y-74728571D01*
X57555714Y-74800000D01*
X56698571Y-75728571D02*
X56841428Y-75657142D01*
X56912857Y-75585714D01*
X56984285Y-75442857D01*
X56984285Y-75014285D01*
X56912857Y-74871428D01*
X56841428Y-74800000D01*
X56698571Y-74728571D01*
X56484285Y-74728571D01*
X56341428Y-74800000D01*
X56270000Y-74871428D01*
X56198571Y-75014285D01*
X56198571Y-75442857D01*
X56270000Y-75585714D01*
X56341428Y-75657142D01*
X56484285Y-75728571D01*
X56698571Y-75728571D01*
X55555714Y-75728571D02*
X55555714Y-74728571D01*
X55555714Y-74871428D02*
X55484285Y-74800000D01*
X55341428Y-74728571D01*
X55127142Y-74728571D01*
X54984285Y-74800000D01*
X54912857Y-74942857D01*
X54912857Y-75728571D01*
X54912857Y-74942857D02*
X54841428Y-74800000D01*
X54698571Y-74728571D01*
X54484285Y-74728571D01*
X54341428Y-74800000D01*
X54270000Y-74942857D01*
X54270000Y-75728571D01*
X52484285Y-74157142D02*
X53770000Y-76085714D01*
X51984285Y-75728571D02*
X51984285Y-74228571D01*
X51841428Y-75157142D02*
X51412857Y-75728571D01*
X51412857Y-74728571D02*
X51984285Y-75300000D01*
X50127142Y-75728571D02*
X50127142Y-74942857D01*
X50198571Y-74800000D01*
X50341428Y-74728571D01*
X50627142Y-74728571D01*
X50770000Y-74800000D01*
X50127142Y-75657142D02*
X50270000Y-75728571D01*
X50627142Y-75728571D01*
X50770000Y-75657142D01*
X50841428Y-75514285D01*
X50841428Y-75371428D01*
X50770000Y-75228571D01*
X50627142Y-75157142D01*
X50270000Y-75157142D01*
X50127142Y-75085714D01*
X49555714Y-74728571D02*
X49198571Y-75728571D01*
X48841428Y-74728571D02*
X49198571Y-75728571D01*
X49341428Y-76085714D01*
X49412857Y-76157142D01*
X49555714Y-76228571D01*
X48484285Y-74728571D02*
X47912857Y-74728571D01*
X48270000Y-74228571D02*
X48270000Y-75514285D01*
X48198571Y-75657142D01*
X48055714Y-75728571D01*
X47912857Y-75728571D01*
X47198571Y-75728571D02*
X47341428Y-75657142D01*
X47412857Y-75585714D01*
X47484285Y-75442857D01*
X47484285Y-75014285D01*
X47412857Y-74871428D01*
X47341428Y-74800000D01*
X47198571Y-74728571D01*
X46984285Y-74728571D01*
X46841428Y-74800000D01*
X46770000Y-74871428D01*
X46698571Y-75014285D01*
X46698571Y-75442857D01*
X46770000Y-75585714D01*
X46841428Y-75657142D01*
X46984285Y-75728571D01*
X47198571Y-75728571D01*
X44984285Y-74157142D02*
X46270000Y-76085714D01*
X70305714Y-72798571D02*
X70305714Y-71298571D01*
X69734285Y-71298571D01*
X69591428Y-71370000D01*
X69519999Y-71441428D01*
X69448571Y-71584285D01*
X69448571Y-71798571D01*
X69519999Y-71941428D01*
X69591428Y-72012857D01*
X69734285Y-72084285D01*
X70305714Y-72084285D01*
X67948571Y-72655714D02*
X68019999Y-72727142D01*
X68234285Y-72798571D01*
X68377142Y-72798571D01*
X68591428Y-72727142D01*
X68734285Y-72584285D01*
X68805714Y-72441428D01*
X68877142Y-72155714D01*
X68877142Y-71941428D01*
X68805714Y-71655714D01*
X68734285Y-71512857D01*
X68591428Y-71370000D01*
X68377142Y-71298571D01*
X68234285Y-71298571D01*
X68019999Y-71370000D01*
X67948571Y-71441428D01*
X66805714Y-72012857D02*
X66591428Y-72084285D01*
X66519999Y-72155714D01*
X66448571Y-72298571D01*
X66448571Y-72512857D01*
X66519999Y-72655714D01*
X66591428Y-72727142D01*
X66734285Y-72798571D01*
X67305714Y-72798571D01*
X67305714Y-71298571D01*
X66805714Y-71298571D01*
X66662857Y-71370000D01*
X66591428Y-71441428D01*
X66519999Y-71584285D01*
X66519999Y-71727142D01*
X66591428Y-71870000D01*
X66662857Y-71941428D01*
X66805714Y-72012857D01*
X67305714Y-72012857D01*
X64662857Y-72798571D02*
X64662857Y-71298571D01*
X64662857Y-71870000D02*
X64519999Y-71798571D01*
X64234285Y-71798571D01*
X64091428Y-71870000D01*
X64019999Y-71941428D01*
X63948571Y-72084285D01*
X63948571Y-72512857D01*
X64019999Y-72655714D01*
X64091428Y-72727142D01*
X64234285Y-72798571D01*
X64519999Y-72798571D01*
X64662857Y-72727142D01*
X63448571Y-71798571D02*
X63091428Y-72798571D01*
X62734285Y-71798571D02*
X63091428Y-72798571D01*
X63234285Y-73155714D01*
X63305714Y-73227142D01*
X63448571Y-73298571D01*
X61091428Y-72370000D02*
X60377142Y-72370000D01*
X61234285Y-72798571D02*
X60734285Y-71298571D01*
X60234285Y-72798571D01*
X59091428Y-72798571D02*
X59091428Y-71298571D01*
X59091428Y-72727142D02*
X59234285Y-72798571D01*
X59519999Y-72798571D01*
X59662857Y-72727142D01*
X59734285Y-72655714D01*
X59805714Y-72512857D01*
X59805714Y-72084285D01*
X59734285Y-71941428D01*
X59662857Y-71870000D01*
X59519999Y-71798571D01*
X59234285Y-71798571D01*
X59091428Y-71870000D01*
X57734285Y-72798571D02*
X57734285Y-72012857D01*
X57805714Y-71870000D01*
X57948571Y-71798571D01*
X58234285Y-71798571D01*
X58377142Y-71870000D01*
X57734285Y-72727142D02*
X57877142Y-72798571D01*
X58234285Y-72798571D01*
X58377142Y-72727142D01*
X58448571Y-72584285D01*
X58448571Y-72441428D01*
X58377142Y-72298571D01*
X58234285Y-72227142D01*
X57877142Y-72227142D01*
X57734285Y-72155714D01*
X57019999Y-72798571D02*
X57019999Y-71798571D01*
X57019999Y-71941428D02*
X56948571Y-71870000D01*
X56805714Y-71798571D01*
X56591428Y-71798571D01*
X56448571Y-71870000D01*
X56377142Y-72012857D01*
X56377142Y-72798571D01*
X56377142Y-72012857D02*
X56305714Y-71870000D01*
X56162857Y-71798571D01*
X55948571Y-71798571D01*
X55805714Y-71870000D01*
X55734285Y-72012857D01*
X55734285Y-72798571D01*
X55234285Y-71298571D02*
X54377142Y-71298571D01*
X54805714Y-72798571D02*
X54805714Y-71298571D01*
X53091428Y-72798571D02*
X53948571Y-72798571D01*
X53519999Y-72798571D02*
X53519999Y-71298571D01*
X53662857Y-71512857D01*
X53805714Y-71655714D01*
X53948571Y-71727142D01*
X51662857Y-72798571D02*
X52519999Y-72798571D01*
X52091428Y-72798571D02*
X52091428Y-71298571D01*
X52234285Y-71512857D01*
X52377142Y-71655714D01*
X52519999Y-71727142D01*
X51162857Y-71298571D02*
X50162857Y-71298571D01*
X50805714Y-72798571D01*
X86115237Y-67704761D02*
X86496190Y-67704761D01*
X86686666Y-67800000D01*
X86781904Y-67895238D01*
X86972380Y-68180952D01*
X87067618Y-68561904D01*
X87067618Y-69323809D01*
X86972380Y-69514285D01*
X86877142Y-69609523D01*
X86686666Y-69704761D01*
X86305713Y-69704761D01*
X86115237Y-69609523D01*
X86019999Y-69514285D01*
X85924761Y-69323809D01*
X85924761Y-68847619D01*
X86019999Y-68657142D01*
X86115237Y-68561904D01*
X86305713Y-68466666D01*
X86686666Y-68466666D01*
X86877142Y-68561904D01*
X86972380Y-68657142D01*
X87067618Y-68847619D01*
X84115237Y-67704761D02*
X85067618Y-67704761D01*
X85162856Y-68657142D01*
X85067618Y-68561904D01*
X84877142Y-68466666D01*
X84400951Y-68466666D01*
X84210475Y-68561904D01*
X84115237Y-68657142D01*
X84019999Y-68847619D01*
X84019999Y-69323809D01*
X84115237Y-69514285D01*
X84210475Y-69609523D01*
X84400951Y-69704761D01*
X84877142Y-69704761D01*
X85067618Y-69609523D01*
X85162856Y-69514285D01*
X82019999Y-69514285D02*
X82115237Y-69609523D01*
X82400951Y-69704761D01*
X82591428Y-69704761D01*
X82877142Y-69609523D01*
X83067618Y-69419047D01*
X83162856Y-69228571D01*
X83258094Y-68847619D01*
X83258094Y-68561904D01*
X83162856Y-68180952D01*
X83067618Y-67990476D01*
X82877142Y-67800000D01*
X82591428Y-67704761D01*
X82400951Y-67704761D01*
X82115237Y-67800000D01*
X82019999Y-67895238D01*
X80781904Y-67704761D02*
X80591428Y-67704761D01*
X80400951Y-67800000D01*
X80305713Y-67895238D01*
X80210475Y-68085714D01*
X80115237Y-68466666D01*
X80115237Y-68942857D01*
X80210475Y-69323809D01*
X80305713Y-69514285D01*
X80400951Y-69609523D01*
X80591428Y-69704761D01*
X80781904Y-69704761D01*
X80972380Y-69609523D01*
X81067618Y-69514285D01*
X81162856Y-69323809D01*
X81258094Y-68942857D01*
X81258094Y-68466666D01*
X81162856Y-68085714D01*
X81067618Y-67895238D01*
X80972380Y-67800000D01*
X80781904Y-67704761D01*
X79353332Y-67895238D02*
X79258094Y-67800000D01*
X79067618Y-67704761D01*
X78591428Y-67704761D01*
X78400951Y-67800000D01*
X78305713Y-67895238D01*
X78210475Y-68085714D01*
X78210475Y-68276190D01*
X78305713Y-68561904D01*
X79448571Y-69704761D01*
X78210475Y-69704761D01*
X75829523Y-69704761D02*
X75829523Y-67704761D01*
X75829523Y-68657142D02*
X74686666Y-68657142D01*
X74686666Y-69704761D02*
X74686666Y-67704761D01*
X73448571Y-69704761D02*
X73639047Y-69609523D01*
X73734285Y-69514285D01*
X73829523Y-69323809D01*
X73829523Y-68752380D01*
X73734285Y-68561904D01*
X73639047Y-68466666D01*
X73448571Y-68371428D01*
X73162856Y-68371428D01*
X72972380Y-68466666D01*
X72877142Y-68561904D01*
X72781904Y-68752380D01*
X72781904Y-69323809D01*
X72877142Y-69514285D01*
X72972380Y-69609523D01*
X73162856Y-69704761D01*
X73448571Y-69704761D01*
X71924761Y-69704761D02*
X71924761Y-67704761D01*
X71924761Y-68466666D02*
X71734285Y-68371428D01*
X71353332Y-68371428D01*
X71162856Y-68466666D01*
X71067618Y-68561904D01*
X70972380Y-68752380D01*
X70972380Y-69323809D01*
X71067618Y-69514285D01*
X71162856Y-69609523D01*
X71353332Y-69704761D01*
X71734285Y-69704761D01*
X71924761Y-69609523D01*
X70115237Y-69704761D02*
X70115237Y-67704761D01*
X70115237Y-68466666D02*
X69924761Y-68371428D01*
X69543809Y-68371428D01*
X69353332Y-68466666D01*
X69258094Y-68561904D01*
X69162856Y-68752380D01*
X69162856Y-69323809D01*
X69258094Y-69514285D01*
X69353332Y-69609523D01*
X69543809Y-69704761D01*
X69924761Y-69704761D01*
X70115237Y-69609523D01*
X68496190Y-68371428D02*
X68019999Y-69704761D01*
X67543809Y-68371428D02*
X68019999Y-69704761D01*
X68210475Y-70180952D01*
X68305713Y-70276190D01*
X68496190Y-70371428D01*
X64115237Y-69514285D02*
X64210475Y-69609523D01*
X64496190Y-69704761D01*
X64686666Y-69704761D01*
X64972380Y-69609523D01*
X65162856Y-69419047D01*
X65258094Y-69228571D01*
X65353332Y-68847619D01*
X65353332Y-68561904D01*
X65258094Y-68180952D01*
X65162856Y-67990476D01*
X64972380Y-67800000D01*
X64686666Y-67704761D01*
X64496190Y-67704761D01*
X64210475Y-67800000D01*
X64115237Y-67895238D01*
X62972380Y-69704761D02*
X63162856Y-69609523D01*
X63258094Y-69514285D01*
X63353332Y-69323809D01*
X63353332Y-68752380D01*
X63258094Y-68561904D01*
X63162856Y-68466666D01*
X62972380Y-68371428D01*
X62686666Y-68371428D01*
X62496190Y-68466666D01*
X62400951Y-68561904D01*
X62305713Y-68752380D01*
X62305713Y-69323809D01*
X62400951Y-69514285D01*
X62496190Y-69609523D01*
X62686666Y-69704761D01*
X62972380Y-69704761D01*
X61448571Y-69704761D02*
X61448571Y-68371428D01*
X61448571Y-68561904D02*
X61353332Y-68466666D01*
X61162856Y-68371428D01*
X60877142Y-68371428D01*
X60686666Y-68466666D01*
X60591428Y-68657142D01*
X60591428Y-69704761D01*
X60591428Y-68657142D02*
X60496190Y-68466666D01*
X60305713Y-68371428D01*
X60019999Y-68371428D01*
X59829523Y-68466666D01*
X59734285Y-68657142D01*
X59734285Y-69704761D01*
X58781904Y-68371428D02*
X58781904Y-70371428D01*
X58781904Y-68466666D02*
X58591428Y-68371428D01*
X58210475Y-68371428D01*
X58019999Y-68466666D01*
X57924761Y-68561904D01*
X57829523Y-68752380D01*
X57829523Y-69323809D01*
X57924761Y-69514285D01*
X58019999Y-69609523D01*
X58210475Y-69704761D01*
X58591428Y-69704761D01*
X58781904Y-69609523D01*
X56115237Y-68371428D02*
X56115237Y-69704761D01*
X56972380Y-68371428D02*
X56972380Y-69419047D01*
X56877142Y-69609523D01*
X56686666Y-69704761D01*
X56400951Y-69704761D01*
X56210475Y-69609523D01*
X56115237Y-69514285D01*
X55448571Y-68371428D02*
X54686666Y-68371428D01*
X55162856Y-67704761D02*
X55162856Y-69419047D01*
X55067618Y-69609523D01*
X54877142Y-69704761D01*
X54686666Y-69704761D01*
X53258094Y-69609523D02*
X53448571Y-69704761D01*
X53829523Y-69704761D01*
X54019999Y-69609523D01*
X54115237Y-69419047D01*
X54115237Y-68657142D01*
X54019999Y-68466666D01*
X53829523Y-68371428D01*
X53448571Y-68371428D01*
X53258094Y-68466666D01*
X53162856Y-68657142D01*
X53162856Y-68847619D01*
X54115237Y-69038095D01*
X52305713Y-69704761D02*
X52305713Y-68371428D01*
X52305713Y-68752380D02*
X52210475Y-68561904D01*
X52115237Y-68466666D01*
X51924761Y-68371428D01*
X51734285Y-68371428D01*
X49543809Y-68942857D02*
X48019999Y-68942857D01*
X45639047Y-69133333D02*
X44686666Y-69133333D01*
X45829523Y-69704761D02*
X45162856Y-67704761D01*
X44496190Y-69704761D01*
X44115237Y-67704761D02*
X42972380Y-67704761D01*
X43543809Y-69704761D02*
X43543809Y-67704761D01*
X41448571Y-67704761D02*
X41829523Y-67704761D01*
X42019999Y-67800000D01*
X42115237Y-67895238D01*
X42305713Y-68180952D01*
X42400951Y-68561904D01*
X42400951Y-69323809D01*
X42305713Y-69514285D01*
X42210475Y-69609523D01*
X42019999Y-69704761D01*
X41639047Y-69704761D01*
X41448571Y-69609523D01*
X41353332Y-69514285D01*
X41258094Y-69323809D01*
X41258094Y-68847619D01*
X41353332Y-68657142D01*
X41448571Y-68561904D01*
X41639047Y-68466666D01*
X42019999Y-68466666D01*
X42210475Y-68561904D01*
X42305713Y-68657142D01*
X42400951Y-68847619D01*
X39448571Y-67704761D02*
X40400951Y-67704761D01*
X40496190Y-68657142D01*
X40400951Y-68561904D01*
X40210475Y-68466666D01*
X39734285Y-68466666D01*
X39543809Y-68561904D01*
X39448571Y-68657142D01*
X39353332Y-68847619D01*
X39353332Y-69323809D01*
X39448571Y-69514285D01*
X39543809Y-69609523D01*
X39734285Y-69704761D01*
X40210475Y-69704761D01*
X40400951Y-69609523D01*
X40496190Y-69514285D01*
X37353332Y-69514285D02*
X37448571Y-69609523D01*
X37734285Y-69704761D01*
X37924761Y-69704761D01*
X38210475Y-69609523D01*
X38400951Y-69419047D01*
X38496190Y-69228571D01*
X38591428Y-68847619D01*
X38591428Y-68561904D01*
X38496190Y-68180952D01*
X38400951Y-67990476D01*
X38210475Y-67800000D01*
X37924761Y-67704761D01*
X37734285Y-67704761D01*
X37448571Y-67800000D01*
X37353332Y-67895238D01*
X36115237Y-67704761D02*
X35924761Y-67704761D01*
X35734285Y-67800000D01*
X35639047Y-67895238D01*
X35543809Y-68085714D01*
X35448571Y-68466666D01*
X35448571Y-68942857D01*
X35543809Y-69323809D01*
X35639047Y-69514285D01*
X35734285Y-69609523D01*
X35924761Y-69704761D01*
X36115237Y-69704761D01*
X36305713Y-69609523D01*
X36400951Y-69514285D01*
X36496190Y-69323809D01*
X36591428Y-68942857D01*
X36591428Y-68466666D01*
X36496190Y-68085714D01*
X36400951Y-67895238D01*
X36305713Y-67800000D01*
X36115237Y-67704761D01*
X34686666Y-67895238D02*
X34591428Y-67800000D01*
X34400951Y-67704761D01*
X33924761Y-67704761D01*
X33734285Y-67800000D01*
X33639047Y-67895238D01*
X33543809Y-68085714D01*
X33543809Y-68276190D01*
X33639047Y-68561904D01*
X34781904Y-69704761D01*
X33543809Y-69704761D01*
X71901429Y-82832857D02*
X71687143Y-82904285D01*
X71615714Y-82975714D01*
X71544286Y-83118571D01*
X71544286Y-83332857D01*
X71615714Y-83475714D01*
X71687143Y-83547142D01*
X71830000Y-83618571D01*
X72401429Y-83618571D01*
X72401429Y-82118571D01*
X71901429Y-82118571D01*
X71758572Y-82190000D01*
X71687143Y-82261428D01*
X71615714Y-82404285D01*
X71615714Y-82547142D01*
X71687143Y-82690000D01*
X71758572Y-82761428D01*
X71901429Y-82832857D01*
X72401429Y-82832857D01*
X70687143Y-83618571D02*
X70830000Y-83547142D01*
X70901429Y-83475714D01*
X70972857Y-83332857D01*
X70972857Y-82904285D01*
X70901429Y-82761428D01*
X70830000Y-82690000D01*
X70687143Y-82618571D01*
X70472857Y-82618571D01*
X70330000Y-82690000D01*
X70258572Y-82761428D01*
X70187143Y-82904285D01*
X70187143Y-83332857D01*
X70258572Y-83475714D01*
X70330000Y-83547142D01*
X70472857Y-83618571D01*
X70687143Y-83618571D01*
X68901429Y-83618571D02*
X68901429Y-82832857D01*
X68972857Y-82690000D01*
X69115714Y-82618571D01*
X69401429Y-82618571D01*
X69544286Y-82690000D01*
X68901429Y-83547142D02*
X69044286Y-83618571D01*
X69401429Y-83618571D01*
X69544286Y-83547142D01*
X69615714Y-83404285D01*
X69615714Y-83261428D01*
X69544286Y-83118571D01*
X69401429Y-83047142D01*
X69044286Y-83047142D01*
X68901429Y-82975714D01*
X68187143Y-83618571D02*
X68187143Y-82618571D01*
X68187143Y-82904285D02*
X68115714Y-82761428D01*
X68044286Y-82690000D01*
X67901429Y-82618571D01*
X67758572Y-82618571D01*
X66615714Y-83618571D02*
X66615714Y-82118571D01*
X66615714Y-83547142D02*
X66758571Y-83618571D01*
X67044286Y-83618571D01*
X67187143Y-83547142D01*
X67258572Y-83475714D01*
X67330000Y-83332857D01*
X67330000Y-82904285D01*
X67258572Y-82761428D01*
X67187143Y-82690000D01*
X67044286Y-82618571D01*
X66758571Y-82618571D01*
X66615714Y-82690000D01*
X64758571Y-83618571D02*
X64758571Y-82618571D01*
X64758571Y-82904285D02*
X64687143Y-82761428D01*
X64615714Y-82690000D01*
X64472857Y-82618571D01*
X64330000Y-82618571D01*
X63258571Y-83547142D02*
X63401429Y-83618571D01*
X63687143Y-83618571D01*
X63830000Y-83547142D01*
X63901429Y-83404285D01*
X63901429Y-82832857D01*
X63830000Y-82690000D01*
X63687143Y-82618571D01*
X63401429Y-82618571D01*
X63258571Y-82690000D01*
X63187143Y-82832857D01*
X63187143Y-82975714D01*
X63901429Y-83118571D01*
X62687143Y-82618571D02*
X62330000Y-83618571D01*
X61972857Y-82618571D01*
X61401429Y-83618571D02*
X61401429Y-82618571D01*
X61401429Y-82118571D02*
X61472857Y-82190000D01*
X61401429Y-82261428D01*
X61330000Y-82190000D01*
X61401429Y-82118571D01*
X61401429Y-82261428D01*
X60758571Y-83547142D02*
X60615714Y-83618571D01*
X60330000Y-83618571D01*
X60187143Y-83547142D01*
X60115714Y-83404285D01*
X60115714Y-83332857D01*
X60187143Y-83190000D01*
X60330000Y-83118571D01*
X60544286Y-83118571D01*
X60687143Y-83047142D01*
X60758571Y-82904285D01*
X60758571Y-82832857D01*
X60687143Y-82690000D01*
X60544286Y-82618571D01*
X60330000Y-82618571D01*
X60187143Y-82690000D01*
X59472857Y-83618571D02*
X59472857Y-82618571D01*
X59472857Y-82118571D02*
X59544286Y-82190000D01*
X59472857Y-82261428D01*
X59401429Y-82190000D01*
X59472857Y-82118571D01*
X59472857Y-82261428D01*
X58544286Y-83618571D02*
X58687143Y-83547142D01*
X58758571Y-83475714D01*
X58830000Y-83332857D01*
X58830000Y-82904285D01*
X58758571Y-82761428D01*
X58687143Y-82690000D01*
X58544286Y-82618571D01*
X58330000Y-82618571D01*
X58187143Y-82690000D01*
X58115714Y-82761428D01*
X58044286Y-82904285D01*
X58044286Y-83332857D01*
X58115714Y-83475714D01*
X58187143Y-83547142D01*
X58330000Y-83618571D01*
X58544286Y-83618571D01*
X57401429Y-82618571D02*
X57401429Y-83618571D01*
X57401429Y-82761428D02*
X57330000Y-82690000D01*
X57187143Y-82618571D01*
X56972857Y-82618571D01*
X56830000Y-82690000D01*
X56758571Y-82832857D01*
X56758571Y-83618571D01*
X56044286Y-83475714D02*
X55972857Y-83547142D01*
X56044286Y-83618571D01*
X56115714Y-83547142D01*
X56044286Y-83475714D01*
X56044286Y-83618571D01*
X56044286Y-82690000D02*
X55972857Y-82761428D01*
X56044286Y-82832857D01*
X56115714Y-82761428D01*
X56044286Y-82690000D01*
X56044286Y-82832857D01*
X54330000Y-82618571D02*
X53972857Y-83618571D01*
X53615714Y-82618571D01*
X52758571Y-82118571D02*
X52615714Y-82118571D01*
X52472857Y-82190000D01*
X52401429Y-82261428D01*
X52330000Y-82404285D01*
X52258571Y-82690000D01*
X52258571Y-83047142D01*
X52330000Y-83332857D01*
X52401429Y-83475714D01*
X52472857Y-83547142D01*
X52615714Y-83618571D01*
X52758571Y-83618571D01*
X52901429Y-83547142D01*
X52972857Y-83475714D01*
X53044286Y-83332857D01*
X53115714Y-83047142D01*
X53115714Y-82690000D01*
X53044286Y-82404285D01*
X52972857Y-82261428D01*
X52901429Y-82190000D01*
X52758571Y-82118571D01*
X51330000Y-82118571D02*
X51187143Y-82118571D01*
X51044286Y-82190000D01*
X50972857Y-82261428D01*
X50901429Y-82404285D01*
X50830000Y-82690000D01*
X50830000Y-83047142D01*
X50901429Y-83332857D01*
X50972857Y-83475714D01*
X51044286Y-83547142D01*
X51187143Y-83618571D01*
X51330000Y-83618571D01*
X51472857Y-83547142D01*
X51544286Y-83475714D01*
X51615714Y-83332857D01*
X51687143Y-83047142D01*
X51687143Y-82690000D01*
X51615714Y-82404285D01*
X51544286Y-82261428D01*
X51472857Y-82190000D01*
X51330000Y-82118571D01*
X50330000Y-82118571D02*
X49401429Y-82118571D01*
X49901429Y-82690000D01*
X49687143Y-82690000D01*
X49544286Y-82761428D01*
X49472857Y-82832857D01*
X49401429Y-82975714D01*
X49401429Y-83332857D01*
X49472857Y-83475714D01*
X49544286Y-83547142D01*
X49687143Y-83618571D01*
X50115714Y-83618571D01*
X50258571Y-83547142D01*
X50330000Y-83475714D01*
X84020000Y-147628571D02*
X84020000Y-146128571D01*
X83377143Y-147628571D02*
X83377143Y-146842857D01*
X83448571Y-146700000D01*
X83591428Y-146628571D01*
X83805714Y-146628571D01*
X83948571Y-146700000D01*
X84020000Y-146771428D01*
X82877143Y-146628571D02*
X82305714Y-146628571D01*
X82662857Y-146128571D02*
X82662857Y-147414285D01*
X82591428Y-147557142D01*
X82448571Y-147628571D01*
X82305714Y-147628571D01*
X82020000Y-146628571D02*
X81448571Y-146628571D01*
X81805714Y-146128571D02*
X81805714Y-147414285D01*
X81734285Y-147557142D01*
X81591428Y-147628571D01*
X81448571Y-147628571D01*
X80948571Y-146628571D02*
X80948571Y-148128571D01*
X80948571Y-146700000D02*
X80805714Y-146628571D01*
X80520000Y-146628571D01*
X80377143Y-146700000D01*
X80305714Y-146771428D01*
X80234285Y-146914285D01*
X80234285Y-147342857D01*
X80305714Y-147485714D01*
X80377143Y-147557142D01*
X80520000Y-147628571D01*
X80805714Y-147628571D01*
X80948571Y-147557142D01*
X79662857Y-147557142D02*
X79520000Y-147628571D01*
X79234285Y-147628571D01*
X79091428Y-147557142D01*
X79020000Y-147414285D01*
X79020000Y-147342857D01*
X79091428Y-147200000D01*
X79234285Y-147128571D01*
X79448571Y-147128571D01*
X79591428Y-147057142D01*
X79662857Y-146914285D01*
X79662857Y-146842857D01*
X79591428Y-146700000D01*
X79448571Y-146628571D01*
X79234285Y-146628571D01*
X79091428Y-146700000D01*
X78377143Y-147485714D02*
X78305714Y-147557142D01*
X78377143Y-147628571D01*
X78448571Y-147557142D01*
X78377143Y-147485714D01*
X78377143Y-147628571D01*
X78377143Y-146700000D02*
X78305714Y-146771428D01*
X78377143Y-146842857D01*
X78448571Y-146771428D01*
X78377143Y-146700000D01*
X78377143Y-146842857D01*
X76591428Y-146057142D02*
X77877143Y-147985714D01*
X75020000Y-146057142D02*
X76305714Y-147985714D01*
X73877142Y-146628571D02*
X73877142Y-147842857D01*
X73948571Y-147985714D01*
X74020000Y-148057142D01*
X74162857Y-148128571D01*
X74377142Y-148128571D01*
X74520000Y-148057142D01*
X73877142Y-147557142D02*
X74020000Y-147628571D01*
X74305714Y-147628571D01*
X74448571Y-147557142D01*
X74520000Y-147485714D01*
X74591428Y-147342857D01*
X74591428Y-146914285D01*
X74520000Y-146771428D01*
X74448571Y-146700000D01*
X74305714Y-146628571D01*
X74020000Y-146628571D01*
X73877142Y-146700000D01*
X73162857Y-147628571D02*
X73162857Y-146628571D01*
X73162857Y-146128571D02*
X73234285Y-146200000D01*
X73162857Y-146271428D01*
X73091428Y-146200000D01*
X73162857Y-146128571D01*
X73162857Y-146271428D01*
X72662857Y-146628571D02*
X72091428Y-146628571D01*
X72448571Y-146128571D02*
X72448571Y-147414285D01*
X72377142Y-147557142D01*
X72234285Y-147628571D01*
X72091428Y-147628571D01*
X71591428Y-147628571D02*
X71591428Y-146128571D01*
X70948571Y-147628571D02*
X70948571Y-146842857D01*
X71020000Y-146700000D01*
X71162857Y-146628571D01*
X71377142Y-146628571D01*
X71520000Y-146700000D01*
X71591428Y-146771428D01*
X69591428Y-146628571D02*
X69591428Y-147628571D01*
X70234285Y-146628571D02*
X70234285Y-147414285D01*
X70162857Y-147557142D01*
X70020000Y-147628571D01*
X69805714Y-147628571D01*
X69662857Y-147557142D01*
X69591428Y-147485714D01*
X68877142Y-147628571D02*
X68877142Y-146128571D01*
X68877142Y-146700000D02*
X68734285Y-146628571D01*
X68448571Y-146628571D01*
X68305714Y-146700000D01*
X68234285Y-146771428D01*
X68162857Y-146914285D01*
X68162857Y-147342857D01*
X68234285Y-147485714D01*
X68305714Y-147557142D01*
X68448571Y-147628571D01*
X68734285Y-147628571D01*
X68877142Y-147557142D01*
X67520000Y-147485714D02*
X67448571Y-147557142D01*
X67520000Y-147628571D01*
X67591428Y-147557142D01*
X67520000Y-147485714D01*
X67520000Y-147628571D01*
X66162857Y-147557142D02*
X66305714Y-147628571D01*
X66591428Y-147628571D01*
X66734285Y-147557142D01*
X66805714Y-147485714D01*
X66877142Y-147342857D01*
X66877142Y-146914285D01*
X66805714Y-146771428D01*
X66734285Y-146700000D01*
X66591428Y-146628571D01*
X66305714Y-146628571D01*
X66162857Y-146700000D01*
X65305714Y-147628571D02*
X65448571Y-147557142D01*
X65520000Y-147485714D01*
X65591428Y-147342857D01*
X65591428Y-146914285D01*
X65520000Y-146771428D01*
X65448571Y-146700000D01*
X65305714Y-146628571D01*
X65091428Y-146628571D01*
X64948571Y-146700000D01*
X64877142Y-146771428D01*
X64805714Y-146914285D01*
X64805714Y-147342857D01*
X64877142Y-147485714D01*
X64948571Y-147557142D01*
X65091428Y-147628571D01*
X65305714Y-147628571D01*
X64162857Y-147628571D02*
X64162857Y-146628571D01*
X64162857Y-146771428D02*
X64091428Y-146700000D01*
X63948571Y-146628571D01*
X63734285Y-146628571D01*
X63591428Y-146700000D01*
X63520000Y-146842857D01*
X63520000Y-147628571D01*
X63520000Y-146842857D02*
X63448571Y-146700000D01*
X63305714Y-146628571D01*
X63091428Y-146628571D01*
X62948571Y-146700000D01*
X62877142Y-146842857D01*
X62877142Y-147628571D01*
X61091428Y-146057142D02*
X62377142Y-147985714D01*
X59948571Y-147628571D02*
X59948571Y-146128571D01*
X59948571Y-147557142D02*
X60091428Y-147628571D01*
X60377142Y-147628571D01*
X60520000Y-147557142D01*
X60591428Y-147485714D01*
X60662857Y-147342857D01*
X60662857Y-146914285D01*
X60591428Y-146771428D01*
X60520000Y-146700000D01*
X60377142Y-146628571D01*
X60091428Y-146628571D01*
X59948571Y-146700000D01*
X59234285Y-147628571D02*
X59234285Y-146128571D01*
X59234285Y-146700000D02*
X59091428Y-146628571D01*
X58805714Y-146628571D01*
X58662857Y-146700000D01*
X58591428Y-146771428D01*
X58520000Y-146914285D01*
X58520000Y-147342857D01*
X58591428Y-147485714D01*
X58662857Y-147557142D01*
X58805714Y-147628571D01*
X59091428Y-147628571D01*
X59234285Y-147557142D01*
X57234285Y-146628571D02*
X57234285Y-147628571D01*
X57877142Y-146628571D02*
X57877142Y-147414285D01*
X57805714Y-147557142D01*
X57662857Y-147628571D01*
X57448571Y-147628571D01*
X57305714Y-147557142D01*
X57234285Y-147485714D01*
X55877142Y-147557142D02*
X56020000Y-147628571D01*
X56305714Y-147628571D01*
X56448571Y-147557142D01*
X56520000Y-147485714D01*
X56591428Y-147342857D01*
X56591428Y-146914285D01*
X56520000Y-146771428D01*
X56448571Y-146700000D01*
X56305714Y-146628571D01*
X56020000Y-146628571D01*
X55877142Y-146700000D01*
X55234285Y-147628571D02*
X55234285Y-146128571D01*
X54591428Y-147628571D02*
X54591428Y-146842857D01*
X54662857Y-146700000D01*
X54805714Y-146628571D01*
X55020000Y-146628571D01*
X55162857Y-146700000D01*
X55234285Y-146771428D01*
X54020000Y-146628571D02*
X53734285Y-147628571D01*
X53448571Y-146914285D01*
X53162857Y-147628571D01*
X52877142Y-146628571D01*
X51662857Y-147628571D02*
X51662857Y-146842857D01*
X51734285Y-146700000D01*
X51877142Y-146628571D01*
X52162857Y-146628571D01*
X52305714Y-146700000D01*
X51662857Y-147557142D02*
X51805714Y-147628571D01*
X52162857Y-147628571D01*
X52305714Y-147557142D01*
X52377142Y-147414285D01*
X52377142Y-147271428D01*
X52305714Y-147128571D01*
X52162857Y-147057142D01*
X51805714Y-147057142D01*
X51662857Y-146985714D01*
X50734285Y-147628571D02*
X50877142Y-147557142D01*
X50948571Y-147414285D01*
X50948571Y-146128571D01*
X49520000Y-147628571D02*
X49520000Y-146128571D01*
X49520000Y-147557142D02*
X49662857Y-147628571D01*
X49948571Y-147628571D01*
X50091428Y-147557142D01*
X50162857Y-147485714D01*
X50234285Y-147342857D01*
X50234285Y-146914285D01*
X50162857Y-146771428D01*
X50091428Y-146700000D01*
X49948571Y-146628571D01*
X49662857Y-146628571D01*
X49520000Y-146700000D01*
X47734285Y-146057142D02*
X49020000Y-147985714D01*
X46591428Y-146128571D02*
X46877142Y-146128571D01*
X47020000Y-146200000D01*
X47091428Y-146271428D01*
X47234285Y-146485714D01*
X47305714Y-146771428D01*
X47305714Y-147342857D01*
X47234285Y-147485714D01*
X47162857Y-147557142D01*
X47020000Y-147628571D01*
X46734285Y-147628571D01*
X46591428Y-147557142D01*
X46520000Y-147485714D01*
X46448571Y-147342857D01*
X46448571Y-146985714D01*
X46520000Y-146842857D01*
X46591428Y-146771428D01*
X46734285Y-146700000D01*
X47020000Y-146700000D01*
X47162857Y-146771428D01*
X47234285Y-146842857D01*
X47305714Y-146985714D01*
X45091428Y-146128571D02*
X45805714Y-146128571D01*
X45877142Y-146842857D01*
X45805714Y-146771428D01*
X45662857Y-146700000D01*
X45305714Y-146700000D01*
X45162857Y-146771428D01*
X45091428Y-146842857D01*
X45020000Y-146985714D01*
X45020000Y-147342857D01*
X45091428Y-147485714D01*
X45162857Y-147557142D01*
X45305714Y-147628571D01*
X45662857Y-147628571D01*
X45805714Y-147557142D01*
X45877142Y-147485714D01*
X44091428Y-146128571D02*
X43948571Y-146128571D01*
X43805714Y-146200000D01*
X43734285Y-146271428D01*
X43662857Y-146414285D01*
X43591428Y-146700000D01*
X43591428Y-147057142D01*
X43662857Y-147342857D01*
X43734285Y-147485714D01*
X43805714Y-147557142D01*
X43948571Y-147628571D01*
X44091428Y-147628571D01*
X44234285Y-147557142D01*
X44305714Y-147485714D01*
X44377142Y-147342857D01*
X44448571Y-147057142D01*
X44448571Y-146700000D01*
X44377142Y-146414285D01*
X44305714Y-146271428D01*
X44234285Y-146200000D01*
X44091428Y-146128571D01*
X43020000Y-146271428D02*
X42948571Y-146200000D01*
X42805714Y-146128571D01*
X42448571Y-146128571D01*
X42305714Y-146200000D01*
X42234285Y-146271428D01*
X42162857Y-146414285D01*
X42162857Y-146557142D01*
X42234285Y-146771428D01*
X43091428Y-147628571D01*
X42162857Y-147628571D01*
X85698572Y-140472857D02*
X85484286Y-140544285D01*
X85412857Y-140615714D01*
X85341429Y-140758571D01*
X85341429Y-140972857D01*
X85412857Y-141115714D01*
X85484286Y-141187142D01*
X85627143Y-141258571D01*
X86198572Y-141258571D01*
X86198572Y-139758571D01*
X85698572Y-139758571D01*
X85555715Y-139830000D01*
X85484286Y-139901428D01*
X85412857Y-140044285D01*
X85412857Y-140187142D01*
X85484286Y-140330000D01*
X85555715Y-140401428D01*
X85698572Y-140472857D01*
X86198572Y-140472857D01*
X84055715Y-141258571D02*
X84055715Y-140472857D01*
X84127143Y-140330000D01*
X84270000Y-140258571D01*
X84555715Y-140258571D01*
X84698572Y-140330000D01*
X84055715Y-141187142D02*
X84198572Y-141258571D01*
X84555715Y-141258571D01*
X84698572Y-141187142D01*
X84770000Y-141044285D01*
X84770000Y-140901428D01*
X84698572Y-140758571D01*
X84555715Y-140687142D01*
X84198572Y-140687142D01*
X84055715Y-140615714D01*
X83412857Y-141187142D02*
X83270000Y-141258571D01*
X82984286Y-141258571D01*
X82841429Y-141187142D01*
X82770000Y-141044285D01*
X82770000Y-140972857D01*
X82841429Y-140830000D01*
X82984286Y-140758571D01*
X83198572Y-140758571D01*
X83341429Y-140687142D01*
X83412857Y-140544285D01*
X83412857Y-140472857D01*
X83341429Y-140330000D01*
X83198572Y-140258571D01*
X82984286Y-140258571D01*
X82841429Y-140330000D01*
X81555715Y-141187142D02*
X81698572Y-141258571D01*
X81984286Y-141258571D01*
X82127143Y-141187142D01*
X82198572Y-141044285D01*
X82198572Y-140472857D01*
X82127143Y-140330000D01*
X81984286Y-140258571D01*
X81698572Y-140258571D01*
X81555715Y-140330000D01*
X81484286Y-140472857D01*
X81484286Y-140615714D01*
X82198572Y-140758571D01*
X80198572Y-141258571D02*
X80198572Y-139758571D01*
X80198572Y-141187142D02*
X80341429Y-141258571D01*
X80627143Y-141258571D01*
X80770000Y-141187142D01*
X80841429Y-141115714D01*
X80912857Y-140972857D01*
X80912857Y-140544285D01*
X80841429Y-140401428D01*
X80770000Y-140330000D01*
X80627143Y-140258571D01*
X80341429Y-140258571D01*
X80198572Y-140330000D01*
X78127143Y-141258571D02*
X78270000Y-141187142D01*
X78341429Y-141115714D01*
X78412857Y-140972857D01*
X78412857Y-140544285D01*
X78341429Y-140401428D01*
X78270000Y-140330000D01*
X78127143Y-140258571D01*
X77912857Y-140258571D01*
X77770000Y-140330000D01*
X77698572Y-140401428D01*
X77627143Y-140544285D01*
X77627143Y-140972857D01*
X77698572Y-141115714D01*
X77770000Y-141187142D01*
X77912857Y-141258571D01*
X78127143Y-141258571D01*
X76984286Y-140258571D02*
X76984286Y-141258571D01*
X76984286Y-140401428D02*
X76912857Y-140330000D01*
X76770000Y-140258571D01*
X76555715Y-140258571D01*
X76412857Y-140330000D01*
X76341429Y-140472857D01*
X76341429Y-141258571D01*
X73984286Y-140472857D02*
X73770000Y-140544285D01*
X73698572Y-140615714D01*
X73627143Y-140758571D01*
X73627143Y-140972857D01*
X73698572Y-141115714D01*
X73770000Y-141187142D01*
X73912857Y-141258571D01*
X74484286Y-141258571D01*
X74484286Y-139758571D01*
X73984286Y-139758571D01*
X73841429Y-139830000D01*
X73770000Y-139901428D01*
X73698572Y-140044285D01*
X73698572Y-140187142D01*
X73770000Y-140330000D01*
X73841429Y-140401428D01*
X73984286Y-140472857D01*
X74484286Y-140472857D01*
X72412857Y-141187142D02*
X72555715Y-141258571D01*
X72841429Y-141258571D01*
X72984286Y-141187142D01*
X73055715Y-141044285D01*
X73055715Y-140472857D01*
X72984286Y-140330000D01*
X72841429Y-140258571D01*
X72555715Y-140258571D01*
X72412857Y-140330000D01*
X72341429Y-140472857D01*
X72341429Y-140615714D01*
X73055715Y-140758571D01*
X71698572Y-140258571D02*
X71698572Y-141258571D01*
X71698572Y-140401428D02*
X71627143Y-140330000D01*
X71484286Y-140258571D01*
X71270000Y-140258571D01*
X71127143Y-140330000D01*
X71055715Y-140472857D01*
X71055715Y-141258571D01*
X69198572Y-140472857D02*
X68698572Y-140472857D01*
X68484286Y-141258571D02*
X69198572Y-141258571D01*
X69198572Y-139758571D01*
X68484286Y-139758571D01*
X67198572Y-141258571D02*
X67198572Y-140472857D01*
X67270000Y-140330000D01*
X67412857Y-140258571D01*
X67698572Y-140258571D01*
X67841429Y-140330000D01*
X67198572Y-141187142D02*
X67341429Y-141258571D01*
X67698572Y-141258571D01*
X67841429Y-141187142D01*
X67912857Y-141044285D01*
X67912857Y-140901428D01*
X67841429Y-140758571D01*
X67698572Y-140687142D01*
X67341429Y-140687142D01*
X67198572Y-140615714D01*
X66698572Y-140258571D02*
X66127143Y-140258571D01*
X66484286Y-139758571D02*
X66484286Y-141044285D01*
X66412857Y-141187142D01*
X66270000Y-141258571D01*
X66127143Y-141258571D01*
X65055714Y-141187142D02*
X65198572Y-141258571D01*
X65484286Y-141258571D01*
X65627143Y-141187142D01*
X65698572Y-141044285D01*
X65698572Y-140472857D01*
X65627143Y-140330000D01*
X65484286Y-140258571D01*
X65198572Y-140258571D01*
X65055714Y-140330000D01*
X64984286Y-140472857D01*
X64984286Y-140615714D01*
X65698572Y-140758571D01*
X64341429Y-141258571D02*
X64341429Y-140258571D01*
X64341429Y-140544285D02*
X64270000Y-140401428D01*
X64198572Y-140330000D01*
X64055714Y-140258571D01*
X63912857Y-140258571D01*
X63341429Y-139758571D02*
X63341429Y-139830000D01*
X63412857Y-139972857D01*
X63484286Y-140044285D01*
X62770000Y-141187142D02*
X62627143Y-141258571D01*
X62341429Y-141258571D01*
X62198572Y-141187142D01*
X62127143Y-141044285D01*
X62127143Y-140972857D01*
X62198572Y-140830000D01*
X62341429Y-140758571D01*
X62555714Y-140758571D01*
X62698572Y-140687142D01*
X62770000Y-140544285D01*
X62770000Y-140472857D01*
X62698572Y-140330000D01*
X62555714Y-140258571D01*
X62341429Y-140258571D01*
X62198572Y-140330000D01*
X59698572Y-139758571D02*
X59984286Y-139758571D01*
X60127143Y-139830000D01*
X60198572Y-139901428D01*
X60341429Y-140115714D01*
X60412857Y-140401428D01*
X60412857Y-140972857D01*
X60341429Y-141115714D01*
X60270000Y-141187142D01*
X60127143Y-141258571D01*
X59841429Y-141258571D01*
X59698572Y-141187142D01*
X59627143Y-141115714D01*
X59555715Y-140972857D01*
X59555715Y-140615714D01*
X59627143Y-140472857D01*
X59698572Y-140401428D01*
X59841429Y-140330000D01*
X60127143Y-140330000D01*
X60270000Y-140401428D01*
X60341429Y-140472857D01*
X60412857Y-140615714D01*
X58198572Y-139758571D02*
X58912857Y-139758571D01*
X58984286Y-140472857D01*
X58912857Y-140401428D01*
X58770000Y-140330000D01*
X58412857Y-140330000D01*
X58270000Y-140401428D01*
X58198572Y-140472857D01*
X58127143Y-140615714D01*
X58127143Y-140972857D01*
X58198572Y-141115714D01*
X58270000Y-141187142D01*
X58412857Y-141258571D01*
X58770000Y-141258571D01*
X58912857Y-141187142D01*
X58984286Y-141115714D01*
X57198572Y-139758571D02*
X57055714Y-139758571D01*
X56912857Y-139830000D01*
X56841429Y-139901428D01*
X56770000Y-140044285D01*
X56698572Y-140330000D01*
X56698572Y-140687142D01*
X56770000Y-140972857D01*
X56841429Y-141115714D01*
X56912857Y-141187142D01*
X57055714Y-141258571D01*
X57198572Y-141258571D01*
X57341429Y-141187142D01*
X57412857Y-141115714D01*
X57484286Y-140972857D01*
X57555714Y-140687142D01*
X57555714Y-140330000D01*
X57484286Y-140044285D01*
X57412857Y-139901428D01*
X57341429Y-139830000D01*
X57198572Y-139758571D01*
X56127143Y-139901428D02*
X56055714Y-139830000D01*
X55912857Y-139758571D01*
X55555714Y-139758571D01*
X55412857Y-139830000D01*
X55341429Y-139901428D01*
X55270000Y-140044285D01*
X55270000Y-140187142D01*
X55341429Y-140401428D01*
X56198572Y-141258571D01*
X55270000Y-141258571D01*
X53484286Y-140258571D02*
X53484286Y-141758571D01*
X53484286Y-140330000D02*
X53341429Y-140258571D01*
X53055714Y-140258571D01*
X52912857Y-140330000D01*
X52841429Y-140401428D01*
X52770000Y-140544285D01*
X52770000Y-140972857D01*
X52841429Y-141115714D01*
X52912857Y-141187142D01*
X53055714Y-141258571D01*
X53341429Y-141258571D01*
X53484286Y-141187142D01*
X52127143Y-141258571D02*
X52127143Y-140258571D01*
X52127143Y-140544285D02*
X52055714Y-140401428D01*
X51984286Y-140330000D01*
X51841429Y-140258571D01*
X51698572Y-140258571D01*
X50984286Y-141258571D02*
X51127143Y-141187142D01*
X51198572Y-141115714D01*
X51270000Y-140972857D01*
X51270000Y-140544285D01*
X51198572Y-140401428D01*
X51127143Y-140330000D01*
X50984286Y-140258571D01*
X50770000Y-140258571D01*
X50627143Y-140330000D01*
X50555714Y-140401428D01*
X50484286Y-140544285D01*
X50484286Y-140972857D01*
X50555714Y-141115714D01*
X50627143Y-141187142D01*
X50770000Y-141258571D01*
X50984286Y-141258571D01*
X49841429Y-140258571D02*
X49841429Y-141544285D01*
X49912857Y-141687142D01*
X50055714Y-141758571D01*
X50127143Y-141758571D01*
X49841429Y-139758571D02*
X49912857Y-139830000D01*
X49841429Y-139901428D01*
X49770000Y-139830000D01*
X49841429Y-139758571D01*
X49841429Y-139901428D01*
X48555714Y-141187142D02*
X48698572Y-141258571D01*
X48984286Y-141258571D01*
X49127143Y-141187142D01*
X49198572Y-141044285D01*
X49198572Y-140472857D01*
X49127143Y-140330000D01*
X48984286Y-140258571D01*
X48698572Y-140258571D01*
X48555714Y-140330000D01*
X48484286Y-140472857D01*
X48484286Y-140615714D01*
X49198572Y-140758571D01*
X47198572Y-141187142D02*
X47341429Y-141258571D01*
X47627143Y-141258571D01*
X47770000Y-141187142D01*
X47841429Y-141115714D01*
X47912857Y-140972857D01*
X47912857Y-140544285D01*
X47841429Y-140401428D01*
X47770000Y-140330000D01*
X47627143Y-140258571D01*
X47341429Y-140258571D01*
X47198572Y-140330000D01*
X46770000Y-140258571D02*
X46198572Y-140258571D01*
X46555714Y-139758571D02*
X46555714Y-141044285D01*
X46484286Y-141187142D01*
X46341429Y-141258571D01*
X46198572Y-141258571D01*
X43912857Y-141258571D02*
X43912857Y-140472857D01*
X43984286Y-140330000D01*
X44127143Y-140258571D01*
X44412857Y-140258571D01*
X44555714Y-140330000D01*
X43912857Y-141187142D02*
X44055714Y-141258571D01*
X44412857Y-141258571D01*
X44555714Y-141187142D01*
X44627143Y-141044285D01*
X44627143Y-140901428D01*
X44555714Y-140758571D01*
X44412857Y-140687142D01*
X44055714Y-140687142D01*
X43912857Y-140615714D01*
X43198572Y-140258571D02*
X43198572Y-141258571D01*
X43198572Y-140401428D02*
X43127143Y-140330000D01*
X42984286Y-140258571D01*
X42770000Y-140258571D01*
X42627143Y-140330000D01*
X42555714Y-140472857D01*
X42555714Y-141258571D01*
X41198572Y-141258571D02*
X41198572Y-139758571D01*
X41198572Y-141187142D02*
X41341429Y-141258571D01*
X41627143Y-141258571D01*
X41770000Y-141187142D01*
X41841429Y-141115714D01*
X41912857Y-140972857D01*
X41912857Y-140544285D01*
X41841429Y-140401428D01*
X41770000Y-140330000D01*
X41627143Y-140258571D01*
X41341429Y-140258571D01*
X41198572Y-140330000D01*
X83877142Y-143443571D02*
X83305714Y-143443571D01*
X83662857Y-142943571D02*
X83662857Y-144229285D01*
X83591428Y-144372142D01*
X83448571Y-144443571D01*
X83305714Y-144443571D01*
X82805714Y-144443571D02*
X82805714Y-142943571D01*
X82162857Y-144443571D02*
X82162857Y-143657857D01*
X82234285Y-143515000D01*
X82377142Y-143443571D01*
X82591428Y-143443571D01*
X82734285Y-143515000D01*
X82805714Y-143586428D01*
X80877142Y-144372142D02*
X81020000Y-144443571D01*
X81305714Y-144443571D01*
X81448571Y-144372142D01*
X81520000Y-144229285D01*
X81520000Y-143657857D01*
X81448571Y-143515000D01*
X81305714Y-143443571D01*
X81020000Y-143443571D01*
X80877142Y-143515000D01*
X80805714Y-143657857D01*
X80805714Y-143800714D01*
X81520000Y-143943571D01*
X79020000Y-144443571D02*
X79020000Y-142943571D01*
X78448571Y-142943571D01*
X78305714Y-143015000D01*
X78234285Y-143086428D01*
X78162857Y-143229285D01*
X78162857Y-143443571D01*
X78234285Y-143586428D01*
X78305714Y-143657857D01*
X78448571Y-143729285D01*
X79020000Y-143729285D01*
X76662857Y-144300714D02*
X76734285Y-144372142D01*
X76948571Y-144443571D01*
X77091428Y-144443571D01*
X77305714Y-144372142D01*
X77448571Y-144229285D01*
X77520000Y-144086428D01*
X77591428Y-143800714D01*
X77591428Y-143586428D01*
X77520000Y-143300714D01*
X77448571Y-143157857D01*
X77305714Y-143015000D01*
X77091428Y-142943571D01*
X76948571Y-142943571D01*
X76734285Y-143015000D01*
X76662857Y-143086428D01*
X75520000Y-143657857D02*
X75305714Y-143729285D01*
X75234285Y-143800714D01*
X75162857Y-143943571D01*
X75162857Y-144157857D01*
X75234285Y-144300714D01*
X75305714Y-144372142D01*
X75448571Y-144443571D01*
X76020000Y-144443571D01*
X76020000Y-142943571D01*
X75520000Y-142943571D01*
X75377142Y-143015000D01*
X75305714Y-143086428D01*
X75234285Y-143229285D01*
X75234285Y-143372142D01*
X75305714Y-143515000D01*
X75377142Y-143586428D01*
X75520000Y-143657857D01*
X76020000Y-143657857D01*
X72734285Y-144443571D02*
X72734285Y-142943571D01*
X72734285Y-144372142D02*
X72877142Y-144443571D01*
X73162857Y-144443571D01*
X73305714Y-144372142D01*
X73377142Y-144300714D01*
X73448571Y-144157857D01*
X73448571Y-143729285D01*
X73377142Y-143586428D01*
X73305714Y-143515000D01*
X73162857Y-143443571D01*
X72877142Y-143443571D01*
X72734285Y-143515000D01*
X71448571Y-144372142D02*
X71591428Y-144443571D01*
X71877142Y-144443571D01*
X72020000Y-144372142D01*
X72091428Y-144229285D01*
X72091428Y-143657857D01*
X72020000Y-143515000D01*
X71877142Y-143443571D01*
X71591428Y-143443571D01*
X71448571Y-143515000D01*
X71377142Y-143657857D01*
X71377142Y-143800714D01*
X72091428Y-143943571D01*
X70805714Y-144372142D02*
X70662857Y-144443571D01*
X70377142Y-144443571D01*
X70234285Y-144372142D01*
X70162857Y-144229285D01*
X70162857Y-144157857D01*
X70234285Y-144015000D01*
X70377142Y-143943571D01*
X70591428Y-143943571D01*
X70734285Y-143872142D01*
X70805714Y-143729285D01*
X70805714Y-143657857D01*
X70734285Y-143515000D01*
X70591428Y-143443571D01*
X70377142Y-143443571D01*
X70234285Y-143515000D01*
X69520000Y-144443571D02*
X69520000Y-143443571D01*
X69520000Y-142943571D02*
X69591428Y-143015000D01*
X69520000Y-143086428D01*
X69448571Y-143015000D01*
X69520000Y-142943571D01*
X69520000Y-143086428D01*
X68162857Y-143443571D02*
X68162857Y-144657857D01*
X68234285Y-144800714D01*
X68305714Y-144872142D01*
X68448571Y-144943571D01*
X68662857Y-144943571D01*
X68805714Y-144872142D01*
X68162857Y-144372142D02*
X68305714Y-144443571D01*
X68591428Y-144443571D01*
X68734285Y-144372142D01*
X68805714Y-144300714D01*
X68877142Y-144157857D01*
X68877142Y-143729285D01*
X68805714Y-143586428D01*
X68734285Y-143515000D01*
X68591428Y-143443571D01*
X68305714Y-143443571D01*
X68162857Y-143515000D01*
X67448571Y-143443571D02*
X67448571Y-144443571D01*
X67448571Y-143586428D02*
X67377142Y-143515000D01*
X67234285Y-143443571D01*
X67020000Y-143443571D01*
X66877142Y-143515000D01*
X66805714Y-143657857D01*
X66805714Y-144443571D01*
X66162857Y-144372142D02*
X66020000Y-144443571D01*
X65734285Y-144443571D01*
X65591428Y-144372142D01*
X65520000Y-144229285D01*
X65520000Y-144157857D01*
X65591428Y-144015000D01*
X65734285Y-143943571D01*
X65948571Y-143943571D01*
X66091428Y-143872142D01*
X66162857Y-143729285D01*
X66162857Y-143657857D01*
X66091428Y-143515000D01*
X65948571Y-143443571D01*
X65734285Y-143443571D01*
X65591428Y-143515000D01*
X63734285Y-144443571D02*
X63734285Y-142943571D01*
X63734285Y-143515000D02*
X63591428Y-143443571D01*
X63305714Y-143443571D01*
X63162857Y-143515000D01*
X63091428Y-143586428D01*
X63020000Y-143729285D01*
X63020000Y-144157857D01*
X63091428Y-144300714D01*
X63162857Y-144372142D01*
X63305714Y-144443571D01*
X63591428Y-144443571D01*
X63734285Y-144372142D01*
X62520000Y-143443571D02*
X62162857Y-144443571D01*
X61805714Y-143443571D02*
X62162857Y-144443571D01*
X62305714Y-144800714D01*
X62377142Y-144872142D01*
X62520000Y-144943571D01*
X60091428Y-144443571D02*
X60091428Y-142943571D01*
X59734285Y-142943571D01*
X59520000Y-143015000D01*
X59377142Y-143157857D01*
X59305714Y-143300714D01*
X59234285Y-143586428D01*
X59234285Y-143800714D01*
X59305714Y-144086428D01*
X59377142Y-144229285D01*
X59520000Y-144372142D01*
X59734285Y-144443571D01*
X60091428Y-144443571D01*
X57948571Y-144443571D02*
X57948571Y-143657857D01*
X58020000Y-143515000D01*
X58162857Y-143443571D01*
X58448571Y-143443571D01*
X58591428Y-143515000D01*
X57948571Y-144372142D02*
X58091428Y-144443571D01*
X58448571Y-144443571D01*
X58591428Y-144372142D01*
X58662857Y-144229285D01*
X58662857Y-144086428D01*
X58591428Y-143943571D01*
X58448571Y-143872142D01*
X58091428Y-143872142D01*
X57948571Y-143800714D01*
X57377142Y-143443571D02*
X57091428Y-144443571D01*
X56805714Y-143729285D01*
X56520000Y-144443571D01*
X56234285Y-143443571D01*
X55662857Y-144443571D02*
X55662857Y-143443571D01*
X55662857Y-142943571D02*
X55734285Y-143015000D01*
X55662857Y-143086428D01*
X55591428Y-143015000D01*
X55662857Y-142943571D01*
X55662857Y-143086428D01*
X54305714Y-144443571D02*
X54305714Y-142943571D01*
X54305714Y-144372142D02*
X54448571Y-144443571D01*
X54734285Y-144443571D01*
X54877142Y-144372142D01*
X54948571Y-144300714D01*
X55020000Y-144157857D01*
X55020000Y-143729285D01*
X54948571Y-143586428D01*
X54877142Y-143515000D01*
X54734285Y-143443571D01*
X54448571Y-143443571D01*
X54305714Y-143515000D01*
X51948571Y-143657857D02*
X51734285Y-143729285D01*
X51662857Y-143800714D01*
X51591428Y-143943571D01*
X51591428Y-144157857D01*
X51662857Y-144300714D01*
X51734285Y-144372142D01*
X51877142Y-144443571D01*
X52448571Y-144443571D01*
X52448571Y-142943571D01*
X51948571Y-142943571D01*
X51805714Y-143015000D01*
X51734285Y-143086428D01*
X51662857Y-143229285D01*
X51662857Y-143372142D01*
X51734285Y-143515000D01*
X51805714Y-143586428D01*
X51948571Y-143657857D01*
X52448571Y-143657857D01*
X50305714Y-143443571D02*
X50305714Y-144443571D01*
X50948571Y-143443571D02*
X50948571Y-144229285D01*
X50877142Y-144372142D01*
X50734285Y-144443571D01*
X50520000Y-144443571D01*
X50377142Y-144372142D01*
X50305714Y-144300714D01*
X48948571Y-144372142D02*
X49091428Y-144443571D01*
X49377142Y-144443571D01*
X49520000Y-144372142D01*
X49591428Y-144300714D01*
X49662857Y-144157857D01*
X49662857Y-143729285D01*
X49591428Y-143586428D01*
X49520000Y-143515000D01*
X49377142Y-143443571D01*
X49091428Y-143443571D01*
X48948571Y-143515000D01*
X48305714Y-144443571D02*
X48305714Y-142943571D01*
X47662857Y-144443571D02*
X47662857Y-143657857D01*
X47734285Y-143515000D01*
X47877142Y-143443571D01*
X48091428Y-143443571D01*
X48234285Y-143515000D01*
X48305714Y-143586428D01*
X47091428Y-143443571D02*
X46805714Y-144443571D01*
X46520000Y-143729285D01*
X46234285Y-144443571D01*
X45948571Y-143443571D01*
X44734285Y-144443571D02*
X44734285Y-143657857D01*
X44805714Y-143515000D01*
X44948571Y-143443571D01*
X45234285Y-143443571D01*
X45377142Y-143515000D01*
X44734285Y-144372142D02*
X44877142Y-144443571D01*
X45234285Y-144443571D01*
X45377142Y-144372142D01*
X45448571Y-144229285D01*
X45448571Y-144086428D01*
X45377142Y-143943571D01*
X45234285Y-143872142D01*
X44877142Y-143872142D01*
X44734285Y-143800714D01*
X43805714Y-144443571D02*
X43948571Y-144372142D01*
X44020000Y-144229285D01*
X44020000Y-142943571D01*
X42591428Y-144443571D02*
X42591428Y-142943571D01*
X42591428Y-144372142D02*
X42734285Y-144443571D01*
X43020000Y-144443571D01*
X43162857Y-144372142D01*
X43234285Y-144300714D01*
X43305714Y-144157857D01*
X43305714Y-143729285D01*
X43234285Y-143586428D01*
X43162857Y-143515000D01*
X43020000Y-143443571D01*
X42734285Y-143443571D01*
X42591428Y-143515000D01*
%LPC*%
D11*
X164597000Y-51683000D03*
X156977000Y-74543000D03*
X164597000Y-54223000D03*
X156977000Y-72003000D03*
X164597000Y-56763000D03*
X156977000Y-69463000D03*
X164597000Y-59303000D03*
X156977000Y-66923000D03*
X164597000Y-61843000D03*
X156977000Y-64383000D03*
X164597000Y-64383000D03*
X156977000Y-61843000D03*
X164597000Y-66923000D03*
X156977000Y-59303000D03*
X164597000Y-69463000D03*
X156977000Y-56763000D03*
X164597000Y-72003000D03*
X156977000Y-54223000D03*
X164597000Y-74543000D03*
G36*
G01*
X156126000Y-52483000D02*
X156126000Y-50883000D01*
G75*
G02*
X156177000Y-50832000I51000J0D01*
G01*
X157777000Y-50832000D01*
G75*
G02*
X157828000Y-50883000I0J-51000D01*
G01*
X157828000Y-52483000D01*
G75*
G02*
X157777000Y-52534000I-51000J0D01*
G01*
X156177000Y-52534000D01*
G75*
G02*
X156126000Y-52483000I0J51000D01*
G01*
G37*
X177803000Y-51683000D03*
X170183000Y-74543000D03*
X177803000Y-54223000D03*
X170183000Y-72003000D03*
X177803000Y-56763000D03*
X170183000Y-69463000D03*
X177803000Y-59303000D03*
X170183000Y-66923000D03*
X177803000Y-61843000D03*
X170183000Y-64383000D03*
X177803000Y-64383000D03*
X170183000Y-61843000D03*
X177803000Y-66923000D03*
X170183000Y-59303000D03*
X177803000Y-69463000D03*
X170183000Y-56763000D03*
X177803000Y-72003000D03*
X170183000Y-54223000D03*
X177803000Y-74543000D03*
G36*
G01*
X169332000Y-52483000D02*
X169332000Y-50883000D01*
G75*
G02*
X169383000Y-50832000I51000J0D01*
G01*
X170983000Y-50832000D01*
G75*
G02*
X171034000Y-50883000I0J-51000D01*
G01*
X171034000Y-52483000D01*
G75*
G02*
X170983000Y-52534000I-51000J0D01*
G01*
X169383000Y-52534000D01*
G75*
G02*
X169332000Y-52483000I0J51000D01*
G01*
G37*
X191110000Y-51683000D03*
X183490000Y-74543000D03*
X191110000Y-54223000D03*
X183490000Y-72003000D03*
X191110000Y-56763000D03*
X183490000Y-69463000D03*
X191110000Y-59303000D03*
X183490000Y-66923000D03*
X191110000Y-61843000D03*
X183490000Y-64383000D03*
X191110000Y-64383000D03*
X183490000Y-61843000D03*
X191110000Y-66923000D03*
X183490000Y-59303000D03*
X191110000Y-69463000D03*
X183490000Y-56763000D03*
X191110000Y-72003000D03*
X183490000Y-54223000D03*
X191110000Y-74543000D03*
G36*
G01*
X182639000Y-52483000D02*
X182639000Y-50883000D01*
G75*
G02*
X182690000Y-50832000I51000J0D01*
G01*
X184290000Y-50832000D01*
G75*
G02*
X184341000Y-50883000I0J-51000D01*
G01*
X184341000Y-52483000D01*
G75*
G02*
X184290000Y-52534000I-51000J0D01*
G01*
X182690000Y-52534000D01*
G75*
G02*
X182639000Y-52483000I0J51000D01*
G01*
G37*
X203803000Y-51683000D03*
X196183000Y-74543000D03*
X203803000Y-54223000D03*
X196183000Y-72003000D03*
X203803000Y-56763000D03*
X196183000Y-69463000D03*
X203803000Y-59303000D03*
X196183000Y-66923000D03*
X203803000Y-61843000D03*
X196183000Y-64383000D03*
X203803000Y-64383000D03*
X196183000Y-61843000D03*
X203803000Y-66923000D03*
X196183000Y-59303000D03*
X203803000Y-69463000D03*
X196183000Y-56763000D03*
X203803000Y-72003000D03*
X196183000Y-54223000D03*
X203803000Y-74543000D03*
G36*
G01*
X195332000Y-52483000D02*
X195332000Y-50883000D01*
G75*
G02*
X195383000Y-50832000I51000J0D01*
G01*
X196983000Y-50832000D01*
G75*
G02*
X197034000Y-50883000I0J-51000D01*
G01*
X197034000Y-52483000D01*
G75*
G02*
X196983000Y-52534000I-51000J0D01*
G01*
X195383000Y-52534000D01*
G75*
G02*
X195332000Y-52483000I0J51000D01*
G01*
G37*
G36*
G01*
X3815000Y-151831000D02*
X2115000Y-151831000D01*
G75*
G02*
X2064000Y-151780000I0J51000D01*
G01*
X2064000Y-150080000D01*
G75*
G02*
X2115000Y-150029000I51000J0D01*
G01*
X3815000Y-150029000D01*
G75*
G02*
X3866000Y-150080000I0J-51000D01*
G01*
X3866000Y-151780000D01*
G75*
G02*
X3815000Y-151831000I-51000J0D01*
G01*
G37*
D12*
X2965000Y-148390000D03*
X5505000Y-150930000D03*
X5505000Y-148390000D03*
X8045000Y-150930000D03*
X8045000Y-148390000D03*
X10585000Y-150930000D03*
X10585000Y-148390000D03*
X13125000Y-150930000D03*
X13125000Y-148390000D03*
X15665000Y-150930000D03*
X15665000Y-148390000D03*
X18205000Y-150930000D03*
X18205000Y-148390000D03*
X20745000Y-150930000D03*
X20745000Y-148390000D03*
X23285000Y-150930000D03*
X23285000Y-148390000D03*
D13*
X84565000Y-54050000D03*
X126940000Y-162560000D03*
D14*
X7220000Y-28265000D03*
X7220000Y-25765000D03*
D15*
X640000Y-156625000D03*
X640000Y-161125000D03*
X-5860000Y-156625000D03*
X-5860000Y-161125000D03*
X206119000Y-156625000D03*
X206119000Y-161125000D03*
X199619000Y-156625000D03*
X199619000Y-161125000D03*
X192879000Y-156625000D03*
X192879000Y-161125000D03*
X186379000Y-156625000D03*
X186379000Y-161125000D03*
D12*
X187930000Y-42760000D03*
X185390000Y-42760000D03*
G36*
G01*
X183700000Y-43661000D02*
X182000000Y-43661000D01*
G75*
G02*
X181949000Y-43610000I0J51000D01*
G01*
X181949000Y-41910000D01*
G75*
G02*
X182000000Y-41859000I51000J0D01*
G01*
X183700000Y-41859000D01*
G75*
G02*
X183751000Y-41910000I0J-51000D01*
G01*
X183751000Y-43610000D01*
G75*
G02*
X183700000Y-43661000I-51000J0D01*
G01*
G37*
X177410000Y-42760000D03*
X174870000Y-42760000D03*
G36*
G01*
X173180000Y-43661000D02*
X171480000Y-43661000D01*
G75*
G02*
X171429000Y-43610000I0J51000D01*
G01*
X171429000Y-41910000D01*
G75*
G02*
X171480000Y-41859000I51000J0D01*
G01*
X173180000Y-41859000D01*
G75*
G02*
X173231000Y-41910000I0J-51000D01*
G01*
X173231000Y-43610000D01*
G75*
G02*
X173180000Y-43661000I-51000J0D01*
G01*
G37*
X166890000Y-42760000D03*
X164350000Y-42760000D03*
G36*
G01*
X162660000Y-43661000D02*
X160960000Y-43661000D01*
G75*
G02*
X160909000Y-43610000I0J51000D01*
G01*
X160909000Y-41910000D01*
G75*
G02*
X160960000Y-41859000I51000J0D01*
G01*
X162660000Y-41859000D01*
G75*
G02*
X162711000Y-41910000I0J-51000D01*
G01*
X162711000Y-43610000D01*
G75*
G02*
X162660000Y-43661000I-51000J0D01*
G01*
G37*
X116520000Y-126460000D03*
X119060000Y-126460000D03*
X116520000Y-123920000D03*
X119060000Y-123920000D03*
X116520000Y-121380000D03*
X119060000Y-121380000D03*
X116520000Y-118840000D03*
X119060000Y-118840000D03*
X116520000Y-116300000D03*
X119060000Y-116300000D03*
X116520000Y-113760000D03*
X119060000Y-113760000D03*
X116520000Y-111220000D03*
X119060000Y-111220000D03*
X116520000Y-108680000D03*
X119060000Y-108680000D03*
X116520000Y-106140000D03*
X119060000Y-106140000D03*
X116520000Y-103600000D03*
X119060000Y-103600000D03*
X116520000Y-101060000D03*
X119060000Y-101060000D03*
X116520000Y-98520000D03*
X119060000Y-98520000D03*
X116520000Y-95980000D03*
X119060000Y-95980000D03*
X116520000Y-93440000D03*
X119060000Y-93440000D03*
X116520000Y-90900000D03*
X119060000Y-90900000D03*
X116520000Y-88360000D03*
G36*
G01*
X118159000Y-89210000D02*
X118159000Y-87510000D01*
G75*
G02*
X118210000Y-87459000I51000J0D01*
G01*
X119910000Y-87459000D01*
G75*
G02*
X119961000Y-87510000I0J-51000D01*
G01*
X119961000Y-89210000D01*
G75*
G02*
X119910000Y-89261000I-51000J0D01*
G01*
X118210000Y-89261000D01*
G75*
G02*
X118159000Y-89210000I0J51000D01*
G01*
G37*
D11*
X127120000Y-98226666D03*
X149980000Y-105846666D03*
X129660000Y-98226666D03*
X147440000Y-105846666D03*
X132200000Y-98226666D03*
X144900000Y-105846666D03*
X134740000Y-98226666D03*
X142360000Y-105846666D03*
X137280000Y-98226666D03*
X139820000Y-105846666D03*
X139820000Y-98226666D03*
X137280000Y-105846666D03*
X142360000Y-98226666D03*
X134740000Y-105846666D03*
X144900000Y-98226666D03*
X132200000Y-105846666D03*
X147440000Y-98226666D03*
X129660000Y-105846666D03*
X149980000Y-98226666D03*
G36*
G01*
X127920000Y-106697666D02*
X126320000Y-106697666D01*
G75*
G02*
X126269000Y-106646666I0J51000D01*
G01*
X126269000Y-105046666D01*
G75*
G02*
X126320000Y-104995666I51000J0D01*
G01*
X127920000Y-104995666D01*
G75*
G02*
X127971000Y-105046666I0J-51000D01*
G01*
X127971000Y-106646666D01*
G75*
G02*
X127920000Y-106697666I-51000J0D01*
G01*
G37*
X127120000Y-85410000D03*
X149980000Y-93030000D03*
X129660000Y-85410000D03*
X147440000Y-93030000D03*
X132200000Y-85410000D03*
X144900000Y-93030000D03*
X134740000Y-85410000D03*
X142360000Y-93030000D03*
X137280000Y-85410000D03*
X139820000Y-93030000D03*
X139820000Y-85410000D03*
X137280000Y-93030000D03*
X142360000Y-85410000D03*
X134740000Y-93030000D03*
X144900000Y-85410000D03*
X132200000Y-93030000D03*
X147440000Y-85410000D03*
X129660000Y-93030000D03*
X149980000Y-85410000D03*
G36*
G01*
X127920000Y-93881000D02*
X126320000Y-93881000D01*
G75*
G02*
X126269000Y-93830000I0J51000D01*
G01*
X126269000Y-92230000D01*
G75*
G02*
X126320000Y-92179000I51000J0D01*
G01*
X127920000Y-92179000D01*
G75*
G02*
X127971000Y-92230000I0J-51000D01*
G01*
X127971000Y-93830000D01*
G75*
G02*
X127920000Y-93881000I-51000J0D01*
G01*
G37*
X127120000Y-111043332D03*
X149980000Y-118663332D03*
X129660000Y-111043332D03*
X147440000Y-118663332D03*
X132200000Y-111043332D03*
X144900000Y-118663332D03*
X134740000Y-111043332D03*
X142360000Y-118663332D03*
X137280000Y-111043332D03*
X139820000Y-118663332D03*
X139820000Y-111043332D03*
X137280000Y-118663332D03*
X142360000Y-111043332D03*
X134740000Y-118663332D03*
X144900000Y-111043332D03*
X132200000Y-118663332D03*
X147440000Y-111043332D03*
X129660000Y-118663332D03*
X149980000Y-111043332D03*
G36*
G01*
X127920000Y-119514332D02*
X126320000Y-119514332D01*
G75*
G02*
X126269000Y-119463332I0J51000D01*
G01*
X126269000Y-117863332D01*
G75*
G02*
X126320000Y-117812332I51000J0D01*
G01*
X127920000Y-117812332D01*
G75*
G02*
X127971000Y-117863332I0J-51000D01*
G01*
X127971000Y-119463332D01*
G75*
G02*
X127920000Y-119514332I-51000J0D01*
G01*
G37*
X127120000Y-123860000D03*
X149980000Y-131480000D03*
X129660000Y-123860000D03*
X147440000Y-131480000D03*
X132200000Y-123860000D03*
X144900000Y-131480000D03*
X134740000Y-123860000D03*
X142360000Y-131480000D03*
X137280000Y-123860000D03*
X139820000Y-131480000D03*
X139820000Y-123860000D03*
X137280000Y-131480000D03*
X142360000Y-123860000D03*
X134740000Y-131480000D03*
X144900000Y-123860000D03*
X132200000Y-131480000D03*
X147440000Y-123860000D03*
X129660000Y-131480000D03*
X149980000Y-123860000D03*
G36*
G01*
X127920000Y-132331000D02*
X126320000Y-132331000D01*
G75*
G02*
X126269000Y-132280000I0J51000D01*
G01*
X126269000Y-130680000D01*
G75*
G02*
X126320000Y-130629000I51000J0D01*
G01*
X127920000Y-130629000D01*
G75*
G02*
X127971000Y-130680000I0J-51000D01*
G01*
X127971000Y-132280000D01*
G75*
G02*
X127920000Y-132331000I-51000J0D01*
G01*
G37*
D16*
X207960000Y-76830000D03*
X217960000Y-79330000D03*
X207960000Y-81830000D03*
D12*
X108330000Y-164910000D03*
X105790000Y-164910000D03*
X103250000Y-164910000D03*
X100710000Y-164910000D03*
X98170000Y-164910000D03*
G36*
G01*
X96480000Y-165811000D02*
X94780000Y-165811000D01*
G75*
G02*
X94729000Y-165760000I0J51000D01*
G01*
X94729000Y-164060000D01*
G75*
G02*
X94780000Y-164009000I51000J0D01*
G01*
X96480000Y-164009000D01*
G75*
G02*
X96531000Y-164060000I0J-51000D01*
G01*
X96531000Y-165760000D01*
G75*
G02*
X96480000Y-165811000I-51000J0D01*
G01*
G37*
G36*
G01*
X96480000Y-153111000D02*
X94780000Y-153111000D01*
G75*
G02*
X94729000Y-153060000I0J51000D01*
G01*
X94729000Y-151360000D01*
G75*
G02*
X94780000Y-151309000I51000J0D01*
G01*
X96480000Y-151309000D01*
G75*
G02*
X96531000Y-151360000I0J-51000D01*
G01*
X96531000Y-153060000D01*
G75*
G02*
X96480000Y-153111000I-51000J0D01*
G01*
G37*
X98170000Y-152210000D03*
X100710000Y-152210000D03*
X103250000Y-152210000D03*
X105790000Y-152210000D03*
X108330000Y-152210000D03*
X137320000Y-165220000D03*
X139860000Y-165220000D03*
X137320000Y-162680000D03*
X139860000Y-162680000D03*
X137320000Y-160140000D03*
X139860000Y-160140000D03*
X137320000Y-157600000D03*
G36*
G01*
X138959000Y-158450000D02*
X138959000Y-156750000D01*
G75*
G02*
X139010000Y-156699000I51000J0D01*
G01*
X140710000Y-156699000D01*
G75*
G02*
X140761000Y-156750000I0J-51000D01*
G01*
X140761000Y-158450000D01*
G75*
G02*
X140710000Y-158501000I-51000J0D01*
G01*
X139010000Y-158501000D01*
G75*
G02*
X138959000Y-158450000I0J51000D01*
G01*
G37*
D17*
X204800000Y-29310000D03*
G36*
G01*
X187140000Y-25766500D02*
X189140000Y-25766500D01*
G75*
G02*
X189191000Y-25817500I0J-51000D01*
G01*
X189191000Y-27722500D01*
G75*
G02*
X189140000Y-27773500I-51000J0D01*
G01*
X187140000Y-27773500D01*
G75*
G02*
X187089000Y-27722500I0J51000D01*
G01*
X187089000Y-25817500D01*
G75*
G02*
X187140000Y-25766500I51000J0D01*
G01*
G37*
D18*
X188140000Y-29310000D03*
X188140000Y-31850000D03*
G36*
G01*
X40780000Y-152861000D02*
X39180000Y-152861000D01*
G75*
G02*
X39129000Y-152810000I0J51000D01*
G01*
X39129000Y-151210000D01*
G75*
G02*
X39180000Y-151159000I51000J0D01*
G01*
X40780000Y-151159000D01*
G75*
G02*
X40831000Y-151210000I0J-51000D01*
G01*
X40831000Y-152810000D01*
G75*
G02*
X40780000Y-152861000I-51000J0D01*
G01*
G37*
D11*
X88240000Y-136770000D03*
X42520000Y-152010000D03*
X85700000Y-136770000D03*
X45060000Y-152010000D03*
X83160000Y-136770000D03*
X47600000Y-152010000D03*
X80620000Y-136770000D03*
X50140000Y-152010000D03*
X78080000Y-136770000D03*
X52680000Y-152010000D03*
X75540000Y-136770000D03*
X55220000Y-152010000D03*
X73000000Y-136770000D03*
X57760000Y-152010000D03*
X70460000Y-136770000D03*
X60300000Y-152010000D03*
X67920000Y-136770000D03*
X62840000Y-152010000D03*
X65380000Y-136770000D03*
X65380000Y-152010000D03*
X62840000Y-136770000D03*
X67920000Y-152010000D03*
X60300000Y-136770000D03*
X70460000Y-152010000D03*
X57760000Y-136770000D03*
X73000000Y-152010000D03*
X55220000Y-136770000D03*
X75540000Y-152010000D03*
X52680000Y-136770000D03*
X78080000Y-152010000D03*
X50140000Y-136770000D03*
X80620000Y-152010000D03*
X47600000Y-136770000D03*
X83160000Y-152010000D03*
X45060000Y-136770000D03*
X85700000Y-152010000D03*
X42520000Y-136770000D03*
X88240000Y-152010000D03*
X39980000Y-136770000D03*
G36*
G01*
X147940000Y-135959000D02*
X149540000Y-135959000D01*
G75*
G02*
X149591000Y-136010000I0J-51000D01*
G01*
X149591000Y-137610000D01*
G75*
G02*
X149540000Y-137661000I-51000J0D01*
G01*
X147940000Y-137661000D01*
G75*
G02*
X147889000Y-137610000I0J51000D01*
G01*
X147889000Y-136010000D01*
G75*
G02*
X147940000Y-135959000I51000J0D01*
G01*
G37*
X115720000Y-152050000D03*
X146200000Y-136810000D03*
X118260000Y-152050000D03*
X143660000Y-136810000D03*
X120800000Y-152050000D03*
X141120000Y-136810000D03*
X123340000Y-152050000D03*
X138580000Y-136810000D03*
X125880000Y-152050000D03*
X136040000Y-136810000D03*
X128420000Y-152050000D03*
X133500000Y-136810000D03*
X130960000Y-152050000D03*
X130960000Y-136810000D03*
X133500000Y-152050000D03*
X128420000Y-136810000D03*
X136040000Y-152050000D03*
X125880000Y-136810000D03*
X138580000Y-152050000D03*
X123340000Y-136810000D03*
X141120000Y-152050000D03*
X120800000Y-136810000D03*
X143660000Y-152050000D03*
X118260000Y-136810000D03*
X146200000Y-152050000D03*
X115720000Y-136810000D03*
X148740000Y-152050000D03*
X39980000Y-64810000D03*
X88240000Y-80050000D03*
X42520000Y-64810000D03*
X85700000Y-80050000D03*
X45060000Y-64810000D03*
X83160000Y-80050000D03*
X47600000Y-64810000D03*
X80620000Y-80050000D03*
X50140000Y-64810000D03*
X78080000Y-80050000D03*
X52680000Y-64810000D03*
X75540000Y-80050000D03*
X55220000Y-64810000D03*
X73000000Y-80050000D03*
X57760000Y-64810000D03*
X70460000Y-80050000D03*
X60300000Y-64810000D03*
X67920000Y-80050000D03*
X62840000Y-64810000D03*
X65380000Y-80050000D03*
X65380000Y-64810000D03*
X62840000Y-80050000D03*
X67920000Y-64810000D03*
X60300000Y-80050000D03*
X70460000Y-64810000D03*
X57760000Y-80050000D03*
X73000000Y-64810000D03*
X55220000Y-80050000D03*
X75540000Y-64810000D03*
X52680000Y-80050000D03*
X78080000Y-64810000D03*
X50140000Y-80050000D03*
X80620000Y-64810000D03*
X47600000Y-80050000D03*
X83160000Y-64810000D03*
X45060000Y-80050000D03*
X85700000Y-64810000D03*
X42520000Y-80050000D03*
X88240000Y-64810000D03*
G36*
G01*
X40780000Y-80901000D02*
X39180000Y-80901000D01*
G75*
G02*
X39129000Y-80850000I0J51000D01*
G01*
X39129000Y-79250000D01*
G75*
G02*
X39180000Y-79199000I51000J0D01*
G01*
X40780000Y-79199000D01*
G75*
G02*
X40831000Y-79250000I0J-51000D01*
G01*
X40831000Y-80850000D01*
G75*
G02*
X40780000Y-80901000I-51000J0D01*
G01*
G37*
G36*
G01*
X94600000Y-48061000D02*
X93000000Y-48061000D01*
G75*
G02*
X92949000Y-48010000I0J51000D01*
G01*
X92949000Y-46410000D01*
G75*
G02*
X93000000Y-46359000I51000J0D01*
G01*
X94600000Y-46359000D01*
G75*
G02*
X94651000Y-46410000I0J-51000D01*
G01*
X94651000Y-48010000D01*
G75*
G02*
X94600000Y-48061000I-51000J0D01*
G01*
G37*
X142060000Y-31970000D03*
X96340000Y-47210000D03*
X139520000Y-31970000D03*
X98880000Y-47210000D03*
X136980000Y-31970000D03*
X101420000Y-47210000D03*
X134440000Y-31970000D03*
X103960000Y-47210000D03*
X131900000Y-31970000D03*
X106500000Y-47210000D03*
X129360000Y-31970000D03*
X109040000Y-47210000D03*
X126820000Y-31970000D03*
X111580000Y-47210000D03*
X124280000Y-31970000D03*
X114120000Y-47210000D03*
X121740000Y-31970000D03*
X116660000Y-47210000D03*
X119200000Y-31970000D03*
X119200000Y-47210000D03*
X116660000Y-31970000D03*
X121740000Y-47210000D03*
X114120000Y-31970000D03*
X124280000Y-47210000D03*
X111580000Y-31970000D03*
X126820000Y-47210000D03*
X109040000Y-31970000D03*
X129360000Y-47210000D03*
X106500000Y-31970000D03*
X131900000Y-47210000D03*
X103960000Y-31970000D03*
X134440000Y-47210000D03*
X101420000Y-31970000D03*
X136980000Y-47210000D03*
X98880000Y-31970000D03*
X139520000Y-47210000D03*
X96340000Y-31970000D03*
X142060000Y-47210000D03*
X93800000Y-31970000D03*
D19*
X80090000Y-27630000D03*
G36*
G01*
X76599000Y-28530000D02*
X76599000Y-26730000D01*
G75*
G02*
X76650000Y-26679000I51000J0D01*
G01*
X78450000Y-26679000D01*
G75*
G02*
X78501000Y-26730000I0J-51000D01*
G01*
X78501000Y-28530000D01*
G75*
G02*
X78450000Y-28581000I-51000J0D01*
G01*
X76650000Y-28581000D01*
G75*
G02*
X76599000Y-28530000I0J51000D01*
G01*
G37*
D14*
X118380000Y-157340000D03*
X115880000Y-157340000D03*
D12*
X160310000Y-157600000D03*
X157770000Y-157600000D03*
X155230000Y-157600000D03*
X152690000Y-157600000D03*
X150150000Y-157600000D03*
G36*
G01*
X148460000Y-158501000D02*
X146760000Y-158501000D01*
G75*
G02*
X146709000Y-158450000I0J51000D01*
G01*
X146709000Y-156750000D01*
G75*
G02*
X146760000Y-156699000I51000J0D01*
G01*
X148460000Y-156699000D01*
G75*
G02*
X148511000Y-156750000I0J-51000D01*
G01*
X148511000Y-158450000D01*
G75*
G02*
X148460000Y-158501000I-51000J0D01*
G01*
G37*
D16*
X65320000Y-37990000D03*
X75320000Y-40490000D03*
X65320000Y-42990000D03*
G36*
G01*
X177790000Y-25919000D02*
X179390000Y-25919000D01*
G75*
G02*
X179441000Y-25970000I0J-51000D01*
G01*
X179441000Y-27570000D01*
G75*
G02*
X179390000Y-27621000I-51000J0D01*
G01*
X177790000Y-27621000D01*
G75*
G02*
X177739000Y-27570000I0J51000D01*
G01*
X177739000Y-25970000D01*
G75*
G02*
X177790000Y-25919000I51000J0D01*
G01*
G37*
D11*
X155730000Y-34390000D03*
X176050000Y-26770000D03*
X158270000Y-34390000D03*
X173510000Y-26770000D03*
X160810000Y-34390000D03*
X170970000Y-26770000D03*
X163350000Y-34390000D03*
X168430000Y-26770000D03*
X165890000Y-34390000D03*
X165890000Y-26770000D03*
X168430000Y-34390000D03*
X163350000Y-26770000D03*
X170970000Y-34390000D03*
X160810000Y-26770000D03*
X173510000Y-34390000D03*
X158270000Y-26770000D03*
X176050000Y-34390000D03*
X155730000Y-26770000D03*
X178590000Y-34390000D03*
D14*
X141560000Y-61110000D03*
X139060000Y-61110000D03*
D13*
X-12700000Y-162560000D03*
X-12700000Y-27940000D03*
X213360000Y-27940000D03*
X213360000Y-162560000D03*
D12*
X132300000Y-27110000D03*
X129760000Y-27110000D03*
X127220000Y-27110000D03*
X124680000Y-27110000D03*
X122140000Y-27110000D03*
X119600000Y-27110000D03*
X117060000Y-27110000D03*
X114520000Y-27110000D03*
X111980000Y-27110000D03*
X109440000Y-27110000D03*
X106900000Y-27110000D03*
X104360000Y-27110000D03*
X101820000Y-27110000D03*
X99280000Y-27110000D03*
X96740000Y-27110000D03*
G36*
G01*
X95050000Y-28011000D02*
X93350000Y-28011000D01*
G75*
G02*
X93299000Y-27960000I0J51000D01*
G01*
X93299000Y-26260000D01*
G75*
G02*
X93350000Y-26209000I51000J0D01*
G01*
X95050000Y-26209000D01*
G75*
G02*
X95101000Y-26260000I0J-51000D01*
G01*
X95101000Y-27960000D01*
G75*
G02*
X95050000Y-28011000I-51000J0D01*
G01*
G37*
D14*
X70572000Y-85852000D03*
X68072000Y-85852000D03*
X-5270000Y-140620000D03*
X-5270000Y-143120000D03*
X69970000Y-92060000D03*
X72470000Y-92060000D03*
X-9110000Y-123640000D03*
X-11610000Y-123640000D03*
X85350000Y-92020000D03*
X87850000Y-92020000D03*
X182030000Y-34390000D03*
X184530000Y-34520000D03*
G36*
G01*
X-1919000Y-147860000D02*
X-1919000Y-149460000D01*
G75*
G02*
X-1970000Y-149511000I-51000J0D01*
G01*
X-3570000Y-149511000D01*
G75*
G02*
X-3621000Y-149460000I0J51000D01*
G01*
X-3621000Y-147860000D01*
G75*
G02*
X-3570000Y-147809000I51000J0D01*
G01*
X-1970000Y-147809000D01*
G75*
G02*
X-1919000Y-147860000I0J-51000D01*
G01*
G37*
X-5270000Y-148660000D03*
X125860000Y-61110000D03*
X123360000Y-61110000D03*
X88240000Y-157340000D03*
X85740000Y-157340000D03*
X146010000Y-36910000D03*
X146010000Y-34410000D03*
X152730000Y-61110000D03*
X150230000Y-61110000D03*
G36*
G01*
X-9921000Y-76310000D02*
X-9921000Y-74610000D01*
G75*
G02*
X-9870000Y-74559000I51000J0D01*
G01*
X-8170000Y-74559000D01*
G75*
G02*
X-8119000Y-74610000I0J-51000D01*
G01*
X-8119000Y-76310000D01*
G75*
G02*
X-8170000Y-76361000I-51000J0D01*
G01*
X-9870000Y-76361000D01*
G75*
G02*
X-9921000Y-76310000I0J51000D01*
G01*
G37*
D12*
X-11560000Y-75460000D03*
X-9020000Y-78000000D03*
X-11560000Y-78000000D03*
X-9020000Y-80540000D03*
X-11560000Y-80540000D03*
X-9020000Y-83080000D03*
X-11560000Y-83080000D03*
X-9020000Y-85620000D03*
X-11560000Y-85620000D03*
X-9020000Y-88160000D03*
X-11560000Y-88160000D03*
X-9020000Y-90700000D03*
X-11560000Y-90700000D03*
X-9020000Y-93240000D03*
X-11560000Y-93240000D03*
X-9020000Y-95780000D03*
X-11560000Y-95780000D03*
X-9020000Y-98320000D03*
X-11560000Y-98320000D03*
X-9020000Y-100860000D03*
X-11560000Y-100860000D03*
X-9020000Y-103400000D03*
X-11560000Y-103400000D03*
X-9020000Y-105940000D03*
X-11560000Y-105940000D03*
X-9020000Y-108480000D03*
X-11560000Y-108480000D03*
X-9020000Y-111020000D03*
X-11560000Y-111020000D03*
X-9020000Y-113560000D03*
X-11560000Y-113560000D03*
D20*
X215740000Y-43210000D03*
D14*
X209290000Y-46610000D03*
X209290000Y-39810000D03*
X212090000Y-46610000D03*
X212090000Y-39810000D03*
X212090000Y-44510000D03*
G36*
G01*
X212890000Y-42761000D02*
X211290000Y-42761000D01*
G75*
G02*
X211239000Y-42710000I0J51000D01*
G01*
X211239000Y-41110000D01*
G75*
G02*
X211290000Y-41059000I51000J0D01*
G01*
X212890000Y-41059000D01*
G75*
G02*
X212941000Y-41110000I0J-51000D01*
G01*
X212941000Y-42710000D01*
G75*
G02*
X212890000Y-42761000I-51000J0D01*
G01*
G37*
D21*
X214940000Y-36360000D03*
X214940000Y-50060000D03*
D11*
X7859000Y-50090000D03*
D14*
X239000Y-50090000D03*
X19035000Y-50090000D03*
D11*
X11415000Y-50090000D03*
D14*
X-9390000Y-139180000D03*
D11*
X-17010000Y-139180000D03*
D14*
X-9130000Y-120210000D03*
D11*
X-16750000Y-120210000D03*
X-17000000Y-145530000D03*
D14*
X-9380000Y-145530000D03*
D11*
X-17000000Y-153110000D03*
D14*
X-9380000Y-153110000D03*
G36*
G01*
X69209000Y-95790000D02*
X69209000Y-94190000D01*
G75*
G02*
X69260000Y-94139000I51000J0D01*
G01*
X70860000Y-94139000D01*
G75*
G02*
X70911000Y-94190000I0J-51000D01*
G01*
X70911000Y-95790000D01*
G75*
G02*
X70860000Y-95841000I-51000J0D01*
G01*
X69260000Y-95841000D01*
G75*
G02*
X69209000Y-95790000I0J51000D01*
G01*
G37*
D11*
X85300000Y-128010000D03*
X70060000Y-97530000D03*
X85300000Y-125470000D03*
X70060000Y-100070000D03*
X85300000Y-122930000D03*
X70060000Y-102610000D03*
X85300000Y-120390000D03*
X70060000Y-105150000D03*
X85300000Y-117850000D03*
X70060000Y-107690000D03*
X85300000Y-115310000D03*
X70060000Y-110230000D03*
X85300000Y-112770000D03*
X70060000Y-112770000D03*
X85300000Y-110230000D03*
X70060000Y-115310000D03*
X85300000Y-107690000D03*
X70060000Y-117850000D03*
X85300000Y-105150000D03*
X70060000Y-120390000D03*
X85300000Y-102610000D03*
X70060000Y-122930000D03*
X85300000Y-100070000D03*
X70060000Y-125470000D03*
X85300000Y-97530000D03*
X70060000Y-128010000D03*
X85300000Y-94990000D03*
X136660000Y-65080000D03*
X129040000Y-80320000D03*
X136660000Y-67620000D03*
X129040000Y-77780000D03*
X136660000Y-70160000D03*
X129040000Y-75240000D03*
X136660000Y-72700000D03*
X129040000Y-72700000D03*
X136660000Y-75240000D03*
X129040000Y-70160000D03*
X136660000Y-77780000D03*
X129040000Y-67620000D03*
X136660000Y-80320000D03*
G36*
G01*
X128189000Y-65880000D02*
X128189000Y-64280000D01*
G75*
G02*
X128240000Y-64229000I51000J0D01*
G01*
X129840000Y-64229000D01*
G75*
G02*
X129891000Y-64280000I0J-51000D01*
G01*
X129891000Y-65880000D01*
G75*
G02*
X129840000Y-65931000I-51000J0D01*
G01*
X128240000Y-65931000D01*
G75*
G02*
X128189000Y-65880000I0J51000D01*
G01*
G37*
X149980000Y-65080000D03*
X142360000Y-80320000D03*
X149980000Y-67620000D03*
X142360000Y-77780000D03*
X149980000Y-70160000D03*
X142360000Y-75240000D03*
X149980000Y-72700000D03*
X142360000Y-72700000D03*
X149980000Y-75240000D03*
X142360000Y-70160000D03*
X149980000Y-77780000D03*
X142360000Y-67620000D03*
X149980000Y-80320000D03*
G36*
G01*
X141509000Y-65880000D02*
X141509000Y-64280000D01*
G75*
G02*
X141560000Y-64229000I51000J0D01*
G01*
X143160000Y-64229000D01*
G75*
G02*
X143211000Y-64280000I0J-51000D01*
G01*
X143211000Y-65880000D01*
G75*
G02*
X143160000Y-65931000I-51000J0D01*
G01*
X141560000Y-65931000D01*
G75*
G02*
X141509000Y-65880000I0J51000D01*
G01*
G37*
G36*
G01*
X-17431000Y-127970000D02*
X-17431000Y-126370000D01*
G75*
G02*
X-17380000Y-126319000I51000J0D01*
G01*
X-15780000Y-126319000D01*
G75*
G02*
X-15729000Y-126370000I0J-51000D01*
G01*
X-15729000Y-127970000D01*
G75*
G02*
X-15780000Y-128021000I-51000J0D01*
G01*
X-17380000Y-128021000D01*
G75*
G02*
X-17431000Y-127970000I0J51000D01*
G01*
G37*
X-8960000Y-134790000D03*
X-16580000Y-129710000D03*
X-8960000Y-132250000D03*
X-16580000Y-132250000D03*
X-8960000Y-129710000D03*
X-16580000Y-134790000D03*
X-8960000Y-127170000D03*
G36*
G01*
X114869000Y-65880000D02*
X114869000Y-64280000D01*
G75*
G02*
X114920000Y-64229000I51000J0D01*
G01*
X116520000Y-64229000D01*
G75*
G02*
X116571000Y-64280000I0J-51000D01*
G01*
X116571000Y-65880000D01*
G75*
G02*
X116520000Y-65931000I-51000J0D01*
G01*
X114920000Y-65931000D01*
G75*
G02*
X114869000Y-65880000I0J51000D01*
G01*
G37*
X123340000Y-80320000D03*
X115720000Y-67620000D03*
X123340000Y-77780000D03*
X115720000Y-70160000D03*
X123340000Y-75240000D03*
X115720000Y-72700000D03*
X123340000Y-72700000D03*
X115720000Y-75240000D03*
X123340000Y-70160000D03*
X115720000Y-77780000D03*
X123340000Y-67620000D03*
X115720000Y-80320000D03*
X123340000Y-65080000D03*
G36*
G01*
X-7050000Y-69011000D02*
X-8650000Y-69011000D01*
G75*
G02*
X-8701000Y-68960000I0J51000D01*
G01*
X-8701000Y-67360000D01*
G75*
G02*
X-8650000Y-67309000I51000J0D01*
G01*
X-7050000Y-67309000D01*
G75*
G02*
X-6999000Y-67360000I0J-51000D01*
G01*
X-6999000Y-68960000D01*
G75*
G02*
X-7050000Y-69011000I-51000J0D01*
G01*
G37*
D14*
X-15470000Y-68160000D03*
X-15470000Y-52920000D03*
X-7850000Y-52920000D03*
G36*
G01*
X171581000Y-139790000D02*
X171581000Y-141390000D01*
G75*
G02*
X171530000Y-141441000I-51000J0D01*
G01*
X169930000Y-141441000D01*
G75*
G02*
X169879000Y-141390000I0J51000D01*
G01*
X169879000Y-139790000D01*
G75*
G02*
X169930000Y-139739000I51000J0D01*
G01*
X171530000Y-139739000D01*
G75*
G02*
X171581000Y-139790000I0J-51000D01*
G01*
G37*
X170730000Y-148210000D03*
X155490000Y-148210000D03*
X155490000Y-140590000D03*
G36*
G01*
X-11240000Y-45589000D02*
X-9540000Y-45589000D01*
G75*
G02*
X-9489000Y-45640000I0J-51000D01*
G01*
X-9489000Y-47340000D01*
G75*
G02*
X-9540000Y-47391000I-51000J0D01*
G01*
X-11240000Y-47391000D01*
G75*
G02*
X-11291000Y-47340000I0J51000D01*
G01*
X-11291000Y-45640000D01*
G75*
G02*
X-11240000Y-45589000I51000J0D01*
G01*
G37*
D12*
X-12930000Y-46490000D03*
X-15470000Y-46490000D03*
X210630000Y-61900000D03*
X210630000Y-59360000D03*
X213170000Y-61900000D03*
X213170000Y-59360000D03*
X215710000Y-61900000D03*
G36*
G01*
X214860000Y-58459000D02*
X216560000Y-58459000D01*
G75*
G02*
X216611000Y-58510000I0J-51000D01*
G01*
X216611000Y-60210000D01*
G75*
G02*
X216560000Y-60261000I-51000J0D01*
G01*
X214860000Y-60261000D01*
G75*
G02*
X214809000Y-60210000I0J51000D01*
G01*
X214809000Y-58510000D01*
G75*
G02*
X214860000Y-58459000I51000J0D01*
G01*
G37*
D11*
X204064000Y-101245000D03*
X196444000Y-108865000D03*
X204064000Y-103785000D03*
X196444000Y-106325000D03*
X204064000Y-106325000D03*
X196444000Y-103785000D03*
X204064000Y-108865000D03*
G36*
G01*
X195593000Y-102045000D02*
X195593000Y-100445000D01*
G75*
G02*
X195644000Y-100394000I51000J0D01*
G01*
X197244000Y-100394000D01*
G75*
G02*
X197295000Y-100445000I0J-51000D01*
G01*
X197295000Y-102045000D01*
G75*
G02*
X197244000Y-102096000I-51000J0D01*
G01*
X195644000Y-102096000D01*
G75*
G02*
X195593000Y-102045000I0J51000D01*
G01*
G37*
D19*
X211089000Y-143915000D03*
G36*
G01*
X207598000Y-144815000D02*
X207598000Y-143015000D01*
G75*
G02*
X207649000Y-142964000I51000J0D01*
G01*
X209449000Y-142964000D01*
G75*
G02*
X209500000Y-143015000I0J-51000D01*
G01*
X209500000Y-144815000D01*
G75*
G02*
X209449000Y-144866000I-51000J0D01*
G01*
X207649000Y-144866000D01*
G75*
G02*
X207598000Y-144815000I0J51000D01*
G01*
G37*
X203469000Y-143915000D03*
G36*
G01*
X199978000Y-144815000D02*
X199978000Y-143015000D01*
G75*
G02*
X200029000Y-142964000I51000J0D01*
G01*
X201829000Y-142964000D01*
G75*
G02*
X201880000Y-143015000I0J-51000D01*
G01*
X201880000Y-144815000D01*
G75*
G02*
X201829000Y-144866000I-51000J0D01*
G01*
X200029000Y-144866000D01*
G75*
G02*
X199978000Y-144815000I0J51000D01*
G01*
G37*
X188229000Y-143915000D03*
G36*
G01*
X184738000Y-144815000D02*
X184738000Y-143015000D01*
G75*
G02*
X184789000Y-142964000I51000J0D01*
G01*
X186589000Y-142964000D01*
G75*
G02*
X186640000Y-143015000I0J-51000D01*
G01*
X186640000Y-144815000D01*
G75*
G02*
X186589000Y-144866000I-51000J0D01*
G01*
X184789000Y-144866000D01*
G75*
G02*
X184738000Y-144815000I0J51000D01*
G01*
G37*
X195849000Y-143915000D03*
G36*
G01*
X192358000Y-144815000D02*
X192358000Y-143015000D01*
G75*
G02*
X192409000Y-142964000I51000J0D01*
G01*
X194209000Y-142964000D01*
G75*
G02*
X194260000Y-143015000I0J-51000D01*
G01*
X194260000Y-144815000D01*
G75*
G02*
X194209000Y-144866000I-51000J0D01*
G01*
X192409000Y-144866000D01*
G75*
G02*
X192358000Y-144815000I0J51000D01*
G01*
G37*
X180609000Y-143915000D03*
G36*
G01*
X177118000Y-144815000D02*
X177118000Y-143015000D01*
G75*
G02*
X177169000Y-142964000I51000J0D01*
G01*
X178969000Y-142964000D01*
G75*
G02*
X179020000Y-143015000I0J-51000D01*
G01*
X179020000Y-144815000D01*
G75*
G02*
X178969000Y-144866000I-51000J0D01*
G01*
X177169000Y-144866000D01*
G75*
G02*
X177118000Y-144815000I0J51000D01*
G01*
G37*
D16*
X171394000Y-161805000D03*
X181394000Y-159305000D03*
X171394000Y-156805000D03*
D11*
X187849000Y-121565000D03*
D14*
X187849000Y-129185000D03*
G36*
G01*
X170303000Y-96420000D02*
X170303000Y-94820000D01*
G75*
G02*
X170354000Y-94769000I51000J0D01*
G01*
X171954000Y-94769000D01*
G75*
G02*
X172005000Y-94820000I0J-51000D01*
G01*
X172005000Y-96420000D01*
G75*
G02*
X171954000Y-96471000I-51000J0D01*
G01*
X170354000Y-96471000D01*
G75*
G02*
X170303000Y-96420000I0J51000D01*
G01*
G37*
X173654000Y-95620000D03*
X173654000Y-87865000D03*
G36*
G01*
X170303000Y-88665000D02*
X170303000Y-87065000D01*
G75*
G02*
X170354000Y-87014000I51000J0D01*
G01*
X171954000Y-87014000D01*
G75*
G02*
X172005000Y-87065000I0J-51000D01*
G01*
X172005000Y-88665000D01*
G75*
G02*
X171954000Y-88716000I-51000J0D01*
G01*
X170354000Y-88716000D01*
G75*
G02*
X170303000Y-88665000I0J51000D01*
G01*
G37*
X177649000Y-86555000D03*
D11*
X177649000Y-94175000D03*
X181634000Y-94175000D03*
D14*
X181634000Y-86555000D03*
D11*
X170289000Y-121565000D03*
D14*
X170289000Y-129185000D03*
X197574000Y-94175000D03*
D11*
X197574000Y-86555000D03*
D14*
X209529000Y-94175000D03*
D11*
X209529000Y-86555000D03*
X183459000Y-121565000D03*
D14*
X183459000Y-129185000D03*
D11*
X205544000Y-86555000D03*
D14*
X205544000Y-94175000D03*
X189604000Y-86555000D03*
D11*
X189604000Y-94175000D03*
D14*
X185619000Y-94175000D03*
D11*
X185619000Y-86555000D03*
X174679000Y-121565000D03*
D14*
X174679000Y-129185000D03*
X201559000Y-94175000D03*
D11*
X201559000Y-86555000D03*
D14*
X193589000Y-94175000D03*
D11*
X193589000Y-86555000D03*
X179069000Y-121565000D03*
D14*
X179069000Y-129185000D03*
G36*
G01*
X207743000Y-122675000D02*
X207743000Y-121075000D01*
G75*
G02*
X207794000Y-121024000I51000J0D01*
G01*
X209394000Y-121024000D01*
G75*
G02*
X209445000Y-121075000I0J-51000D01*
G01*
X209445000Y-122675000D01*
G75*
G02*
X209394000Y-122726000I-51000J0D01*
G01*
X207794000Y-122726000D01*
G75*
G02*
X207743000Y-122675000I0J51000D01*
G01*
G37*
D11*
X216214000Y-137115000D03*
X208594000Y-124415000D03*
X216214000Y-134575000D03*
X208594000Y-126955000D03*
X216214000Y-132035000D03*
X208594000Y-129495000D03*
X216214000Y-129495000D03*
X208594000Y-132035000D03*
X216214000Y-126955000D03*
X208594000Y-134575000D03*
X216214000Y-124415000D03*
X208594000Y-137115000D03*
X216214000Y-121875000D03*
G36*
G01*
X170033000Y-102045000D02*
X170033000Y-100445000D01*
G75*
G02*
X170084000Y-100394000I51000J0D01*
G01*
X171684000Y-100394000D01*
G75*
G02*
X171735000Y-100445000I0J-51000D01*
G01*
X171735000Y-102045000D01*
G75*
G02*
X171684000Y-102096000I-51000J0D01*
G01*
X170084000Y-102096000D01*
G75*
G02*
X170033000Y-102045000I0J51000D01*
G01*
G37*
X178504000Y-108865000D03*
X170884000Y-103785000D03*
X178504000Y-106325000D03*
X170884000Y-106325000D03*
X178504000Y-103785000D03*
X170884000Y-108865000D03*
X178504000Y-101245000D03*
X204064000Y-121875000D03*
X196444000Y-137115000D03*
X204064000Y-124415000D03*
X196444000Y-134575000D03*
X204064000Y-126955000D03*
X196444000Y-132035000D03*
X204064000Y-129495000D03*
X196444000Y-129495000D03*
X204064000Y-132035000D03*
X196444000Y-126955000D03*
X204064000Y-134575000D03*
X196444000Y-124415000D03*
X204064000Y-137115000D03*
G36*
G01*
X195593000Y-122675000D02*
X195593000Y-121075000D01*
G75*
G02*
X195644000Y-121024000I51000J0D01*
G01*
X197244000Y-121024000D01*
G75*
G02*
X197295000Y-121075000I0J-51000D01*
G01*
X197295000Y-122675000D01*
G75*
G02*
X197244000Y-122726000I-51000J0D01*
G01*
X195644000Y-122726000D01*
G75*
G02*
X195593000Y-122675000I0J51000D01*
G01*
G37*
G36*
G01*
X207743000Y-102045000D02*
X207743000Y-100445000D01*
G75*
G02*
X207794000Y-100394000I51000J0D01*
G01*
X209394000Y-100394000D01*
G75*
G02*
X209445000Y-100445000I0J-51000D01*
G01*
X209445000Y-102045000D01*
G75*
G02*
X209394000Y-102096000I-51000J0D01*
G01*
X207794000Y-102096000D01*
G75*
G02*
X207743000Y-102045000I0J51000D01*
G01*
G37*
X216214000Y-116485000D03*
X208594000Y-103785000D03*
X216214000Y-113945000D03*
X208594000Y-106325000D03*
X216214000Y-111405000D03*
X208594000Y-108865000D03*
X216214000Y-108865000D03*
X208594000Y-111405000D03*
X216214000Y-106325000D03*
X208594000Y-113945000D03*
X216214000Y-103785000D03*
X208594000Y-116485000D03*
X216214000Y-101245000D03*
X191284000Y-101245000D03*
X183664000Y-108865000D03*
X191284000Y-103785000D03*
X183664000Y-106325000D03*
X191284000Y-106325000D03*
X183664000Y-103785000D03*
X191284000Y-108865000D03*
G36*
G01*
X182813000Y-102045000D02*
X182813000Y-100445000D01*
G75*
G02*
X182864000Y-100394000I51000J0D01*
G01*
X184464000Y-100394000D01*
G75*
G02*
X184515000Y-100445000I0J-51000D01*
G01*
X184515000Y-102045000D01*
G75*
G02*
X184464000Y-102096000I-51000J0D01*
G01*
X182864000Y-102096000D01*
G75*
G02*
X182813000Y-102045000I0J51000D01*
G01*
G37*
D14*
X192104000Y-129185000D03*
D11*
X192104000Y-121565000D03*
G36*
G01*
X213513000Y-93960000D02*
X213513000Y-92360000D01*
G75*
G02*
X213564000Y-92309000I51000J0D01*
G01*
X215164000Y-92309000D01*
G75*
G02*
X215215000Y-92360000I0J-51000D01*
G01*
X215215000Y-93960000D01*
G75*
G02*
X215164000Y-94011000I-51000J0D01*
G01*
X213564000Y-94011000D01*
G75*
G02*
X213513000Y-93960000I0J51000D01*
G01*
G37*
D14*
X216864000Y-93160000D03*
D11*
X166973000Y-107105000D03*
X166973000Y-104565000D03*
X166973000Y-102025000D03*
X166973000Y-99485000D03*
X166973000Y-96945000D03*
X166973000Y-94405000D03*
X166973000Y-91865000D03*
X166973000Y-89325000D03*
G36*
G01*
X166173000Y-85934000D02*
X167773000Y-85934000D01*
G75*
G02*
X167824000Y-85985000I0J-51000D01*
G01*
X167824000Y-87585000D01*
G75*
G02*
X167773000Y-87636000I-51000J0D01*
G01*
X166173000Y-87636000D01*
G75*
G02*
X166122000Y-87585000I0J51000D01*
G01*
X166122000Y-85985000D01*
G75*
G02*
X166173000Y-85934000I51000J0D01*
G01*
G37*
X162273000Y-107125000D03*
X162273000Y-104585000D03*
X162273000Y-102045000D03*
X162273000Y-99505000D03*
X162273000Y-96965000D03*
X162273000Y-94425000D03*
X162273000Y-91885000D03*
X162273000Y-89345000D03*
G36*
G01*
X161473000Y-85954000D02*
X163073000Y-85954000D01*
G75*
G02*
X163124000Y-86005000I0J-51000D01*
G01*
X163124000Y-87605000D01*
G75*
G02*
X163073000Y-87656000I-51000J0D01*
G01*
X161473000Y-87656000D01*
G75*
G02*
X161422000Y-87605000I0J51000D01*
G01*
X161422000Y-86005000D01*
G75*
G02*
X161473000Y-85954000I51000J0D01*
G01*
G37*
G36*
G01*
X166173000Y-112014000D02*
X167773000Y-112014000D01*
G75*
G02*
X167824000Y-112065000I0J-51000D01*
G01*
X167824000Y-113665000D01*
G75*
G02*
X167773000Y-113716000I-51000J0D01*
G01*
X166173000Y-113716000D01*
G75*
G02*
X166122000Y-113665000I0J51000D01*
G01*
X166122000Y-112065000D01*
G75*
G02*
X166173000Y-112014000I51000J0D01*
G01*
G37*
X166973000Y-115405000D03*
X166973000Y-117945000D03*
X166973000Y-120485000D03*
X166973000Y-123025000D03*
X166973000Y-125565000D03*
X166973000Y-128105000D03*
X166973000Y-130645000D03*
X166973000Y-133185000D03*
G36*
G01*
X161473000Y-112014000D02*
X163073000Y-112014000D01*
G75*
G02*
X163124000Y-112065000I0J-51000D01*
G01*
X163124000Y-113665000D01*
G75*
G02*
X163073000Y-113716000I-51000J0D01*
G01*
X161473000Y-113716000D01*
G75*
G02*
X161422000Y-113665000I0J51000D01*
G01*
X161422000Y-112065000D01*
G75*
G02*
X161473000Y-112014000I51000J0D01*
G01*
G37*
X162273000Y-115405000D03*
X162273000Y-117945000D03*
X162273000Y-120485000D03*
X162273000Y-123025000D03*
X162273000Y-125565000D03*
X162273000Y-128105000D03*
X162273000Y-130645000D03*
X162273000Y-133185000D03*
D12*
X-10365000Y-37310000D03*
X-12905000Y-37310000D03*
G36*
G01*
X-14620000Y-38211000D02*
X-16320000Y-38211000D01*
G75*
G02*
X-16371000Y-38160000I0J51000D01*
G01*
X-16371000Y-36460000D01*
G75*
G02*
X-16320000Y-36409000I51000J0D01*
G01*
X-14620000Y-36409000D01*
G75*
G02*
X-14569000Y-36460000I0J-51000D01*
G01*
X-14569000Y-38160000D01*
G75*
G02*
X-14620000Y-38211000I-51000J0D01*
G01*
G37*
D22*
X12800000Y-25725000D03*
X15340000Y-25725000D03*
G36*
G01*
X18883500Y-24725000D02*
X18883500Y-26725000D01*
G75*
G02*
X18832500Y-26776000I-51000J0D01*
G01*
X16927500Y-26776000D01*
G75*
G02*
X16876500Y-26725000I0J51000D01*
G01*
X16876500Y-24725000D01*
G75*
G02*
X16927500Y-24674000I51000J0D01*
G01*
X18832500Y-24674000D01*
G75*
G02*
X18883500Y-24725000I0J-51000D01*
G01*
G37*
D17*
X15340000Y-42385000D03*
G36*
G01*
X5831000Y-39720000D02*
X5831000Y-41920000D01*
G75*
G02*
X5780000Y-41971000I-51000J0D01*
G01*
X3580000Y-41971000D01*
G75*
G02*
X3529000Y-41920000I0J51000D01*
G01*
X3529000Y-39720000D01*
G75*
G02*
X3580000Y-39669000I51000J0D01*
G01*
X5780000Y-39669000D01*
G75*
G02*
X5831000Y-39720000I0J-51000D01*
G01*
G37*
D23*
X-5480000Y-40820000D03*
G36*
G01*
X-2150000Y-32814000D02*
X1350000Y-32814000D01*
G75*
G02*
X1401000Y-32865000I0J-51000D01*
G01*
X1401000Y-36365000D01*
G75*
G02*
X1350000Y-36416000I-51000J0D01*
G01*
X-2150000Y-36416000D01*
G75*
G02*
X-2201000Y-36365000I0J51000D01*
G01*
X-2201000Y-32865000D01*
G75*
G02*
X-2150000Y-32814000I51000J0D01*
G01*
G37*
G36*
G01*
X-1425500Y-27064000D02*
X625500Y-27064000D01*
G75*
G02*
X1401000Y-27839500I0J-775500D01*
G01*
X1401000Y-29390500D01*
G75*
G02*
X625500Y-30166000I-775500J0D01*
G01*
X-1425500Y-30166000D01*
G75*
G02*
X-2201000Y-29390500I0J775500D01*
G01*
X-2201000Y-27839500D01*
G75*
G02*
X-1425500Y-27064000I775500J0D01*
G01*
G37*
G36*
G01*
X-6000500Y-29814000D02*
X-4199500Y-29814000D01*
G75*
G02*
X-3299000Y-30714500I0J-900500D01*
G01*
X-3299000Y-32515500D01*
G75*
G02*
X-4199500Y-33416000I-900500J0D01*
G01*
X-6000500Y-33416000D01*
G75*
G02*
X-6901000Y-32515500I0J900500D01*
G01*
X-6901000Y-30714500D01*
G75*
G02*
X-6000500Y-29814000I900500J0D01*
G01*
G37*
D11*
X79670000Y-32680000D03*
D14*
X79670000Y-40300000D03*
G36*
G01*
X195259000Y-40150000D02*
X195259000Y-38550000D01*
G75*
G02*
X195310000Y-38499000I51000J0D01*
G01*
X196910000Y-38499000D01*
G75*
G02*
X196961000Y-38550000I0J-51000D01*
G01*
X196961000Y-40150000D01*
G75*
G02*
X196910000Y-40201000I-51000J0D01*
G01*
X195310000Y-40201000D01*
G75*
G02*
X195259000Y-40150000I0J51000D01*
G01*
G37*
X198610000Y-39350000D03*
X113300000Y-61110000D03*
D11*
X120920000Y-61110000D03*
G36*
G01*
X185000000Y-135351000D02*
X183300000Y-135351000D01*
G75*
G02*
X183249000Y-135300000I0J51000D01*
G01*
X183249000Y-133600000D01*
G75*
G02*
X183300000Y-133549000I51000J0D01*
G01*
X185000000Y-133549000D01*
G75*
G02*
X185051000Y-133600000I0J-51000D01*
G01*
X185051000Y-135300000D01*
G75*
G02*
X185000000Y-135351000I-51000J0D01*
G01*
G37*
D12*
X184150000Y-136990000D03*
X186690000Y-134450000D03*
X186690000Y-136990000D03*
G36*
G01*
X24179000Y-28630000D02*
X24179000Y-26630000D01*
G75*
G02*
X24230000Y-26579000I51000J0D01*
G01*
X26230000Y-26579000D01*
G75*
G02*
X26281000Y-26630000I0J-51000D01*
G01*
X26281000Y-28630000D01*
G75*
G02*
X26230000Y-28681000I-51000J0D01*
G01*
X24230000Y-28681000D01*
G75*
G02*
X24179000Y-28630000I0J51000D01*
G01*
G37*
D15*
X30230000Y-27630000D03*
D14*
X176544000Y-114580000D03*
X179044000Y-114580000D03*
X204604000Y-114580000D03*
X202104000Y-114580000D03*
X196444000Y-114580000D03*
X198944000Y-114580000D03*
X191784000Y-114580000D03*
X189284000Y-114580000D03*
X159557000Y-47520000D03*
X162057000Y-47520000D03*
X174470000Y-47520000D03*
X176970000Y-47520000D03*
X193610000Y-47520000D03*
X191110000Y-47520000D03*
X205843000Y-47520000D03*
X203343000Y-47520000D03*
X27337000Y-52590000D03*
X27337000Y-50090000D03*
X32417000Y-50090000D03*
X32417000Y-52590000D03*
X37497000Y-52590000D03*
X37497000Y-50090000D03*
X42577000Y-52590000D03*
X42577000Y-50090000D03*
X47457000Y-50090000D03*
X47457000Y-52590000D03*
X50197000Y-50090000D03*
X50197000Y-52590000D03*
X59200000Y-41240000D03*
X59200000Y-38740000D03*
X55890000Y-41240000D03*
X55890000Y-38740000D03*
X74390000Y-24570000D03*
X71890000Y-24570000D03*
D24*
X43885000Y-26030000D03*
X42885000Y-34530000D03*
G36*
G01*
X37685000Y-31979000D02*
X39085000Y-31979000D01*
G75*
G02*
X39136000Y-32030000I0J-51000D01*
G01*
X39136000Y-34030000D01*
G75*
G02*
X39085000Y-34081000I-51000J0D01*
G01*
X37685000Y-34081000D01*
G75*
G02*
X37634000Y-34030000I0J51000D01*
G01*
X37634000Y-32030000D01*
G75*
G02*
X37685000Y-31979000I51000J0D01*
G01*
G37*
X38385000Y-29030000D03*
X38385000Y-26030000D03*
D25*
X40685000Y-27330000D03*
X40685000Y-34330000D03*
D12*
X55800000Y-33330000D03*
X53260000Y-33330000D03*
G36*
G01*
X51570000Y-34231000D02*
X49870000Y-34231000D01*
G75*
G02*
X49819000Y-34180000I0J51000D01*
G01*
X49819000Y-32480000D01*
G75*
G02*
X49870000Y-32429000I51000J0D01*
G01*
X51570000Y-32429000D01*
G75*
G02*
X51621000Y-32480000I0J-51000D01*
G01*
X51621000Y-34180000D01*
G75*
G02*
X51570000Y-34231000I-51000J0D01*
G01*
G37*
G36*
G01*
X51570000Y-31311000D02*
X49870000Y-31311000D01*
G75*
G02*
X49819000Y-31260000I0J51000D01*
G01*
X49819000Y-29560000D01*
G75*
G02*
X49870000Y-29509000I51000J0D01*
G01*
X51570000Y-29509000D01*
G75*
G02*
X51621000Y-29560000I0J-51000D01*
G01*
X51621000Y-31260000D01*
G75*
G02*
X51570000Y-31311000I-51000J0D01*
G01*
G37*
X53260000Y-30410000D03*
X55800000Y-30410000D03*
X55800000Y-27490000D03*
X53260000Y-27490000D03*
G36*
G01*
X51570000Y-28391000D02*
X49870000Y-28391000D01*
G75*
G02*
X49819000Y-28340000I0J51000D01*
G01*
X49819000Y-26640000D01*
G75*
G02*
X49870000Y-26589000I51000J0D01*
G01*
X51570000Y-26589000D01*
G75*
G02*
X51621000Y-26640000I0J-51000D01*
G01*
X51621000Y-28340000D01*
G75*
G02*
X51570000Y-28391000I-51000J0D01*
G01*
G37*
G36*
G01*
X51570000Y-25471000D02*
X49870000Y-25471000D01*
G75*
G02*
X49819000Y-25420000I0J51000D01*
G01*
X49819000Y-23720000D01*
G75*
G02*
X49870000Y-23669000I51000J0D01*
G01*
X51570000Y-23669000D01*
G75*
G02*
X51621000Y-23720000I0J-51000D01*
G01*
X51621000Y-25420000D01*
G75*
G02*
X51570000Y-25471000I-51000J0D01*
G01*
G37*
X53260000Y-24570000D03*
X55800000Y-24570000D03*
D26*
X57600000Y-46850000D03*
X58870000Y-46850000D03*
G36*
G01*
X55754000Y-47600000D02*
X55754000Y-46100000D01*
G75*
G02*
X55805000Y-46049000I51000J0D01*
G01*
X56855000Y-46049000D01*
G75*
G02*
X56906000Y-46100000I0J-51000D01*
G01*
X56906000Y-47600000D01*
G75*
G02*
X56855000Y-47651000I-51000J0D01*
G01*
X55805000Y-47651000D01*
G75*
G02*
X55754000Y-47600000I0J51000D01*
G01*
G37*
D14*
X35227500Y-47050000D03*
D11*
X35227500Y-39430000D03*
D14*
X44347500Y-47050000D03*
D11*
X44347500Y-39430000D03*
X26107500Y-39430000D03*
D14*
X26107500Y-47050000D03*
D11*
X50427500Y-47050000D03*
D14*
X50427500Y-39430000D03*
X29147500Y-47050000D03*
D11*
X29147500Y-39430000D03*
X32187500Y-47050000D03*
D14*
X32187500Y-39430000D03*
D11*
X47387500Y-39430000D03*
D14*
X47387500Y-47050000D03*
D11*
X41307500Y-47050000D03*
D14*
X41307500Y-39430000D03*
D11*
X38267500Y-47050000D03*
D14*
X38267500Y-39430000D03*
G36*
G01*
X60359000Y-25370000D02*
X60359000Y-23770000D01*
G75*
G02*
X60410000Y-23719000I51000J0D01*
G01*
X62010000Y-23719000D01*
G75*
G02*
X62061000Y-23770000I0J-51000D01*
G01*
X62061000Y-25370000D01*
G75*
G02*
X62010000Y-25421000I-51000J0D01*
G01*
X60410000Y-25421000D01*
G75*
G02*
X60359000Y-25370000I0J51000D01*
G01*
G37*
D11*
X68830000Y-32190000D03*
X61210000Y-27110000D03*
X68830000Y-29650000D03*
X61210000Y-29650000D03*
X68830000Y-27110000D03*
X61210000Y-32190000D03*
X68830000Y-24570000D03*
G36*
G01*
X26486000Y-56430000D02*
X26486000Y-54830000D01*
G75*
G02*
X26537000Y-54779000I51000J0D01*
G01*
X28137000Y-54779000D01*
G75*
G02*
X28188000Y-54830000I0J-51000D01*
G01*
X28188000Y-56430000D01*
G75*
G02*
X28137000Y-56481000I-51000J0D01*
G01*
X26537000Y-56481000D01*
G75*
G02*
X26486000Y-56430000I0J51000D01*
G01*
G37*
X29877000Y-55630000D03*
X32417000Y-55630000D03*
X34957000Y-55630000D03*
X37497000Y-55630000D03*
X40037000Y-55630000D03*
X42577000Y-55630000D03*
X45117000Y-55630000D03*
X47657000Y-55630000D03*
X50197000Y-55630000D03*
G36*
G01*
X2374000Y-54441000D02*
X674000Y-54441000D01*
G75*
G02*
X623000Y-54390000I0J51000D01*
G01*
X623000Y-52690000D01*
G75*
G02*
X674000Y-52639000I51000J0D01*
G01*
X2374000Y-52639000D01*
G75*
G02*
X2425000Y-52690000I0J-51000D01*
G01*
X2425000Y-54390000D01*
G75*
G02*
X2374000Y-54441000I-51000J0D01*
G01*
G37*
D12*
X4064000Y-53540000D03*
X6604000Y-53540000D03*
X17780000Y-53540000D03*
X15240000Y-53540000D03*
G36*
G01*
X13550000Y-54441000D02*
X11850000Y-54441000D01*
G75*
G02*
X11799000Y-54390000I0J51000D01*
G01*
X11799000Y-52690000D01*
G75*
G02*
X11850000Y-52639000I51000J0D01*
G01*
X13550000Y-52639000D01*
G75*
G02*
X13601000Y-52690000I0J-51000D01*
G01*
X13601000Y-54390000D01*
G75*
G02*
X13550000Y-54441000I-51000J0D01*
G01*
G37*
G36*
G01*
X46189000Y-95790000D02*
X46189000Y-94190000D01*
G75*
G02*
X46240000Y-94139000I51000J0D01*
G01*
X47840000Y-94139000D01*
G75*
G02*
X47891000Y-94190000I0J-51000D01*
G01*
X47891000Y-95790000D01*
G75*
G02*
X47840000Y-95841000I-51000J0D01*
G01*
X46240000Y-95841000D01*
G75*
G02*
X46189000Y-95790000I0J51000D01*
G01*
G37*
D11*
X62280000Y-128010000D03*
X47040000Y-97530000D03*
X62280000Y-125470000D03*
X47040000Y-100070000D03*
X62280000Y-122930000D03*
X47040000Y-102610000D03*
X62280000Y-120390000D03*
X47040000Y-105150000D03*
X62280000Y-117850000D03*
X47040000Y-107690000D03*
X62280000Y-115310000D03*
X47040000Y-110230000D03*
X62280000Y-112770000D03*
X47040000Y-112770000D03*
X62280000Y-110230000D03*
X47040000Y-115310000D03*
X62280000Y-107690000D03*
X47040000Y-117850000D03*
X62280000Y-105150000D03*
X47040000Y-120390000D03*
X62280000Y-102610000D03*
X47040000Y-122930000D03*
X62280000Y-100070000D03*
X47040000Y-125470000D03*
X62280000Y-97530000D03*
X47040000Y-128010000D03*
X62280000Y-94990000D03*
G36*
G01*
X10286500Y-76310000D02*
X10286500Y-74610000D01*
G75*
G02*
X10337500Y-74559000I51000J0D01*
G01*
X12037500Y-74559000D01*
G75*
G02*
X12088500Y-74610000I0J-51000D01*
G01*
X12088500Y-76310000D01*
G75*
G02*
X12037500Y-76361000I-51000J0D01*
G01*
X10337500Y-76361000D01*
G75*
G02*
X10286500Y-76310000I0J51000D01*
G01*
G37*
D12*
X8647500Y-75460000D03*
X11187500Y-78000000D03*
X8647500Y-78000000D03*
X11187500Y-80540000D03*
X8647500Y-80540000D03*
X11187500Y-83080000D03*
X8647500Y-83080000D03*
X11187500Y-85620000D03*
X8647500Y-85620000D03*
X11187500Y-88160000D03*
X8647500Y-88160000D03*
X11187500Y-90700000D03*
X8647500Y-90700000D03*
X11187500Y-93240000D03*
X8647500Y-93240000D03*
X11187500Y-95780000D03*
X8647500Y-95780000D03*
X11187500Y-98320000D03*
X8647500Y-98320000D03*
X11187500Y-100860000D03*
X8647500Y-100860000D03*
X11187500Y-103400000D03*
X8647500Y-103400000D03*
X11187500Y-105940000D03*
X8647500Y-105940000D03*
X11187500Y-108480000D03*
X8647500Y-108480000D03*
X11187500Y-111020000D03*
X8647500Y-111020000D03*
X11187500Y-113560000D03*
X8647500Y-113560000D03*
X28855001Y-113560000D03*
X31395001Y-113560000D03*
X28855001Y-111020000D03*
X31395001Y-111020000D03*
X28855001Y-108480000D03*
X31395001Y-108480000D03*
X28855001Y-105940000D03*
X31395001Y-105940000D03*
X28855001Y-103400000D03*
X31395001Y-103400000D03*
X28855001Y-100860000D03*
X31395001Y-100860000D03*
X28855001Y-98320000D03*
X31395001Y-98320000D03*
X28855001Y-95780000D03*
X31395001Y-95780000D03*
X28855001Y-93240000D03*
X31395001Y-93240000D03*
X28855001Y-90700000D03*
X31395001Y-90700000D03*
X28855001Y-88160000D03*
X31395001Y-88160000D03*
X28855001Y-85620000D03*
X31395001Y-85620000D03*
X28855001Y-83080000D03*
X31395001Y-83080000D03*
X28855001Y-80540000D03*
X31395001Y-80540000D03*
X28855001Y-78000000D03*
X31395001Y-78000000D03*
X28855001Y-75460000D03*
G36*
G01*
X30494001Y-76310000D02*
X30494001Y-74610000D01*
G75*
G02*
X30545001Y-74559000I51000J0D01*
G01*
X32245001Y-74559000D01*
G75*
G02*
X32296001Y-74610000I0J-51000D01*
G01*
X32296001Y-76310000D01*
G75*
G02*
X32245001Y-76361000I-51000J0D01*
G01*
X30545001Y-76361000D01*
G75*
G02*
X30494001Y-76310000I0J51000D01*
G01*
G37*
G36*
G01*
X211480000Y-70176000D02*
X209780000Y-70176000D01*
G75*
G02*
X209729000Y-70125000I0J51000D01*
G01*
X209729000Y-68425000D01*
G75*
G02*
X209780000Y-68374000I51000J0D01*
G01*
X211480000Y-68374000D01*
G75*
G02*
X211531000Y-68425000I0J-51000D01*
G01*
X211531000Y-70125000D01*
G75*
G02*
X211480000Y-70176000I-51000J0D01*
G01*
G37*
X213170000Y-69275000D03*
X215710000Y-69275000D03*
G36*
G01*
X217115000Y-143065000D02*
X217115000Y-144765000D01*
G75*
G02*
X217064000Y-144816000I-51000J0D01*
G01*
X215364000Y-144816000D01*
G75*
G02*
X215313000Y-144765000I0J51000D01*
G01*
X215313000Y-143065000D01*
G75*
G02*
X215364000Y-143014000I51000J0D01*
G01*
X217064000Y-143014000D01*
G75*
G02*
X217115000Y-143065000I0J-51000D01*
G01*
G37*
X216214000Y-141375000D03*
D16*
X65320000Y-50875000D03*
X75320000Y-53375000D03*
X65320000Y-55875000D03*
G36*
G01*
X4604000Y-139080000D02*
X4604000Y-137380000D01*
G75*
G02*
X4655000Y-137329000I51000J0D01*
G01*
X6355000Y-137329000D01*
G75*
G02*
X6406000Y-137380000I0J-51000D01*
G01*
X6406000Y-139080000D01*
G75*
G02*
X6355000Y-139131000I-51000J0D01*
G01*
X4655000Y-139131000D01*
G75*
G02*
X4604000Y-139080000I0J51000D01*
G01*
G37*
D12*
X5505000Y-140770000D03*
G36*
G01*
X2064000Y-139080000D02*
X2064000Y-137380000D01*
G75*
G02*
X2115000Y-137329000I51000J0D01*
G01*
X3815000Y-137329000D01*
G75*
G02*
X3866000Y-137380000I0J-51000D01*
G01*
X3866000Y-139080000D01*
G75*
G02*
X3815000Y-139131000I-51000J0D01*
G01*
X2115000Y-139131000D01*
G75*
G02*
X2064000Y-139080000I0J51000D01*
G01*
G37*
X2965000Y-140770000D03*
X8045000Y-140770000D03*
G36*
G01*
X7144000Y-139080000D02*
X7144000Y-137380000D01*
G75*
G02*
X7195000Y-137329000I51000J0D01*
G01*
X8895000Y-137329000D01*
G75*
G02*
X8946000Y-137380000I0J-51000D01*
G01*
X8946000Y-139080000D01*
G75*
G02*
X8895000Y-139131000I-51000J0D01*
G01*
X7195000Y-139131000D01*
G75*
G02*
X7144000Y-139080000I0J51000D01*
G01*
G37*
G36*
G01*
X8780000Y-161801000D02*
X7080000Y-161801000D01*
G75*
G02*
X7029000Y-161750000I0J51000D01*
G01*
X7029000Y-160050000D01*
G75*
G02*
X7080000Y-159999000I51000J0D01*
G01*
X8780000Y-159999000D01*
G75*
G02*
X8831000Y-160050000I0J-51000D01*
G01*
X8831000Y-161750000D01*
G75*
G02*
X8780000Y-161801000I-51000J0D01*
G01*
G37*
X7930000Y-163440000D03*
X10470000Y-160900000D03*
X10470000Y-163440000D03*
X13010000Y-160900000D03*
X13010000Y-163440000D03*
X15550000Y-160900000D03*
X15550000Y-163440000D03*
G36*
G01*
X13975000Y-141671000D02*
X12275000Y-141671000D01*
G75*
G02*
X12224000Y-141620000I0J51000D01*
G01*
X12224000Y-139920000D01*
G75*
G02*
X12275000Y-139869000I51000J0D01*
G01*
X13975000Y-139869000D01*
G75*
G02*
X14026000Y-139920000I0J-51000D01*
G01*
X14026000Y-141620000D01*
G75*
G02*
X13975000Y-141671000I-51000J0D01*
G01*
G37*
X13125000Y-138230000D03*
X15665000Y-140770000D03*
X15665000Y-138230000D03*
X18205000Y-140770000D03*
X18205000Y-138230000D03*
X20745000Y-140770000D03*
X20745000Y-138230000D03*
X23285000Y-140770000D03*
X23285000Y-138230000D03*
X29670000Y-140770000D03*
X29670000Y-138230000D03*
X27130000Y-140770000D03*
G36*
G01*
X27980000Y-139131000D02*
X26280000Y-139131000D01*
G75*
G02*
X26229000Y-139080000I0J51000D01*
G01*
X26229000Y-137380000D01*
G75*
G02*
X26280000Y-137329000I51000J0D01*
G01*
X27980000Y-137329000D01*
G75*
G02*
X28031000Y-137380000I0J-51000D01*
G01*
X28031000Y-139080000D01*
G75*
G02*
X27980000Y-139131000I-51000J0D01*
G01*
G37*
G36*
G01*
X14815000Y-128269000D02*
X16515000Y-128269000D01*
G75*
G02*
X16566000Y-128320000I0J-51000D01*
G01*
X16566000Y-130020000D01*
G75*
G02*
X16515000Y-130071000I-51000J0D01*
G01*
X14815000Y-130071000D01*
G75*
G02*
X14764000Y-130020000I0J51000D01*
G01*
X14764000Y-128320000D01*
G75*
G02*
X14815000Y-128269000I51000J0D01*
G01*
G37*
X13125000Y-129170000D03*
X10585000Y-129170000D03*
X8045000Y-129170000D03*
X5505000Y-129170000D03*
X2965000Y-129170000D03*
G36*
G01*
X25590000Y-165811000D02*
X23890000Y-165811000D01*
G75*
G02*
X23839000Y-165760000I0J51000D01*
G01*
X23839000Y-164060000D01*
G75*
G02*
X23890000Y-164009000I51000J0D01*
G01*
X25590000Y-164009000D01*
G75*
G02*
X25641000Y-164060000I0J-51000D01*
G01*
X25641000Y-165760000D01*
G75*
G02*
X25590000Y-165811000I-51000J0D01*
G01*
G37*
X27280000Y-164910000D03*
X29820000Y-164910000D03*
X32360000Y-164910000D03*
X34900000Y-164910000D03*
X37440000Y-164910000D03*
X39980000Y-164910000D03*
X42520000Y-164910000D03*
X45060000Y-164910000D03*
X47600000Y-164910000D03*
X50140000Y-164910000D03*
X52680000Y-164910000D03*
G36*
G01*
X61150000Y-165811000D02*
X59450000Y-165811000D01*
G75*
G02*
X59399000Y-165760000I0J51000D01*
G01*
X59399000Y-164060000D01*
G75*
G02*
X59450000Y-164009000I51000J0D01*
G01*
X61150000Y-164009000D01*
G75*
G02*
X61201000Y-164060000I0J-51000D01*
G01*
X61201000Y-165760000D01*
G75*
G02*
X61150000Y-165811000I-51000J0D01*
G01*
G37*
X62840000Y-164910000D03*
X65380000Y-164910000D03*
X67920000Y-164910000D03*
X70460000Y-164910000D03*
X73000000Y-164910000D03*
X75540000Y-164910000D03*
X78080000Y-164910000D03*
X80620000Y-164910000D03*
X83160000Y-164910000D03*
X85700000Y-164910000D03*
X88240000Y-164910000D03*
G36*
G01*
X4417500Y-65076000D02*
X2717500Y-65076000D01*
G75*
G02*
X2666500Y-65025000I0J51000D01*
G01*
X2666500Y-63325000D01*
G75*
G02*
X2717500Y-63274000I51000J0D01*
G01*
X4417500Y-63274000D01*
G75*
G02*
X4468500Y-63325000I0J-51000D01*
G01*
X4468500Y-65025000D01*
G75*
G02*
X4417500Y-65076000I-51000J0D01*
G01*
G37*
X3567500Y-66715000D03*
X6107500Y-64175000D03*
X6107500Y-66715000D03*
X8647500Y-64175000D03*
X8647500Y-66715000D03*
X11187500Y-64175000D03*
X11187500Y-66715000D03*
X13727500Y-64175000D03*
X13727500Y-66715000D03*
X16267500Y-64175000D03*
X16267500Y-66715000D03*
X18807500Y-64175000D03*
X18807500Y-66715000D03*
X30670000Y-64175000D03*
X28130000Y-64175000D03*
G36*
G01*
X26440000Y-65076000D02*
X24740000Y-65076000D01*
G75*
G02*
X24689000Y-65025000I0J51000D01*
G01*
X24689000Y-63325000D01*
G75*
G02*
X24740000Y-63274000I51000J0D01*
G01*
X26440000Y-63274000D01*
G75*
G02*
X26491000Y-63325000I0J-51000D01*
G01*
X26491000Y-65025000D01*
G75*
G02*
X26440000Y-65076000I-51000J0D01*
G01*
G37*
G36*
G01*
X26440000Y-67616000D02*
X24740000Y-67616000D01*
G75*
G02*
X24689000Y-67565000I0J51000D01*
G01*
X24689000Y-65865000D01*
G75*
G02*
X24740000Y-65814000I51000J0D01*
G01*
X26440000Y-65814000D01*
G75*
G02*
X26491000Y-65865000I0J-51000D01*
G01*
X26491000Y-67565000D01*
G75*
G02*
X26440000Y-67616000I-51000J0D01*
G01*
G37*
X28130000Y-66715000D03*
X30670000Y-66715000D03*
M02*
