M48
; DRILL file {KiCad (5.1.9)-1} date 05/10/23 17:14:51
; FORMAT={-:-/ absolute / metric / decimal}
; #@! TF.CreationDate,2023-05-10T17:14:51+01:00
; #@! TF.GenerationSoftware,Kicad,Pcbnew,(5.1.9)-1
; #@! TF.FileFunction,Plated,1,2,PTH
FMAT,2
METRIC
T1C0.400
T2C0.508
T3C0.600
T4C0.750
T5C0.800
T6C0.900
T7C1.000
T8C1.100
T9C1.300
T10C3.000
%
G90
G05
T1
X104.874Y-138.891
X105.675Y-156.31
X106.512Y-153.94
X106.695Y-135.93
X106.817Y-151.5
X106.925Y-148.83
X106.995Y-141.05
X106.995Y-146.18
X107.968Y-162.925
X107.968Y-172.15
X108.272Y-161.875
X108.665Y-160.75
X108.665Y-172.925
X109.331Y-174.034
X109.336Y-134.89
X109.575Y-127.27
X110.015Y-174.875
X110.69Y-175.85
X112.105Y-129.81
X112.268Y-176.666
X113.515Y-111.1
X113.515Y-112.575
X114.315Y-137.425
X114.715Y-139.975
X114.865Y-132.25
X114.965Y-130.9
X115.065Y-125.925
X115.065Y-128.275
X115.105Y-158.56
X115.162Y-133.967
X116.505Y-209.09
X116.615Y-111.898
X118.965Y-99.55
X119.865Y-173.3
X121.04Y-173.125
X123.665Y-175.825
X124.415Y-101.462
X125.99Y-177.65
X126.89Y-164.3
X128.015Y-185.425
X128.74Y-177.625
X129.44Y-164.496
X130.117Y-113.155
X132.165Y-97.825
X133.815Y-177.275
X136.14Y-162.45
X136.88Y-175.551
X137.209Y-112.394
X139.065Y-112.5
X139.215Y-187.475
X140.765Y-100.075
X143.74Y-160.425
X143.815Y-100.125
X149.215Y-120.3
X149.394Y-183.85
X149.503Y-175.374
X150.915Y-153.075
X153.74Y-133.05
X154.136Y-153.18
X155.265Y-164.975
X164.795Y-131.98
X166.94Y-169.054
X168.79Y-169.1
X174.09Y-176.7
X180.655Y-79.39
X181.645Y-83.43
X187.965Y-108.125
X200.79Y-139.6
X201.645Y-91.44
X201.645Y-110.59
X202.106Y-186.737
X202.144Y-160.52
X202.144Y-180.529
X202.455Y-92.2
X202.455Y-111.39
X202.771Y-157.791
X202.772Y-179.407
X203.245Y-93.29
X203.245Y-112.16
X203.44Y-186.2
X203.483Y-155.075
X203.907Y-185.125
X204.172Y-94.543
X204.219Y-112.98
X204.219Y-138.11
X204.219Y-152.92
X204.811Y-93.753
X204.845Y-150.01
X204.867Y-113.678
X204.89Y-170.825
X204.89Y-184.762
X205.645Y-114.57
X205.645Y-148.82
X205.655Y-95.3
X206.194Y-174.117
X206.29Y-180.5
X206.455Y-94.71
X206.455Y-115.39
X206.485Y-146.79
X207.235Y-95.34
X207.365Y-142.65
X207.379Y-116.285
X207.465Y-159.55
X207.554Y-180.509
X208.045Y-117.0
X208.045Y-146.88
X208.065Y-95.84
X208.14Y-162.1
X208.563Y-181.461
X208.845Y-96.89
X208.845Y-117.77
X208.887Y-148.734
X209.215Y-164.575
X209.601Y-123.921
X209.625Y-97.82
X209.645Y-118.58
X209.645Y-154.45
X209.674Y-181.899
X210.282Y-149.34
X210.34Y-167.35
X210.435Y-97.11
X210.445Y-121.6
X210.445Y-124.76
X210.911Y-182.203
X211.235Y-97.9
X211.245Y-107.33
X211.245Y-140.21
X211.848Y-182.553
X211.915Y-169.65
X212.045Y-108.74
X212.045Y-113.05
X212.045Y-141.72
X212.065Y-97.35
X212.447Y-168.175
X212.508Y-163.5
X212.676Y-165.375
X212.813Y-132.31
X212.836Y-98.111
X212.836Y-109.77
X212.939Y-184.003
X213.376Y-184.871
X213.465Y-110.525
X213.675Y-97.56
X214.09Y-177.4
X214.211Y-186.125
X214.274Y-105.467
X214.276Y-187.078
X214.313Y-172.925
X214.69Y-104.61
X215.24Y-157.775
X215.476Y-103.469
X216.165Y-190.85
X216.555Y-81.755
X216.579Y-103.036
X217.144Y-139.615
X217.184Y-80.803
X217.296Y-102.319
X217.833Y-117.519
X218.197Y-127.858
X218.452Y-121.42
X218.455Y-101.55
X219.076Y-110.589
X219.125Y-80.84
X219.284Y-100.911
X219.875Y-79.76
X220.045Y-100.15
X220.215Y-128.95
X220.319Y-123.223
X220.525Y-78.79
X220.845Y-99.503
X221.065Y-116.025
X221.165Y-109.96
X221.195Y-77.85
X221.565Y-108.325
X221.699Y-113.1
X221.881Y-123.1
X222.095Y-77.02
X222.19Y-175.25
X222.385Y-115.233
X222.835Y-76.339
X222.956Y-99.054
X222.985Y-82.93
X223.015Y-104.2
X223.015Y-177.4
X223.015Y-181.9
X223.975Y-119.42
X223.99Y-178.42
X223.995Y-111.5
X225.505Y-183.27
X225.652Y-156.95
X226.09Y-121.225
X226.855Y-175.829
X229.99Y-126.025
X231.39Y-126.5
X232.665Y-106.525
X232.915Y-122.0
X233.903Y-157.1
X233.99Y-158.375
X234.04Y-159.875
X234.115Y-161.05
X234.442Y-165.244
X234.499Y-166.195
X234.54Y-164.297
X234.811Y-161.9
X240.165Y-100.75
X240.715Y-125.04
X244.565Y-80.02
X247.835Y-65.15
X248.404Y-78.92
X249.626Y-81.57
X256.565Y-115.475
X258.44Y-109.3
X259.445Y-105.754
X259.642Y-84.833
X259.74Y-112.625
X263.715Y-195.55
X264.172Y-99.518
X266.103Y-177.794
X279.165Y-88.48
X286.784Y-71.199
X287.64Y-165.2
X293.245Y-168.45
X306.18Y-167.295
X318.28Y-83.365
T2
X93.195Y-82.84
X100.49Y-172.9
X104.985Y-151.7
X110.09Y-103.35
X111.64Y-108.3
X113.69Y-209.275
X118.052Y-185.562
X126.79Y-102.679
X130.09Y-152.65
X144.14Y-111.075
X148.84Y-106.9
X149.715Y-144.95
X150.29Y-136.925
X152.675Y-183.815
X154.04Y-101.4
X161.465Y-112.725
X167.39Y-103.2
X196.69Y-187.925
X216.54Y-166.025
X216.94Y-174.2
X222.515Y-203.225
X227.555Y-126.1
X287.015Y-141.85
X287.04Y-148.975
X288.765Y-169.125
X291.815Y-174.85
X323.365Y-180.95
T4
X168.255Y-88.5
X169.525Y-88.5
X170.795Y-88.5
T5
X94.915Y-180.83
X94.925Y-187.18
X94.925Y-194.76
X95.175Y-161.86
X95.345Y-168.82
X95.345Y-171.36
X95.345Y-173.9
X95.345Y-176.44
X96.455Y-94.57
X96.455Y-109.81
X100.315Y-165.29
X102.535Y-180.83
X102.545Y-187.18
X102.545Y-194.76
X102.795Y-161.86
X102.815Y-165.29
X102.965Y-168.82
X102.965Y-171.36
X102.965Y-173.9
X102.965Y-176.44
X104.075Y-94.57
X104.075Y-109.81
X106.655Y-182.27
X106.655Y-184.77
X106.655Y-190.31
X109.155Y-190.31
X112.164Y-91.74
X119.145Y-67.415
X119.145Y-69.915
X119.784Y-91.74
X123.34Y-91.74
X130.96Y-91.74
X138.032Y-81.08
X138.032Y-88.7
X139.262Y-91.74
X139.262Y-94.24
X139.262Y-97.28
X141.072Y-81.08
X141.072Y-88.7
X141.802Y-97.28
X144.112Y-81.08
X144.112Y-88.7
X144.342Y-91.74
X144.342Y-94.24
X144.342Y-97.28
X146.882Y-97.28
X147.153Y-81.08
X147.153Y-88.7
X149.422Y-91.74
X149.422Y-94.24
X149.422Y-97.28
X150.192Y-81.08
X150.192Y-88.7
X151.905Y-106.46
X151.905Y-121.7
X151.905Y-179.92
X151.905Y-195.16
X151.962Y-97.28
X153.232Y-81.08
X153.232Y-88.7
X154.445Y-106.46
X154.445Y-121.7
X154.445Y-179.92
X154.445Y-195.16
X154.502Y-91.74
X154.502Y-94.24
X154.502Y-97.28
X156.272Y-81.08
X156.272Y-88.7
X156.985Y-106.46
X156.985Y-121.7
X156.985Y-179.92
X156.985Y-195.16
X157.042Y-97.28
X159.312Y-81.08
X159.312Y-88.7
X159.382Y-91.74
X159.382Y-94.24
X159.525Y-106.46
X159.525Y-121.7
X159.525Y-179.92
X159.525Y-195.16
X159.582Y-97.28
X162.065Y-106.46
X162.065Y-121.7
X162.065Y-179.92
X162.065Y-195.16
X162.122Y-91.74
X162.122Y-94.24
X162.122Y-97.28
X162.352Y-81.08
X162.352Y-88.7
X164.605Y-106.46
X164.605Y-121.7
X164.605Y-179.92
X164.605Y-195.16
X167.145Y-106.46
X167.145Y-121.7
X167.145Y-179.92
X167.145Y-195.16
X167.815Y-80.39
X167.815Y-82.89
X169.685Y-106.46
X169.685Y-121.7
X169.685Y-179.92
X169.685Y-195.16
X171.125Y-80.39
X171.125Y-82.89
X172.225Y-106.46
X172.225Y-121.7
X172.225Y-179.92
X172.225Y-195.16
X173.135Y-66.22
X173.135Y-68.76
X173.135Y-71.3
X173.135Y-73.84
X174.765Y-106.46
X174.765Y-121.7
X174.765Y-179.92
X174.765Y-195.16
X177.305Y-106.46
X177.305Y-121.7
X177.305Y-179.92
X177.305Y-195.16
X179.845Y-106.46
X179.845Y-121.7
X179.845Y-179.92
X179.845Y-195.16
X179.997Y-127.502
X180.755Y-66.22
X180.755Y-68.76
X180.755Y-71.3
X180.755Y-73.84
X181.895Y-133.71
X181.985Y-136.64
X181.985Y-139.18
X181.985Y-141.72
X181.985Y-144.26
X181.985Y-146.8
X181.985Y-149.34
X181.985Y-151.88
X181.985Y-154.42
X181.985Y-156.96
X181.985Y-159.5
X181.985Y-162.04
X181.985Y-164.58
X181.985Y-167.12
X181.985Y-169.66
X182.385Y-106.46
X182.385Y-121.7
X182.385Y-179.92
X182.385Y-195.16
X182.497Y-127.502
X183.815Y-66.22
X184.395Y-133.71
X184.925Y-106.46
X184.925Y-121.7
X184.925Y-179.92
X184.925Y-195.16
X186.315Y-66.22
X187.465Y-106.46
X187.465Y-121.7
X187.465Y-179.92
X187.465Y-195.16
X190.005Y-106.46
X190.005Y-121.7
X190.005Y-179.92
X190.005Y-195.16
X191.595Y-74.33
X191.595Y-81.95
X192.545Y-106.46
X192.545Y-121.7
X192.545Y-179.92
X192.545Y-195.16
X195.085Y-106.46
X195.085Y-121.7
X195.085Y-179.92
X195.085Y-195.16
X197.225Y-136.64
X197.225Y-139.18
X197.225Y-141.72
X197.225Y-144.26
X197.225Y-146.8
X197.225Y-149.34
X197.225Y-151.88
X197.225Y-154.42
X197.225Y-156.96
X197.225Y-159.5
X197.225Y-162.04
X197.225Y-164.58
X197.225Y-167.12
X197.225Y-169.66
X197.275Y-133.67
X197.625Y-106.46
X197.625Y-121.7
X197.625Y-179.92
X197.625Y-195.16
X197.665Y-198.99
X199.775Y-133.67
X200.165Y-106.46
X200.165Y-121.7
X200.165Y-179.92
X200.165Y-195.16
X200.165Y-198.99
X205.725Y-73.62
X205.725Y-88.86
X208.265Y-73.62
X208.265Y-88.86
X210.805Y-73.62
X210.805Y-88.86
X213.345Y-73.62
X213.345Y-88.86
X215.885Y-73.62
X215.885Y-88.86
X218.425Y-73.62
X218.425Y-88.86
X220.965Y-73.62
X220.965Y-88.86
X223.505Y-73.62
X223.505Y-88.86
X225.225Y-102.76
X226.045Y-73.62
X226.045Y-88.86
X227.645Y-106.73
X227.645Y-109.27
X227.645Y-111.81
X227.645Y-114.35
X227.645Y-116.89
X227.645Y-119.43
X227.645Y-121.97
X227.645Y-178.46
X227.645Y-193.7
X227.805Y-198.99
X228.585Y-73.62
X228.585Y-88.86
X230.185Y-178.46
X230.185Y-193.7
X230.305Y-198.99
X231.125Y-73.62
X231.125Y-88.86
X232.725Y-178.46
X232.725Y-193.7
X232.845Y-102.76
X233.665Y-73.62
X233.665Y-88.86
X235.265Y-106.73
X235.265Y-109.27
X235.265Y-111.81
X235.265Y-114.35
X235.265Y-116.89
X235.265Y-119.43
X235.265Y-121.97
X235.265Y-178.46
X235.265Y-193.7
X235.285Y-102.76
X236.205Y-73.62
X236.205Y-88.86
X237.785Y-102.76
X237.805Y-178.46
X237.805Y-193.7
X238.745Y-73.62
X238.745Y-88.86
X239.045Y-127.06
X239.045Y-134.68
X239.045Y-139.877
X239.045Y-147.497
X239.045Y-152.693
X239.045Y-160.313
X239.045Y-165.51
X239.045Y-173.13
X240.345Y-178.46
X240.345Y-193.7
X240.965Y-106.73
X240.965Y-109.27
X240.965Y-111.81
X240.965Y-114.35
X240.965Y-116.89
X240.965Y-119.43
X240.965Y-121.97
X241.285Y-73.62
X241.285Y-88.86
X241.585Y-127.06
X241.585Y-134.68
X241.585Y-139.877
X241.585Y-147.497
X241.585Y-152.693
X241.585Y-160.313
X241.585Y-165.51
X241.585Y-173.13
X242.885Y-178.46
X242.885Y-193.7
X243.825Y-73.62
X243.825Y-88.86
X244.125Y-127.06
X244.125Y-134.68
X244.125Y-139.877
X244.125Y-147.497
X244.125Y-152.693
X244.125Y-160.313
X244.125Y-165.51
X244.125Y-173.13
X245.425Y-178.46
X245.425Y-193.7
X246.365Y-73.62
X246.365Y-88.86
X246.665Y-127.06
X246.665Y-134.68
X246.665Y-139.877
X246.665Y-147.497
X246.665Y-152.693
X246.665Y-160.313
X246.665Y-165.51
X246.665Y-173.13
X247.965Y-178.46
X247.965Y-193.7
X248.585Y-106.73
X248.585Y-109.27
X248.585Y-111.81
X248.585Y-114.35
X248.585Y-116.89
X248.585Y-119.43
X248.585Y-121.97
X248.905Y-73.62
X248.905Y-88.86
X249.205Y-127.06
X249.205Y-134.68
X249.205Y-139.877
X249.205Y-147.497
X249.205Y-152.693
X249.205Y-160.313
X249.205Y-165.51
X249.205Y-173.13
X250.505Y-178.46
X250.505Y-193.7
X250.985Y-102.76
X251.445Y-73.62
X251.445Y-88.86
X251.745Y-127.06
X251.745Y-134.68
X251.745Y-139.877
X251.745Y-147.497
X251.745Y-152.693
X251.745Y-160.313
X251.745Y-165.51
X251.745Y-173.13
X253.045Y-178.46
X253.045Y-193.7
X253.485Y-102.76
X253.985Y-73.62
X253.985Y-88.86
X254.285Y-106.73
X254.285Y-109.27
X254.285Y-111.81
X254.285Y-114.35
X254.285Y-116.89
X254.285Y-119.43
X254.285Y-121.97
X254.285Y-127.06
X254.285Y-134.68
X254.285Y-139.877
X254.285Y-147.497
X254.285Y-152.693
X254.285Y-160.313
X254.285Y-165.51
X254.285Y-173.13
X255.585Y-178.46
X255.585Y-193.7
X256.825Y-127.06
X256.825Y-134.68
X256.825Y-139.877
X256.825Y-147.497
X256.825Y-152.693
X256.825Y-160.313
X256.825Y-165.51
X256.825Y-173.13
X257.935Y-76.06
X257.935Y-78.56
X258.125Y-178.46
X258.125Y-193.7
X259.365Y-127.06
X259.365Y-134.68
X259.365Y-139.877
X259.365Y-147.497
X259.365Y-152.693
X259.365Y-160.313
X259.365Y-165.51
X259.365Y-173.13
X260.665Y-178.46
X260.665Y-193.7
X261.905Y-106.73
X261.905Y-109.27
X261.905Y-111.81
X261.905Y-114.35
X261.905Y-116.89
X261.905Y-119.43
X261.905Y-121.97
X261.905Y-127.06
X261.905Y-134.68
X261.905Y-139.877
X261.905Y-147.497
X261.905Y-152.693
X261.905Y-160.313
X261.905Y-165.51
X261.905Y-173.13
X262.155Y-102.76
X264.655Y-102.76
X267.415Y-182.24
X267.415Y-189.86
X267.655Y-68.42
X267.655Y-76.04
X268.902Y-93.333
X268.902Y-95.873
X268.902Y-98.413
X268.902Y-100.953
X268.902Y-103.493
X268.902Y-106.033
X268.902Y-108.573
X268.902Y-111.113
X268.902Y-113.653
X268.902Y-116.193
X270.195Y-68.42
X270.195Y-76.04
X271.482Y-89.17
X272.735Y-68.42
X272.735Y-76.04
X273.982Y-89.17
X274.198Y-128.455
X274.198Y-130.995
X274.198Y-133.535
X274.198Y-136.075
X274.198Y-138.615
X274.198Y-141.155
X274.198Y-143.695
X274.198Y-146.235
X274.198Y-148.775
X274.198Y-154.515
X274.198Y-157.055
X274.198Y-159.595
X274.198Y-162.135
X274.198Y-164.675
X274.198Y-167.215
X274.198Y-169.755
X274.198Y-172.295
X274.198Y-174.835
X275.275Y-68.42
X275.275Y-76.04
X276.522Y-93.333
X276.522Y-95.873
X276.522Y-98.413
X276.522Y-100.953
X276.522Y-103.493
X276.522Y-106.033
X276.522Y-108.573
X276.522Y-111.113
X276.522Y-113.653
X276.522Y-116.193
X277.815Y-68.42
X277.815Y-76.04
X278.898Y-128.435
X278.898Y-130.975
X278.898Y-133.515
X278.898Y-136.055
X278.898Y-138.595
X278.898Y-141.135
X278.898Y-143.675
X278.898Y-146.215
X278.898Y-148.755
X278.898Y-154.515
X278.898Y-157.055
X278.898Y-159.595
X278.898Y-162.135
X278.898Y-164.675
X278.898Y-167.215
X278.898Y-169.755
X278.898Y-172.295
X278.898Y-174.835
X280.355Y-68.42
X280.355Y-76.04
X282.108Y-93.333
X282.108Y-95.873
X282.108Y-98.413
X282.108Y-100.953
X282.108Y-103.493
X282.108Y-106.033
X282.108Y-108.573
X282.108Y-111.113
X282.108Y-113.653
X282.108Y-116.193
X282.214Y-163.215
X282.214Y-170.835
X282.655Y-182.24
X282.655Y-189.86
X282.809Y-142.895
X282.809Y-145.435
X282.809Y-147.975
X282.809Y-150.515
X282.895Y-68.42
X282.895Y-76.04
X283.079Y-129.515
X283.079Y-137.27
X285.435Y-68.42
X285.435Y-76.04
X285.579Y-129.515
X285.579Y-137.27
X286.395Y-89.17
X286.604Y-163.215
X286.604Y-170.835
X287.975Y-68.42
X287.975Y-76.04
X288.469Y-156.23
X288.895Y-89.17
X289.574Y-128.205
X289.574Y-135.825
X289.728Y-93.333
X289.728Y-95.873
X289.728Y-98.413
X289.728Y-100.953
X289.728Y-103.493
X289.728Y-106.033
X289.728Y-108.573
X289.728Y-111.113
X289.728Y-113.653
X289.728Y-116.193
X290.429Y-142.895
X290.429Y-145.435
X290.429Y-147.975
X290.429Y-150.515
X290.515Y-68.42
X290.515Y-76.04
X290.969Y-156.23
X290.994Y-163.215
X290.994Y-170.835
X293.559Y-128.205
X293.559Y-135.825
X293.955Y-76.04
X295.384Y-163.215
X295.384Y-170.835
X295.415Y-93.333
X295.415Y-95.873
X295.415Y-98.413
X295.415Y-100.953
X295.415Y-103.493
X295.415Y-106.033
X295.415Y-108.573
X295.415Y-111.113
X295.415Y-113.653
X295.415Y-116.193
X295.589Y-142.895
X295.589Y-145.435
X295.589Y-147.975
X295.589Y-150.515
X296.455Y-76.17
X297.544Y-128.205
X297.544Y-135.825
X299.774Y-163.215
X299.774Y-170.835
X301.209Y-156.23
X301.529Y-128.205
X301.529Y-135.825
X303.035Y-89.17
X303.035Y-93.333
X303.035Y-95.873
X303.035Y-98.413
X303.035Y-100.953
X303.035Y-103.493
X303.035Y-106.033
X303.035Y-108.573
X303.035Y-111.113
X303.035Y-113.653
X303.035Y-116.193
X303.209Y-142.895
X303.209Y-145.435
X303.209Y-147.975
X303.209Y-150.515
X303.709Y-156.23
X304.029Y-163.215
X304.029Y-170.835
X305.514Y-128.205
X305.514Y-135.825
X305.535Y-89.17
X308.035Y-81.0
X308.108Y-93.333
X308.108Y-95.873
X308.108Y-98.413
X308.108Y-100.953
X308.108Y-103.493
X308.108Y-106.033
X308.108Y-108.573
X308.108Y-111.113
X308.108Y-113.653
X308.108Y-116.193
X308.369Y-142.895
X308.369Y-145.435
X308.369Y-147.975
X308.369Y-150.515
X308.369Y-156.23
X308.369Y-163.525
X308.369Y-166.065
X308.369Y-168.605
X308.369Y-171.145
X308.369Y-173.685
X308.369Y-176.225
X308.369Y-178.765
X309.499Y-128.205
X309.499Y-135.825
X310.535Y-81.0
X310.869Y-156.23
X313.484Y-128.205
X313.484Y-135.825
X314.029Y-156.23
X315.268Y-89.17
X315.728Y-93.333
X315.728Y-95.873
X315.728Y-98.413
X315.728Y-100.953
X315.728Y-103.493
X315.728Y-106.033
X315.728Y-108.573
X315.728Y-111.113
X315.728Y-113.653
X315.728Y-116.193
X315.989Y-142.895
X315.989Y-145.435
X315.989Y-147.975
X315.989Y-150.515
X315.989Y-163.525
X315.989Y-166.065
X315.989Y-168.605
X315.989Y-171.145
X315.989Y-173.685
X315.989Y-176.225
X315.989Y-178.765
X316.529Y-156.23
X317.469Y-128.205
X317.469Y-135.825
X317.768Y-89.17
X320.519Y-142.895
X320.519Y-145.435
X320.519Y-147.975
X320.519Y-150.515
X320.519Y-153.055
X320.519Y-155.595
X320.519Y-158.135
X320.519Y-163.525
X320.519Y-166.065
X320.519Y-168.605
X320.519Y-171.145
X320.519Y-173.685
X320.519Y-176.225
X320.519Y-178.765
X321.215Y-81.46
X321.215Y-88.26
X321.454Y-128.205
X321.454Y-135.825
X324.015Y-81.46
X324.015Y-83.56
X324.015Y-86.16
X324.015Y-88.26
X326.289Y-134.81
X328.139Y-142.895
X328.139Y-145.435
X328.139Y-147.975
X328.139Y-150.515
X328.139Y-153.055
X328.139Y-155.595
X328.139Y-158.135
X328.139Y-163.525
X328.139Y-166.065
X328.139Y-168.605
X328.139Y-171.145
X328.139Y-173.685
X328.139Y-176.225
X328.139Y-178.765
X328.789Y-134.81
T6
X189.475Y-69.28
X192.015Y-69.28
X289.994Y-185.565
X292.534Y-185.565
X297.614Y-185.565
X300.154Y-185.565
X305.234Y-185.565
X307.774Y-185.565
X312.854Y-185.565
X315.394Y-185.565
X320.474Y-185.565
X323.014Y-185.565
T7
X96.455Y-78.96
X96.455Y-88.14
X98.995Y-88.14
X99.02Y-78.96
X100.365Y-117.11
X100.365Y-119.65
X100.365Y-122.19
X100.365Y-124.73
X100.365Y-127.27
X100.365Y-129.81
X100.365Y-132.35
X100.365Y-134.89
X100.365Y-137.43
X100.365Y-139.97
X100.365Y-142.51
X100.365Y-145.05
X100.365Y-147.59
X100.365Y-150.13
X100.365Y-152.67
X100.365Y-155.21
X101.535Y-88.14
X101.56Y-78.96
X102.905Y-117.11
X102.905Y-119.65
X102.905Y-122.19
X102.905Y-124.73
X102.905Y-127.27
X102.905Y-129.81
X102.905Y-132.35
X102.905Y-134.89
X102.905Y-137.43
X102.905Y-139.97
X102.905Y-142.51
X102.905Y-145.05
X102.905Y-147.59
X102.905Y-150.13
X102.905Y-152.67
X102.905Y-155.21
X113.449Y-95.19
X114.89Y-170.82
X114.89Y-179.88
X114.89Y-182.42
X114.89Y-190.04
X114.89Y-192.58
X115.492Y-105.825
X115.492Y-108.365
X115.989Y-95.19
X117.43Y-170.82
X117.43Y-179.88
X117.43Y-182.42
X117.43Y-190.04
X117.43Y-192.58
X118.032Y-105.825
X118.032Y-108.365
X118.529Y-95.19
X119.855Y-202.55
X119.855Y-205.09
X119.97Y-170.82
X119.97Y-179.88
X119.97Y-182.42
X119.97Y-190.04
X119.97Y-192.58
X120.572Y-105.825
X120.572Y-108.365
X120.572Y-117.11
X120.572Y-119.65
X120.572Y-122.19
X120.572Y-124.73
X120.572Y-127.27
X120.572Y-129.81
X120.572Y-132.35
X120.572Y-134.89
X120.572Y-137.43
X120.572Y-139.97
X120.572Y-142.51
X120.572Y-145.05
X120.572Y-147.59
X120.572Y-150.13
X120.572Y-152.67
X120.572Y-155.21
X122.395Y-202.55
X122.395Y-205.09
X122.51Y-170.82
X122.51Y-179.88
X122.51Y-182.42
X122.51Y-190.04
X122.51Y-192.58
X123.112Y-105.825
X123.112Y-108.365
X123.112Y-117.11
X123.112Y-119.65
X123.112Y-122.19
X123.112Y-124.73
X123.112Y-127.27
X123.112Y-129.81
X123.112Y-132.35
X123.112Y-134.89
X123.112Y-137.43
X123.112Y-139.97
X123.112Y-142.51
X123.112Y-145.05
X123.112Y-147.59
X123.112Y-150.13
X123.112Y-152.67
X123.112Y-155.21
X124.625Y-95.19
X124.935Y-202.55
X124.935Y-205.09
X125.05Y-170.82
X125.05Y-179.88
X125.05Y-182.42
X125.05Y-190.04
X125.05Y-192.58
X125.652Y-105.825
X125.652Y-108.365
X127.165Y-95.19
X127.475Y-202.55
X127.475Y-205.09
X127.59Y-170.82
X127.59Y-179.88
X127.59Y-182.42
X127.59Y-190.04
X127.59Y-192.58
X128.192Y-105.825
X128.192Y-108.365
X129.705Y-95.19
X130.13Y-179.88
X130.13Y-182.42
X130.13Y-190.04
X130.13Y-192.58
X130.732Y-105.825
X130.732Y-108.365
X132.67Y-179.88
X132.67Y-182.42
X132.67Y-190.04
X132.67Y-192.58
X135.21Y-190.04
X135.21Y-192.58
X136.665Y-206.56
X137.155Y-69.28
X137.515Y-105.825
X137.515Y-108.365
X139.055Y-179.88
X139.055Y-182.42
X139.205Y-206.56
X140.055Y-105.825
X140.055Y-108.365
X140.78Y-117.11
X140.78Y-119.65
X140.78Y-122.19
X140.78Y-124.73
X140.78Y-127.27
X140.78Y-129.81
X140.78Y-132.35
X140.78Y-134.89
X140.78Y-137.43
X140.78Y-139.97
X140.78Y-142.51
X140.78Y-145.05
X140.78Y-147.59
X140.78Y-150.13
X140.78Y-152.67
X140.78Y-155.21
X141.595Y-179.88
X141.595Y-182.42
X141.745Y-206.56
X142.155Y-69.28
X142.595Y-105.825
X142.595Y-108.365
X143.32Y-117.11
X143.32Y-119.65
X143.32Y-122.19
X143.32Y-124.73
X143.32Y-127.27
X143.32Y-129.81
X143.32Y-132.35
X143.32Y-134.89
X143.32Y-137.43
X143.32Y-139.97
X143.32Y-142.51
X143.32Y-145.05
X143.32Y-147.59
X143.32Y-150.13
X143.32Y-152.67
X143.32Y-155.21
X144.285Y-206.56
X146.825Y-206.56
X149.365Y-206.56
X151.905Y-206.56
X154.445Y-206.56
X156.985Y-206.56
X158.965Y-136.64
X158.965Y-139.18
X158.965Y-141.72
X158.965Y-144.26
X158.965Y-146.8
X158.965Y-149.34
X158.965Y-151.88
X158.965Y-154.42
X158.965Y-156.96
X158.965Y-159.5
X158.965Y-162.04
X158.965Y-164.58
X158.965Y-167.12
X158.965Y-169.66
X159.525Y-206.56
X162.065Y-206.56
X162.645Y-66.22
X162.645Y-69.14
X162.645Y-72.06
X162.645Y-74.98
X164.605Y-206.56
X165.185Y-66.22
X165.185Y-69.14
X165.185Y-72.06
X165.185Y-74.98
X167.725Y-66.22
X167.725Y-69.14
X167.725Y-72.06
X167.725Y-74.98
X172.225Y-206.56
X174.205Y-136.64
X174.205Y-139.18
X174.205Y-141.72
X174.205Y-144.26
X174.205Y-146.8
X174.205Y-149.34
X174.205Y-151.88
X174.205Y-154.42
X174.205Y-156.96
X174.205Y-159.5
X174.205Y-162.04
X174.205Y-164.58
X174.205Y-167.12
X174.205Y-169.66
X174.765Y-206.56
X177.305Y-206.56
X179.845Y-206.56
X182.385Y-206.56
X184.925Y-206.56
X187.465Y-206.56
X190.005Y-206.56
X192.545Y-206.56
X195.085Y-206.56
X197.625Y-206.56
X200.165Y-206.56
X206.125Y-68.76
X207.555Y-195.36
X207.555Y-208.06
X208.665Y-68.76
X210.095Y-195.36
X210.095Y-208.06
X211.205Y-68.76
X212.635Y-195.36
X212.635Y-208.06
X213.745Y-68.76
X215.175Y-195.36
X215.175Y-208.06
X216.285Y-68.76
X217.715Y-195.36
X217.715Y-208.06
X218.825Y-68.76
X220.255Y-195.36
X220.255Y-208.06
X221.365Y-68.76
X223.905Y-68.76
X226.445Y-68.76
X228.445Y-130.01
X228.445Y-132.55
X228.445Y-135.09
X228.445Y-137.63
X228.445Y-140.17
X228.445Y-142.71
X228.445Y-145.25
X228.445Y-147.79
X228.445Y-150.33
X228.445Y-152.87
X228.445Y-155.41
X228.445Y-157.95
X228.445Y-160.49
X228.985Y-68.76
X230.985Y-130.01
X230.985Y-132.55
X230.985Y-135.09
X230.985Y-137.63
X230.985Y-140.17
X230.985Y-142.71
X230.985Y-145.25
X230.985Y-147.79
X230.985Y-150.33
X230.985Y-152.87
X230.985Y-155.41
X230.985Y-157.95
X230.985Y-160.49
X231.525Y-68.76
X234.065Y-68.76
X236.605Y-68.76
X239.145Y-68.76
X241.685Y-68.76
X244.225Y-68.76
X249.245Y-199.25
X249.245Y-201.79
X249.245Y-204.33
X249.245Y-206.87
X251.785Y-199.25
X251.785Y-201.79
X251.785Y-204.33
X251.785Y-206.87
X259.535Y-199.25
X262.075Y-199.25
X264.615Y-199.25
X267.155Y-199.25
X269.695Y-199.25
X272.235Y-199.25
X273.735Y-84.41
X276.275Y-84.41
X278.815Y-84.41
X284.255Y-84.41
X286.795Y-84.41
X289.335Y-84.41
X294.775Y-84.41
X296.075Y-176.1
X296.075Y-178.64
X297.315Y-84.41
X298.615Y-176.1
X298.615Y-178.64
X299.855Y-84.41
X322.555Y-101.01
X322.555Y-103.55
X322.555Y-110.925
X325.095Y-101.01
X325.095Y-103.55
X325.095Y-110.925
X327.635Y-101.01
X327.635Y-103.55
X327.635Y-110.925
X328.139Y-182.985
X328.139Y-185.525
X328.139Y-188.065
T8
X106.065Y-198.275
X106.065Y-202.775
X106.445Y-82.47
X112.565Y-198.275
X112.565Y-202.775
X116.605Y-82.47
X124.725Y-67.375
X127.265Y-67.375
X129.805Y-67.375
X298.304Y-198.275
X298.304Y-202.775
X300.065Y-68.42
X300.065Y-70.96
X300.065Y-73.5
X304.804Y-198.275
X304.804Y-202.775
X311.544Y-198.275
X311.544Y-202.775
X318.044Y-198.275
X318.044Y-202.775
T9
X177.245Y-79.64
X177.245Y-84.64
X177.245Y-92.525
X177.245Y-97.525
X187.245Y-82.14
X187.245Y-95.025
X283.319Y-198.455
X283.319Y-203.455
X293.319Y-200.955
X319.885Y-118.48
X319.885Y-123.48
X329.885Y-120.98
T10
X99.225Y-69.59
X99.225Y-204.21
X196.49Y-95.7
X238.865Y-204.21
X325.285Y-69.59
X325.285Y-204.21
T3
X150.31Y-67.38G85X150.31Y-67.98
G05
X150.31Y-70.38G85X150.31Y-70.98
G05
X150.31Y-74.38G85X150.31Y-74.98
G05
X154.81Y-75.88G85X154.81Y-76.48
G05
X155.81Y-67.38G85X155.81Y-67.98
G05
T7
X106.825Y-72.265G85X106.825Y-74.265
G05
X112.525Y-70.265G85X110.525Y-70.265
G05
X112.525Y-76.265G85X110.525Y-76.265
G05
X326.115Y-78.01G85X327.615Y-78.01
G05
X326.115Y-91.71G85X327.615Y-91.71
G05
X327.665Y-85.86G85X327.665Y-83.86
G05
T0
M30
