%FSLAX45Y45*%
G04 Gerber Fmt 4.5, Leading zero omitted, Abs format (unit mm)*
G04 Created by KiCad (PCBNEW (5.1.9)-1) date 2023-05-09 20:45:22*
%MOMM*%
%LPD*%
G01*
G04 APERTURE LIST*
%TA.AperFunction,Profile*%
%ADD10C,0.050000*%
%TD*%
%ADD11C,0.200000*%
%ADD12C,0.300000*%
G04 APERTURE END LIST*
D10*
X9160500Y-20421000D02*
X9160500Y-6959000D01*
X32528500Y-21183000D02*
X9922500Y-21183000D01*
X33290500Y-6959000D02*
X33290500Y-20421000D01*
X9922500Y-6197000D02*
X32528500Y-6197000D01*
X9922500Y-21183000D02*
G75*
G02*
X9160500Y-20421000I0J762000D01*
G01*
X33290500Y-20421000D02*
G75*
G02*
X32528500Y-21183000I-762000J0D01*
G01*
X32528500Y-6197000D02*
G75*
G02*
X33290500Y-6959000I0J-762000D01*
G01*
X9160500Y-6959000D02*
G75*
G02*
X9922500Y-6197000I762000J0D01*
G01*
D11*
X15201000Y-6838000D02*
X15321000Y-6958000D01*
X15321000Y-6838000D02*
X15201000Y-6958000D01*
X15201000Y-7538000D02*
X15321000Y-7658000D01*
X15321000Y-7538000D02*
X15201000Y-7658000D01*
X12901500Y-8403500D02*
G75*
G03*
X12901500Y-8403500I-175000J0D01*
G01*
X31847500Y-7096000D02*
G75*
G03*
X31847500Y-7096000I-175000J0D01*
G01*
D12*
X9444428Y-21651214D02*
X9444428Y-21351214D01*
X9515857Y-21351214D01*
X9558714Y-21365500D01*
X9587286Y-21394072D01*
X9601571Y-21422643D01*
X9615857Y-21479786D01*
X9615857Y-21522643D01*
X9601571Y-21579786D01*
X9587286Y-21608357D01*
X9558714Y-21636929D01*
X9515857Y-21651214D01*
X9444428Y-21651214D01*
X9744428Y-21651214D02*
X9744428Y-21451214D01*
X9744428Y-21508357D02*
X9758714Y-21479786D01*
X9773000Y-21465500D01*
X9801571Y-21451214D01*
X9830143Y-21451214D01*
X9930143Y-21651214D02*
X9930143Y-21451214D01*
X9930143Y-21351214D02*
X9915857Y-21365500D01*
X9930143Y-21379786D01*
X9944428Y-21365500D01*
X9930143Y-21351214D01*
X9930143Y-21379786D01*
X10115857Y-21651214D02*
X10087286Y-21636929D01*
X10073000Y-21608357D01*
X10073000Y-21351214D01*
X10273000Y-21651214D02*
X10244428Y-21636929D01*
X10230143Y-21608357D01*
X10230143Y-21351214D01*
X10615857Y-21651214D02*
X10615857Y-21351214D01*
X10715857Y-21565500D01*
X10815857Y-21351214D01*
X10815857Y-21651214D01*
X11087286Y-21651214D02*
X11087286Y-21494072D01*
X11073000Y-21465500D01*
X11044428Y-21451214D01*
X10987286Y-21451214D01*
X10958714Y-21465500D01*
X11087286Y-21636929D02*
X11058714Y-21651214D01*
X10987286Y-21651214D01*
X10958714Y-21636929D01*
X10944428Y-21608357D01*
X10944428Y-21579786D01*
X10958714Y-21551214D01*
X10987286Y-21536929D01*
X11058714Y-21536929D01*
X11087286Y-21522643D01*
X11230143Y-21451214D02*
X11230143Y-21751214D01*
X11230143Y-21465500D02*
X11258714Y-21451214D01*
X11315857Y-21451214D01*
X11344428Y-21465500D01*
X11358714Y-21479786D01*
X11373000Y-21508357D01*
X11373000Y-21594072D01*
X11358714Y-21622643D01*
X11344428Y-21636929D01*
X11315857Y-21651214D01*
X11258714Y-21651214D01*
X11230143Y-21636929D01*
X11501571Y-21622643D02*
X11515857Y-21636929D01*
X11501571Y-21651214D01*
X11487286Y-21636929D01*
X11501571Y-21622643D01*
X11501571Y-21651214D01*
X11501571Y-21465500D02*
X11515857Y-21479786D01*
X11501571Y-21494072D01*
X11487286Y-21479786D01*
X11501571Y-21465500D01*
X11501571Y-21494072D01*
X9038000Y-22085500D02*
X9158000Y-22205500D01*
X9158000Y-22085500D02*
X9038000Y-22205500D01*
X9601571Y-22281214D02*
X9430143Y-22281214D01*
X9515857Y-22281214D02*
X9515857Y-21981214D01*
X9487286Y-22024072D01*
X9458714Y-22052643D01*
X9430143Y-22066929D01*
X9730143Y-22252643D02*
X9744428Y-22266929D01*
X9730143Y-22281214D01*
X9715857Y-22266929D01*
X9730143Y-22252643D01*
X9730143Y-22281214D01*
X9858714Y-22009786D02*
X9873000Y-21995500D01*
X9901571Y-21981214D01*
X9973000Y-21981214D01*
X10001571Y-21995500D01*
X10015857Y-22009786D01*
X10030143Y-22038357D01*
X10030143Y-22066929D01*
X10015857Y-22109786D01*
X9844428Y-22281214D01*
X10030143Y-22281214D01*
X10215857Y-21981214D02*
X10244428Y-21981214D01*
X10273000Y-21995500D01*
X10287286Y-22009786D01*
X10301571Y-22038357D01*
X10315857Y-22095500D01*
X10315857Y-22166929D01*
X10301571Y-22224072D01*
X10287286Y-22252643D01*
X10273000Y-22266929D01*
X10244428Y-22281214D01*
X10215857Y-22281214D01*
X10187286Y-22266929D01*
X10173000Y-22252643D01*
X10158714Y-22224072D01*
X10144428Y-22166929D01*
X10144428Y-22095500D01*
X10158714Y-22038357D01*
X10173000Y-22009786D01*
X10187286Y-21995500D01*
X10215857Y-21981214D01*
X10444428Y-22281214D02*
X10444428Y-22081214D01*
X10444428Y-22109786D02*
X10458714Y-22095500D01*
X10487286Y-22081214D01*
X10530143Y-22081214D01*
X10558714Y-22095500D01*
X10573000Y-22124072D01*
X10573000Y-22281214D01*
X10573000Y-22124072D02*
X10587286Y-22095500D01*
X10615857Y-22081214D01*
X10658714Y-22081214D01*
X10687286Y-22095500D01*
X10701571Y-22124072D01*
X10701571Y-22281214D01*
X10844428Y-22281214D02*
X10844428Y-22081214D01*
X10844428Y-22109786D02*
X10858714Y-22095500D01*
X10887286Y-22081214D01*
X10930143Y-22081214D01*
X10958714Y-22095500D01*
X10973000Y-22124072D01*
X10973000Y-22281214D01*
X10973000Y-22124072D02*
X10987286Y-22095500D01*
X11015857Y-22081214D01*
X11058714Y-22081214D01*
X11087286Y-22095500D01*
X11101571Y-22124072D01*
X11101571Y-22281214D01*
X11687286Y-21966929D02*
X11430143Y-22352643D01*
X12073000Y-21981214D02*
X12101571Y-21981214D01*
X12130143Y-21995500D01*
X12144428Y-22009786D01*
X12158714Y-22038357D01*
X12173000Y-22095500D01*
X12173000Y-22166929D01*
X12158714Y-22224072D01*
X12144428Y-22252643D01*
X12130143Y-22266929D01*
X12101571Y-22281214D01*
X12073000Y-22281214D01*
X12044428Y-22266929D01*
X12030143Y-22252643D01*
X12015857Y-22224072D01*
X12001571Y-22166929D01*
X12001571Y-22095500D01*
X12015857Y-22038357D01*
X12030143Y-22009786D01*
X12044428Y-21995500D01*
X12073000Y-21981214D01*
X12301571Y-22252643D02*
X12315857Y-22266929D01*
X12301571Y-22281214D01*
X12287286Y-22266929D01*
X12301571Y-22252643D01*
X12301571Y-22281214D01*
X12501571Y-21981214D02*
X12530143Y-21981214D01*
X12558714Y-21995500D01*
X12573000Y-22009786D01*
X12587286Y-22038357D01*
X12601571Y-22095500D01*
X12601571Y-22166929D01*
X12587286Y-22224072D01*
X12573000Y-22252643D01*
X12558714Y-22266929D01*
X12530143Y-22281214D01*
X12501571Y-22281214D01*
X12473000Y-22266929D01*
X12458714Y-22252643D01*
X12444428Y-22224072D01*
X12430143Y-22166929D01*
X12430143Y-22095500D01*
X12444428Y-22038357D01*
X12458714Y-22009786D01*
X12473000Y-21995500D01*
X12501571Y-21981214D01*
X12858714Y-22081214D02*
X12858714Y-22281214D01*
X12787286Y-21966929D02*
X12715857Y-22181214D01*
X12901571Y-22181214D01*
X12987286Y-21981214D02*
X13187286Y-21981214D01*
X13058714Y-22281214D01*
X13287286Y-21981214D02*
X13287286Y-22038357D01*
X13401571Y-21981214D02*
X13401571Y-22038357D01*
X13844428Y-22395500D02*
X13830143Y-22381214D01*
X13801571Y-22338357D01*
X13787286Y-22309786D01*
X13773000Y-22266929D01*
X13758714Y-22195500D01*
X13758714Y-22138357D01*
X13773000Y-22066929D01*
X13787286Y-22024072D01*
X13801571Y-21995500D01*
X13830143Y-21952643D01*
X13844428Y-21938357D01*
X13944428Y-22009786D02*
X13958714Y-21995500D01*
X13987286Y-21981214D01*
X14058714Y-21981214D01*
X14087286Y-21995500D01*
X14101571Y-22009786D01*
X14115857Y-22038357D01*
X14115857Y-22066929D01*
X14101571Y-22109786D01*
X13930143Y-22281214D01*
X14115857Y-22281214D01*
X14473000Y-22281214D02*
X14473000Y-21981214D01*
X14601571Y-22281214D02*
X14601571Y-22124072D01*
X14587286Y-22095500D01*
X14558714Y-22081214D01*
X14515857Y-22081214D01*
X14487286Y-22095500D01*
X14473000Y-22109786D01*
X14787286Y-22281214D02*
X14758714Y-22266929D01*
X14744428Y-22252643D01*
X14730143Y-22224072D01*
X14730143Y-22138357D01*
X14744428Y-22109786D01*
X14758714Y-22095500D01*
X14787286Y-22081214D01*
X14830143Y-22081214D01*
X14858714Y-22095500D01*
X14873000Y-22109786D01*
X14887286Y-22138357D01*
X14887286Y-22224072D01*
X14873000Y-22252643D01*
X14858714Y-22266929D01*
X14830143Y-22281214D01*
X14787286Y-22281214D01*
X15058714Y-22281214D02*
X15030143Y-22266929D01*
X15015857Y-22238357D01*
X15015857Y-21981214D01*
X15287286Y-22266929D02*
X15258714Y-22281214D01*
X15201571Y-22281214D01*
X15173000Y-22266929D01*
X15158714Y-22238357D01*
X15158714Y-22124072D01*
X15173000Y-22095500D01*
X15201571Y-22081214D01*
X15258714Y-22081214D01*
X15287286Y-22095500D01*
X15301571Y-22124072D01*
X15301571Y-22152643D01*
X15158714Y-22181214D01*
X15415857Y-22266929D02*
X15444428Y-22281214D01*
X15501571Y-22281214D01*
X15530143Y-22266929D01*
X15544428Y-22238357D01*
X15544428Y-22224072D01*
X15530143Y-22195500D01*
X15501571Y-22181214D01*
X15458714Y-22181214D01*
X15430143Y-22166929D01*
X15415857Y-22138357D01*
X15415857Y-22124072D01*
X15430143Y-22095500D01*
X15458714Y-22081214D01*
X15501571Y-22081214D01*
X15530143Y-22095500D01*
X15644428Y-22395500D02*
X15658714Y-22381214D01*
X15687286Y-22338357D01*
X15701571Y-22309786D01*
X15715857Y-22266929D01*
X15730143Y-22195500D01*
X15730143Y-22138357D01*
X15715857Y-22066929D01*
X15701571Y-22024072D01*
X15687286Y-21995500D01*
X15658714Y-21952643D01*
X15644428Y-21938357D01*
X16187286Y-22395500D02*
X16173000Y-22381214D01*
X16144428Y-22338357D01*
X16130143Y-22309786D01*
X16115857Y-22266929D01*
X16101571Y-22195500D01*
X16101571Y-22138357D01*
X16115857Y-22066929D01*
X16130143Y-22024072D01*
X16144428Y-21995500D01*
X16173000Y-21952643D01*
X16187286Y-21938357D01*
X16301571Y-22081214D02*
X16301571Y-22281214D01*
X16301571Y-22109786D02*
X16315857Y-22095500D01*
X16344428Y-22081214D01*
X16387286Y-22081214D01*
X16415857Y-22095500D01*
X16430143Y-22124072D01*
X16430143Y-22281214D01*
X16615857Y-22281214D02*
X16587286Y-22266929D01*
X16573000Y-22252643D01*
X16558714Y-22224072D01*
X16558714Y-22138357D01*
X16573000Y-22109786D01*
X16587286Y-22095500D01*
X16615857Y-22081214D01*
X16658714Y-22081214D01*
X16687286Y-22095500D01*
X16701571Y-22109786D01*
X16715857Y-22138357D01*
X16715857Y-22224072D01*
X16701571Y-22252643D01*
X16687286Y-22266929D01*
X16658714Y-22281214D01*
X16615857Y-22281214D01*
X16801571Y-22081214D02*
X16915857Y-22081214D01*
X16844428Y-21981214D02*
X16844428Y-22238357D01*
X16858714Y-22266929D01*
X16887286Y-22281214D01*
X16915857Y-22281214D01*
X17244428Y-22081214D02*
X17244428Y-22381214D01*
X17244428Y-22095500D02*
X17273000Y-22081214D01*
X17330143Y-22081214D01*
X17358714Y-22095500D01*
X17373000Y-22109786D01*
X17387286Y-22138357D01*
X17387286Y-22224072D01*
X17373000Y-22252643D01*
X17358714Y-22266929D01*
X17330143Y-22281214D01*
X17273000Y-22281214D01*
X17244428Y-22266929D01*
X17558714Y-22281214D02*
X17530143Y-22266929D01*
X17515857Y-22238357D01*
X17515857Y-21981214D01*
X17801571Y-22281214D02*
X17801571Y-22124072D01*
X17787286Y-22095500D01*
X17758714Y-22081214D01*
X17701571Y-22081214D01*
X17673000Y-22095500D01*
X17801571Y-22266929D02*
X17773000Y-22281214D01*
X17701571Y-22281214D01*
X17673000Y-22266929D01*
X17658714Y-22238357D01*
X17658714Y-22209786D01*
X17673000Y-22181214D01*
X17701571Y-22166929D01*
X17773000Y-22166929D01*
X17801571Y-22152643D01*
X17901571Y-22081214D02*
X18015857Y-22081214D01*
X17944428Y-21981214D02*
X17944428Y-22238357D01*
X17958714Y-22266929D01*
X17987286Y-22281214D01*
X18015857Y-22281214D01*
X18230143Y-22266929D02*
X18201571Y-22281214D01*
X18144428Y-22281214D01*
X18115857Y-22266929D01*
X18101571Y-22238357D01*
X18101571Y-22124072D01*
X18115857Y-22095500D01*
X18144428Y-22081214D01*
X18201571Y-22081214D01*
X18230143Y-22095500D01*
X18244428Y-22124072D01*
X18244428Y-22152643D01*
X18101571Y-22181214D01*
X18501571Y-22281214D02*
X18501571Y-21981214D01*
X18501571Y-22266929D02*
X18473000Y-22281214D01*
X18415857Y-22281214D01*
X18387286Y-22266929D01*
X18373000Y-22252643D01*
X18358714Y-22224072D01*
X18358714Y-22138357D01*
X18373000Y-22109786D01*
X18387286Y-22095500D01*
X18415857Y-22081214D01*
X18473000Y-22081214D01*
X18501571Y-22095500D01*
X18615857Y-22395500D02*
X18630143Y-22381214D01*
X18658714Y-22338357D01*
X18673000Y-22309786D01*
X18687286Y-22266929D01*
X18701571Y-22195500D01*
X18701571Y-22138357D01*
X18687286Y-22066929D01*
X18673000Y-22024072D01*
X18658714Y-21995500D01*
X18630143Y-21952643D01*
X18615857Y-21938357D01*
X9158000Y-22541500D02*
G75*
G03*
X9158000Y-22541500I-175000J0D01*
G01*
X9415857Y-22377214D02*
X9601571Y-22377214D01*
X9501571Y-22491500D01*
X9544428Y-22491500D01*
X9573000Y-22505786D01*
X9587286Y-22520071D01*
X9601571Y-22548643D01*
X9601571Y-22620071D01*
X9587286Y-22648643D01*
X9573000Y-22662929D01*
X9544428Y-22677214D01*
X9458714Y-22677214D01*
X9430143Y-22662929D01*
X9415857Y-22648643D01*
X9730143Y-22648643D02*
X9744428Y-22662929D01*
X9730143Y-22677214D01*
X9715857Y-22662929D01*
X9730143Y-22648643D01*
X9730143Y-22677214D01*
X10015857Y-22377214D02*
X9873000Y-22377214D01*
X9858714Y-22520071D01*
X9873000Y-22505786D01*
X9901571Y-22491500D01*
X9973000Y-22491500D01*
X10001571Y-22505786D01*
X10015857Y-22520071D01*
X10030143Y-22548643D01*
X10030143Y-22620071D01*
X10015857Y-22648643D01*
X10001571Y-22662929D01*
X9973000Y-22677214D01*
X9901571Y-22677214D01*
X9873000Y-22662929D01*
X9858714Y-22648643D01*
X10215857Y-22377214D02*
X10244428Y-22377214D01*
X10273000Y-22391500D01*
X10287286Y-22405786D01*
X10301571Y-22434357D01*
X10315857Y-22491500D01*
X10315857Y-22562929D01*
X10301571Y-22620071D01*
X10287286Y-22648643D01*
X10273000Y-22662929D01*
X10244428Y-22677214D01*
X10215857Y-22677214D01*
X10187286Y-22662929D01*
X10173000Y-22648643D01*
X10158714Y-22620071D01*
X10144428Y-22562929D01*
X10144428Y-22491500D01*
X10158714Y-22434357D01*
X10173000Y-22405786D01*
X10187286Y-22391500D01*
X10215857Y-22377214D01*
X10444428Y-22677214D02*
X10444428Y-22477214D01*
X10444428Y-22505786D02*
X10458714Y-22491500D01*
X10487286Y-22477214D01*
X10530143Y-22477214D01*
X10558714Y-22491500D01*
X10573000Y-22520071D01*
X10573000Y-22677214D01*
X10573000Y-22520071D02*
X10587286Y-22491500D01*
X10615857Y-22477214D01*
X10658714Y-22477214D01*
X10687286Y-22491500D01*
X10701571Y-22520071D01*
X10701571Y-22677214D01*
X10844428Y-22677214D02*
X10844428Y-22477214D01*
X10844428Y-22505786D02*
X10858714Y-22491500D01*
X10887286Y-22477214D01*
X10930143Y-22477214D01*
X10958714Y-22491500D01*
X10973000Y-22520071D01*
X10973000Y-22677214D01*
X10973000Y-22520071D02*
X10987286Y-22491500D01*
X11015857Y-22477214D01*
X11058714Y-22477214D01*
X11087286Y-22491500D01*
X11101571Y-22520071D01*
X11101571Y-22677214D01*
X11687286Y-22362929D02*
X11430143Y-22748643D01*
X12073000Y-22377214D02*
X12101571Y-22377214D01*
X12130143Y-22391500D01*
X12144428Y-22405786D01*
X12158714Y-22434357D01*
X12173000Y-22491500D01*
X12173000Y-22562929D01*
X12158714Y-22620071D01*
X12144428Y-22648643D01*
X12130143Y-22662929D01*
X12101571Y-22677214D01*
X12073000Y-22677214D01*
X12044428Y-22662929D01*
X12030143Y-22648643D01*
X12015857Y-22620071D01*
X12001571Y-22562929D01*
X12001571Y-22491500D01*
X12015857Y-22434357D01*
X12030143Y-22405786D01*
X12044428Y-22391500D01*
X12073000Y-22377214D01*
X12301571Y-22648643D02*
X12315857Y-22662929D01*
X12301571Y-22677214D01*
X12287286Y-22662929D01*
X12301571Y-22648643D01*
X12301571Y-22677214D01*
X12601571Y-22677214D02*
X12430143Y-22677214D01*
X12515857Y-22677214D02*
X12515857Y-22377214D01*
X12487286Y-22420071D01*
X12458714Y-22448643D01*
X12430143Y-22462929D01*
X12701571Y-22377214D02*
X12887286Y-22377214D01*
X12787286Y-22491500D01*
X12830143Y-22491500D01*
X12858714Y-22505786D01*
X12873000Y-22520071D01*
X12887286Y-22548643D01*
X12887286Y-22620071D01*
X12873000Y-22648643D01*
X12858714Y-22662929D01*
X12830143Y-22677214D01*
X12744428Y-22677214D01*
X12715857Y-22662929D01*
X12701571Y-22648643D01*
X13058714Y-22505786D02*
X13030143Y-22491500D01*
X13015857Y-22477214D01*
X13001571Y-22448643D01*
X13001571Y-22434357D01*
X13015857Y-22405786D01*
X13030143Y-22391500D01*
X13058714Y-22377214D01*
X13115857Y-22377214D01*
X13144428Y-22391500D01*
X13158714Y-22405786D01*
X13173000Y-22434357D01*
X13173000Y-22448643D01*
X13158714Y-22477214D01*
X13144428Y-22491500D01*
X13115857Y-22505786D01*
X13058714Y-22505786D01*
X13030143Y-22520071D01*
X13015857Y-22534357D01*
X13001571Y-22562929D01*
X13001571Y-22620071D01*
X13015857Y-22648643D01*
X13030143Y-22662929D01*
X13058714Y-22677214D01*
X13115857Y-22677214D01*
X13144428Y-22662929D01*
X13158714Y-22648643D01*
X13173000Y-22620071D01*
X13173000Y-22562929D01*
X13158714Y-22534357D01*
X13144428Y-22520071D01*
X13115857Y-22505786D01*
X13287286Y-22377214D02*
X13287286Y-22434357D01*
X13401571Y-22377214D02*
X13401571Y-22434357D01*
X13844428Y-22791500D02*
X13830143Y-22777214D01*
X13801571Y-22734357D01*
X13787286Y-22705786D01*
X13773000Y-22662929D01*
X13758714Y-22591500D01*
X13758714Y-22534357D01*
X13773000Y-22462929D01*
X13787286Y-22420071D01*
X13801571Y-22391500D01*
X13830143Y-22348643D01*
X13844428Y-22334357D01*
X13944428Y-22405786D02*
X13958714Y-22391500D01*
X13987286Y-22377214D01*
X14058714Y-22377214D01*
X14087286Y-22391500D01*
X14101571Y-22405786D01*
X14115857Y-22434357D01*
X14115857Y-22462929D01*
X14101571Y-22505786D01*
X13930143Y-22677214D01*
X14115857Y-22677214D01*
X14473000Y-22677214D02*
X14473000Y-22377214D01*
X14601571Y-22677214D02*
X14601571Y-22520071D01*
X14587286Y-22491500D01*
X14558714Y-22477214D01*
X14515857Y-22477214D01*
X14487286Y-22491500D01*
X14473000Y-22505786D01*
X14787286Y-22677214D02*
X14758714Y-22662929D01*
X14744428Y-22648643D01*
X14730143Y-22620071D01*
X14730143Y-22534357D01*
X14744428Y-22505786D01*
X14758714Y-22491500D01*
X14787286Y-22477214D01*
X14830143Y-22477214D01*
X14858714Y-22491500D01*
X14873000Y-22505786D01*
X14887286Y-22534357D01*
X14887286Y-22620071D01*
X14873000Y-22648643D01*
X14858714Y-22662929D01*
X14830143Y-22677214D01*
X14787286Y-22677214D01*
X15058714Y-22677214D02*
X15030143Y-22662929D01*
X15015857Y-22634357D01*
X15015857Y-22377214D01*
X15287286Y-22662929D02*
X15258714Y-22677214D01*
X15201571Y-22677214D01*
X15173000Y-22662929D01*
X15158714Y-22634357D01*
X15158714Y-22520071D01*
X15173000Y-22491500D01*
X15201571Y-22477214D01*
X15258714Y-22477214D01*
X15287286Y-22491500D01*
X15301571Y-22520071D01*
X15301571Y-22548643D01*
X15158714Y-22577214D01*
X15415857Y-22662929D02*
X15444428Y-22677214D01*
X15501571Y-22677214D01*
X15530143Y-22662929D01*
X15544428Y-22634357D01*
X15544428Y-22620071D01*
X15530143Y-22591500D01*
X15501571Y-22577214D01*
X15458714Y-22577214D01*
X15430143Y-22562929D01*
X15415857Y-22534357D01*
X15415857Y-22520071D01*
X15430143Y-22491500D01*
X15458714Y-22477214D01*
X15501571Y-22477214D01*
X15530143Y-22491500D01*
X15644428Y-22791500D02*
X15658714Y-22777214D01*
X15687286Y-22734357D01*
X15701571Y-22705786D01*
X15715857Y-22662929D01*
X15730143Y-22591500D01*
X15730143Y-22534357D01*
X15715857Y-22462929D01*
X15701571Y-22420071D01*
X15687286Y-22391500D01*
X15658714Y-22348643D01*
X15644428Y-22334357D01*
X16187286Y-22791500D02*
X16173000Y-22777214D01*
X16144428Y-22734357D01*
X16130143Y-22705786D01*
X16115857Y-22662929D01*
X16101571Y-22591500D01*
X16101571Y-22534357D01*
X16115857Y-22462929D01*
X16130143Y-22420071D01*
X16144428Y-22391500D01*
X16173000Y-22348643D01*
X16187286Y-22334357D01*
X16301571Y-22477214D02*
X16301571Y-22677214D01*
X16301571Y-22505786D02*
X16315857Y-22491500D01*
X16344428Y-22477214D01*
X16387286Y-22477214D01*
X16415857Y-22491500D01*
X16430143Y-22520071D01*
X16430143Y-22677214D01*
X16615857Y-22677214D02*
X16587286Y-22662929D01*
X16573000Y-22648643D01*
X16558714Y-22620071D01*
X16558714Y-22534357D01*
X16573000Y-22505786D01*
X16587286Y-22491500D01*
X16615857Y-22477214D01*
X16658714Y-22477214D01*
X16687286Y-22491500D01*
X16701571Y-22505786D01*
X16715857Y-22534357D01*
X16715857Y-22620071D01*
X16701571Y-22648643D01*
X16687286Y-22662929D01*
X16658714Y-22677214D01*
X16615857Y-22677214D01*
X16801571Y-22477214D02*
X16915857Y-22477214D01*
X16844428Y-22377214D02*
X16844428Y-22634357D01*
X16858714Y-22662929D01*
X16887286Y-22677214D01*
X16915857Y-22677214D01*
X17244428Y-22477214D02*
X17244428Y-22777214D01*
X17244428Y-22491500D02*
X17273000Y-22477214D01*
X17330143Y-22477214D01*
X17358714Y-22491500D01*
X17373000Y-22505786D01*
X17387286Y-22534357D01*
X17387286Y-22620071D01*
X17373000Y-22648643D01*
X17358714Y-22662929D01*
X17330143Y-22677214D01*
X17273000Y-22677214D01*
X17244428Y-22662929D01*
X17558714Y-22677214D02*
X17530143Y-22662929D01*
X17515857Y-22634357D01*
X17515857Y-22377214D01*
X17801571Y-22677214D02*
X17801571Y-22520071D01*
X17787286Y-22491500D01*
X17758714Y-22477214D01*
X17701571Y-22477214D01*
X17673000Y-22491500D01*
X17801571Y-22662929D02*
X17773000Y-22677214D01*
X17701571Y-22677214D01*
X17673000Y-22662929D01*
X17658714Y-22634357D01*
X17658714Y-22605786D01*
X17673000Y-22577214D01*
X17701571Y-22562929D01*
X17773000Y-22562929D01*
X17801571Y-22548643D01*
X17901571Y-22477214D02*
X18015857Y-22477214D01*
X17944428Y-22377214D02*
X17944428Y-22634357D01*
X17958714Y-22662929D01*
X17987286Y-22677214D01*
X18015857Y-22677214D01*
X18230143Y-22662929D02*
X18201571Y-22677214D01*
X18144428Y-22677214D01*
X18115857Y-22662929D01*
X18101571Y-22634357D01*
X18101571Y-22520071D01*
X18115857Y-22491500D01*
X18144428Y-22477214D01*
X18201571Y-22477214D01*
X18230143Y-22491500D01*
X18244428Y-22520071D01*
X18244428Y-22548643D01*
X18101571Y-22577214D01*
X18501571Y-22677214D02*
X18501571Y-22377214D01*
X18501571Y-22662929D02*
X18473000Y-22677214D01*
X18415857Y-22677214D01*
X18387286Y-22662929D01*
X18373000Y-22648643D01*
X18358714Y-22620071D01*
X18358714Y-22534357D01*
X18373000Y-22505786D01*
X18387286Y-22491500D01*
X18415857Y-22477214D01*
X18473000Y-22477214D01*
X18501571Y-22491500D01*
X18615857Y-22791500D02*
X18630143Y-22777214D01*
X18658714Y-22734357D01*
X18673000Y-22705786D01*
X18687286Y-22662929D01*
X18701571Y-22591500D01*
X18701571Y-22534357D01*
X18687286Y-22462929D01*
X18673000Y-22420071D01*
X18658714Y-22391500D01*
X18630143Y-22348643D01*
X18615857Y-22334357D01*
M02*
