G04 #@! TF.GenerationSoftware,KiCad,Pcbnew,(5.1.9)-1*
G04 #@! TF.CreationDate,2023-05-09T20:45:08+01:00*
G04 #@! TF.ProjectId,AT_65C02_Computer_Rev004,41545f36-3543-4303-925f-436f6d707574,Rev004*
G04 #@! TF.SameCoordinates,Original*
G04 #@! TF.FileFunction,Soldermask,Top*
G04 #@! TF.FilePolarity,Negative*
%FSLAX46Y46*%
G04 Gerber Fmt 4.6, Leading zero omitted, Abs format (unit mm)*
G04 Created by KiCad (PCBNEW (5.1.9)-1) date 2023-05-09 20:45:08*
%MOMM*%
%LPD*%
G01*
G04 APERTURE LIST*
%ADD10O,1.702000X1.702000*%
%ADD11O,2.102000X1.542000*%
%ADD12O,1.802000X1.802000*%
%ADD13C,6.102000*%
%ADD14C,1.702000*%
%ADD15C,2.102000*%
%ADD16C,2.442000*%
%ADD17O,3.602000X3.602000*%
%ADD18O,2.102000X2.007000*%
%ADD19C,1.902000*%
%ADD20O,2.102000X4.102000*%
%ADD21O,3.602000X2.102000*%
%ADD22O,2.007000X2.102000*%
%ADD23O,2.302000X2.302000*%
%ADD24O,1.502000X2.102000*%
%ADD25C,1.302000*%
%ADD26O,1.152000X1.602000*%
%ADD27O,2.502000X1.702000*%
%ADD28C,0.100000*%
G04 APERTURE END LIST*
G36*
G01*
X226794000Y-107530000D02*
X226794000Y-105930000D01*
G75*
G02*
X226845000Y-105879000I51000J0D01*
G01*
X228445000Y-105879000D01*
G75*
G02*
X228496000Y-105930000I0J-51000D01*
G01*
X228496000Y-107530000D01*
G75*
G02*
X228445000Y-107581000I-51000J0D01*
G01*
X226845000Y-107581000D01*
G75*
G02*
X226794000Y-107530000I0J51000D01*
G01*
G37*
D10*
X235265000Y-121970000D03*
X227645000Y-109270000D03*
X235265000Y-119430000D03*
X227645000Y-111810000D03*
X235265000Y-116890000D03*
X227645000Y-114350000D03*
X235265000Y-114350000D03*
X227645000Y-116890000D03*
X235265000Y-111810000D03*
X227645000Y-119430000D03*
X235265000Y-109270000D03*
X227645000Y-121970000D03*
X235265000Y-106730000D03*
D11*
X174205000Y-169660000D03*
X158965000Y-169660000D03*
X174205000Y-167120000D03*
X158965000Y-167120000D03*
X174205000Y-164580000D03*
X158965000Y-164580000D03*
X174205000Y-162040000D03*
X158965000Y-162040000D03*
X174205000Y-159500000D03*
X158965000Y-159500000D03*
X174205000Y-156960000D03*
X158965000Y-156960000D03*
X174205000Y-154420000D03*
X158965000Y-154420000D03*
X174205000Y-151880000D03*
X158965000Y-151880000D03*
X174205000Y-149340000D03*
X158965000Y-149340000D03*
X174205000Y-146800000D03*
X158965000Y-146800000D03*
X174205000Y-144260000D03*
X158965000Y-144260000D03*
X174205000Y-141720000D03*
X158965000Y-141720000D03*
X174205000Y-139180000D03*
X158965000Y-139180000D03*
X174205000Y-136640000D03*
G36*
G01*
X157914000Y-137360000D02*
X157914000Y-135920000D01*
G75*
G02*
X157965000Y-135869000I51000J0D01*
G01*
X159965000Y-135869000D01*
G75*
G02*
X160016000Y-135920000I0J-51000D01*
G01*
X160016000Y-137360000D01*
G75*
G02*
X159965000Y-137411000I-51000J0D01*
G01*
X157965000Y-137411000D01*
G75*
G02*
X157914000Y-137360000I0J51000D01*
G01*
G37*
G36*
G01*
X115740000Y-193481000D02*
X114040000Y-193481000D01*
G75*
G02*
X113989000Y-193430000I0J51000D01*
G01*
X113989000Y-191730000D01*
G75*
G02*
X114040000Y-191679000I51000J0D01*
G01*
X115740000Y-191679000D01*
G75*
G02*
X115791000Y-191730000I0J-51000D01*
G01*
X115791000Y-193430000D01*
G75*
G02*
X115740000Y-193481000I-51000J0D01*
G01*
G37*
D12*
X114890000Y-190040000D03*
X117430000Y-192580000D03*
X117430000Y-190040000D03*
X119970000Y-192580000D03*
X119970000Y-190040000D03*
X122510000Y-192580000D03*
X122510000Y-190040000D03*
X125050000Y-192580000D03*
X125050000Y-190040000D03*
X127590000Y-192580000D03*
X127590000Y-190040000D03*
X130130000Y-192580000D03*
X130130000Y-190040000D03*
X132670000Y-192580000D03*
X132670000Y-190040000D03*
X135210000Y-192580000D03*
X135210000Y-190040000D03*
D13*
X196490000Y-95700000D03*
X238865000Y-204210000D03*
D14*
X119145000Y-69915000D03*
X119145000Y-67415000D03*
D15*
X112565000Y-198275000D03*
X112565000Y-202775000D03*
X106065000Y-198275000D03*
X106065000Y-202775000D03*
X318044000Y-198275000D03*
X318044000Y-202775000D03*
X311544000Y-198275000D03*
X311544000Y-202775000D03*
X304804000Y-198275000D03*
X304804000Y-202775000D03*
X298304000Y-198275000D03*
X298304000Y-202775000D03*
D12*
X299855000Y-84410000D03*
X297315000Y-84410000D03*
G36*
G01*
X295625000Y-85311000D02*
X293925000Y-85311000D01*
G75*
G02*
X293874000Y-85260000I0J51000D01*
G01*
X293874000Y-83560000D01*
G75*
G02*
X293925000Y-83509000I51000J0D01*
G01*
X295625000Y-83509000D01*
G75*
G02*
X295676000Y-83560000I0J-51000D01*
G01*
X295676000Y-85260000D01*
G75*
G02*
X295625000Y-85311000I-51000J0D01*
G01*
G37*
X289335000Y-84410000D03*
X286795000Y-84410000D03*
G36*
G01*
X285105000Y-85311000D02*
X283405000Y-85311000D01*
G75*
G02*
X283354000Y-85260000I0J51000D01*
G01*
X283354000Y-83560000D01*
G75*
G02*
X283405000Y-83509000I51000J0D01*
G01*
X285105000Y-83509000D01*
G75*
G02*
X285156000Y-83560000I0J-51000D01*
G01*
X285156000Y-85260000D01*
G75*
G02*
X285105000Y-85311000I-51000J0D01*
G01*
G37*
X278815000Y-84410000D03*
X276275000Y-84410000D03*
G36*
G01*
X274585000Y-85311000D02*
X272885000Y-85311000D01*
G75*
G02*
X272834000Y-85260000I0J51000D01*
G01*
X272834000Y-83560000D01*
G75*
G02*
X272885000Y-83509000I51000J0D01*
G01*
X274585000Y-83509000D01*
G75*
G02*
X274636000Y-83560000I0J-51000D01*
G01*
X274636000Y-85260000D01*
G75*
G02*
X274585000Y-85311000I-51000J0D01*
G01*
G37*
D10*
X239045000Y-139876666D03*
X261905000Y-147496666D03*
X241585000Y-139876666D03*
X259365000Y-147496666D03*
X244125000Y-139876666D03*
X256825000Y-147496666D03*
X246665000Y-139876666D03*
X254285000Y-147496666D03*
X249205000Y-139876666D03*
X251745000Y-147496666D03*
X251745000Y-139876666D03*
X249205000Y-147496666D03*
X254285000Y-139876666D03*
X246665000Y-147496666D03*
X256825000Y-139876666D03*
X244125000Y-147496666D03*
X259365000Y-139876666D03*
X241585000Y-147496666D03*
X261905000Y-139876666D03*
G36*
G01*
X239845000Y-148347666D02*
X238245000Y-148347666D01*
G75*
G02*
X238194000Y-148296666I0J51000D01*
G01*
X238194000Y-146696666D01*
G75*
G02*
X238245000Y-146645666I51000J0D01*
G01*
X239845000Y-146645666D01*
G75*
G02*
X239896000Y-146696666I0J-51000D01*
G01*
X239896000Y-148296666D01*
G75*
G02*
X239845000Y-148347666I-51000J0D01*
G01*
G37*
X239045000Y-127060000D03*
X261905000Y-134680000D03*
X241585000Y-127060000D03*
X259365000Y-134680000D03*
X244125000Y-127060000D03*
X256825000Y-134680000D03*
X246665000Y-127060000D03*
X254285000Y-134680000D03*
X249205000Y-127060000D03*
X251745000Y-134680000D03*
X251745000Y-127060000D03*
X249205000Y-134680000D03*
X254285000Y-127060000D03*
X246665000Y-134680000D03*
X256825000Y-127060000D03*
X244125000Y-134680000D03*
X259365000Y-127060000D03*
X241585000Y-134680000D03*
X261905000Y-127060000D03*
G36*
G01*
X239845000Y-135531000D02*
X238245000Y-135531000D01*
G75*
G02*
X238194000Y-135480000I0J51000D01*
G01*
X238194000Y-133880000D01*
G75*
G02*
X238245000Y-133829000I51000J0D01*
G01*
X239845000Y-133829000D01*
G75*
G02*
X239896000Y-133880000I0J-51000D01*
G01*
X239896000Y-135480000D01*
G75*
G02*
X239845000Y-135531000I-51000J0D01*
G01*
G37*
X239045000Y-152693332D03*
X261905000Y-160313332D03*
X241585000Y-152693332D03*
X259365000Y-160313332D03*
X244125000Y-152693332D03*
X256825000Y-160313332D03*
X246665000Y-152693332D03*
X254285000Y-160313332D03*
X249205000Y-152693332D03*
X251745000Y-160313332D03*
X251745000Y-152693332D03*
X249205000Y-160313332D03*
X254285000Y-152693332D03*
X246665000Y-160313332D03*
X256825000Y-152693332D03*
X244125000Y-160313332D03*
X259365000Y-152693332D03*
X241585000Y-160313332D03*
X261905000Y-152693332D03*
G36*
G01*
X239845000Y-161164332D02*
X238245000Y-161164332D01*
G75*
G02*
X238194000Y-161113332I0J51000D01*
G01*
X238194000Y-159513332D01*
G75*
G02*
X238245000Y-159462332I51000J0D01*
G01*
X239845000Y-159462332D01*
G75*
G02*
X239896000Y-159513332I0J-51000D01*
G01*
X239896000Y-161113332D01*
G75*
G02*
X239845000Y-161164332I-51000J0D01*
G01*
G37*
X239045000Y-165510000D03*
X261905000Y-173130000D03*
X241585000Y-165510000D03*
X259365000Y-173130000D03*
X244125000Y-165510000D03*
X256825000Y-173130000D03*
X246665000Y-165510000D03*
X254285000Y-173130000D03*
X249205000Y-165510000D03*
X251745000Y-173130000D03*
X251745000Y-165510000D03*
X249205000Y-173130000D03*
X254285000Y-165510000D03*
X246665000Y-173130000D03*
X256825000Y-165510000D03*
X244125000Y-173130000D03*
X259365000Y-165510000D03*
X241585000Y-173130000D03*
X261905000Y-165510000D03*
G36*
G01*
X239845000Y-173981000D02*
X238245000Y-173981000D01*
G75*
G02*
X238194000Y-173930000I0J51000D01*
G01*
X238194000Y-172330000D01*
G75*
G02*
X238245000Y-172279000I51000J0D01*
G01*
X239845000Y-172279000D01*
G75*
G02*
X239896000Y-172330000I0J-51000D01*
G01*
X239896000Y-173930000D01*
G75*
G02*
X239845000Y-173981000I-51000J0D01*
G01*
G37*
D16*
X319885000Y-118480000D03*
X329885000Y-120980000D03*
X319885000Y-123480000D03*
D12*
X220255000Y-208060000D03*
X217715000Y-208060000D03*
X215175000Y-208060000D03*
X212635000Y-208060000D03*
X210095000Y-208060000D03*
G36*
G01*
X208405000Y-208961000D02*
X206705000Y-208961000D01*
G75*
G02*
X206654000Y-208910000I0J51000D01*
G01*
X206654000Y-207210000D01*
G75*
G02*
X206705000Y-207159000I51000J0D01*
G01*
X208405000Y-207159000D01*
G75*
G02*
X208456000Y-207210000I0J-51000D01*
G01*
X208456000Y-208910000D01*
G75*
G02*
X208405000Y-208961000I-51000J0D01*
G01*
G37*
G36*
G01*
X208405000Y-196261000D02*
X206705000Y-196261000D01*
G75*
G02*
X206654000Y-196210000I0J51000D01*
G01*
X206654000Y-194510000D01*
G75*
G02*
X206705000Y-194459000I51000J0D01*
G01*
X208405000Y-194459000D01*
G75*
G02*
X208456000Y-194510000I0J-51000D01*
G01*
X208456000Y-196210000D01*
G75*
G02*
X208405000Y-196261000I-51000J0D01*
G01*
G37*
X210095000Y-195360000D03*
X212635000Y-195360000D03*
X215175000Y-195360000D03*
X217715000Y-195360000D03*
X220255000Y-195360000D03*
X249245000Y-206870000D03*
X251785000Y-206870000D03*
X249245000Y-204330000D03*
X251785000Y-204330000D03*
X249245000Y-201790000D03*
X251785000Y-201790000D03*
X249245000Y-199250000D03*
G36*
G01*
X250884000Y-200100000D02*
X250884000Y-198400000D01*
G75*
G02*
X250935000Y-198349000I51000J0D01*
G01*
X252635000Y-198349000D01*
G75*
G02*
X252686000Y-198400000I0J-51000D01*
G01*
X252686000Y-200100000D01*
G75*
G02*
X252635000Y-200151000I-51000J0D01*
G01*
X250935000Y-200151000D01*
G75*
G02*
X250884000Y-200100000I0J51000D01*
G01*
G37*
D17*
X316725000Y-70960000D03*
G36*
G01*
X299065000Y-67416500D02*
X301065000Y-67416500D01*
G75*
G02*
X301116000Y-67467500I0J-51000D01*
G01*
X301116000Y-69372500D01*
G75*
G02*
X301065000Y-69423500I-51000J0D01*
G01*
X299065000Y-69423500D01*
G75*
G02*
X299014000Y-69372500I0J51000D01*
G01*
X299014000Y-67467500D01*
G75*
G02*
X299065000Y-67416500I51000J0D01*
G01*
G37*
D18*
X300065000Y-70960000D03*
X300065000Y-73500000D03*
G36*
G01*
X152705000Y-196011000D02*
X151105000Y-196011000D01*
G75*
G02*
X151054000Y-195960000I0J51000D01*
G01*
X151054000Y-194360000D01*
G75*
G02*
X151105000Y-194309000I51000J0D01*
G01*
X152705000Y-194309000D01*
G75*
G02*
X152756000Y-194360000I0J-51000D01*
G01*
X152756000Y-195960000D01*
G75*
G02*
X152705000Y-196011000I-51000J0D01*
G01*
G37*
D10*
X200165000Y-179920000D03*
X154445000Y-195160000D03*
X197625000Y-179920000D03*
X156985000Y-195160000D03*
X195085000Y-179920000D03*
X159525000Y-195160000D03*
X192545000Y-179920000D03*
X162065000Y-195160000D03*
X190005000Y-179920000D03*
X164605000Y-195160000D03*
X187465000Y-179920000D03*
X167145000Y-195160000D03*
X184925000Y-179920000D03*
X169685000Y-195160000D03*
X182385000Y-179920000D03*
X172225000Y-195160000D03*
X179845000Y-179920000D03*
X174765000Y-195160000D03*
X177305000Y-179920000D03*
X177305000Y-195160000D03*
X174765000Y-179920000D03*
X179845000Y-195160000D03*
X172225000Y-179920000D03*
X182385000Y-195160000D03*
X169685000Y-179920000D03*
X184925000Y-195160000D03*
X167145000Y-179920000D03*
X187465000Y-195160000D03*
X164605000Y-179920000D03*
X190005000Y-195160000D03*
X162065000Y-179920000D03*
X192545000Y-195160000D03*
X159525000Y-179920000D03*
X195085000Y-195160000D03*
X156985000Y-179920000D03*
X197625000Y-195160000D03*
X154445000Y-179920000D03*
X200165000Y-195160000D03*
X151905000Y-179920000D03*
G36*
G01*
X259865000Y-177609000D02*
X261465000Y-177609000D01*
G75*
G02*
X261516000Y-177660000I0J-51000D01*
G01*
X261516000Y-179260000D01*
G75*
G02*
X261465000Y-179311000I-51000J0D01*
G01*
X259865000Y-179311000D01*
G75*
G02*
X259814000Y-179260000I0J51000D01*
G01*
X259814000Y-177660000D01*
G75*
G02*
X259865000Y-177609000I51000J0D01*
G01*
G37*
X227645000Y-193700000D03*
X258125000Y-178460000D03*
X230185000Y-193700000D03*
X255585000Y-178460000D03*
X232725000Y-193700000D03*
X253045000Y-178460000D03*
X235265000Y-193700000D03*
X250505000Y-178460000D03*
X237805000Y-193700000D03*
X247965000Y-178460000D03*
X240345000Y-193700000D03*
X245425000Y-178460000D03*
X242885000Y-193700000D03*
X242885000Y-178460000D03*
X245425000Y-193700000D03*
X240345000Y-178460000D03*
X247965000Y-193700000D03*
X237805000Y-178460000D03*
X250505000Y-193700000D03*
X235265000Y-178460000D03*
X253045000Y-193700000D03*
X232725000Y-178460000D03*
X255585000Y-193700000D03*
X230185000Y-178460000D03*
X258125000Y-193700000D03*
X227645000Y-178460000D03*
X260665000Y-193700000D03*
X151905000Y-106460000D03*
X200165000Y-121700000D03*
X154445000Y-106460000D03*
X197625000Y-121700000D03*
X156985000Y-106460000D03*
X195085000Y-121700000D03*
X159525000Y-106460000D03*
X192545000Y-121700000D03*
X162065000Y-106460000D03*
X190005000Y-121700000D03*
X164605000Y-106460000D03*
X187465000Y-121700000D03*
X167145000Y-106460000D03*
X184925000Y-121700000D03*
X169685000Y-106460000D03*
X182385000Y-121700000D03*
X172225000Y-106460000D03*
X179845000Y-121700000D03*
X174765000Y-106460000D03*
X177305000Y-121700000D03*
X177305000Y-106460000D03*
X174765000Y-121700000D03*
X179845000Y-106460000D03*
X172225000Y-121700000D03*
X182385000Y-106460000D03*
X169685000Y-121700000D03*
X184925000Y-106460000D03*
X167145000Y-121700000D03*
X187465000Y-106460000D03*
X164605000Y-121700000D03*
X190005000Y-106460000D03*
X162065000Y-121700000D03*
X192545000Y-106460000D03*
X159525000Y-121700000D03*
X195085000Y-106460000D03*
X156985000Y-121700000D03*
X197625000Y-106460000D03*
X154445000Y-121700000D03*
X200165000Y-106460000D03*
G36*
G01*
X152705000Y-122551000D02*
X151105000Y-122551000D01*
G75*
G02*
X151054000Y-122500000I0J51000D01*
G01*
X151054000Y-120900000D01*
G75*
G02*
X151105000Y-120849000I51000J0D01*
G01*
X152705000Y-120849000D01*
G75*
G02*
X152756000Y-120900000I0J-51000D01*
G01*
X152756000Y-122500000D01*
G75*
G02*
X152705000Y-122551000I-51000J0D01*
G01*
G37*
G36*
G01*
X206525000Y-89711000D02*
X204925000Y-89711000D01*
G75*
G02*
X204874000Y-89660000I0J51000D01*
G01*
X204874000Y-88060000D01*
G75*
G02*
X204925000Y-88009000I51000J0D01*
G01*
X206525000Y-88009000D01*
G75*
G02*
X206576000Y-88060000I0J-51000D01*
G01*
X206576000Y-89660000D01*
G75*
G02*
X206525000Y-89711000I-51000J0D01*
G01*
G37*
X253985000Y-73620000D03*
X208265000Y-88860000D03*
X251445000Y-73620000D03*
X210805000Y-88860000D03*
X248905000Y-73620000D03*
X213345000Y-88860000D03*
X246365000Y-73620000D03*
X215885000Y-88860000D03*
X243825000Y-73620000D03*
X218425000Y-88860000D03*
X241285000Y-73620000D03*
X220965000Y-88860000D03*
X238745000Y-73620000D03*
X223505000Y-88860000D03*
X236205000Y-73620000D03*
X226045000Y-88860000D03*
X233665000Y-73620000D03*
X228585000Y-88860000D03*
X231125000Y-73620000D03*
X231125000Y-88860000D03*
X228585000Y-73620000D03*
X233665000Y-88860000D03*
X226045000Y-73620000D03*
X236205000Y-88860000D03*
X223505000Y-73620000D03*
X238745000Y-88860000D03*
X220965000Y-73620000D03*
X241285000Y-88860000D03*
X218425000Y-73620000D03*
X243825000Y-88860000D03*
X215885000Y-73620000D03*
X246365000Y-88860000D03*
X213345000Y-73620000D03*
X248905000Y-88860000D03*
X210805000Y-73620000D03*
X251445000Y-88860000D03*
X208265000Y-73620000D03*
X253985000Y-88860000D03*
X205725000Y-73620000D03*
D19*
X192015000Y-69280000D03*
G36*
G01*
X188524000Y-70180000D02*
X188524000Y-68380000D01*
G75*
G02*
X188575000Y-68329000I51000J0D01*
G01*
X190375000Y-68329000D01*
G75*
G02*
X190426000Y-68380000I0J-51000D01*
G01*
X190426000Y-70180000D01*
G75*
G02*
X190375000Y-70231000I-51000J0D01*
G01*
X188575000Y-70231000D01*
G75*
G02*
X188524000Y-70180000I0J51000D01*
G01*
G37*
D14*
X230305000Y-198990000D03*
X227805000Y-198990000D03*
D12*
X272235000Y-199250000D03*
X269695000Y-199250000D03*
X267155000Y-199250000D03*
X264615000Y-199250000D03*
X262075000Y-199250000D03*
G36*
G01*
X260385000Y-200151000D02*
X258685000Y-200151000D01*
G75*
G02*
X258634000Y-200100000I0J51000D01*
G01*
X258634000Y-198400000D01*
G75*
G02*
X258685000Y-198349000I51000J0D01*
G01*
X260385000Y-198349000D01*
G75*
G02*
X260436000Y-198400000I0J-51000D01*
G01*
X260436000Y-200100000D01*
G75*
G02*
X260385000Y-200151000I-51000J0D01*
G01*
G37*
D16*
X177245000Y-79640000D03*
X187245000Y-82140000D03*
X177245000Y-84640000D03*
G36*
G01*
X289715000Y-67569000D02*
X291315000Y-67569000D01*
G75*
G02*
X291366000Y-67620000I0J-51000D01*
G01*
X291366000Y-69220000D01*
G75*
G02*
X291315000Y-69271000I-51000J0D01*
G01*
X289715000Y-69271000D01*
G75*
G02*
X289664000Y-69220000I0J51000D01*
G01*
X289664000Y-67620000D01*
G75*
G02*
X289715000Y-67569000I51000J0D01*
G01*
G37*
D10*
X267655000Y-76040000D03*
X287975000Y-68420000D03*
X270195000Y-76040000D03*
X285435000Y-68420000D03*
X272735000Y-76040000D03*
X282895000Y-68420000D03*
X275275000Y-76040000D03*
X280355000Y-68420000D03*
X277815000Y-76040000D03*
X277815000Y-68420000D03*
X280355000Y-76040000D03*
X275275000Y-68420000D03*
X282895000Y-76040000D03*
X272735000Y-68420000D03*
X285435000Y-76040000D03*
X270195000Y-68420000D03*
X287975000Y-76040000D03*
X267655000Y-68420000D03*
X290515000Y-76040000D03*
D14*
X253485000Y-102760000D03*
X250985000Y-102760000D03*
D13*
X99225000Y-204210000D03*
X99225000Y-69590000D03*
X325285000Y-69590000D03*
X325285000Y-204210000D03*
D12*
X244225000Y-68760000D03*
X241685000Y-68760000D03*
X239145000Y-68760000D03*
X236605000Y-68760000D03*
X234065000Y-68760000D03*
X231525000Y-68760000D03*
X228985000Y-68760000D03*
X226445000Y-68760000D03*
X223905000Y-68760000D03*
X221365000Y-68760000D03*
X218825000Y-68760000D03*
X216285000Y-68760000D03*
X213745000Y-68760000D03*
X211205000Y-68760000D03*
X208665000Y-68760000D03*
G36*
G01*
X206975000Y-69661000D02*
X205275000Y-69661000D01*
G75*
G02*
X205224000Y-69610000I0J51000D01*
G01*
X205224000Y-67910000D01*
G75*
G02*
X205275000Y-67859000I51000J0D01*
G01*
X206975000Y-67859000D01*
G75*
G02*
X207026000Y-67910000I0J-51000D01*
G01*
X207026000Y-69610000D01*
G75*
G02*
X206975000Y-69661000I-51000J0D01*
G01*
G37*
D14*
X182497000Y-127502000D03*
X179997000Y-127502000D03*
X106655000Y-182270000D03*
X106655000Y-184770000D03*
X181895000Y-133710000D03*
X184395000Y-133710000D03*
X102815000Y-165290000D03*
X100315000Y-165290000D03*
X197275000Y-133670000D03*
X199775000Y-133670000D03*
X293955000Y-76040000D03*
X296455000Y-76170000D03*
G36*
G01*
X110006000Y-189510000D02*
X110006000Y-191110000D01*
G75*
G02*
X109955000Y-191161000I-51000J0D01*
G01*
X108355000Y-191161000D01*
G75*
G02*
X108304000Y-191110000I0J51000D01*
G01*
X108304000Y-189510000D01*
G75*
G02*
X108355000Y-189459000I51000J0D01*
G01*
X109955000Y-189459000D01*
G75*
G02*
X110006000Y-189510000I0J-51000D01*
G01*
G37*
X106655000Y-190310000D03*
X237785000Y-102760000D03*
X235285000Y-102760000D03*
X200165000Y-198990000D03*
X197665000Y-198990000D03*
X257935000Y-78560000D03*
X257935000Y-76060000D03*
X264655000Y-102760000D03*
X262155000Y-102760000D03*
G36*
G01*
X102004000Y-117960000D02*
X102004000Y-116260000D01*
G75*
G02*
X102055000Y-116209000I51000J0D01*
G01*
X103755000Y-116209000D01*
G75*
G02*
X103806000Y-116260000I0J-51000D01*
G01*
X103806000Y-117960000D01*
G75*
G02*
X103755000Y-118011000I-51000J0D01*
G01*
X102055000Y-118011000D01*
G75*
G02*
X102004000Y-117960000I0J51000D01*
G01*
G37*
D12*
X100365000Y-117110000D03*
X102905000Y-119650000D03*
X100365000Y-119650000D03*
X102905000Y-122190000D03*
X100365000Y-122190000D03*
X102905000Y-124730000D03*
X100365000Y-124730000D03*
X102905000Y-127270000D03*
X100365000Y-127270000D03*
X102905000Y-129810000D03*
X100365000Y-129810000D03*
X102905000Y-132350000D03*
X100365000Y-132350000D03*
X102905000Y-134890000D03*
X100365000Y-134890000D03*
X102905000Y-137430000D03*
X100365000Y-137430000D03*
X102905000Y-139970000D03*
X100365000Y-139970000D03*
X102905000Y-142510000D03*
X100365000Y-142510000D03*
X102905000Y-145050000D03*
X100365000Y-145050000D03*
X102905000Y-147590000D03*
X100365000Y-147590000D03*
X102905000Y-150130000D03*
X100365000Y-150130000D03*
X102905000Y-152670000D03*
X100365000Y-152670000D03*
X102905000Y-155210000D03*
X100365000Y-155210000D03*
D20*
X327665000Y-84860000D03*
D14*
X321215000Y-88260000D03*
X321215000Y-81460000D03*
X324015000Y-88260000D03*
X324015000Y-81460000D03*
X324015000Y-86160000D03*
G36*
G01*
X324815000Y-84411000D02*
X323215000Y-84411000D01*
G75*
G02*
X323164000Y-84360000I0J51000D01*
G01*
X323164000Y-82760000D01*
G75*
G02*
X323215000Y-82709000I51000J0D01*
G01*
X324815000Y-82709000D01*
G75*
G02*
X324866000Y-82760000I0J-51000D01*
G01*
X324866000Y-84360000D01*
G75*
G02*
X324815000Y-84411000I-51000J0D01*
G01*
G37*
D21*
X326865000Y-78010000D03*
X326865000Y-91710000D03*
D10*
X119784000Y-91740000D03*
D14*
X112164000Y-91740000D03*
X130960000Y-91740000D03*
D10*
X123340000Y-91740000D03*
D14*
X102535000Y-180830000D03*
D10*
X94915000Y-180830000D03*
D14*
X102795000Y-161860000D03*
D10*
X95175000Y-161860000D03*
X94925000Y-187180000D03*
D14*
X102545000Y-187180000D03*
D10*
X94925000Y-194760000D03*
D14*
X102545000Y-194760000D03*
G36*
G01*
X181134000Y-137440000D02*
X181134000Y-135840000D01*
G75*
G02*
X181185000Y-135789000I51000J0D01*
G01*
X182785000Y-135789000D01*
G75*
G02*
X182836000Y-135840000I0J-51000D01*
G01*
X182836000Y-137440000D01*
G75*
G02*
X182785000Y-137491000I-51000J0D01*
G01*
X181185000Y-137491000D01*
G75*
G02*
X181134000Y-137440000I0J51000D01*
G01*
G37*
D10*
X197225000Y-169660000D03*
X181985000Y-139180000D03*
X197225000Y-167120000D03*
X181985000Y-141720000D03*
X197225000Y-164580000D03*
X181985000Y-144260000D03*
X197225000Y-162040000D03*
X181985000Y-146800000D03*
X197225000Y-159500000D03*
X181985000Y-149340000D03*
X197225000Y-156960000D03*
X181985000Y-151880000D03*
X197225000Y-154420000D03*
X181985000Y-154420000D03*
X197225000Y-151880000D03*
X181985000Y-156960000D03*
X197225000Y-149340000D03*
X181985000Y-159500000D03*
X197225000Y-146800000D03*
X181985000Y-162040000D03*
X197225000Y-144260000D03*
X181985000Y-164580000D03*
X197225000Y-141720000D03*
X181985000Y-167120000D03*
X197225000Y-139180000D03*
X181985000Y-169660000D03*
X197225000Y-136640000D03*
X248585000Y-106730000D03*
X240965000Y-121970000D03*
X248585000Y-109270000D03*
X240965000Y-119430000D03*
X248585000Y-111810000D03*
X240965000Y-116890000D03*
X248585000Y-114350000D03*
X240965000Y-114350000D03*
X248585000Y-116890000D03*
X240965000Y-111810000D03*
X248585000Y-119430000D03*
X240965000Y-109270000D03*
X248585000Y-121970000D03*
G36*
G01*
X240114000Y-107530000D02*
X240114000Y-105930000D01*
G75*
G02*
X240165000Y-105879000I51000J0D01*
G01*
X241765000Y-105879000D01*
G75*
G02*
X241816000Y-105930000I0J-51000D01*
G01*
X241816000Y-107530000D01*
G75*
G02*
X241765000Y-107581000I-51000J0D01*
G01*
X240165000Y-107581000D01*
G75*
G02*
X240114000Y-107530000I0J51000D01*
G01*
G37*
X261905000Y-106730000D03*
X254285000Y-121970000D03*
X261905000Y-109270000D03*
X254285000Y-119430000D03*
X261905000Y-111810000D03*
X254285000Y-116890000D03*
X261905000Y-114350000D03*
X254285000Y-114350000D03*
X261905000Y-116890000D03*
X254285000Y-111810000D03*
X261905000Y-119430000D03*
X254285000Y-109270000D03*
X261905000Y-121970000D03*
G36*
G01*
X253434000Y-107530000D02*
X253434000Y-105930000D01*
G75*
G02*
X253485000Y-105879000I51000J0D01*
G01*
X255085000Y-105879000D01*
G75*
G02*
X255136000Y-105930000I0J-51000D01*
G01*
X255136000Y-107530000D01*
G75*
G02*
X255085000Y-107581000I-51000J0D01*
G01*
X253485000Y-107581000D01*
G75*
G02*
X253434000Y-107530000I0J51000D01*
G01*
G37*
G36*
G01*
X94494000Y-169620000D02*
X94494000Y-168020000D01*
G75*
G02*
X94545000Y-167969000I51000J0D01*
G01*
X96145000Y-167969000D01*
G75*
G02*
X96196000Y-168020000I0J-51000D01*
G01*
X96196000Y-169620000D01*
G75*
G02*
X96145000Y-169671000I-51000J0D01*
G01*
X94545000Y-169671000D01*
G75*
G02*
X94494000Y-169620000I0J51000D01*
G01*
G37*
X102965000Y-176440000D03*
X95345000Y-171360000D03*
X102965000Y-173900000D03*
X95345000Y-173900000D03*
X102965000Y-171360000D03*
X95345000Y-176440000D03*
X102965000Y-168820000D03*
G36*
G01*
X104875000Y-110661000D02*
X103275000Y-110661000D01*
G75*
G02*
X103224000Y-110610000I0J51000D01*
G01*
X103224000Y-109010000D01*
G75*
G02*
X103275000Y-108959000I51000J0D01*
G01*
X104875000Y-108959000D01*
G75*
G02*
X104926000Y-109010000I0J-51000D01*
G01*
X104926000Y-110610000D01*
G75*
G02*
X104875000Y-110661000I-51000J0D01*
G01*
G37*
D14*
X96455000Y-109810000D03*
X96455000Y-94570000D03*
X104075000Y-94570000D03*
G36*
G01*
X283506000Y-181440000D02*
X283506000Y-183040000D01*
G75*
G02*
X283455000Y-183091000I-51000J0D01*
G01*
X281855000Y-183091000D01*
G75*
G02*
X281804000Y-183040000I0J51000D01*
G01*
X281804000Y-181440000D01*
G75*
G02*
X281855000Y-181389000I51000J0D01*
G01*
X283455000Y-181389000D01*
G75*
G02*
X283506000Y-181440000I0J-51000D01*
G01*
G37*
X282655000Y-189860000D03*
X267415000Y-189860000D03*
X267415000Y-182240000D03*
G36*
G01*
X100685000Y-87239000D02*
X102385000Y-87239000D01*
G75*
G02*
X102436000Y-87290000I0J-51000D01*
G01*
X102436000Y-88990000D01*
G75*
G02*
X102385000Y-89041000I-51000J0D01*
G01*
X100685000Y-89041000D01*
G75*
G02*
X100634000Y-88990000I0J51000D01*
G01*
X100634000Y-87290000D01*
G75*
G02*
X100685000Y-87239000I51000J0D01*
G01*
G37*
D12*
X98995000Y-88140000D03*
X96455000Y-88140000D03*
X322555000Y-103550000D03*
X322555000Y-101010000D03*
X325095000Y-103550000D03*
X325095000Y-101010000D03*
X327635000Y-103550000D03*
G36*
G01*
X326785000Y-100109000D02*
X328485000Y-100109000D01*
G75*
G02*
X328536000Y-100160000I0J-51000D01*
G01*
X328536000Y-101860000D01*
G75*
G02*
X328485000Y-101911000I-51000J0D01*
G01*
X326785000Y-101911000D01*
G75*
G02*
X326734000Y-101860000I0J51000D01*
G01*
X326734000Y-100160000D01*
G75*
G02*
X326785000Y-100109000I51000J0D01*
G01*
G37*
D10*
X315989000Y-142895000D03*
X308369000Y-150515000D03*
X315989000Y-145435000D03*
X308369000Y-147975000D03*
X315989000Y-147975000D03*
X308369000Y-145435000D03*
X315989000Y-150515000D03*
G36*
G01*
X307518000Y-143695000D02*
X307518000Y-142095000D01*
G75*
G02*
X307569000Y-142044000I51000J0D01*
G01*
X309169000Y-142044000D01*
G75*
G02*
X309220000Y-142095000I0J-51000D01*
G01*
X309220000Y-143695000D01*
G75*
G02*
X309169000Y-143746000I-51000J0D01*
G01*
X307569000Y-143746000D01*
G75*
G02*
X307518000Y-143695000I0J51000D01*
G01*
G37*
D19*
X323014000Y-185565000D03*
G36*
G01*
X319523000Y-186465000D02*
X319523000Y-184665000D01*
G75*
G02*
X319574000Y-184614000I51000J0D01*
G01*
X321374000Y-184614000D01*
G75*
G02*
X321425000Y-184665000I0J-51000D01*
G01*
X321425000Y-186465000D01*
G75*
G02*
X321374000Y-186516000I-51000J0D01*
G01*
X319574000Y-186516000D01*
G75*
G02*
X319523000Y-186465000I0J51000D01*
G01*
G37*
X315394000Y-185565000D03*
G36*
G01*
X311903000Y-186465000D02*
X311903000Y-184665000D01*
G75*
G02*
X311954000Y-184614000I51000J0D01*
G01*
X313754000Y-184614000D01*
G75*
G02*
X313805000Y-184665000I0J-51000D01*
G01*
X313805000Y-186465000D01*
G75*
G02*
X313754000Y-186516000I-51000J0D01*
G01*
X311954000Y-186516000D01*
G75*
G02*
X311903000Y-186465000I0J51000D01*
G01*
G37*
X300154000Y-185565000D03*
G36*
G01*
X296663000Y-186465000D02*
X296663000Y-184665000D01*
G75*
G02*
X296714000Y-184614000I51000J0D01*
G01*
X298514000Y-184614000D01*
G75*
G02*
X298565000Y-184665000I0J-51000D01*
G01*
X298565000Y-186465000D01*
G75*
G02*
X298514000Y-186516000I-51000J0D01*
G01*
X296714000Y-186516000D01*
G75*
G02*
X296663000Y-186465000I0J51000D01*
G01*
G37*
X307774000Y-185565000D03*
G36*
G01*
X304283000Y-186465000D02*
X304283000Y-184665000D01*
G75*
G02*
X304334000Y-184614000I51000J0D01*
G01*
X306134000Y-184614000D01*
G75*
G02*
X306185000Y-184665000I0J-51000D01*
G01*
X306185000Y-186465000D01*
G75*
G02*
X306134000Y-186516000I-51000J0D01*
G01*
X304334000Y-186516000D01*
G75*
G02*
X304283000Y-186465000I0J51000D01*
G01*
G37*
X292534000Y-185565000D03*
G36*
G01*
X289043000Y-186465000D02*
X289043000Y-184665000D01*
G75*
G02*
X289094000Y-184614000I51000J0D01*
G01*
X290894000Y-184614000D01*
G75*
G02*
X290945000Y-184665000I0J-51000D01*
G01*
X290945000Y-186465000D01*
G75*
G02*
X290894000Y-186516000I-51000J0D01*
G01*
X289094000Y-186516000D01*
G75*
G02*
X289043000Y-186465000I0J51000D01*
G01*
G37*
D16*
X283319000Y-203455000D03*
X293319000Y-200955000D03*
X283319000Y-198455000D03*
D10*
X299774000Y-163215000D03*
D14*
X299774000Y-170835000D03*
G36*
G01*
X282228000Y-138070000D02*
X282228000Y-136470000D01*
G75*
G02*
X282279000Y-136419000I51000J0D01*
G01*
X283879000Y-136419000D01*
G75*
G02*
X283930000Y-136470000I0J-51000D01*
G01*
X283930000Y-138070000D01*
G75*
G02*
X283879000Y-138121000I-51000J0D01*
G01*
X282279000Y-138121000D01*
G75*
G02*
X282228000Y-138070000I0J51000D01*
G01*
G37*
X285579000Y-137270000D03*
X285579000Y-129515000D03*
G36*
G01*
X282228000Y-130315000D02*
X282228000Y-128715000D01*
G75*
G02*
X282279000Y-128664000I51000J0D01*
G01*
X283879000Y-128664000D01*
G75*
G02*
X283930000Y-128715000I0J-51000D01*
G01*
X283930000Y-130315000D01*
G75*
G02*
X283879000Y-130366000I-51000J0D01*
G01*
X282279000Y-130366000D01*
G75*
G02*
X282228000Y-130315000I0J51000D01*
G01*
G37*
X289574000Y-128205000D03*
D10*
X289574000Y-135825000D03*
X293559000Y-135825000D03*
D14*
X293559000Y-128205000D03*
D10*
X282214000Y-163215000D03*
D14*
X282214000Y-170835000D03*
X309499000Y-135825000D03*
D10*
X309499000Y-128205000D03*
D14*
X321454000Y-135825000D03*
D10*
X321454000Y-128205000D03*
X295384000Y-163215000D03*
D14*
X295384000Y-170835000D03*
D10*
X317469000Y-128205000D03*
D14*
X317469000Y-135825000D03*
X301529000Y-128205000D03*
D10*
X301529000Y-135825000D03*
D14*
X297544000Y-135825000D03*
D10*
X297544000Y-128205000D03*
X286604000Y-163215000D03*
D14*
X286604000Y-170835000D03*
X313484000Y-135825000D03*
D10*
X313484000Y-128205000D03*
D14*
X305514000Y-135825000D03*
D10*
X305514000Y-128205000D03*
X290994000Y-163215000D03*
D14*
X290994000Y-170835000D03*
G36*
G01*
X319668000Y-164325000D02*
X319668000Y-162725000D01*
G75*
G02*
X319719000Y-162674000I51000J0D01*
G01*
X321319000Y-162674000D01*
G75*
G02*
X321370000Y-162725000I0J-51000D01*
G01*
X321370000Y-164325000D01*
G75*
G02*
X321319000Y-164376000I-51000J0D01*
G01*
X319719000Y-164376000D01*
G75*
G02*
X319668000Y-164325000I0J51000D01*
G01*
G37*
D10*
X328139000Y-178765000D03*
X320519000Y-166065000D03*
X328139000Y-176225000D03*
X320519000Y-168605000D03*
X328139000Y-173685000D03*
X320519000Y-171145000D03*
X328139000Y-171145000D03*
X320519000Y-173685000D03*
X328139000Y-168605000D03*
X320519000Y-176225000D03*
X328139000Y-166065000D03*
X320519000Y-178765000D03*
X328139000Y-163525000D03*
G36*
G01*
X281958000Y-143695000D02*
X281958000Y-142095000D01*
G75*
G02*
X282009000Y-142044000I51000J0D01*
G01*
X283609000Y-142044000D01*
G75*
G02*
X283660000Y-142095000I0J-51000D01*
G01*
X283660000Y-143695000D01*
G75*
G02*
X283609000Y-143746000I-51000J0D01*
G01*
X282009000Y-143746000D01*
G75*
G02*
X281958000Y-143695000I0J51000D01*
G01*
G37*
X290429000Y-150515000D03*
X282809000Y-145435000D03*
X290429000Y-147975000D03*
X282809000Y-147975000D03*
X290429000Y-145435000D03*
X282809000Y-150515000D03*
X290429000Y-142895000D03*
X315989000Y-163525000D03*
X308369000Y-178765000D03*
X315989000Y-166065000D03*
X308369000Y-176225000D03*
X315989000Y-168605000D03*
X308369000Y-173685000D03*
X315989000Y-171145000D03*
X308369000Y-171145000D03*
X315989000Y-173685000D03*
X308369000Y-168605000D03*
X315989000Y-176225000D03*
X308369000Y-166065000D03*
X315989000Y-178765000D03*
G36*
G01*
X307518000Y-164325000D02*
X307518000Y-162725000D01*
G75*
G02*
X307569000Y-162674000I51000J0D01*
G01*
X309169000Y-162674000D01*
G75*
G02*
X309220000Y-162725000I0J-51000D01*
G01*
X309220000Y-164325000D01*
G75*
G02*
X309169000Y-164376000I-51000J0D01*
G01*
X307569000Y-164376000D01*
G75*
G02*
X307518000Y-164325000I0J51000D01*
G01*
G37*
G36*
G01*
X319668000Y-143695000D02*
X319668000Y-142095000D01*
G75*
G02*
X319719000Y-142044000I51000J0D01*
G01*
X321319000Y-142044000D01*
G75*
G02*
X321370000Y-142095000I0J-51000D01*
G01*
X321370000Y-143695000D01*
G75*
G02*
X321319000Y-143746000I-51000J0D01*
G01*
X319719000Y-143746000D01*
G75*
G02*
X319668000Y-143695000I0J51000D01*
G01*
G37*
X328139000Y-158135000D03*
X320519000Y-145435000D03*
X328139000Y-155595000D03*
X320519000Y-147975000D03*
X328139000Y-153055000D03*
X320519000Y-150515000D03*
X328139000Y-150515000D03*
X320519000Y-153055000D03*
X328139000Y-147975000D03*
X320519000Y-155595000D03*
X328139000Y-145435000D03*
X320519000Y-158135000D03*
X328139000Y-142895000D03*
X303209000Y-142895000D03*
X295589000Y-150515000D03*
X303209000Y-145435000D03*
X295589000Y-147975000D03*
X303209000Y-147975000D03*
X295589000Y-145435000D03*
X303209000Y-150515000D03*
G36*
G01*
X294738000Y-143695000D02*
X294738000Y-142095000D01*
G75*
G02*
X294789000Y-142044000I51000J0D01*
G01*
X296389000Y-142044000D01*
G75*
G02*
X296440000Y-142095000I0J-51000D01*
G01*
X296440000Y-143695000D01*
G75*
G02*
X296389000Y-143746000I-51000J0D01*
G01*
X294789000Y-143746000D01*
G75*
G02*
X294738000Y-143695000I0J51000D01*
G01*
G37*
D14*
X304029000Y-170835000D03*
D10*
X304029000Y-163215000D03*
G36*
G01*
X325438000Y-135610000D02*
X325438000Y-134010000D01*
G75*
G02*
X325489000Y-133959000I51000J0D01*
G01*
X327089000Y-133959000D01*
G75*
G02*
X327140000Y-134010000I0J-51000D01*
G01*
X327140000Y-135610000D01*
G75*
G02*
X327089000Y-135661000I-51000J0D01*
G01*
X325489000Y-135661000D01*
G75*
G02*
X325438000Y-135610000I0J51000D01*
G01*
G37*
D14*
X328789000Y-134810000D03*
D10*
X278898000Y-148755000D03*
X278898000Y-146215000D03*
X278898000Y-143675000D03*
X278898000Y-141135000D03*
X278898000Y-138595000D03*
X278898000Y-136055000D03*
X278898000Y-133515000D03*
X278898000Y-130975000D03*
G36*
G01*
X278098000Y-127584000D02*
X279698000Y-127584000D01*
G75*
G02*
X279749000Y-127635000I0J-51000D01*
G01*
X279749000Y-129235000D01*
G75*
G02*
X279698000Y-129286000I-51000J0D01*
G01*
X278098000Y-129286000D01*
G75*
G02*
X278047000Y-129235000I0J51000D01*
G01*
X278047000Y-127635000D01*
G75*
G02*
X278098000Y-127584000I51000J0D01*
G01*
G37*
X274198000Y-148775000D03*
X274198000Y-146235000D03*
X274198000Y-143695000D03*
X274198000Y-141155000D03*
X274198000Y-138615000D03*
X274198000Y-136075000D03*
X274198000Y-133535000D03*
X274198000Y-130995000D03*
G36*
G01*
X273398000Y-127604000D02*
X274998000Y-127604000D01*
G75*
G02*
X275049000Y-127655000I0J-51000D01*
G01*
X275049000Y-129255000D01*
G75*
G02*
X274998000Y-129306000I-51000J0D01*
G01*
X273398000Y-129306000D01*
G75*
G02*
X273347000Y-129255000I0J51000D01*
G01*
X273347000Y-127655000D01*
G75*
G02*
X273398000Y-127604000I51000J0D01*
G01*
G37*
G36*
G01*
X278098000Y-153664000D02*
X279698000Y-153664000D01*
G75*
G02*
X279749000Y-153715000I0J-51000D01*
G01*
X279749000Y-155315000D01*
G75*
G02*
X279698000Y-155366000I-51000J0D01*
G01*
X278098000Y-155366000D01*
G75*
G02*
X278047000Y-155315000I0J51000D01*
G01*
X278047000Y-153715000D01*
G75*
G02*
X278098000Y-153664000I51000J0D01*
G01*
G37*
X278898000Y-157055000D03*
X278898000Y-159595000D03*
X278898000Y-162135000D03*
X278898000Y-164675000D03*
X278898000Y-167215000D03*
X278898000Y-169755000D03*
X278898000Y-172295000D03*
X278898000Y-174835000D03*
G36*
G01*
X273398000Y-153664000D02*
X274998000Y-153664000D01*
G75*
G02*
X275049000Y-153715000I0J-51000D01*
G01*
X275049000Y-155315000D01*
G75*
G02*
X274998000Y-155366000I-51000J0D01*
G01*
X273398000Y-155366000D01*
G75*
G02*
X273347000Y-155315000I0J51000D01*
G01*
X273347000Y-153715000D01*
G75*
G02*
X273398000Y-153664000I51000J0D01*
G01*
G37*
X274198000Y-157055000D03*
X274198000Y-159595000D03*
X274198000Y-162135000D03*
X274198000Y-164675000D03*
X274198000Y-167215000D03*
X274198000Y-169755000D03*
X274198000Y-172295000D03*
X274198000Y-174835000D03*
D12*
X101560000Y-78960000D03*
X99020000Y-78960000D03*
G36*
G01*
X97305000Y-79861000D02*
X95605000Y-79861000D01*
G75*
G02*
X95554000Y-79810000I0J51000D01*
G01*
X95554000Y-78110000D01*
G75*
G02*
X95605000Y-78059000I51000J0D01*
G01*
X97305000Y-78059000D01*
G75*
G02*
X97356000Y-78110000I0J-51000D01*
G01*
X97356000Y-79810000D01*
G75*
G02*
X97305000Y-79861000I-51000J0D01*
G01*
G37*
D22*
X124725000Y-67375000D03*
X127265000Y-67375000D03*
G36*
G01*
X130808500Y-66375000D02*
X130808500Y-68375000D01*
G75*
G02*
X130757500Y-68426000I-51000J0D01*
G01*
X128852500Y-68426000D01*
G75*
G02*
X128801500Y-68375000I0J51000D01*
G01*
X128801500Y-66375000D01*
G75*
G02*
X128852500Y-66324000I51000J0D01*
G01*
X130757500Y-66324000D01*
G75*
G02*
X130808500Y-66375000I0J-51000D01*
G01*
G37*
D17*
X127265000Y-84035000D03*
G36*
G01*
X117756000Y-81370000D02*
X117756000Y-83570000D01*
G75*
G02*
X117705000Y-83621000I-51000J0D01*
G01*
X115505000Y-83621000D01*
G75*
G02*
X115454000Y-83570000I0J51000D01*
G01*
X115454000Y-81370000D01*
G75*
G02*
X115505000Y-81319000I51000J0D01*
G01*
X117705000Y-81319000D01*
G75*
G02*
X117756000Y-81370000I0J-51000D01*
G01*
G37*
D23*
X106445000Y-82470000D03*
G36*
G01*
X109775000Y-74464000D02*
X113275000Y-74464000D01*
G75*
G02*
X113326000Y-74515000I0J-51000D01*
G01*
X113326000Y-78015000D01*
G75*
G02*
X113275000Y-78066000I-51000J0D01*
G01*
X109775000Y-78066000D01*
G75*
G02*
X109724000Y-78015000I0J51000D01*
G01*
X109724000Y-74515000D01*
G75*
G02*
X109775000Y-74464000I51000J0D01*
G01*
G37*
G36*
G01*
X110499500Y-68714000D02*
X112550500Y-68714000D01*
G75*
G02*
X113326000Y-69489500I0J-775500D01*
G01*
X113326000Y-71040500D01*
G75*
G02*
X112550500Y-71816000I-775500J0D01*
G01*
X110499500Y-71816000D01*
G75*
G02*
X109724000Y-71040500I0J775500D01*
G01*
X109724000Y-69489500D01*
G75*
G02*
X110499500Y-68714000I775500J0D01*
G01*
G37*
G36*
G01*
X105924500Y-71464000D02*
X107725500Y-71464000D01*
G75*
G02*
X108626000Y-72364500I0J-900500D01*
G01*
X108626000Y-74165500D01*
G75*
G02*
X107725500Y-75066000I-900500J0D01*
G01*
X105924500Y-75066000D01*
G75*
G02*
X105024000Y-74165500I0J900500D01*
G01*
X105024000Y-72364500D01*
G75*
G02*
X105924500Y-71464000I900500J0D01*
G01*
G37*
D10*
X191595000Y-74330000D03*
D14*
X191595000Y-81950000D03*
G36*
G01*
X307184000Y-81800000D02*
X307184000Y-80200000D01*
G75*
G02*
X307235000Y-80149000I51000J0D01*
G01*
X308835000Y-80149000D01*
G75*
G02*
X308886000Y-80200000I0J-51000D01*
G01*
X308886000Y-81800000D01*
G75*
G02*
X308835000Y-81851000I-51000J0D01*
G01*
X307235000Y-81851000D01*
G75*
G02*
X307184000Y-81800000I0J51000D01*
G01*
G37*
X310535000Y-81000000D03*
X225225000Y-102760000D03*
D10*
X232845000Y-102760000D03*
G36*
G01*
X296925000Y-177001000D02*
X295225000Y-177001000D01*
G75*
G02*
X295174000Y-176950000I0J51000D01*
G01*
X295174000Y-175250000D01*
G75*
G02*
X295225000Y-175199000I51000J0D01*
G01*
X296925000Y-175199000D01*
G75*
G02*
X296976000Y-175250000I0J-51000D01*
G01*
X296976000Y-176950000D01*
G75*
G02*
X296925000Y-177001000I-51000J0D01*
G01*
G37*
D12*
X296075000Y-178640000D03*
X298615000Y-176100000D03*
X298615000Y-178640000D03*
G36*
G01*
X136104000Y-70280000D02*
X136104000Y-68280000D01*
G75*
G02*
X136155000Y-68229000I51000J0D01*
G01*
X138155000Y-68229000D01*
G75*
G02*
X138206000Y-68280000I0J-51000D01*
G01*
X138206000Y-70280000D01*
G75*
G02*
X138155000Y-70331000I-51000J0D01*
G01*
X136155000Y-70331000D01*
G75*
G02*
X136104000Y-70280000I0J51000D01*
G01*
G37*
D15*
X142155000Y-69280000D03*
D14*
X288469000Y-156230000D03*
X290969000Y-156230000D03*
X316529000Y-156230000D03*
X314029000Y-156230000D03*
X308369000Y-156230000D03*
X310869000Y-156230000D03*
X303709000Y-156230000D03*
X301209000Y-156230000D03*
X271482000Y-89170000D03*
X273982000Y-89170000D03*
X286395000Y-89170000D03*
X288895000Y-89170000D03*
X305535000Y-89170000D03*
X303035000Y-89170000D03*
X317768000Y-89170000D03*
X315268000Y-89170000D03*
X139262000Y-94240000D03*
X139262000Y-91740000D03*
X144342000Y-91740000D03*
X144342000Y-94240000D03*
X149422000Y-94240000D03*
X149422000Y-91740000D03*
X154502000Y-94240000D03*
X154502000Y-91740000D03*
X159382000Y-91740000D03*
X159382000Y-94240000D03*
X162122000Y-91740000D03*
X162122000Y-94240000D03*
X171125000Y-82890000D03*
X171125000Y-80390000D03*
X167815000Y-82890000D03*
X167815000Y-80390000D03*
X186315000Y-66220000D03*
X183815000Y-66220000D03*
D24*
X155810000Y-67680000D03*
X154810000Y-76180000D03*
G36*
G01*
X149610000Y-73629000D02*
X151010000Y-73629000D01*
G75*
G02*
X151061000Y-73680000I0J-51000D01*
G01*
X151061000Y-75680000D01*
G75*
G02*
X151010000Y-75731000I-51000J0D01*
G01*
X149610000Y-75731000D01*
G75*
G02*
X149559000Y-75680000I0J51000D01*
G01*
X149559000Y-73680000D01*
G75*
G02*
X149610000Y-73629000I51000J0D01*
G01*
G37*
X150310000Y-70680000D03*
X150310000Y-67680000D03*
D25*
X152610000Y-68980000D03*
X152610000Y-75980000D03*
D12*
X167725000Y-74980000D03*
X165185000Y-74980000D03*
G36*
G01*
X163495000Y-75881000D02*
X161795000Y-75881000D01*
G75*
G02*
X161744000Y-75830000I0J51000D01*
G01*
X161744000Y-74130000D01*
G75*
G02*
X161795000Y-74079000I51000J0D01*
G01*
X163495000Y-74079000D01*
G75*
G02*
X163546000Y-74130000I0J-51000D01*
G01*
X163546000Y-75830000D01*
G75*
G02*
X163495000Y-75881000I-51000J0D01*
G01*
G37*
G36*
G01*
X163495000Y-72961000D02*
X161795000Y-72961000D01*
G75*
G02*
X161744000Y-72910000I0J51000D01*
G01*
X161744000Y-71210000D01*
G75*
G02*
X161795000Y-71159000I51000J0D01*
G01*
X163495000Y-71159000D01*
G75*
G02*
X163546000Y-71210000I0J-51000D01*
G01*
X163546000Y-72910000D01*
G75*
G02*
X163495000Y-72961000I-51000J0D01*
G01*
G37*
X165185000Y-72060000D03*
X167725000Y-72060000D03*
X167725000Y-69140000D03*
X165185000Y-69140000D03*
G36*
G01*
X163495000Y-70041000D02*
X161795000Y-70041000D01*
G75*
G02*
X161744000Y-69990000I0J51000D01*
G01*
X161744000Y-68290000D01*
G75*
G02*
X161795000Y-68239000I51000J0D01*
G01*
X163495000Y-68239000D01*
G75*
G02*
X163546000Y-68290000I0J-51000D01*
G01*
X163546000Y-69990000D01*
G75*
G02*
X163495000Y-70041000I-51000J0D01*
G01*
G37*
G36*
G01*
X163495000Y-67121000D02*
X161795000Y-67121000D01*
G75*
G02*
X161744000Y-67070000I0J51000D01*
G01*
X161744000Y-65370000D01*
G75*
G02*
X161795000Y-65319000I51000J0D01*
G01*
X163495000Y-65319000D01*
G75*
G02*
X163546000Y-65370000I0J-51000D01*
G01*
X163546000Y-67070000D01*
G75*
G02*
X163495000Y-67121000I-51000J0D01*
G01*
G37*
X165185000Y-66220000D03*
X167725000Y-66220000D03*
D26*
X169525000Y-88500000D03*
X170795000Y-88500000D03*
G36*
G01*
X167679000Y-89250000D02*
X167679000Y-87750000D01*
G75*
G02*
X167730000Y-87699000I51000J0D01*
G01*
X168780000Y-87699000D01*
G75*
G02*
X168831000Y-87750000I0J-51000D01*
G01*
X168831000Y-89250000D01*
G75*
G02*
X168780000Y-89301000I-51000J0D01*
G01*
X167730000Y-89301000D01*
G75*
G02*
X167679000Y-89250000I0J51000D01*
G01*
G37*
D14*
X147152500Y-88700000D03*
D10*
X147152500Y-81080000D03*
D14*
X156272500Y-88700000D03*
D10*
X156272500Y-81080000D03*
X138032500Y-81080000D03*
D14*
X138032500Y-88700000D03*
D10*
X162352500Y-88700000D03*
D14*
X162352500Y-81080000D03*
X141072500Y-88700000D03*
D10*
X141072500Y-81080000D03*
X144112500Y-88700000D03*
D14*
X144112500Y-81080000D03*
D10*
X159312500Y-81080000D03*
D14*
X159312500Y-88700000D03*
D10*
X153232500Y-88700000D03*
D14*
X153232500Y-81080000D03*
D10*
X150192500Y-88700000D03*
D14*
X150192500Y-81080000D03*
G36*
G01*
X172284000Y-67020000D02*
X172284000Y-65420000D01*
G75*
G02*
X172335000Y-65369000I51000J0D01*
G01*
X173935000Y-65369000D01*
G75*
G02*
X173986000Y-65420000I0J-51000D01*
G01*
X173986000Y-67020000D01*
G75*
G02*
X173935000Y-67071000I-51000J0D01*
G01*
X172335000Y-67071000D01*
G75*
G02*
X172284000Y-67020000I0J51000D01*
G01*
G37*
D10*
X180755000Y-73840000D03*
X173135000Y-68760000D03*
X180755000Y-71300000D03*
X173135000Y-71300000D03*
X180755000Y-68760000D03*
X173135000Y-73840000D03*
X180755000Y-66220000D03*
G36*
G01*
X138411000Y-98080000D02*
X138411000Y-96480000D01*
G75*
G02*
X138462000Y-96429000I51000J0D01*
G01*
X140062000Y-96429000D01*
G75*
G02*
X140113000Y-96480000I0J-51000D01*
G01*
X140113000Y-98080000D01*
G75*
G02*
X140062000Y-98131000I-51000J0D01*
G01*
X138462000Y-98131000D01*
G75*
G02*
X138411000Y-98080000I0J51000D01*
G01*
G37*
X141802000Y-97280000D03*
X144342000Y-97280000D03*
X146882000Y-97280000D03*
X149422000Y-97280000D03*
X151962000Y-97280000D03*
X154502000Y-97280000D03*
X157042000Y-97280000D03*
X159582000Y-97280000D03*
X162122000Y-97280000D03*
G36*
G01*
X114299000Y-96091000D02*
X112599000Y-96091000D01*
G75*
G02*
X112548000Y-96040000I0J51000D01*
G01*
X112548000Y-94340000D01*
G75*
G02*
X112599000Y-94289000I51000J0D01*
G01*
X114299000Y-94289000D01*
G75*
G02*
X114350000Y-94340000I0J-51000D01*
G01*
X114350000Y-96040000D01*
G75*
G02*
X114299000Y-96091000I-51000J0D01*
G01*
G37*
D12*
X115989000Y-95190000D03*
X118529000Y-95190000D03*
X129705000Y-95190000D03*
X127165000Y-95190000D03*
G36*
G01*
X125475000Y-96091000D02*
X123775000Y-96091000D01*
G75*
G02*
X123724000Y-96040000I0J51000D01*
G01*
X123724000Y-94340000D01*
G75*
G02*
X123775000Y-94289000I51000J0D01*
G01*
X125475000Y-94289000D01*
G75*
G02*
X125526000Y-94340000I0J-51000D01*
G01*
X125526000Y-96040000D01*
G75*
G02*
X125475000Y-96091000I-51000J0D01*
G01*
G37*
G36*
G01*
X122211500Y-117960000D02*
X122211500Y-116260000D01*
G75*
G02*
X122262500Y-116209000I51000J0D01*
G01*
X123962500Y-116209000D01*
G75*
G02*
X124013500Y-116260000I0J-51000D01*
G01*
X124013500Y-117960000D01*
G75*
G02*
X123962500Y-118011000I-51000J0D01*
G01*
X122262500Y-118011000D01*
G75*
G02*
X122211500Y-117960000I0J51000D01*
G01*
G37*
X120572500Y-117110000D03*
X123112500Y-119650000D03*
X120572500Y-119650000D03*
X123112500Y-122190000D03*
X120572500Y-122190000D03*
X123112500Y-124730000D03*
X120572500Y-124730000D03*
X123112500Y-127270000D03*
X120572500Y-127270000D03*
X123112500Y-129810000D03*
X120572500Y-129810000D03*
X123112500Y-132350000D03*
X120572500Y-132350000D03*
X123112500Y-134890000D03*
X120572500Y-134890000D03*
X123112500Y-137430000D03*
X120572500Y-137430000D03*
X123112500Y-139970000D03*
X120572500Y-139970000D03*
X123112500Y-142510000D03*
X120572500Y-142510000D03*
X123112500Y-145050000D03*
X120572500Y-145050000D03*
X123112500Y-147590000D03*
X120572500Y-147590000D03*
X123112500Y-150130000D03*
X120572500Y-150130000D03*
X123112500Y-152670000D03*
X120572500Y-152670000D03*
X123112500Y-155210000D03*
X120572500Y-155210000D03*
X140780001Y-155210000D03*
X143320001Y-155210000D03*
X140780001Y-152670000D03*
X143320001Y-152670000D03*
X140780001Y-150130000D03*
X143320001Y-150130000D03*
X140780001Y-147590000D03*
X143320001Y-147590000D03*
X140780001Y-145050000D03*
X143320001Y-145050000D03*
X140780001Y-142510000D03*
X143320001Y-142510000D03*
X140780001Y-139970000D03*
X143320001Y-139970000D03*
X140780001Y-137430000D03*
X143320001Y-137430000D03*
X140780001Y-134890000D03*
X143320001Y-134890000D03*
X140780001Y-132350000D03*
X143320001Y-132350000D03*
X140780001Y-129810000D03*
X143320001Y-129810000D03*
X140780001Y-127270000D03*
X143320001Y-127270000D03*
X140780001Y-124730000D03*
X143320001Y-124730000D03*
X140780001Y-122190000D03*
X143320001Y-122190000D03*
X140780001Y-119650000D03*
X143320001Y-119650000D03*
X140780001Y-117110000D03*
G36*
G01*
X142419001Y-117960000D02*
X142419001Y-116260000D01*
G75*
G02*
X142470001Y-116209000I51000J0D01*
G01*
X144170001Y-116209000D01*
G75*
G02*
X144221001Y-116260000I0J-51000D01*
G01*
X144221001Y-117960000D01*
G75*
G02*
X144170001Y-118011000I-51000J0D01*
G01*
X142470001Y-118011000D01*
G75*
G02*
X142419001Y-117960000I0J51000D01*
G01*
G37*
G36*
G01*
X323405000Y-111826000D02*
X321705000Y-111826000D01*
G75*
G02*
X321654000Y-111775000I0J51000D01*
G01*
X321654000Y-110075000D01*
G75*
G02*
X321705000Y-110024000I51000J0D01*
G01*
X323405000Y-110024000D01*
G75*
G02*
X323456000Y-110075000I0J-51000D01*
G01*
X323456000Y-111775000D01*
G75*
G02*
X323405000Y-111826000I-51000J0D01*
G01*
G37*
X325095000Y-110925000D03*
X327635000Y-110925000D03*
D16*
X177245000Y-92525000D03*
X187245000Y-95025000D03*
X177245000Y-97525000D03*
G36*
G01*
X116529000Y-180730000D02*
X116529000Y-179030000D01*
G75*
G02*
X116580000Y-178979000I51000J0D01*
G01*
X118280000Y-178979000D01*
G75*
G02*
X118331000Y-179030000I0J-51000D01*
G01*
X118331000Y-180730000D01*
G75*
G02*
X118280000Y-180781000I-51000J0D01*
G01*
X116580000Y-180781000D01*
G75*
G02*
X116529000Y-180730000I0J51000D01*
G01*
G37*
D12*
X117430000Y-182420000D03*
G36*
G01*
X113989000Y-180730000D02*
X113989000Y-179030000D01*
G75*
G02*
X114040000Y-178979000I51000J0D01*
G01*
X115740000Y-178979000D01*
G75*
G02*
X115791000Y-179030000I0J-51000D01*
G01*
X115791000Y-180730000D01*
G75*
G02*
X115740000Y-180781000I-51000J0D01*
G01*
X114040000Y-180781000D01*
G75*
G02*
X113989000Y-180730000I0J51000D01*
G01*
G37*
X114890000Y-182420000D03*
X119970000Y-182420000D03*
G36*
G01*
X119069000Y-180730000D02*
X119069000Y-179030000D01*
G75*
G02*
X119120000Y-178979000I51000J0D01*
G01*
X120820000Y-178979000D01*
G75*
G02*
X120871000Y-179030000I0J-51000D01*
G01*
X120871000Y-180730000D01*
G75*
G02*
X120820000Y-180781000I-51000J0D01*
G01*
X119120000Y-180781000D01*
G75*
G02*
X119069000Y-180730000I0J51000D01*
G01*
G37*
G36*
G01*
X120705000Y-203451000D02*
X119005000Y-203451000D01*
G75*
G02*
X118954000Y-203400000I0J51000D01*
G01*
X118954000Y-201700000D01*
G75*
G02*
X119005000Y-201649000I51000J0D01*
G01*
X120705000Y-201649000D01*
G75*
G02*
X120756000Y-201700000I0J-51000D01*
G01*
X120756000Y-203400000D01*
G75*
G02*
X120705000Y-203451000I-51000J0D01*
G01*
G37*
X119855000Y-205090000D03*
X122395000Y-202550000D03*
X122395000Y-205090000D03*
X124935000Y-202550000D03*
X124935000Y-205090000D03*
X127475000Y-202550000D03*
X127475000Y-205090000D03*
G36*
G01*
X123360000Y-183321000D02*
X121660000Y-183321000D01*
G75*
G02*
X121609000Y-183270000I0J51000D01*
G01*
X121609000Y-181570000D01*
G75*
G02*
X121660000Y-181519000I51000J0D01*
G01*
X123360000Y-181519000D01*
G75*
G02*
X123411000Y-181570000I0J-51000D01*
G01*
X123411000Y-183270000D01*
G75*
G02*
X123360000Y-183321000I-51000J0D01*
G01*
G37*
X122510000Y-179880000D03*
X125050000Y-182420000D03*
X125050000Y-179880000D03*
X127590000Y-182420000D03*
X127590000Y-179880000D03*
X130130000Y-182420000D03*
X130130000Y-179880000D03*
X132670000Y-182420000D03*
X132670000Y-179880000D03*
X141595000Y-182420000D03*
X141595000Y-179880000D03*
X139055000Y-182420000D03*
G36*
G01*
X139905000Y-180781000D02*
X138205000Y-180781000D01*
G75*
G02*
X138154000Y-180730000I0J51000D01*
G01*
X138154000Y-179030000D01*
G75*
G02*
X138205000Y-178979000I51000J0D01*
G01*
X139905000Y-178979000D01*
G75*
G02*
X139956000Y-179030000I0J-51000D01*
G01*
X139956000Y-180730000D01*
G75*
G02*
X139905000Y-180781000I-51000J0D01*
G01*
G37*
G36*
G01*
X126740000Y-169919000D02*
X128440000Y-169919000D01*
G75*
G02*
X128491000Y-169970000I0J-51000D01*
G01*
X128491000Y-171670000D01*
G75*
G02*
X128440000Y-171721000I-51000J0D01*
G01*
X126740000Y-171721000D01*
G75*
G02*
X126689000Y-171670000I0J51000D01*
G01*
X126689000Y-169970000D01*
G75*
G02*
X126740000Y-169919000I51000J0D01*
G01*
G37*
X125050000Y-170820000D03*
X122510000Y-170820000D03*
X119970000Y-170820000D03*
X117430000Y-170820000D03*
X114890000Y-170820000D03*
G36*
G01*
X137515000Y-207461000D02*
X135815000Y-207461000D01*
G75*
G02*
X135764000Y-207410000I0J51000D01*
G01*
X135764000Y-205710000D01*
G75*
G02*
X135815000Y-205659000I51000J0D01*
G01*
X137515000Y-205659000D01*
G75*
G02*
X137566000Y-205710000I0J-51000D01*
G01*
X137566000Y-207410000D01*
G75*
G02*
X137515000Y-207461000I-51000J0D01*
G01*
G37*
X139205000Y-206560000D03*
X141745000Y-206560000D03*
X144285000Y-206560000D03*
X146825000Y-206560000D03*
X149365000Y-206560000D03*
X151905000Y-206560000D03*
X154445000Y-206560000D03*
X156985000Y-206560000D03*
X159525000Y-206560000D03*
X162065000Y-206560000D03*
X164605000Y-206560000D03*
G36*
G01*
X173075000Y-207461000D02*
X171375000Y-207461000D01*
G75*
G02*
X171324000Y-207410000I0J51000D01*
G01*
X171324000Y-205710000D01*
G75*
G02*
X171375000Y-205659000I51000J0D01*
G01*
X173075000Y-205659000D01*
G75*
G02*
X173126000Y-205710000I0J-51000D01*
G01*
X173126000Y-207410000D01*
G75*
G02*
X173075000Y-207461000I-51000J0D01*
G01*
G37*
X174765000Y-206560000D03*
X177305000Y-206560000D03*
X179845000Y-206560000D03*
X182385000Y-206560000D03*
X184925000Y-206560000D03*
X187465000Y-206560000D03*
X190005000Y-206560000D03*
X192545000Y-206560000D03*
X195085000Y-206560000D03*
X197625000Y-206560000D03*
X200165000Y-206560000D03*
G36*
G01*
X116342500Y-106726000D02*
X114642500Y-106726000D01*
G75*
G02*
X114591500Y-106675000I0J51000D01*
G01*
X114591500Y-104975000D01*
G75*
G02*
X114642500Y-104924000I51000J0D01*
G01*
X116342500Y-104924000D01*
G75*
G02*
X116393500Y-104975000I0J-51000D01*
G01*
X116393500Y-106675000D01*
G75*
G02*
X116342500Y-106726000I-51000J0D01*
G01*
G37*
X115492500Y-108365000D03*
X118032500Y-105825000D03*
X118032500Y-108365000D03*
X120572500Y-105825000D03*
X120572500Y-108365000D03*
X123112500Y-105825000D03*
X123112500Y-108365000D03*
X125652500Y-105825000D03*
X125652500Y-108365000D03*
X128192500Y-105825000D03*
X128192500Y-108365000D03*
X130732500Y-105825000D03*
X130732500Y-108365000D03*
X142595000Y-105825000D03*
X140055000Y-105825000D03*
G36*
G01*
X138365000Y-106726000D02*
X136665000Y-106726000D01*
G75*
G02*
X136614000Y-106675000I0J51000D01*
G01*
X136614000Y-104975000D01*
G75*
G02*
X136665000Y-104924000I51000J0D01*
G01*
X138365000Y-104924000D01*
G75*
G02*
X138416000Y-104975000I0J-51000D01*
G01*
X138416000Y-106675000D01*
G75*
G02*
X138365000Y-106726000I-51000J0D01*
G01*
G37*
G36*
G01*
X138365000Y-109266000D02*
X136665000Y-109266000D01*
G75*
G02*
X136614000Y-109215000I0J51000D01*
G01*
X136614000Y-107515000D01*
G75*
G02*
X136665000Y-107464000I51000J0D01*
G01*
X138365000Y-107464000D01*
G75*
G02*
X138416000Y-107515000I0J-51000D01*
G01*
X138416000Y-109215000D01*
G75*
G02*
X138365000Y-109266000I-51000J0D01*
G01*
G37*
X140055000Y-108365000D03*
X142595000Y-108365000D03*
D27*
X276522000Y-93333000D03*
X268902000Y-116193000D03*
X276522000Y-95873000D03*
X268902000Y-113653000D03*
X276522000Y-98413000D03*
X268902000Y-111113000D03*
X276522000Y-100953000D03*
X268902000Y-108573000D03*
X276522000Y-103493000D03*
X268902000Y-106033000D03*
X276522000Y-106033000D03*
X268902000Y-103493000D03*
X276522000Y-108573000D03*
X268902000Y-100953000D03*
X276522000Y-111113000D03*
X268902000Y-98413000D03*
X276522000Y-113653000D03*
X268902000Y-95873000D03*
X276522000Y-116193000D03*
G36*
G01*
X267651000Y-94133000D02*
X267651000Y-92533000D01*
G75*
G02*
X267702000Y-92482000I51000J0D01*
G01*
X270102000Y-92482000D01*
G75*
G02*
X270153000Y-92533000I0J-51000D01*
G01*
X270153000Y-94133000D01*
G75*
G02*
X270102000Y-94184000I-51000J0D01*
G01*
X267702000Y-94184000D01*
G75*
G02*
X267651000Y-94133000I0J51000D01*
G01*
G37*
G36*
G01*
X280857000Y-94133000D02*
X280857000Y-92533000D01*
G75*
G02*
X280908000Y-92482000I51000J0D01*
G01*
X283308000Y-92482000D01*
G75*
G02*
X283359000Y-92533000I0J-51000D01*
G01*
X283359000Y-94133000D01*
G75*
G02*
X283308000Y-94184000I-51000J0D01*
G01*
X280908000Y-94184000D01*
G75*
G02*
X280857000Y-94133000I0J51000D01*
G01*
G37*
X289728000Y-116193000D03*
X282108000Y-95873000D03*
X289728000Y-113653000D03*
X282108000Y-98413000D03*
X289728000Y-111113000D03*
X282108000Y-100953000D03*
X289728000Y-108573000D03*
X282108000Y-103493000D03*
X289728000Y-106033000D03*
X282108000Y-106033000D03*
X289728000Y-103493000D03*
X282108000Y-108573000D03*
X289728000Y-100953000D03*
X282108000Y-111113000D03*
X289728000Y-98413000D03*
X282108000Y-113653000D03*
X289728000Y-95873000D03*
X282108000Y-116193000D03*
X289728000Y-93333000D03*
G36*
G01*
X294164000Y-94133000D02*
X294164000Y-92533000D01*
G75*
G02*
X294215000Y-92482000I51000J0D01*
G01*
X296615000Y-92482000D01*
G75*
G02*
X296666000Y-92533000I0J-51000D01*
G01*
X296666000Y-94133000D01*
G75*
G02*
X296615000Y-94184000I-51000J0D01*
G01*
X294215000Y-94184000D01*
G75*
G02*
X294164000Y-94133000I0J51000D01*
G01*
G37*
X303035000Y-116193000D03*
X295415000Y-95873000D03*
X303035000Y-113653000D03*
X295415000Y-98413000D03*
X303035000Y-111113000D03*
X295415000Y-100953000D03*
X303035000Y-108573000D03*
X295415000Y-103493000D03*
X303035000Y-106033000D03*
X295415000Y-106033000D03*
X303035000Y-103493000D03*
X295415000Y-108573000D03*
X303035000Y-100953000D03*
X295415000Y-111113000D03*
X303035000Y-98413000D03*
X295415000Y-113653000D03*
X303035000Y-95873000D03*
X295415000Y-116193000D03*
X303035000Y-93333000D03*
X315728000Y-93333000D03*
X308108000Y-116193000D03*
X315728000Y-95873000D03*
X308108000Y-113653000D03*
X315728000Y-98413000D03*
X308108000Y-111113000D03*
X315728000Y-100953000D03*
X308108000Y-108573000D03*
X315728000Y-103493000D03*
X308108000Y-106033000D03*
X315728000Y-106033000D03*
X308108000Y-103493000D03*
X315728000Y-108573000D03*
X308108000Y-100953000D03*
X315728000Y-111113000D03*
X308108000Y-98413000D03*
X315728000Y-113653000D03*
X308108000Y-95873000D03*
X315728000Y-116193000D03*
G36*
G01*
X306857000Y-94133000D02*
X306857000Y-92533000D01*
G75*
G02*
X306908000Y-92482000I51000J0D01*
G01*
X309308000Y-92482000D01*
G75*
G02*
X309359000Y-92533000I0J-51000D01*
G01*
X309359000Y-94133000D01*
G75*
G02*
X309308000Y-94184000I-51000J0D01*
G01*
X306908000Y-94184000D01*
G75*
G02*
X306857000Y-94133000I0J51000D01*
G01*
G37*
G36*
G01*
X230084000Y-130860000D02*
X230084000Y-129160000D01*
G75*
G02*
X230135000Y-129109000I51000J0D01*
G01*
X231835000Y-129109000D01*
G75*
G02*
X231886000Y-129160000I0J-51000D01*
G01*
X231886000Y-130860000D01*
G75*
G02*
X231835000Y-130911000I-51000J0D01*
G01*
X230135000Y-130911000D01*
G75*
G02*
X230084000Y-130860000I0J51000D01*
G01*
G37*
D12*
X228445000Y-130010000D03*
X230985000Y-132550000D03*
X228445000Y-132550000D03*
X230985000Y-135090000D03*
X228445000Y-135090000D03*
X230985000Y-137630000D03*
X228445000Y-137630000D03*
X230985000Y-140170000D03*
X228445000Y-140170000D03*
X230985000Y-142710000D03*
X228445000Y-142710000D03*
X230985000Y-145250000D03*
X228445000Y-145250000D03*
X230985000Y-147790000D03*
X228445000Y-147790000D03*
X230985000Y-150330000D03*
X228445000Y-150330000D03*
X230985000Y-152870000D03*
X228445000Y-152870000D03*
X230985000Y-155410000D03*
X228445000Y-155410000D03*
X230985000Y-157950000D03*
X228445000Y-157950000D03*
X230985000Y-160490000D03*
X228445000Y-160490000D03*
G36*
G01*
X329040000Y-187215000D02*
X329040000Y-188915000D01*
G75*
G02*
X328989000Y-188966000I-51000J0D01*
G01*
X327289000Y-188966000D01*
G75*
G02*
X327238000Y-188915000I0J51000D01*
G01*
X327238000Y-187215000D01*
G75*
G02*
X327289000Y-187164000I51000J0D01*
G01*
X328989000Y-187164000D01*
G75*
G02*
X329040000Y-187215000I0J-51000D01*
G01*
G37*
X328139000Y-185525000D03*
X328139000Y-182985000D03*
D28*
G36*
X168832990Y-87868465D02*
G01*
X168835372Y-87892652D01*
X168842372Y-87915727D01*
X168853737Y-87936991D01*
X168869032Y-87955628D01*
X168887669Y-87970923D01*
X168908933Y-87982288D01*
X168932008Y-87989288D01*
X168955999Y-87991651D01*
X168979990Y-87989288D01*
X169003065Y-87982288D01*
X169024329Y-87970923D01*
X169043005Y-87955596D01*
X169044339Y-87954124D01*
X169046243Y-87953512D01*
X169047725Y-87954855D01*
X169047585Y-87956410D01*
X168994702Y-88055344D01*
X168962038Y-88163024D01*
X168951000Y-88275094D01*
X168951000Y-88724906D01*
X168962038Y-88836977D01*
X168994702Y-88944657D01*
X169047746Y-89043892D01*
X169049836Y-89046438D01*
X169050162Y-89048412D01*
X169048616Y-89049680D01*
X169046876Y-89049121D01*
X169034023Y-89036268D01*
X169013976Y-89022873D01*
X168991702Y-89013647D01*
X168968051Y-89008943D01*
X168943945Y-89008943D01*
X168920295Y-89013648D01*
X168898021Y-89022874D01*
X168877974Y-89036269D01*
X168860927Y-89053316D01*
X168847532Y-89073363D01*
X168838323Y-89095594D01*
X168832978Y-89131633D01*
X168831735Y-89133200D01*
X168829757Y-89132907D01*
X168829000Y-89131340D01*
X168829000Y-87868661D01*
X168830000Y-87866929D01*
X168832000Y-87866929D01*
X168832990Y-87868465D01*
G37*
G36*
X170268621Y-88046240D02*
G01*
X170268591Y-88048068D01*
X170264702Y-88055344D01*
X170232038Y-88163024D01*
X170221000Y-88275094D01*
X170221000Y-88724906D01*
X170232038Y-88836977D01*
X170264702Y-88944657D01*
X170268591Y-88951933D01*
X170268525Y-88953932D01*
X170266762Y-88954875D01*
X170265164Y-88953987D01*
X170255071Y-88938882D01*
X170238024Y-88921835D01*
X170217976Y-88908440D01*
X170195702Y-88899214D01*
X170172052Y-88894510D01*
X170147946Y-88894510D01*
X170124296Y-88899215D01*
X170102022Y-88908441D01*
X170081975Y-88921836D01*
X170064928Y-88938883D01*
X170054836Y-88953987D01*
X170053042Y-88954872D01*
X170051379Y-88953761D01*
X170051409Y-88951933D01*
X170055298Y-88944657D01*
X170087962Y-88836977D01*
X170099000Y-88724905D01*
X170099000Y-88275094D01*
X170087962Y-88163023D01*
X170055298Y-88055343D01*
X170051411Y-88048072D01*
X170051477Y-88046073D01*
X170053240Y-88045130D01*
X170054838Y-88046018D01*
X170064929Y-88061119D01*
X170081976Y-88078166D01*
X170102023Y-88091561D01*
X170124297Y-88100787D01*
X170147947Y-88105491D01*
X170172054Y-88105491D01*
X170195704Y-88100786D01*
X170217978Y-88091560D01*
X170238025Y-88078165D01*
X170255072Y-88061118D01*
X170265164Y-88046014D01*
X170266958Y-88045129D01*
X170268621Y-88046240D01*
G37*
G36*
X105025990Y-74165304D02*
G01*
X105043273Y-74340784D01*
X105094403Y-74509337D01*
X105177433Y-74664675D01*
X105289171Y-74800829D01*
X105425325Y-74912567D01*
X105580663Y-74995597D01*
X105749216Y-75046727D01*
X105924696Y-75064010D01*
X105926322Y-75065175D01*
X105926126Y-75067165D01*
X105924500Y-75068000D01*
X105868140Y-75068000D01*
X105867944Y-75067990D01*
X105698438Y-75051295D01*
X105698053Y-75051219D01*
X105540959Y-75003565D01*
X105540597Y-75003415D01*
X105395826Y-74926033D01*
X105395500Y-74925815D01*
X105268603Y-74821674D01*
X105268326Y-74821397D01*
X105164185Y-74694500D01*
X105163967Y-74694174D01*
X105086585Y-74549403D01*
X105086435Y-74549041D01*
X105038781Y-74391947D01*
X105038705Y-74391562D01*
X105022010Y-74222056D01*
X105022000Y-74221860D01*
X105022000Y-74165500D01*
X105023000Y-74163768D01*
X105025000Y-74163768D01*
X105025990Y-74165304D01*
G37*
G36*
X108627165Y-74163874D02*
G01*
X108628000Y-74165500D01*
X108628000Y-74221860D01*
X108627990Y-74222056D01*
X108611295Y-74391562D01*
X108611219Y-74391947D01*
X108563565Y-74549041D01*
X108563415Y-74549403D01*
X108486033Y-74694174D01*
X108485815Y-74694500D01*
X108381674Y-74821397D01*
X108381397Y-74821674D01*
X108254500Y-74925815D01*
X108254174Y-74926033D01*
X108109403Y-75003415D01*
X108109041Y-75003565D01*
X107951947Y-75051219D01*
X107951562Y-75051295D01*
X107782056Y-75067990D01*
X107781860Y-75068000D01*
X107725500Y-75068000D01*
X107723768Y-75067000D01*
X107723768Y-75065000D01*
X107725304Y-75064010D01*
X107900784Y-75046727D01*
X108069337Y-74995597D01*
X108224675Y-74912567D01*
X108360829Y-74800829D01*
X108472567Y-74664675D01*
X108555597Y-74509337D01*
X108606727Y-74340784D01*
X108624010Y-74165304D01*
X108625175Y-74163678D01*
X108627165Y-74163874D01*
G37*
G36*
X105926232Y-71463000D02*
G01*
X105926232Y-71465000D01*
X105924696Y-71465990D01*
X105749216Y-71483273D01*
X105580663Y-71534403D01*
X105425325Y-71617433D01*
X105289171Y-71729171D01*
X105177433Y-71865325D01*
X105094403Y-72020663D01*
X105043273Y-72189216D01*
X105025990Y-72364696D01*
X105024825Y-72366322D01*
X105022835Y-72366126D01*
X105022000Y-72364500D01*
X105022000Y-72308140D01*
X105022010Y-72307944D01*
X105038705Y-72138438D01*
X105038781Y-72138053D01*
X105086435Y-71980959D01*
X105086585Y-71980597D01*
X105163967Y-71835826D01*
X105164185Y-71835500D01*
X105268326Y-71708603D01*
X105268603Y-71708326D01*
X105395500Y-71604185D01*
X105395826Y-71603967D01*
X105540597Y-71526585D01*
X105540959Y-71526435D01*
X105698053Y-71478781D01*
X105698438Y-71478705D01*
X105867944Y-71462010D01*
X105868140Y-71462000D01*
X105924500Y-71462000D01*
X105926232Y-71463000D01*
G37*
G36*
X107782056Y-71462010D02*
G01*
X107951562Y-71478705D01*
X107951947Y-71478781D01*
X108109041Y-71526435D01*
X108109403Y-71526585D01*
X108254174Y-71603967D01*
X108254500Y-71604185D01*
X108381397Y-71708326D01*
X108381674Y-71708603D01*
X108485815Y-71835500D01*
X108486033Y-71835826D01*
X108563415Y-71980597D01*
X108563565Y-71980959D01*
X108611219Y-72138053D01*
X108611295Y-72138438D01*
X108627990Y-72307944D01*
X108628000Y-72308140D01*
X108628000Y-72364500D01*
X108627000Y-72366232D01*
X108625000Y-72366232D01*
X108624010Y-72364696D01*
X108606727Y-72189216D01*
X108555597Y-72020663D01*
X108472567Y-71865325D01*
X108360829Y-71729171D01*
X108224675Y-71617433D01*
X108069337Y-71534403D01*
X107900784Y-71483273D01*
X107725304Y-71465990D01*
X107723678Y-71464825D01*
X107723874Y-71462835D01*
X107725500Y-71462000D01*
X107781860Y-71462000D01*
X107782056Y-71462010D01*
G37*
G36*
X109725990Y-71040304D02*
G01*
X109740871Y-71191398D01*
X109784888Y-71336502D01*
X109856366Y-71470229D01*
X109952560Y-71587440D01*
X110069771Y-71683634D01*
X110203498Y-71755112D01*
X110348602Y-71799129D01*
X110499696Y-71814010D01*
X110501322Y-71815175D01*
X110501126Y-71817165D01*
X110499500Y-71818000D01*
X110443140Y-71818000D01*
X110442944Y-71817990D01*
X110297825Y-71803697D01*
X110297440Y-71803621D01*
X110163794Y-71763080D01*
X110163432Y-71762930D01*
X110040273Y-71697100D01*
X110039947Y-71696882D01*
X109931991Y-71608286D01*
X109931714Y-71608009D01*
X109843118Y-71500053D01*
X109842900Y-71499727D01*
X109777070Y-71376568D01*
X109776920Y-71376206D01*
X109736379Y-71242560D01*
X109736303Y-71242175D01*
X109722010Y-71097056D01*
X109722000Y-71096860D01*
X109722000Y-71040500D01*
X109723000Y-71038768D01*
X109725000Y-71038768D01*
X109725990Y-71040304D01*
G37*
G36*
X113327165Y-71038874D02*
G01*
X113328000Y-71040500D01*
X113328000Y-71096860D01*
X113327990Y-71097056D01*
X113313697Y-71242175D01*
X113313621Y-71242560D01*
X113273080Y-71376206D01*
X113272930Y-71376568D01*
X113207100Y-71499727D01*
X113206882Y-71500053D01*
X113118286Y-71608009D01*
X113118009Y-71608286D01*
X113010053Y-71696882D01*
X113009727Y-71697100D01*
X112886568Y-71762930D01*
X112886206Y-71763080D01*
X112752560Y-71803621D01*
X112752175Y-71803697D01*
X112607056Y-71817990D01*
X112606860Y-71818000D01*
X112550500Y-71818000D01*
X112548768Y-71817000D01*
X112548768Y-71815000D01*
X112550304Y-71814010D01*
X112701398Y-71799129D01*
X112846502Y-71755112D01*
X112980229Y-71683634D01*
X113097440Y-71587440D01*
X113193634Y-71470229D01*
X113265112Y-71336502D01*
X113309129Y-71191398D01*
X113324010Y-71040304D01*
X113325175Y-71038678D01*
X113327165Y-71038874D01*
G37*
G36*
X110501232Y-68713000D02*
G01*
X110501232Y-68715000D01*
X110499696Y-68715990D01*
X110348602Y-68730871D01*
X110203498Y-68774888D01*
X110069771Y-68846366D01*
X109952560Y-68942560D01*
X109856366Y-69059771D01*
X109784888Y-69193498D01*
X109740871Y-69338602D01*
X109725990Y-69489696D01*
X109724825Y-69491322D01*
X109722835Y-69491126D01*
X109722000Y-69489500D01*
X109722000Y-69433140D01*
X109722010Y-69432944D01*
X109736303Y-69287825D01*
X109736379Y-69287440D01*
X109776920Y-69153794D01*
X109777070Y-69153432D01*
X109842900Y-69030273D01*
X109843118Y-69029947D01*
X109931714Y-68921991D01*
X109931991Y-68921714D01*
X110039947Y-68833118D01*
X110040273Y-68832900D01*
X110163432Y-68767070D01*
X110163794Y-68766920D01*
X110297440Y-68726379D01*
X110297825Y-68726303D01*
X110442944Y-68712010D01*
X110443140Y-68712000D01*
X110499500Y-68712000D01*
X110501232Y-68713000D01*
G37*
G36*
X112607056Y-68712010D02*
G01*
X112752175Y-68726303D01*
X112752560Y-68726379D01*
X112886206Y-68766920D01*
X112886568Y-68767070D01*
X113009727Y-68832900D01*
X113010053Y-68833118D01*
X113118009Y-68921714D01*
X113118286Y-68921991D01*
X113206882Y-69029947D01*
X113207100Y-69030273D01*
X113272930Y-69153432D01*
X113273080Y-69153794D01*
X113313621Y-69287440D01*
X113313697Y-69287825D01*
X113327990Y-69432944D01*
X113328000Y-69433140D01*
X113328000Y-69489500D01*
X113327000Y-69491232D01*
X113325000Y-69491232D01*
X113324010Y-69489696D01*
X113309129Y-69338602D01*
X113265112Y-69193498D01*
X113193634Y-69059771D01*
X113097440Y-68942560D01*
X112980229Y-68846366D01*
X112846502Y-68774888D01*
X112701398Y-68730871D01*
X112550304Y-68715990D01*
X112548678Y-68714825D01*
X112548874Y-68712835D01*
X112550500Y-68712000D01*
X112606860Y-68712000D01*
X112607056Y-68712010D01*
G37*
M02*
