G04 #@! TF.GenerationSoftware,KiCad,Pcbnew,(5.1.9)-1*
G04 #@! TF.CreationDate,2023-06-01T16:11:40+01:00*
G04 #@! TF.ProjectId,AT65C02_HEX_rev003,41543635-4330-4325-9f48-45585f726576,Rev003*
G04 #@! TF.SameCoordinates,Original*
G04 #@! TF.FileFunction,Copper,L2,Bot*
G04 #@! TF.FilePolarity,Positive*
%FSLAX46Y46*%
G04 Gerber Fmt 4.6, Leading zero omitted, Abs format (unit mm)*
G04 Created by KiCad (PCBNEW (5.1.9)-1) date 2023-06-01 16:11:40*
%MOMM*%
%LPD*%
G01*
G04 APERTURE LIST*
G04 #@! TA.AperFunction,ComponentPad*
%ADD10C,1.600000*%
G04 #@! TD*
G04 #@! TA.AperFunction,ComponentPad*
%ADD11O,1.524000X2.524000*%
G04 #@! TD*
G04 #@! TA.AperFunction,ComponentPad*
%ADD12R,1.524000X2.524000*%
G04 #@! TD*
G04 #@! TA.AperFunction,ComponentPad*
%ADD13R,1.500000X1.050000*%
G04 #@! TD*
G04 #@! TA.AperFunction,ComponentPad*
%ADD14O,1.500000X1.050000*%
G04 #@! TD*
G04 #@! TA.AperFunction,ComponentPad*
%ADD15O,1.600000X1.600000*%
G04 #@! TD*
G04 #@! TA.AperFunction,ComponentPad*
%ADD16R,1.600000X1.600000*%
G04 #@! TD*
G04 #@! TA.AperFunction,ComponentPad*
%ADD17C,2.340000*%
G04 #@! TD*
G04 #@! TA.AperFunction,ComponentPad*
%ADD18O,1.700000X1.700000*%
G04 #@! TD*
G04 #@! TA.AperFunction,ComponentPad*
%ADD19R,1.700000X1.700000*%
G04 #@! TD*
G04 #@! TA.AperFunction,ViaPad*
%ADD20C,1.000000*%
G04 #@! TD*
G04 #@! TA.AperFunction,ViaPad*
%ADD21C,0.800000*%
G04 #@! TD*
G04 #@! TA.AperFunction,Conductor*
%ADD22C,0.152400*%
G04 #@! TD*
G04 #@! TA.AperFunction,Conductor*
%ADD23C,0.508000*%
G04 #@! TD*
G04 #@! TA.AperFunction,Conductor*
%ADD24C,0.254000*%
G04 #@! TD*
G04 #@! TA.AperFunction,Conductor*
%ADD25C,0.100000*%
G04 #@! TD*
G04 APERTURE END LIST*
D10*
X169015000Y-87050000D03*
X174015000Y-87050000D03*
X158242000Y-87050000D03*
X163242000Y-87050000D03*
X177565000Y-108525000D03*
X177565000Y-113525000D03*
D11*
X209438000Y-40042000D03*
X211978000Y-40042000D03*
X214518000Y-40042000D03*
X217058000Y-40042000D03*
X219598000Y-40042000D03*
X219598000Y-55282000D03*
X217058000Y-55282000D03*
X214518000Y-55282000D03*
X211978000Y-55282000D03*
D12*
X209438000Y-55282000D03*
D10*
X195290000Y-98750000D03*
X195290000Y-93750000D03*
D13*
X175006000Y-65620000D03*
D14*
X175006000Y-63080000D03*
X175006000Y-64350000D03*
X183166000Y-64350000D03*
X183166000Y-63080000D03*
D13*
X183166000Y-65620000D03*
D15*
X202910000Y-105525000D03*
D10*
X195290000Y-105525000D03*
X195290000Y-102150000D03*
D15*
X202910000Y-102150000D03*
D10*
X186806000Y-62290000D03*
D15*
X186806000Y-69910000D03*
X153162000Y-64520000D03*
D10*
X160782000Y-64520000D03*
D16*
X188722000Y-113538000D03*
D15*
X181102000Y-90678000D03*
X188722000Y-110998000D03*
X181102000Y-93218000D03*
X188722000Y-108458000D03*
X181102000Y-95758000D03*
X188722000Y-105918000D03*
X181102000Y-98298000D03*
X188722000Y-103378000D03*
X181102000Y-100838000D03*
X188722000Y-100838000D03*
X181102000Y-103378000D03*
X188722000Y-98298000D03*
X181102000Y-105918000D03*
X188722000Y-95758000D03*
X181102000Y-108458000D03*
X188722000Y-93218000D03*
X181102000Y-110998000D03*
X188722000Y-90678000D03*
X181102000Y-113538000D03*
D16*
X199040000Y-90678000D03*
D15*
X206660000Y-98298000D03*
X199040000Y-93218000D03*
X206660000Y-95758000D03*
X199040000Y-95758000D03*
X206660000Y-93218000D03*
X199040000Y-98298000D03*
X206660000Y-90678000D03*
D13*
X138424000Y-65620000D03*
D14*
X138424000Y-63080000D03*
X138424000Y-64350000D03*
X146529333Y-64350000D03*
X146529333Y-63080000D03*
D13*
X146529333Y-65620000D03*
D14*
X191210666Y-64350000D03*
X191210666Y-63080000D03*
D13*
X191210666Y-65620000D03*
X199316000Y-65620000D03*
D14*
X199316000Y-63080000D03*
X199316000Y-64350000D03*
D10*
X160782000Y-68160000D03*
D15*
X153162000Y-68160000D03*
D10*
X142064000Y-62290000D03*
D15*
X142064000Y-69910000D03*
X150169333Y-69910000D03*
D10*
X150169333Y-62290000D03*
D15*
X213360000Y-64520000D03*
D10*
X205740000Y-64520000D03*
D16*
X204470000Y-74930000D03*
D15*
X186690000Y-82550000D03*
X201930000Y-74930000D03*
X189230000Y-82550000D03*
X199390000Y-74930000D03*
X191770000Y-82550000D03*
X196850000Y-74930000D03*
X194310000Y-82550000D03*
X194310000Y-74930000D03*
X196850000Y-82550000D03*
X191770000Y-74930000D03*
X199390000Y-82550000D03*
X189230000Y-74930000D03*
X201930000Y-82550000D03*
X186690000Y-74930000D03*
X204470000Y-82550000D03*
X180167000Y-82550000D03*
X162387000Y-74930000D03*
X177627000Y-82550000D03*
X164927000Y-74930000D03*
X175087000Y-82550000D03*
X167467000Y-74930000D03*
X172547000Y-82550000D03*
X170007000Y-74930000D03*
X170007000Y-82550000D03*
X172547000Y-74930000D03*
X167467000Y-82550000D03*
X175087000Y-74930000D03*
X164927000Y-82550000D03*
X177627000Y-74930000D03*
X162387000Y-82550000D03*
D16*
X180167000Y-74930000D03*
D15*
X170688000Y-68160000D03*
D10*
X163068000Y-68160000D03*
D15*
X170688000Y-64520000D03*
D10*
X163068000Y-64520000D03*
D15*
X178646000Y-69910000D03*
D10*
X178646000Y-62290000D03*
X205740000Y-68160000D03*
D15*
X213360000Y-68160000D03*
D10*
X194850666Y-62290000D03*
D15*
X194850666Y-69910000D03*
D10*
X202956000Y-62290000D03*
D15*
X202956000Y-69910000D03*
D16*
X155864000Y-74930000D03*
D15*
X138084000Y-82550000D03*
X153324000Y-74930000D03*
X140624000Y-82550000D03*
X150784000Y-74930000D03*
X143164000Y-82550000D03*
X148244000Y-74930000D03*
X145704000Y-82550000D03*
X145704000Y-74930000D03*
X148244000Y-82550000D03*
X143164000Y-74930000D03*
X150784000Y-82550000D03*
X140624000Y-74930000D03*
X153324000Y-82550000D03*
X138084000Y-74930000D03*
X155864000Y-82550000D03*
D16*
X163576000Y-90678000D03*
D15*
X171196000Y-113538000D03*
X163576000Y-93218000D03*
X171196000Y-110998000D03*
X163576000Y-95758000D03*
X171196000Y-108458000D03*
X163576000Y-98298000D03*
X171196000Y-105918000D03*
X163576000Y-100838000D03*
X171196000Y-103378000D03*
X163576000Y-103378000D03*
X171196000Y-100838000D03*
X163576000Y-105918000D03*
X171196000Y-98298000D03*
X163576000Y-108458000D03*
X171196000Y-95758000D03*
X163576000Y-110998000D03*
X171196000Y-93218000D03*
X163576000Y-113538000D03*
X171196000Y-90678000D03*
X158242000Y-90678000D03*
X150622000Y-113538000D03*
X158242000Y-93218000D03*
X150622000Y-110998000D03*
X158242000Y-95758000D03*
X150622000Y-108458000D03*
X158242000Y-98298000D03*
X150622000Y-105918000D03*
X158242000Y-100838000D03*
X150622000Y-103378000D03*
X158242000Y-103378000D03*
X150622000Y-100838000D03*
X158242000Y-105918000D03*
X150622000Y-98298000D03*
X158242000Y-108458000D03*
X150622000Y-95758000D03*
X158242000Y-110998000D03*
X150622000Y-93218000D03*
X158242000Y-113538000D03*
D16*
X150622000Y-90678000D03*
D12*
X136940000Y-55028000D03*
D11*
X139480000Y-55028000D03*
X142020000Y-55028000D03*
X144560000Y-55028000D03*
X147100000Y-55028000D03*
X147100000Y-39788000D03*
X144560000Y-39788000D03*
X142020000Y-39788000D03*
X139480000Y-39788000D03*
X136940000Y-39788000D03*
X149640000Y-39788000D03*
X152180000Y-39788000D03*
X154720000Y-39788000D03*
X157260000Y-39788000D03*
X159800000Y-39788000D03*
X159800000Y-55028000D03*
X157260000Y-55028000D03*
X154720000Y-55028000D03*
X152180000Y-55028000D03*
D12*
X149640000Y-55028000D03*
X162340000Y-55028000D03*
D11*
X164880000Y-55028000D03*
X167420000Y-55028000D03*
X169960000Y-55028000D03*
X172500000Y-55028000D03*
X172500000Y-39788000D03*
X169960000Y-39788000D03*
X167420000Y-39788000D03*
X164880000Y-39788000D03*
X162340000Y-39788000D03*
X175040000Y-39788000D03*
X177580000Y-39788000D03*
X180120000Y-39788000D03*
X182660000Y-39788000D03*
X185200000Y-39788000D03*
X185200000Y-55028000D03*
X182660000Y-55028000D03*
X180120000Y-55028000D03*
X177580000Y-55028000D03*
D12*
X175040000Y-55028000D03*
X196738000Y-55282000D03*
D11*
X199278000Y-55282000D03*
X201818000Y-55282000D03*
X204358000Y-55282000D03*
X206898000Y-55282000D03*
X206898000Y-40042000D03*
X204358000Y-40042000D03*
X201818000Y-40042000D03*
X199278000Y-40042000D03*
X196738000Y-40042000D03*
D10*
X206660000Y-101350000D03*
X206660000Y-106350000D03*
D17*
X192565000Y-116250000D03*
X202565000Y-113750000D03*
X192565000Y-111250000D03*
X205840000Y-111250000D03*
X215840000Y-113750000D03*
X205840000Y-116250000D03*
D18*
X219440000Y-116455000D03*
X219440000Y-113915000D03*
D19*
X219440000Y-111375000D03*
X219260000Y-59950000D03*
D18*
X216720000Y-59950000D03*
X219260000Y-62490000D03*
X216720000Y-62490000D03*
X219260000Y-65030000D03*
X216720000Y-65030000D03*
X219260000Y-67570000D03*
X216720000Y-67570000D03*
X219260000Y-70110000D03*
X216720000Y-70110000D03*
X219260000Y-72650000D03*
X216720000Y-72650000D03*
X219260000Y-75190000D03*
X216720000Y-75190000D03*
X219260000Y-77730000D03*
X216720000Y-77730000D03*
X219260000Y-80270000D03*
X216720000Y-80270000D03*
X219260000Y-82810000D03*
X216720000Y-82810000D03*
X219260000Y-85350000D03*
X216720000Y-85350000D03*
X219260000Y-87890000D03*
X216720000Y-87890000D03*
X219260000Y-90430000D03*
X216720000Y-90430000D03*
D20*
X148415000Y-89325000D03*
X210140000Y-78925000D03*
X212715000Y-82850000D03*
D21*
X213718553Y-58149944D03*
X207518000Y-53086000D03*
X209804000Y-42672000D03*
X182198610Y-57882789D03*
X172630000Y-52750000D03*
X171466000Y-42164000D03*
X146558000Y-42418000D03*
D20*
X158720000Y-65620000D03*
D22*
X199040000Y-93218000D02*
X200808000Y-93218000D01*
X203348000Y-95758000D02*
X206660000Y-95758000D01*
X200808000Y-93218000D02*
X203348000Y-95758000D01*
D23*
X161642000Y-88650000D02*
X163242000Y-87050000D01*
X157110630Y-87050000D02*
X158242000Y-87050000D01*
X148965000Y-87050000D02*
X157110630Y-87050000D01*
X147365000Y-115300000D02*
X147365000Y-88650000D01*
X147365000Y-88650000D02*
X148965000Y-87050000D01*
X177565000Y-113525000D02*
X173340000Y-117750000D01*
X149815000Y-117750000D02*
X147365000Y-115300000D01*
X173340000Y-117750000D02*
X149815000Y-117750000D01*
D22*
X202910000Y-105525000D02*
X201765000Y-105525000D01*
X198390000Y-102150000D02*
X195340000Y-102150000D01*
X201765000Y-105525000D02*
X198390000Y-102150000D01*
X141652601Y-70321399D02*
X142064000Y-69910000D01*
X178646000Y-69910000D02*
X180286000Y-68270000D01*
X193210666Y-68270000D02*
X194850666Y-69910000D01*
X180286000Y-68270000D02*
X193210666Y-68270000D01*
X162354000Y-91900000D02*
X163576000Y-90678000D01*
X153994000Y-91900000D02*
X162354000Y-91900000D01*
X152772000Y-90678000D02*
X153994000Y-91900000D01*
X150622000Y-90678000D02*
X152772000Y-90678000D01*
X165361134Y-95049536D02*
X165760378Y-95448780D01*
X170191601Y-112026601D02*
X187210601Y-112026601D01*
X165760379Y-107595379D02*
X170191601Y-112026601D01*
X163576000Y-90678000D02*
X164528400Y-90678000D01*
X165760378Y-95448780D02*
X165760379Y-107595379D01*
X165361134Y-91510734D02*
X165361134Y-95049536D01*
X164528400Y-90678000D02*
X165361134Y-91510734D01*
X187210601Y-112026601D02*
X188722000Y-113538000D01*
X194782000Y-95758000D02*
X199040000Y-95758000D01*
X193544810Y-96995190D02*
X194782000Y-95758000D01*
X193544810Y-107945190D02*
X193544810Y-96995190D01*
X188722000Y-112768000D02*
X193544810Y-107945190D01*
X188722000Y-113538000D02*
X188722000Y-112768000D01*
X139326400Y-63080000D02*
X142020000Y-60386400D01*
X138424000Y-63080000D02*
X139326400Y-63080000D01*
X142020000Y-60386400D02*
X142020000Y-55028000D01*
X192790666Y-64350000D02*
X194850666Y-62290000D01*
X191210666Y-64350000D02*
X192790666Y-64350000D01*
X201818000Y-55992000D02*
X201818000Y-55282000D01*
X199644000Y-58166000D02*
X201818000Y-55992000D01*
X192024000Y-58166000D02*
X199644000Y-58166000D01*
X191262000Y-58928000D02*
X192024000Y-58166000D01*
X191262000Y-63028666D02*
X191262000Y-58928000D01*
X191210666Y-63080000D02*
X191262000Y-63028666D01*
X199316000Y-63080000D02*
X199316000Y-59510000D01*
X200676056Y-58149944D02*
X213718553Y-58149944D01*
X199316000Y-59510000D02*
X200676056Y-58149944D01*
X199316000Y-64350000D02*
X200318000Y-64350000D01*
X200896000Y-64350000D02*
X200318000Y-64350000D01*
X202956000Y-62290000D02*
X200896000Y-64350000D01*
X154344000Y-68160000D02*
X153162000Y-68160000D01*
X158750000Y-63754000D02*
X154344000Y-68160000D01*
X158750000Y-43818000D02*
X158750000Y-63754000D01*
X154720000Y-39788000D02*
X158750000Y-43818000D01*
X192859398Y-87376000D02*
X196390208Y-83845189D01*
X198090000Y-81310000D02*
X204470000Y-74930000D01*
X198090000Y-82795398D02*
X198090000Y-81310000D01*
X197040209Y-83845189D02*
X198090000Y-82795398D01*
X196390208Y-83845189D02*
X197040209Y-83845189D01*
X188739000Y-87376000D02*
X192859398Y-87376000D01*
X184962811Y-91152189D02*
X188739000Y-87376000D01*
X184962811Y-104597189D02*
X184962811Y-91152189D01*
X181102000Y-108458000D02*
X184962811Y-104597189D01*
X184658000Y-103532000D02*
X182272000Y-105918000D01*
X188612744Y-87071189D02*
X184658000Y-91025933D01*
X182272000Y-105918000D02*
X181102000Y-105918000D01*
X184658000Y-91025933D02*
X184658000Y-103532000D01*
X192443811Y-87071189D02*
X188612744Y-87071189D01*
X195540000Y-83975000D02*
X192443811Y-87071189D01*
X195540000Y-81320000D02*
X195540000Y-83975000D01*
X201930000Y-74930000D02*
X195540000Y-81320000D01*
X196738000Y-40042000D02*
X198934000Y-37846000D01*
X207242000Y-37846000D02*
X209438000Y-40042000D01*
X198934000Y-37846000D02*
X207242000Y-37846000D01*
X193040000Y-81280000D02*
X199390000Y-74930000D01*
X193040000Y-83950000D02*
X193040000Y-81280000D01*
X190223622Y-86766378D02*
X193040000Y-83950000D01*
X188486488Y-86766378D02*
X190223622Y-86766378D01*
X184334244Y-90918622D02*
X188486488Y-86766378D01*
X184334244Y-101405756D02*
X184334244Y-90918622D01*
X182362000Y-103378000D02*
X184334244Y-101405756D01*
X181102000Y-103378000D02*
X182362000Y-103378000D01*
X211978000Y-41456400D02*
X211978000Y-40042000D01*
X201763600Y-43942000D02*
X209492400Y-43942000D01*
X209492400Y-43942000D02*
X211978000Y-41456400D01*
X199278000Y-41456400D02*
X201763600Y-43942000D01*
X199278000Y-40042000D02*
X199278000Y-41456400D01*
X190515000Y-81265000D02*
X196850000Y-74930000D01*
X190515000Y-84225000D02*
X190515000Y-81265000D01*
X184029433Y-90710567D02*
X190515000Y-84225000D01*
X184029433Y-99260567D02*
X184029433Y-90710567D01*
X182452000Y-100838000D02*
X184029433Y-99260567D01*
X181102000Y-100838000D02*
X182452000Y-100838000D01*
X209438000Y-53867600D02*
X209438000Y-55282000D01*
X207386400Y-51816000D02*
X209438000Y-53867600D01*
X198789600Y-51816000D02*
X207386400Y-51816000D01*
X196738000Y-53867600D02*
X198789600Y-51816000D01*
X196738000Y-55282000D02*
X196738000Y-53867600D01*
X187965000Y-86325000D02*
X187965000Y-81275000D01*
X183724622Y-90565378D02*
X187965000Y-86325000D01*
X187965000Y-81275000D02*
X194310000Y-74930000D01*
X183724622Y-97040378D02*
X183724622Y-90565378D01*
X182467000Y-98298000D02*
X183724622Y-97040378D01*
X181102000Y-98298000D02*
X182467000Y-98298000D01*
X199644000Y-53086000D02*
X207518000Y-53086000D01*
X199278000Y-53452000D02*
X199644000Y-53086000D01*
X199278000Y-55282000D02*
X199278000Y-53452000D01*
X207518000Y-53086000D02*
X207518000Y-53086000D01*
X190970001Y-75729999D02*
X191770000Y-74930000D01*
X185661399Y-81038601D02*
X190970001Y-75729999D01*
X185661399Y-88178601D02*
X185661399Y-81038601D01*
X183419811Y-94595189D02*
X183419811Y-90420189D01*
X182257000Y-95758000D02*
X183419811Y-94595189D01*
X183419811Y-90420189D02*
X185661399Y-88178601D01*
X181102000Y-95758000D02*
X182257000Y-95758000D01*
X217170000Y-55394000D02*
X217058000Y-55282000D01*
X217170000Y-56642000D02*
X217170000Y-55394000D01*
X216734590Y-57077410D02*
X217170000Y-56642000D01*
X206153410Y-57077410D02*
X216734590Y-57077410D01*
X204358000Y-55282000D02*
X206153410Y-57077410D01*
X185215000Y-88100000D02*
X185215000Y-78945000D01*
X183115000Y-90200000D02*
X185215000Y-88100000D01*
X188430001Y-75729999D02*
X189230000Y-74930000D01*
X185215000Y-78945000D02*
X188430001Y-75729999D01*
X183115000Y-92325000D02*
X183115000Y-90200000D01*
X182222000Y-93218000D02*
X183115000Y-92325000D01*
X181102000Y-93218000D02*
X182222000Y-93218000D01*
X205232000Y-42672000D02*
X209804000Y-42672000D01*
X204358000Y-41798000D02*
X205232000Y-42672000D01*
X209804000Y-42672000D02*
X209804000Y-42672000D01*
X204358000Y-40042000D02*
X204358000Y-41798000D01*
X166065189Y-105867189D02*
X170396001Y-110198001D01*
X165965945Y-75968945D02*
X165965945Y-85018721D01*
X166065189Y-95322524D02*
X166065189Y-105867189D01*
X165665945Y-94923280D02*
X166065189Y-95322524D01*
X164927000Y-74930000D02*
X165965945Y-75968945D01*
X165665945Y-85318720D02*
X165665945Y-94923280D01*
X165965945Y-85018721D02*
X165665945Y-85318720D01*
X170396001Y-110198001D02*
X171196000Y-110998000D01*
X171196000Y-108458000D02*
X166370000Y-103632000D01*
X166345756Y-85069977D02*
X166345756Y-76051244D01*
X166370000Y-103632000D02*
X166370000Y-95196268D01*
X165970756Y-94797024D02*
X165970756Y-85444976D01*
X166345756Y-76051244D02*
X166667001Y-75729999D01*
X165970756Y-85444976D02*
X166345756Y-85069977D01*
X166370000Y-95196268D02*
X165970756Y-94797024D01*
X166667001Y-75729999D02*
X167467000Y-74930000D01*
X166275567Y-85571232D02*
X166275567Y-94670768D01*
X168915000Y-82931799D02*
X166275567Y-85571232D01*
X168915000Y-76022000D02*
X168915000Y-82931799D01*
X166275567Y-94670768D02*
X166776378Y-95171579D01*
X166776378Y-101498378D02*
X170396001Y-105118001D01*
X170396001Y-105118001D02*
X171196000Y-105918000D01*
X170007000Y-74930000D02*
X168915000Y-76022000D01*
X166776378Y-95171579D02*
X166776378Y-101498378D01*
X171747001Y-75729999D02*
X172547000Y-74930000D01*
X171090000Y-76387000D02*
X171747001Y-75729999D01*
X171090000Y-83418934D02*
X171090000Y-76387000D01*
X170393556Y-84115378D02*
X171090000Y-83418934D01*
X168162488Y-84115378D02*
X170393556Y-84115378D01*
X166580378Y-85697488D02*
X168162488Y-84115378D01*
X166580378Y-94544512D02*
X166580378Y-85697488D01*
X167081189Y-95045323D02*
X166580378Y-94544512D01*
X167081189Y-99263189D02*
X167081189Y-95045323D01*
X171196000Y-103378000D02*
X167081189Y-99263189D01*
X171465000Y-78552000D02*
X175087000Y-74930000D01*
X168288744Y-84420189D02*
X170519811Y-84420189D01*
X166885189Y-85823744D02*
X168288744Y-84420189D01*
X167410189Y-94943256D02*
X166885189Y-94418256D01*
X166885189Y-94418256D02*
X166885189Y-85823744D01*
X167410189Y-97052189D02*
X167410189Y-94943256D01*
X171465000Y-83475000D02*
X171465000Y-78552000D01*
X170519811Y-84420189D02*
X171465000Y-83475000D01*
X171196000Y-100838000D02*
X167410189Y-97052189D01*
X167190000Y-94292000D02*
X171196000Y-98298000D01*
X177580000Y-74977000D02*
X177580000Y-80020000D01*
X177627000Y-74930000D02*
X177580000Y-74977000D01*
X177580000Y-80020000D02*
X176480000Y-81120000D01*
X176480000Y-81120000D02*
X176480000Y-81880000D01*
X176480000Y-81880000D02*
X176490000Y-81890000D01*
X168415000Y-84725000D02*
X167190000Y-85950000D01*
X176490000Y-81890000D02*
X176490000Y-83152128D01*
X174917128Y-84725000D02*
X168415000Y-84725000D01*
X176490000Y-83152128D02*
X174917128Y-84725000D01*
X167190000Y-85950000D02*
X167190000Y-94292000D01*
X180167000Y-77043000D02*
X180167000Y-74930000D01*
X179060000Y-87894000D02*
X179060000Y-78150000D01*
X171196000Y-95758000D02*
X179060000Y-87894000D01*
X179060000Y-78150000D02*
X180167000Y-77043000D01*
X214670334Y-79025000D02*
X217965000Y-79025000D01*
X217965000Y-79025000D02*
X219260000Y-77730000D01*
X197526512Y-86588488D02*
X207106847Y-86588488D01*
X193240000Y-106480000D02*
X193240000Y-90875000D01*
X193240000Y-90875000D02*
X197526512Y-86588488D01*
X207106847Y-86588488D02*
X214670334Y-79025000D01*
X188722000Y-110998000D02*
X193240000Y-106480000D01*
X190232000Y-108458000D02*
X189853370Y-108458000D01*
X192935189Y-105754811D02*
X190232000Y-108458000D01*
X192935189Y-90748744D02*
X192935189Y-105754811D01*
X197400256Y-86283677D02*
X192935189Y-90748744D01*
X214759244Y-78505024D02*
X206980591Y-86283677D01*
X214759244Y-77430756D02*
X214759244Y-78505024D01*
X215538601Y-76651399D02*
X214759244Y-77430756D01*
X189853370Y-108458000D02*
X188722000Y-108458000D01*
X217798601Y-76651399D02*
X215538601Y-76651399D01*
X206980591Y-86283677D02*
X197400256Y-86283677D01*
X219260000Y-75190000D02*
X217798601Y-76651399D01*
X218181399Y-73728601D02*
X219260000Y-72650000D01*
X214454433Y-78378768D02*
X214454433Y-75335567D01*
X192630378Y-102009622D02*
X192630378Y-90622488D01*
X216061399Y-73728601D02*
X218181399Y-73728601D01*
X214454433Y-75335567D02*
X216061399Y-73728601D01*
X206854335Y-85978866D02*
X214454433Y-78378768D01*
X192630378Y-90622488D02*
X197274000Y-85978866D01*
X188722000Y-105918000D02*
X192630378Y-102009622D01*
X197274000Y-85978866D02*
X206854335Y-85978866D01*
X192325567Y-99774433D02*
X188722000Y-103378000D01*
X197147744Y-85674055D02*
X192325567Y-90496232D01*
X206728079Y-85674055D02*
X197147744Y-85674055D01*
X192325567Y-90496232D02*
X192325567Y-99774433D01*
X214149622Y-78252512D02*
X206728079Y-85674055D01*
X215851399Y-71188601D02*
X214149622Y-72890378D01*
X218181399Y-71188601D02*
X215851399Y-71188601D01*
X214149622Y-72890378D02*
X214149622Y-78252512D01*
X219260000Y-70110000D02*
X218181399Y-71188601D01*
X206601823Y-85369244D02*
X213844811Y-78126256D01*
X218181399Y-68648601D02*
X219260000Y-67570000D01*
X192020756Y-97539244D02*
X192020756Y-90369976D01*
X213844811Y-78126256D02*
X213844811Y-70426255D01*
X197021488Y-85369244D02*
X206601823Y-85369244D01*
X215622465Y-68648601D02*
X218181399Y-68648601D01*
X188722000Y-100838000D02*
X192020756Y-97539244D01*
X213844811Y-70426255D02*
X215622465Y-68648601D01*
X192020756Y-90369976D02*
X197021488Y-85369244D01*
X191715945Y-95304055D02*
X188722000Y-98298000D01*
X191715945Y-90243720D02*
X191715945Y-95304055D01*
X196895232Y-85064433D02*
X191715945Y-90243720D01*
X206475567Y-85064433D02*
X196895232Y-85064433D01*
X213540000Y-78000000D02*
X206475567Y-85064433D01*
X213540000Y-70025000D02*
X213540000Y-78000000D01*
X215465000Y-64350000D02*
X215465000Y-68100000D01*
X216065000Y-63750000D02*
X215465000Y-64350000D01*
X217980000Y-63750000D02*
X216065000Y-63750000D01*
X215465000Y-68100000D02*
X213540000Y-70025000D01*
X219260000Y-65030000D02*
X217980000Y-63750000D01*
X218103412Y-61333412D02*
X219260000Y-62490000D01*
X212281588Y-61333412D02*
X218103412Y-61333412D01*
X208415000Y-65200000D02*
X212281588Y-61333412D01*
X188722000Y-95758000D02*
X191411134Y-93068866D01*
X191411134Y-93068866D02*
X191411134Y-90117464D01*
X191411134Y-90117464D02*
X196768976Y-84759622D01*
X196768976Y-84759622D02*
X205742512Y-84759622D01*
X205742512Y-84759622D02*
X208415000Y-82087134D01*
X208415000Y-82087134D02*
X208415000Y-65200000D01*
X196642720Y-84454811D02*
X191106323Y-89991208D01*
X205616256Y-84454811D02*
X196642720Y-84454811D01*
X219260000Y-59950000D02*
X218181399Y-61028601D01*
X208110189Y-81960878D02*
X205616256Y-84454811D01*
X189853370Y-93218000D02*
X188722000Y-93218000D01*
X218181399Y-61028601D02*
X212155332Y-61028601D01*
X208110189Y-65073744D02*
X208110189Y-81960878D01*
X212155332Y-61028601D02*
X208110189Y-65073744D01*
X191106323Y-91965047D02*
X189853370Y-93218000D01*
X191106323Y-89991208D02*
X191106323Y-91965047D01*
X168800000Y-65272000D02*
X170688000Y-67160000D01*
X168800000Y-41168000D02*
X168800000Y-65272000D01*
X167420000Y-39788000D02*
X168800000Y-41168000D01*
X170688000Y-67160000D02*
X170688000Y-68160000D01*
X180120000Y-43654000D02*
X180120000Y-39788000D01*
X171487999Y-52286001D02*
X180120000Y-43654000D01*
X171487999Y-63720001D02*
X171487999Y-52286001D01*
X170688000Y-64520000D02*
X171487999Y-63720001D01*
X153162000Y-61010337D02*
X153162000Y-64520000D01*
X151189390Y-54161390D02*
X151189390Y-59037727D01*
X144322811Y-47294811D02*
X151189390Y-54161390D01*
X151189390Y-59037727D02*
X153162000Y-61010337D01*
X144322811Y-44199744D02*
X144322811Y-47294811D01*
X142020000Y-41896934D02*
X144322811Y-44199744D01*
X142020000Y-39788000D02*
X142020000Y-41896934D01*
X207107389Y-61157611D02*
X207107389Y-66792611D01*
X213962884Y-58794602D02*
X209470398Y-58794602D01*
X214890096Y-57867389D02*
X213962884Y-58794602D01*
X214518000Y-41456400D02*
X218048610Y-44987010D01*
X216932325Y-57867389D02*
X214890096Y-57867389D01*
X218048610Y-56751104D02*
X216932325Y-57867389D01*
X209470398Y-58794602D02*
X207107389Y-61157611D01*
X207107389Y-66792611D02*
X205740000Y-68160000D01*
X218048610Y-44987010D02*
X218048610Y-56751104D01*
X214518000Y-40042000D02*
X214518000Y-41456400D01*
X169960000Y-39788000D02*
X171968000Y-37780000D01*
X171968000Y-37780000D02*
X182370000Y-37780000D01*
X182660000Y-38070000D02*
X182660000Y-39788000D01*
X182370000Y-37780000D02*
X182660000Y-38070000D01*
X184285600Y-39788000D02*
X185200000Y-39788000D01*
X184020000Y-40053600D02*
X184285600Y-39788000D01*
X177270000Y-71360000D02*
X177270000Y-65751066D01*
X184020000Y-59001066D02*
X184020000Y-40053600D01*
X178755190Y-72845190D02*
X177270000Y-71360000D01*
X178755190Y-75324140D02*
X178755190Y-72845190D01*
X178426999Y-75652331D02*
X178755190Y-75324140D01*
X177627000Y-82550000D02*
X178426999Y-81750001D01*
X178426999Y-81750001D02*
X178426999Y-75652331D01*
X177270000Y-65751066D02*
X184020000Y-59001066D01*
X182660000Y-55028000D02*
X182660000Y-57421399D01*
X182660000Y-57421399D02*
X182198610Y-57882789D01*
X182198610Y-60391390D02*
X182198610Y-57882789D01*
X176598399Y-65991601D02*
X182198610Y-60391390D01*
X175087000Y-82550000D02*
X175087000Y-80441066D01*
X175087000Y-80441066D02*
X176598399Y-78929667D01*
X176598399Y-78929667D02*
X176598399Y-65991601D01*
X176115601Y-56492399D02*
X177580000Y-55028000D01*
X176115601Y-78981399D02*
X176115601Y-56492399D01*
X172547000Y-82550000D02*
X176115601Y-78981399D01*
X172630000Y-52750000D02*
X177090000Y-52750000D01*
X177580000Y-53240000D02*
X177580000Y-55028000D01*
X177090000Y-52750000D02*
X177580000Y-53240000D01*
X171740000Y-67630330D02*
X172920000Y-66450330D01*
X171740000Y-74214670D02*
X171740000Y-67630330D01*
X171518399Y-74436271D02*
X171740000Y-74214670D01*
X171518399Y-74940931D02*
X171518399Y-74436271D01*
X172920000Y-57148000D02*
X175040000Y-55028000D01*
X170007000Y-76452330D02*
X171518399Y-74940931D01*
X172920000Y-66450330D02*
X172920000Y-57148000D01*
X170007000Y-82550000D02*
X170007000Y-76452330D01*
X163889390Y-40778610D02*
X164880000Y-39788000D01*
X163889390Y-60792456D02*
X163889390Y-40778610D01*
X168495601Y-65398667D02*
X163889390Y-60792456D01*
X168495601Y-81521399D02*
X168495601Y-65398667D01*
X167467000Y-82550000D02*
X168495601Y-81521399D01*
X171466000Y-42164000D02*
X174566000Y-42164000D01*
X175040000Y-41690000D02*
X175040000Y-39788000D01*
X174566000Y-42164000D02*
X175040000Y-41690000D01*
X163898399Y-74436271D02*
X163898399Y-81521399D01*
X164096601Y-74238069D02*
X163898399Y-74436271D01*
X164096601Y-63026271D02*
X164096601Y-74238069D01*
X161349399Y-60279069D02*
X164096601Y-63026271D01*
X161349399Y-40778601D02*
X161349399Y-60279069D01*
X163898399Y-81521399D02*
X164927000Y-82550000D01*
X162340000Y-39788000D02*
X161349399Y-40778601D01*
X146558000Y-42418000D02*
X149352000Y-42418000D01*
X149640000Y-42130000D02*
X149640000Y-39788000D01*
X149352000Y-42418000D02*
X149640000Y-42130000D01*
X136906000Y-63209000D02*
X136906000Y-67310000D01*
X135790000Y-62093000D02*
X136906000Y-63209000D01*
X139446000Y-81372000D02*
X140624000Y-82550000D01*
X136906000Y-67310000D02*
X139446000Y-69850000D01*
X135790000Y-57968670D02*
X135790000Y-62093000D01*
X137943601Y-57421399D02*
X136337271Y-57421399D01*
X136337271Y-57421399D02*
X135790000Y-57968670D01*
X138290000Y-57075000D02*
X137943601Y-57421399D01*
X139446000Y-69850000D02*
X139446000Y-81372000D01*
X138290000Y-41138000D02*
X138290000Y-57075000D01*
X136940000Y-39788000D02*
X138290000Y-41138000D01*
X142135399Y-81521399D02*
X143164000Y-82550000D01*
X142135399Y-73354601D02*
X142135399Y-81521399D01*
X144018000Y-71472000D02*
X142135399Y-73354601D01*
X144018000Y-57658000D02*
X144018000Y-71472000D01*
X143256000Y-56896000D02*
X144018000Y-57658000D01*
X143256000Y-43564000D02*
X143256000Y-56896000D01*
X139480000Y-39788000D02*
X143256000Y-43564000D01*
X144526000Y-60142000D02*
X149640000Y-55028000D01*
X144526000Y-81372000D02*
X144526000Y-60142000D01*
X145704000Y-82550000D02*
X144526000Y-81372000D01*
X149098000Y-76778330D02*
X149098000Y-81696000D01*
X149272601Y-76603729D02*
X149098000Y-76778330D01*
X148590000Y-71120000D02*
X149272601Y-71802601D01*
X149676000Y-65970000D02*
X148590000Y-67056000D01*
X153795000Y-65970000D02*
X149676000Y-65970000D01*
X154686000Y-65079000D02*
X153795000Y-65970000D01*
X154686000Y-59944000D02*
X154686000Y-65079000D01*
X152180000Y-57438000D02*
X154686000Y-59944000D01*
X152180000Y-55028000D02*
X152180000Y-57438000D01*
X149272601Y-71802601D02*
X149272601Y-76603729D01*
X148590000Y-67056000D02*
X148590000Y-71120000D01*
X149098000Y-81696000D02*
X148244000Y-82550000D01*
X151384000Y-67741068D02*
X152850257Y-66274811D01*
X153921256Y-66274811D02*
X154990811Y-65205256D01*
X151812601Y-71802601D02*
X151384000Y-71374000D01*
X157260000Y-56442400D02*
X157260000Y-55028000D01*
X154990811Y-65205256D02*
X154990811Y-58711589D01*
X151384000Y-71374000D02*
X151384000Y-67741068D01*
X151812601Y-81521399D02*
X151812601Y-71802601D01*
X150784000Y-82550000D02*
X151812601Y-81521399D01*
X154990811Y-58711589D02*
X157260000Y-56442400D01*
X152850257Y-66274811D02*
X153921256Y-66274811D01*
X160790610Y-40778610D02*
X159800000Y-39788000D01*
X160790610Y-58157390D02*
X160790610Y-40778610D01*
X159054809Y-63880257D02*
X159054809Y-59893191D01*
X159054809Y-59893191D02*
X160790610Y-58157390D01*
X154352601Y-68582465D02*
X159054809Y-63880257D01*
X154352601Y-81521399D02*
X154352601Y-68582465D01*
X153324000Y-82550000D02*
X154352601Y-81521399D01*
X144560000Y-39788000D02*
X146756000Y-37592000D01*
X155064000Y-37592000D02*
X157260000Y-39788000D01*
X146756000Y-37592000D02*
X155064000Y-37592000D01*
X144560000Y-44005866D02*
X144627622Y-44073488D01*
X152295399Y-84035399D02*
X153300000Y-85040000D01*
X144627622Y-44073488D02*
X144627622Y-45567622D01*
X144560000Y-39788000D02*
X144560000Y-44005866D01*
X144627622Y-45567622D02*
X150622000Y-51562000D01*
X150622000Y-51562000D02*
X155956000Y-51562000D01*
X158250610Y-61305523D02*
X155295622Y-64260511D01*
X155295622Y-64260511D02*
X155295622Y-65331512D01*
X154047512Y-66579622D02*
X153055775Y-66579622D01*
X153055775Y-66579622D02*
X151760000Y-67875397D01*
X151760000Y-71318934D02*
X152295399Y-71854333D01*
X155295622Y-65331512D02*
X154047512Y-66579622D01*
X155064001Y-83349999D02*
X155864000Y-82550000D01*
X153374000Y-85040000D02*
X155064001Y-83349999D01*
X155956000Y-51562000D02*
X158250610Y-53856610D01*
X158250610Y-53856610D02*
X158250610Y-61305523D01*
X151760000Y-67875397D02*
X151760000Y-71318934D01*
X153300000Y-85040000D02*
X153374000Y-85040000D01*
X152295399Y-71854333D02*
X152295399Y-84035399D01*
X171203000Y-93225000D02*
X171196000Y-93218000D01*
X173215000Y-93225000D02*
X171203000Y-93225000D01*
X178755189Y-87684811D02*
X173215000Y-93225000D01*
X179060000Y-77718933D02*
X178755189Y-78023744D01*
X178755189Y-78023744D02*
X178755189Y-87684811D01*
X182924630Y-69910000D02*
X179060000Y-73774630D01*
X179060000Y-73774630D02*
X179060000Y-77718933D01*
X186806000Y-69910000D02*
X182924630Y-69910000D01*
X206615000Y-73565000D02*
X202956000Y-69906000D01*
X206615000Y-83025000D02*
X206615000Y-73565000D01*
X190801512Y-89864952D02*
X196516464Y-84150000D01*
X190801512Y-90988488D02*
X190801512Y-89864952D01*
X190075048Y-91714952D02*
X190801512Y-90988488D01*
X187125048Y-91714952D02*
X190075048Y-91714952D01*
X205490000Y-84150000D02*
X206615000Y-83025000D01*
X181102000Y-110998000D02*
X185267620Y-106832380D01*
X196516464Y-84150000D02*
X205490000Y-84150000D01*
X185267620Y-106832380D02*
X185267620Y-93572380D01*
X185267620Y-93572380D02*
X187125048Y-91714952D01*
X206660000Y-98298000D02*
X206660000Y-101350000D01*
D23*
X197840000Y-118475000D02*
X202565000Y-113750000D01*
X149606038Y-118475000D02*
X197815000Y-118475000D01*
X146704589Y-115573551D02*
X149606038Y-118475000D01*
X146704589Y-88376449D02*
X146704589Y-115573551D01*
X153959885Y-86239589D02*
X148841449Y-86239589D01*
X158720000Y-65620000D02*
X158720000Y-81479474D01*
X158720000Y-81479474D02*
X153959885Y-86239589D01*
X197815000Y-118475000D02*
X197890000Y-118400000D01*
X148841449Y-86239589D02*
X146704589Y-88376449D01*
D22*
X191210666Y-65620000D02*
X199316000Y-65620000D01*
D23*
X220365000Y-58350000D02*
X220965000Y-58950000D01*
X214140000Y-59300000D02*
X215090000Y-58350000D01*
X211665000Y-59300000D02*
X214140000Y-59300000D01*
X207627578Y-63337422D02*
X211665000Y-59300000D01*
X207627578Y-68062422D02*
X207627578Y-63337422D01*
X204915000Y-69425000D02*
X206265000Y-69425000D01*
X201110000Y-65620000D02*
X204915000Y-69425000D01*
X215090000Y-58350000D02*
X220365000Y-58350000D01*
X206265000Y-69425000D02*
X207627578Y-68062422D01*
X199316000Y-65620000D02*
X201110000Y-65620000D01*
X215840000Y-113750000D02*
X215840000Y-108575000D01*
X215840000Y-108575000D02*
X217640000Y-106775000D01*
X217640000Y-106775000D02*
X218290000Y-106775000D01*
X218290000Y-106775000D02*
X220965000Y-104100000D01*
X220965000Y-104100000D02*
X220965000Y-103525000D01*
X220965000Y-58950000D02*
X220965000Y-103525000D01*
D24*
X215292068Y-79836842D02*
X215235000Y-80123740D01*
X215235000Y-80416260D01*
X215292068Y-80703158D01*
X215404010Y-80973411D01*
X215566525Y-81216632D01*
X215773368Y-81423475D01*
X215947760Y-81540000D01*
X215773368Y-81656525D01*
X215566525Y-81863368D01*
X215404010Y-82106589D01*
X215292068Y-82376842D01*
X215235000Y-82663740D01*
X215235000Y-82956260D01*
X215292068Y-83243158D01*
X215404010Y-83513411D01*
X215566525Y-83756632D01*
X215773368Y-83963475D01*
X215947760Y-84080000D01*
X215773368Y-84196525D01*
X215566525Y-84403368D01*
X215404010Y-84646589D01*
X215292068Y-84916842D01*
X215235000Y-85203740D01*
X215235000Y-85496260D01*
X215292068Y-85783158D01*
X215404010Y-86053411D01*
X215566525Y-86296632D01*
X215773368Y-86503475D01*
X215947760Y-86620000D01*
X215773368Y-86736525D01*
X215566525Y-86943368D01*
X215404010Y-87186589D01*
X215292068Y-87456842D01*
X215235000Y-87743740D01*
X215235000Y-88036260D01*
X215292068Y-88323158D01*
X215404010Y-88593411D01*
X215566525Y-88836632D01*
X215773368Y-89043475D01*
X215955534Y-89165195D01*
X215838645Y-89234822D01*
X215622412Y-89429731D01*
X215448359Y-89663080D01*
X215323175Y-89925901D01*
X215278524Y-90073110D01*
X215399845Y-90303000D01*
X216593000Y-90303000D01*
X216593000Y-90283000D01*
X216847000Y-90283000D01*
X216847000Y-90303000D01*
X216867000Y-90303000D01*
X216867000Y-90557000D01*
X216847000Y-90557000D01*
X216847000Y-91750814D01*
X217076891Y-91871481D01*
X217351252Y-91774157D01*
X217601355Y-91625178D01*
X217817588Y-91430269D01*
X217988900Y-91200594D01*
X218106525Y-91376632D01*
X218313368Y-91583475D01*
X218556589Y-91745990D01*
X218826842Y-91857932D01*
X219113740Y-91915000D01*
X219406260Y-91915000D01*
X219693158Y-91857932D01*
X219963411Y-91745990D01*
X220076001Y-91670760D01*
X220076001Y-103481323D01*
X220076000Y-103481333D01*
X220076000Y-103731765D01*
X217921765Y-105886000D01*
X217683659Y-105886000D01*
X217639999Y-105881700D01*
X217596339Y-105886000D01*
X217596333Y-105886000D01*
X217498924Y-105895594D01*
X217465724Y-105898864D01*
X217364058Y-105929704D01*
X217298149Y-105949697D01*
X217143709Y-106032247D01*
X217008341Y-106143341D01*
X216980501Y-106177264D01*
X215242259Y-107915506D01*
X215208342Y-107943341D01*
X215180507Y-107977258D01*
X215180505Y-107977260D01*
X215097248Y-108078709D01*
X215014698Y-108233148D01*
X214963864Y-108400726D01*
X214946700Y-108575000D01*
X214951001Y-108618670D01*
X214951000Y-112173155D01*
X214689379Y-112347965D01*
X214437965Y-112599379D01*
X214240429Y-112895012D01*
X214104365Y-113223501D01*
X214035000Y-113572223D01*
X214035000Y-113927777D01*
X214104365Y-114276499D01*
X214240429Y-114604988D01*
X214437965Y-114900621D01*
X214689379Y-115152035D01*
X214985012Y-115349571D01*
X215313501Y-115485635D01*
X215662223Y-115555000D01*
X216017777Y-115555000D01*
X216366499Y-115485635D01*
X216694988Y-115349571D01*
X216990621Y-115152035D01*
X217242035Y-114900621D01*
X217439571Y-114604988D01*
X217575635Y-114276499D01*
X217645000Y-113927777D01*
X217645000Y-113572223D01*
X217575635Y-113223501D01*
X217439571Y-112895012D01*
X217242035Y-112599379D01*
X216990621Y-112347965D01*
X216729000Y-112173155D01*
X216729000Y-110525000D01*
X217951928Y-110525000D01*
X217951928Y-112225000D01*
X217964188Y-112349482D01*
X218000498Y-112469180D01*
X218059463Y-112579494D01*
X218138815Y-112676185D01*
X218235506Y-112755537D01*
X218345820Y-112814502D01*
X218418380Y-112836513D01*
X218286525Y-112968368D01*
X218124010Y-113211589D01*
X218012068Y-113481842D01*
X217955000Y-113768740D01*
X217955000Y-114061260D01*
X218012068Y-114348158D01*
X218124010Y-114618411D01*
X218286525Y-114861632D01*
X218493368Y-115068475D01*
X218667760Y-115185000D01*
X218493368Y-115301525D01*
X218286525Y-115508368D01*
X218124010Y-115751589D01*
X218012068Y-116021842D01*
X217955000Y-116308740D01*
X217955000Y-116601260D01*
X218012068Y-116888158D01*
X218124010Y-117158411D01*
X218286525Y-117401632D01*
X218493368Y-117608475D01*
X218736589Y-117770990D01*
X219006842Y-117882932D01*
X219293740Y-117940000D01*
X219586260Y-117940000D01*
X219873158Y-117882932D01*
X220143411Y-117770990D01*
X220386632Y-117608475D01*
X220593475Y-117401632D01*
X220755990Y-117158411D01*
X220867932Y-116888158D01*
X220925000Y-116601260D01*
X220925000Y-116308740D01*
X220867932Y-116021842D01*
X220755990Y-115751589D01*
X220593475Y-115508368D01*
X220386632Y-115301525D01*
X220212240Y-115185000D01*
X220386632Y-115068475D01*
X220593475Y-114861632D01*
X220755990Y-114618411D01*
X220867932Y-114348158D01*
X220925000Y-114061260D01*
X220925000Y-113768740D01*
X220867932Y-113481842D01*
X220755990Y-113211589D01*
X220593475Y-112968368D01*
X220461620Y-112836513D01*
X220534180Y-112814502D01*
X220644494Y-112755537D01*
X220741185Y-112676185D01*
X220820537Y-112579494D01*
X220879502Y-112469180D01*
X220915812Y-112349482D01*
X220928072Y-112225000D01*
X220928072Y-110525000D01*
X220915812Y-110400518D01*
X220879502Y-110280820D01*
X220820537Y-110170506D01*
X220741185Y-110073815D01*
X220644494Y-109994463D01*
X220534180Y-109935498D01*
X220414482Y-109899188D01*
X220290000Y-109886928D01*
X218590000Y-109886928D01*
X218465518Y-109899188D01*
X218345820Y-109935498D01*
X218235506Y-109994463D01*
X218138815Y-110073815D01*
X218059463Y-110170506D01*
X218000498Y-110280820D01*
X217964188Y-110400518D01*
X217951928Y-110525000D01*
X216729000Y-110525000D01*
X216729000Y-108943235D01*
X218008235Y-107664000D01*
X218246340Y-107664000D01*
X218290000Y-107668300D01*
X218333660Y-107664000D01*
X218333667Y-107664000D01*
X218464274Y-107651136D01*
X218631851Y-107600303D01*
X218786291Y-107517753D01*
X218921659Y-107406659D01*
X218949499Y-107372736D01*
X221140001Y-105182234D01*
X221140001Y-119330000D01*
X198083950Y-119330000D01*
X198181852Y-119300302D01*
X198336291Y-119217752D01*
X198437740Y-119134495D01*
X201500012Y-116072223D01*
X204035000Y-116072223D01*
X204035000Y-116427777D01*
X204104365Y-116776499D01*
X204240429Y-117104988D01*
X204437965Y-117400621D01*
X204689379Y-117652035D01*
X204985012Y-117849571D01*
X205313501Y-117985635D01*
X205662223Y-118055000D01*
X206017777Y-118055000D01*
X206366499Y-117985635D01*
X206694988Y-117849571D01*
X206990621Y-117652035D01*
X207242035Y-117400621D01*
X207439571Y-117104988D01*
X207575635Y-116776499D01*
X207645000Y-116427777D01*
X207645000Y-116072223D01*
X207575635Y-115723501D01*
X207439571Y-115395012D01*
X207242035Y-115099379D01*
X206990621Y-114847965D01*
X206694988Y-114650429D01*
X206366499Y-114514365D01*
X206017777Y-114445000D01*
X205662223Y-114445000D01*
X205313501Y-114514365D01*
X204985012Y-114650429D01*
X204689379Y-114847965D01*
X204437965Y-115099379D01*
X204240429Y-115395012D01*
X204104365Y-115723501D01*
X204035000Y-116072223D01*
X201500012Y-116072223D01*
X202078621Y-115493615D01*
X202387223Y-115555000D01*
X202742777Y-115555000D01*
X203091499Y-115485635D01*
X203419988Y-115349571D01*
X203715621Y-115152035D01*
X203967035Y-114900621D01*
X204164571Y-114604988D01*
X204300635Y-114276499D01*
X204370000Y-113927777D01*
X204370000Y-113572223D01*
X204300635Y-113223501D01*
X204164571Y-112895012D01*
X203967035Y-112599379D01*
X203715621Y-112347965D01*
X203419988Y-112150429D01*
X203091499Y-112014365D01*
X202742777Y-111945000D01*
X202387223Y-111945000D01*
X202038501Y-112014365D01*
X201710012Y-112150429D01*
X201414379Y-112347965D01*
X201162965Y-112599379D01*
X200965429Y-112895012D01*
X200829365Y-113223501D01*
X200760000Y-113572223D01*
X200760000Y-113927777D01*
X200821385Y-114236379D01*
X197471765Y-117586000D01*
X193781656Y-117586000D01*
X193967035Y-117400621D01*
X194164571Y-117104988D01*
X194300635Y-116776499D01*
X194370000Y-116427777D01*
X194370000Y-116072223D01*
X194300635Y-115723501D01*
X194164571Y-115395012D01*
X193967035Y-115099379D01*
X193715621Y-114847965D01*
X193419988Y-114650429D01*
X193091499Y-114514365D01*
X192742777Y-114445000D01*
X192387223Y-114445000D01*
X192038501Y-114514365D01*
X191710012Y-114650429D01*
X191414379Y-114847965D01*
X191162965Y-115099379D01*
X190965429Y-115395012D01*
X190829365Y-115723501D01*
X190760000Y-116072223D01*
X190760000Y-116427777D01*
X190829365Y-116776499D01*
X190965429Y-117104988D01*
X191162965Y-117400621D01*
X191348344Y-117586000D01*
X174761235Y-117586000D01*
X177393279Y-114953956D01*
X177423665Y-114960000D01*
X177706335Y-114960000D01*
X177983574Y-114904853D01*
X178244727Y-114796680D01*
X178479759Y-114639637D01*
X178679637Y-114439759D01*
X178836680Y-114204727D01*
X178944853Y-113943574D01*
X179000000Y-113666335D01*
X179000000Y-113383665D01*
X178944853Y-113106426D01*
X178836680Y-112845273D01*
X178764870Y-112737801D01*
X179910817Y-112737801D01*
X179830320Y-112858273D01*
X179722147Y-113119426D01*
X179667000Y-113396665D01*
X179667000Y-113679335D01*
X179722147Y-113956574D01*
X179830320Y-114217727D01*
X179987363Y-114452759D01*
X180187241Y-114652637D01*
X180422273Y-114809680D01*
X180683426Y-114917853D01*
X180960665Y-114973000D01*
X181243335Y-114973000D01*
X181520574Y-114917853D01*
X181781727Y-114809680D01*
X182016759Y-114652637D01*
X182216637Y-114452759D01*
X182373680Y-114217727D01*
X182481853Y-113956574D01*
X182537000Y-113679335D01*
X182537000Y-113396665D01*
X182481853Y-113119426D01*
X182373680Y-112858273D01*
X182293183Y-112737801D01*
X186916014Y-112737801D01*
X187283928Y-113105715D01*
X187283928Y-114338000D01*
X187296188Y-114462482D01*
X187332498Y-114582180D01*
X187391463Y-114692494D01*
X187470815Y-114789185D01*
X187567506Y-114868537D01*
X187677820Y-114927502D01*
X187797518Y-114963812D01*
X187922000Y-114976072D01*
X189522000Y-114976072D01*
X189646482Y-114963812D01*
X189766180Y-114927502D01*
X189876494Y-114868537D01*
X189973185Y-114789185D01*
X190052537Y-114692494D01*
X190111502Y-114582180D01*
X190147812Y-114462482D01*
X190160072Y-114338000D01*
X190160072Y-112738000D01*
X190147812Y-112613518D01*
X190111502Y-112493820D01*
X190073348Y-112422440D01*
X190811102Y-111684685D01*
X190829365Y-111776499D01*
X190965429Y-112104988D01*
X191162965Y-112400621D01*
X191414379Y-112652035D01*
X191710012Y-112849571D01*
X192038501Y-112985635D01*
X192387223Y-113055000D01*
X192742777Y-113055000D01*
X193091499Y-112985635D01*
X193419988Y-112849571D01*
X193715621Y-112652035D01*
X193967035Y-112400621D01*
X194164571Y-112104988D01*
X194300635Y-111776499D01*
X194370000Y-111427777D01*
X194370000Y-111072223D01*
X204035000Y-111072223D01*
X204035000Y-111427777D01*
X204104365Y-111776499D01*
X204240429Y-112104988D01*
X204437965Y-112400621D01*
X204689379Y-112652035D01*
X204985012Y-112849571D01*
X205313501Y-112985635D01*
X205662223Y-113055000D01*
X206017777Y-113055000D01*
X206366499Y-112985635D01*
X206694988Y-112849571D01*
X206990621Y-112652035D01*
X207242035Y-112400621D01*
X207439571Y-112104988D01*
X207575635Y-111776499D01*
X207645000Y-111427777D01*
X207645000Y-111072223D01*
X207575635Y-110723501D01*
X207439571Y-110395012D01*
X207242035Y-110099379D01*
X206990621Y-109847965D01*
X206694988Y-109650429D01*
X206366499Y-109514365D01*
X206017777Y-109445000D01*
X205662223Y-109445000D01*
X205313501Y-109514365D01*
X204985012Y-109650429D01*
X204689379Y-109847965D01*
X204437965Y-110099379D01*
X204240429Y-110395012D01*
X204104365Y-110723501D01*
X204035000Y-111072223D01*
X194370000Y-111072223D01*
X194300635Y-110723501D01*
X194164571Y-110395012D01*
X193967035Y-110099379D01*
X193715621Y-109847965D01*
X193419988Y-109650429D01*
X193091499Y-109514365D01*
X192999686Y-109496102D01*
X194023011Y-108472778D01*
X194050136Y-108450517D01*
X194072398Y-108423391D01*
X194072407Y-108423382D01*
X194139012Y-108342223D01*
X194163565Y-108296287D01*
X194205052Y-108218671D01*
X194245719Y-108084610D01*
X194256010Y-107980126D01*
X194256010Y-107980117D01*
X194259450Y-107945191D01*
X194256010Y-107910265D01*
X194256010Y-107342702D01*
X205846903Y-107342702D01*
X205918486Y-107586671D01*
X206173996Y-107707571D01*
X206448184Y-107776300D01*
X206730512Y-107790217D01*
X207010130Y-107748787D01*
X207276292Y-107653603D01*
X207401514Y-107586671D01*
X207473097Y-107342702D01*
X206660000Y-106529605D01*
X205846903Y-107342702D01*
X194256010Y-107342702D01*
X194256010Y-106520406D01*
X194375241Y-106639637D01*
X194610273Y-106796680D01*
X194871426Y-106904853D01*
X195148665Y-106960000D01*
X195431335Y-106960000D01*
X195708574Y-106904853D01*
X195969727Y-106796680D01*
X196204759Y-106639637D01*
X196404637Y-106439759D01*
X196561680Y-106204727D01*
X196669853Y-105943574D01*
X196725000Y-105666335D01*
X196725000Y-105383665D01*
X196669853Y-105106426D01*
X196561680Y-104845273D01*
X196404637Y-104610241D01*
X196204759Y-104410363D01*
X195969727Y-104253320D01*
X195708574Y-104145147D01*
X195431335Y-104090000D01*
X195148665Y-104090000D01*
X194871426Y-104145147D01*
X194610273Y-104253320D01*
X194375241Y-104410363D01*
X194256010Y-104529594D01*
X194256010Y-103145406D01*
X194375241Y-103264637D01*
X194610273Y-103421680D01*
X194871426Y-103529853D01*
X195148665Y-103585000D01*
X195431335Y-103585000D01*
X195708574Y-103529853D01*
X195969727Y-103421680D01*
X196204759Y-103264637D01*
X196404637Y-103064759D01*
X196540650Y-102861200D01*
X198095413Y-102861200D01*
X201237403Y-106003191D01*
X201259673Y-106030327D01*
X201286809Y-106052597D01*
X201367967Y-106119202D01*
X201491518Y-106185242D01*
X201625580Y-106225909D01*
X201654368Y-106228744D01*
X201795363Y-106439759D01*
X201995241Y-106639637D01*
X202230273Y-106796680D01*
X202491426Y-106904853D01*
X202768665Y-106960000D01*
X203051335Y-106960000D01*
X203328574Y-106904853D01*
X203589727Y-106796680D01*
X203824759Y-106639637D01*
X204024637Y-106439759D01*
X204037497Y-106420512D01*
X205219783Y-106420512D01*
X205261213Y-106700130D01*
X205356397Y-106966292D01*
X205423329Y-107091514D01*
X205667298Y-107163097D01*
X206480395Y-106350000D01*
X206839605Y-106350000D01*
X207652702Y-107163097D01*
X207896671Y-107091514D01*
X208017571Y-106836004D01*
X208086300Y-106561816D01*
X208100217Y-106279488D01*
X208058787Y-105999870D01*
X207963603Y-105733708D01*
X207896671Y-105608486D01*
X207652702Y-105536903D01*
X206839605Y-106350000D01*
X206480395Y-106350000D01*
X205667298Y-105536903D01*
X205423329Y-105608486D01*
X205302429Y-105863996D01*
X205233700Y-106138184D01*
X205219783Y-106420512D01*
X204037497Y-106420512D01*
X204181680Y-106204727D01*
X204289853Y-105943574D01*
X204345000Y-105666335D01*
X204345000Y-105383665D01*
X204339756Y-105357298D01*
X205846903Y-105357298D01*
X206660000Y-106170395D01*
X207473097Y-105357298D01*
X207401514Y-105113329D01*
X207146004Y-104992429D01*
X206871816Y-104923700D01*
X206589488Y-104909783D01*
X206309870Y-104951213D01*
X206043708Y-105046397D01*
X205918486Y-105113329D01*
X205846903Y-105357298D01*
X204339756Y-105357298D01*
X204289853Y-105106426D01*
X204181680Y-104845273D01*
X204024637Y-104610241D01*
X203824759Y-104410363D01*
X203589727Y-104253320D01*
X203328574Y-104145147D01*
X203051335Y-104090000D01*
X202768665Y-104090000D01*
X202491426Y-104145147D01*
X202230273Y-104253320D01*
X201995241Y-104410363D01*
X201825696Y-104579908D01*
X199254453Y-102008665D01*
X201475000Y-102008665D01*
X201475000Y-102291335D01*
X201530147Y-102568574D01*
X201638320Y-102829727D01*
X201795363Y-103064759D01*
X201995241Y-103264637D01*
X202230273Y-103421680D01*
X202491426Y-103529853D01*
X202768665Y-103585000D01*
X203051335Y-103585000D01*
X203328574Y-103529853D01*
X203589727Y-103421680D01*
X203824759Y-103264637D01*
X204024637Y-103064759D01*
X204181680Y-102829727D01*
X204289853Y-102568574D01*
X204345000Y-102291335D01*
X204345000Y-102008665D01*
X204289853Y-101731426D01*
X204181680Y-101470273D01*
X204024637Y-101235241D01*
X203824759Y-101035363D01*
X203589727Y-100878320D01*
X203328574Y-100770147D01*
X203051335Y-100715000D01*
X202768665Y-100715000D01*
X202491426Y-100770147D01*
X202230273Y-100878320D01*
X201995241Y-101035363D01*
X201795363Y-101235241D01*
X201638320Y-101470273D01*
X201530147Y-101731426D01*
X201475000Y-102008665D01*
X199254453Y-102008665D01*
X198917602Y-101671815D01*
X198895327Y-101644673D01*
X198787033Y-101555798D01*
X198663481Y-101489758D01*
X198529420Y-101449091D01*
X198424936Y-101438800D01*
X198424926Y-101438800D01*
X198390000Y-101435360D01*
X198355074Y-101438800D01*
X196540650Y-101438800D01*
X196404637Y-101235241D01*
X196204759Y-101035363D01*
X195969727Y-100878320D01*
X195708574Y-100770147D01*
X195431335Y-100715000D01*
X195148665Y-100715000D01*
X194871426Y-100770147D01*
X194610273Y-100878320D01*
X194375241Y-101035363D01*
X194256010Y-101154594D01*
X194256010Y-99745406D01*
X194375241Y-99864637D01*
X194610273Y-100021680D01*
X194871426Y-100129853D01*
X195148665Y-100185000D01*
X195431335Y-100185000D01*
X195708574Y-100129853D01*
X195969727Y-100021680D01*
X196204759Y-99864637D01*
X196404637Y-99664759D01*
X196561680Y-99429727D01*
X196669853Y-99168574D01*
X196725000Y-98891335D01*
X196725000Y-98608665D01*
X196669853Y-98331426D01*
X196561680Y-98070273D01*
X196404637Y-97835241D01*
X196204759Y-97635363D01*
X195969727Y-97478320D01*
X195708574Y-97370147D01*
X195431335Y-97315000D01*
X195148665Y-97315000D01*
X194871426Y-97370147D01*
X194610273Y-97478320D01*
X194375241Y-97635363D01*
X194256010Y-97754594D01*
X194256010Y-97289777D01*
X195076588Y-96469200D01*
X197789350Y-96469200D01*
X197925363Y-96672759D01*
X198125241Y-96872637D01*
X198357759Y-97028000D01*
X198125241Y-97183363D01*
X197925363Y-97383241D01*
X197768320Y-97618273D01*
X197660147Y-97879426D01*
X197605000Y-98156665D01*
X197605000Y-98439335D01*
X197660147Y-98716574D01*
X197768320Y-98977727D01*
X197925363Y-99212759D01*
X198125241Y-99412637D01*
X198360273Y-99569680D01*
X198621426Y-99677853D01*
X198898665Y-99733000D01*
X199181335Y-99733000D01*
X199458574Y-99677853D01*
X199719727Y-99569680D01*
X199954759Y-99412637D01*
X200154637Y-99212759D01*
X200311680Y-98977727D01*
X200419853Y-98716574D01*
X200475000Y-98439335D01*
X200475000Y-98156665D01*
X200419853Y-97879426D01*
X200311680Y-97618273D01*
X200154637Y-97383241D01*
X199954759Y-97183363D01*
X199722241Y-97028000D01*
X199954759Y-96872637D01*
X200154637Y-96672759D01*
X200311680Y-96437727D01*
X200419853Y-96176574D01*
X200475000Y-95899335D01*
X200475000Y-95616665D01*
X200419853Y-95339426D01*
X200311680Y-95078273D01*
X200154637Y-94843241D01*
X199954759Y-94643363D01*
X199722241Y-94488000D01*
X199954759Y-94332637D01*
X200154637Y-94132759D01*
X200290650Y-93929200D01*
X200513413Y-93929200D01*
X202820407Y-96236196D01*
X202842673Y-96263327D01*
X202869804Y-96285593D01*
X202869808Y-96285597D01*
X202929943Y-96334948D01*
X202950967Y-96352202D01*
X203074519Y-96418242D01*
X203208580Y-96458909D01*
X203313064Y-96469200D01*
X203313081Y-96469200D01*
X203347999Y-96472639D01*
X203382917Y-96469200D01*
X205409350Y-96469200D01*
X205545363Y-96672759D01*
X205745241Y-96872637D01*
X205977759Y-97028000D01*
X205745241Y-97183363D01*
X205545363Y-97383241D01*
X205388320Y-97618273D01*
X205280147Y-97879426D01*
X205225000Y-98156665D01*
X205225000Y-98439335D01*
X205280147Y-98716574D01*
X205388320Y-98977727D01*
X205545363Y-99212759D01*
X205745241Y-99412637D01*
X205948800Y-99548651D01*
X205948801Y-100099349D01*
X205745241Y-100235363D01*
X205545363Y-100435241D01*
X205388320Y-100670273D01*
X205280147Y-100931426D01*
X205225000Y-101208665D01*
X205225000Y-101491335D01*
X205280147Y-101768574D01*
X205388320Y-102029727D01*
X205545363Y-102264759D01*
X205745241Y-102464637D01*
X205980273Y-102621680D01*
X206241426Y-102729853D01*
X206518665Y-102785000D01*
X206801335Y-102785000D01*
X207078574Y-102729853D01*
X207339727Y-102621680D01*
X207574759Y-102464637D01*
X207774637Y-102264759D01*
X207931680Y-102029727D01*
X208039853Y-101768574D01*
X208095000Y-101491335D01*
X208095000Y-101208665D01*
X208039853Y-100931426D01*
X207931680Y-100670273D01*
X207774637Y-100435241D01*
X207574759Y-100235363D01*
X207371200Y-100099350D01*
X207371200Y-99548650D01*
X207574759Y-99412637D01*
X207774637Y-99212759D01*
X207931680Y-98977727D01*
X208039853Y-98716574D01*
X208095000Y-98439335D01*
X208095000Y-98156665D01*
X208039853Y-97879426D01*
X207931680Y-97618273D01*
X207774637Y-97383241D01*
X207574759Y-97183363D01*
X207342241Y-97028000D01*
X207574759Y-96872637D01*
X207774637Y-96672759D01*
X207931680Y-96437727D01*
X208039853Y-96176574D01*
X208095000Y-95899335D01*
X208095000Y-95616665D01*
X208039853Y-95339426D01*
X207931680Y-95078273D01*
X207774637Y-94843241D01*
X207574759Y-94643363D01*
X207342241Y-94488000D01*
X207574759Y-94332637D01*
X207774637Y-94132759D01*
X207931680Y-93897727D01*
X208039853Y-93636574D01*
X208095000Y-93359335D01*
X208095000Y-93076665D01*
X208039853Y-92799426D01*
X207931680Y-92538273D01*
X207774637Y-92303241D01*
X207574759Y-92103363D01*
X207342241Y-91948000D01*
X207574759Y-91792637D01*
X207774637Y-91592759D01*
X207931680Y-91357727D01*
X208039853Y-91096574D01*
X208095000Y-90819335D01*
X208095000Y-90786890D01*
X215278524Y-90786890D01*
X215323175Y-90934099D01*
X215448359Y-91196920D01*
X215622412Y-91430269D01*
X215838645Y-91625178D01*
X216088748Y-91774157D01*
X216363109Y-91871481D01*
X216593000Y-91750814D01*
X216593000Y-90557000D01*
X215399845Y-90557000D01*
X215278524Y-90786890D01*
X208095000Y-90786890D01*
X208095000Y-90536665D01*
X208039853Y-90259426D01*
X207931680Y-89998273D01*
X207774637Y-89763241D01*
X207574759Y-89563363D01*
X207339727Y-89406320D01*
X207078574Y-89298147D01*
X206801335Y-89243000D01*
X206518665Y-89243000D01*
X206241426Y-89298147D01*
X205980273Y-89406320D01*
X205745241Y-89563363D01*
X205545363Y-89763241D01*
X205388320Y-89998273D01*
X205280147Y-90259426D01*
X205225000Y-90536665D01*
X205225000Y-90819335D01*
X205280147Y-91096574D01*
X205388320Y-91357727D01*
X205545363Y-91592759D01*
X205745241Y-91792637D01*
X205977759Y-91948000D01*
X205745241Y-92103363D01*
X205545363Y-92303241D01*
X205388320Y-92538273D01*
X205280147Y-92799426D01*
X205225000Y-93076665D01*
X205225000Y-93359335D01*
X205280147Y-93636574D01*
X205388320Y-93897727D01*
X205545363Y-94132759D01*
X205745241Y-94332637D01*
X205977759Y-94488000D01*
X205745241Y-94643363D01*
X205545363Y-94843241D01*
X205409350Y-95046800D01*
X203642589Y-95046800D01*
X201335602Y-92739815D01*
X201313327Y-92712673D01*
X201205033Y-92623798D01*
X201081481Y-92557758D01*
X200947420Y-92517091D01*
X200842936Y-92506800D01*
X200842926Y-92506800D01*
X200808000Y-92503360D01*
X200773074Y-92506800D01*
X200290650Y-92506800D01*
X200154637Y-92303241D01*
X199956039Y-92104643D01*
X199964482Y-92103812D01*
X200084180Y-92067502D01*
X200194494Y-92008537D01*
X200291185Y-91929185D01*
X200370537Y-91832494D01*
X200429502Y-91722180D01*
X200465812Y-91602482D01*
X200478072Y-91478000D01*
X200475000Y-90963750D01*
X200316250Y-90805000D01*
X199167000Y-90805000D01*
X199167000Y-90825000D01*
X198913000Y-90825000D01*
X198913000Y-90805000D01*
X197763750Y-90805000D01*
X197605000Y-90963750D01*
X197601928Y-91478000D01*
X197614188Y-91602482D01*
X197650498Y-91722180D01*
X197709463Y-91832494D01*
X197788815Y-91929185D01*
X197885506Y-92008537D01*
X197995820Y-92067502D01*
X198115518Y-92103812D01*
X198123961Y-92104643D01*
X197925363Y-92303241D01*
X197768320Y-92538273D01*
X197660147Y-92799426D01*
X197605000Y-93076665D01*
X197605000Y-93359335D01*
X197660147Y-93636574D01*
X197768320Y-93897727D01*
X197925363Y-94132759D01*
X198125241Y-94332637D01*
X198357759Y-94488000D01*
X198125241Y-94643363D01*
X197925363Y-94843241D01*
X197789350Y-95046800D01*
X195919020Y-95046800D01*
X196031514Y-94986671D01*
X196103097Y-94742702D01*
X195290000Y-93929605D01*
X194476903Y-94742702D01*
X194548486Y-94986671D01*
X194687882Y-95052629D01*
X194642580Y-95057091D01*
X194508519Y-95097758D01*
X194384967Y-95163798D01*
X194276673Y-95252673D01*
X194254404Y-95279808D01*
X193951200Y-95583012D01*
X193951200Y-94267871D01*
X193986397Y-94366292D01*
X194053329Y-94491514D01*
X194297298Y-94563097D01*
X195110395Y-93750000D01*
X195469605Y-93750000D01*
X196282702Y-94563097D01*
X196526671Y-94491514D01*
X196647571Y-94236004D01*
X196716300Y-93961816D01*
X196730217Y-93679488D01*
X196688787Y-93399870D01*
X196593603Y-93133708D01*
X196526671Y-93008486D01*
X196282702Y-92936903D01*
X195469605Y-93750000D01*
X195110395Y-93750000D01*
X194297298Y-92936903D01*
X194053329Y-93008486D01*
X193951200Y-93224325D01*
X193951200Y-92757298D01*
X194476903Y-92757298D01*
X195290000Y-93570395D01*
X196103097Y-92757298D01*
X196031514Y-92513329D01*
X195776004Y-92392429D01*
X195501816Y-92323700D01*
X195219488Y-92309783D01*
X194939870Y-92351213D01*
X194673708Y-92446397D01*
X194548486Y-92513329D01*
X194476903Y-92757298D01*
X193951200Y-92757298D01*
X193951200Y-91169587D01*
X195242787Y-89878000D01*
X197601928Y-89878000D01*
X197605000Y-90392250D01*
X197763750Y-90551000D01*
X198913000Y-90551000D01*
X198913000Y-89401750D01*
X199167000Y-89401750D01*
X199167000Y-90551000D01*
X200316250Y-90551000D01*
X200475000Y-90392250D01*
X200478072Y-89878000D01*
X200465812Y-89753518D01*
X200429502Y-89633820D01*
X200370537Y-89523506D01*
X200291185Y-89426815D01*
X200194494Y-89347463D01*
X200084180Y-89288498D01*
X199964482Y-89252188D01*
X199840000Y-89239928D01*
X199325750Y-89243000D01*
X199167000Y-89401750D01*
X198913000Y-89401750D01*
X198754250Y-89243000D01*
X198240000Y-89239928D01*
X198115518Y-89252188D01*
X197995820Y-89288498D01*
X197885506Y-89347463D01*
X197788815Y-89426815D01*
X197709463Y-89523506D01*
X197650498Y-89633820D01*
X197614188Y-89753518D01*
X197601928Y-89878000D01*
X195242787Y-89878000D01*
X197821101Y-87299688D01*
X207071921Y-87299688D01*
X207106847Y-87303128D01*
X207141773Y-87299688D01*
X207141783Y-87299688D01*
X207246267Y-87289397D01*
X207380328Y-87248730D01*
X207503880Y-87182690D01*
X207612174Y-87093815D01*
X207634449Y-87066673D01*
X214964923Y-79736200D01*
X215333755Y-79736200D01*
X215292068Y-79836842D01*
G04 #@! TA.AperFunction,Conductor*
D25*
G36*
X215292068Y-79836842D02*
G01*
X215235000Y-80123740D01*
X215235000Y-80416260D01*
X215292068Y-80703158D01*
X215404010Y-80973411D01*
X215566525Y-81216632D01*
X215773368Y-81423475D01*
X215947760Y-81540000D01*
X215773368Y-81656525D01*
X215566525Y-81863368D01*
X215404010Y-82106589D01*
X215292068Y-82376842D01*
X215235000Y-82663740D01*
X215235000Y-82956260D01*
X215292068Y-83243158D01*
X215404010Y-83513411D01*
X215566525Y-83756632D01*
X215773368Y-83963475D01*
X215947760Y-84080000D01*
X215773368Y-84196525D01*
X215566525Y-84403368D01*
X215404010Y-84646589D01*
X215292068Y-84916842D01*
X215235000Y-85203740D01*
X215235000Y-85496260D01*
X215292068Y-85783158D01*
X215404010Y-86053411D01*
X215566525Y-86296632D01*
X215773368Y-86503475D01*
X215947760Y-86620000D01*
X215773368Y-86736525D01*
X215566525Y-86943368D01*
X215404010Y-87186589D01*
X215292068Y-87456842D01*
X215235000Y-87743740D01*
X215235000Y-88036260D01*
X215292068Y-88323158D01*
X215404010Y-88593411D01*
X215566525Y-88836632D01*
X215773368Y-89043475D01*
X215955534Y-89165195D01*
X215838645Y-89234822D01*
X215622412Y-89429731D01*
X215448359Y-89663080D01*
X215323175Y-89925901D01*
X215278524Y-90073110D01*
X215399845Y-90303000D01*
X216593000Y-90303000D01*
X216593000Y-90283000D01*
X216847000Y-90283000D01*
X216847000Y-90303000D01*
X216867000Y-90303000D01*
X216867000Y-90557000D01*
X216847000Y-90557000D01*
X216847000Y-91750814D01*
X217076891Y-91871481D01*
X217351252Y-91774157D01*
X217601355Y-91625178D01*
X217817588Y-91430269D01*
X217988900Y-91200594D01*
X218106525Y-91376632D01*
X218313368Y-91583475D01*
X218556589Y-91745990D01*
X218826842Y-91857932D01*
X219113740Y-91915000D01*
X219406260Y-91915000D01*
X219693158Y-91857932D01*
X219963411Y-91745990D01*
X220076001Y-91670760D01*
X220076001Y-103481323D01*
X220076000Y-103481333D01*
X220076000Y-103731765D01*
X217921765Y-105886000D01*
X217683659Y-105886000D01*
X217639999Y-105881700D01*
X217596339Y-105886000D01*
X217596333Y-105886000D01*
X217498924Y-105895594D01*
X217465724Y-105898864D01*
X217364058Y-105929704D01*
X217298149Y-105949697D01*
X217143709Y-106032247D01*
X217008341Y-106143341D01*
X216980501Y-106177264D01*
X215242259Y-107915506D01*
X215208342Y-107943341D01*
X215180507Y-107977258D01*
X215180505Y-107977260D01*
X215097248Y-108078709D01*
X215014698Y-108233148D01*
X214963864Y-108400726D01*
X214946700Y-108575000D01*
X214951001Y-108618670D01*
X214951000Y-112173155D01*
X214689379Y-112347965D01*
X214437965Y-112599379D01*
X214240429Y-112895012D01*
X214104365Y-113223501D01*
X214035000Y-113572223D01*
X214035000Y-113927777D01*
X214104365Y-114276499D01*
X214240429Y-114604988D01*
X214437965Y-114900621D01*
X214689379Y-115152035D01*
X214985012Y-115349571D01*
X215313501Y-115485635D01*
X215662223Y-115555000D01*
X216017777Y-115555000D01*
X216366499Y-115485635D01*
X216694988Y-115349571D01*
X216990621Y-115152035D01*
X217242035Y-114900621D01*
X217439571Y-114604988D01*
X217575635Y-114276499D01*
X217645000Y-113927777D01*
X217645000Y-113572223D01*
X217575635Y-113223501D01*
X217439571Y-112895012D01*
X217242035Y-112599379D01*
X216990621Y-112347965D01*
X216729000Y-112173155D01*
X216729000Y-110525000D01*
X217951928Y-110525000D01*
X217951928Y-112225000D01*
X217964188Y-112349482D01*
X218000498Y-112469180D01*
X218059463Y-112579494D01*
X218138815Y-112676185D01*
X218235506Y-112755537D01*
X218345820Y-112814502D01*
X218418380Y-112836513D01*
X218286525Y-112968368D01*
X218124010Y-113211589D01*
X218012068Y-113481842D01*
X217955000Y-113768740D01*
X217955000Y-114061260D01*
X218012068Y-114348158D01*
X218124010Y-114618411D01*
X218286525Y-114861632D01*
X218493368Y-115068475D01*
X218667760Y-115185000D01*
X218493368Y-115301525D01*
X218286525Y-115508368D01*
X218124010Y-115751589D01*
X218012068Y-116021842D01*
X217955000Y-116308740D01*
X217955000Y-116601260D01*
X218012068Y-116888158D01*
X218124010Y-117158411D01*
X218286525Y-117401632D01*
X218493368Y-117608475D01*
X218736589Y-117770990D01*
X219006842Y-117882932D01*
X219293740Y-117940000D01*
X219586260Y-117940000D01*
X219873158Y-117882932D01*
X220143411Y-117770990D01*
X220386632Y-117608475D01*
X220593475Y-117401632D01*
X220755990Y-117158411D01*
X220867932Y-116888158D01*
X220925000Y-116601260D01*
X220925000Y-116308740D01*
X220867932Y-116021842D01*
X220755990Y-115751589D01*
X220593475Y-115508368D01*
X220386632Y-115301525D01*
X220212240Y-115185000D01*
X220386632Y-115068475D01*
X220593475Y-114861632D01*
X220755990Y-114618411D01*
X220867932Y-114348158D01*
X220925000Y-114061260D01*
X220925000Y-113768740D01*
X220867932Y-113481842D01*
X220755990Y-113211589D01*
X220593475Y-112968368D01*
X220461620Y-112836513D01*
X220534180Y-112814502D01*
X220644494Y-112755537D01*
X220741185Y-112676185D01*
X220820537Y-112579494D01*
X220879502Y-112469180D01*
X220915812Y-112349482D01*
X220928072Y-112225000D01*
X220928072Y-110525000D01*
X220915812Y-110400518D01*
X220879502Y-110280820D01*
X220820537Y-110170506D01*
X220741185Y-110073815D01*
X220644494Y-109994463D01*
X220534180Y-109935498D01*
X220414482Y-109899188D01*
X220290000Y-109886928D01*
X218590000Y-109886928D01*
X218465518Y-109899188D01*
X218345820Y-109935498D01*
X218235506Y-109994463D01*
X218138815Y-110073815D01*
X218059463Y-110170506D01*
X218000498Y-110280820D01*
X217964188Y-110400518D01*
X217951928Y-110525000D01*
X216729000Y-110525000D01*
X216729000Y-108943235D01*
X218008235Y-107664000D01*
X218246340Y-107664000D01*
X218290000Y-107668300D01*
X218333660Y-107664000D01*
X218333667Y-107664000D01*
X218464274Y-107651136D01*
X218631851Y-107600303D01*
X218786291Y-107517753D01*
X218921659Y-107406659D01*
X218949499Y-107372736D01*
X221140001Y-105182234D01*
X221140001Y-119330000D01*
X198083950Y-119330000D01*
X198181852Y-119300302D01*
X198336291Y-119217752D01*
X198437740Y-119134495D01*
X201500012Y-116072223D01*
X204035000Y-116072223D01*
X204035000Y-116427777D01*
X204104365Y-116776499D01*
X204240429Y-117104988D01*
X204437965Y-117400621D01*
X204689379Y-117652035D01*
X204985012Y-117849571D01*
X205313501Y-117985635D01*
X205662223Y-118055000D01*
X206017777Y-118055000D01*
X206366499Y-117985635D01*
X206694988Y-117849571D01*
X206990621Y-117652035D01*
X207242035Y-117400621D01*
X207439571Y-117104988D01*
X207575635Y-116776499D01*
X207645000Y-116427777D01*
X207645000Y-116072223D01*
X207575635Y-115723501D01*
X207439571Y-115395012D01*
X207242035Y-115099379D01*
X206990621Y-114847965D01*
X206694988Y-114650429D01*
X206366499Y-114514365D01*
X206017777Y-114445000D01*
X205662223Y-114445000D01*
X205313501Y-114514365D01*
X204985012Y-114650429D01*
X204689379Y-114847965D01*
X204437965Y-115099379D01*
X204240429Y-115395012D01*
X204104365Y-115723501D01*
X204035000Y-116072223D01*
X201500012Y-116072223D01*
X202078621Y-115493615D01*
X202387223Y-115555000D01*
X202742777Y-115555000D01*
X203091499Y-115485635D01*
X203419988Y-115349571D01*
X203715621Y-115152035D01*
X203967035Y-114900621D01*
X204164571Y-114604988D01*
X204300635Y-114276499D01*
X204370000Y-113927777D01*
X204370000Y-113572223D01*
X204300635Y-113223501D01*
X204164571Y-112895012D01*
X203967035Y-112599379D01*
X203715621Y-112347965D01*
X203419988Y-112150429D01*
X203091499Y-112014365D01*
X202742777Y-111945000D01*
X202387223Y-111945000D01*
X202038501Y-112014365D01*
X201710012Y-112150429D01*
X201414379Y-112347965D01*
X201162965Y-112599379D01*
X200965429Y-112895012D01*
X200829365Y-113223501D01*
X200760000Y-113572223D01*
X200760000Y-113927777D01*
X200821385Y-114236379D01*
X197471765Y-117586000D01*
X193781656Y-117586000D01*
X193967035Y-117400621D01*
X194164571Y-117104988D01*
X194300635Y-116776499D01*
X194370000Y-116427777D01*
X194370000Y-116072223D01*
X194300635Y-115723501D01*
X194164571Y-115395012D01*
X193967035Y-115099379D01*
X193715621Y-114847965D01*
X193419988Y-114650429D01*
X193091499Y-114514365D01*
X192742777Y-114445000D01*
X192387223Y-114445000D01*
X192038501Y-114514365D01*
X191710012Y-114650429D01*
X191414379Y-114847965D01*
X191162965Y-115099379D01*
X190965429Y-115395012D01*
X190829365Y-115723501D01*
X190760000Y-116072223D01*
X190760000Y-116427777D01*
X190829365Y-116776499D01*
X190965429Y-117104988D01*
X191162965Y-117400621D01*
X191348344Y-117586000D01*
X174761235Y-117586000D01*
X177393279Y-114953956D01*
X177423665Y-114960000D01*
X177706335Y-114960000D01*
X177983574Y-114904853D01*
X178244727Y-114796680D01*
X178479759Y-114639637D01*
X178679637Y-114439759D01*
X178836680Y-114204727D01*
X178944853Y-113943574D01*
X179000000Y-113666335D01*
X179000000Y-113383665D01*
X178944853Y-113106426D01*
X178836680Y-112845273D01*
X178764870Y-112737801D01*
X179910817Y-112737801D01*
X179830320Y-112858273D01*
X179722147Y-113119426D01*
X179667000Y-113396665D01*
X179667000Y-113679335D01*
X179722147Y-113956574D01*
X179830320Y-114217727D01*
X179987363Y-114452759D01*
X180187241Y-114652637D01*
X180422273Y-114809680D01*
X180683426Y-114917853D01*
X180960665Y-114973000D01*
X181243335Y-114973000D01*
X181520574Y-114917853D01*
X181781727Y-114809680D01*
X182016759Y-114652637D01*
X182216637Y-114452759D01*
X182373680Y-114217727D01*
X182481853Y-113956574D01*
X182537000Y-113679335D01*
X182537000Y-113396665D01*
X182481853Y-113119426D01*
X182373680Y-112858273D01*
X182293183Y-112737801D01*
X186916014Y-112737801D01*
X187283928Y-113105715D01*
X187283928Y-114338000D01*
X187296188Y-114462482D01*
X187332498Y-114582180D01*
X187391463Y-114692494D01*
X187470815Y-114789185D01*
X187567506Y-114868537D01*
X187677820Y-114927502D01*
X187797518Y-114963812D01*
X187922000Y-114976072D01*
X189522000Y-114976072D01*
X189646482Y-114963812D01*
X189766180Y-114927502D01*
X189876494Y-114868537D01*
X189973185Y-114789185D01*
X190052537Y-114692494D01*
X190111502Y-114582180D01*
X190147812Y-114462482D01*
X190160072Y-114338000D01*
X190160072Y-112738000D01*
X190147812Y-112613518D01*
X190111502Y-112493820D01*
X190073348Y-112422440D01*
X190811102Y-111684685D01*
X190829365Y-111776499D01*
X190965429Y-112104988D01*
X191162965Y-112400621D01*
X191414379Y-112652035D01*
X191710012Y-112849571D01*
X192038501Y-112985635D01*
X192387223Y-113055000D01*
X192742777Y-113055000D01*
X193091499Y-112985635D01*
X193419988Y-112849571D01*
X193715621Y-112652035D01*
X193967035Y-112400621D01*
X194164571Y-112104988D01*
X194300635Y-111776499D01*
X194370000Y-111427777D01*
X194370000Y-111072223D01*
X204035000Y-111072223D01*
X204035000Y-111427777D01*
X204104365Y-111776499D01*
X204240429Y-112104988D01*
X204437965Y-112400621D01*
X204689379Y-112652035D01*
X204985012Y-112849571D01*
X205313501Y-112985635D01*
X205662223Y-113055000D01*
X206017777Y-113055000D01*
X206366499Y-112985635D01*
X206694988Y-112849571D01*
X206990621Y-112652035D01*
X207242035Y-112400621D01*
X207439571Y-112104988D01*
X207575635Y-111776499D01*
X207645000Y-111427777D01*
X207645000Y-111072223D01*
X207575635Y-110723501D01*
X207439571Y-110395012D01*
X207242035Y-110099379D01*
X206990621Y-109847965D01*
X206694988Y-109650429D01*
X206366499Y-109514365D01*
X206017777Y-109445000D01*
X205662223Y-109445000D01*
X205313501Y-109514365D01*
X204985012Y-109650429D01*
X204689379Y-109847965D01*
X204437965Y-110099379D01*
X204240429Y-110395012D01*
X204104365Y-110723501D01*
X204035000Y-111072223D01*
X194370000Y-111072223D01*
X194300635Y-110723501D01*
X194164571Y-110395012D01*
X193967035Y-110099379D01*
X193715621Y-109847965D01*
X193419988Y-109650429D01*
X193091499Y-109514365D01*
X192999686Y-109496102D01*
X194023011Y-108472778D01*
X194050136Y-108450517D01*
X194072398Y-108423391D01*
X194072407Y-108423382D01*
X194139012Y-108342223D01*
X194163565Y-108296287D01*
X194205052Y-108218671D01*
X194245719Y-108084610D01*
X194256010Y-107980126D01*
X194256010Y-107980117D01*
X194259450Y-107945191D01*
X194256010Y-107910265D01*
X194256010Y-107342702D01*
X205846903Y-107342702D01*
X205918486Y-107586671D01*
X206173996Y-107707571D01*
X206448184Y-107776300D01*
X206730512Y-107790217D01*
X207010130Y-107748787D01*
X207276292Y-107653603D01*
X207401514Y-107586671D01*
X207473097Y-107342702D01*
X206660000Y-106529605D01*
X205846903Y-107342702D01*
X194256010Y-107342702D01*
X194256010Y-106520406D01*
X194375241Y-106639637D01*
X194610273Y-106796680D01*
X194871426Y-106904853D01*
X195148665Y-106960000D01*
X195431335Y-106960000D01*
X195708574Y-106904853D01*
X195969727Y-106796680D01*
X196204759Y-106639637D01*
X196404637Y-106439759D01*
X196561680Y-106204727D01*
X196669853Y-105943574D01*
X196725000Y-105666335D01*
X196725000Y-105383665D01*
X196669853Y-105106426D01*
X196561680Y-104845273D01*
X196404637Y-104610241D01*
X196204759Y-104410363D01*
X195969727Y-104253320D01*
X195708574Y-104145147D01*
X195431335Y-104090000D01*
X195148665Y-104090000D01*
X194871426Y-104145147D01*
X194610273Y-104253320D01*
X194375241Y-104410363D01*
X194256010Y-104529594D01*
X194256010Y-103145406D01*
X194375241Y-103264637D01*
X194610273Y-103421680D01*
X194871426Y-103529853D01*
X195148665Y-103585000D01*
X195431335Y-103585000D01*
X195708574Y-103529853D01*
X195969727Y-103421680D01*
X196204759Y-103264637D01*
X196404637Y-103064759D01*
X196540650Y-102861200D01*
X198095413Y-102861200D01*
X201237403Y-106003191D01*
X201259673Y-106030327D01*
X201286809Y-106052597D01*
X201367967Y-106119202D01*
X201491518Y-106185242D01*
X201625580Y-106225909D01*
X201654368Y-106228744D01*
X201795363Y-106439759D01*
X201995241Y-106639637D01*
X202230273Y-106796680D01*
X202491426Y-106904853D01*
X202768665Y-106960000D01*
X203051335Y-106960000D01*
X203328574Y-106904853D01*
X203589727Y-106796680D01*
X203824759Y-106639637D01*
X204024637Y-106439759D01*
X204037497Y-106420512D01*
X205219783Y-106420512D01*
X205261213Y-106700130D01*
X205356397Y-106966292D01*
X205423329Y-107091514D01*
X205667298Y-107163097D01*
X206480395Y-106350000D01*
X206839605Y-106350000D01*
X207652702Y-107163097D01*
X207896671Y-107091514D01*
X208017571Y-106836004D01*
X208086300Y-106561816D01*
X208100217Y-106279488D01*
X208058787Y-105999870D01*
X207963603Y-105733708D01*
X207896671Y-105608486D01*
X207652702Y-105536903D01*
X206839605Y-106350000D01*
X206480395Y-106350000D01*
X205667298Y-105536903D01*
X205423329Y-105608486D01*
X205302429Y-105863996D01*
X205233700Y-106138184D01*
X205219783Y-106420512D01*
X204037497Y-106420512D01*
X204181680Y-106204727D01*
X204289853Y-105943574D01*
X204345000Y-105666335D01*
X204345000Y-105383665D01*
X204339756Y-105357298D01*
X205846903Y-105357298D01*
X206660000Y-106170395D01*
X207473097Y-105357298D01*
X207401514Y-105113329D01*
X207146004Y-104992429D01*
X206871816Y-104923700D01*
X206589488Y-104909783D01*
X206309870Y-104951213D01*
X206043708Y-105046397D01*
X205918486Y-105113329D01*
X205846903Y-105357298D01*
X204339756Y-105357298D01*
X204289853Y-105106426D01*
X204181680Y-104845273D01*
X204024637Y-104610241D01*
X203824759Y-104410363D01*
X203589727Y-104253320D01*
X203328574Y-104145147D01*
X203051335Y-104090000D01*
X202768665Y-104090000D01*
X202491426Y-104145147D01*
X202230273Y-104253320D01*
X201995241Y-104410363D01*
X201825696Y-104579908D01*
X199254453Y-102008665D01*
X201475000Y-102008665D01*
X201475000Y-102291335D01*
X201530147Y-102568574D01*
X201638320Y-102829727D01*
X201795363Y-103064759D01*
X201995241Y-103264637D01*
X202230273Y-103421680D01*
X202491426Y-103529853D01*
X202768665Y-103585000D01*
X203051335Y-103585000D01*
X203328574Y-103529853D01*
X203589727Y-103421680D01*
X203824759Y-103264637D01*
X204024637Y-103064759D01*
X204181680Y-102829727D01*
X204289853Y-102568574D01*
X204345000Y-102291335D01*
X204345000Y-102008665D01*
X204289853Y-101731426D01*
X204181680Y-101470273D01*
X204024637Y-101235241D01*
X203824759Y-101035363D01*
X203589727Y-100878320D01*
X203328574Y-100770147D01*
X203051335Y-100715000D01*
X202768665Y-100715000D01*
X202491426Y-100770147D01*
X202230273Y-100878320D01*
X201995241Y-101035363D01*
X201795363Y-101235241D01*
X201638320Y-101470273D01*
X201530147Y-101731426D01*
X201475000Y-102008665D01*
X199254453Y-102008665D01*
X198917602Y-101671815D01*
X198895327Y-101644673D01*
X198787033Y-101555798D01*
X198663481Y-101489758D01*
X198529420Y-101449091D01*
X198424936Y-101438800D01*
X198424926Y-101438800D01*
X198390000Y-101435360D01*
X198355074Y-101438800D01*
X196540650Y-101438800D01*
X196404637Y-101235241D01*
X196204759Y-101035363D01*
X195969727Y-100878320D01*
X195708574Y-100770147D01*
X195431335Y-100715000D01*
X195148665Y-100715000D01*
X194871426Y-100770147D01*
X194610273Y-100878320D01*
X194375241Y-101035363D01*
X194256010Y-101154594D01*
X194256010Y-99745406D01*
X194375241Y-99864637D01*
X194610273Y-100021680D01*
X194871426Y-100129853D01*
X195148665Y-100185000D01*
X195431335Y-100185000D01*
X195708574Y-100129853D01*
X195969727Y-100021680D01*
X196204759Y-99864637D01*
X196404637Y-99664759D01*
X196561680Y-99429727D01*
X196669853Y-99168574D01*
X196725000Y-98891335D01*
X196725000Y-98608665D01*
X196669853Y-98331426D01*
X196561680Y-98070273D01*
X196404637Y-97835241D01*
X196204759Y-97635363D01*
X195969727Y-97478320D01*
X195708574Y-97370147D01*
X195431335Y-97315000D01*
X195148665Y-97315000D01*
X194871426Y-97370147D01*
X194610273Y-97478320D01*
X194375241Y-97635363D01*
X194256010Y-97754594D01*
X194256010Y-97289777D01*
X195076588Y-96469200D01*
X197789350Y-96469200D01*
X197925363Y-96672759D01*
X198125241Y-96872637D01*
X198357759Y-97028000D01*
X198125241Y-97183363D01*
X197925363Y-97383241D01*
X197768320Y-97618273D01*
X197660147Y-97879426D01*
X197605000Y-98156665D01*
X197605000Y-98439335D01*
X197660147Y-98716574D01*
X197768320Y-98977727D01*
X197925363Y-99212759D01*
X198125241Y-99412637D01*
X198360273Y-99569680D01*
X198621426Y-99677853D01*
X198898665Y-99733000D01*
X199181335Y-99733000D01*
X199458574Y-99677853D01*
X199719727Y-99569680D01*
X199954759Y-99412637D01*
X200154637Y-99212759D01*
X200311680Y-98977727D01*
X200419853Y-98716574D01*
X200475000Y-98439335D01*
X200475000Y-98156665D01*
X200419853Y-97879426D01*
X200311680Y-97618273D01*
X200154637Y-97383241D01*
X199954759Y-97183363D01*
X199722241Y-97028000D01*
X199954759Y-96872637D01*
X200154637Y-96672759D01*
X200311680Y-96437727D01*
X200419853Y-96176574D01*
X200475000Y-95899335D01*
X200475000Y-95616665D01*
X200419853Y-95339426D01*
X200311680Y-95078273D01*
X200154637Y-94843241D01*
X199954759Y-94643363D01*
X199722241Y-94488000D01*
X199954759Y-94332637D01*
X200154637Y-94132759D01*
X200290650Y-93929200D01*
X200513413Y-93929200D01*
X202820407Y-96236196D01*
X202842673Y-96263327D01*
X202869804Y-96285593D01*
X202869808Y-96285597D01*
X202929943Y-96334948D01*
X202950967Y-96352202D01*
X203074519Y-96418242D01*
X203208580Y-96458909D01*
X203313064Y-96469200D01*
X203313081Y-96469200D01*
X203347999Y-96472639D01*
X203382917Y-96469200D01*
X205409350Y-96469200D01*
X205545363Y-96672759D01*
X205745241Y-96872637D01*
X205977759Y-97028000D01*
X205745241Y-97183363D01*
X205545363Y-97383241D01*
X205388320Y-97618273D01*
X205280147Y-97879426D01*
X205225000Y-98156665D01*
X205225000Y-98439335D01*
X205280147Y-98716574D01*
X205388320Y-98977727D01*
X205545363Y-99212759D01*
X205745241Y-99412637D01*
X205948800Y-99548651D01*
X205948801Y-100099349D01*
X205745241Y-100235363D01*
X205545363Y-100435241D01*
X205388320Y-100670273D01*
X205280147Y-100931426D01*
X205225000Y-101208665D01*
X205225000Y-101491335D01*
X205280147Y-101768574D01*
X205388320Y-102029727D01*
X205545363Y-102264759D01*
X205745241Y-102464637D01*
X205980273Y-102621680D01*
X206241426Y-102729853D01*
X206518665Y-102785000D01*
X206801335Y-102785000D01*
X207078574Y-102729853D01*
X207339727Y-102621680D01*
X207574759Y-102464637D01*
X207774637Y-102264759D01*
X207931680Y-102029727D01*
X208039853Y-101768574D01*
X208095000Y-101491335D01*
X208095000Y-101208665D01*
X208039853Y-100931426D01*
X207931680Y-100670273D01*
X207774637Y-100435241D01*
X207574759Y-100235363D01*
X207371200Y-100099350D01*
X207371200Y-99548650D01*
X207574759Y-99412637D01*
X207774637Y-99212759D01*
X207931680Y-98977727D01*
X208039853Y-98716574D01*
X208095000Y-98439335D01*
X208095000Y-98156665D01*
X208039853Y-97879426D01*
X207931680Y-97618273D01*
X207774637Y-97383241D01*
X207574759Y-97183363D01*
X207342241Y-97028000D01*
X207574759Y-96872637D01*
X207774637Y-96672759D01*
X207931680Y-96437727D01*
X208039853Y-96176574D01*
X208095000Y-95899335D01*
X208095000Y-95616665D01*
X208039853Y-95339426D01*
X207931680Y-95078273D01*
X207774637Y-94843241D01*
X207574759Y-94643363D01*
X207342241Y-94488000D01*
X207574759Y-94332637D01*
X207774637Y-94132759D01*
X207931680Y-93897727D01*
X208039853Y-93636574D01*
X208095000Y-93359335D01*
X208095000Y-93076665D01*
X208039853Y-92799426D01*
X207931680Y-92538273D01*
X207774637Y-92303241D01*
X207574759Y-92103363D01*
X207342241Y-91948000D01*
X207574759Y-91792637D01*
X207774637Y-91592759D01*
X207931680Y-91357727D01*
X208039853Y-91096574D01*
X208095000Y-90819335D01*
X208095000Y-90786890D01*
X215278524Y-90786890D01*
X215323175Y-90934099D01*
X215448359Y-91196920D01*
X215622412Y-91430269D01*
X215838645Y-91625178D01*
X216088748Y-91774157D01*
X216363109Y-91871481D01*
X216593000Y-91750814D01*
X216593000Y-90557000D01*
X215399845Y-90557000D01*
X215278524Y-90786890D01*
X208095000Y-90786890D01*
X208095000Y-90536665D01*
X208039853Y-90259426D01*
X207931680Y-89998273D01*
X207774637Y-89763241D01*
X207574759Y-89563363D01*
X207339727Y-89406320D01*
X207078574Y-89298147D01*
X206801335Y-89243000D01*
X206518665Y-89243000D01*
X206241426Y-89298147D01*
X205980273Y-89406320D01*
X205745241Y-89563363D01*
X205545363Y-89763241D01*
X205388320Y-89998273D01*
X205280147Y-90259426D01*
X205225000Y-90536665D01*
X205225000Y-90819335D01*
X205280147Y-91096574D01*
X205388320Y-91357727D01*
X205545363Y-91592759D01*
X205745241Y-91792637D01*
X205977759Y-91948000D01*
X205745241Y-92103363D01*
X205545363Y-92303241D01*
X205388320Y-92538273D01*
X205280147Y-92799426D01*
X205225000Y-93076665D01*
X205225000Y-93359335D01*
X205280147Y-93636574D01*
X205388320Y-93897727D01*
X205545363Y-94132759D01*
X205745241Y-94332637D01*
X205977759Y-94488000D01*
X205745241Y-94643363D01*
X205545363Y-94843241D01*
X205409350Y-95046800D01*
X203642589Y-95046800D01*
X201335602Y-92739815D01*
X201313327Y-92712673D01*
X201205033Y-92623798D01*
X201081481Y-92557758D01*
X200947420Y-92517091D01*
X200842936Y-92506800D01*
X200842926Y-92506800D01*
X200808000Y-92503360D01*
X200773074Y-92506800D01*
X200290650Y-92506800D01*
X200154637Y-92303241D01*
X199956039Y-92104643D01*
X199964482Y-92103812D01*
X200084180Y-92067502D01*
X200194494Y-92008537D01*
X200291185Y-91929185D01*
X200370537Y-91832494D01*
X200429502Y-91722180D01*
X200465812Y-91602482D01*
X200478072Y-91478000D01*
X200475000Y-90963750D01*
X200316250Y-90805000D01*
X199167000Y-90805000D01*
X199167000Y-90825000D01*
X198913000Y-90825000D01*
X198913000Y-90805000D01*
X197763750Y-90805000D01*
X197605000Y-90963750D01*
X197601928Y-91478000D01*
X197614188Y-91602482D01*
X197650498Y-91722180D01*
X197709463Y-91832494D01*
X197788815Y-91929185D01*
X197885506Y-92008537D01*
X197995820Y-92067502D01*
X198115518Y-92103812D01*
X198123961Y-92104643D01*
X197925363Y-92303241D01*
X197768320Y-92538273D01*
X197660147Y-92799426D01*
X197605000Y-93076665D01*
X197605000Y-93359335D01*
X197660147Y-93636574D01*
X197768320Y-93897727D01*
X197925363Y-94132759D01*
X198125241Y-94332637D01*
X198357759Y-94488000D01*
X198125241Y-94643363D01*
X197925363Y-94843241D01*
X197789350Y-95046800D01*
X195919020Y-95046800D01*
X196031514Y-94986671D01*
X196103097Y-94742702D01*
X195290000Y-93929605D01*
X194476903Y-94742702D01*
X194548486Y-94986671D01*
X194687882Y-95052629D01*
X194642580Y-95057091D01*
X194508519Y-95097758D01*
X194384967Y-95163798D01*
X194276673Y-95252673D01*
X194254404Y-95279808D01*
X193951200Y-95583012D01*
X193951200Y-94267871D01*
X193986397Y-94366292D01*
X194053329Y-94491514D01*
X194297298Y-94563097D01*
X195110395Y-93750000D01*
X195469605Y-93750000D01*
X196282702Y-94563097D01*
X196526671Y-94491514D01*
X196647571Y-94236004D01*
X196716300Y-93961816D01*
X196730217Y-93679488D01*
X196688787Y-93399870D01*
X196593603Y-93133708D01*
X196526671Y-93008486D01*
X196282702Y-92936903D01*
X195469605Y-93750000D01*
X195110395Y-93750000D01*
X194297298Y-92936903D01*
X194053329Y-93008486D01*
X193951200Y-93224325D01*
X193951200Y-92757298D01*
X194476903Y-92757298D01*
X195290000Y-93570395D01*
X196103097Y-92757298D01*
X196031514Y-92513329D01*
X195776004Y-92392429D01*
X195501816Y-92323700D01*
X195219488Y-92309783D01*
X194939870Y-92351213D01*
X194673708Y-92446397D01*
X194548486Y-92513329D01*
X194476903Y-92757298D01*
X193951200Y-92757298D01*
X193951200Y-91169587D01*
X195242787Y-89878000D01*
X197601928Y-89878000D01*
X197605000Y-90392250D01*
X197763750Y-90551000D01*
X198913000Y-90551000D01*
X198913000Y-89401750D01*
X199167000Y-89401750D01*
X199167000Y-90551000D01*
X200316250Y-90551000D01*
X200475000Y-90392250D01*
X200478072Y-89878000D01*
X200465812Y-89753518D01*
X200429502Y-89633820D01*
X200370537Y-89523506D01*
X200291185Y-89426815D01*
X200194494Y-89347463D01*
X200084180Y-89288498D01*
X199964482Y-89252188D01*
X199840000Y-89239928D01*
X199325750Y-89243000D01*
X199167000Y-89401750D01*
X198913000Y-89401750D01*
X198754250Y-89243000D01*
X198240000Y-89239928D01*
X198115518Y-89252188D01*
X197995820Y-89288498D01*
X197885506Y-89347463D01*
X197788815Y-89426815D01*
X197709463Y-89523506D01*
X197650498Y-89633820D01*
X197614188Y-89753518D01*
X197601928Y-89878000D01*
X195242787Y-89878000D01*
X197821101Y-87299688D01*
X207071921Y-87299688D01*
X207106847Y-87303128D01*
X207141773Y-87299688D01*
X207141783Y-87299688D01*
X207246267Y-87289397D01*
X207380328Y-87248730D01*
X207503880Y-87182690D01*
X207612174Y-87093815D01*
X207634449Y-87066673D01*
X214964923Y-79736200D01*
X215333755Y-79736200D01*
X215292068Y-79836842D01*
G37*
G04 #@! TD.AperFunction*
D24*
X160638200Y-60244133D02*
X160634759Y-60279069D01*
X160638200Y-60314005D01*
X160648491Y-60418489D01*
X160655917Y-60442970D01*
X160689158Y-60552550D01*
X160755197Y-60676101D01*
X160820047Y-60755120D01*
X160844073Y-60784396D01*
X160871209Y-60806666D01*
X163151938Y-63087396D01*
X162997488Y-63079783D01*
X162717870Y-63121213D01*
X162451708Y-63216397D01*
X162326486Y-63283329D01*
X162254903Y-63527298D01*
X163068000Y-64340395D01*
X163082143Y-64326253D01*
X163261748Y-64505858D01*
X163247605Y-64520000D01*
X163261748Y-64534143D01*
X163082143Y-64713748D01*
X163068000Y-64699605D01*
X162254903Y-65512702D01*
X162326486Y-65756671D01*
X162581996Y-65877571D01*
X162856184Y-65946300D01*
X163138512Y-65960217D01*
X163385401Y-65923636D01*
X163385401Y-66760166D01*
X163279816Y-66733700D01*
X162997488Y-66719783D01*
X162717870Y-66761213D01*
X162451708Y-66856397D01*
X162326486Y-66923329D01*
X162254903Y-67167298D01*
X163068000Y-67980395D01*
X163082143Y-67966253D01*
X163261748Y-68145858D01*
X163247605Y-68160000D01*
X163261748Y-68174143D01*
X163082143Y-68353748D01*
X163068000Y-68339605D01*
X162254903Y-69152702D01*
X162326486Y-69396671D01*
X162581996Y-69517571D01*
X162856184Y-69586300D01*
X163138512Y-69600217D01*
X163385402Y-69563636D01*
X163385402Y-73899006D01*
X163301759Y-73815363D01*
X163066727Y-73658320D01*
X162805574Y-73550147D01*
X162528335Y-73495000D01*
X162245665Y-73495000D01*
X161968426Y-73550147D01*
X161707273Y-73658320D01*
X161472241Y-73815363D01*
X161272363Y-74015241D01*
X161115320Y-74250273D01*
X161007147Y-74511426D01*
X160952000Y-74788665D01*
X160952000Y-75071335D01*
X161007147Y-75348574D01*
X161115320Y-75609727D01*
X161272363Y-75844759D01*
X161472241Y-76044637D01*
X161707273Y-76201680D01*
X161968426Y-76309853D01*
X162245665Y-76365000D01*
X162528335Y-76365000D01*
X162805574Y-76309853D01*
X163066727Y-76201680D01*
X163187199Y-76121183D01*
X163187200Y-81358817D01*
X163066727Y-81278320D01*
X162805574Y-81170147D01*
X162528335Y-81115000D01*
X162245665Y-81115000D01*
X161968426Y-81170147D01*
X161707273Y-81278320D01*
X161472241Y-81435363D01*
X161272363Y-81635241D01*
X161115320Y-81870273D01*
X161007147Y-82131426D01*
X160952000Y-82408665D01*
X160952000Y-82691335D01*
X161007147Y-82968574D01*
X161115320Y-83229727D01*
X161272363Y-83464759D01*
X161472241Y-83664637D01*
X161707273Y-83821680D01*
X161968426Y-83929853D01*
X162245665Y-83985000D01*
X162528335Y-83985000D01*
X162805574Y-83929853D01*
X163066727Y-83821680D01*
X163301759Y-83664637D01*
X163501637Y-83464759D01*
X163657000Y-83232241D01*
X163812363Y-83464759D01*
X164012241Y-83664637D01*
X164247273Y-83821680D01*
X164508426Y-83929853D01*
X164785665Y-83985000D01*
X165068335Y-83985000D01*
X165254746Y-83947920D01*
X165254746Y-84724131D01*
X165187751Y-84791126D01*
X165160618Y-84813394D01*
X165138352Y-84840525D01*
X165138348Y-84840529D01*
X165096884Y-84891054D01*
X165071743Y-84921688D01*
X165005703Y-85045240D01*
X164965036Y-85179301D01*
X164954745Y-85283785D01*
X164954745Y-85283793D01*
X164951305Y-85318719D01*
X164954745Y-85353647D01*
X164954745Y-89613696D01*
X164906537Y-89523506D01*
X164827185Y-89426815D01*
X164730494Y-89347463D01*
X164620180Y-89288498D01*
X164500482Y-89252188D01*
X164376000Y-89239928D01*
X162776000Y-89239928D01*
X162651518Y-89252188D01*
X162531820Y-89288498D01*
X162421506Y-89347463D01*
X162324815Y-89426815D01*
X162245463Y-89523506D01*
X162186498Y-89633820D01*
X162150188Y-89753518D01*
X162137928Y-89878000D01*
X162137928Y-91110285D01*
X162059413Y-91188800D01*
X159583652Y-91188800D01*
X159621853Y-91096574D01*
X159677000Y-90819335D01*
X159677000Y-90536665D01*
X159621853Y-90259426D01*
X159513680Y-89998273D01*
X159356637Y-89763241D01*
X159156759Y-89563363D01*
X158921727Y-89406320D01*
X158660574Y-89298147D01*
X158383335Y-89243000D01*
X158100665Y-89243000D01*
X157823426Y-89298147D01*
X157562273Y-89406320D01*
X157327241Y-89563363D01*
X157127363Y-89763241D01*
X156970320Y-89998273D01*
X156862147Y-90259426D01*
X156807000Y-90536665D01*
X156807000Y-90819335D01*
X156862147Y-91096574D01*
X156900348Y-91188800D01*
X154288588Y-91188800D01*
X153299602Y-90199815D01*
X153277327Y-90172673D01*
X153169033Y-90083798D01*
X153045481Y-90017758D01*
X152911420Y-89977091D01*
X152806936Y-89966800D01*
X152806926Y-89966800D01*
X152772000Y-89963360D01*
X152737074Y-89966800D01*
X152060072Y-89966800D01*
X152060072Y-89878000D01*
X152047812Y-89753518D01*
X152011502Y-89633820D01*
X151952537Y-89523506D01*
X151873185Y-89426815D01*
X151776494Y-89347463D01*
X151666180Y-89288498D01*
X151546482Y-89252188D01*
X151422000Y-89239928D01*
X149822000Y-89239928D01*
X149697518Y-89252188D01*
X149577820Y-89288498D01*
X149467506Y-89347463D01*
X149370815Y-89426815D01*
X149291463Y-89523506D01*
X149232498Y-89633820D01*
X149196188Y-89753518D01*
X149183928Y-89878000D01*
X149183928Y-91478000D01*
X149196188Y-91602482D01*
X149232498Y-91722180D01*
X149291463Y-91832494D01*
X149370815Y-91929185D01*
X149467506Y-92008537D01*
X149577820Y-92067502D01*
X149697518Y-92103812D01*
X149705961Y-92104643D01*
X149507363Y-92303241D01*
X149350320Y-92538273D01*
X149242147Y-92799426D01*
X149187000Y-93076665D01*
X149187000Y-93359335D01*
X149242147Y-93636574D01*
X149350320Y-93897727D01*
X149507363Y-94132759D01*
X149707241Y-94332637D01*
X149939759Y-94488000D01*
X149707241Y-94643363D01*
X149507363Y-94843241D01*
X149350320Y-95078273D01*
X149242147Y-95339426D01*
X149187000Y-95616665D01*
X149187000Y-95899335D01*
X149242147Y-96176574D01*
X149350320Y-96437727D01*
X149507363Y-96672759D01*
X149707241Y-96872637D01*
X149939759Y-97028000D01*
X149707241Y-97183363D01*
X149507363Y-97383241D01*
X149350320Y-97618273D01*
X149242147Y-97879426D01*
X149187000Y-98156665D01*
X149187000Y-98439335D01*
X149242147Y-98716574D01*
X149350320Y-98977727D01*
X149507363Y-99212759D01*
X149707241Y-99412637D01*
X149939759Y-99568000D01*
X149707241Y-99723363D01*
X149507363Y-99923241D01*
X149350320Y-100158273D01*
X149242147Y-100419426D01*
X149187000Y-100696665D01*
X149187000Y-100979335D01*
X149242147Y-101256574D01*
X149350320Y-101517727D01*
X149507363Y-101752759D01*
X149707241Y-101952637D01*
X149939759Y-102108000D01*
X149707241Y-102263363D01*
X149507363Y-102463241D01*
X149350320Y-102698273D01*
X149242147Y-102959426D01*
X149187000Y-103236665D01*
X149187000Y-103519335D01*
X149242147Y-103796574D01*
X149350320Y-104057727D01*
X149507363Y-104292759D01*
X149707241Y-104492637D01*
X149939759Y-104648000D01*
X149707241Y-104803363D01*
X149507363Y-105003241D01*
X149350320Y-105238273D01*
X149242147Y-105499426D01*
X149187000Y-105776665D01*
X149187000Y-106059335D01*
X149242147Y-106336574D01*
X149350320Y-106597727D01*
X149507363Y-106832759D01*
X149707241Y-107032637D01*
X149939759Y-107188000D01*
X149707241Y-107343363D01*
X149507363Y-107543241D01*
X149350320Y-107778273D01*
X149242147Y-108039426D01*
X149187000Y-108316665D01*
X149187000Y-108599335D01*
X149242147Y-108876574D01*
X149350320Y-109137727D01*
X149507363Y-109372759D01*
X149707241Y-109572637D01*
X149939759Y-109728000D01*
X149707241Y-109883363D01*
X149507363Y-110083241D01*
X149350320Y-110318273D01*
X149242147Y-110579426D01*
X149187000Y-110856665D01*
X149187000Y-111139335D01*
X149242147Y-111416574D01*
X149350320Y-111677727D01*
X149507363Y-111912759D01*
X149707241Y-112112637D01*
X149942273Y-112269680D01*
X149952865Y-112274067D01*
X149766869Y-112385615D01*
X149558481Y-112574586D01*
X149390963Y-112800580D01*
X149270754Y-113054913D01*
X149230096Y-113188961D01*
X149352085Y-113411000D01*
X150495000Y-113411000D01*
X150495000Y-113391000D01*
X150749000Y-113391000D01*
X150749000Y-113411000D01*
X151891915Y-113411000D01*
X152013904Y-113188961D01*
X151973246Y-113054913D01*
X151853037Y-112800580D01*
X151685519Y-112574586D01*
X151477131Y-112385615D01*
X151291135Y-112274067D01*
X151301727Y-112269680D01*
X151536759Y-112112637D01*
X151736637Y-111912759D01*
X151893680Y-111677727D01*
X152001853Y-111416574D01*
X152057000Y-111139335D01*
X152057000Y-110856665D01*
X152001853Y-110579426D01*
X151893680Y-110318273D01*
X151736637Y-110083241D01*
X151536759Y-109883363D01*
X151304241Y-109728000D01*
X151536759Y-109572637D01*
X151736637Y-109372759D01*
X151893680Y-109137727D01*
X152001853Y-108876574D01*
X152057000Y-108599335D01*
X152057000Y-108316665D01*
X152001853Y-108039426D01*
X151893680Y-107778273D01*
X151736637Y-107543241D01*
X151536759Y-107343363D01*
X151304241Y-107188000D01*
X151536759Y-107032637D01*
X151736637Y-106832759D01*
X151893680Y-106597727D01*
X152001853Y-106336574D01*
X152057000Y-106059335D01*
X152057000Y-105776665D01*
X152001853Y-105499426D01*
X151893680Y-105238273D01*
X151736637Y-105003241D01*
X151536759Y-104803363D01*
X151304241Y-104648000D01*
X151536759Y-104492637D01*
X151736637Y-104292759D01*
X151893680Y-104057727D01*
X152001853Y-103796574D01*
X152057000Y-103519335D01*
X152057000Y-103236665D01*
X152001853Y-102959426D01*
X151893680Y-102698273D01*
X151736637Y-102463241D01*
X151536759Y-102263363D01*
X151304241Y-102108000D01*
X151536759Y-101952637D01*
X151736637Y-101752759D01*
X151893680Y-101517727D01*
X152001853Y-101256574D01*
X152057000Y-100979335D01*
X152057000Y-100696665D01*
X152001853Y-100419426D01*
X151893680Y-100158273D01*
X151736637Y-99923241D01*
X151536759Y-99723363D01*
X151304241Y-99568000D01*
X151536759Y-99412637D01*
X151736637Y-99212759D01*
X151893680Y-98977727D01*
X152001853Y-98716574D01*
X152057000Y-98439335D01*
X152057000Y-98156665D01*
X152001853Y-97879426D01*
X151893680Y-97618273D01*
X151736637Y-97383241D01*
X151536759Y-97183363D01*
X151304241Y-97028000D01*
X151536759Y-96872637D01*
X151736637Y-96672759D01*
X151893680Y-96437727D01*
X152001853Y-96176574D01*
X152057000Y-95899335D01*
X152057000Y-95616665D01*
X152001853Y-95339426D01*
X151893680Y-95078273D01*
X151736637Y-94843241D01*
X151536759Y-94643363D01*
X151304241Y-94488000D01*
X151536759Y-94332637D01*
X151736637Y-94132759D01*
X151893680Y-93897727D01*
X152001853Y-93636574D01*
X152057000Y-93359335D01*
X152057000Y-93076665D01*
X152001853Y-92799426D01*
X151893680Y-92538273D01*
X151736637Y-92303241D01*
X151538039Y-92104643D01*
X151546482Y-92103812D01*
X151666180Y-92067502D01*
X151776494Y-92008537D01*
X151873185Y-91929185D01*
X151952537Y-91832494D01*
X152011502Y-91722180D01*
X152047812Y-91602482D01*
X152060072Y-91478000D01*
X152060072Y-91389200D01*
X152477413Y-91389200D01*
X153466403Y-92378191D01*
X153488673Y-92405327D01*
X153596967Y-92494202D01*
X153720519Y-92560242D01*
X153854580Y-92600909D01*
X153959064Y-92611200D01*
X153959071Y-92611200D01*
X153994000Y-92614640D01*
X154028928Y-92611200D01*
X156940113Y-92611200D01*
X156862147Y-92799426D01*
X156807000Y-93076665D01*
X156807000Y-93359335D01*
X156862147Y-93636574D01*
X156970320Y-93897727D01*
X157127363Y-94132759D01*
X157327241Y-94332637D01*
X157559759Y-94488000D01*
X157327241Y-94643363D01*
X157127363Y-94843241D01*
X156970320Y-95078273D01*
X156862147Y-95339426D01*
X156807000Y-95616665D01*
X156807000Y-95899335D01*
X156862147Y-96176574D01*
X156970320Y-96437727D01*
X157127363Y-96672759D01*
X157327241Y-96872637D01*
X157559759Y-97028000D01*
X157327241Y-97183363D01*
X157127363Y-97383241D01*
X156970320Y-97618273D01*
X156862147Y-97879426D01*
X156807000Y-98156665D01*
X156807000Y-98439335D01*
X156862147Y-98716574D01*
X156970320Y-98977727D01*
X157127363Y-99212759D01*
X157327241Y-99412637D01*
X157559759Y-99568000D01*
X157327241Y-99723363D01*
X157127363Y-99923241D01*
X156970320Y-100158273D01*
X156862147Y-100419426D01*
X156807000Y-100696665D01*
X156807000Y-100979335D01*
X156862147Y-101256574D01*
X156970320Y-101517727D01*
X157127363Y-101752759D01*
X157327241Y-101952637D01*
X157559759Y-102108000D01*
X157327241Y-102263363D01*
X157127363Y-102463241D01*
X156970320Y-102698273D01*
X156862147Y-102959426D01*
X156807000Y-103236665D01*
X156807000Y-103519335D01*
X156862147Y-103796574D01*
X156970320Y-104057727D01*
X157127363Y-104292759D01*
X157327241Y-104492637D01*
X157559759Y-104648000D01*
X157327241Y-104803363D01*
X157127363Y-105003241D01*
X156970320Y-105238273D01*
X156862147Y-105499426D01*
X156807000Y-105776665D01*
X156807000Y-106059335D01*
X156862147Y-106336574D01*
X156970320Y-106597727D01*
X157127363Y-106832759D01*
X157327241Y-107032637D01*
X157559759Y-107188000D01*
X157327241Y-107343363D01*
X157127363Y-107543241D01*
X156970320Y-107778273D01*
X156862147Y-108039426D01*
X156807000Y-108316665D01*
X156807000Y-108599335D01*
X156862147Y-108876574D01*
X156970320Y-109137727D01*
X157127363Y-109372759D01*
X157327241Y-109572637D01*
X157559759Y-109728000D01*
X157327241Y-109883363D01*
X157127363Y-110083241D01*
X156970320Y-110318273D01*
X156862147Y-110579426D01*
X156807000Y-110856665D01*
X156807000Y-111139335D01*
X156862147Y-111416574D01*
X156970320Y-111677727D01*
X157127363Y-111912759D01*
X157327241Y-112112637D01*
X157559759Y-112268000D01*
X157327241Y-112423363D01*
X157127363Y-112623241D01*
X156970320Y-112858273D01*
X156862147Y-113119426D01*
X156807000Y-113396665D01*
X156807000Y-113679335D01*
X156862147Y-113956574D01*
X156970320Y-114217727D01*
X157127363Y-114452759D01*
X157327241Y-114652637D01*
X157562273Y-114809680D01*
X157823426Y-114917853D01*
X158100665Y-114973000D01*
X158383335Y-114973000D01*
X158660574Y-114917853D01*
X158921727Y-114809680D01*
X159156759Y-114652637D01*
X159356637Y-114452759D01*
X159513680Y-114217727D01*
X159621853Y-113956574D01*
X159635684Y-113887039D01*
X162184096Y-113887039D01*
X162224754Y-114021087D01*
X162344963Y-114275420D01*
X162512481Y-114501414D01*
X162720869Y-114690385D01*
X162962119Y-114835070D01*
X163226960Y-114929909D01*
X163449000Y-114808624D01*
X163449000Y-113665000D01*
X163703000Y-113665000D01*
X163703000Y-114808624D01*
X163925040Y-114929909D01*
X164189881Y-114835070D01*
X164431131Y-114690385D01*
X164639519Y-114501414D01*
X164807037Y-114275420D01*
X164927246Y-114021087D01*
X164967904Y-113887039D01*
X164845915Y-113665000D01*
X163703000Y-113665000D01*
X163449000Y-113665000D01*
X162306085Y-113665000D01*
X162184096Y-113887039D01*
X159635684Y-113887039D01*
X159677000Y-113679335D01*
X159677000Y-113396665D01*
X159621853Y-113119426D01*
X159513680Y-112858273D01*
X159356637Y-112623241D01*
X159156759Y-112423363D01*
X158924241Y-112268000D01*
X159156759Y-112112637D01*
X159356637Y-111912759D01*
X159513680Y-111677727D01*
X159621853Y-111416574D01*
X159677000Y-111139335D01*
X159677000Y-110856665D01*
X159621853Y-110579426D01*
X159513680Y-110318273D01*
X159356637Y-110083241D01*
X159156759Y-109883363D01*
X158924241Y-109728000D01*
X159156759Y-109572637D01*
X159356637Y-109372759D01*
X159513680Y-109137727D01*
X159621853Y-108876574D01*
X159677000Y-108599335D01*
X159677000Y-108316665D01*
X159621853Y-108039426D01*
X159513680Y-107778273D01*
X159356637Y-107543241D01*
X159156759Y-107343363D01*
X158924241Y-107188000D01*
X159156759Y-107032637D01*
X159356637Y-106832759D01*
X159513680Y-106597727D01*
X159621853Y-106336574D01*
X159677000Y-106059335D01*
X159677000Y-105776665D01*
X159621853Y-105499426D01*
X159513680Y-105238273D01*
X159356637Y-105003241D01*
X159156759Y-104803363D01*
X158924241Y-104648000D01*
X159156759Y-104492637D01*
X159356637Y-104292759D01*
X159513680Y-104057727D01*
X159621853Y-103796574D01*
X159677000Y-103519335D01*
X159677000Y-103236665D01*
X159621853Y-102959426D01*
X159513680Y-102698273D01*
X159356637Y-102463241D01*
X159156759Y-102263363D01*
X158924241Y-102108000D01*
X159156759Y-101952637D01*
X159356637Y-101752759D01*
X159513680Y-101517727D01*
X159621853Y-101256574D01*
X159677000Y-100979335D01*
X159677000Y-100696665D01*
X159621853Y-100419426D01*
X159513680Y-100158273D01*
X159356637Y-99923241D01*
X159156759Y-99723363D01*
X158924241Y-99568000D01*
X159156759Y-99412637D01*
X159356637Y-99212759D01*
X159513680Y-98977727D01*
X159621853Y-98716574D01*
X159677000Y-98439335D01*
X159677000Y-98156665D01*
X159621853Y-97879426D01*
X159513680Y-97618273D01*
X159356637Y-97383241D01*
X159156759Y-97183363D01*
X158924241Y-97028000D01*
X159156759Y-96872637D01*
X159356637Y-96672759D01*
X159513680Y-96437727D01*
X159621853Y-96176574D01*
X159677000Y-95899335D01*
X159677000Y-95616665D01*
X159621853Y-95339426D01*
X159513680Y-95078273D01*
X159356637Y-94843241D01*
X159156759Y-94643363D01*
X158924241Y-94488000D01*
X159156759Y-94332637D01*
X159356637Y-94132759D01*
X159513680Y-93897727D01*
X159621853Y-93636574D01*
X159677000Y-93359335D01*
X159677000Y-93076665D01*
X159621853Y-92799426D01*
X159543887Y-92611200D01*
X162274113Y-92611200D01*
X162196147Y-92799426D01*
X162141000Y-93076665D01*
X162141000Y-93359335D01*
X162196147Y-93636574D01*
X162304320Y-93897727D01*
X162461363Y-94132759D01*
X162661241Y-94332637D01*
X162893759Y-94488000D01*
X162661241Y-94643363D01*
X162461363Y-94843241D01*
X162304320Y-95078273D01*
X162196147Y-95339426D01*
X162141000Y-95616665D01*
X162141000Y-95899335D01*
X162196147Y-96176574D01*
X162304320Y-96437727D01*
X162461363Y-96672759D01*
X162661241Y-96872637D01*
X162893759Y-97028000D01*
X162661241Y-97183363D01*
X162461363Y-97383241D01*
X162304320Y-97618273D01*
X162196147Y-97879426D01*
X162141000Y-98156665D01*
X162141000Y-98439335D01*
X162196147Y-98716574D01*
X162304320Y-98977727D01*
X162461363Y-99212759D01*
X162661241Y-99412637D01*
X162893759Y-99568000D01*
X162661241Y-99723363D01*
X162461363Y-99923241D01*
X162304320Y-100158273D01*
X162196147Y-100419426D01*
X162141000Y-100696665D01*
X162141000Y-100979335D01*
X162196147Y-101256574D01*
X162304320Y-101517727D01*
X162461363Y-101752759D01*
X162661241Y-101952637D01*
X162893759Y-102108000D01*
X162661241Y-102263363D01*
X162461363Y-102463241D01*
X162304320Y-102698273D01*
X162196147Y-102959426D01*
X162141000Y-103236665D01*
X162141000Y-103519335D01*
X162196147Y-103796574D01*
X162304320Y-104057727D01*
X162461363Y-104292759D01*
X162661241Y-104492637D01*
X162893759Y-104648000D01*
X162661241Y-104803363D01*
X162461363Y-105003241D01*
X162304320Y-105238273D01*
X162196147Y-105499426D01*
X162141000Y-105776665D01*
X162141000Y-106059335D01*
X162196147Y-106336574D01*
X162304320Y-106597727D01*
X162461363Y-106832759D01*
X162661241Y-107032637D01*
X162893759Y-107188000D01*
X162661241Y-107343363D01*
X162461363Y-107543241D01*
X162304320Y-107778273D01*
X162196147Y-108039426D01*
X162141000Y-108316665D01*
X162141000Y-108599335D01*
X162196147Y-108876574D01*
X162304320Y-109137727D01*
X162461363Y-109372759D01*
X162661241Y-109572637D01*
X162893759Y-109728000D01*
X162661241Y-109883363D01*
X162461363Y-110083241D01*
X162304320Y-110318273D01*
X162196147Y-110579426D01*
X162141000Y-110856665D01*
X162141000Y-111139335D01*
X162196147Y-111416574D01*
X162304320Y-111677727D01*
X162461363Y-111912759D01*
X162661241Y-112112637D01*
X162896273Y-112269680D01*
X162906865Y-112274067D01*
X162720869Y-112385615D01*
X162512481Y-112574586D01*
X162344963Y-112800580D01*
X162224754Y-113054913D01*
X162184096Y-113188961D01*
X162306085Y-113411000D01*
X163449000Y-113411000D01*
X163449000Y-113391000D01*
X163703000Y-113391000D01*
X163703000Y-113411000D01*
X164845915Y-113411000D01*
X164967904Y-113188961D01*
X164927246Y-113054913D01*
X164807037Y-112800580D01*
X164639519Y-112574586D01*
X164431131Y-112385615D01*
X164245135Y-112274067D01*
X164255727Y-112269680D01*
X164490759Y-112112637D01*
X164690637Y-111912759D01*
X164847680Y-111677727D01*
X164955853Y-111416574D01*
X165011000Y-111139335D01*
X165011000Y-110856665D01*
X164955853Y-110579426D01*
X164847680Y-110318273D01*
X164690637Y-110083241D01*
X164490759Y-109883363D01*
X164258241Y-109728000D01*
X164490759Y-109572637D01*
X164690637Y-109372759D01*
X164847680Y-109137727D01*
X164955853Y-108876574D01*
X165011000Y-108599335D01*
X165011000Y-108316665D01*
X164955853Y-108039426D01*
X164847680Y-107778273D01*
X164690637Y-107543241D01*
X164490759Y-107343363D01*
X164258241Y-107188000D01*
X164490759Y-107032637D01*
X164690637Y-106832759D01*
X164847680Y-106597727D01*
X164955853Y-106336574D01*
X165011000Y-106059335D01*
X165011000Y-105776665D01*
X164955853Y-105499426D01*
X164847680Y-105238273D01*
X164690637Y-105003241D01*
X164490759Y-104803363D01*
X164258241Y-104648000D01*
X164490759Y-104492637D01*
X164690637Y-104292759D01*
X164847680Y-104057727D01*
X164955853Y-103796574D01*
X165011000Y-103519335D01*
X165011000Y-103236665D01*
X164955853Y-102959426D01*
X164847680Y-102698273D01*
X164690637Y-102463241D01*
X164490759Y-102263363D01*
X164258241Y-102108000D01*
X164490759Y-101952637D01*
X164690637Y-101752759D01*
X164847680Y-101517727D01*
X164955853Y-101256574D01*
X165011000Y-100979335D01*
X165011000Y-100696665D01*
X164955853Y-100419426D01*
X164847680Y-100158273D01*
X164690637Y-99923241D01*
X164490759Y-99723363D01*
X164258241Y-99568000D01*
X164490759Y-99412637D01*
X164690637Y-99212759D01*
X164847680Y-98977727D01*
X164955853Y-98716574D01*
X165011000Y-98439335D01*
X165011000Y-98156665D01*
X164955853Y-97879426D01*
X164847680Y-97618273D01*
X164690637Y-97383241D01*
X164490759Y-97183363D01*
X164258241Y-97028000D01*
X164490759Y-96872637D01*
X164690637Y-96672759D01*
X164847680Y-96437727D01*
X164955853Y-96176574D01*
X165011000Y-95899335D01*
X165011000Y-95705189D01*
X165049178Y-95743368D01*
X165049180Y-107560443D01*
X165045739Y-107595379D01*
X165049180Y-107630314D01*
X165049180Y-107630315D01*
X165059471Y-107734799D01*
X165081000Y-107805771D01*
X165100138Y-107868860D01*
X165166177Y-107992411D01*
X165222440Y-108060967D01*
X165255053Y-108100706D01*
X165282189Y-108122976D01*
X169664008Y-112504797D01*
X169686274Y-112531928D01*
X169713405Y-112554194D01*
X169713409Y-112554198D01*
X169768013Y-112599010D01*
X169794568Y-112620803D01*
X169918120Y-112686843D01*
X170018516Y-112717298D01*
X169924320Y-112858273D01*
X169816147Y-113119426D01*
X169761000Y-113396665D01*
X169761000Y-113679335D01*
X169816147Y-113956574D01*
X169924320Y-114217727D01*
X170081363Y-114452759D01*
X170281241Y-114652637D01*
X170516273Y-114809680D01*
X170777426Y-114917853D01*
X171054665Y-114973000D01*
X171337335Y-114973000D01*
X171614574Y-114917853D01*
X171875727Y-114809680D01*
X172110759Y-114652637D01*
X172310637Y-114452759D01*
X172467680Y-114217727D01*
X172575853Y-113956574D01*
X172631000Y-113679335D01*
X172631000Y-113396665D01*
X172575853Y-113119426D01*
X172467680Y-112858273D01*
X172387183Y-112737801D01*
X176365130Y-112737801D01*
X176293320Y-112845273D01*
X176185147Y-113106426D01*
X176130000Y-113383665D01*
X176130000Y-113666335D01*
X176136044Y-113696721D01*
X172971765Y-116861000D01*
X150183235Y-116861000D01*
X148254000Y-114931765D01*
X148254000Y-113887039D01*
X149230096Y-113887039D01*
X149270754Y-114021087D01*
X149390963Y-114275420D01*
X149558481Y-114501414D01*
X149766869Y-114690385D01*
X150008119Y-114835070D01*
X150272960Y-114929909D01*
X150495000Y-114808624D01*
X150495000Y-113665000D01*
X150749000Y-113665000D01*
X150749000Y-114808624D01*
X150971040Y-114929909D01*
X151235881Y-114835070D01*
X151477131Y-114690385D01*
X151685519Y-114501414D01*
X151853037Y-114275420D01*
X151973246Y-114021087D01*
X152013904Y-113887039D01*
X151891915Y-113665000D01*
X150749000Y-113665000D01*
X150495000Y-113665000D01*
X149352085Y-113665000D01*
X149230096Y-113887039D01*
X148254000Y-113887039D01*
X148254000Y-89018235D01*
X149333236Y-87939000D01*
X157110151Y-87939000D01*
X157127363Y-87964759D01*
X157327241Y-88164637D01*
X157562273Y-88321680D01*
X157823426Y-88429853D01*
X158100665Y-88485000D01*
X158383335Y-88485000D01*
X158660574Y-88429853D01*
X158921727Y-88321680D01*
X159156759Y-88164637D01*
X159278694Y-88042702D01*
X162428903Y-88042702D01*
X162500486Y-88286671D01*
X162755996Y-88407571D01*
X163030184Y-88476300D01*
X163312512Y-88490217D01*
X163592130Y-88448787D01*
X163858292Y-88353603D01*
X163983514Y-88286671D01*
X164055097Y-88042702D01*
X163242000Y-87229605D01*
X162428903Y-88042702D01*
X159278694Y-88042702D01*
X159356637Y-87964759D01*
X159513680Y-87729727D01*
X159621853Y-87468574D01*
X159677000Y-87191335D01*
X159677000Y-87120512D01*
X161801783Y-87120512D01*
X161843213Y-87400130D01*
X161938397Y-87666292D01*
X162005329Y-87791514D01*
X162249298Y-87863097D01*
X163062395Y-87050000D01*
X163421605Y-87050000D01*
X164234702Y-87863097D01*
X164478671Y-87791514D01*
X164599571Y-87536004D01*
X164668300Y-87261816D01*
X164682217Y-86979488D01*
X164640787Y-86699870D01*
X164545603Y-86433708D01*
X164478671Y-86308486D01*
X164234702Y-86236903D01*
X163421605Y-87050000D01*
X163062395Y-87050000D01*
X162249298Y-86236903D01*
X162005329Y-86308486D01*
X161884429Y-86563996D01*
X161815700Y-86838184D01*
X161801783Y-87120512D01*
X159677000Y-87120512D01*
X159677000Y-86908665D01*
X159621853Y-86631426D01*
X159513680Y-86370273D01*
X159356637Y-86135241D01*
X159278694Y-86057298D01*
X162428903Y-86057298D01*
X163242000Y-86870395D01*
X164055097Y-86057298D01*
X163983514Y-85813329D01*
X163728004Y-85692429D01*
X163453816Y-85623700D01*
X163171488Y-85609783D01*
X162891870Y-85651213D01*
X162625708Y-85746397D01*
X162500486Y-85813329D01*
X162428903Y-86057298D01*
X159278694Y-86057298D01*
X159156759Y-85935363D01*
X158921727Y-85778320D01*
X158660574Y-85670147D01*
X158383335Y-85615000D01*
X158100665Y-85615000D01*
X157823426Y-85670147D01*
X157562273Y-85778320D01*
X157327241Y-85935363D01*
X157127363Y-86135241D01*
X157110151Y-86161000D01*
X155295709Y-86161000D01*
X159317742Y-82138968D01*
X159351659Y-82111133D01*
X159383932Y-82071809D01*
X159422642Y-82024640D01*
X159462753Y-81975765D01*
X159545303Y-81821325D01*
X159572722Y-81730936D01*
X159596136Y-81653750D01*
X159604759Y-81566198D01*
X159609000Y-81523141D01*
X159609000Y-81523135D01*
X159613300Y-81479475D01*
X159609000Y-81435815D01*
X159609000Y-69152702D01*
X159968903Y-69152702D01*
X160040486Y-69396671D01*
X160295996Y-69517571D01*
X160570184Y-69586300D01*
X160852512Y-69600217D01*
X161132130Y-69558787D01*
X161398292Y-69463603D01*
X161523514Y-69396671D01*
X161595097Y-69152702D01*
X160782000Y-68339605D01*
X159968903Y-69152702D01*
X159609000Y-69152702D01*
X159609000Y-68920196D01*
X159789298Y-68973097D01*
X160602395Y-68160000D01*
X160961605Y-68160000D01*
X161774702Y-68973097D01*
X161925000Y-68928998D01*
X162075298Y-68973097D01*
X162888395Y-68160000D01*
X162075298Y-67346903D01*
X161925000Y-67391002D01*
X161774702Y-67346903D01*
X160961605Y-68160000D01*
X160602395Y-68160000D01*
X159789298Y-67346903D01*
X159609000Y-67399804D01*
X159609000Y-67167298D01*
X159968903Y-67167298D01*
X160782000Y-67980395D01*
X161595097Y-67167298D01*
X161523514Y-66923329D01*
X161268004Y-66802429D01*
X160993816Y-66733700D01*
X160711488Y-66719783D01*
X160431870Y-66761213D01*
X160165708Y-66856397D01*
X160040486Y-66923329D01*
X159968903Y-67167298D01*
X159609000Y-67167298D01*
X159609000Y-66332463D01*
X159725824Y-66157624D01*
X159811383Y-65951067D01*
X159855000Y-65731788D01*
X159855000Y-65626607D01*
X159968903Y-65512704D01*
X160040486Y-65756671D01*
X160295996Y-65877571D01*
X160570184Y-65946300D01*
X160852512Y-65960217D01*
X161132130Y-65918787D01*
X161398292Y-65823603D01*
X161523514Y-65756671D01*
X161595097Y-65512702D01*
X160782000Y-64699605D01*
X160767858Y-64713748D01*
X160588253Y-64534143D01*
X160602395Y-64520000D01*
X160961605Y-64520000D01*
X161774702Y-65333097D01*
X161925000Y-65288998D01*
X162075298Y-65333097D01*
X162888395Y-64520000D01*
X162075298Y-63706903D01*
X161925000Y-63751002D01*
X161774702Y-63706903D01*
X160961605Y-64520000D01*
X160602395Y-64520000D01*
X160588253Y-64505858D01*
X160767858Y-64326253D01*
X160782000Y-64340395D01*
X161595097Y-63527298D01*
X161523514Y-63283329D01*
X161268004Y-63162429D01*
X160993816Y-63093700D01*
X160711488Y-63079783D01*
X160431870Y-63121213D01*
X160165708Y-63216397D01*
X160040486Y-63283329D01*
X159968903Y-63527296D01*
X159852630Y-63411023D01*
X159766009Y-63497644D01*
X159766009Y-60187778D01*
X160638200Y-59315588D01*
X160638200Y-60244133D01*
G04 #@! TA.AperFunction,Conductor*
D25*
G36*
X160638200Y-60244133D02*
G01*
X160634759Y-60279069D01*
X160638200Y-60314005D01*
X160648491Y-60418489D01*
X160655917Y-60442970D01*
X160689158Y-60552550D01*
X160755197Y-60676101D01*
X160820047Y-60755120D01*
X160844073Y-60784396D01*
X160871209Y-60806666D01*
X163151938Y-63087396D01*
X162997488Y-63079783D01*
X162717870Y-63121213D01*
X162451708Y-63216397D01*
X162326486Y-63283329D01*
X162254903Y-63527298D01*
X163068000Y-64340395D01*
X163082143Y-64326253D01*
X163261748Y-64505858D01*
X163247605Y-64520000D01*
X163261748Y-64534143D01*
X163082143Y-64713748D01*
X163068000Y-64699605D01*
X162254903Y-65512702D01*
X162326486Y-65756671D01*
X162581996Y-65877571D01*
X162856184Y-65946300D01*
X163138512Y-65960217D01*
X163385401Y-65923636D01*
X163385401Y-66760166D01*
X163279816Y-66733700D01*
X162997488Y-66719783D01*
X162717870Y-66761213D01*
X162451708Y-66856397D01*
X162326486Y-66923329D01*
X162254903Y-67167298D01*
X163068000Y-67980395D01*
X163082143Y-67966253D01*
X163261748Y-68145858D01*
X163247605Y-68160000D01*
X163261748Y-68174143D01*
X163082143Y-68353748D01*
X163068000Y-68339605D01*
X162254903Y-69152702D01*
X162326486Y-69396671D01*
X162581996Y-69517571D01*
X162856184Y-69586300D01*
X163138512Y-69600217D01*
X163385402Y-69563636D01*
X163385402Y-73899006D01*
X163301759Y-73815363D01*
X163066727Y-73658320D01*
X162805574Y-73550147D01*
X162528335Y-73495000D01*
X162245665Y-73495000D01*
X161968426Y-73550147D01*
X161707273Y-73658320D01*
X161472241Y-73815363D01*
X161272363Y-74015241D01*
X161115320Y-74250273D01*
X161007147Y-74511426D01*
X160952000Y-74788665D01*
X160952000Y-75071335D01*
X161007147Y-75348574D01*
X161115320Y-75609727D01*
X161272363Y-75844759D01*
X161472241Y-76044637D01*
X161707273Y-76201680D01*
X161968426Y-76309853D01*
X162245665Y-76365000D01*
X162528335Y-76365000D01*
X162805574Y-76309853D01*
X163066727Y-76201680D01*
X163187199Y-76121183D01*
X163187200Y-81358817D01*
X163066727Y-81278320D01*
X162805574Y-81170147D01*
X162528335Y-81115000D01*
X162245665Y-81115000D01*
X161968426Y-81170147D01*
X161707273Y-81278320D01*
X161472241Y-81435363D01*
X161272363Y-81635241D01*
X161115320Y-81870273D01*
X161007147Y-82131426D01*
X160952000Y-82408665D01*
X160952000Y-82691335D01*
X161007147Y-82968574D01*
X161115320Y-83229727D01*
X161272363Y-83464759D01*
X161472241Y-83664637D01*
X161707273Y-83821680D01*
X161968426Y-83929853D01*
X162245665Y-83985000D01*
X162528335Y-83985000D01*
X162805574Y-83929853D01*
X163066727Y-83821680D01*
X163301759Y-83664637D01*
X163501637Y-83464759D01*
X163657000Y-83232241D01*
X163812363Y-83464759D01*
X164012241Y-83664637D01*
X164247273Y-83821680D01*
X164508426Y-83929853D01*
X164785665Y-83985000D01*
X165068335Y-83985000D01*
X165254746Y-83947920D01*
X165254746Y-84724131D01*
X165187751Y-84791126D01*
X165160618Y-84813394D01*
X165138352Y-84840525D01*
X165138348Y-84840529D01*
X165096884Y-84891054D01*
X165071743Y-84921688D01*
X165005703Y-85045240D01*
X164965036Y-85179301D01*
X164954745Y-85283785D01*
X164954745Y-85283793D01*
X164951305Y-85318719D01*
X164954745Y-85353647D01*
X164954745Y-89613696D01*
X164906537Y-89523506D01*
X164827185Y-89426815D01*
X164730494Y-89347463D01*
X164620180Y-89288498D01*
X164500482Y-89252188D01*
X164376000Y-89239928D01*
X162776000Y-89239928D01*
X162651518Y-89252188D01*
X162531820Y-89288498D01*
X162421506Y-89347463D01*
X162324815Y-89426815D01*
X162245463Y-89523506D01*
X162186498Y-89633820D01*
X162150188Y-89753518D01*
X162137928Y-89878000D01*
X162137928Y-91110285D01*
X162059413Y-91188800D01*
X159583652Y-91188800D01*
X159621853Y-91096574D01*
X159677000Y-90819335D01*
X159677000Y-90536665D01*
X159621853Y-90259426D01*
X159513680Y-89998273D01*
X159356637Y-89763241D01*
X159156759Y-89563363D01*
X158921727Y-89406320D01*
X158660574Y-89298147D01*
X158383335Y-89243000D01*
X158100665Y-89243000D01*
X157823426Y-89298147D01*
X157562273Y-89406320D01*
X157327241Y-89563363D01*
X157127363Y-89763241D01*
X156970320Y-89998273D01*
X156862147Y-90259426D01*
X156807000Y-90536665D01*
X156807000Y-90819335D01*
X156862147Y-91096574D01*
X156900348Y-91188800D01*
X154288588Y-91188800D01*
X153299602Y-90199815D01*
X153277327Y-90172673D01*
X153169033Y-90083798D01*
X153045481Y-90017758D01*
X152911420Y-89977091D01*
X152806936Y-89966800D01*
X152806926Y-89966800D01*
X152772000Y-89963360D01*
X152737074Y-89966800D01*
X152060072Y-89966800D01*
X152060072Y-89878000D01*
X152047812Y-89753518D01*
X152011502Y-89633820D01*
X151952537Y-89523506D01*
X151873185Y-89426815D01*
X151776494Y-89347463D01*
X151666180Y-89288498D01*
X151546482Y-89252188D01*
X151422000Y-89239928D01*
X149822000Y-89239928D01*
X149697518Y-89252188D01*
X149577820Y-89288498D01*
X149467506Y-89347463D01*
X149370815Y-89426815D01*
X149291463Y-89523506D01*
X149232498Y-89633820D01*
X149196188Y-89753518D01*
X149183928Y-89878000D01*
X149183928Y-91478000D01*
X149196188Y-91602482D01*
X149232498Y-91722180D01*
X149291463Y-91832494D01*
X149370815Y-91929185D01*
X149467506Y-92008537D01*
X149577820Y-92067502D01*
X149697518Y-92103812D01*
X149705961Y-92104643D01*
X149507363Y-92303241D01*
X149350320Y-92538273D01*
X149242147Y-92799426D01*
X149187000Y-93076665D01*
X149187000Y-93359335D01*
X149242147Y-93636574D01*
X149350320Y-93897727D01*
X149507363Y-94132759D01*
X149707241Y-94332637D01*
X149939759Y-94488000D01*
X149707241Y-94643363D01*
X149507363Y-94843241D01*
X149350320Y-95078273D01*
X149242147Y-95339426D01*
X149187000Y-95616665D01*
X149187000Y-95899335D01*
X149242147Y-96176574D01*
X149350320Y-96437727D01*
X149507363Y-96672759D01*
X149707241Y-96872637D01*
X149939759Y-97028000D01*
X149707241Y-97183363D01*
X149507363Y-97383241D01*
X149350320Y-97618273D01*
X149242147Y-97879426D01*
X149187000Y-98156665D01*
X149187000Y-98439335D01*
X149242147Y-98716574D01*
X149350320Y-98977727D01*
X149507363Y-99212759D01*
X149707241Y-99412637D01*
X149939759Y-99568000D01*
X149707241Y-99723363D01*
X149507363Y-99923241D01*
X149350320Y-100158273D01*
X149242147Y-100419426D01*
X149187000Y-100696665D01*
X149187000Y-100979335D01*
X149242147Y-101256574D01*
X149350320Y-101517727D01*
X149507363Y-101752759D01*
X149707241Y-101952637D01*
X149939759Y-102108000D01*
X149707241Y-102263363D01*
X149507363Y-102463241D01*
X149350320Y-102698273D01*
X149242147Y-102959426D01*
X149187000Y-103236665D01*
X149187000Y-103519335D01*
X149242147Y-103796574D01*
X149350320Y-104057727D01*
X149507363Y-104292759D01*
X149707241Y-104492637D01*
X149939759Y-104648000D01*
X149707241Y-104803363D01*
X149507363Y-105003241D01*
X149350320Y-105238273D01*
X149242147Y-105499426D01*
X149187000Y-105776665D01*
X149187000Y-106059335D01*
X149242147Y-106336574D01*
X149350320Y-106597727D01*
X149507363Y-106832759D01*
X149707241Y-107032637D01*
X149939759Y-107188000D01*
X149707241Y-107343363D01*
X149507363Y-107543241D01*
X149350320Y-107778273D01*
X149242147Y-108039426D01*
X149187000Y-108316665D01*
X149187000Y-108599335D01*
X149242147Y-108876574D01*
X149350320Y-109137727D01*
X149507363Y-109372759D01*
X149707241Y-109572637D01*
X149939759Y-109728000D01*
X149707241Y-109883363D01*
X149507363Y-110083241D01*
X149350320Y-110318273D01*
X149242147Y-110579426D01*
X149187000Y-110856665D01*
X149187000Y-111139335D01*
X149242147Y-111416574D01*
X149350320Y-111677727D01*
X149507363Y-111912759D01*
X149707241Y-112112637D01*
X149942273Y-112269680D01*
X149952865Y-112274067D01*
X149766869Y-112385615D01*
X149558481Y-112574586D01*
X149390963Y-112800580D01*
X149270754Y-113054913D01*
X149230096Y-113188961D01*
X149352085Y-113411000D01*
X150495000Y-113411000D01*
X150495000Y-113391000D01*
X150749000Y-113391000D01*
X150749000Y-113411000D01*
X151891915Y-113411000D01*
X152013904Y-113188961D01*
X151973246Y-113054913D01*
X151853037Y-112800580D01*
X151685519Y-112574586D01*
X151477131Y-112385615D01*
X151291135Y-112274067D01*
X151301727Y-112269680D01*
X151536759Y-112112637D01*
X151736637Y-111912759D01*
X151893680Y-111677727D01*
X152001853Y-111416574D01*
X152057000Y-111139335D01*
X152057000Y-110856665D01*
X152001853Y-110579426D01*
X151893680Y-110318273D01*
X151736637Y-110083241D01*
X151536759Y-109883363D01*
X151304241Y-109728000D01*
X151536759Y-109572637D01*
X151736637Y-109372759D01*
X151893680Y-109137727D01*
X152001853Y-108876574D01*
X152057000Y-108599335D01*
X152057000Y-108316665D01*
X152001853Y-108039426D01*
X151893680Y-107778273D01*
X151736637Y-107543241D01*
X151536759Y-107343363D01*
X151304241Y-107188000D01*
X151536759Y-107032637D01*
X151736637Y-106832759D01*
X151893680Y-106597727D01*
X152001853Y-106336574D01*
X152057000Y-106059335D01*
X152057000Y-105776665D01*
X152001853Y-105499426D01*
X151893680Y-105238273D01*
X151736637Y-105003241D01*
X151536759Y-104803363D01*
X151304241Y-104648000D01*
X151536759Y-104492637D01*
X151736637Y-104292759D01*
X151893680Y-104057727D01*
X152001853Y-103796574D01*
X152057000Y-103519335D01*
X152057000Y-103236665D01*
X152001853Y-102959426D01*
X151893680Y-102698273D01*
X151736637Y-102463241D01*
X151536759Y-102263363D01*
X151304241Y-102108000D01*
X151536759Y-101952637D01*
X151736637Y-101752759D01*
X151893680Y-101517727D01*
X152001853Y-101256574D01*
X152057000Y-100979335D01*
X152057000Y-100696665D01*
X152001853Y-100419426D01*
X151893680Y-100158273D01*
X151736637Y-99923241D01*
X151536759Y-99723363D01*
X151304241Y-99568000D01*
X151536759Y-99412637D01*
X151736637Y-99212759D01*
X151893680Y-98977727D01*
X152001853Y-98716574D01*
X152057000Y-98439335D01*
X152057000Y-98156665D01*
X152001853Y-97879426D01*
X151893680Y-97618273D01*
X151736637Y-97383241D01*
X151536759Y-97183363D01*
X151304241Y-97028000D01*
X151536759Y-96872637D01*
X151736637Y-96672759D01*
X151893680Y-96437727D01*
X152001853Y-96176574D01*
X152057000Y-95899335D01*
X152057000Y-95616665D01*
X152001853Y-95339426D01*
X151893680Y-95078273D01*
X151736637Y-94843241D01*
X151536759Y-94643363D01*
X151304241Y-94488000D01*
X151536759Y-94332637D01*
X151736637Y-94132759D01*
X151893680Y-93897727D01*
X152001853Y-93636574D01*
X152057000Y-93359335D01*
X152057000Y-93076665D01*
X152001853Y-92799426D01*
X151893680Y-92538273D01*
X151736637Y-92303241D01*
X151538039Y-92104643D01*
X151546482Y-92103812D01*
X151666180Y-92067502D01*
X151776494Y-92008537D01*
X151873185Y-91929185D01*
X151952537Y-91832494D01*
X152011502Y-91722180D01*
X152047812Y-91602482D01*
X152060072Y-91478000D01*
X152060072Y-91389200D01*
X152477413Y-91389200D01*
X153466403Y-92378191D01*
X153488673Y-92405327D01*
X153596967Y-92494202D01*
X153720519Y-92560242D01*
X153854580Y-92600909D01*
X153959064Y-92611200D01*
X153959071Y-92611200D01*
X153994000Y-92614640D01*
X154028928Y-92611200D01*
X156940113Y-92611200D01*
X156862147Y-92799426D01*
X156807000Y-93076665D01*
X156807000Y-93359335D01*
X156862147Y-93636574D01*
X156970320Y-93897727D01*
X157127363Y-94132759D01*
X157327241Y-94332637D01*
X157559759Y-94488000D01*
X157327241Y-94643363D01*
X157127363Y-94843241D01*
X156970320Y-95078273D01*
X156862147Y-95339426D01*
X156807000Y-95616665D01*
X156807000Y-95899335D01*
X156862147Y-96176574D01*
X156970320Y-96437727D01*
X157127363Y-96672759D01*
X157327241Y-96872637D01*
X157559759Y-97028000D01*
X157327241Y-97183363D01*
X157127363Y-97383241D01*
X156970320Y-97618273D01*
X156862147Y-97879426D01*
X156807000Y-98156665D01*
X156807000Y-98439335D01*
X156862147Y-98716574D01*
X156970320Y-98977727D01*
X157127363Y-99212759D01*
X157327241Y-99412637D01*
X157559759Y-99568000D01*
X157327241Y-99723363D01*
X157127363Y-99923241D01*
X156970320Y-100158273D01*
X156862147Y-100419426D01*
X156807000Y-100696665D01*
X156807000Y-100979335D01*
X156862147Y-101256574D01*
X156970320Y-101517727D01*
X157127363Y-101752759D01*
X157327241Y-101952637D01*
X157559759Y-102108000D01*
X157327241Y-102263363D01*
X157127363Y-102463241D01*
X156970320Y-102698273D01*
X156862147Y-102959426D01*
X156807000Y-103236665D01*
X156807000Y-103519335D01*
X156862147Y-103796574D01*
X156970320Y-104057727D01*
X157127363Y-104292759D01*
X157327241Y-104492637D01*
X157559759Y-104648000D01*
X157327241Y-104803363D01*
X157127363Y-105003241D01*
X156970320Y-105238273D01*
X156862147Y-105499426D01*
X156807000Y-105776665D01*
X156807000Y-106059335D01*
X156862147Y-106336574D01*
X156970320Y-106597727D01*
X157127363Y-106832759D01*
X157327241Y-107032637D01*
X157559759Y-107188000D01*
X157327241Y-107343363D01*
X157127363Y-107543241D01*
X156970320Y-107778273D01*
X156862147Y-108039426D01*
X156807000Y-108316665D01*
X156807000Y-108599335D01*
X156862147Y-108876574D01*
X156970320Y-109137727D01*
X157127363Y-109372759D01*
X157327241Y-109572637D01*
X157559759Y-109728000D01*
X157327241Y-109883363D01*
X157127363Y-110083241D01*
X156970320Y-110318273D01*
X156862147Y-110579426D01*
X156807000Y-110856665D01*
X156807000Y-111139335D01*
X156862147Y-111416574D01*
X156970320Y-111677727D01*
X157127363Y-111912759D01*
X157327241Y-112112637D01*
X157559759Y-112268000D01*
X157327241Y-112423363D01*
X157127363Y-112623241D01*
X156970320Y-112858273D01*
X156862147Y-113119426D01*
X156807000Y-113396665D01*
X156807000Y-113679335D01*
X156862147Y-113956574D01*
X156970320Y-114217727D01*
X157127363Y-114452759D01*
X157327241Y-114652637D01*
X157562273Y-114809680D01*
X157823426Y-114917853D01*
X158100665Y-114973000D01*
X158383335Y-114973000D01*
X158660574Y-114917853D01*
X158921727Y-114809680D01*
X159156759Y-114652637D01*
X159356637Y-114452759D01*
X159513680Y-114217727D01*
X159621853Y-113956574D01*
X159635684Y-113887039D01*
X162184096Y-113887039D01*
X162224754Y-114021087D01*
X162344963Y-114275420D01*
X162512481Y-114501414D01*
X162720869Y-114690385D01*
X162962119Y-114835070D01*
X163226960Y-114929909D01*
X163449000Y-114808624D01*
X163449000Y-113665000D01*
X163703000Y-113665000D01*
X163703000Y-114808624D01*
X163925040Y-114929909D01*
X164189881Y-114835070D01*
X164431131Y-114690385D01*
X164639519Y-114501414D01*
X164807037Y-114275420D01*
X164927246Y-114021087D01*
X164967904Y-113887039D01*
X164845915Y-113665000D01*
X163703000Y-113665000D01*
X163449000Y-113665000D01*
X162306085Y-113665000D01*
X162184096Y-113887039D01*
X159635684Y-113887039D01*
X159677000Y-113679335D01*
X159677000Y-113396665D01*
X159621853Y-113119426D01*
X159513680Y-112858273D01*
X159356637Y-112623241D01*
X159156759Y-112423363D01*
X158924241Y-112268000D01*
X159156759Y-112112637D01*
X159356637Y-111912759D01*
X159513680Y-111677727D01*
X159621853Y-111416574D01*
X159677000Y-111139335D01*
X159677000Y-110856665D01*
X159621853Y-110579426D01*
X159513680Y-110318273D01*
X159356637Y-110083241D01*
X159156759Y-109883363D01*
X158924241Y-109728000D01*
X159156759Y-109572637D01*
X159356637Y-109372759D01*
X159513680Y-109137727D01*
X159621853Y-108876574D01*
X159677000Y-108599335D01*
X159677000Y-108316665D01*
X159621853Y-108039426D01*
X159513680Y-107778273D01*
X159356637Y-107543241D01*
X159156759Y-107343363D01*
X158924241Y-107188000D01*
X159156759Y-107032637D01*
X159356637Y-106832759D01*
X159513680Y-106597727D01*
X159621853Y-106336574D01*
X159677000Y-106059335D01*
X159677000Y-105776665D01*
X159621853Y-105499426D01*
X159513680Y-105238273D01*
X159356637Y-105003241D01*
X159156759Y-104803363D01*
X158924241Y-104648000D01*
X159156759Y-104492637D01*
X159356637Y-104292759D01*
X159513680Y-104057727D01*
X159621853Y-103796574D01*
X159677000Y-103519335D01*
X159677000Y-103236665D01*
X159621853Y-102959426D01*
X159513680Y-102698273D01*
X159356637Y-102463241D01*
X159156759Y-102263363D01*
X158924241Y-102108000D01*
X159156759Y-101952637D01*
X159356637Y-101752759D01*
X159513680Y-101517727D01*
X159621853Y-101256574D01*
X159677000Y-100979335D01*
X159677000Y-100696665D01*
X159621853Y-100419426D01*
X159513680Y-100158273D01*
X159356637Y-99923241D01*
X159156759Y-99723363D01*
X158924241Y-99568000D01*
X159156759Y-99412637D01*
X159356637Y-99212759D01*
X159513680Y-98977727D01*
X159621853Y-98716574D01*
X159677000Y-98439335D01*
X159677000Y-98156665D01*
X159621853Y-97879426D01*
X159513680Y-97618273D01*
X159356637Y-97383241D01*
X159156759Y-97183363D01*
X158924241Y-97028000D01*
X159156759Y-96872637D01*
X159356637Y-96672759D01*
X159513680Y-96437727D01*
X159621853Y-96176574D01*
X159677000Y-95899335D01*
X159677000Y-95616665D01*
X159621853Y-95339426D01*
X159513680Y-95078273D01*
X159356637Y-94843241D01*
X159156759Y-94643363D01*
X158924241Y-94488000D01*
X159156759Y-94332637D01*
X159356637Y-94132759D01*
X159513680Y-93897727D01*
X159621853Y-93636574D01*
X159677000Y-93359335D01*
X159677000Y-93076665D01*
X159621853Y-92799426D01*
X159543887Y-92611200D01*
X162274113Y-92611200D01*
X162196147Y-92799426D01*
X162141000Y-93076665D01*
X162141000Y-93359335D01*
X162196147Y-93636574D01*
X162304320Y-93897727D01*
X162461363Y-94132759D01*
X162661241Y-94332637D01*
X162893759Y-94488000D01*
X162661241Y-94643363D01*
X162461363Y-94843241D01*
X162304320Y-95078273D01*
X162196147Y-95339426D01*
X162141000Y-95616665D01*
X162141000Y-95899335D01*
X162196147Y-96176574D01*
X162304320Y-96437727D01*
X162461363Y-96672759D01*
X162661241Y-96872637D01*
X162893759Y-97028000D01*
X162661241Y-97183363D01*
X162461363Y-97383241D01*
X162304320Y-97618273D01*
X162196147Y-97879426D01*
X162141000Y-98156665D01*
X162141000Y-98439335D01*
X162196147Y-98716574D01*
X162304320Y-98977727D01*
X162461363Y-99212759D01*
X162661241Y-99412637D01*
X162893759Y-99568000D01*
X162661241Y-99723363D01*
X162461363Y-99923241D01*
X162304320Y-100158273D01*
X162196147Y-100419426D01*
X162141000Y-100696665D01*
X162141000Y-100979335D01*
X162196147Y-101256574D01*
X162304320Y-101517727D01*
X162461363Y-101752759D01*
X162661241Y-101952637D01*
X162893759Y-102108000D01*
X162661241Y-102263363D01*
X162461363Y-102463241D01*
X162304320Y-102698273D01*
X162196147Y-102959426D01*
X162141000Y-103236665D01*
X162141000Y-103519335D01*
X162196147Y-103796574D01*
X162304320Y-104057727D01*
X162461363Y-104292759D01*
X162661241Y-104492637D01*
X162893759Y-104648000D01*
X162661241Y-104803363D01*
X162461363Y-105003241D01*
X162304320Y-105238273D01*
X162196147Y-105499426D01*
X162141000Y-105776665D01*
X162141000Y-106059335D01*
X162196147Y-106336574D01*
X162304320Y-106597727D01*
X162461363Y-106832759D01*
X162661241Y-107032637D01*
X162893759Y-107188000D01*
X162661241Y-107343363D01*
X162461363Y-107543241D01*
X162304320Y-107778273D01*
X162196147Y-108039426D01*
X162141000Y-108316665D01*
X162141000Y-108599335D01*
X162196147Y-108876574D01*
X162304320Y-109137727D01*
X162461363Y-109372759D01*
X162661241Y-109572637D01*
X162893759Y-109728000D01*
X162661241Y-109883363D01*
X162461363Y-110083241D01*
X162304320Y-110318273D01*
X162196147Y-110579426D01*
X162141000Y-110856665D01*
X162141000Y-111139335D01*
X162196147Y-111416574D01*
X162304320Y-111677727D01*
X162461363Y-111912759D01*
X162661241Y-112112637D01*
X162896273Y-112269680D01*
X162906865Y-112274067D01*
X162720869Y-112385615D01*
X162512481Y-112574586D01*
X162344963Y-112800580D01*
X162224754Y-113054913D01*
X162184096Y-113188961D01*
X162306085Y-113411000D01*
X163449000Y-113411000D01*
X163449000Y-113391000D01*
X163703000Y-113391000D01*
X163703000Y-113411000D01*
X164845915Y-113411000D01*
X164967904Y-113188961D01*
X164927246Y-113054913D01*
X164807037Y-112800580D01*
X164639519Y-112574586D01*
X164431131Y-112385615D01*
X164245135Y-112274067D01*
X164255727Y-112269680D01*
X164490759Y-112112637D01*
X164690637Y-111912759D01*
X164847680Y-111677727D01*
X164955853Y-111416574D01*
X165011000Y-111139335D01*
X165011000Y-110856665D01*
X164955853Y-110579426D01*
X164847680Y-110318273D01*
X164690637Y-110083241D01*
X164490759Y-109883363D01*
X164258241Y-109728000D01*
X164490759Y-109572637D01*
X164690637Y-109372759D01*
X164847680Y-109137727D01*
X164955853Y-108876574D01*
X165011000Y-108599335D01*
X165011000Y-108316665D01*
X164955853Y-108039426D01*
X164847680Y-107778273D01*
X164690637Y-107543241D01*
X164490759Y-107343363D01*
X164258241Y-107188000D01*
X164490759Y-107032637D01*
X164690637Y-106832759D01*
X164847680Y-106597727D01*
X164955853Y-106336574D01*
X165011000Y-106059335D01*
X165011000Y-105776665D01*
X164955853Y-105499426D01*
X164847680Y-105238273D01*
X164690637Y-105003241D01*
X164490759Y-104803363D01*
X164258241Y-104648000D01*
X164490759Y-104492637D01*
X164690637Y-104292759D01*
X164847680Y-104057727D01*
X164955853Y-103796574D01*
X165011000Y-103519335D01*
X165011000Y-103236665D01*
X164955853Y-102959426D01*
X164847680Y-102698273D01*
X164690637Y-102463241D01*
X164490759Y-102263363D01*
X164258241Y-102108000D01*
X164490759Y-101952637D01*
X164690637Y-101752759D01*
X164847680Y-101517727D01*
X164955853Y-101256574D01*
X165011000Y-100979335D01*
X165011000Y-100696665D01*
X164955853Y-100419426D01*
X164847680Y-100158273D01*
X164690637Y-99923241D01*
X164490759Y-99723363D01*
X164258241Y-99568000D01*
X164490759Y-99412637D01*
X164690637Y-99212759D01*
X164847680Y-98977727D01*
X164955853Y-98716574D01*
X165011000Y-98439335D01*
X165011000Y-98156665D01*
X164955853Y-97879426D01*
X164847680Y-97618273D01*
X164690637Y-97383241D01*
X164490759Y-97183363D01*
X164258241Y-97028000D01*
X164490759Y-96872637D01*
X164690637Y-96672759D01*
X164847680Y-96437727D01*
X164955853Y-96176574D01*
X165011000Y-95899335D01*
X165011000Y-95705189D01*
X165049178Y-95743368D01*
X165049180Y-107560443D01*
X165045739Y-107595379D01*
X165049180Y-107630314D01*
X165049180Y-107630315D01*
X165059471Y-107734799D01*
X165081000Y-107805771D01*
X165100138Y-107868860D01*
X165166177Y-107992411D01*
X165222440Y-108060967D01*
X165255053Y-108100706D01*
X165282189Y-108122976D01*
X169664008Y-112504797D01*
X169686274Y-112531928D01*
X169713405Y-112554194D01*
X169713409Y-112554198D01*
X169768013Y-112599010D01*
X169794568Y-112620803D01*
X169918120Y-112686843D01*
X170018516Y-112717298D01*
X169924320Y-112858273D01*
X169816147Y-113119426D01*
X169761000Y-113396665D01*
X169761000Y-113679335D01*
X169816147Y-113956574D01*
X169924320Y-114217727D01*
X170081363Y-114452759D01*
X170281241Y-114652637D01*
X170516273Y-114809680D01*
X170777426Y-114917853D01*
X171054665Y-114973000D01*
X171337335Y-114973000D01*
X171614574Y-114917853D01*
X171875727Y-114809680D01*
X172110759Y-114652637D01*
X172310637Y-114452759D01*
X172467680Y-114217727D01*
X172575853Y-113956574D01*
X172631000Y-113679335D01*
X172631000Y-113396665D01*
X172575853Y-113119426D01*
X172467680Y-112858273D01*
X172387183Y-112737801D01*
X176365130Y-112737801D01*
X176293320Y-112845273D01*
X176185147Y-113106426D01*
X176130000Y-113383665D01*
X176130000Y-113666335D01*
X176136044Y-113696721D01*
X172971765Y-116861000D01*
X150183235Y-116861000D01*
X148254000Y-114931765D01*
X148254000Y-113887039D01*
X149230096Y-113887039D01*
X149270754Y-114021087D01*
X149390963Y-114275420D01*
X149558481Y-114501414D01*
X149766869Y-114690385D01*
X150008119Y-114835070D01*
X150272960Y-114929909D01*
X150495000Y-114808624D01*
X150495000Y-113665000D01*
X150749000Y-113665000D01*
X150749000Y-114808624D01*
X150971040Y-114929909D01*
X151235881Y-114835070D01*
X151477131Y-114690385D01*
X151685519Y-114501414D01*
X151853037Y-114275420D01*
X151973246Y-114021087D01*
X152013904Y-113887039D01*
X151891915Y-113665000D01*
X150749000Y-113665000D01*
X150495000Y-113665000D01*
X149352085Y-113665000D01*
X149230096Y-113887039D01*
X148254000Y-113887039D01*
X148254000Y-89018235D01*
X149333236Y-87939000D01*
X157110151Y-87939000D01*
X157127363Y-87964759D01*
X157327241Y-88164637D01*
X157562273Y-88321680D01*
X157823426Y-88429853D01*
X158100665Y-88485000D01*
X158383335Y-88485000D01*
X158660574Y-88429853D01*
X158921727Y-88321680D01*
X159156759Y-88164637D01*
X159278694Y-88042702D01*
X162428903Y-88042702D01*
X162500486Y-88286671D01*
X162755996Y-88407571D01*
X163030184Y-88476300D01*
X163312512Y-88490217D01*
X163592130Y-88448787D01*
X163858292Y-88353603D01*
X163983514Y-88286671D01*
X164055097Y-88042702D01*
X163242000Y-87229605D01*
X162428903Y-88042702D01*
X159278694Y-88042702D01*
X159356637Y-87964759D01*
X159513680Y-87729727D01*
X159621853Y-87468574D01*
X159677000Y-87191335D01*
X159677000Y-87120512D01*
X161801783Y-87120512D01*
X161843213Y-87400130D01*
X161938397Y-87666292D01*
X162005329Y-87791514D01*
X162249298Y-87863097D01*
X163062395Y-87050000D01*
X163421605Y-87050000D01*
X164234702Y-87863097D01*
X164478671Y-87791514D01*
X164599571Y-87536004D01*
X164668300Y-87261816D01*
X164682217Y-86979488D01*
X164640787Y-86699870D01*
X164545603Y-86433708D01*
X164478671Y-86308486D01*
X164234702Y-86236903D01*
X163421605Y-87050000D01*
X163062395Y-87050000D01*
X162249298Y-86236903D01*
X162005329Y-86308486D01*
X161884429Y-86563996D01*
X161815700Y-86838184D01*
X161801783Y-87120512D01*
X159677000Y-87120512D01*
X159677000Y-86908665D01*
X159621853Y-86631426D01*
X159513680Y-86370273D01*
X159356637Y-86135241D01*
X159278694Y-86057298D01*
X162428903Y-86057298D01*
X163242000Y-86870395D01*
X164055097Y-86057298D01*
X163983514Y-85813329D01*
X163728004Y-85692429D01*
X163453816Y-85623700D01*
X163171488Y-85609783D01*
X162891870Y-85651213D01*
X162625708Y-85746397D01*
X162500486Y-85813329D01*
X162428903Y-86057298D01*
X159278694Y-86057298D01*
X159156759Y-85935363D01*
X158921727Y-85778320D01*
X158660574Y-85670147D01*
X158383335Y-85615000D01*
X158100665Y-85615000D01*
X157823426Y-85670147D01*
X157562273Y-85778320D01*
X157327241Y-85935363D01*
X157127363Y-86135241D01*
X157110151Y-86161000D01*
X155295709Y-86161000D01*
X159317742Y-82138968D01*
X159351659Y-82111133D01*
X159383932Y-82071809D01*
X159422642Y-82024640D01*
X159462753Y-81975765D01*
X159545303Y-81821325D01*
X159572722Y-81730936D01*
X159596136Y-81653750D01*
X159604759Y-81566198D01*
X159609000Y-81523141D01*
X159609000Y-81523135D01*
X159613300Y-81479475D01*
X159609000Y-81435815D01*
X159609000Y-69152702D01*
X159968903Y-69152702D01*
X160040486Y-69396671D01*
X160295996Y-69517571D01*
X160570184Y-69586300D01*
X160852512Y-69600217D01*
X161132130Y-69558787D01*
X161398292Y-69463603D01*
X161523514Y-69396671D01*
X161595097Y-69152702D01*
X160782000Y-68339605D01*
X159968903Y-69152702D01*
X159609000Y-69152702D01*
X159609000Y-68920196D01*
X159789298Y-68973097D01*
X160602395Y-68160000D01*
X160961605Y-68160000D01*
X161774702Y-68973097D01*
X161925000Y-68928998D01*
X162075298Y-68973097D01*
X162888395Y-68160000D01*
X162075298Y-67346903D01*
X161925000Y-67391002D01*
X161774702Y-67346903D01*
X160961605Y-68160000D01*
X160602395Y-68160000D01*
X159789298Y-67346903D01*
X159609000Y-67399804D01*
X159609000Y-67167298D01*
X159968903Y-67167298D01*
X160782000Y-67980395D01*
X161595097Y-67167298D01*
X161523514Y-66923329D01*
X161268004Y-66802429D01*
X160993816Y-66733700D01*
X160711488Y-66719783D01*
X160431870Y-66761213D01*
X160165708Y-66856397D01*
X160040486Y-66923329D01*
X159968903Y-67167298D01*
X159609000Y-67167298D01*
X159609000Y-66332463D01*
X159725824Y-66157624D01*
X159811383Y-65951067D01*
X159855000Y-65731788D01*
X159855000Y-65626607D01*
X159968903Y-65512704D01*
X160040486Y-65756671D01*
X160295996Y-65877571D01*
X160570184Y-65946300D01*
X160852512Y-65960217D01*
X161132130Y-65918787D01*
X161398292Y-65823603D01*
X161523514Y-65756671D01*
X161595097Y-65512702D01*
X160782000Y-64699605D01*
X160767858Y-64713748D01*
X160588253Y-64534143D01*
X160602395Y-64520000D01*
X160961605Y-64520000D01*
X161774702Y-65333097D01*
X161925000Y-65288998D01*
X162075298Y-65333097D01*
X162888395Y-64520000D01*
X162075298Y-63706903D01*
X161925000Y-63751002D01*
X161774702Y-63706903D01*
X160961605Y-64520000D01*
X160602395Y-64520000D01*
X160588253Y-64505858D01*
X160767858Y-64326253D01*
X160782000Y-64340395D01*
X161595097Y-63527298D01*
X161523514Y-63283329D01*
X161268004Y-63162429D01*
X160993816Y-63093700D01*
X160711488Y-63079783D01*
X160431870Y-63121213D01*
X160165708Y-63216397D01*
X160040486Y-63283329D01*
X159968903Y-63527296D01*
X159852630Y-63411023D01*
X159766009Y-63497644D01*
X159766009Y-60187778D01*
X160638200Y-59315588D01*
X160638200Y-60244133D01*
G37*
G04 #@! TD.AperFunction*
D24*
X197440669Y-38333544D02*
X197275194Y-38245096D01*
X197011859Y-38165214D01*
X196738000Y-38138241D01*
X196464140Y-38165214D01*
X196200805Y-38245096D01*
X195958113Y-38374817D01*
X195745392Y-38549393D01*
X195570817Y-38762114D01*
X195441096Y-39004806D01*
X195361214Y-39268141D01*
X195341000Y-39473376D01*
X195341000Y-40610625D01*
X195361214Y-40815860D01*
X195441096Y-41079195D01*
X195570817Y-41321887D01*
X195745393Y-41534608D01*
X195958114Y-41709183D01*
X196200806Y-41838904D01*
X196464141Y-41918786D01*
X196738000Y-41945759D01*
X197011860Y-41918786D01*
X197275195Y-41838904D01*
X197517887Y-41709183D01*
X197730608Y-41534608D01*
X197905183Y-41321887D01*
X198008000Y-41129529D01*
X198110817Y-41321887D01*
X198285393Y-41534608D01*
X198498114Y-41709183D01*
X198650125Y-41790434D01*
X198683798Y-41853432D01*
X198732416Y-41912673D01*
X198772674Y-41961727D01*
X198799810Y-41983997D01*
X201236007Y-44420196D01*
X201258273Y-44447327D01*
X201285404Y-44469593D01*
X201285408Y-44469597D01*
X201362227Y-44532640D01*
X201366567Y-44536202D01*
X201490119Y-44602242D01*
X201624180Y-44642909D01*
X201728664Y-44653200D01*
X201728673Y-44653200D01*
X201763599Y-44656640D01*
X201798525Y-44653200D01*
X209457474Y-44653200D01*
X209492400Y-44656640D01*
X209527326Y-44653200D01*
X209527336Y-44653200D01*
X209631820Y-44642909D01*
X209765881Y-44602242D01*
X209889433Y-44536202D01*
X209997727Y-44447327D01*
X210020002Y-44420185D01*
X212456201Y-41983988D01*
X212483326Y-41961727D01*
X212505588Y-41934601D01*
X212505597Y-41934592D01*
X212572202Y-41853433D01*
X212601703Y-41798241D01*
X212605875Y-41790435D01*
X212757887Y-41709183D01*
X212970608Y-41534608D01*
X213145183Y-41321887D01*
X213248000Y-41129529D01*
X213350817Y-41321887D01*
X213525393Y-41534608D01*
X213738114Y-41709183D01*
X213890125Y-41790434D01*
X213923798Y-41853432D01*
X213972416Y-41912673D01*
X214012674Y-41961727D01*
X214039810Y-41983997D01*
X217337410Y-45281599D01*
X217337411Y-53406898D01*
X217331859Y-53405214D01*
X217058000Y-53378241D01*
X216784140Y-53405214D01*
X216520805Y-53485096D01*
X216278113Y-53614817D01*
X216065392Y-53789393D01*
X215890817Y-54002114D01*
X215788000Y-54194471D01*
X215685183Y-54002113D01*
X215510607Y-53789392D01*
X215297886Y-53614817D01*
X215055194Y-53485096D01*
X214791859Y-53405214D01*
X214518000Y-53378241D01*
X214244140Y-53405214D01*
X213980805Y-53485096D01*
X213738113Y-53614817D01*
X213525392Y-53789393D01*
X213350817Y-54002114D01*
X213248000Y-54194471D01*
X213145183Y-54002113D01*
X212970607Y-53789392D01*
X212757886Y-53614817D01*
X212515194Y-53485096D01*
X212251859Y-53405214D01*
X211978000Y-53378241D01*
X211704140Y-53405214D01*
X211440805Y-53485096D01*
X211198113Y-53614817D01*
X210985392Y-53789393D01*
X210833579Y-53974379D01*
X210825812Y-53895518D01*
X210789502Y-53775820D01*
X210730537Y-53665506D01*
X210651185Y-53568815D01*
X210554494Y-53489463D01*
X210444180Y-53430498D01*
X210324482Y-53394188D01*
X210200000Y-53381928D01*
X209959457Y-53381928D01*
X209943326Y-53362273D01*
X209916201Y-53340012D01*
X207914002Y-51337815D01*
X207891727Y-51310673D01*
X207783433Y-51221798D01*
X207659881Y-51155758D01*
X207525820Y-51115091D01*
X207421336Y-51104800D01*
X207421326Y-51104800D01*
X207386400Y-51101360D01*
X207351474Y-51104800D01*
X198824528Y-51104800D01*
X198789600Y-51101360D01*
X198754671Y-51104800D01*
X198754664Y-51104800D01*
X198650180Y-51115091D01*
X198516118Y-51155758D01*
X198392567Y-51221798D01*
X198311409Y-51288402D01*
X198311404Y-51288407D01*
X198284273Y-51310673D01*
X198262007Y-51337804D01*
X196259810Y-53340003D01*
X196232674Y-53362273D01*
X196216543Y-53381928D01*
X195976000Y-53381928D01*
X195851518Y-53394188D01*
X195731820Y-53430498D01*
X195621506Y-53489463D01*
X195524815Y-53568815D01*
X195445463Y-53665506D01*
X195386498Y-53775820D01*
X195350188Y-53895518D01*
X195337928Y-54020000D01*
X195337928Y-56544000D01*
X195350188Y-56668482D01*
X195386498Y-56788180D01*
X195445463Y-56898494D01*
X195524815Y-56995185D01*
X195621506Y-57074537D01*
X195731820Y-57133502D01*
X195851518Y-57169812D01*
X195976000Y-57182072D01*
X197500000Y-57182072D01*
X197624482Y-57169812D01*
X197744180Y-57133502D01*
X197854494Y-57074537D01*
X197951185Y-56995185D01*
X198030537Y-56898494D01*
X198089502Y-56788180D01*
X198125812Y-56668482D01*
X198133579Y-56589622D01*
X198285393Y-56774608D01*
X198498114Y-56949183D01*
X198740806Y-57078904D01*
X199004141Y-57158786D01*
X199278000Y-57185759D01*
X199551860Y-57158786D01*
X199686169Y-57118044D01*
X199349413Y-57454800D01*
X192058928Y-57454800D01*
X192024000Y-57451360D01*
X191989071Y-57454800D01*
X191989064Y-57454800D01*
X191884580Y-57465091D01*
X191750518Y-57505758D01*
X191626967Y-57571798D01*
X191545809Y-57638402D01*
X191545804Y-57638407D01*
X191518673Y-57660673D01*
X191496407Y-57687804D01*
X190783810Y-58400403D01*
X190756674Y-58422673D01*
X190734404Y-58449809D01*
X190734403Y-58449810D01*
X190667798Y-58530968D01*
X190615447Y-58628911D01*
X190601759Y-58654519D01*
X190561092Y-58788580D01*
X190559968Y-58799994D01*
X190547360Y-58928000D01*
X190550801Y-58962936D01*
X190550800Y-61999719D01*
X190539606Y-62003115D01*
X190338087Y-62110829D01*
X190161454Y-62255788D01*
X190016495Y-62432421D01*
X189908781Y-62633940D01*
X189842451Y-62852600D01*
X189820054Y-63080000D01*
X189842451Y-63307400D01*
X189908781Y-63526060D01*
X190009771Y-63715000D01*
X189908781Y-63903940D01*
X189842451Y-64122600D01*
X189820054Y-64350000D01*
X189842451Y-64577400D01*
X189905759Y-64786098D01*
X189871164Y-64850820D01*
X189834854Y-64970518D01*
X189822594Y-65095000D01*
X189822594Y-66145000D01*
X189834854Y-66269482D01*
X189871164Y-66389180D01*
X189930129Y-66499494D01*
X190009481Y-66596185D01*
X190106172Y-66675537D01*
X190216486Y-66734502D01*
X190336184Y-66770812D01*
X190460666Y-66783072D01*
X191960666Y-66783072D01*
X192085148Y-66770812D01*
X192204846Y-66734502D01*
X192315160Y-66675537D01*
X192411851Y-66596185D01*
X192491203Y-66499494D01*
X192550168Y-66389180D01*
X192567756Y-66331200D01*
X197958910Y-66331200D01*
X197976498Y-66389180D01*
X198035463Y-66499494D01*
X198114815Y-66596185D01*
X198211506Y-66675537D01*
X198321820Y-66734502D01*
X198441518Y-66770812D01*
X198566000Y-66783072D01*
X200066000Y-66783072D01*
X200190482Y-66770812D01*
X200310180Y-66734502D01*
X200420494Y-66675537D01*
X200517185Y-66596185D01*
X200588736Y-66509000D01*
X200741765Y-66509000D01*
X202725501Y-68492736D01*
X202537426Y-68530147D01*
X202276273Y-68638320D01*
X202041241Y-68795363D01*
X201841363Y-68995241D01*
X201684320Y-69230273D01*
X201576147Y-69491426D01*
X201521000Y-69768665D01*
X201521000Y-70051335D01*
X201576147Y-70328574D01*
X201684320Y-70589727D01*
X201841363Y-70824759D01*
X202041241Y-71024637D01*
X202276273Y-71181680D01*
X202537426Y-71289853D01*
X202814665Y-71345000D01*
X203097335Y-71345000D01*
X203340786Y-71296574D01*
X205903801Y-73859590D01*
X205903801Y-74086634D01*
X205895812Y-74005518D01*
X205859502Y-73885820D01*
X205800537Y-73775506D01*
X205721185Y-73678815D01*
X205624494Y-73599463D01*
X205514180Y-73540498D01*
X205394482Y-73504188D01*
X205270000Y-73491928D01*
X203670000Y-73491928D01*
X203545518Y-73504188D01*
X203425820Y-73540498D01*
X203315506Y-73599463D01*
X203218815Y-73678815D01*
X203139463Y-73775506D01*
X203080498Y-73885820D01*
X203044188Y-74005518D01*
X203043357Y-74013961D01*
X202844759Y-73815363D01*
X202609727Y-73658320D01*
X202348574Y-73550147D01*
X202071335Y-73495000D01*
X201788665Y-73495000D01*
X201511426Y-73550147D01*
X201250273Y-73658320D01*
X201015241Y-73815363D01*
X200815363Y-74015241D01*
X200660000Y-74247759D01*
X200504637Y-74015241D01*
X200304759Y-73815363D01*
X200069727Y-73658320D01*
X199808574Y-73550147D01*
X199531335Y-73495000D01*
X199248665Y-73495000D01*
X198971426Y-73550147D01*
X198710273Y-73658320D01*
X198475241Y-73815363D01*
X198275363Y-74015241D01*
X198120000Y-74247759D01*
X197964637Y-74015241D01*
X197764759Y-73815363D01*
X197529727Y-73658320D01*
X197268574Y-73550147D01*
X196991335Y-73495000D01*
X196708665Y-73495000D01*
X196431426Y-73550147D01*
X196170273Y-73658320D01*
X195935241Y-73815363D01*
X195735363Y-74015241D01*
X195580000Y-74247759D01*
X195424637Y-74015241D01*
X195224759Y-73815363D01*
X194989727Y-73658320D01*
X194728574Y-73550147D01*
X194451335Y-73495000D01*
X194168665Y-73495000D01*
X193891426Y-73550147D01*
X193630273Y-73658320D01*
X193395241Y-73815363D01*
X193195363Y-74015241D01*
X193040000Y-74247759D01*
X192884637Y-74015241D01*
X192684759Y-73815363D01*
X192449727Y-73658320D01*
X192188574Y-73550147D01*
X191911335Y-73495000D01*
X191628665Y-73495000D01*
X191351426Y-73550147D01*
X191090273Y-73658320D01*
X190855241Y-73815363D01*
X190655363Y-74015241D01*
X190500000Y-74247759D01*
X190344637Y-74015241D01*
X190144759Y-73815363D01*
X189909727Y-73658320D01*
X189648574Y-73550147D01*
X189371335Y-73495000D01*
X189088665Y-73495000D01*
X188811426Y-73550147D01*
X188550273Y-73658320D01*
X188315241Y-73815363D01*
X188115363Y-74015241D01*
X187960000Y-74247759D01*
X187804637Y-74015241D01*
X187604759Y-73815363D01*
X187369727Y-73658320D01*
X187108574Y-73550147D01*
X186831335Y-73495000D01*
X186548665Y-73495000D01*
X186271426Y-73550147D01*
X186010273Y-73658320D01*
X185775241Y-73815363D01*
X185575363Y-74015241D01*
X185418320Y-74250273D01*
X185310147Y-74511426D01*
X185255000Y-74788665D01*
X185255000Y-75071335D01*
X185310147Y-75348574D01*
X185418320Y-75609727D01*
X185575363Y-75844759D01*
X185775241Y-76044637D01*
X186010273Y-76201680D01*
X186271426Y-76309853D01*
X186548665Y-76365000D01*
X186789212Y-76365000D01*
X184736810Y-78417403D01*
X184709674Y-78439673D01*
X184687404Y-78466809D01*
X184687403Y-78466810D01*
X184620798Y-78547968D01*
X184563414Y-78655327D01*
X184554759Y-78671519D01*
X184514092Y-78805580D01*
X184508275Y-78864640D01*
X184500360Y-78945000D01*
X184503801Y-78979936D01*
X184503800Y-87805411D01*
X182636810Y-89672403D01*
X182609674Y-89694673D01*
X182587404Y-89721809D01*
X182587403Y-89721810D01*
X182520798Y-89802968D01*
X182487925Y-89864469D01*
X182454759Y-89926519D01*
X182414253Y-90060051D01*
X182414092Y-90060581D01*
X182411287Y-90089064D01*
X182373680Y-89998273D01*
X182216637Y-89763241D01*
X182016759Y-89563363D01*
X181781727Y-89406320D01*
X181520574Y-89298147D01*
X181243335Y-89243000D01*
X180960665Y-89243000D01*
X180683426Y-89298147D01*
X180422273Y-89406320D01*
X180187241Y-89563363D01*
X179987363Y-89763241D01*
X179830320Y-89998273D01*
X179722147Y-90259426D01*
X179667000Y-90536665D01*
X179667000Y-90819335D01*
X179722147Y-91096574D01*
X179830320Y-91357727D01*
X179987363Y-91592759D01*
X180187241Y-91792637D01*
X180419759Y-91948000D01*
X180187241Y-92103363D01*
X179987363Y-92303241D01*
X179830320Y-92538273D01*
X179722147Y-92799426D01*
X179667000Y-93076665D01*
X179667000Y-93359335D01*
X179722147Y-93636574D01*
X179830320Y-93897727D01*
X179987363Y-94132759D01*
X180187241Y-94332637D01*
X180419759Y-94488000D01*
X180187241Y-94643363D01*
X179987363Y-94843241D01*
X179830320Y-95078273D01*
X179722147Y-95339426D01*
X179667000Y-95616665D01*
X179667000Y-95899335D01*
X179722147Y-96176574D01*
X179830320Y-96437727D01*
X179987363Y-96672759D01*
X180187241Y-96872637D01*
X180419759Y-97028000D01*
X180187241Y-97183363D01*
X179987363Y-97383241D01*
X179830320Y-97618273D01*
X179722147Y-97879426D01*
X179667000Y-98156665D01*
X179667000Y-98439335D01*
X179722147Y-98716574D01*
X179830320Y-98977727D01*
X179987363Y-99212759D01*
X180187241Y-99412637D01*
X180419759Y-99568000D01*
X180187241Y-99723363D01*
X179987363Y-99923241D01*
X179830320Y-100158273D01*
X179722147Y-100419426D01*
X179667000Y-100696665D01*
X179667000Y-100979335D01*
X179722147Y-101256574D01*
X179830320Y-101517727D01*
X179987363Y-101752759D01*
X180187241Y-101952637D01*
X180419759Y-102108000D01*
X180187241Y-102263363D01*
X179987363Y-102463241D01*
X179830320Y-102698273D01*
X179722147Y-102959426D01*
X179667000Y-103236665D01*
X179667000Y-103519335D01*
X179722147Y-103796574D01*
X179830320Y-104057727D01*
X179987363Y-104292759D01*
X180187241Y-104492637D01*
X180419759Y-104648000D01*
X180187241Y-104803363D01*
X179987363Y-105003241D01*
X179830320Y-105238273D01*
X179722147Y-105499426D01*
X179667000Y-105776665D01*
X179667000Y-106059335D01*
X179722147Y-106336574D01*
X179830320Y-106597727D01*
X179987363Y-106832759D01*
X180187241Y-107032637D01*
X180419759Y-107188000D01*
X180187241Y-107343363D01*
X179987363Y-107543241D01*
X179830320Y-107778273D01*
X179722147Y-108039426D01*
X179667000Y-108316665D01*
X179667000Y-108599335D01*
X179722147Y-108876574D01*
X179830320Y-109137727D01*
X179987363Y-109372759D01*
X180187241Y-109572637D01*
X180419759Y-109728000D01*
X180187241Y-109883363D01*
X179987363Y-110083241D01*
X179830320Y-110318273D01*
X179722147Y-110579426D01*
X179667000Y-110856665D01*
X179667000Y-111139335D01*
X179702022Y-111315401D01*
X172595978Y-111315401D01*
X172631000Y-111139335D01*
X172631000Y-110856665D01*
X172575853Y-110579426D01*
X172467680Y-110318273D01*
X172310637Y-110083241D01*
X172110759Y-109883363D01*
X171878241Y-109728000D01*
X172110759Y-109572637D01*
X172165694Y-109517702D01*
X176751903Y-109517702D01*
X176823486Y-109761671D01*
X177078996Y-109882571D01*
X177353184Y-109951300D01*
X177635512Y-109965217D01*
X177915130Y-109923787D01*
X178181292Y-109828603D01*
X178306514Y-109761671D01*
X178378097Y-109517702D01*
X177565000Y-108704605D01*
X176751903Y-109517702D01*
X172165694Y-109517702D01*
X172310637Y-109372759D01*
X172467680Y-109137727D01*
X172575853Y-108876574D01*
X172631000Y-108599335D01*
X172631000Y-108595512D01*
X176124783Y-108595512D01*
X176166213Y-108875130D01*
X176261397Y-109141292D01*
X176328329Y-109266514D01*
X176572298Y-109338097D01*
X177385395Y-108525000D01*
X177744605Y-108525000D01*
X178557702Y-109338097D01*
X178801671Y-109266514D01*
X178922571Y-109011004D01*
X178991300Y-108736816D01*
X179005217Y-108454488D01*
X178963787Y-108174870D01*
X178868603Y-107908708D01*
X178801671Y-107783486D01*
X178557702Y-107711903D01*
X177744605Y-108525000D01*
X177385395Y-108525000D01*
X176572298Y-107711903D01*
X176328329Y-107783486D01*
X176207429Y-108038996D01*
X176138700Y-108313184D01*
X176124783Y-108595512D01*
X172631000Y-108595512D01*
X172631000Y-108316665D01*
X172575853Y-108039426D01*
X172467680Y-107778273D01*
X172310637Y-107543241D01*
X172299694Y-107532298D01*
X176751903Y-107532298D01*
X177565000Y-108345395D01*
X178378097Y-107532298D01*
X178306514Y-107288329D01*
X178051004Y-107167429D01*
X177776816Y-107098700D01*
X177494488Y-107084783D01*
X177214870Y-107126213D01*
X176948708Y-107221397D01*
X176823486Y-107288329D01*
X176751903Y-107532298D01*
X172299694Y-107532298D01*
X172110759Y-107343363D01*
X171878241Y-107188000D01*
X172110759Y-107032637D01*
X172310637Y-106832759D01*
X172467680Y-106597727D01*
X172575853Y-106336574D01*
X172631000Y-106059335D01*
X172631000Y-105776665D01*
X172575853Y-105499426D01*
X172467680Y-105238273D01*
X172310637Y-105003241D01*
X172110759Y-104803363D01*
X171878241Y-104648000D01*
X172110759Y-104492637D01*
X172310637Y-104292759D01*
X172467680Y-104057727D01*
X172575853Y-103796574D01*
X172631000Y-103519335D01*
X172631000Y-103236665D01*
X172575853Y-102959426D01*
X172467680Y-102698273D01*
X172310637Y-102463241D01*
X172110759Y-102263363D01*
X171878241Y-102108000D01*
X172110759Y-101952637D01*
X172310637Y-101752759D01*
X172467680Y-101517727D01*
X172575853Y-101256574D01*
X172631000Y-100979335D01*
X172631000Y-100696665D01*
X172575853Y-100419426D01*
X172467680Y-100158273D01*
X172310637Y-99923241D01*
X172110759Y-99723363D01*
X171878241Y-99568000D01*
X172110759Y-99412637D01*
X172310637Y-99212759D01*
X172467680Y-98977727D01*
X172575853Y-98716574D01*
X172631000Y-98439335D01*
X172631000Y-98156665D01*
X172575853Y-97879426D01*
X172467680Y-97618273D01*
X172310637Y-97383241D01*
X172110759Y-97183363D01*
X171878241Y-97028000D01*
X172110759Y-96872637D01*
X172310637Y-96672759D01*
X172467680Y-96437727D01*
X172575853Y-96176574D01*
X172631000Y-95899335D01*
X172631000Y-95616665D01*
X172583237Y-95376550D01*
X179538201Y-88421588D01*
X179565326Y-88399327D01*
X179587588Y-88372201D01*
X179587597Y-88372192D01*
X179654202Y-88291034D01*
X179689501Y-88224994D01*
X179720242Y-88167481D01*
X179760909Y-88033420D01*
X179771200Y-87928936D01*
X179771200Y-87928919D01*
X179774639Y-87894001D01*
X179771200Y-87859083D01*
X179771200Y-83934383D01*
X180025665Y-83985000D01*
X180308335Y-83985000D01*
X180585574Y-83929853D01*
X180846727Y-83821680D01*
X181081759Y-83664637D01*
X181281637Y-83464759D01*
X181438680Y-83229727D01*
X181546853Y-82968574D01*
X181602000Y-82691335D01*
X181602000Y-82408665D01*
X181546853Y-82131426D01*
X181438680Y-81870273D01*
X181281637Y-81635241D01*
X181081759Y-81435363D01*
X180846727Y-81278320D01*
X180585574Y-81170147D01*
X180308335Y-81115000D01*
X180025665Y-81115000D01*
X179771200Y-81165617D01*
X179771200Y-78444587D01*
X180645200Y-77570588D01*
X180672326Y-77548327D01*
X180694588Y-77521201D01*
X180694597Y-77521192D01*
X180761202Y-77440033D01*
X180797282Y-77372532D01*
X180827242Y-77316481D01*
X180867909Y-77182420D01*
X180878200Y-77077936D01*
X180878200Y-77077927D01*
X180881640Y-77043001D01*
X180878200Y-77008075D01*
X180878200Y-76368072D01*
X180967000Y-76368072D01*
X181091482Y-76355812D01*
X181211180Y-76319502D01*
X181321494Y-76260537D01*
X181418185Y-76181185D01*
X181497537Y-76084494D01*
X181556502Y-75974180D01*
X181592812Y-75854482D01*
X181605072Y-75730000D01*
X181605072Y-74130000D01*
X181592812Y-74005518D01*
X181556502Y-73885820D01*
X181497537Y-73775506D01*
X181418185Y-73678815D01*
X181321494Y-73599463D01*
X181211180Y-73540498D01*
X181091482Y-73504188D01*
X180967000Y-73491928D01*
X180348489Y-73491928D01*
X183219218Y-70621200D01*
X185555350Y-70621200D01*
X185691363Y-70824759D01*
X185891241Y-71024637D01*
X186126273Y-71181680D01*
X186387426Y-71289853D01*
X186664665Y-71345000D01*
X186947335Y-71345000D01*
X187224574Y-71289853D01*
X187485727Y-71181680D01*
X187720759Y-71024637D01*
X187920637Y-70824759D01*
X188077680Y-70589727D01*
X188185853Y-70328574D01*
X188241000Y-70051335D01*
X188241000Y-69768665D01*
X188185853Y-69491426D01*
X188077680Y-69230273D01*
X187920637Y-68995241D01*
X187906596Y-68981200D01*
X192916079Y-68981200D01*
X193463428Y-69528550D01*
X193415666Y-69768665D01*
X193415666Y-70051335D01*
X193470813Y-70328574D01*
X193578986Y-70589727D01*
X193736029Y-70824759D01*
X193935907Y-71024637D01*
X194170939Y-71181680D01*
X194432092Y-71289853D01*
X194709331Y-71345000D01*
X194992001Y-71345000D01*
X195269240Y-71289853D01*
X195530393Y-71181680D01*
X195765425Y-71024637D01*
X195965303Y-70824759D01*
X196122346Y-70589727D01*
X196230519Y-70328574D01*
X196285666Y-70051335D01*
X196285666Y-69768665D01*
X196230519Y-69491426D01*
X196122346Y-69230273D01*
X195965303Y-68995241D01*
X195765425Y-68795363D01*
X195530393Y-68638320D01*
X195269240Y-68530147D01*
X194992001Y-68475000D01*
X194709331Y-68475000D01*
X194469216Y-68522762D01*
X193738268Y-67791814D01*
X193715993Y-67764673D01*
X193607699Y-67675798D01*
X193484147Y-67609758D01*
X193350086Y-67569091D01*
X193245602Y-67558800D01*
X193245592Y-67558800D01*
X193210666Y-67555360D01*
X193175740Y-67558800D01*
X180320925Y-67558800D01*
X180285999Y-67555360D01*
X180251073Y-67558800D01*
X180251064Y-67558800D01*
X180146580Y-67569091D01*
X180012519Y-67609758D01*
X179974032Y-67630330D01*
X179888967Y-67675798D01*
X179807808Y-67742403D01*
X179807804Y-67742407D01*
X179780673Y-67764673D01*
X179758407Y-67791804D01*
X179027450Y-68522762D01*
X178787335Y-68475000D01*
X178504665Y-68475000D01*
X178227426Y-68530147D01*
X177981200Y-68632137D01*
X177981200Y-66045653D01*
X180946853Y-63080000D01*
X181775388Y-63080000D01*
X181797785Y-63307400D01*
X181864115Y-63526060D01*
X181965105Y-63715000D01*
X181864115Y-63903940D01*
X181797785Y-64122600D01*
X181775388Y-64350000D01*
X181797785Y-64577400D01*
X181861093Y-64786098D01*
X181826498Y-64850820D01*
X181790188Y-64970518D01*
X181777928Y-65095000D01*
X181777928Y-66145000D01*
X181790188Y-66269482D01*
X181826498Y-66389180D01*
X181885463Y-66499494D01*
X181964815Y-66596185D01*
X182061506Y-66675537D01*
X182171820Y-66734502D01*
X182291518Y-66770812D01*
X182416000Y-66783072D01*
X183916000Y-66783072D01*
X184040482Y-66770812D01*
X184160180Y-66734502D01*
X184270494Y-66675537D01*
X184367185Y-66596185D01*
X184446537Y-66499494D01*
X184505502Y-66389180D01*
X184541812Y-66269482D01*
X184554072Y-66145000D01*
X184554072Y-65095000D01*
X184541812Y-64970518D01*
X184505502Y-64850820D01*
X184470907Y-64786098D01*
X184534215Y-64577400D01*
X184556612Y-64350000D01*
X184534215Y-64122600D01*
X184467885Y-63903940D01*
X184366895Y-63715000D01*
X184467885Y-63526060D01*
X184534215Y-63307400D01*
X184556612Y-63080000D01*
X184534215Y-62852600D01*
X184467885Y-62633940D01*
X184360171Y-62432421D01*
X184215212Y-62255788D01*
X184084683Y-62148665D01*
X185371000Y-62148665D01*
X185371000Y-62431335D01*
X185426147Y-62708574D01*
X185534320Y-62969727D01*
X185691363Y-63204759D01*
X185891241Y-63404637D01*
X186126273Y-63561680D01*
X186387426Y-63669853D01*
X186664665Y-63725000D01*
X186947335Y-63725000D01*
X187224574Y-63669853D01*
X187485727Y-63561680D01*
X187720759Y-63404637D01*
X187920637Y-63204759D01*
X188077680Y-62969727D01*
X188185853Y-62708574D01*
X188241000Y-62431335D01*
X188241000Y-62148665D01*
X188185853Y-61871426D01*
X188077680Y-61610273D01*
X187920637Y-61375241D01*
X187720759Y-61175363D01*
X187485727Y-61018320D01*
X187224574Y-60910147D01*
X186947335Y-60855000D01*
X186664665Y-60855000D01*
X186387426Y-60910147D01*
X186126273Y-61018320D01*
X185891241Y-61175363D01*
X185691363Y-61375241D01*
X185534320Y-61610273D01*
X185426147Y-61871426D01*
X185371000Y-62148665D01*
X184084683Y-62148665D01*
X184038579Y-62110829D01*
X183837060Y-62003115D01*
X183618400Y-61936785D01*
X183447979Y-61920000D01*
X182884021Y-61920000D01*
X182713600Y-61936785D01*
X182494940Y-62003115D01*
X182293421Y-62110829D01*
X182116788Y-62255788D01*
X181971829Y-62432421D01*
X181864115Y-62633940D01*
X181797785Y-62852600D01*
X181775388Y-63080000D01*
X180946853Y-63080000D01*
X184498201Y-59528654D01*
X184525326Y-59506393D01*
X184547588Y-59479267D01*
X184547598Y-59479257D01*
X184614202Y-59398099D01*
X184680242Y-59274548D01*
X184720909Y-59140486D01*
X184724047Y-59108621D01*
X184731200Y-59036002D01*
X184731200Y-59035995D01*
X184734640Y-59001066D01*
X184731200Y-58966138D01*
X184731200Y-56845651D01*
X184926141Y-56904786D01*
X185200000Y-56931759D01*
X185473860Y-56904786D01*
X185737195Y-56824904D01*
X185979887Y-56695183D01*
X186192608Y-56520608D01*
X186367183Y-56307887D01*
X186496904Y-56065195D01*
X186576786Y-55801860D01*
X186597000Y-55596625D01*
X186597000Y-54459375D01*
X186576786Y-54254140D01*
X186496904Y-53990805D01*
X186367183Y-53748113D01*
X186192607Y-53535392D01*
X185979886Y-53360817D01*
X185737194Y-53231096D01*
X185473859Y-53151214D01*
X185200000Y-53124241D01*
X184926140Y-53151214D01*
X184731200Y-53210349D01*
X184731200Y-41605651D01*
X184926141Y-41664786D01*
X185200000Y-41691759D01*
X185473860Y-41664786D01*
X185737195Y-41584904D01*
X185979887Y-41455183D01*
X186192608Y-41280608D01*
X186367183Y-41067887D01*
X186496904Y-40825195D01*
X186576786Y-40561860D01*
X186597000Y-40356625D01*
X186597000Y-39219375D01*
X186576786Y-39014140D01*
X186496904Y-38750805D01*
X186367183Y-38508113D01*
X186192607Y-38295392D01*
X185979886Y-38120817D01*
X185737194Y-37991096D01*
X185473859Y-37911214D01*
X185200000Y-37884241D01*
X184926140Y-37911214D01*
X184662805Y-37991096D01*
X184420113Y-38120817D01*
X184207392Y-38295393D01*
X184032817Y-38508114D01*
X183930000Y-38700471D01*
X183827183Y-38508113D01*
X183652607Y-38295392D01*
X183439886Y-38120817D01*
X183373148Y-38085145D01*
X183374640Y-38070000D01*
X183371200Y-38035071D01*
X183371200Y-38035064D01*
X183360909Y-37930580D01*
X183320242Y-37796519D01*
X183254202Y-37672967D01*
X183165326Y-37564673D01*
X183147447Y-37550000D01*
X198224212Y-37550000D01*
X197440669Y-38333544D01*
G04 #@! TA.AperFunction,Conductor*
D25*
G36*
X197440669Y-38333544D02*
G01*
X197275194Y-38245096D01*
X197011859Y-38165214D01*
X196738000Y-38138241D01*
X196464140Y-38165214D01*
X196200805Y-38245096D01*
X195958113Y-38374817D01*
X195745392Y-38549393D01*
X195570817Y-38762114D01*
X195441096Y-39004806D01*
X195361214Y-39268141D01*
X195341000Y-39473376D01*
X195341000Y-40610625D01*
X195361214Y-40815860D01*
X195441096Y-41079195D01*
X195570817Y-41321887D01*
X195745393Y-41534608D01*
X195958114Y-41709183D01*
X196200806Y-41838904D01*
X196464141Y-41918786D01*
X196738000Y-41945759D01*
X197011860Y-41918786D01*
X197275195Y-41838904D01*
X197517887Y-41709183D01*
X197730608Y-41534608D01*
X197905183Y-41321887D01*
X198008000Y-41129529D01*
X198110817Y-41321887D01*
X198285393Y-41534608D01*
X198498114Y-41709183D01*
X198650125Y-41790434D01*
X198683798Y-41853432D01*
X198732416Y-41912673D01*
X198772674Y-41961727D01*
X198799810Y-41983997D01*
X201236007Y-44420196D01*
X201258273Y-44447327D01*
X201285404Y-44469593D01*
X201285408Y-44469597D01*
X201362227Y-44532640D01*
X201366567Y-44536202D01*
X201490119Y-44602242D01*
X201624180Y-44642909D01*
X201728664Y-44653200D01*
X201728673Y-44653200D01*
X201763599Y-44656640D01*
X201798525Y-44653200D01*
X209457474Y-44653200D01*
X209492400Y-44656640D01*
X209527326Y-44653200D01*
X209527336Y-44653200D01*
X209631820Y-44642909D01*
X209765881Y-44602242D01*
X209889433Y-44536202D01*
X209997727Y-44447327D01*
X210020002Y-44420185D01*
X212456201Y-41983988D01*
X212483326Y-41961727D01*
X212505588Y-41934601D01*
X212505597Y-41934592D01*
X212572202Y-41853433D01*
X212601703Y-41798241D01*
X212605875Y-41790435D01*
X212757887Y-41709183D01*
X212970608Y-41534608D01*
X213145183Y-41321887D01*
X213248000Y-41129529D01*
X213350817Y-41321887D01*
X213525393Y-41534608D01*
X213738114Y-41709183D01*
X213890125Y-41790434D01*
X213923798Y-41853432D01*
X213972416Y-41912673D01*
X214012674Y-41961727D01*
X214039810Y-41983997D01*
X217337410Y-45281599D01*
X217337411Y-53406898D01*
X217331859Y-53405214D01*
X217058000Y-53378241D01*
X216784140Y-53405214D01*
X216520805Y-53485096D01*
X216278113Y-53614817D01*
X216065392Y-53789393D01*
X215890817Y-54002114D01*
X215788000Y-54194471D01*
X215685183Y-54002113D01*
X215510607Y-53789392D01*
X215297886Y-53614817D01*
X215055194Y-53485096D01*
X214791859Y-53405214D01*
X214518000Y-53378241D01*
X214244140Y-53405214D01*
X213980805Y-53485096D01*
X213738113Y-53614817D01*
X213525392Y-53789393D01*
X213350817Y-54002114D01*
X213248000Y-54194471D01*
X213145183Y-54002113D01*
X212970607Y-53789392D01*
X212757886Y-53614817D01*
X212515194Y-53485096D01*
X212251859Y-53405214D01*
X211978000Y-53378241D01*
X211704140Y-53405214D01*
X211440805Y-53485096D01*
X211198113Y-53614817D01*
X210985392Y-53789393D01*
X210833579Y-53974379D01*
X210825812Y-53895518D01*
X210789502Y-53775820D01*
X210730537Y-53665506D01*
X210651185Y-53568815D01*
X210554494Y-53489463D01*
X210444180Y-53430498D01*
X210324482Y-53394188D01*
X210200000Y-53381928D01*
X209959457Y-53381928D01*
X209943326Y-53362273D01*
X209916201Y-53340012D01*
X207914002Y-51337815D01*
X207891727Y-51310673D01*
X207783433Y-51221798D01*
X207659881Y-51155758D01*
X207525820Y-51115091D01*
X207421336Y-51104800D01*
X207421326Y-51104800D01*
X207386400Y-51101360D01*
X207351474Y-51104800D01*
X198824528Y-51104800D01*
X198789600Y-51101360D01*
X198754671Y-51104800D01*
X198754664Y-51104800D01*
X198650180Y-51115091D01*
X198516118Y-51155758D01*
X198392567Y-51221798D01*
X198311409Y-51288402D01*
X198311404Y-51288407D01*
X198284273Y-51310673D01*
X198262007Y-51337804D01*
X196259810Y-53340003D01*
X196232674Y-53362273D01*
X196216543Y-53381928D01*
X195976000Y-53381928D01*
X195851518Y-53394188D01*
X195731820Y-53430498D01*
X195621506Y-53489463D01*
X195524815Y-53568815D01*
X195445463Y-53665506D01*
X195386498Y-53775820D01*
X195350188Y-53895518D01*
X195337928Y-54020000D01*
X195337928Y-56544000D01*
X195350188Y-56668482D01*
X195386498Y-56788180D01*
X195445463Y-56898494D01*
X195524815Y-56995185D01*
X195621506Y-57074537D01*
X195731820Y-57133502D01*
X195851518Y-57169812D01*
X195976000Y-57182072D01*
X197500000Y-57182072D01*
X197624482Y-57169812D01*
X197744180Y-57133502D01*
X197854494Y-57074537D01*
X197951185Y-56995185D01*
X198030537Y-56898494D01*
X198089502Y-56788180D01*
X198125812Y-56668482D01*
X198133579Y-56589622D01*
X198285393Y-56774608D01*
X198498114Y-56949183D01*
X198740806Y-57078904D01*
X199004141Y-57158786D01*
X199278000Y-57185759D01*
X199551860Y-57158786D01*
X199686169Y-57118044D01*
X199349413Y-57454800D01*
X192058928Y-57454800D01*
X192024000Y-57451360D01*
X191989071Y-57454800D01*
X191989064Y-57454800D01*
X191884580Y-57465091D01*
X191750518Y-57505758D01*
X191626967Y-57571798D01*
X191545809Y-57638402D01*
X191545804Y-57638407D01*
X191518673Y-57660673D01*
X191496407Y-57687804D01*
X190783810Y-58400403D01*
X190756674Y-58422673D01*
X190734404Y-58449809D01*
X190734403Y-58449810D01*
X190667798Y-58530968D01*
X190615447Y-58628911D01*
X190601759Y-58654519D01*
X190561092Y-58788580D01*
X190559968Y-58799994D01*
X190547360Y-58928000D01*
X190550801Y-58962936D01*
X190550800Y-61999719D01*
X190539606Y-62003115D01*
X190338087Y-62110829D01*
X190161454Y-62255788D01*
X190016495Y-62432421D01*
X189908781Y-62633940D01*
X189842451Y-62852600D01*
X189820054Y-63080000D01*
X189842451Y-63307400D01*
X189908781Y-63526060D01*
X190009771Y-63715000D01*
X189908781Y-63903940D01*
X189842451Y-64122600D01*
X189820054Y-64350000D01*
X189842451Y-64577400D01*
X189905759Y-64786098D01*
X189871164Y-64850820D01*
X189834854Y-64970518D01*
X189822594Y-65095000D01*
X189822594Y-66145000D01*
X189834854Y-66269482D01*
X189871164Y-66389180D01*
X189930129Y-66499494D01*
X190009481Y-66596185D01*
X190106172Y-66675537D01*
X190216486Y-66734502D01*
X190336184Y-66770812D01*
X190460666Y-66783072D01*
X191960666Y-66783072D01*
X192085148Y-66770812D01*
X192204846Y-66734502D01*
X192315160Y-66675537D01*
X192411851Y-66596185D01*
X192491203Y-66499494D01*
X192550168Y-66389180D01*
X192567756Y-66331200D01*
X197958910Y-66331200D01*
X197976498Y-66389180D01*
X198035463Y-66499494D01*
X198114815Y-66596185D01*
X198211506Y-66675537D01*
X198321820Y-66734502D01*
X198441518Y-66770812D01*
X198566000Y-66783072D01*
X200066000Y-66783072D01*
X200190482Y-66770812D01*
X200310180Y-66734502D01*
X200420494Y-66675537D01*
X200517185Y-66596185D01*
X200588736Y-66509000D01*
X200741765Y-66509000D01*
X202725501Y-68492736D01*
X202537426Y-68530147D01*
X202276273Y-68638320D01*
X202041241Y-68795363D01*
X201841363Y-68995241D01*
X201684320Y-69230273D01*
X201576147Y-69491426D01*
X201521000Y-69768665D01*
X201521000Y-70051335D01*
X201576147Y-70328574D01*
X201684320Y-70589727D01*
X201841363Y-70824759D01*
X202041241Y-71024637D01*
X202276273Y-71181680D01*
X202537426Y-71289853D01*
X202814665Y-71345000D01*
X203097335Y-71345000D01*
X203340786Y-71296574D01*
X205903801Y-73859590D01*
X205903801Y-74086634D01*
X205895812Y-74005518D01*
X205859502Y-73885820D01*
X205800537Y-73775506D01*
X205721185Y-73678815D01*
X205624494Y-73599463D01*
X205514180Y-73540498D01*
X205394482Y-73504188D01*
X205270000Y-73491928D01*
X203670000Y-73491928D01*
X203545518Y-73504188D01*
X203425820Y-73540498D01*
X203315506Y-73599463D01*
X203218815Y-73678815D01*
X203139463Y-73775506D01*
X203080498Y-73885820D01*
X203044188Y-74005518D01*
X203043357Y-74013961D01*
X202844759Y-73815363D01*
X202609727Y-73658320D01*
X202348574Y-73550147D01*
X202071335Y-73495000D01*
X201788665Y-73495000D01*
X201511426Y-73550147D01*
X201250273Y-73658320D01*
X201015241Y-73815363D01*
X200815363Y-74015241D01*
X200660000Y-74247759D01*
X200504637Y-74015241D01*
X200304759Y-73815363D01*
X200069727Y-73658320D01*
X199808574Y-73550147D01*
X199531335Y-73495000D01*
X199248665Y-73495000D01*
X198971426Y-73550147D01*
X198710273Y-73658320D01*
X198475241Y-73815363D01*
X198275363Y-74015241D01*
X198120000Y-74247759D01*
X197964637Y-74015241D01*
X197764759Y-73815363D01*
X197529727Y-73658320D01*
X197268574Y-73550147D01*
X196991335Y-73495000D01*
X196708665Y-73495000D01*
X196431426Y-73550147D01*
X196170273Y-73658320D01*
X195935241Y-73815363D01*
X195735363Y-74015241D01*
X195580000Y-74247759D01*
X195424637Y-74015241D01*
X195224759Y-73815363D01*
X194989727Y-73658320D01*
X194728574Y-73550147D01*
X194451335Y-73495000D01*
X194168665Y-73495000D01*
X193891426Y-73550147D01*
X193630273Y-73658320D01*
X193395241Y-73815363D01*
X193195363Y-74015241D01*
X193040000Y-74247759D01*
X192884637Y-74015241D01*
X192684759Y-73815363D01*
X192449727Y-73658320D01*
X192188574Y-73550147D01*
X191911335Y-73495000D01*
X191628665Y-73495000D01*
X191351426Y-73550147D01*
X191090273Y-73658320D01*
X190855241Y-73815363D01*
X190655363Y-74015241D01*
X190500000Y-74247759D01*
X190344637Y-74015241D01*
X190144759Y-73815363D01*
X189909727Y-73658320D01*
X189648574Y-73550147D01*
X189371335Y-73495000D01*
X189088665Y-73495000D01*
X188811426Y-73550147D01*
X188550273Y-73658320D01*
X188315241Y-73815363D01*
X188115363Y-74015241D01*
X187960000Y-74247759D01*
X187804637Y-74015241D01*
X187604759Y-73815363D01*
X187369727Y-73658320D01*
X187108574Y-73550147D01*
X186831335Y-73495000D01*
X186548665Y-73495000D01*
X186271426Y-73550147D01*
X186010273Y-73658320D01*
X185775241Y-73815363D01*
X185575363Y-74015241D01*
X185418320Y-74250273D01*
X185310147Y-74511426D01*
X185255000Y-74788665D01*
X185255000Y-75071335D01*
X185310147Y-75348574D01*
X185418320Y-75609727D01*
X185575363Y-75844759D01*
X185775241Y-76044637D01*
X186010273Y-76201680D01*
X186271426Y-76309853D01*
X186548665Y-76365000D01*
X186789212Y-76365000D01*
X184736810Y-78417403D01*
X184709674Y-78439673D01*
X184687404Y-78466809D01*
X184687403Y-78466810D01*
X184620798Y-78547968D01*
X184563414Y-78655327D01*
X184554759Y-78671519D01*
X184514092Y-78805580D01*
X184508275Y-78864640D01*
X184500360Y-78945000D01*
X184503801Y-78979936D01*
X184503800Y-87805411D01*
X182636810Y-89672403D01*
X182609674Y-89694673D01*
X182587404Y-89721809D01*
X182587403Y-89721810D01*
X182520798Y-89802968D01*
X182487925Y-89864469D01*
X182454759Y-89926519D01*
X182414253Y-90060051D01*
X182414092Y-90060581D01*
X182411287Y-90089064D01*
X182373680Y-89998273D01*
X182216637Y-89763241D01*
X182016759Y-89563363D01*
X181781727Y-89406320D01*
X181520574Y-89298147D01*
X181243335Y-89243000D01*
X180960665Y-89243000D01*
X180683426Y-89298147D01*
X180422273Y-89406320D01*
X180187241Y-89563363D01*
X179987363Y-89763241D01*
X179830320Y-89998273D01*
X179722147Y-90259426D01*
X179667000Y-90536665D01*
X179667000Y-90819335D01*
X179722147Y-91096574D01*
X179830320Y-91357727D01*
X179987363Y-91592759D01*
X180187241Y-91792637D01*
X180419759Y-91948000D01*
X180187241Y-92103363D01*
X179987363Y-92303241D01*
X179830320Y-92538273D01*
X179722147Y-92799426D01*
X179667000Y-93076665D01*
X179667000Y-93359335D01*
X179722147Y-93636574D01*
X179830320Y-93897727D01*
X179987363Y-94132759D01*
X180187241Y-94332637D01*
X180419759Y-94488000D01*
X180187241Y-94643363D01*
X179987363Y-94843241D01*
X179830320Y-95078273D01*
X179722147Y-95339426D01*
X179667000Y-95616665D01*
X179667000Y-95899335D01*
X179722147Y-96176574D01*
X179830320Y-96437727D01*
X179987363Y-96672759D01*
X180187241Y-96872637D01*
X180419759Y-97028000D01*
X180187241Y-97183363D01*
X179987363Y-97383241D01*
X179830320Y-97618273D01*
X179722147Y-97879426D01*
X179667000Y-98156665D01*
X179667000Y-98439335D01*
X179722147Y-98716574D01*
X179830320Y-98977727D01*
X179987363Y-99212759D01*
X180187241Y-99412637D01*
X180419759Y-99568000D01*
X180187241Y-99723363D01*
X179987363Y-99923241D01*
X179830320Y-100158273D01*
X179722147Y-100419426D01*
X179667000Y-100696665D01*
X179667000Y-100979335D01*
X179722147Y-101256574D01*
X179830320Y-101517727D01*
X179987363Y-101752759D01*
X180187241Y-101952637D01*
X180419759Y-102108000D01*
X180187241Y-102263363D01*
X179987363Y-102463241D01*
X179830320Y-102698273D01*
X179722147Y-102959426D01*
X179667000Y-103236665D01*
X179667000Y-103519335D01*
X179722147Y-103796574D01*
X179830320Y-104057727D01*
X179987363Y-104292759D01*
X180187241Y-104492637D01*
X180419759Y-104648000D01*
X180187241Y-104803363D01*
X179987363Y-105003241D01*
X179830320Y-105238273D01*
X179722147Y-105499426D01*
X179667000Y-105776665D01*
X179667000Y-106059335D01*
X179722147Y-106336574D01*
X179830320Y-106597727D01*
X179987363Y-106832759D01*
X180187241Y-107032637D01*
X180419759Y-107188000D01*
X180187241Y-107343363D01*
X179987363Y-107543241D01*
X179830320Y-107778273D01*
X179722147Y-108039426D01*
X179667000Y-108316665D01*
X179667000Y-108599335D01*
X179722147Y-108876574D01*
X179830320Y-109137727D01*
X179987363Y-109372759D01*
X180187241Y-109572637D01*
X180419759Y-109728000D01*
X180187241Y-109883363D01*
X179987363Y-110083241D01*
X179830320Y-110318273D01*
X179722147Y-110579426D01*
X179667000Y-110856665D01*
X179667000Y-111139335D01*
X179702022Y-111315401D01*
X172595978Y-111315401D01*
X172631000Y-111139335D01*
X172631000Y-110856665D01*
X172575853Y-110579426D01*
X172467680Y-110318273D01*
X172310637Y-110083241D01*
X172110759Y-109883363D01*
X171878241Y-109728000D01*
X172110759Y-109572637D01*
X172165694Y-109517702D01*
X176751903Y-109517702D01*
X176823486Y-109761671D01*
X177078996Y-109882571D01*
X177353184Y-109951300D01*
X177635512Y-109965217D01*
X177915130Y-109923787D01*
X178181292Y-109828603D01*
X178306514Y-109761671D01*
X178378097Y-109517702D01*
X177565000Y-108704605D01*
X176751903Y-109517702D01*
X172165694Y-109517702D01*
X172310637Y-109372759D01*
X172467680Y-109137727D01*
X172575853Y-108876574D01*
X172631000Y-108599335D01*
X172631000Y-108595512D01*
X176124783Y-108595512D01*
X176166213Y-108875130D01*
X176261397Y-109141292D01*
X176328329Y-109266514D01*
X176572298Y-109338097D01*
X177385395Y-108525000D01*
X177744605Y-108525000D01*
X178557702Y-109338097D01*
X178801671Y-109266514D01*
X178922571Y-109011004D01*
X178991300Y-108736816D01*
X179005217Y-108454488D01*
X178963787Y-108174870D01*
X178868603Y-107908708D01*
X178801671Y-107783486D01*
X178557702Y-107711903D01*
X177744605Y-108525000D01*
X177385395Y-108525000D01*
X176572298Y-107711903D01*
X176328329Y-107783486D01*
X176207429Y-108038996D01*
X176138700Y-108313184D01*
X176124783Y-108595512D01*
X172631000Y-108595512D01*
X172631000Y-108316665D01*
X172575853Y-108039426D01*
X172467680Y-107778273D01*
X172310637Y-107543241D01*
X172299694Y-107532298D01*
X176751903Y-107532298D01*
X177565000Y-108345395D01*
X178378097Y-107532298D01*
X178306514Y-107288329D01*
X178051004Y-107167429D01*
X177776816Y-107098700D01*
X177494488Y-107084783D01*
X177214870Y-107126213D01*
X176948708Y-107221397D01*
X176823486Y-107288329D01*
X176751903Y-107532298D01*
X172299694Y-107532298D01*
X172110759Y-107343363D01*
X171878241Y-107188000D01*
X172110759Y-107032637D01*
X172310637Y-106832759D01*
X172467680Y-106597727D01*
X172575853Y-106336574D01*
X172631000Y-106059335D01*
X172631000Y-105776665D01*
X172575853Y-105499426D01*
X172467680Y-105238273D01*
X172310637Y-105003241D01*
X172110759Y-104803363D01*
X171878241Y-104648000D01*
X172110759Y-104492637D01*
X172310637Y-104292759D01*
X172467680Y-104057727D01*
X172575853Y-103796574D01*
X172631000Y-103519335D01*
X172631000Y-103236665D01*
X172575853Y-102959426D01*
X172467680Y-102698273D01*
X172310637Y-102463241D01*
X172110759Y-102263363D01*
X171878241Y-102108000D01*
X172110759Y-101952637D01*
X172310637Y-101752759D01*
X172467680Y-101517727D01*
X172575853Y-101256574D01*
X172631000Y-100979335D01*
X172631000Y-100696665D01*
X172575853Y-100419426D01*
X172467680Y-100158273D01*
X172310637Y-99923241D01*
X172110759Y-99723363D01*
X171878241Y-99568000D01*
X172110759Y-99412637D01*
X172310637Y-99212759D01*
X172467680Y-98977727D01*
X172575853Y-98716574D01*
X172631000Y-98439335D01*
X172631000Y-98156665D01*
X172575853Y-97879426D01*
X172467680Y-97618273D01*
X172310637Y-97383241D01*
X172110759Y-97183363D01*
X171878241Y-97028000D01*
X172110759Y-96872637D01*
X172310637Y-96672759D01*
X172467680Y-96437727D01*
X172575853Y-96176574D01*
X172631000Y-95899335D01*
X172631000Y-95616665D01*
X172583237Y-95376550D01*
X179538201Y-88421588D01*
X179565326Y-88399327D01*
X179587588Y-88372201D01*
X179587597Y-88372192D01*
X179654202Y-88291034D01*
X179689501Y-88224994D01*
X179720242Y-88167481D01*
X179760909Y-88033420D01*
X179771200Y-87928936D01*
X179771200Y-87928919D01*
X179774639Y-87894001D01*
X179771200Y-87859083D01*
X179771200Y-83934383D01*
X180025665Y-83985000D01*
X180308335Y-83985000D01*
X180585574Y-83929853D01*
X180846727Y-83821680D01*
X181081759Y-83664637D01*
X181281637Y-83464759D01*
X181438680Y-83229727D01*
X181546853Y-82968574D01*
X181602000Y-82691335D01*
X181602000Y-82408665D01*
X181546853Y-82131426D01*
X181438680Y-81870273D01*
X181281637Y-81635241D01*
X181081759Y-81435363D01*
X180846727Y-81278320D01*
X180585574Y-81170147D01*
X180308335Y-81115000D01*
X180025665Y-81115000D01*
X179771200Y-81165617D01*
X179771200Y-78444587D01*
X180645200Y-77570588D01*
X180672326Y-77548327D01*
X180694588Y-77521201D01*
X180694597Y-77521192D01*
X180761202Y-77440033D01*
X180797282Y-77372532D01*
X180827242Y-77316481D01*
X180867909Y-77182420D01*
X180878200Y-77077936D01*
X180878200Y-77077927D01*
X180881640Y-77043001D01*
X180878200Y-77008075D01*
X180878200Y-76368072D01*
X180967000Y-76368072D01*
X181091482Y-76355812D01*
X181211180Y-76319502D01*
X181321494Y-76260537D01*
X181418185Y-76181185D01*
X181497537Y-76084494D01*
X181556502Y-75974180D01*
X181592812Y-75854482D01*
X181605072Y-75730000D01*
X181605072Y-74130000D01*
X181592812Y-74005518D01*
X181556502Y-73885820D01*
X181497537Y-73775506D01*
X181418185Y-73678815D01*
X181321494Y-73599463D01*
X181211180Y-73540498D01*
X181091482Y-73504188D01*
X180967000Y-73491928D01*
X180348489Y-73491928D01*
X183219218Y-70621200D01*
X185555350Y-70621200D01*
X185691363Y-70824759D01*
X185891241Y-71024637D01*
X186126273Y-71181680D01*
X186387426Y-71289853D01*
X186664665Y-71345000D01*
X186947335Y-71345000D01*
X187224574Y-71289853D01*
X187485727Y-71181680D01*
X187720759Y-71024637D01*
X187920637Y-70824759D01*
X188077680Y-70589727D01*
X188185853Y-70328574D01*
X188241000Y-70051335D01*
X188241000Y-69768665D01*
X188185853Y-69491426D01*
X188077680Y-69230273D01*
X187920637Y-68995241D01*
X187906596Y-68981200D01*
X192916079Y-68981200D01*
X193463428Y-69528550D01*
X193415666Y-69768665D01*
X193415666Y-70051335D01*
X193470813Y-70328574D01*
X193578986Y-70589727D01*
X193736029Y-70824759D01*
X193935907Y-71024637D01*
X194170939Y-71181680D01*
X194432092Y-71289853D01*
X194709331Y-71345000D01*
X194992001Y-71345000D01*
X195269240Y-71289853D01*
X195530393Y-71181680D01*
X195765425Y-71024637D01*
X195965303Y-70824759D01*
X196122346Y-70589727D01*
X196230519Y-70328574D01*
X196285666Y-70051335D01*
X196285666Y-69768665D01*
X196230519Y-69491426D01*
X196122346Y-69230273D01*
X195965303Y-68995241D01*
X195765425Y-68795363D01*
X195530393Y-68638320D01*
X195269240Y-68530147D01*
X194992001Y-68475000D01*
X194709331Y-68475000D01*
X194469216Y-68522762D01*
X193738268Y-67791814D01*
X193715993Y-67764673D01*
X193607699Y-67675798D01*
X193484147Y-67609758D01*
X193350086Y-67569091D01*
X193245602Y-67558800D01*
X193245592Y-67558800D01*
X193210666Y-67555360D01*
X193175740Y-67558800D01*
X180320925Y-67558800D01*
X180285999Y-67555360D01*
X180251073Y-67558800D01*
X180251064Y-67558800D01*
X180146580Y-67569091D01*
X180012519Y-67609758D01*
X179974032Y-67630330D01*
X179888967Y-67675798D01*
X179807808Y-67742403D01*
X179807804Y-67742407D01*
X179780673Y-67764673D01*
X179758407Y-67791804D01*
X179027450Y-68522762D01*
X178787335Y-68475000D01*
X178504665Y-68475000D01*
X178227426Y-68530147D01*
X177981200Y-68632137D01*
X177981200Y-66045653D01*
X180946853Y-63080000D01*
X181775388Y-63080000D01*
X181797785Y-63307400D01*
X181864115Y-63526060D01*
X181965105Y-63715000D01*
X181864115Y-63903940D01*
X181797785Y-64122600D01*
X181775388Y-64350000D01*
X181797785Y-64577400D01*
X181861093Y-64786098D01*
X181826498Y-64850820D01*
X181790188Y-64970518D01*
X181777928Y-65095000D01*
X181777928Y-66145000D01*
X181790188Y-66269482D01*
X181826498Y-66389180D01*
X181885463Y-66499494D01*
X181964815Y-66596185D01*
X182061506Y-66675537D01*
X182171820Y-66734502D01*
X182291518Y-66770812D01*
X182416000Y-66783072D01*
X183916000Y-66783072D01*
X184040482Y-66770812D01*
X184160180Y-66734502D01*
X184270494Y-66675537D01*
X184367185Y-66596185D01*
X184446537Y-66499494D01*
X184505502Y-66389180D01*
X184541812Y-66269482D01*
X184554072Y-66145000D01*
X184554072Y-65095000D01*
X184541812Y-64970518D01*
X184505502Y-64850820D01*
X184470907Y-64786098D01*
X184534215Y-64577400D01*
X184556612Y-64350000D01*
X184534215Y-64122600D01*
X184467885Y-63903940D01*
X184366895Y-63715000D01*
X184467885Y-63526060D01*
X184534215Y-63307400D01*
X184556612Y-63080000D01*
X184534215Y-62852600D01*
X184467885Y-62633940D01*
X184360171Y-62432421D01*
X184215212Y-62255788D01*
X184084683Y-62148665D01*
X185371000Y-62148665D01*
X185371000Y-62431335D01*
X185426147Y-62708574D01*
X185534320Y-62969727D01*
X185691363Y-63204759D01*
X185891241Y-63404637D01*
X186126273Y-63561680D01*
X186387426Y-63669853D01*
X186664665Y-63725000D01*
X186947335Y-63725000D01*
X187224574Y-63669853D01*
X187485727Y-63561680D01*
X187720759Y-63404637D01*
X187920637Y-63204759D01*
X188077680Y-62969727D01*
X188185853Y-62708574D01*
X188241000Y-62431335D01*
X188241000Y-62148665D01*
X188185853Y-61871426D01*
X188077680Y-61610273D01*
X187920637Y-61375241D01*
X187720759Y-61175363D01*
X187485727Y-61018320D01*
X187224574Y-60910147D01*
X186947335Y-60855000D01*
X186664665Y-60855000D01*
X186387426Y-60910147D01*
X186126273Y-61018320D01*
X185891241Y-61175363D01*
X185691363Y-61375241D01*
X185534320Y-61610273D01*
X185426147Y-61871426D01*
X185371000Y-62148665D01*
X184084683Y-62148665D01*
X184038579Y-62110829D01*
X183837060Y-62003115D01*
X183618400Y-61936785D01*
X183447979Y-61920000D01*
X182884021Y-61920000D01*
X182713600Y-61936785D01*
X182494940Y-62003115D01*
X182293421Y-62110829D01*
X182116788Y-62255788D01*
X181971829Y-62432421D01*
X181864115Y-62633940D01*
X181797785Y-62852600D01*
X181775388Y-63080000D01*
X180946853Y-63080000D01*
X184498201Y-59528654D01*
X184525326Y-59506393D01*
X184547588Y-59479267D01*
X184547598Y-59479257D01*
X184614202Y-59398099D01*
X184680242Y-59274548D01*
X184720909Y-59140486D01*
X184724047Y-59108621D01*
X184731200Y-59036002D01*
X184731200Y-59035995D01*
X184734640Y-59001066D01*
X184731200Y-58966138D01*
X184731200Y-56845651D01*
X184926141Y-56904786D01*
X185200000Y-56931759D01*
X185473860Y-56904786D01*
X185737195Y-56824904D01*
X185979887Y-56695183D01*
X186192608Y-56520608D01*
X186367183Y-56307887D01*
X186496904Y-56065195D01*
X186576786Y-55801860D01*
X186597000Y-55596625D01*
X186597000Y-54459375D01*
X186576786Y-54254140D01*
X186496904Y-53990805D01*
X186367183Y-53748113D01*
X186192607Y-53535392D01*
X185979886Y-53360817D01*
X185737194Y-53231096D01*
X185473859Y-53151214D01*
X185200000Y-53124241D01*
X184926140Y-53151214D01*
X184731200Y-53210349D01*
X184731200Y-41605651D01*
X184926141Y-41664786D01*
X185200000Y-41691759D01*
X185473860Y-41664786D01*
X185737195Y-41584904D01*
X185979887Y-41455183D01*
X186192608Y-41280608D01*
X186367183Y-41067887D01*
X186496904Y-40825195D01*
X186576786Y-40561860D01*
X186597000Y-40356625D01*
X186597000Y-39219375D01*
X186576786Y-39014140D01*
X186496904Y-38750805D01*
X186367183Y-38508113D01*
X186192607Y-38295392D01*
X185979886Y-38120817D01*
X185737194Y-37991096D01*
X185473859Y-37911214D01*
X185200000Y-37884241D01*
X184926140Y-37911214D01*
X184662805Y-37991096D01*
X184420113Y-38120817D01*
X184207392Y-38295393D01*
X184032817Y-38508114D01*
X183930000Y-38700471D01*
X183827183Y-38508113D01*
X183652607Y-38295392D01*
X183439886Y-38120817D01*
X183373148Y-38085145D01*
X183374640Y-38070000D01*
X183371200Y-38035071D01*
X183371200Y-38035064D01*
X183360909Y-37930580D01*
X183320242Y-37796519D01*
X183254202Y-37672967D01*
X183165326Y-37564673D01*
X183147447Y-37550000D01*
X198224212Y-37550000D01*
X197440669Y-38333544D01*
G37*
G04 #@! TD.AperFunction*
D24*
X176947273Y-83821680D02*
X177208426Y-83929853D01*
X177485665Y-83985000D01*
X177768335Y-83985000D01*
X178043990Y-83930168D01*
X178043990Y-87390221D01*
X172920413Y-92513800D01*
X172451328Y-92513800D01*
X172310637Y-92303241D01*
X172110759Y-92103363D01*
X171878241Y-91948000D01*
X172110759Y-91792637D01*
X172310637Y-91592759D01*
X172467680Y-91357727D01*
X172575853Y-91096574D01*
X172631000Y-90819335D01*
X172631000Y-90536665D01*
X172575853Y-90259426D01*
X172467680Y-89998273D01*
X172310637Y-89763241D01*
X172110759Y-89563363D01*
X171875727Y-89406320D01*
X171614574Y-89298147D01*
X171337335Y-89243000D01*
X171054665Y-89243000D01*
X170777426Y-89298147D01*
X170516273Y-89406320D01*
X170281241Y-89563363D01*
X170081363Y-89763241D01*
X169924320Y-89998273D01*
X169816147Y-90259426D01*
X169761000Y-90536665D01*
X169761000Y-90819335D01*
X169816147Y-91096574D01*
X169924320Y-91357727D01*
X170081363Y-91592759D01*
X170281241Y-91792637D01*
X170513759Y-91948000D01*
X170281241Y-92103363D01*
X170081363Y-92303241D01*
X169924320Y-92538273D01*
X169816147Y-92799426D01*
X169761000Y-93076665D01*
X169761000Y-93359335D01*
X169816147Y-93636574D01*
X169924320Y-93897727D01*
X170081363Y-94132759D01*
X170281241Y-94332637D01*
X170513759Y-94488000D01*
X170281241Y-94643363D01*
X170081363Y-94843241D01*
X169924320Y-95078273D01*
X169816147Y-95339426D01*
X169761000Y-95616665D01*
X169761000Y-95857212D01*
X167901200Y-93997413D01*
X167901200Y-88042702D01*
X168201903Y-88042702D01*
X168273486Y-88286671D01*
X168528996Y-88407571D01*
X168803184Y-88476300D01*
X169085512Y-88490217D01*
X169365130Y-88448787D01*
X169631292Y-88353603D01*
X169756514Y-88286671D01*
X169828097Y-88042702D01*
X169015000Y-87229605D01*
X168201903Y-88042702D01*
X167901200Y-88042702D01*
X167901200Y-87827566D01*
X168022298Y-87863097D01*
X168835395Y-87050000D01*
X169194605Y-87050000D01*
X170007702Y-87863097D01*
X170251671Y-87791514D01*
X170372571Y-87536004D01*
X170441300Y-87261816D01*
X170455217Y-86979488D01*
X170444724Y-86908665D01*
X172580000Y-86908665D01*
X172580000Y-87191335D01*
X172635147Y-87468574D01*
X172743320Y-87729727D01*
X172900363Y-87964759D01*
X173100241Y-88164637D01*
X173335273Y-88321680D01*
X173596426Y-88429853D01*
X173873665Y-88485000D01*
X174156335Y-88485000D01*
X174433574Y-88429853D01*
X174694727Y-88321680D01*
X174929759Y-88164637D01*
X175129637Y-87964759D01*
X175286680Y-87729727D01*
X175394853Y-87468574D01*
X175450000Y-87191335D01*
X175450000Y-86908665D01*
X175394853Y-86631426D01*
X175286680Y-86370273D01*
X175129637Y-86135241D01*
X174929759Y-85935363D01*
X174694727Y-85778320D01*
X174433574Y-85670147D01*
X174156335Y-85615000D01*
X173873665Y-85615000D01*
X173596426Y-85670147D01*
X173335273Y-85778320D01*
X173100241Y-85935363D01*
X172900363Y-86135241D01*
X172743320Y-86370273D01*
X172635147Y-86631426D01*
X172580000Y-86908665D01*
X170444724Y-86908665D01*
X170413787Y-86699870D01*
X170318603Y-86433708D01*
X170251671Y-86308486D01*
X170007702Y-86236903D01*
X169194605Y-87050000D01*
X168835395Y-87050000D01*
X168821253Y-87035858D01*
X169000858Y-86856253D01*
X169015000Y-86870395D01*
X169828097Y-86057298D01*
X169756514Y-85813329D01*
X169501004Y-85692429D01*
X169226816Y-85623700D01*
X168944488Y-85609783D01*
X168664870Y-85651213D01*
X168399771Y-85746017D01*
X168709589Y-85436200D01*
X174882202Y-85436200D01*
X174917128Y-85439640D01*
X174952054Y-85436200D01*
X174952064Y-85436200D01*
X175056548Y-85425909D01*
X175190609Y-85385242D01*
X175314161Y-85319202D01*
X175422455Y-85230327D01*
X175444730Y-85203185D01*
X176874717Y-83773199D01*
X176947273Y-83821680D01*
G04 #@! TA.AperFunction,Conductor*
D25*
G36*
X176947273Y-83821680D02*
G01*
X177208426Y-83929853D01*
X177485665Y-83985000D01*
X177768335Y-83985000D01*
X178043990Y-83930168D01*
X178043990Y-87390221D01*
X172920413Y-92513800D01*
X172451328Y-92513800D01*
X172310637Y-92303241D01*
X172110759Y-92103363D01*
X171878241Y-91948000D01*
X172110759Y-91792637D01*
X172310637Y-91592759D01*
X172467680Y-91357727D01*
X172575853Y-91096574D01*
X172631000Y-90819335D01*
X172631000Y-90536665D01*
X172575853Y-90259426D01*
X172467680Y-89998273D01*
X172310637Y-89763241D01*
X172110759Y-89563363D01*
X171875727Y-89406320D01*
X171614574Y-89298147D01*
X171337335Y-89243000D01*
X171054665Y-89243000D01*
X170777426Y-89298147D01*
X170516273Y-89406320D01*
X170281241Y-89563363D01*
X170081363Y-89763241D01*
X169924320Y-89998273D01*
X169816147Y-90259426D01*
X169761000Y-90536665D01*
X169761000Y-90819335D01*
X169816147Y-91096574D01*
X169924320Y-91357727D01*
X170081363Y-91592759D01*
X170281241Y-91792637D01*
X170513759Y-91948000D01*
X170281241Y-92103363D01*
X170081363Y-92303241D01*
X169924320Y-92538273D01*
X169816147Y-92799426D01*
X169761000Y-93076665D01*
X169761000Y-93359335D01*
X169816147Y-93636574D01*
X169924320Y-93897727D01*
X170081363Y-94132759D01*
X170281241Y-94332637D01*
X170513759Y-94488000D01*
X170281241Y-94643363D01*
X170081363Y-94843241D01*
X169924320Y-95078273D01*
X169816147Y-95339426D01*
X169761000Y-95616665D01*
X169761000Y-95857212D01*
X167901200Y-93997413D01*
X167901200Y-88042702D01*
X168201903Y-88042702D01*
X168273486Y-88286671D01*
X168528996Y-88407571D01*
X168803184Y-88476300D01*
X169085512Y-88490217D01*
X169365130Y-88448787D01*
X169631292Y-88353603D01*
X169756514Y-88286671D01*
X169828097Y-88042702D01*
X169015000Y-87229605D01*
X168201903Y-88042702D01*
X167901200Y-88042702D01*
X167901200Y-87827566D01*
X168022298Y-87863097D01*
X168835395Y-87050000D01*
X169194605Y-87050000D01*
X170007702Y-87863097D01*
X170251671Y-87791514D01*
X170372571Y-87536004D01*
X170441300Y-87261816D01*
X170455217Y-86979488D01*
X170444724Y-86908665D01*
X172580000Y-86908665D01*
X172580000Y-87191335D01*
X172635147Y-87468574D01*
X172743320Y-87729727D01*
X172900363Y-87964759D01*
X173100241Y-88164637D01*
X173335273Y-88321680D01*
X173596426Y-88429853D01*
X173873665Y-88485000D01*
X174156335Y-88485000D01*
X174433574Y-88429853D01*
X174694727Y-88321680D01*
X174929759Y-88164637D01*
X175129637Y-87964759D01*
X175286680Y-87729727D01*
X175394853Y-87468574D01*
X175450000Y-87191335D01*
X175450000Y-86908665D01*
X175394853Y-86631426D01*
X175286680Y-86370273D01*
X175129637Y-86135241D01*
X174929759Y-85935363D01*
X174694727Y-85778320D01*
X174433574Y-85670147D01*
X174156335Y-85615000D01*
X173873665Y-85615000D01*
X173596426Y-85670147D01*
X173335273Y-85778320D01*
X173100241Y-85935363D01*
X172900363Y-86135241D01*
X172743320Y-86370273D01*
X172635147Y-86631426D01*
X172580000Y-86908665D01*
X170444724Y-86908665D01*
X170413787Y-86699870D01*
X170318603Y-86433708D01*
X170251671Y-86308486D01*
X170007702Y-86236903D01*
X169194605Y-87050000D01*
X168835395Y-87050000D01*
X168821253Y-87035858D01*
X169000858Y-86856253D01*
X169015000Y-86870395D01*
X169828097Y-86057298D01*
X169756514Y-85813329D01*
X169501004Y-85692429D01*
X169226816Y-85623700D01*
X168944488Y-85609783D01*
X168664870Y-85651213D01*
X168399771Y-85746017D01*
X168709589Y-85436200D01*
X174882202Y-85436200D01*
X174917128Y-85439640D01*
X174952054Y-85436200D01*
X174952064Y-85436200D01*
X175056548Y-85425909D01*
X175190609Y-85385242D01*
X175314161Y-85319202D01*
X175422455Y-85230327D01*
X175444730Y-85203185D01*
X176874717Y-83773199D01*
X176947273Y-83821680D01*
G37*
G04 #@! TD.AperFunction*
D24*
X215292068Y-62056842D02*
X215235000Y-62343740D01*
X215235000Y-62636260D01*
X215292068Y-62923158D01*
X215404010Y-63193411D01*
X215488842Y-63320371D01*
X214986810Y-63822403D01*
X214959673Y-63844674D01*
X214870798Y-63952968D01*
X214804758Y-64076520D01*
X214764091Y-64210581D01*
X214753800Y-64315065D01*
X214753800Y-64315074D01*
X214750360Y-64350000D01*
X214753800Y-64384926D01*
X214753800Y-64392998D01*
X214629916Y-64392998D01*
X214751904Y-64170961D01*
X214711246Y-64036913D01*
X214591037Y-63782580D01*
X214423519Y-63556586D01*
X214215131Y-63367615D01*
X213973881Y-63222930D01*
X213709040Y-63128091D01*
X213487000Y-63249376D01*
X213487000Y-64393000D01*
X213507000Y-64393000D01*
X213507000Y-64647000D01*
X213487000Y-64647000D01*
X213487000Y-65790624D01*
X213709040Y-65911909D01*
X213973881Y-65817070D01*
X214215131Y-65672385D01*
X214423519Y-65483414D01*
X214591037Y-65257420D01*
X214711246Y-65003087D01*
X214751904Y-64869039D01*
X214629916Y-64647002D01*
X214753800Y-64647002D01*
X214753801Y-67805411D01*
X214751054Y-67808158D01*
X214711246Y-67676913D01*
X214591037Y-67422580D01*
X214423519Y-67196586D01*
X214215131Y-67007615D01*
X213973881Y-66862930D01*
X213709040Y-66768091D01*
X213487000Y-66889376D01*
X213487000Y-68033000D01*
X213507000Y-68033000D01*
X213507000Y-68287000D01*
X213487000Y-68287000D01*
X213487000Y-68307000D01*
X213233000Y-68307000D01*
X213233000Y-68287000D01*
X212090085Y-68287000D01*
X211968096Y-68509039D01*
X212008754Y-68643087D01*
X212128963Y-68897420D01*
X212296481Y-69123414D01*
X212504869Y-69312385D01*
X212746119Y-69457070D01*
X213008841Y-69551150D01*
X212945798Y-69627968D01*
X212879758Y-69751520D01*
X212839091Y-69885581D01*
X212828800Y-69990065D01*
X212828800Y-69990074D01*
X212825360Y-70025000D01*
X212828800Y-70059926D01*
X212828801Y-77705411D01*
X209126200Y-81408013D01*
X209126200Y-67810961D01*
X211968096Y-67810961D01*
X212090085Y-68033000D01*
X213233000Y-68033000D01*
X213233000Y-66889376D01*
X213010960Y-66768091D01*
X212746119Y-66862930D01*
X212504869Y-67007615D01*
X212296481Y-67196586D01*
X212128963Y-67422580D01*
X212008754Y-67676913D01*
X211968096Y-67810961D01*
X209126200Y-67810961D01*
X209126200Y-65494587D01*
X209751748Y-64869039D01*
X211968096Y-64869039D01*
X212008754Y-65003087D01*
X212128963Y-65257420D01*
X212296481Y-65483414D01*
X212504869Y-65672385D01*
X212746119Y-65817070D01*
X213010960Y-65911909D01*
X213233000Y-65790624D01*
X213233000Y-64647000D01*
X212090085Y-64647000D01*
X211968096Y-64869039D01*
X209751748Y-64869039D01*
X210449826Y-64170961D01*
X211968096Y-64170961D01*
X212090085Y-64393000D01*
X213233000Y-64393000D01*
X213233000Y-63249376D01*
X213010960Y-63128091D01*
X212746119Y-63222930D01*
X212504869Y-63367615D01*
X212296481Y-63556586D01*
X212128963Y-63782580D01*
X212008754Y-64036913D01*
X211968096Y-64170961D01*
X210449826Y-64170961D01*
X212576176Y-62044612D01*
X215297134Y-62044612D01*
X215292068Y-62056842D01*
G04 #@! TA.AperFunction,Conductor*
D25*
G36*
X215292068Y-62056842D02*
G01*
X215235000Y-62343740D01*
X215235000Y-62636260D01*
X215292068Y-62923158D01*
X215404010Y-63193411D01*
X215488842Y-63320371D01*
X214986810Y-63822403D01*
X214959673Y-63844674D01*
X214870798Y-63952968D01*
X214804758Y-64076520D01*
X214764091Y-64210581D01*
X214753800Y-64315065D01*
X214753800Y-64315074D01*
X214750360Y-64350000D01*
X214753800Y-64384926D01*
X214753800Y-64392998D01*
X214629916Y-64392998D01*
X214751904Y-64170961D01*
X214711246Y-64036913D01*
X214591037Y-63782580D01*
X214423519Y-63556586D01*
X214215131Y-63367615D01*
X213973881Y-63222930D01*
X213709040Y-63128091D01*
X213487000Y-63249376D01*
X213487000Y-64393000D01*
X213507000Y-64393000D01*
X213507000Y-64647000D01*
X213487000Y-64647000D01*
X213487000Y-65790624D01*
X213709040Y-65911909D01*
X213973881Y-65817070D01*
X214215131Y-65672385D01*
X214423519Y-65483414D01*
X214591037Y-65257420D01*
X214711246Y-65003087D01*
X214751904Y-64869039D01*
X214629916Y-64647002D01*
X214753800Y-64647002D01*
X214753801Y-67805411D01*
X214751054Y-67808158D01*
X214711246Y-67676913D01*
X214591037Y-67422580D01*
X214423519Y-67196586D01*
X214215131Y-67007615D01*
X213973881Y-66862930D01*
X213709040Y-66768091D01*
X213487000Y-66889376D01*
X213487000Y-68033000D01*
X213507000Y-68033000D01*
X213507000Y-68287000D01*
X213487000Y-68287000D01*
X213487000Y-68307000D01*
X213233000Y-68307000D01*
X213233000Y-68287000D01*
X212090085Y-68287000D01*
X211968096Y-68509039D01*
X212008754Y-68643087D01*
X212128963Y-68897420D01*
X212296481Y-69123414D01*
X212504869Y-69312385D01*
X212746119Y-69457070D01*
X213008841Y-69551150D01*
X212945798Y-69627968D01*
X212879758Y-69751520D01*
X212839091Y-69885581D01*
X212828800Y-69990065D01*
X212828800Y-69990074D01*
X212825360Y-70025000D01*
X212828800Y-70059926D01*
X212828801Y-77705411D01*
X209126200Y-81408013D01*
X209126200Y-67810961D01*
X211968096Y-67810961D01*
X212090085Y-68033000D01*
X213233000Y-68033000D01*
X213233000Y-66889376D01*
X213010960Y-66768091D01*
X212746119Y-66862930D01*
X212504869Y-67007615D01*
X212296481Y-67196586D01*
X212128963Y-67422580D01*
X212008754Y-67676913D01*
X211968096Y-67810961D01*
X209126200Y-67810961D01*
X209126200Y-65494587D01*
X209751748Y-64869039D01*
X211968096Y-64869039D01*
X212008754Y-65003087D01*
X212128963Y-65257420D01*
X212296481Y-65483414D01*
X212504869Y-65672385D01*
X212746119Y-65817070D01*
X213010960Y-65911909D01*
X213233000Y-65790624D01*
X213233000Y-64647000D01*
X212090085Y-64647000D01*
X211968096Y-64869039D01*
X209751748Y-64869039D01*
X210449826Y-64170961D01*
X211968096Y-64170961D01*
X212090085Y-64393000D01*
X213233000Y-64393000D01*
X213233000Y-63249376D01*
X213010960Y-63128091D01*
X212746119Y-63222930D01*
X212504869Y-63367615D01*
X212296481Y-63556586D01*
X212128963Y-63782580D01*
X212008754Y-64036913D01*
X211968096Y-64170961D01*
X210449826Y-64170961D01*
X212576176Y-62044612D01*
X215297134Y-62044612D01*
X215292068Y-62056842D01*
G37*
G04 #@! TD.AperFunction*
M02*
