%FSLAX45Y45*%
G04 Gerber Fmt 4.5, Leading zero omitted, Abs format (unit mm)*
G04 Created by KiCad (PCBNEW (5.1.9)-1) date 2023-05-10 16:33:02*
%MOMM*%
%LPD*%
G01*
G04 APERTURE LIST*
%TA.AperFunction,Profile*%
%ADD10C,0.050000*%
%TD*%
%ADD11C,0.200000*%
%ADD12C,0.300000*%
G04 APERTURE END LIST*
D10*
X13487000Y-8719000D02*
X14606000Y-8719000D01*
X13487000Y-3689000D02*
X13487000Y-8719000D01*
X22180000Y-8925000D02*
X22180000Y-11999000D01*
X14606000Y-11999000D02*
X14606000Y-8719000D01*
X22180000Y-3689000D02*
X22180000Y-8925000D01*
X14606000Y-11999000D02*
X22180000Y-11999000D01*
X13487000Y-3689000D02*
X22180000Y-3689000D01*
D11*
X14635800Y-4221800D02*
X14675800Y-4261800D01*
X14675800Y-4221800D02*
X14635800Y-4261800D01*
X17126600Y-4196400D02*
X17166600Y-4236400D01*
X17166600Y-4196400D02*
X17126600Y-4236400D01*
X17243000Y-5255000D02*
X17283000Y-5295000D01*
X17283000Y-5255000D02*
X17243000Y-5295000D01*
X18199861Y-5768279D02*
X18239861Y-5808279D01*
X18239861Y-5768279D02*
X18199861Y-5808279D01*
X20731800Y-5288600D02*
X20771800Y-5328600D01*
X20771800Y-5288600D02*
X20731800Y-5328600D01*
X20960400Y-4247200D02*
X21000400Y-4287200D01*
X21000400Y-4247200D02*
X20960400Y-4287200D01*
X21351855Y-5794994D02*
X21391855Y-5834994D01*
X21391855Y-5794994D02*
X21351855Y-5834994D01*
X14866900Y-8932500D02*
G75*
G03*
X14866900Y-8932500I-25400J0D01*
G01*
X15897400Y-6562000D02*
G75*
G03*
X15897400Y-6562000I-25400J0D01*
G01*
X21039400Y-7892500D02*
G75*
G03*
X21039400Y-7892500I-25400J0D01*
G01*
X21296900Y-8285000D02*
G75*
G03*
X21296900Y-8285000I-25400J0D01*
G01*
X13842400Y-6270500D02*
X13842400Y-6345500D01*
X13804900Y-6308000D02*
X13879900Y-6308000D01*
X13842400Y-6397500D02*
X13842400Y-6472500D01*
X13804900Y-6435000D02*
X13879900Y-6435000D01*
X13842400Y-6524500D02*
X13842400Y-6599500D01*
X13804900Y-6562000D02*
X13879900Y-6562000D01*
X14652933Y-6270500D02*
X14652933Y-6345500D01*
X14615433Y-6308000D02*
X14690433Y-6308000D01*
X14652933Y-6397500D02*
X14652933Y-6472500D01*
X14615433Y-6435000D02*
X14690433Y-6435000D01*
X14652933Y-6524500D02*
X14652933Y-6599500D01*
X14615433Y-6562000D02*
X14690433Y-6562000D01*
X17500600Y-6270500D02*
X17500600Y-6345500D01*
X17463100Y-6308000D02*
X17538100Y-6308000D01*
X17500600Y-6397500D02*
X17500600Y-6472500D01*
X17463100Y-6435000D02*
X17538100Y-6435000D01*
X17500600Y-6524500D02*
X17500600Y-6599500D01*
X17463100Y-6562000D02*
X17538100Y-6562000D01*
X18316600Y-6270500D02*
X18316600Y-6345500D01*
X18279100Y-6308000D02*
X18354100Y-6308000D01*
X18316600Y-6397500D02*
X18316600Y-6472500D01*
X18279100Y-6435000D02*
X18354100Y-6435000D01*
X18316600Y-6524500D02*
X18316600Y-6599500D01*
X18279100Y-6562000D02*
X18354100Y-6562000D01*
X19121067Y-6270500D02*
X19121067Y-6345500D01*
X19083567Y-6308000D02*
X19158567Y-6308000D01*
X19121067Y-6397500D02*
X19121067Y-6472500D01*
X19083567Y-6435000D02*
X19158567Y-6435000D01*
X19121067Y-6524500D02*
X19121067Y-6599500D01*
X19083567Y-6562000D02*
X19158567Y-6562000D01*
X19931600Y-6270500D02*
X19931600Y-6345500D01*
X19894100Y-6308000D02*
X19969100Y-6308000D01*
X19931600Y-6397500D02*
X19931600Y-6472500D01*
X19894100Y-6435000D02*
X19969100Y-6435000D01*
X19931600Y-6524500D02*
X19931600Y-6599500D01*
X19894100Y-6562000D02*
X19969100Y-6562000D01*
X13722284Y-4007084D02*
X13722284Y-3950515D01*
X13665715Y-3950515D01*
X13665715Y-4007084D01*
X13722284Y-4007084D01*
X13722284Y-5531085D02*
X13722284Y-5474516D01*
X13665715Y-5474516D01*
X13665715Y-5531085D01*
X13722284Y-5531085D01*
X13836684Y-7521284D02*
X13836684Y-7464715D01*
X13780115Y-7464715D01*
X13780115Y-7521284D01*
X13836684Y-7521284D01*
X13836684Y-8283284D02*
X13836684Y-8226715D01*
X13780115Y-8226715D01*
X13780115Y-8283284D01*
X13836684Y-8283284D01*
X13976284Y-4007084D02*
X13976284Y-3950515D01*
X13919715Y-3950515D01*
X13919715Y-4007084D01*
X13976284Y-4007084D01*
X13976284Y-5531085D02*
X13976284Y-5474516D01*
X13919715Y-5474516D01*
X13919715Y-5531085D01*
X13976284Y-5531085D01*
X14090684Y-7521284D02*
X14090684Y-7464715D01*
X14034115Y-7464715D01*
X14034115Y-7521284D01*
X14090684Y-7521284D01*
X14090684Y-8283284D02*
X14090684Y-8226715D01*
X14034115Y-8226715D01*
X14034115Y-8283284D01*
X14090684Y-8283284D01*
X14230284Y-4007084D02*
X14230284Y-3950515D01*
X14173715Y-3950515D01*
X14173715Y-4007084D01*
X14230284Y-4007084D01*
X14230284Y-5531085D02*
X14230284Y-5474516D01*
X14173715Y-5474516D01*
X14173715Y-5531085D01*
X14230284Y-5531085D01*
X14234684Y-6257284D02*
X14234684Y-6200715D01*
X14178115Y-6200715D01*
X14178115Y-6257284D01*
X14234684Y-6257284D01*
X14234684Y-7019284D02*
X14234684Y-6962715D01*
X14178115Y-6962715D01*
X14178115Y-7019284D01*
X14234684Y-7019284D01*
X14344684Y-7521284D02*
X14344684Y-7464715D01*
X14288115Y-7464715D01*
X14288115Y-7521284D01*
X14344684Y-7521284D01*
X14344684Y-8283284D02*
X14344684Y-8226715D01*
X14288115Y-8226715D01*
X14288115Y-8283284D01*
X14344684Y-8283284D01*
X14484284Y-4007084D02*
X14484284Y-3950515D01*
X14427715Y-3950515D01*
X14427715Y-4007084D01*
X14484284Y-4007084D01*
X14484284Y-5531085D02*
X14484284Y-5474516D01*
X14427715Y-5474516D01*
X14427715Y-5531085D01*
X14484284Y-5531085D01*
X14598684Y-7521284D02*
X14598684Y-7464715D01*
X14542115Y-7464715D01*
X14542115Y-7521284D01*
X14598684Y-7521284D01*
X14598684Y-8283284D02*
X14598684Y-8226715D01*
X14542115Y-8226715D01*
X14542115Y-8283284D01*
X14598684Y-8283284D01*
X14738284Y-4007084D02*
X14738284Y-3950515D01*
X14681715Y-3950515D01*
X14681715Y-4007084D01*
X14738284Y-4007084D01*
X14738284Y-5531085D02*
X14738284Y-5474516D01*
X14681715Y-5474516D01*
X14681715Y-5531085D01*
X14738284Y-5531085D01*
X14852684Y-7521284D02*
X14852684Y-7464715D01*
X14796115Y-7464715D01*
X14796115Y-7521284D01*
X14852684Y-7521284D01*
X14852684Y-8283284D02*
X14852684Y-8226715D01*
X14796115Y-8226715D01*
X14796115Y-8283284D01*
X14852684Y-8283284D01*
X14992284Y-4007084D02*
X14992284Y-3950515D01*
X14935715Y-3950515D01*
X14935715Y-4007084D01*
X14992284Y-4007084D01*
X14992284Y-5531085D02*
X14992284Y-5474516D01*
X14935715Y-5474516D01*
X14935715Y-5531085D01*
X14992284Y-5531085D01*
X15045218Y-6257284D02*
X15045218Y-6200715D01*
X14988649Y-6200715D01*
X14988649Y-6257284D01*
X15045218Y-6257284D01*
X15045218Y-7019284D02*
X15045218Y-6962715D01*
X14988649Y-6962715D01*
X14988649Y-7019284D01*
X15045218Y-7019284D01*
X15090484Y-9096085D02*
X15090484Y-9039516D01*
X15033915Y-9039516D01*
X15033915Y-9096085D01*
X15090484Y-9096085D01*
X15090484Y-9350085D02*
X15090484Y-9293516D01*
X15033915Y-9293516D01*
X15033915Y-9350085D01*
X15090484Y-9350085D01*
X15090484Y-9604085D02*
X15090484Y-9547516D01*
X15033915Y-9547516D01*
X15033915Y-9604085D01*
X15090484Y-9604085D01*
X15090484Y-9858085D02*
X15090484Y-9801516D01*
X15033915Y-9801516D01*
X15033915Y-9858085D01*
X15090484Y-9858085D01*
X15090484Y-10112085D02*
X15090484Y-10055516D01*
X15033915Y-10055516D01*
X15033915Y-10112085D01*
X15090484Y-10112085D01*
X15090484Y-10366085D02*
X15090484Y-10309516D01*
X15033915Y-10309516D01*
X15033915Y-10366085D01*
X15090484Y-10366085D01*
X15090484Y-10620085D02*
X15090484Y-10563516D01*
X15033915Y-10563516D01*
X15033915Y-10620085D01*
X15090484Y-10620085D01*
X15090484Y-10874085D02*
X15090484Y-10817516D01*
X15033915Y-10817516D01*
X15033915Y-10874085D01*
X15090484Y-10874085D01*
X15090484Y-11128085D02*
X15090484Y-11071516D01*
X15033915Y-11071516D01*
X15033915Y-11128085D01*
X15090484Y-11128085D01*
X15090484Y-11382084D02*
X15090484Y-11325515D01*
X15033915Y-11325515D01*
X15033915Y-11382084D01*
X15090484Y-11382084D01*
X15106684Y-7521284D02*
X15106684Y-7464715D01*
X15050115Y-7464715D01*
X15050115Y-7521284D01*
X15106684Y-7521284D01*
X15106684Y-8283284D02*
X15106684Y-8226715D01*
X15050115Y-8226715D01*
X15050115Y-8283284D01*
X15106684Y-8283284D01*
X15246284Y-4007084D02*
X15246284Y-3950515D01*
X15189715Y-3950515D01*
X15189715Y-4007084D01*
X15246284Y-4007084D01*
X15246284Y-5531085D02*
X15246284Y-5474516D01*
X15189715Y-5474516D01*
X15189715Y-5531085D01*
X15246284Y-5531085D01*
X15344484Y-6480284D02*
X15344484Y-6423715D01*
X15287915Y-6423715D01*
X15287915Y-6480284D01*
X15344484Y-6480284D01*
X15344484Y-6844284D02*
X15344484Y-6787715D01*
X15287915Y-6787715D01*
X15287915Y-6844284D01*
X15344484Y-6844284D01*
X15360684Y-7521284D02*
X15360684Y-7464715D01*
X15304115Y-7464715D01*
X15304115Y-7521284D01*
X15360684Y-7521284D01*
X15360684Y-8283284D02*
X15360684Y-8226715D01*
X15304115Y-8226715D01*
X15304115Y-8283284D01*
X15360684Y-8283284D01*
X15500284Y-4007084D02*
X15500284Y-3950515D01*
X15443715Y-3950515D01*
X15443715Y-4007084D01*
X15500284Y-4007084D01*
X15500284Y-5531085D02*
X15500284Y-5474516D01*
X15443715Y-5474516D01*
X15443715Y-5531085D01*
X15500284Y-5531085D01*
X15614684Y-7521284D02*
X15614684Y-7464715D01*
X15558115Y-7464715D01*
X15558115Y-7521284D01*
X15614684Y-7521284D01*
X15614684Y-8283284D02*
X15614684Y-8226715D01*
X15558115Y-8226715D01*
X15558115Y-8283284D01*
X15614684Y-8283284D01*
X15754284Y-4007084D02*
X15754284Y-3950515D01*
X15697715Y-3950515D01*
X15697715Y-4007084D01*
X15754284Y-4007084D01*
X15754284Y-5531085D02*
X15754284Y-5474516D01*
X15697715Y-5474516D01*
X15697715Y-5531085D01*
X15754284Y-5531085D01*
X15852484Y-8733285D02*
X15852484Y-8676716D01*
X15795915Y-8676716D01*
X15795915Y-8733285D01*
X15852484Y-8733285D01*
X15852484Y-9096085D02*
X15852484Y-9039516D01*
X15795915Y-9039516D01*
X15795915Y-9096085D01*
X15852484Y-9096085D01*
X15852484Y-9350085D02*
X15852484Y-9293516D01*
X15795915Y-9293516D01*
X15795915Y-9350085D01*
X15852484Y-9350085D01*
X15852484Y-9604085D02*
X15852484Y-9547516D01*
X15795915Y-9547516D01*
X15795915Y-9604085D01*
X15852484Y-9604085D01*
X15852484Y-9858085D02*
X15852484Y-9801516D01*
X15795915Y-9801516D01*
X15795915Y-9858085D01*
X15852484Y-9858085D01*
X15852484Y-10112085D02*
X15852484Y-10055516D01*
X15795915Y-10055516D01*
X15795915Y-10112085D01*
X15852484Y-10112085D01*
X15852484Y-10366085D02*
X15852484Y-10309516D01*
X15795915Y-10309516D01*
X15795915Y-10366085D01*
X15852484Y-10366085D01*
X15852484Y-10620085D02*
X15852484Y-10563516D01*
X15795915Y-10563516D01*
X15795915Y-10620085D01*
X15852484Y-10620085D01*
X15852484Y-10874085D02*
X15852484Y-10817516D01*
X15795915Y-10817516D01*
X15795915Y-10874085D01*
X15852484Y-10874085D01*
X15852484Y-11128085D02*
X15852484Y-11071516D01*
X15795915Y-11071516D01*
X15795915Y-11128085D01*
X15852484Y-11128085D01*
X15852484Y-11382084D02*
X15852484Y-11325515D01*
X15795915Y-11325515D01*
X15795915Y-11382084D01*
X15852484Y-11382084D01*
X16008284Y-4007084D02*
X16008284Y-3950515D01*
X15951715Y-3950515D01*
X15951715Y-4007084D01*
X16008284Y-4007084D01*
X16008284Y-5531085D02*
X16008284Y-5474516D01*
X15951715Y-5474516D01*
X15951715Y-5531085D01*
X16008284Y-5531085D01*
X16106484Y-6480284D02*
X16106484Y-6423715D01*
X16049915Y-6423715D01*
X16049915Y-6480284D01*
X16106484Y-6480284D01*
X16106484Y-6844284D02*
X16106484Y-6787715D01*
X16049915Y-6787715D01*
X16049915Y-6844284D01*
X16106484Y-6844284D01*
X16262284Y-4007084D02*
X16262284Y-3950515D01*
X16205715Y-3950515D01*
X16205715Y-4007084D01*
X16262284Y-4007084D01*
X16262284Y-5531085D02*
X16262284Y-5474516D01*
X16205715Y-5474516D01*
X16205715Y-5531085D01*
X16262284Y-5531085D01*
X16266984Y-7521284D02*
X16266984Y-7464715D01*
X16210415Y-7464715D01*
X16210415Y-7521284D01*
X16266984Y-7521284D01*
X16266984Y-8283284D02*
X16266984Y-8226715D01*
X16210415Y-8226715D01*
X16210415Y-8283284D01*
X16266984Y-8283284D01*
X16335084Y-6480284D02*
X16335084Y-6423715D01*
X16278515Y-6423715D01*
X16278515Y-6480284D01*
X16335084Y-6480284D01*
X16335084Y-6844284D02*
X16335084Y-6787715D01*
X16278515Y-6787715D01*
X16278515Y-6844284D01*
X16335084Y-6844284D01*
X16352484Y-8733285D02*
X16352484Y-8676716D01*
X16295915Y-8676716D01*
X16295915Y-8733285D01*
X16352484Y-8733285D01*
X16385884Y-9096085D02*
X16385884Y-9039516D01*
X16329315Y-9039516D01*
X16329315Y-9096085D01*
X16385884Y-9096085D01*
X16385884Y-9350085D02*
X16385884Y-9293516D01*
X16329315Y-9293516D01*
X16329315Y-9350085D01*
X16385884Y-9350085D01*
X16385884Y-9604085D02*
X16385884Y-9547516D01*
X16329315Y-9547516D01*
X16329315Y-9604085D01*
X16385884Y-9604085D01*
X16385884Y-9858085D02*
X16385884Y-9801516D01*
X16329315Y-9801516D01*
X16329315Y-9858085D01*
X16385884Y-9858085D01*
X16385884Y-10112085D02*
X16385884Y-10055516D01*
X16329315Y-10055516D01*
X16329315Y-10112085D01*
X16385884Y-10112085D01*
X16385884Y-10366085D02*
X16385884Y-10309516D01*
X16329315Y-10309516D01*
X16329315Y-10366085D01*
X16385884Y-10366085D01*
X16385884Y-10620085D02*
X16385884Y-10563516D01*
X16329315Y-10563516D01*
X16329315Y-10620085D01*
X16385884Y-10620085D01*
X16385884Y-10874085D02*
X16385884Y-10817516D01*
X16329315Y-10817516D01*
X16329315Y-10874085D01*
X16385884Y-10874085D01*
X16385884Y-11128085D02*
X16385884Y-11071516D01*
X16329315Y-11071516D01*
X16329315Y-11128085D01*
X16385884Y-11128085D01*
X16385884Y-11382084D02*
X16385884Y-11325515D01*
X16329315Y-11325515D01*
X16329315Y-11382084D01*
X16385884Y-11382084D01*
X16516284Y-4007084D02*
X16516284Y-3950515D01*
X16459715Y-3950515D01*
X16459715Y-4007084D01*
X16516284Y-4007084D01*
X16516284Y-5531085D02*
X16516284Y-5474516D01*
X16459715Y-5474516D01*
X16459715Y-5531085D01*
X16516284Y-5531085D01*
X16520984Y-7521284D02*
X16520984Y-7464715D01*
X16464415Y-7464715D01*
X16464415Y-7521284D01*
X16520984Y-7521284D01*
X16520984Y-8283284D02*
X16520984Y-8226715D01*
X16464415Y-8226715D01*
X16464415Y-8283284D01*
X16520984Y-8283284D01*
X16770284Y-4007084D02*
X16770284Y-3950515D01*
X16713715Y-3950515D01*
X16713715Y-4007084D01*
X16770284Y-4007084D01*
X16770284Y-5531085D02*
X16770284Y-5474516D01*
X16713715Y-5474516D01*
X16713715Y-5531085D01*
X16770284Y-5531085D01*
X16774984Y-7521284D02*
X16774984Y-7464715D01*
X16718415Y-7464715D01*
X16718415Y-7521284D01*
X16774984Y-7521284D01*
X16774984Y-8283284D02*
X16774984Y-8226715D01*
X16718415Y-8226715D01*
X16718415Y-8283284D01*
X16774984Y-8283284D01*
X16929785Y-8733285D02*
X16929785Y-8676716D01*
X16873216Y-8676716D01*
X16873216Y-8733285D01*
X16929785Y-8733285D01*
X17024285Y-4007084D02*
X17024285Y-3950515D01*
X16967716Y-3950515D01*
X16967716Y-4007084D01*
X17024285Y-4007084D01*
X17024285Y-5531085D02*
X17024285Y-5474516D01*
X16967716Y-5474516D01*
X16967716Y-5531085D01*
X17024285Y-5531085D01*
X17028985Y-7521284D02*
X17028985Y-7464715D01*
X16972416Y-7464715D01*
X16972416Y-7521284D01*
X17028985Y-7521284D01*
X17028985Y-8283284D02*
X17028985Y-8226715D01*
X16972416Y-8226715D01*
X16972416Y-8283284D01*
X17028985Y-8283284D01*
X17097085Y-6480284D02*
X17097085Y-6423715D01*
X17040516Y-6423715D01*
X17040516Y-6480284D01*
X17097085Y-6480284D01*
X17097085Y-6844284D02*
X17097085Y-6787715D01*
X17040516Y-6787715D01*
X17040516Y-6844284D01*
X17097085Y-6844284D01*
X17147885Y-9096085D02*
X17147885Y-9039516D01*
X17091316Y-9039516D01*
X17091316Y-9096085D01*
X17147885Y-9096085D01*
X17147885Y-9350085D02*
X17147885Y-9293516D01*
X17091316Y-9293516D01*
X17091316Y-9350085D01*
X17147885Y-9350085D01*
X17147885Y-9604085D02*
X17147885Y-9547516D01*
X17091316Y-9547516D01*
X17091316Y-9604085D01*
X17147885Y-9604085D01*
X17147885Y-9858085D02*
X17147885Y-9801516D01*
X17091316Y-9801516D01*
X17091316Y-9858085D01*
X17147885Y-9858085D01*
X17147885Y-10112085D02*
X17147885Y-10055516D01*
X17091316Y-10055516D01*
X17091316Y-10112085D01*
X17147885Y-10112085D01*
X17147885Y-10366085D02*
X17147885Y-10309516D01*
X17091316Y-10309516D01*
X17091316Y-10366085D01*
X17147885Y-10366085D01*
X17147885Y-10620085D02*
X17147885Y-10563516D01*
X17091316Y-10563516D01*
X17091316Y-10620085D01*
X17147885Y-10620085D01*
X17147885Y-10874085D02*
X17147885Y-10817516D01*
X17091316Y-10817516D01*
X17091316Y-10874085D01*
X17147885Y-10874085D01*
X17147885Y-11128085D02*
X17147885Y-11071516D01*
X17091316Y-11071516D01*
X17091316Y-11128085D01*
X17147885Y-11128085D01*
X17147885Y-11382084D02*
X17147885Y-11325515D01*
X17091316Y-11325515D01*
X17091316Y-11382084D01*
X17147885Y-11382084D01*
X17278285Y-4007084D02*
X17278285Y-3950515D01*
X17221716Y-3950515D01*
X17221716Y-4007084D01*
X17278285Y-4007084D01*
X17278285Y-5531085D02*
X17278285Y-5474516D01*
X17221716Y-5474516D01*
X17221716Y-5531085D01*
X17278285Y-5531085D01*
X17282985Y-7521284D02*
X17282985Y-7464715D01*
X17226416Y-7464715D01*
X17226416Y-7521284D01*
X17282985Y-7521284D01*
X17282985Y-8283284D02*
X17282985Y-8226715D01*
X17226416Y-8226715D01*
X17226416Y-8283284D01*
X17282985Y-8283284D01*
X17429785Y-8733285D02*
X17429785Y-8676716D01*
X17373216Y-8676716D01*
X17373216Y-8733285D01*
X17429785Y-8733285D01*
X17532285Y-4007084D02*
X17532285Y-3950515D01*
X17475716Y-3950515D01*
X17475716Y-4007084D01*
X17532285Y-4007084D01*
X17532285Y-5531085D02*
X17532285Y-5474516D01*
X17475716Y-5474516D01*
X17475716Y-5531085D01*
X17532285Y-5531085D01*
X17536985Y-7521284D02*
X17536985Y-7464715D01*
X17480416Y-7464715D01*
X17480416Y-7521284D01*
X17536985Y-7521284D01*
X17536985Y-8283284D02*
X17536985Y-8226715D01*
X17480416Y-8226715D01*
X17480416Y-8283284D01*
X17536985Y-8283284D01*
X17784785Y-10880785D02*
X17784785Y-10824216D01*
X17728216Y-10824216D01*
X17728216Y-10880785D01*
X17784785Y-10880785D01*
X17784785Y-11380784D02*
X17784785Y-11324215D01*
X17728216Y-11324215D01*
X17728216Y-11380784D01*
X17784785Y-11380784D01*
X17786285Y-4007084D02*
X17786285Y-3950515D01*
X17729716Y-3950515D01*
X17729716Y-4007084D01*
X17786285Y-4007084D01*
X17786285Y-5531085D02*
X17786285Y-5474516D01*
X17729716Y-5474516D01*
X17729716Y-5531085D01*
X17786285Y-5531085D01*
X17790985Y-7521284D02*
X17790985Y-7464715D01*
X17734416Y-7464715D01*
X17734416Y-7521284D01*
X17790985Y-7521284D01*
X17790985Y-8283284D02*
X17790985Y-8226715D01*
X17734416Y-8226715D01*
X17734416Y-8283284D01*
X17790985Y-8283284D01*
X17892885Y-6257284D02*
X17892885Y-6200715D01*
X17836316Y-6200715D01*
X17836316Y-6257284D01*
X17892885Y-6257284D01*
X17892885Y-7019284D02*
X17892885Y-6962715D01*
X17836316Y-6962715D01*
X17836316Y-7019284D01*
X17892885Y-7019284D01*
X18040285Y-4007084D02*
X18040285Y-3950515D01*
X17983716Y-3950515D01*
X17983716Y-4007084D01*
X18040285Y-4007084D01*
X18040285Y-5531085D02*
X18040285Y-5474516D01*
X17983716Y-5474516D01*
X17983716Y-5531085D01*
X18040285Y-5531085D01*
X18044985Y-7521284D02*
X18044985Y-7464715D01*
X17988416Y-7464715D01*
X17988416Y-7521284D01*
X18044985Y-7521284D01*
X18044985Y-8283284D02*
X18044985Y-8226715D01*
X17988416Y-8226715D01*
X17988416Y-8283284D01*
X18044985Y-8283284D01*
X18138485Y-9096085D02*
X18138485Y-9039516D01*
X18081916Y-9039516D01*
X18081916Y-9096085D01*
X18138485Y-9096085D01*
X18138485Y-9350085D02*
X18138485Y-9293516D01*
X18081916Y-9293516D01*
X18081916Y-9350085D01*
X18138485Y-9350085D01*
X18138485Y-9604085D02*
X18138485Y-9547516D01*
X18081916Y-9547516D01*
X18081916Y-9604085D01*
X18138485Y-9604085D01*
X18138485Y-9858085D02*
X18138485Y-9801516D01*
X18081916Y-9801516D01*
X18081916Y-9858085D01*
X18138485Y-9858085D01*
X18138485Y-10112085D02*
X18138485Y-10055516D01*
X18081916Y-10055516D01*
X18081916Y-10112085D01*
X18138485Y-10112085D01*
X18138485Y-10366085D02*
X18138485Y-10309516D01*
X18081916Y-10309516D01*
X18081916Y-10366085D01*
X18138485Y-10366085D01*
X18138485Y-10620085D02*
X18138485Y-10563516D01*
X18081916Y-10563516D01*
X18081916Y-10620085D01*
X18138485Y-10620085D01*
X18138485Y-10874085D02*
X18138485Y-10817516D01*
X18081916Y-10817516D01*
X18081916Y-10874085D01*
X18138485Y-10874085D01*
X18138485Y-11128085D02*
X18138485Y-11071516D01*
X18081916Y-11071516D01*
X18081916Y-11128085D01*
X18138485Y-11128085D01*
X18138485Y-11382084D02*
X18138485Y-11325515D01*
X18081916Y-11325515D01*
X18081916Y-11382084D01*
X18138485Y-11382084D01*
X18294285Y-4007084D02*
X18294285Y-3950515D01*
X18237716Y-3950515D01*
X18237716Y-4007084D01*
X18294285Y-4007084D01*
X18294285Y-5531085D02*
X18294285Y-5474516D01*
X18237716Y-5474516D01*
X18237716Y-5531085D01*
X18294285Y-5531085D01*
X18548285Y-4007084D02*
X18548285Y-3950515D01*
X18491716Y-3950515D01*
X18491716Y-4007084D01*
X18548285Y-4007084D01*
X18548285Y-5531085D02*
X18548285Y-5474516D01*
X18491716Y-5474516D01*
X18491716Y-5531085D01*
X18548285Y-5531085D01*
X18697285Y-7521284D02*
X18697285Y-7464715D01*
X18640716Y-7464715D01*
X18640716Y-7521284D01*
X18697285Y-7521284D01*
X18697285Y-8283284D02*
X18697285Y-8226715D01*
X18640716Y-8226715D01*
X18640716Y-8283284D01*
X18697285Y-8283284D01*
X18708885Y-6257284D02*
X18708885Y-6200715D01*
X18652316Y-6200715D01*
X18652316Y-6257284D01*
X18708885Y-6257284D01*
X18708885Y-7019284D02*
X18708885Y-6962715D01*
X18652316Y-6962715D01*
X18652316Y-7019284D01*
X18708885Y-7019284D01*
X18900485Y-9096085D02*
X18900485Y-9039516D01*
X18843916Y-9039516D01*
X18843916Y-9096085D01*
X18900485Y-9096085D01*
X18900485Y-9350085D02*
X18900485Y-9293516D01*
X18843916Y-9293516D01*
X18843916Y-9350085D01*
X18900485Y-9350085D01*
X18900485Y-9604085D02*
X18900485Y-9547516D01*
X18843916Y-9547516D01*
X18843916Y-9604085D01*
X18900485Y-9604085D01*
X18900485Y-9858085D02*
X18900485Y-9801516D01*
X18843916Y-9801516D01*
X18843916Y-9858085D01*
X18900485Y-9858085D01*
X18900485Y-10112085D02*
X18900485Y-10055516D01*
X18843916Y-10055516D01*
X18843916Y-10112085D01*
X18900485Y-10112085D01*
X18900485Y-10366085D02*
X18900485Y-10309516D01*
X18843916Y-10309516D01*
X18843916Y-10366085D01*
X18900485Y-10366085D01*
X18900485Y-10620085D02*
X18900485Y-10563516D01*
X18843916Y-10563516D01*
X18843916Y-10620085D01*
X18900485Y-10620085D01*
X18900485Y-10874085D02*
X18900485Y-10817516D01*
X18843916Y-10817516D01*
X18843916Y-10874085D01*
X18900485Y-10874085D01*
X18900485Y-11128085D02*
X18900485Y-11071516D01*
X18843916Y-11071516D01*
X18843916Y-11128085D01*
X18900485Y-11128085D01*
X18900485Y-11382084D02*
X18900485Y-11325515D01*
X18843916Y-11325515D01*
X18843916Y-11382084D01*
X18900485Y-11382084D01*
X18951285Y-7521284D02*
X18951285Y-7464715D01*
X18894716Y-7464715D01*
X18894716Y-7521284D01*
X18951285Y-7521284D01*
X18951285Y-8283284D02*
X18951285Y-8226715D01*
X18894716Y-8226715D01*
X18894716Y-8283284D01*
X18951285Y-8283284D01*
X19205285Y-7521284D02*
X19205285Y-7464715D01*
X19148716Y-7464715D01*
X19148716Y-7521284D01*
X19205285Y-7521284D01*
X19205285Y-8283284D02*
X19205285Y-8226715D01*
X19148716Y-8226715D01*
X19148716Y-8283284D01*
X19205285Y-8283284D01*
X19459285Y-7521284D02*
X19459285Y-7464715D01*
X19402716Y-7464715D01*
X19402716Y-7521284D01*
X19459285Y-7521284D01*
X19459285Y-8283284D02*
X19459285Y-8226715D01*
X19402716Y-8226715D01*
X19402716Y-8283284D01*
X19459285Y-8283284D01*
X19513351Y-6257284D02*
X19513351Y-6200715D01*
X19456782Y-6200715D01*
X19456782Y-6257284D01*
X19513351Y-6257284D01*
X19513351Y-7019284D02*
X19513351Y-6962715D01*
X19456782Y-6962715D01*
X19456782Y-7019284D01*
X19513351Y-7019284D01*
X19557285Y-9403285D02*
X19557285Y-9346716D01*
X19500716Y-9346716D01*
X19500716Y-9403285D01*
X19557285Y-9403285D01*
X19557285Y-9903285D02*
X19557285Y-9846716D01*
X19500716Y-9846716D01*
X19500716Y-9903285D01*
X19557285Y-9903285D01*
X19557285Y-10243285D02*
X19557285Y-10186716D01*
X19500716Y-10186716D01*
X19500716Y-10243285D01*
X19557285Y-10243285D01*
X19557285Y-10580785D02*
X19557285Y-10524216D01*
X19500716Y-10524216D01*
X19500716Y-10580785D01*
X19557285Y-10580785D01*
X19702085Y-4032484D02*
X19702085Y-3975915D01*
X19645516Y-3975915D01*
X19645516Y-4032484D01*
X19702085Y-4032484D01*
X19702085Y-5556485D02*
X19702085Y-5499916D01*
X19645516Y-5499916D01*
X19645516Y-5556485D01*
X19702085Y-5556485D01*
X19713285Y-7521284D02*
X19713285Y-7464715D01*
X19656716Y-7464715D01*
X19656716Y-7521284D01*
X19713285Y-7521284D01*
X19713285Y-8283284D02*
X19713285Y-8226715D01*
X19656716Y-8226715D01*
X19656716Y-8283284D01*
X19713285Y-8283284D01*
X19932285Y-9096085D02*
X19932285Y-9039516D01*
X19875716Y-9039516D01*
X19875716Y-9096085D01*
X19932285Y-9096085D01*
X19932285Y-9350085D02*
X19932285Y-9293516D01*
X19875716Y-9293516D01*
X19875716Y-9350085D01*
X19932285Y-9350085D01*
X19932285Y-9604085D02*
X19932285Y-9547516D01*
X19875716Y-9547516D01*
X19875716Y-9604085D01*
X19932285Y-9604085D01*
X19932285Y-9858085D02*
X19932285Y-9801516D01*
X19875716Y-9801516D01*
X19875716Y-9858085D01*
X19932285Y-9858085D01*
X19956085Y-4032484D02*
X19956085Y-3975915D01*
X19899516Y-3975915D01*
X19899516Y-4032484D01*
X19956085Y-4032484D01*
X19956085Y-5556485D02*
X19956085Y-5499916D01*
X19899516Y-5499916D01*
X19899516Y-5556485D01*
X19956085Y-5556485D01*
X19967285Y-7521284D02*
X19967285Y-7464715D01*
X19910716Y-7464715D01*
X19910716Y-7521284D01*
X19967285Y-7521284D01*
X19967285Y-8283284D02*
X19967285Y-8226715D01*
X19910716Y-8226715D01*
X19910716Y-8283284D01*
X19967285Y-8283284D01*
X20210085Y-4032484D02*
X20210085Y-3975915D01*
X20153516Y-3975915D01*
X20153516Y-4032484D01*
X20210085Y-4032484D01*
X20210085Y-5556485D02*
X20210085Y-5499916D01*
X20153516Y-5499916D01*
X20153516Y-5556485D01*
X20210085Y-5556485D01*
X20221285Y-7521284D02*
X20221285Y-7464715D01*
X20164716Y-7464715D01*
X20164716Y-7521284D01*
X20221285Y-7521284D01*
X20221285Y-8283284D02*
X20221285Y-8226715D01*
X20164716Y-8226715D01*
X20164716Y-8283284D01*
X20221285Y-8283284D01*
X20319285Y-10243285D02*
X20319285Y-10186716D01*
X20262716Y-10186716D01*
X20262716Y-10243285D01*
X20319285Y-10243285D01*
X20319285Y-10580785D02*
X20319285Y-10524216D01*
X20262716Y-10524216D01*
X20262716Y-10580785D01*
X20319285Y-10580785D01*
X20323885Y-6257284D02*
X20323885Y-6200715D01*
X20267316Y-6200715D01*
X20267316Y-6257284D01*
X20323885Y-6257284D01*
X20323885Y-7019284D02*
X20323885Y-6962715D01*
X20267316Y-6962715D01*
X20267316Y-7019284D01*
X20323885Y-7019284D01*
X20464085Y-4032484D02*
X20464085Y-3975915D01*
X20407516Y-3975915D01*
X20407516Y-4032484D01*
X20464085Y-4032484D01*
X20464085Y-5556485D02*
X20464085Y-5499916D01*
X20407516Y-5499916D01*
X20407516Y-5556485D01*
X20464085Y-5556485D01*
X20475285Y-7521284D02*
X20475285Y-7464715D01*
X20418716Y-7464715D01*
X20418716Y-7521284D01*
X20475285Y-7521284D01*
X20475285Y-8283284D02*
X20475285Y-8226715D01*
X20418716Y-8226715D01*
X20418716Y-8283284D01*
X20475285Y-8283284D01*
X20602285Y-6480284D02*
X20602285Y-6423715D01*
X20545716Y-6423715D01*
X20545716Y-6480284D01*
X20602285Y-6480284D01*
X20602285Y-6844284D02*
X20602285Y-6787715D01*
X20545716Y-6787715D01*
X20545716Y-6844284D01*
X20602285Y-6844284D01*
X20694285Y-9096085D02*
X20694285Y-9039516D01*
X20637716Y-9039516D01*
X20637716Y-9096085D01*
X20694285Y-9096085D01*
X20694285Y-9350085D02*
X20694285Y-9293516D01*
X20637716Y-9293516D01*
X20637716Y-9350085D01*
X20694285Y-9350085D01*
X20694285Y-9604085D02*
X20694285Y-9547516D01*
X20637716Y-9547516D01*
X20637716Y-9604085D01*
X20694285Y-9604085D01*
X20694285Y-9858085D02*
X20694285Y-9801516D01*
X20637716Y-9801516D01*
X20637716Y-9858085D01*
X20694285Y-9858085D01*
X20694285Y-10163285D02*
X20694285Y-10106716D01*
X20637716Y-10106716D01*
X20637716Y-10163285D01*
X20694285Y-10163285D01*
X20694285Y-10663285D02*
X20694285Y-10606716D01*
X20637716Y-10606716D01*
X20637716Y-10663285D01*
X20694285Y-10663285D01*
X20718085Y-4032484D02*
X20718085Y-3975915D01*
X20661516Y-3975915D01*
X20661516Y-4032484D01*
X20718085Y-4032484D01*
X20718085Y-5556485D02*
X20718085Y-5499916D01*
X20661516Y-5499916D01*
X20661516Y-5556485D01*
X20718085Y-5556485D01*
X20972085Y-4032484D02*
X20972085Y-3975915D01*
X20915516Y-3975915D01*
X20915516Y-4032484D01*
X20972085Y-4032484D01*
X20972085Y-5556485D02*
X20972085Y-5499916D01*
X20915516Y-5499916D01*
X20915516Y-5556485D01*
X20972085Y-5556485D01*
X21226085Y-4032484D02*
X21226085Y-3975915D01*
X21169516Y-3975915D01*
X21169516Y-4032484D01*
X21226085Y-4032484D01*
X21226085Y-5556485D02*
X21226085Y-5499916D01*
X21169516Y-5499916D01*
X21169516Y-5556485D01*
X21226085Y-5556485D01*
X21364285Y-6480284D02*
X21364285Y-6423715D01*
X21307716Y-6423715D01*
X21307716Y-6480284D01*
X21364285Y-6480284D01*
X21364285Y-6844284D02*
X21364285Y-6787715D01*
X21307716Y-6787715D01*
X21307716Y-6844284D01*
X21364285Y-6844284D01*
X21480085Y-4032484D02*
X21480085Y-3975915D01*
X21423516Y-3975915D01*
X21423516Y-4032484D01*
X21480085Y-4032484D01*
X21480085Y-5556485D02*
X21480085Y-5499916D01*
X21423516Y-5499916D01*
X21423516Y-5556485D01*
X21480085Y-5556485D01*
X21734085Y-4032484D02*
X21734085Y-3975915D01*
X21677516Y-3975915D01*
X21677516Y-4032484D01*
X21734085Y-4032484D01*
X21734085Y-5556485D02*
X21734085Y-5499916D01*
X21677516Y-5499916D01*
X21677516Y-5556485D01*
X21734085Y-5556485D01*
X21988085Y-4032484D02*
X21988085Y-3975915D01*
X21931516Y-3975915D01*
X21931516Y-4032484D01*
X21988085Y-4032484D01*
X21988085Y-5556485D02*
X21988085Y-5499916D01*
X21931516Y-5499916D01*
X21931516Y-5556485D01*
X21988085Y-5556485D01*
X21672000Y-6045000D02*
X21722000Y-5995000D01*
X21672000Y-5945000D01*
X21622000Y-5995000D01*
X21672000Y-6045000D01*
X21672000Y-6299000D02*
X21722000Y-6249000D01*
X21672000Y-6199000D01*
X21622000Y-6249000D01*
X21672000Y-6299000D01*
X21672000Y-6553000D02*
X21722000Y-6503000D01*
X21672000Y-6453000D01*
X21622000Y-6503000D01*
X21672000Y-6553000D01*
X21672000Y-6807000D02*
X21722000Y-6757000D01*
X21672000Y-6707000D01*
X21622000Y-6757000D01*
X21672000Y-6807000D01*
X21672000Y-7061000D02*
X21722000Y-7011000D01*
X21672000Y-6961000D01*
X21622000Y-7011000D01*
X21672000Y-7061000D01*
X21672000Y-7315000D02*
X21722000Y-7265000D01*
X21672000Y-7215000D01*
X21622000Y-7265000D01*
X21672000Y-7315000D01*
X21672000Y-7569000D02*
X21722000Y-7519000D01*
X21672000Y-7469000D01*
X21622000Y-7519000D01*
X21672000Y-7569000D01*
X21672000Y-7823000D02*
X21722000Y-7773000D01*
X21672000Y-7723000D01*
X21622000Y-7773000D01*
X21672000Y-7823000D01*
X21672000Y-8077000D02*
X21722000Y-8027000D01*
X21672000Y-7977000D01*
X21622000Y-8027000D01*
X21672000Y-8077000D01*
X21672000Y-8331000D02*
X21722000Y-8281000D01*
X21672000Y-8231000D01*
X21622000Y-8281000D01*
X21672000Y-8331000D01*
X21672000Y-8585000D02*
X21722000Y-8535000D01*
X21672000Y-8485000D01*
X21622000Y-8535000D01*
X21672000Y-8585000D01*
X21672000Y-8839000D02*
X21722000Y-8789000D01*
X21672000Y-8739000D01*
X21622000Y-8789000D01*
X21672000Y-8839000D01*
X21672000Y-9093000D02*
X21722000Y-9043000D01*
X21672000Y-8993000D01*
X21622000Y-9043000D01*
X21672000Y-9093000D01*
X21926000Y-6045000D02*
X21976000Y-5995000D01*
X21926000Y-5945000D01*
X21876000Y-5995000D01*
X21926000Y-6045000D01*
X21926000Y-6299000D02*
X21976000Y-6249000D01*
X21926000Y-6199000D01*
X21876000Y-6249000D01*
X21926000Y-6299000D01*
X21926000Y-6553000D02*
X21976000Y-6503000D01*
X21926000Y-6453000D01*
X21876000Y-6503000D01*
X21926000Y-6553000D01*
X21926000Y-6807000D02*
X21976000Y-6757000D01*
X21926000Y-6707000D01*
X21876000Y-6757000D01*
X21926000Y-6807000D01*
X21926000Y-7061000D02*
X21976000Y-7011000D01*
X21926000Y-6961000D01*
X21876000Y-7011000D01*
X21926000Y-7061000D01*
X21926000Y-7315000D02*
X21976000Y-7265000D01*
X21926000Y-7215000D01*
X21876000Y-7265000D01*
X21926000Y-7315000D01*
X21926000Y-7569000D02*
X21976000Y-7519000D01*
X21926000Y-7469000D01*
X21876000Y-7519000D01*
X21926000Y-7569000D01*
X21926000Y-7823000D02*
X21976000Y-7773000D01*
X21926000Y-7723000D01*
X21876000Y-7773000D01*
X21926000Y-7823000D01*
X21926000Y-8077000D02*
X21976000Y-8027000D01*
X21926000Y-7977000D01*
X21876000Y-8027000D01*
X21926000Y-8077000D01*
X21926000Y-8331000D02*
X21976000Y-8281000D01*
X21926000Y-8231000D01*
X21876000Y-8281000D01*
X21926000Y-8331000D01*
X21926000Y-8585000D02*
X21976000Y-8535000D01*
X21926000Y-8485000D01*
X21876000Y-8535000D01*
X21926000Y-8585000D01*
X21926000Y-8839000D02*
X21976000Y-8789000D01*
X21926000Y-8739000D01*
X21876000Y-8789000D01*
X21926000Y-8839000D01*
X21926000Y-9093000D02*
X21976000Y-9043000D01*
X21926000Y-8993000D01*
X21876000Y-9043000D01*
X21926000Y-9093000D01*
X21944000Y-11187500D02*
X21994000Y-11137500D01*
X21944000Y-11087500D01*
X21894000Y-11137500D01*
X21944000Y-11187500D01*
X21944000Y-11441500D02*
X21994000Y-11391500D01*
X21944000Y-11341500D01*
X21894000Y-11391500D01*
X21944000Y-11441500D01*
X21944000Y-11695500D02*
X21994000Y-11645500D01*
X21944000Y-11595500D01*
X21894000Y-11645500D01*
X21944000Y-11695500D01*
X19191500Y-11060000D02*
X19321500Y-11190000D01*
X19321500Y-11060000D02*
X19191500Y-11190000D01*
X19321500Y-11125000D02*
G75*
G03*
X19321500Y-11125000I-65000J0D01*
G01*
X19191500Y-11560000D02*
X19321500Y-11690000D01*
X19321500Y-11560000D02*
X19191500Y-11690000D01*
X19321500Y-11625000D02*
G75*
G03*
X19321500Y-11625000I-65000J0D01*
G01*
X20191500Y-11310000D02*
X20321500Y-11440000D01*
X20321500Y-11310000D02*
X20191500Y-11440000D01*
X20321500Y-11375000D02*
G75*
G03*
X20321500Y-11375000I-65000J0D01*
G01*
X20519000Y-11060000D02*
X20649000Y-11190000D01*
X20649000Y-11060000D02*
X20519000Y-11190000D01*
X20649000Y-11125000D02*
G75*
G03*
X20649000Y-11125000I-65000J0D01*
G01*
X20519000Y-11560000D02*
X20649000Y-11690000D01*
X20649000Y-11560000D02*
X20519000Y-11690000D01*
X20649000Y-11625000D02*
G75*
G03*
X20649000Y-11625000I-65000J0D01*
G01*
X21519000Y-11310000D02*
X21649000Y-11440000D01*
X21649000Y-11310000D02*
X21519000Y-11440000D01*
X21649000Y-11375000D02*
G75*
G03*
X21649000Y-11375000I-65000J0D01*
G01*
D12*
X13770928Y-12467214D02*
X13770928Y-12167214D01*
X13842357Y-12167214D01*
X13885214Y-12181500D01*
X13913786Y-12210071D01*
X13928071Y-12238643D01*
X13942357Y-12295786D01*
X13942357Y-12338643D01*
X13928071Y-12395786D01*
X13913786Y-12424357D01*
X13885214Y-12452929D01*
X13842357Y-12467214D01*
X13770928Y-12467214D01*
X14070928Y-12467214D02*
X14070928Y-12267214D01*
X14070928Y-12324357D02*
X14085214Y-12295786D01*
X14099500Y-12281500D01*
X14128071Y-12267214D01*
X14156643Y-12267214D01*
X14256643Y-12467214D02*
X14256643Y-12267214D01*
X14256643Y-12167214D02*
X14242357Y-12181500D01*
X14256643Y-12195786D01*
X14270928Y-12181500D01*
X14256643Y-12167214D01*
X14256643Y-12195786D01*
X14442357Y-12467214D02*
X14413786Y-12452929D01*
X14399500Y-12424357D01*
X14399500Y-12167214D01*
X14599500Y-12467214D02*
X14570928Y-12452929D01*
X14556643Y-12424357D01*
X14556643Y-12167214D01*
X14942357Y-12467214D02*
X14942357Y-12167214D01*
X15042357Y-12381500D01*
X15142357Y-12167214D01*
X15142357Y-12467214D01*
X15413786Y-12467214D02*
X15413786Y-12310071D01*
X15399500Y-12281500D01*
X15370928Y-12267214D01*
X15313786Y-12267214D01*
X15285214Y-12281500D01*
X15413786Y-12452929D02*
X15385214Y-12467214D01*
X15313786Y-12467214D01*
X15285214Y-12452929D01*
X15270928Y-12424357D01*
X15270928Y-12395786D01*
X15285214Y-12367214D01*
X15313786Y-12352929D01*
X15385214Y-12352929D01*
X15413786Y-12338643D01*
X15556643Y-12267214D02*
X15556643Y-12567214D01*
X15556643Y-12281500D02*
X15585214Y-12267214D01*
X15642357Y-12267214D01*
X15670928Y-12281500D01*
X15685214Y-12295786D01*
X15699500Y-12324357D01*
X15699500Y-12410071D01*
X15685214Y-12438643D01*
X15670928Y-12452929D01*
X15642357Y-12467214D01*
X15585214Y-12467214D01*
X15556643Y-12452929D01*
X15828071Y-12438643D02*
X15842357Y-12452929D01*
X15828071Y-12467214D01*
X15813786Y-12452929D01*
X15828071Y-12438643D01*
X15828071Y-12467214D01*
X15828071Y-12281500D02*
X15842357Y-12295786D01*
X15828071Y-12310071D01*
X15813786Y-12295786D01*
X15828071Y-12281500D01*
X15828071Y-12310071D01*
X13444500Y-12941500D02*
X13484500Y-12981500D01*
X13484500Y-12941500D02*
X13444500Y-12981500D01*
X13828071Y-12797214D02*
X13856643Y-12797214D01*
X13885214Y-12811500D01*
X13899500Y-12825786D01*
X13913786Y-12854357D01*
X13928071Y-12911500D01*
X13928071Y-12982929D01*
X13913786Y-13040071D01*
X13899500Y-13068643D01*
X13885214Y-13082929D01*
X13856643Y-13097214D01*
X13828071Y-13097214D01*
X13799500Y-13082929D01*
X13785214Y-13068643D01*
X13770928Y-13040071D01*
X13756643Y-12982929D01*
X13756643Y-12911500D01*
X13770928Y-12854357D01*
X13785214Y-12825786D01*
X13799500Y-12811500D01*
X13828071Y-12797214D01*
X14056643Y-13068643D02*
X14070928Y-13082929D01*
X14056643Y-13097214D01*
X14042357Y-13082929D01*
X14056643Y-13068643D01*
X14056643Y-13097214D01*
X14328071Y-12897214D02*
X14328071Y-13097214D01*
X14256643Y-12782929D02*
X14185214Y-12997214D01*
X14370928Y-12997214D01*
X14542357Y-12797214D02*
X14570928Y-12797214D01*
X14599500Y-12811500D01*
X14613786Y-12825786D01*
X14628071Y-12854357D01*
X14642357Y-12911500D01*
X14642357Y-12982929D01*
X14628071Y-13040071D01*
X14613786Y-13068643D01*
X14599500Y-13082929D01*
X14570928Y-13097214D01*
X14542357Y-13097214D01*
X14513786Y-13082929D01*
X14499500Y-13068643D01*
X14485214Y-13040071D01*
X14470928Y-12982929D01*
X14470928Y-12911500D01*
X14485214Y-12854357D01*
X14499500Y-12825786D01*
X14513786Y-12811500D01*
X14542357Y-12797214D01*
X14770928Y-13097214D02*
X14770928Y-12897214D01*
X14770928Y-12925786D02*
X14785214Y-12911500D01*
X14813786Y-12897214D01*
X14856643Y-12897214D01*
X14885214Y-12911500D01*
X14899500Y-12940071D01*
X14899500Y-13097214D01*
X14899500Y-12940071D02*
X14913786Y-12911500D01*
X14942357Y-12897214D01*
X14985214Y-12897214D01*
X15013786Y-12911500D01*
X15028071Y-12940071D01*
X15028071Y-13097214D01*
X15170928Y-13097214D02*
X15170928Y-12897214D01*
X15170928Y-12925786D02*
X15185214Y-12911500D01*
X15213786Y-12897214D01*
X15256643Y-12897214D01*
X15285214Y-12911500D01*
X15299500Y-12940071D01*
X15299500Y-13097214D01*
X15299500Y-12940071D02*
X15313786Y-12911500D01*
X15342357Y-12897214D01*
X15385214Y-12897214D01*
X15413786Y-12911500D01*
X15428071Y-12940071D01*
X15428071Y-13097214D01*
X16013786Y-12782929D02*
X15756643Y-13168643D01*
X16399500Y-12797214D02*
X16428071Y-12797214D01*
X16456643Y-12811500D01*
X16470928Y-12825786D01*
X16485214Y-12854357D01*
X16499500Y-12911500D01*
X16499500Y-12982929D01*
X16485214Y-13040071D01*
X16470928Y-13068643D01*
X16456643Y-13082929D01*
X16428071Y-13097214D01*
X16399500Y-13097214D01*
X16370928Y-13082929D01*
X16356643Y-13068643D01*
X16342357Y-13040071D01*
X16328071Y-12982929D01*
X16328071Y-12911500D01*
X16342357Y-12854357D01*
X16356643Y-12825786D01*
X16370928Y-12811500D01*
X16399500Y-12797214D01*
X16628071Y-13068643D02*
X16642357Y-13082929D01*
X16628071Y-13097214D01*
X16613786Y-13082929D01*
X16628071Y-13068643D01*
X16628071Y-13097214D01*
X16828071Y-12797214D02*
X16856643Y-12797214D01*
X16885214Y-12811500D01*
X16899500Y-12825786D01*
X16913786Y-12854357D01*
X16928071Y-12911500D01*
X16928071Y-12982929D01*
X16913786Y-13040071D01*
X16899500Y-13068643D01*
X16885214Y-13082929D01*
X16856643Y-13097214D01*
X16828071Y-13097214D01*
X16799500Y-13082929D01*
X16785214Y-13068643D01*
X16770928Y-13040071D01*
X16756643Y-12982929D01*
X16756643Y-12911500D01*
X16770928Y-12854357D01*
X16785214Y-12825786D01*
X16799500Y-12811500D01*
X16828071Y-12797214D01*
X17213786Y-13097214D02*
X17042357Y-13097214D01*
X17128071Y-13097214D02*
X17128071Y-12797214D01*
X17099500Y-12840071D01*
X17070928Y-12868643D01*
X17042357Y-12882929D01*
X17470928Y-12797214D02*
X17413786Y-12797214D01*
X17385214Y-12811500D01*
X17370928Y-12825786D01*
X17342357Y-12868643D01*
X17328071Y-12925786D01*
X17328071Y-13040071D01*
X17342357Y-13068643D01*
X17356643Y-13082929D01*
X17385214Y-13097214D01*
X17442357Y-13097214D01*
X17470928Y-13082929D01*
X17485214Y-13068643D01*
X17499500Y-13040071D01*
X17499500Y-12968643D01*
X17485214Y-12940071D01*
X17470928Y-12925786D01*
X17442357Y-12911500D01*
X17385214Y-12911500D01*
X17356643Y-12925786D01*
X17342357Y-12940071D01*
X17328071Y-12968643D01*
X17613786Y-12797214D02*
X17613786Y-12854357D01*
X17728071Y-12797214D02*
X17728071Y-12854357D01*
X18170928Y-13211500D02*
X18156643Y-13197214D01*
X18128071Y-13154357D01*
X18113786Y-13125786D01*
X18099500Y-13082929D01*
X18085214Y-13011500D01*
X18085214Y-12954357D01*
X18099500Y-12882929D01*
X18113786Y-12840071D01*
X18128071Y-12811500D01*
X18156643Y-12768643D01*
X18170928Y-12754357D01*
X18256643Y-12797214D02*
X18456643Y-12797214D01*
X18328071Y-13097214D01*
X18799500Y-13097214D02*
X18799500Y-12797214D01*
X18928071Y-13097214D02*
X18928071Y-12940071D01*
X18913786Y-12911500D01*
X18885214Y-12897214D01*
X18842357Y-12897214D01*
X18813786Y-12911500D01*
X18799500Y-12925786D01*
X19113786Y-13097214D02*
X19085214Y-13082929D01*
X19070928Y-13068643D01*
X19056643Y-13040071D01*
X19056643Y-12954357D01*
X19070928Y-12925786D01*
X19085214Y-12911500D01*
X19113786Y-12897214D01*
X19156643Y-12897214D01*
X19185214Y-12911500D01*
X19199500Y-12925786D01*
X19213786Y-12954357D01*
X19213786Y-13040071D01*
X19199500Y-13068643D01*
X19185214Y-13082929D01*
X19156643Y-13097214D01*
X19113786Y-13097214D01*
X19385214Y-13097214D02*
X19356643Y-13082929D01*
X19342357Y-13054357D01*
X19342357Y-12797214D01*
X19613786Y-13082929D02*
X19585214Y-13097214D01*
X19528071Y-13097214D01*
X19499500Y-13082929D01*
X19485214Y-13054357D01*
X19485214Y-12940071D01*
X19499500Y-12911500D01*
X19528071Y-12897214D01*
X19585214Y-12897214D01*
X19613786Y-12911500D01*
X19628071Y-12940071D01*
X19628071Y-12968643D01*
X19485214Y-12997214D01*
X19742357Y-13082929D02*
X19770928Y-13097214D01*
X19828071Y-13097214D01*
X19856643Y-13082929D01*
X19870928Y-13054357D01*
X19870928Y-13040071D01*
X19856643Y-13011500D01*
X19828071Y-12997214D01*
X19785214Y-12997214D01*
X19756643Y-12982929D01*
X19742357Y-12954357D01*
X19742357Y-12940071D01*
X19756643Y-12911500D01*
X19785214Y-12897214D01*
X19828071Y-12897214D01*
X19856643Y-12911500D01*
X19970928Y-13211500D02*
X19985214Y-13197214D01*
X20013786Y-13154357D01*
X20028071Y-13125786D01*
X20042357Y-13082929D01*
X20056643Y-13011500D01*
X20056643Y-12954357D01*
X20042357Y-12882929D01*
X20028071Y-12840071D01*
X20013786Y-12811500D01*
X19985214Y-12768643D01*
X19970928Y-12754357D01*
X13484500Y-13357500D02*
G75*
G03*
X13484500Y-13357500I-25400J0D01*
G01*
X13828071Y-13193214D02*
X13856643Y-13193214D01*
X13885214Y-13207500D01*
X13899500Y-13221786D01*
X13913786Y-13250357D01*
X13928071Y-13307500D01*
X13928071Y-13378929D01*
X13913786Y-13436071D01*
X13899500Y-13464643D01*
X13885214Y-13478929D01*
X13856643Y-13493214D01*
X13828071Y-13493214D01*
X13799500Y-13478929D01*
X13785214Y-13464643D01*
X13770928Y-13436071D01*
X13756643Y-13378929D01*
X13756643Y-13307500D01*
X13770928Y-13250357D01*
X13785214Y-13221786D01*
X13799500Y-13207500D01*
X13828071Y-13193214D01*
X14056643Y-13464643D02*
X14070928Y-13478929D01*
X14056643Y-13493214D01*
X14042357Y-13478929D01*
X14056643Y-13464643D01*
X14056643Y-13493214D01*
X14342357Y-13193214D02*
X14199500Y-13193214D01*
X14185214Y-13336071D01*
X14199500Y-13321786D01*
X14228071Y-13307500D01*
X14299500Y-13307500D01*
X14328071Y-13321786D01*
X14342357Y-13336071D01*
X14356643Y-13364643D01*
X14356643Y-13436071D01*
X14342357Y-13464643D01*
X14328071Y-13478929D01*
X14299500Y-13493214D01*
X14228071Y-13493214D01*
X14199500Y-13478929D01*
X14185214Y-13464643D01*
X14642357Y-13493214D02*
X14470928Y-13493214D01*
X14556643Y-13493214D02*
X14556643Y-13193214D01*
X14528071Y-13236071D01*
X14499500Y-13264643D01*
X14470928Y-13278929D01*
X14770928Y-13493214D02*
X14770928Y-13293214D01*
X14770928Y-13321786D02*
X14785214Y-13307500D01*
X14813786Y-13293214D01*
X14856643Y-13293214D01*
X14885214Y-13307500D01*
X14899500Y-13336071D01*
X14899500Y-13493214D01*
X14899500Y-13336071D02*
X14913786Y-13307500D01*
X14942357Y-13293214D01*
X14985214Y-13293214D01*
X15013786Y-13307500D01*
X15028071Y-13336071D01*
X15028071Y-13493214D01*
X15170928Y-13493214D02*
X15170928Y-13293214D01*
X15170928Y-13321786D02*
X15185214Y-13307500D01*
X15213786Y-13293214D01*
X15256643Y-13293214D01*
X15285214Y-13307500D01*
X15299500Y-13336071D01*
X15299500Y-13493214D01*
X15299500Y-13336071D02*
X15313786Y-13307500D01*
X15342357Y-13293214D01*
X15385214Y-13293214D01*
X15413786Y-13307500D01*
X15428071Y-13336071D01*
X15428071Y-13493214D01*
X16013786Y-13178929D02*
X15756643Y-13564643D01*
X16399500Y-13193214D02*
X16428071Y-13193214D01*
X16456643Y-13207500D01*
X16470928Y-13221786D01*
X16485214Y-13250357D01*
X16499500Y-13307500D01*
X16499500Y-13378929D01*
X16485214Y-13436071D01*
X16470928Y-13464643D01*
X16456643Y-13478929D01*
X16428071Y-13493214D01*
X16399500Y-13493214D01*
X16370928Y-13478929D01*
X16356643Y-13464643D01*
X16342357Y-13436071D01*
X16328071Y-13378929D01*
X16328071Y-13307500D01*
X16342357Y-13250357D01*
X16356643Y-13221786D01*
X16370928Y-13207500D01*
X16399500Y-13193214D01*
X16628071Y-13464643D02*
X16642357Y-13478929D01*
X16628071Y-13493214D01*
X16613786Y-13478929D01*
X16628071Y-13464643D01*
X16628071Y-13493214D01*
X16828071Y-13193214D02*
X16856643Y-13193214D01*
X16885214Y-13207500D01*
X16899500Y-13221786D01*
X16913786Y-13250357D01*
X16928071Y-13307500D01*
X16928071Y-13378929D01*
X16913786Y-13436071D01*
X16899500Y-13464643D01*
X16885214Y-13478929D01*
X16856643Y-13493214D01*
X16828071Y-13493214D01*
X16799500Y-13478929D01*
X16785214Y-13464643D01*
X16770928Y-13436071D01*
X16756643Y-13378929D01*
X16756643Y-13307500D01*
X16770928Y-13250357D01*
X16785214Y-13221786D01*
X16799500Y-13207500D01*
X16828071Y-13193214D01*
X17042357Y-13221786D02*
X17056643Y-13207500D01*
X17085214Y-13193214D01*
X17156643Y-13193214D01*
X17185214Y-13207500D01*
X17199500Y-13221786D01*
X17213786Y-13250357D01*
X17213786Y-13278929D01*
X17199500Y-13321786D01*
X17028071Y-13493214D01*
X17213786Y-13493214D01*
X17399500Y-13193214D02*
X17428071Y-13193214D01*
X17456643Y-13207500D01*
X17470928Y-13221786D01*
X17485214Y-13250357D01*
X17499500Y-13307500D01*
X17499500Y-13378929D01*
X17485214Y-13436071D01*
X17470928Y-13464643D01*
X17456643Y-13478929D01*
X17428071Y-13493214D01*
X17399500Y-13493214D01*
X17370928Y-13478929D01*
X17356643Y-13464643D01*
X17342357Y-13436071D01*
X17328071Y-13378929D01*
X17328071Y-13307500D01*
X17342357Y-13250357D01*
X17356643Y-13221786D01*
X17370928Y-13207500D01*
X17399500Y-13193214D01*
X17613786Y-13193214D02*
X17613786Y-13250357D01*
X17728071Y-13193214D02*
X17728071Y-13250357D01*
X18170928Y-13607500D02*
X18156643Y-13593214D01*
X18128071Y-13550357D01*
X18113786Y-13521786D01*
X18099500Y-13478929D01*
X18085214Y-13407500D01*
X18085214Y-13350357D01*
X18099500Y-13278929D01*
X18113786Y-13236071D01*
X18128071Y-13207500D01*
X18156643Y-13164643D01*
X18170928Y-13150357D01*
X18413786Y-13293214D02*
X18413786Y-13493214D01*
X18342357Y-13178929D02*
X18270928Y-13393214D01*
X18456643Y-13393214D01*
X18799500Y-13493214D02*
X18799500Y-13193214D01*
X18928071Y-13493214D02*
X18928071Y-13336071D01*
X18913786Y-13307500D01*
X18885214Y-13293214D01*
X18842357Y-13293214D01*
X18813786Y-13307500D01*
X18799500Y-13321786D01*
X19113786Y-13493214D02*
X19085214Y-13478929D01*
X19070928Y-13464643D01*
X19056643Y-13436071D01*
X19056643Y-13350357D01*
X19070928Y-13321786D01*
X19085214Y-13307500D01*
X19113786Y-13293214D01*
X19156643Y-13293214D01*
X19185214Y-13307500D01*
X19199500Y-13321786D01*
X19213786Y-13350357D01*
X19213786Y-13436071D01*
X19199500Y-13464643D01*
X19185214Y-13478929D01*
X19156643Y-13493214D01*
X19113786Y-13493214D01*
X19385214Y-13493214D02*
X19356643Y-13478929D01*
X19342357Y-13450357D01*
X19342357Y-13193214D01*
X19613786Y-13478929D02*
X19585214Y-13493214D01*
X19528071Y-13493214D01*
X19499500Y-13478929D01*
X19485214Y-13450357D01*
X19485214Y-13336071D01*
X19499500Y-13307500D01*
X19528071Y-13293214D01*
X19585214Y-13293214D01*
X19613786Y-13307500D01*
X19628071Y-13336071D01*
X19628071Y-13364643D01*
X19485214Y-13393214D01*
X19742357Y-13478929D02*
X19770928Y-13493214D01*
X19828071Y-13493214D01*
X19856643Y-13478929D01*
X19870928Y-13450357D01*
X19870928Y-13436071D01*
X19856643Y-13407500D01*
X19828071Y-13393214D01*
X19785214Y-13393214D01*
X19756643Y-13378929D01*
X19742357Y-13350357D01*
X19742357Y-13336071D01*
X19756643Y-13307500D01*
X19785214Y-13293214D01*
X19828071Y-13293214D01*
X19856643Y-13307500D01*
X19970928Y-13607500D02*
X19985214Y-13593214D01*
X20013786Y-13550357D01*
X20028071Y-13521786D01*
X20042357Y-13478929D01*
X20056643Y-13407500D01*
X20056643Y-13350357D01*
X20042357Y-13278929D01*
X20028071Y-13236071D01*
X20013786Y-13207500D01*
X19985214Y-13164643D01*
X19970928Y-13150357D01*
X13447000Y-13716000D02*
X13447000Y-13791000D01*
X13409500Y-13753500D02*
X13484500Y-13753500D01*
X13828071Y-13589214D02*
X13856643Y-13589214D01*
X13885214Y-13603500D01*
X13899500Y-13617786D01*
X13913786Y-13646357D01*
X13928071Y-13703500D01*
X13928071Y-13774929D01*
X13913786Y-13832071D01*
X13899500Y-13860643D01*
X13885214Y-13874929D01*
X13856643Y-13889214D01*
X13828071Y-13889214D01*
X13799500Y-13874929D01*
X13785214Y-13860643D01*
X13770928Y-13832071D01*
X13756643Y-13774929D01*
X13756643Y-13703500D01*
X13770928Y-13646357D01*
X13785214Y-13617786D01*
X13799500Y-13603500D01*
X13828071Y-13589214D01*
X14056643Y-13860643D02*
X14070928Y-13874929D01*
X14056643Y-13889214D01*
X14042357Y-13874929D01*
X14056643Y-13860643D01*
X14056643Y-13889214D01*
X14170928Y-13589214D02*
X14370928Y-13589214D01*
X14242357Y-13889214D01*
X14628071Y-13589214D02*
X14485214Y-13589214D01*
X14470928Y-13732071D01*
X14485214Y-13717786D01*
X14513786Y-13703500D01*
X14585214Y-13703500D01*
X14613786Y-13717786D01*
X14628071Y-13732071D01*
X14642357Y-13760643D01*
X14642357Y-13832071D01*
X14628071Y-13860643D01*
X14613786Y-13874929D01*
X14585214Y-13889214D01*
X14513786Y-13889214D01*
X14485214Y-13874929D01*
X14470928Y-13860643D01*
X14770928Y-13889214D02*
X14770928Y-13689214D01*
X14770928Y-13717786D02*
X14785214Y-13703500D01*
X14813786Y-13689214D01*
X14856643Y-13689214D01*
X14885214Y-13703500D01*
X14899500Y-13732071D01*
X14899500Y-13889214D01*
X14899500Y-13732071D02*
X14913786Y-13703500D01*
X14942357Y-13689214D01*
X14985214Y-13689214D01*
X15013786Y-13703500D01*
X15028071Y-13732071D01*
X15028071Y-13889214D01*
X15170928Y-13889214D02*
X15170928Y-13689214D01*
X15170928Y-13717786D02*
X15185214Y-13703500D01*
X15213786Y-13689214D01*
X15256643Y-13689214D01*
X15285214Y-13703500D01*
X15299500Y-13732071D01*
X15299500Y-13889214D01*
X15299500Y-13732071D02*
X15313786Y-13703500D01*
X15342357Y-13689214D01*
X15385214Y-13689214D01*
X15413786Y-13703500D01*
X15428071Y-13732071D01*
X15428071Y-13889214D01*
X16013786Y-13574929D02*
X15756643Y-13960643D01*
X16399500Y-13589214D02*
X16428071Y-13589214D01*
X16456643Y-13603500D01*
X16470928Y-13617786D01*
X16485214Y-13646357D01*
X16499500Y-13703500D01*
X16499500Y-13774929D01*
X16485214Y-13832071D01*
X16470928Y-13860643D01*
X16456643Y-13874929D01*
X16428071Y-13889214D01*
X16399500Y-13889214D01*
X16370928Y-13874929D01*
X16356643Y-13860643D01*
X16342357Y-13832071D01*
X16328071Y-13774929D01*
X16328071Y-13703500D01*
X16342357Y-13646357D01*
X16356643Y-13617786D01*
X16370928Y-13603500D01*
X16399500Y-13589214D01*
X16628071Y-13860643D02*
X16642357Y-13874929D01*
X16628071Y-13889214D01*
X16613786Y-13874929D01*
X16628071Y-13860643D01*
X16628071Y-13889214D01*
X16828071Y-13589214D02*
X16856643Y-13589214D01*
X16885214Y-13603500D01*
X16899500Y-13617786D01*
X16913786Y-13646357D01*
X16928071Y-13703500D01*
X16928071Y-13774929D01*
X16913786Y-13832071D01*
X16899500Y-13860643D01*
X16885214Y-13874929D01*
X16856643Y-13889214D01*
X16828071Y-13889214D01*
X16799500Y-13874929D01*
X16785214Y-13860643D01*
X16770928Y-13832071D01*
X16756643Y-13774929D01*
X16756643Y-13703500D01*
X16770928Y-13646357D01*
X16785214Y-13617786D01*
X16799500Y-13603500D01*
X16828071Y-13589214D01*
X17028071Y-13589214D02*
X17213786Y-13589214D01*
X17113786Y-13703500D01*
X17156643Y-13703500D01*
X17185214Y-13717786D01*
X17199500Y-13732071D01*
X17213786Y-13760643D01*
X17213786Y-13832071D01*
X17199500Y-13860643D01*
X17185214Y-13874929D01*
X17156643Y-13889214D01*
X17070928Y-13889214D01*
X17042357Y-13874929D01*
X17028071Y-13860643D01*
X17399500Y-13589214D02*
X17428071Y-13589214D01*
X17456643Y-13603500D01*
X17470928Y-13617786D01*
X17485214Y-13646357D01*
X17499500Y-13703500D01*
X17499500Y-13774929D01*
X17485214Y-13832071D01*
X17470928Y-13860643D01*
X17456643Y-13874929D01*
X17428071Y-13889214D01*
X17399500Y-13889214D01*
X17370928Y-13874929D01*
X17356643Y-13860643D01*
X17342357Y-13832071D01*
X17328071Y-13774929D01*
X17328071Y-13703500D01*
X17342357Y-13646357D01*
X17356643Y-13617786D01*
X17370928Y-13603500D01*
X17399500Y-13589214D01*
X17613786Y-13589214D02*
X17613786Y-13646357D01*
X17728071Y-13589214D02*
X17728071Y-13646357D01*
X18170928Y-14003500D02*
X18156643Y-13989214D01*
X18128071Y-13946357D01*
X18113786Y-13917786D01*
X18099500Y-13874929D01*
X18085214Y-13803500D01*
X18085214Y-13746357D01*
X18099500Y-13674929D01*
X18113786Y-13632071D01*
X18128071Y-13603500D01*
X18156643Y-13560643D01*
X18170928Y-13546357D01*
X18442357Y-13889214D02*
X18270928Y-13889214D01*
X18356643Y-13889214D02*
X18356643Y-13589214D01*
X18328071Y-13632071D01*
X18299500Y-13660643D01*
X18270928Y-13674929D01*
X18613786Y-13717786D02*
X18585214Y-13703500D01*
X18570928Y-13689214D01*
X18556643Y-13660643D01*
X18556643Y-13646357D01*
X18570928Y-13617786D01*
X18585214Y-13603500D01*
X18613786Y-13589214D01*
X18670928Y-13589214D01*
X18699500Y-13603500D01*
X18713786Y-13617786D01*
X18728071Y-13646357D01*
X18728071Y-13660643D01*
X18713786Y-13689214D01*
X18699500Y-13703500D01*
X18670928Y-13717786D01*
X18613786Y-13717786D01*
X18585214Y-13732071D01*
X18570928Y-13746357D01*
X18556643Y-13774929D01*
X18556643Y-13832071D01*
X18570928Y-13860643D01*
X18585214Y-13874929D01*
X18613786Y-13889214D01*
X18670928Y-13889214D01*
X18699500Y-13874929D01*
X18713786Y-13860643D01*
X18728071Y-13832071D01*
X18728071Y-13774929D01*
X18713786Y-13746357D01*
X18699500Y-13732071D01*
X18670928Y-13717786D01*
X19085214Y-13889214D02*
X19085214Y-13589214D01*
X19213786Y-13889214D02*
X19213786Y-13732071D01*
X19199500Y-13703500D01*
X19170928Y-13689214D01*
X19128071Y-13689214D01*
X19099500Y-13703500D01*
X19085214Y-13717786D01*
X19399500Y-13889214D02*
X19370928Y-13874929D01*
X19356643Y-13860643D01*
X19342357Y-13832071D01*
X19342357Y-13746357D01*
X19356643Y-13717786D01*
X19370928Y-13703500D01*
X19399500Y-13689214D01*
X19442357Y-13689214D01*
X19470928Y-13703500D01*
X19485214Y-13717786D01*
X19499500Y-13746357D01*
X19499500Y-13832071D01*
X19485214Y-13860643D01*
X19470928Y-13874929D01*
X19442357Y-13889214D01*
X19399500Y-13889214D01*
X19670928Y-13889214D02*
X19642357Y-13874929D01*
X19628071Y-13846357D01*
X19628071Y-13589214D01*
X19899500Y-13874929D02*
X19870928Y-13889214D01*
X19813786Y-13889214D01*
X19785214Y-13874929D01*
X19770928Y-13846357D01*
X19770928Y-13732071D01*
X19785214Y-13703500D01*
X19813786Y-13689214D01*
X19870928Y-13689214D01*
X19899500Y-13703500D01*
X19913786Y-13732071D01*
X19913786Y-13760643D01*
X19770928Y-13789214D01*
X20028071Y-13874929D02*
X20056643Y-13889214D01*
X20113786Y-13889214D01*
X20142357Y-13874929D01*
X20156643Y-13846357D01*
X20156643Y-13832071D01*
X20142357Y-13803500D01*
X20113786Y-13789214D01*
X20070928Y-13789214D01*
X20042357Y-13774929D01*
X20028071Y-13746357D01*
X20028071Y-13732071D01*
X20042357Y-13703500D01*
X20070928Y-13689214D01*
X20113786Y-13689214D01*
X20142357Y-13703500D01*
X20256643Y-14003500D02*
X20270928Y-13989214D01*
X20299500Y-13946357D01*
X20313786Y-13917786D01*
X20328071Y-13874929D01*
X20342357Y-13803500D01*
X20342357Y-13746357D01*
X20328071Y-13674929D01*
X20313786Y-13632071D01*
X20299500Y-13603500D01*
X20270928Y-13560643D01*
X20256643Y-13546357D01*
X13472784Y-14177785D02*
X13472784Y-14121216D01*
X13416215Y-14121216D01*
X13416215Y-14177785D01*
X13472784Y-14177785D01*
X13828071Y-13985214D02*
X13856643Y-13985214D01*
X13885214Y-13999500D01*
X13899500Y-14013786D01*
X13913786Y-14042357D01*
X13928071Y-14099500D01*
X13928071Y-14170929D01*
X13913786Y-14228071D01*
X13899500Y-14256643D01*
X13885214Y-14270929D01*
X13856643Y-14285214D01*
X13828071Y-14285214D01*
X13799500Y-14270929D01*
X13785214Y-14256643D01*
X13770928Y-14228071D01*
X13756643Y-14170929D01*
X13756643Y-14099500D01*
X13770928Y-14042357D01*
X13785214Y-14013786D01*
X13799500Y-13999500D01*
X13828071Y-13985214D01*
X14056643Y-14256643D02*
X14070928Y-14270929D01*
X14056643Y-14285214D01*
X14042357Y-14270929D01*
X14056643Y-14256643D01*
X14056643Y-14285214D01*
X14242357Y-14113786D02*
X14213786Y-14099500D01*
X14199500Y-14085214D01*
X14185214Y-14056643D01*
X14185214Y-14042357D01*
X14199500Y-14013786D01*
X14213786Y-13999500D01*
X14242357Y-13985214D01*
X14299500Y-13985214D01*
X14328071Y-13999500D01*
X14342357Y-14013786D01*
X14356643Y-14042357D01*
X14356643Y-14056643D01*
X14342357Y-14085214D01*
X14328071Y-14099500D01*
X14299500Y-14113786D01*
X14242357Y-14113786D01*
X14213786Y-14128071D01*
X14199500Y-14142357D01*
X14185214Y-14170929D01*
X14185214Y-14228071D01*
X14199500Y-14256643D01*
X14213786Y-14270929D01*
X14242357Y-14285214D01*
X14299500Y-14285214D01*
X14328071Y-14270929D01*
X14342357Y-14256643D01*
X14356643Y-14228071D01*
X14356643Y-14170929D01*
X14342357Y-14142357D01*
X14328071Y-14128071D01*
X14299500Y-14113786D01*
X14542357Y-13985214D02*
X14570928Y-13985214D01*
X14599500Y-13999500D01*
X14613786Y-14013786D01*
X14628071Y-14042357D01*
X14642357Y-14099500D01*
X14642357Y-14170929D01*
X14628071Y-14228071D01*
X14613786Y-14256643D01*
X14599500Y-14270929D01*
X14570928Y-14285214D01*
X14542357Y-14285214D01*
X14513786Y-14270929D01*
X14499500Y-14256643D01*
X14485214Y-14228071D01*
X14470928Y-14170929D01*
X14470928Y-14099500D01*
X14485214Y-14042357D01*
X14499500Y-14013786D01*
X14513786Y-13999500D01*
X14542357Y-13985214D01*
X14770928Y-14285214D02*
X14770928Y-14085214D01*
X14770928Y-14113786D02*
X14785214Y-14099500D01*
X14813786Y-14085214D01*
X14856643Y-14085214D01*
X14885214Y-14099500D01*
X14899500Y-14128071D01*
X14899500Y-14285214D01*
X14899500Y-14128071D02*
X14913786Y-14099500D01*
X14942357Y-14085214D01*
X14985214Y-14085214D01*
X15013786Y-14099500D01*
X15028071Y-14128071D01*
X15028071Y-14285214D01*
X15170928Y-14285214D02*
X15170928Y-14085214D01*
X15170928Y-14113786D02*
X15185214Y-14099500D01*
X15213786Y-14085214D01*
X15256643Y-14085214D01*
X15285214Y-14099500D01*
X15299500Y-14128071D01*
X15299500Y-14285214D01*
X15299500Y-14128071D02*
X15313786Y-14099500D01*
X15342357Y-14085214D01*
X15385214Y-14085214D01*
X15413786Y-14099500D01*
X15428071Y-14128071D01*
X15428071Y-14285214D01*
X16013786Y-13970929D02*
X15756643Y-14356643D01*
X16399500Y-13985214D02*
X16428071Y-13985214D01*
X16456643Y-13999500D01*
X16470928Y-14013786D01*
X16485214Y-14042357D01*
X16499500Y-14099500D01*
X16499500Y-14170929D01*
X16485214Y-14228071D01*
X16470928Y-14256643D01*
X16456643Y-14270929D01*
X16428071Y-14285214D01*
X16399500Y-14285214D01*
X16370928Y-14270929D01*
X16356643Y-14256643D01*
X16342357Y-14228071D01*
X16328071Y-14170929D01*
X16328071Y-14099500D01*
X16342357Y-14042357D01*
X16356643Y-14013786D01*
X16370928Y-13999500D01*
X16399500Y-13985214D01*
X16628071Y-14256643D02*
X16642357Y-14270929D01*
X16628071Y-14285214D01*
X16613786Y-14270929D01*
X16628071Y-14256643D01*
X16628071Y-14285214D01*
X16828071Y-13985214D02*
X16856643Y-13985214D01*
X16885214Y-13999500D01*
X16899500Y-14013786D01*
X16913786Y-14042357D01*
X16928071Y-14099500D01*
X16928071Y-14170929D01*
X16913786Y-14228071D01*
X16899500Y-14256643D01*
X16885214Y-14270929D01*
X16856643Y-14285214D01*
X16828071Y-14285214D01*
X16799500Y-14270929D01*
X16785214Y-14256643D01*
X16770928Y-14228071D01*
X16756643Y-14170929D01*
X16756643Y-14099500D01*
X16770928Y-14042357D01*
X16785214Y-14013786D01*
X16799500Y-13999500D01*
X16828071Y-13985214D01*
X17028071Y-13985214D02*
X17213786Y-13985214D01*
X17113786Y-14099500D01*
X17156643Y-14099500D01*
X17185214Y-14113786D01*
X17199500Y-14128071D01*
X17213786Y-14156643D01*
X17213786Y-14228071D01*
X17199500Y-14256643D01*
X17185214Y-14270929D01*
X17156643Y-14285214D01*
X17070928Y-14285214D01*
X17042357Y-14270929D01*
X17028071Y-14256643D01*
X17499500Y-14285214D02*
X17328071Y-14285214D01*
X17413786Y-14285214D02*
X17413786Y-13985214D01*
X17385214Y-14028071D01*
X17356643Y-14056643D01*
X17328071Y-14070929D01*
X17613786Y-13985214D02*
X17613786Y-14042357D01*
X17728071Y-13985214D02*
X17728071Y-14042357D01*
X18170928Y-14399500D02*
X18156643Y-14385214D01*
X18128071Y-14342357D01*
X18113786Y-14313786D01*
X18099500Y-14270929D01*
X18085214Y-14199500D01*
X18085214Y-14142357D01*
X18099500Y-14070929D01*
X18113786Y-14028071D01*
X18128071Y-13999500D01*
X18156643Y-13956643D01*
X18170928Y-13942357D01*
X18270928Y-14013786D02*
X18285214Y-13999500D01*
X18313786Y-13985214D01*
X18385214Y-13985214D01*
X18413786Y-13999500D01*
X18428071Y-14013786D01*
X18442357Y-14042357D01*
X18442357Y-14070929D01*
X18428071Y-14113786D01*
X18256643Y-14285214D01*
X18442357Y-14285214D01*
X18728071Y-14285214D02*
X18556643Y-14285214D01*
X18642357Y-14285214D02*
X18642357Y-13985214D01*
X18613786Y-14028071D01*
X18585214Y-14056643D01*
X18556643Y-14070929D01*
X18985214Y-14085214D02*
X18985214Y-14285214D01*
X18913786Y-13970929D02*
X18842357Y-14185214D01*
X19028071Y-14185214D01*
X19370928Y-14285214D02*
X19370928Y-13985214D01*
X19499500Y-14285214D02*
X19499500Y-14128071D01*
X19485214Y-14099500D01*
X19456643Y-14085214D01*
X19413786Y-14085214D01*
X19385214Y-14099500D01*
X19370928Y-14113786D01*
X19685214Y-14285214D02*
X19656643Y-14270929D01*
X19642357Y-14256643D01*
X19628071Y-14228071D01*
X19628071Y-14142357D01*
X19642357Y-14113786D01*
X19656643Y-14099500D01*
X19685214Y-14085214D01*
X19728071Y-14085214D01*
X19756643Y-14099500D01*
X19770928Y-14113786D01*
X19785214Y-14142357D01*
X19785214Y-14228071D01*
X19770928Y-14256643D01*
X19756643Y-14270929D01*
X19728071Y-14285214D01*
X19685214Y-14285214D01*
X19956643Y-14285214D02*
X19928071Y-14270929D01*
X19913786Y-14242357D01*
X19913786Y-13985214D01*
X20185214Y-14270929D02*
X20156643Y-14285214D01*
X20099500Y-14285214D01*
X20070928Y-14270929D01*
X20056643Y-14242357D01*
X20056643Y-14128071D01*
X20070928Y-14099500D01*
X20099500Y-14085214D01*
X20156643Y-14085214D01*
X20185214Y-14099500D01*
X20199500Y-14128071D01*
X20199500Y-14156643D01*
X20056643Y-14185214D01*
X20313786Y-14270929D02*
X20342357Y-14285214D01*
X20399500Y-14285214D01*
X20428071Y-14270929D01*
X20442357Y-14242357D01*
X20442357Y-14228071D01*
X20428071Y-14199500D01*
X20399500Y-14185214D01*
X20356643Y-14185214D01*
X20328071Y-14170929D01*
X20313786Y-14142357D01*
X20313786Y-14128071D01*
X20328071Y-14099500D01*
X20356643Y-14085214D01*
X20399500Y-14085214D01*
X20428071Y-14099500D01*
X20542357Y-14399500D02*
X20556643Y-14385214D01*
X20585214Y-14342357D01*
X20599500Y-14313786D01*
X20613786Y-14270929D01*
X20628071Y-14199500D01*
X20628071Y-14142357D01*
X20613786Y-14070929D01*
X20599500Y-14028071D01*
X20585214Y-13999500D01*
X20556643Y-13956643D01*
X20542357Y-13942357D01*
X13434500Y-14595500D02*
X13484500Y-14545500D01*
X13434500Y-14495500D01*
X13384500Y-14545500D01*
X13434500Y-14595500D01*
X13928071Y-14681214D02*
X13756643Y-14681214D01*
X13842357Y-14681214D02*
X13842357Y-14381214D01*
X13813786Y-14424071D01*
X13785214Y-14452643D01*
X13756643Y-14466929D01*
X14056643Y-14652643D02*
X14070928Y-14666929D01*
X14056643Y-14681214D01*
X14042357Y-14666929D01*
X14056643Y-14652643D01*
X14056643Y-14681214D01*
X14256643Y-14381214D02*
X14285214Y-14381214D01*
X14313786Y-14395500D01*
X14328071Y-14409786D01*
X14342357Y-14438357D01*
X14356643Y-14495500D01*
X14356643Y-14566929D01*
X14342357Y-14624071D01*
X14328071Y-14652643D01*
X14313786Y-14666929D01*
X14285214Y-14681214D01*
X14256643Y-14681214D01*
X14228071Y-14666929D01*
X14213786Y-14652643D01*
X14199500Y-14624071D01*
X14185214Y-14566929D01*
X14185214Y-14495500D01*
X14199500Y-14438357D01*
X14213786Y-14409786D01*
X14228071Y-14395500D01*
X14256643Y-14381214D01*
X14542357Y-14381214D02*
X14570928Y-14381214D01*
X14599500Y-14395500D01*
X14613786Y-14409786D01*
X14628071Y-14438357D01*
X14642357Y-14495500D01*
X14642357Y-14566929D01*
X14628071Y-14624071D01*
X14613786Y-14652643D01*
X14599500Y-14666929D01*
X14570928Y-14681214D01*
X14542357Y-14681214D01*
X14513786Y-14666929D01*
X14499500Y-14652643D01*
X14485214Y-14624071D01*
X14470928Y-14566929D01*
X14470928Y-14495500D01*
X14485214Y-14438357D01*
X14499500Y-14409786D01*
X14513786Y-14395500D01*
X14542357Y-14381214D01*
X14770928Y-14681214D02*
X14770928Y-14481214D01*
X14770928Y-14509786D02*
X14785214Y-14495500D01*
X14813786Y-14481214D01*
X14856643Y-14481214D01*
X14885214Y-14495500D01*
X14899500Y-14524071D01*
X14899500Y-14681214D01*
X14899500Y-14524071D02*
X14913786Y-14495500D01*
X14942357Y-14481214D01*
X14985214Y-14481214D01*
X15013786Y-14495500D01*
X15028071Y-14524071D01*
X15028071Y-14681214D01*
X15170928Y-14681214D02*
X15170928Y-14481214D01*
X15170928Y-14509786D02*
X15185214Y-14495500D01*
X15213786Y-14481214D01*
X15256643Y-14481214D01*
X15285214Y-14495500D01*
X15299500Y-14524071D01*
X15299500Y-14681214D01*
X15299500Y-14524071D02*
X15313786Y-14495500D01*
X15342357Y-14481214D01*
X15385214Y-14481214D01*
X15413786Y-14495500D01*
X15428071Y-14524071D01*
X15428071Y-14681214D01*
X16013786Y-14366929D02*
X15756643Y-14752643D01*
X16399500Y-14381214D02*
X16428071Y-14381214D01*
X16456643Y-14395500D01*
X16470928Y-14409786D01*
X16485214Y-14438357D01*
X16499500Y-14495500D01*
X16499500Y-14566929D01*
X16485214Y-14624071D01*
X16470928Y-14652643D01*
X16456643Y-14666929D01*
X16428071Y-14681214D01*
X16399500Y-14681214D01*
X16370928Y-14666929D01*
X16356643Y-14652643D01*
X16342357Y-14624071D01*
X16328071Y-14566929D01*
X16328071Y-14495500D01*
X16342357Y-14438357D01*
X16356643Y-14409786D01*
X16370928Y-14395500D01*
X16399500Y-14381214D01*
X16628071Y-14652643D02*
X16642357Y-14666929D01*
X16628071Y-14681214D01*
X16613786Y-14666929D01*
X16628071Y-14652643D01*
X16628071Y-14681214D01*
X16828071Y-14381214D02*
X16856643Y-14381214D01*
X16885214Y-14395500D01*
X16899500Y-14409786D01*
X16913786Y-14438357D01*
X16928071Y-14495500D01*
X16928071Y-14566929D01*
X16913786Y-14624071D01*
X16899500Y-14652643D01*
X16885214Y-14666929D01*
X16856643Y-14681214D01*
X16828071Y-14681214D01*
X16799500Y-14666929D01*
X16785214Y-14652643D01*
X16770928Y-14624071D01*
X16756643Y-14566929D01*
X16756643Y-14495500D01*
X16770928Y-14438357D01*
X16785214Y-14409786D01*
X16799500Y-14395500D01*
X16828071Y-14381214D01*
X17028071Y-14381214D02*
X17213786Y-14381214D01*
X17113786Y-14495500D01*
X17156643Y-14495500D01*
X17185214Y-14509786D01*
X17199500Y-14524071D01*
X17213786Y-14552643D01*
X17213786Y-14624071D01*
X17199500Y-14652643D01*
X17185214Y-14666929D01*
X17156643Y-14681214D01*
X17070928Y-14681214D01*
X17042357Y-14666929D01*
X17028071Y-14652643D01*
X17356643Y-14681214D02*
X17413786Y-14681214D01*
X17442357Y-14666929D01*
X17456643Y-14652643D01*
X17485214Y-14609786D01*
X17499500Y-14552643D01*
X17499500Y-14438357D01*
X17485214Y-14409786D01*
X17470928Y-14395500D01*
X17442357Y-14381214D01*
X17385214Y-14381214D01*
X17356643Y-14395500D01*
X17342357Y-14409786D01*
X17328071Y-14438357D01*
X17328071Y-14509786D01*
X17342357Y-14538357D01*
X17356643Y-14552643D01*
X17385214Y-14566929D01*
X17442357Y-14566929D01*
X17470928Y-14552643D01*
X17485214Y-14538357D01*
X17499500Y-14509786D01*
X17613786Y-14381214D02*
X17613786Y-14438357D01*
X17728071Y-14381214D02*
X17728071Y-14438357D01*
X18170928Y-14795500D02*
X18156643Y-14781214D01*
X18128071Y-14738357D01*
X18113786Y-14709786D01*
X18099500Y-14666929D01*
X18085214Y-14595500D01*
X18085214Y-14538357D01*
X18099500Y-14466929D01*
X18113786Y-14424071D01*
X18128071Y-14395500D01*
X18156643Y-14352643D01*
X18170928Y-14338357D01*
X18270928Y-14409786D02*
X18285214Y-14395500D01*
X18313786Y-14381214D01*
X18385214Y-14381214D01*
X18413786Y-14395500D01*
X18428071Y-14409786D01*
X18442357Y-14438357D01*
X18442357Y-14466929D01*
X18428071Y-14509786D01*
X18256643Y-14681214D01*
X18442357Y-14681214D01*
X18585214Y-14681214D02*
X18642357Y-14681214D01*
X18670928Y-14666929D01*
X18685214Y-14652643D01*
X18713786Y-14609786D01*
X18728071Y-14552643D01*
X18728071Y-14438357D01*
X18713786Y-14409786D01*
X18699500Y-14395500D01*
X18670928Y-14381214D01*
X18613786Y-14381214D01*
X18585214Y-14395500D01*
X18570928Y-14409786D01*
X18556643Y-14438357D01*
X18556643Y-14509786D01*
X18570928Y-14538357D01*
X18585214Y-14552643D01*
X18613786Y-14566929D01*
X18670928Y-14566929D01*
X18699500Y-14552643D01*
X18713786Y-14538357D01*
X18728071Y-14509786D01*
X19085214Y-14681214D02*
X19085214Y-14381214D01*
X19213786Y-14681214D02*
X19213786Y-14524071D01*
X19199500Y-14495500D01*
X19170928Y-14481214D01*
X19128071Y-14481214D01*
X19099500Y-14495500D01*
X19085214Y-14509786D01*
X19399500Y-14681214D02*
X19370928Y-14666929D01*
X19356643Y-14652643D01*
X19342357Y-14624071D01*
X19342357Y-14538357D01*
X19356643Y-14509786D01*
X19370928Y-14495500D01*
X19399500Y-14481214D01*
X19442357Y-14481214D01*
X19470928Y-14495500D01*
X19485214Y-14509786D01*
X19499500Y-14538357D01*
X19499500Y-14624071D01*
X19485214Y-14652643D01*
X19470928Y-14666929D01*
X19442357Y-14681214D01*
X19399500Y-14681214D01*
X19670928Y-14681214D02*
X19642357Y-14666929D01*
X19628071Y-14638357D01*
X19628071Y-14381214D01*
X19899500Y-14666929D02*
X19870928Y-14681214D01*
X19813786Y-14681214D01*
X19785214Y-14666929D01*
X19770928Y-14638357D01*
X19770928Y-14524071D01*
X19785214Y-14495500D01*
X19813786Y-14481214D01*
X19870928Y-14481214D01*
X19899500Y-14495500D01*
X19913786Y-14524071D01*
X19913786Y-14552643D01*
X19770928Y-14581214D01*
X20028071Y-14666929D02*
X20056643Y-14681214D01*
X20113786Y-14681214D01*
X20142357Y-14666929D01*
X20156643Y-14638357D01*
X20156643Y-14624071D01*
X20142357Y-14595500D01*
X20113786Y-14581214D01*
X20070928Y-14581214D01*
X20042357Y-14566929D01*
X20028071Y-14538357D01*
X20028071Y-14524071D01*
X20042357Y-14495500D01*
X20070928Y-14481214D01*
X20113786Y-14481214D01*
X20142357Y-14495500D01*
X20256643Y-14795500D02*
X20270928Y-14781214D01*
X20299500Y-14738357D01*
X20313786Y-14709786D01*
X20328071Y-14666929D01*
X20342357Y-14595500D01*
X20342357Y-14538357D01*
X20328071Y-14466929D01*
X20313786Y-14424071D01*
X20299500Y-14395500D01*
X20270928Y-14352643D01*
X20256643Y-14338357D01*
X13354500Y-14876500D02*
X13484500Y-15006500D01*
X13484500Y-14876500D02*
X13354500Y-15006500D01*
X13484500Y-14941500D02*
G75*
G03*
X13484500Y-14941500I-65000J0D01*
G01*
X13928071Y-15077214D02*
X13756643Y-15077214D01*
X13842357Y-15077214D02*
X13842357Y-14777214D01*
X13813786Y-14820071D01*
X13785214Y-14848643D01*
X13756643Y-14862929D01*
X14056643Y-15048643D02*
X14070928Y-15062929D01*
X14056643Y-15077214D01*
X14042357Y-15062929D01*
X14056643Y-15048643D01*
X14056643Y-15077214D01*
X14170928Y-14777214D02*
X14356643Y-14777214D01*
X14256643Y-14891500D01*
X14299500Y-14891500D01*
X14328071Y-14905786D01*
X14342357Y-14920071D01*
X14356643Y-14948643D01*
X14356643Y-15020071D01*
X14342357Y-15048643D01*
X14328071Y-15062929D01*
X14299500Y-15077214D01*
X14213786Y-15077214D01*
X14185214Y-15062929D01*
X14170928Y-15048643D01*
X14542357Y-14777214D02*
X14570928Y-14777214D01*
X14599500Y-14791500D01*
X14613786Y-14805786D01*
X14628071Y-14834357D01*
X14642357Y-14891500D01*
X14642357Y-14962929D01*
X14628071Y-15020071D01*
X14613786Y-15048643D01*
X14599500Y-15062929D01*
X14570928Y-15077214D01*
X14542357Y-15077214D01*
X14513786Y-15062929D01*
X14499500Y-15048643D01*
X14485214Y-15020071D01*
X14470928Y-14962929D01*
X14470928Y-14891500D01*
X14485214Y-14834357D01*
X14499500Y-14805786D01*
X14513786Y-14791500D01*
X14542357Y-14777214D01*
X14770928Y-15077214D02*
X14770928Y-14877214D01*
X14770928Y-14905786D02*
X14785214Y-14891500D01*
X14813786Y-14877214D01*
X14856643Y-14877214D01*
X14885214Y-14891500D01*
X14899500Y-14920071D01*
X14899500Y-15077214D01*
X14899500Y-14920071D02*
X14913786Y-14891500D01*
X14942357Y-14877214D01*
X14985214Y-14877214D01*
X15013786Y-14891500D01*
X15028071Y-14920071D01*
X15028071Y-15077214D01*
X15170928Y-15077214D02*
X15170928Y-14877214D01*
X15170928Y-14905786D02*
X15185214Y-14891500D01*
X15213786Y-14877214D01*
X15256643Y-14877214D01*
X15285214Y-14891500D01*
X15299500Y-14920071D01*
X15299500Y-15077214D01*
X15299500Y-14920071D02*
X15313786Y-14891500D01*
X15342357Y-14877214D01*
X15385214Y-14877214D01*
X15413786Y-14891500D01*
X15428071Y-14920071D01*
X15428071Y-15077214D01*
X16013786Y-14762929D02*
X15756643Y-15148643D01*
X16399500Y-14777214D02*
X16428071Y-14777214D01*
X16456643Y-14791500D01*
X16470928Y-14805786D01*
X16485214Y-14834357D01*
X16499500Y-14891500D01*
X16499500Y-14962929D01*
X16485214Y-15020071D01*
X16470928Y-15048643D01*
X16456643Y-15062929D01*
X16428071Y-15077214D01*
X16399500Y-15077214D01*
X16370928Y-15062929D01*
X16356643Y-15048643D01*
X16342357Y-15020071D01*
X16328071Y-14962929D01*
X16328071Y-14891500D01*
X16342357Y-14834357D01*
X16356643Y-14805786D01*
X16370928Y-14791500D01*
X16399500Y-14777214D01*
X16628071Y-15048643D02*
X16642357Y-15062929D01*
X16628071Y-15077214D01*
X16613786Y-15062929D01*
X16628071Y-15048643D01*
X16628071Y-15077214D01*
X16828071Y-14777214D02*
X16856643Y-14777214D01*
X16885214Y-14791500D01*
X16899500Y-14805786D01*
X16913786Y-14834357D01*
X16928071Y-14891500D01*
X16928071Y-14962929D01*
X16913786Y-15020071D01*
X16899500Y-15048643D01*
X16885214Y-15062929D01*
X16856643Y-15077214D01*
X16828071Y-15077214D01*
X16799500Y-15062929D01*
X16785214Y-15048643D01*
X16770928Y-15020071D01*
X16756643Y-14962929D01*
X16756643Y-14891500D01*
X16770928Y-14834357D01*
X16785214Y-14805786D01*
X16799500Y-14791500D01*
X16828071Y-14777214D01*
X17199500Y-14777214D02*
X17056643Y-14777214D01*
X17042357Y-14920071D01*
X17056643Y-14905786D01*
X17085214Y-14891500D01*
X17156643Y-14891500D01*
X17185214Y-14905786D01*
X17199500Y-14920071D01*
X17213786Y-14948643D01*
X17213786Y-15020071D01*
X17199500Y-15048643D01*
X17185214Y-15062929D01*
X17156643Y-15077214D01*
X17085214Y-15077214D01*
X17056643Y-15062929D01*
X17042357Y-15048643D01*
X17499500Y-15077214D02*
X17328071Y-15077214D01*
X17413786Y-15077214D02*
X17413786Y-14777214D01*
X17385214Y-14820071D01*
X17356643Y-14848643D01*
X17328071Y-14862929D01*
X17613786Y-14777214D02*
X17613786Y-14834357D01*
X17728071Y-14777214D02*
X17728071Y-14834357D01*
X18170928Y-15191500D02*
X18156643Y-15177214D01*
X18128071Y-15134357D01*
X18113786Y-15105786D01*
X18099500Y-15062929D01*
X18085214Y-14991500D01*
X18085214Y-14934357D01*
X18099500Y-14862929D01*
X18113786Y-14820071D01*
X18128071Y-14791500D01*
X18156643Y-14748643D01*
X18170928Y-14734357D01*
X18413786Y-14777214D02*
X18356643Y-14777214D01*
X18328071Y-14791500D01*
X18313786Y-14805786D01*
X18285214Y-14848643D01*
X18270928Y-14905786D01*
X18270928Y-15020071D01*
X18285214Y-15048643D01*
X18299500Y-15062929D01*
X18328071Y-15077214D01*
X18385214Y-15077214D01*
X18413786Y-15062929D01*
X18428071Y-15048643D01*
X18442357Y-15020071D01*
X18442357Y-14948643D01*
X18428071Y-14920071D01*
X18413786Y-14905786D01*
X18385214Y-14891500D01*
X18328071Y-14891500D01*
X18299500Y-14905786D01*
X18285214Y-14920071D01*
X18270928Y-14948643D01*
X18799500Y-15077214D02*
X18799500Y-14777214D01*
X18928071Y-15077214D02*
X18928071Y-14920071D01*
X18913786Y-14891500D01*
X18885214Y-14877214D01*
X18842357Y-14877214D01*
X18813786Y-14891500D01*
X18799500Y-14905786D01*
X19113786Y-15077214D02*
X19085214Y-15062929D01*
X19070928Y-15048643D01*
X19056643Y-15020071D01*
X19056643Y-14934357D01*
X19070928Y-14905786D01*
X19085214Y-14891500D01*
X19113786Y-14877214D01*
X19156643Y-14877214D01*
X19185214Y-14891500D01*
X19199500Y-14905786D01*
X19213786Y-14934357D01*
X19213786Y-15020071D01*
X19199500Y-15048643D01*
X19185214Y-15062929D01*
X19156643Y-15077214D01*
X19113786Y-15077214D01*
X19385214Y-15077214D02*
X19356643Y-15062929D01*
X19342357Y-15034357D01*
X19342357Y-14777214D01*
X19613786Y-15062929D02*
X19585214Y-15077214D01*
X19528071Y-15077214D01*
X19499500Y-15062929D01*
X19485214Y-15034357D01*
X19485214Y-14920071D01*
X19499500Y-14891500D01*
X19528071Y-14877214D01*
X19585214Y-14877214D01*
X19613786Y-14891500D01*
X19628071Y-14920071D01*
X19628071Y-14948643D01*
X19485214Y-14977214D01*
X19742357Y-15062929D02*
X19770928Y-15077214D01*
X19828071Y-15077214D01*
X19856643Y-15062929D01*
X19870928Y-15034357D01*
X19870928Y-15020071D01*
X19856643Y-14991500D01*
X19828071Y-14977214D01*
X19785214Y-14977214D01*
X19756643Y-14962929D01*
X19742357Y-14934357D01*
X19742357Y-14920071D01*
X19756643Y-14891500D01*
X19785214Y-14877214D01*
X19828071Y-14877214D01*
X19856643Y-14891500D01*
X19970928Y-15191500D02*
X19985214Y-15177214D01*
X20013786Y-15134357D01*
X20028071Y-15105786D01*
X20042357Y-15062929D01*
X20056643Y-14991500D01*
X20056643Y-14934357D01*
X20042357Y-14862929D01*
X20028071Y-14820071D01*
X20013786Y-14791500D01*
X19985214Y-14748643D01*
X19970928Y-14734357D01*
M02*
