G04 #@! TF.GenerationSoftware,KiCad,Pcbnew,(5.1.9)-1*
G04 #@! TF.CreationDate,2023-05-09T22:05:53+01:00*
G04 #@! TF.ProjectId,AT65C02_HEX_rev003,41543635-4330-4325-9f48-45585f726576,Rev003*
G04 #@! TF.SameCoordinates,Original*
G04 #@! TF.FileFunction,Legend,Bot*
G04 #@! TF.FilePolarity,Positive*
%FSLAX46Y46*%
G04 Gerber Fmt 4.6, Leading zero omitted, Abs format (unit mm)*
G04 Created by KiCad (PCBNEW (5.1.9)-1) date 2023-05-09 22:05:53*
%MOMM*%
%LPD*%
G01*
G04 APERTURE LIST*
%ADD10C,0.200000*%
%ADD11C,0.010000*%
%ADD12C,0.120000*%
%ADD13C,0.150000*%
%ADD14C,1.702000*%
%ADD15O,1.626000X2.626000*%
%ADD16O,1.602000X1.152000*%
%ADD17O,1.702000X1.702000*%
%ADD18C,2.442000*%
%ADD19O,1.802000X1.802000*%
%ADD20C,2.302000*%
G04 APERTURE END LIST*
D10*
X206502857Y-59678571D02*
X206502857Y-58178571D01*
X205860000Y-59678571D02*
X205860000Y-58892857D01*
X205931428Y-58750000D01*
X206074285Y-58678571D01*
X206288571Y-58678571D01*
X206431428Y-58750000D01*
X206502857Y-58821428D01*
X205360000Y-58678571D02*
X204788571Y-58678571D01*
X205145714Y-58178571D02*
X205145714Y-59464285D01*
X205074285Y-59607142D01*
X204931428Y-59678571D01*
X204788571Y-59678571D01*
X204502857Y-58678571D02*
X203931428Y-58678571D01*
X204288571Y-58178571D02*
X204288571Y-59464285D01*
X204217142Y-59607142D01*
X204074285Y-59678571D01*
X203931428Y-59678571D01*
X203431428Y-58678571D02*
X203431428Y-60178571D01*
X203431428Y-58750000D02*
X203288571Y-58678571D01*
X203002857Y-58678571D01*
X202860000Y-58750000D01*
X202788571Y-58821428D01*
X202717142Y-58964285D01*
X202717142Y-59392857D01*
X202788571Y-59535714D01*
X202860000Y-59607142D01*
X203002857Y-59678571D01*
X203288571Y-59678571D01*
X203431428Y-59607142D01*
X202145714Y-59607142D02*
X202002857Y-59678571D01*
X201717142Y-59678571D01*
X201574285Y-59607142D01*
X201502857Y-59464285D01*
X201502857Y-59392857D01*
X201574285Y-59250000D01*
X201717142Y-59178571D01*
X201931428Y-59178571D01*
X202074285Y-59107142D01*
X202145714Y-58964285D01*
X202145714Y-58892857D01*
X202074285Y-58750000D01*
X201931428Y-58678571D01*
X201717142Y-58678571D01*
X201574285Y-58750000D01*
X200860000Y-59535714D02*
X200788571Y-59607142D01*
X200860000Y-59678571D01*
X200931428Y-59607142D01*
X200860000Y-59535714D01*
X200860000Y-59678571D01*
X200860000Y-58750000D02*
X200788571Y-58821428D01*
X200860000Y-58892857D01*
X200931428Y-58821428D01*
X200860000Y-58750000D01*
X200860000Y-58892857D01*
X199074285Y-58107142D02*
X200360000Y-60035714D01*
X197502857Y-58107142D02*
X198788571Y-60035714D01*
X196360000Y-58678571D02*
X196360000Y-59892857D01*
X196431428Y-60035714D01*
X196502857Y-60107142D01*
X196645714Y-60178571D01*
X196860000Y-60178571D01*
X197002857Y-60107142D01*
X196360000Y-59607142D02*
X196502857Y-59678571D01*
X196788571Y-59678571D01*
X196931428Y-59607142D01*
X197002857Y-59535714D01*
X197074285Y-59392857D01*
X197074285Y-58964285D01*
X197002857Y-58821428D01*
X196931428Y-58750000D01*
X196788571Y-58678571D01*
X196502857Y-58678571D01*
X196360000Y-58750000D01*
X195645714Y-59678571D02*
X195645714Y-58678571D01*
X195645714Y-58178571D02*
X195717142Y-58250000D01*
X195645714Y-58321428D01*
X195574285Y-58250000D01*
X195645714Y-58178571D01*
X195645714Y-58321428D01*
X195145714Y-58678571D02*
X194574285Y-58678571D01*
X194931428Y-58178571D02*
X194931428Y-59464285D01*
X194860000Y-59607142D01*
X194717142Y-59678571D01*
X194574285Y-59678571D01*
X194074285Y-59678571D02*
X194074285Y-58178571D01*
X193431428Y-59678571D02*
X193431428Y-58892857D01*
X193502857Y-58750000D01*
X193645714Y-58678571D01*
X193860000Y-58678571D01*
X194002857Y-58750000D01*
X194074285Y-58821428D01*
X192074285Y-58678571D02*
X192074285Y-59678571D01*
X192717142Y-58678571D02*
X192717142Y-59464285D01*
X192645714Y-59607142D01*
X192502857Y-59678571D01*
X192288571Y-59678571D01*
X192145714Y-59607142D01*
X192074285Y-59535714D01*
X191360000Y-59678571D02*
X191360000Y-58178571D01*
X191360000Y-58750000D02*
X191217142Y-58678571D01*
X190931428Y-58678571D01*
X190788571Y-58750000D01*
X190717142Y-58821428D01*
X190645714Y-58964285D01*
X190645714Y-59392857D01*
X190717142Y-59535714D01*
X190788571Y-59607142D01*
X190931428Y-59678571D01*
X191217142Y-59678571D01*
X191360000Y-59607142D01*
X190002857Y-59535714D02*
X189931428Y-59607142D01*
X190002857Y-59678571D01*
X190074285Y-59607142D01*
X190002857Y-59535714D01*
X190002857Y-59678571D01*
X188645714Y-59607142D02*
X188788571Y-59678571D01*
X189074285Y-59678571D01*
X189217142Y-59607142D01*
X189288571Y-59535714D01*
X189360000Y-59392857D01*
X189360000Y-58964285D01*
X189288571Y-58821428D01*
X189217142Y-58750000D01*
X189074285Y-58678571D01*
X188788571Y-58678571D01*
X188645714Y-58750000D01*
X187788571Y-59678571D02*
X187931428Y-59607142D01*
X188002857Y-59535714D01*
X188074285Y-59392857D01*
X188074285Y-58964285D01*
X188002857Y-58821428D01*
X187931428Y-58750000D01*
X187788571Y-58678571D01*
X187574285Y-58678571D01*
X187431428Y-58750000D01*
X187360000Y-58821428D01*
X187288571Y-58964285D01*
X187288571Y-59392857D01*
X187360000Y-59535714D01*
X187431428Y-59607142D01*
X187574285Y-59678571D01*
X187788571Y-59678571D01*
X186645714Y-59678571D02*
X186645714Y-58678571D01*
X186645714Y-58821428D02*
X186574285Y-58750000D01*
X186431428Y-58678571D01*
X186217142Y-58678571D01*
X186074285Y-58750000D01*
X186002857Y-58892857D01*
X186002857Y-59678571D01*
X186002857Y-58892857D02*
X185931428Y-58750000D01*
X185788571Y-58678571D01*
X185574285Y-58678571D01*
X185431428Y-58750000D01*
X185360000Y-58892857D01*
X185360000Y-59678571D01*
X183574285Y-58107142D02*
X184860000Y-60035714D01*
X183074285Y-59678571D02*
X183074285Y-58178571D01*
X182217142Y-59678571D02*
X182860000Y-58821428D01*
X182217142Y-58178571D02*
X183074285Y-59035714D01*
X180931428Y-59678571D02*
X180931428Y-58892857D01*
X181002857Y-58750000D01*
X181145714Y-58678571D01*
X181431428Y-58678571D01*
X181574285Y-58750000D01*
X180931428Y-59607142D02*
X181074285Y-59678571D01*
X181431428Y-59678571D01*
X181574285Y-59607142D01*
X181645714Y-59464285D01*
X181645714Y-59321428D01*
X181574285Y-59178571D01*
X181431428Y-59107142D01*
X181074285Y-59107142D01*
X180931428Y-59035714D01*
X180360000Y-58678571D02*
X180002857Y-59678571D01*
X179645714Y-58678571D02*
X180002857Y-59678571D01*
X180145714Y-60035714D01*
X180217142Y-60107142D01*
X180360000Y-60178571D01*
X179288571Y-58678571D02*
X178717142Y-58678571D01*
X179074285Y-58178571D02*
X179074285Y-59464285D01*
X179002857Y-59607142D01*
X178860000Y-59678571D01*
X178717142Y-59678571D01*
X178002857Y-59678571D02*
X178145714Y-59607142D01*
X178217142Y-59535714D01*
X178288571Y-59392857D01*
X178288571Y-58964285D01*
X178217142Y-58821428D01*
X178145714Y-58750000D01*
X178002857Y-58678571D01*
X177788571Y-58678571D01*
X177645714Y-58750000D01*
X177574285Y-58821428D01*
X177502857Y-58964285D01*
X177502857Y-59392857D01*
X177574285Y-59535714D01*
X177645714Y-59607142D01*
X177788571Y-59678571D01*
X178002857Y-59678571D01*
X171152857Y-47753571D02*
X171152857Y-46253571D01*
X170581428Y-46253571D01*
X170438571Y-46325000D01*
X170367142Y-46396428D01*
X170295714Y-46539285D01*
X170295714Y-46753571D01*
X170367142Y-46896428D01*
X170438571Y-46967857D01*
X170581428Y-47039285D01*
X171152857Y-47039285D01*
X168795714Y-47610714D02*
X168867142Y-47682142D01*
X169081428Y-47753571D01*
X169224285Y-47753571D01*
X169438571Y-47682142D01*
X169581428Y-47539285D01*
X169652857Y-47396428D01*
X169724285Y-47110714D01*
X169724285Y-46896428D01*
X169652857Y-46610714D01*
X169581428Y-46467857D01*
X169438571Y-46325000D01*
X169224285Y-46253571D01*
X169081428Y-46253571D01*
X168867142Y-46325000D01*
X168795714Y-46396428D01*
X167652857Y-46967857D02*
X167438571Y-47039285D01*
X167367142Y-47110714D01*
X167295714Y-47253571D01*
X167295714Y-47467857D01*
X167367142Y-47610714D01*
X167438571Y-47682142D01*
X167581428Y-47753571D01*
X168152857Y-47753571D01*
X168152857Y-46253571D01*
X167652857Y-46253571D01*
X167510000Y-46325000D01*
X167438571Y-46396428D01*
X167367142Y-46539285D01*
X167367142Y-46682142D01*
X167438571Y-46825000D01*
X167510000Y-46896428D01*
X167652857Y-46967857D01*
X168152857Y-46967857D01*
X165510000Y-47753571D02*
X165510000Y-46253571D01*
X165510000Y-46825000D02*
X165367142Y-46753571D01*
X165081428Y-46753571D01*
X164938571Y-46825000D01*
X164867142Y-46896428D01*
X164795714Y-47039285D01*
X164795714Y-47467857D01*
X164867142Y-47610714D01*
X164938571Y-47682142D01*
X165081428Y-47753571D01*
X165367142Y-47753571D01*
X165510000Y-47682142D01*
X164295714Y-46753571D02*
X163938571Y-47753571D01*
X163581428Y-46753571D02*
X163938571Y-47753571D01*
X164081428Y-48110714D01*
X164152857Y-48182142D01*
X164295714Y-48253571D01*
X161938571Y-47325000D02*
X161224285Y-47325000D01*
X162081428Y-47753571D02*
X161581428Y-46253571D01*
X161081428Y-47753571D01*
X159938571Y-47753571D02*
X159938571Y-46253571D01*
X159938571Y-47682142D02*
X160081428Y-47753571D01*
X160367142Y-47753571D01*
X160510000Y-47682142D01*
X160581428Y-47610714D01*
X160652857Y-47467857D01*
X160652857Y-47039285D01*
X160581428Y-46896428D01*
X160510000Y-46825000D01*
X160367142Y-46753571D01*
X160081428Y-46753571D01*
X159938571Y-46825000D01*
X158581428Y-47753571D02*
X158581428Y-46967857D01*
X158652857Y-46825000D01*
X158795714Y-46753571D01*
X159081428Y-46753571D01*
X159224285Y-46825000D01*
X158581428Y-47682142D02*
X158724285Y-47753571D01*
X159081428Y-47753571D01*
X159224285Y-47682142D01*
X159295714Y-47539285D01*
X159295714Y-47396428D01*
X159224285Y-47253571D01*
X159081428Y-47182142D01*
X158724285Y-47182142D01*
X158581428Y-47110714D01*
X157867142Y-47753571D02*
X157867142Y-46753571D01*
X157867142Y-46896428D02*
X157795714Y-46825000D01*
X157652857Y-46753571D01*
X157438571Y-46753571D01*
X157295714Y-46825000D01*
X157224285Y-46967857D01*
X157224285Y-47753571D01*
X157224285Y-46967857D02*
X157152857Y-46825000D01*
X157010000Y-46753571D01*
X156795714Y-46753571D01*
X156652857Y-46825000D01*
X156581428Y-46967857D01*
X156581428Y-47753571D01*
X156081428Y-46253571D02*
X155224285Y-46253571D01*
X155652857Y-47753571D02*
X155652857Y-46253571D01*
X153938571Y-47753571D02*
X154795714Y-47753571D01*
X154367142Y-47753571D02*
X154367142Y-46253571D01*
X154510000Y-46467857D01*
X154652857Y-46610714D01*
X154795714Y-46682142D01*
X152510000Y-47753571D02*
X153367142Y-47753571D01*
X152938571Y-47753571D02*
X152938571Y-46253571D01*
X153081428Y-46467857D01*
X153224285Y-46610714D01*
X153367142Y-46682142D01*
X152010000Y-46253571D02*
X151010000Y-46253571D01*
X151652857Y-47753571D01*
X214287619Y-46333333D02*
X213335238Y-46333333D01*
X214478095Y-46904761D02*
X213811428Y-44904761D01*
X213144761Y-46904761D01*
X212763809Y-44904761D02*
X211620952Y-44904761D01*
X212192380Y-46904761D02*
X212192380Y-44904761D01*
X210097142Y-44904761D02*
X210478095Y-44904761D01*
X210668571Y-45000000D01*
X210763809Y-45095238D01*
X210954285Y-45380952D01*
X211049523Y-45761904D01*
X211049523Y-46523809D01*
X210954285Y-46714285D01*
X210859047Y-46809523D01*
X210668571Y-46904761D01*
X210287619Y-46904761D01*
X210097142Y-46809523D01*
X210001904Y-46714285D01*
X209906666Y-46523809D01*
X209906666Y-46047619D01*
X210001904Y-45857142D01*
X210097142Y-45761904D01*
X210287619Y-45666666D01*
X210668571Y-45666666D01*
X210859047Y-45761904D01*
X210954285Y-45857142D01*
X211049523Y-46047619D01*
X208097142Y-44904761D02*
X209049523Y-44904761D01*
X209144761Y-45857142D01*
X209049523Y-45761904D01*
X208859047Y-45666666D01*
X208382857Y-45666666D01*
X208192380Y-45761904D01*
X208097142Y-45857142D01*
X208001904Y-46047619D01*
X208001904Y-46523809D01*
X208097142Y-46714285D01*
X208192380Y-46809523D01*
X208382857Y-46904761D01*
X208859047Y-46904761D01*
X209049523Y-46809523D01*
X209144761Y-46714285D01*
X206001904Y-46714285D02*
X206097142Y-46809523D01*
X206382857Y-46904761D01*
X206573333Y-46904761D01*
X206859047Y-46809523D01*
X207049523Y-46619047D01*
X207144761Y-46428571D01*
X207240000Y-46047619D01*
X207240000Y-45761904D01*
X207144761Y-45380952D01*
X207049523Y-45190476D01*
X206859047Y-45000000D01*
X206573333Y-44904761D01*
X206382857Y-44904761D01*
X206097142Y-45000000D01*
X206001904Y-45095238D01*
X204763809Y-44904761D02*
X204573333Y-44904761D01*
X204382857Y-45000000D01*
X204287619Y-45095238D01*
X204192380Y-45285714D01*
X204097142Y-45666666D01*
X204097142Y-46142857D01*
X204192380Y-46523809D01*
X204287619Y-46714285D01*
X204382857Y-46809523D01*
X204573333Y-46904761D01*
X204763809Y-46904761D01*
X204954285Y-46809523D01*
X205049523Y-46714285D01*
X205144761Y-46523809D01*
X205240000Y-46142857D01*
X205240000Y-45666666D01*
X205144761Y-45285714D01*
X205049523Y-45095238D01*
X204954285Y-45000000D01*
X204763809Y-44904761D01*
X203335238Y-45095238D02*
X203240000Y-45000000D01*
X203049523Y-44904761D01*
X202573333Y-44904761D01*
X202382857Y-45000000D01*
X202287619Y-45095238D01*
X202192380Y-45285714D01*
X202192380Y-45476190D01*
X202287619Y-45761904D01*
X203430476Y-46904761D01*
X202192380Y-46904761D01*
X216620952Y-50104761D02*
X216620952Y-48104761D01*
X216620952Y-49057142D02*
X215478095Y-49057142D01*
X215478095Y-50104761D02*
X215478095Y-48104761D01*
X213763809Y-50009523D02*
X213954285Y-50104761D01*
X214335238Y-50104761D01*
X214525714Y-50009523D01*
X214620952Y-49819047D01*
X214620952Y-49057142D01*
X214525714Y-48866666D01*
X214335238Y-48771428D01*
X213954285Y-48771428D01*
X213763809Y-48866666D01*
X213668571Y-49057142D01*
X213668571Y-49247619D01*
X214620952Y-49438095D01*
X213001904Y-50104761D02*
X211954285Y-48771428D01*
X213001904Y-48771428D02*
X211954285Y-50104761D01*
X209668571Y-50104761D02*
X209668571Y-48104761D01*
X209192380Y-48104761D01*
X208906666Y-48200000D01*
X208716190Y-48390476D01*
X208620952Y-48580952D01*
X208525714Y-48961904D01*
X208525714Y-49247619D01*
X208620952Y-49628571D01*
X208716190Y-49819047D01*
X208906666Y-50009523D01*
X209192380Y-50104761D01*
X209668571Y-50104761D01*
X207668571Y-50104761D02*
X207668571Y-48771428D01*
X207668571Y-48104761D02*
X207763809Y-48200000D01*
X207668571Y-48295238D01*
X207573333Y-48200000D01*
X207668571Y-48104761D01*
X207668571Y-48295238D01*
X206811428Y-50009523D02*
X206620952Y-50104761D01*
X206240000Y-50104761D01*
X206049523Y-50009523D01*
X205954285Y-49819047D01*
X205954285Y-49723809D01*
X206049523Y-49533333D01*
X206240000Y-49438095D01*
X206525714Y-49438095D01*
X206716190Y-49342857D01*
X206811428Y-49152380D01*
X206811428Y-49057142D01*
X206716190Y-48866666D01*
X206525714Y-48771428D01*
X206240000Y-48771428D01*
X206049523Y-48866666D01*
X205097142Y-48771428D02*
X205097142Y-50771428D01*
X205097142Y-48866666D02*
X204906666Y-48771428D01*
X204525714Y-48771428D01*
X204335238Y-48866666D01*
X204240000Y-48961904D01*
X204144761Y-49152380D01*
X204144761Y-49723809D01*
X204240000Y-49914285D01*
X204335238Y-50009523D01*
X204525714Y-50104761D01*
X204906666Y-50104761D01*
X205097142Y-50009523D01*
X203001904Y-50104761D02*
X203192380Y-50009523D01*
X203287619Y-49819047D01*
X203287619Y-48104761D01*
X201382857Y-50104761D02*
X201382857Y-49057142D01*
X201478095Y-48866666D01*
X201668571Y-48771428D01*
X202049523Y-48771428D01*
X202240000Y-48866666D01*
X201382857Y-50009523D02*
X201573333Y-50104761D01*
X202049523Y-50104761D01*
X202240000Y-50009523D01*
X202335238Y-49819047D01*
X202335238Y-49628571D01*
X202240000Y-49438095D01*
X202049523Y-49342857D01*
X201573333Y-49342857D01*
X201382857Y-49247619D01*
X200620952Y-48771428D02*
X200144761Y-50104761D01*
X199668571Y-48771428D02*
X200144761Y-50104761D01*
X200335238Y-50580952D01*
X200430476Y-50676190D01*
X200620952Y-50771428D01*
X165902857Y-58892857D02*
X165688571Y-58964285D01*
X165617142Y-59035714D01*
X165545714Y-59178571D01*
X165545714Y-59392857D01*
X165617142Y-59535714D01*
X165688571Y-59607142D01*
X165831428Y-59678571D01*
X166402857Y-59678571D01*
X166402857Y-58178571D01*
X165902857Y-58178571D01*
X165760000Y-58250000D01*
X165688571Y-58321428D01*
X165617142Y-58464285D01*
X165617142Y-58607142D01*
X165688571Y-58750000D01*
X165760000Y-58821428D01*
X165902857Y-58892857D01*
X166402857Y-58892857D01*
X164688571Y-59678571D02*
X164831428Y-59607142D01*
X164902857Y-59535714D01*
X164974285Y-59392857D01*
X164974285Y-58964285D01*
X164902857Y-58821428D01*
X164831428Y-58750000D01*
X164688571Y-58678571D01*
X164474285Y-58678571D01*
X164331428Y-58750000D01*
X164260000Y-58821428D01*
X164188571Y-58964285D01*
X164188571Y-59392857D01*
X164260000Y-59535714D01*
X164331428Y-59607142D01*
X164474285Y-59678571D01*
X164688571Y-59678571D01*
X162902857Y-59678571D02*
X162902857Y-58892857D01*
X162974285Y-58750000D01*
X163117142Y-58678571D01*
X163402857Y-58678571D01*
X163545714Y-58750000D01*
X162902857Y-59607142D02*
X163045714Y-59678571D01*
X163402857Y-59678571D01*
X163545714Y-59607142D01*
X163617142Y-59464285D01*
X163617142Y-59321428D01*
X163545714Y-59178571D01*
X163402857Y-59107142D01*
X163045714Y-59107142D01*
X162902857Y-59035714D01*
X162188571Y-59678571D02*
X162188571Y-58678571D01*
X162188571Y-58964285D02*
X162117142Y-58821428D01*
X162045714Y-58750000D01*
X161902857Y-58678571D01*
X161760000Y-58678571D01*
X160617142Y-59678571D02*
X160617142Y-58178571D01*
X160617142Y-59607142D02*
X160760000Y-59678571D01*
X161045714Y-59678571D01*
X161188571Y-59607142D01*
X161260000Y-59535714D01*
X161331428Y-59392857D01*
X161331428Y-58964285D01*
X161260000Y-58821428D01*
X161188571Y-58750000D01*
X161045714Y-58678571D01*
X160760000Y-58678571D01*
X160617142Y-58750000D01*
X158760000Y-59678571D02*
X158760000Y-58678571D01*
X158760000Y-58964285D02*
X158688571Y-58821428D01*
X158617142Y-58750000D01*
X158474285Y-58678571D01*
X158331428Y-58678571D01*
X157260000Y-59607142D02*
X157402857Y-59678571D01*
X157688571Y-59678571D01*
X157831428Y-59607142D01*
X157902857Y-59464285D01*
X157902857Y-58892857D01*
X157831428Y-58750000D01*
X157688571Y-58678571D01*
X157402857Y-58678571D01*
X157260000Y-58750000D01*
X157188571Y-58892857D01*
X157188571Y-59035714D01*
X157902857Y-59178571D01*
X156688571Y-58678571D02*
X156331428Y-59678571D01*
X155974285Y-58678571D01*
X155402857Y-59678571D02*
X155402857Y-58678571D01*
X155402857Y-58178571D02*
X155474285Y-58250000D01*
X155402857Y-58321428D01*
X155331428Y-58250000D01*
X155402857Y-58178571D01*
X155402857Y-58321428D01*
X154760000Y-59607142D02*
X154617142Y-59678571D01*
X154331428Y-59678571D01*
X154188571Y-59607142D01*
X154117142Y-59464285D01*
X154117142Y-59392857D01*
X154188571Y-59250000D01*
X154331428Y-59178571D01*
X154545714Y-59178571D01*
X154688571Y-59107142D01*
X154760000Y-58964285D01*
X154760000Y-58892857D01*
X154688571Y-58750000D01*
X154545714Y-58678571D01*
X154331428Y-58678571D01*
X154188571Y-58750000D01*
X153474285Y-59678571D02*
X153474285Y-58678571D01*
X153474285Y-58178571D02*
X153545714Y-58250000D01*
X153474285Y-58321428D01*
X153402857Y-58250000D01*
X153474285Y-58178571D01*
X153474285Y-58321428D01*
X152545714Y-59678571D02*
X152688571Y-59607142D01*
X152760000Y-59535714D01*
X152831428Y-59392857D01*
X152831428Y-58964285D01*
X152760000Y-58821428D01*
X152688571Y-58750000D01*
X152545714Y-58678571D01*
X152331428Y-58678571D01*
X152188571Y-58750000D01*
X152117142Y-58821428D01*
X152045714Y-58964285D01*
X152045714Y-59392857D01*
X152117142Y-59535714D01*
X152188571Y-59607142D01*
X152331428Y-59678571D01*
X152545714Y-59678571D01*
X151402857Y-58678571D02*
X151402857Y-59678571D01*
X151402857Y-58821428D02*
X151331428Y-58750000D01*
X151188571Y-58678571D01*
X150974285Y-58678571D01*
X150831428Y-58750000D01*
X150760000Y-58892857D01*
X150760000Y-59678571D01*
X150045714Y-59535714D02*
X149974285Y-59607142D01*
X150045714Y-59678571D01*
X150117142Y-59607142D01*
X150045714Y-59535714D01*
X150045714Y-59678571D01*
X150045714Y-58750000D02*
X149974285Y-58821428D01*
X150045714Y-58892857D01*
X150117142Y-58821428D01*
X150045714Y-58750000D01*
X150045714Y-58892857D01*
X148331428Y-58678571D02*
X147974285Y-59678571D01*
X147617142Y-58678571D01*
X146760000Y-58178571D02*
X146617142Y-58178571D01*
X146474285Y-58250000D01*
X146402857Y-58321428D01*
X146331428Y-58464285D01*
X146260000Y-58750000D01*
X146260000Y-59107142D01*
X146331428Y-59392857D01*
X146402857Y-59535714D01*
X146474285Y-59607142D01*
X146617142Y-59678571D01*
X146760000Y-59678571D01*
X146902857Y-59607142D01*
X146974285Y-59535714D01*
X147045714Y-59392857D01*
X147117142Y-59107142D01*
X147117142Y-58750000D01*
X147045714Y-58464285D01*
X146974285Y-58321428D01*
X146902857Y-58250000D01*
X146760000Y-58178571D01*
X145331428Y-58178571D02*
X145188571Y-58178571D01*
X145045714Y-58250000D01*
X144974285Y-58321428D01*
X144902857Y-58464285D01*
X144831428Y-58750000D01*
X144831428Y-59107142D01*
X144902857Y-59392857D01*
X144974285Y-59535714D01*
X145045714Y-59607142D01*
X145188571Y-59678571D01*
X145331428Y-59678571D01*
X145474285Y-59607142D01*
X145545714Y-59535714D01*
X145617142Y-59392857D01*
X145688571Y-59107142D01*
X145688571Y-58750000D01*
X145617142Y-58464285D01*
X145545714Y-58321428D01*
X145474285Y-58250000D01*
X145331428Y-58178571D01*
X144260000Y-58321428D02*
X144188571Y-58250000D01*
X144045714Y-58178571D01*
X143688571Y-58178571D01*
X143545714Y-58250000D01*
X143474285Y-58321428D01*
X143402857Y-58464285D01*
X143402857Y-58607142D01*
X143474285Y-58821428D01*
X144331428Y-59678571D01*
X143402857Y-59678571D01*
D11*
G36*
X142136090Y-44017348D02*
G01*
X142057546Y-44017778D01*
X142000702Y-44018942D01*
X141961895Y-44021207D01*
X141937462Y-44024940D01*
X141923738Y-44030506D01*
X141917060Y-44038273D01*
X141913764Y-44048605D01*
X141913444Y-44049943D01*
X141908438Y-44074079D01*
X141899171Y-44121701D01*
X141886608Y-44187741D01*
X141871713Y-44267128D01*
X141855449Y-44354796D01*
X141854881Y-44357875D01*
X141838590Y-44443789D01*
X141823348Y-44519696D01*
X141810139Y-44581045D01*
X141799946Y-44623282D01*
X141793752Y-44641855D01*
X141793457Y-44642184D01*
X141775212Y-44651253D01*
X141737595Y-44666367D01*
X141688729Y-44684262D01*
X141688457Y-44684358D01*
X141626907Y-44707493D01*
X141554343Y-44736965D01*
X141485943Y-44766597D01*
X141482706Y-44768062D01*
X141371298Y-44818626D01*
X141124601Y-44650160D01*
X141048923Y-44598803D01*
X140980369Y-44552889D01*
X140922912Y-44515030D01*
X140880524Y-44487837D01*
X140857175Y-44473921D01*
X140854958Y-44472889D01*
X140837990Y-44477484D01*
X140806299Y-44499655D01*
X140758648Y-44540447D01*
X140693802Y-44600905D01*
X140627603Y-44665227D01*
X140563786Y-44728612D01*
X140506671Y-44786451D01*
X140459695Y-44835175D01*
X140426297Y-44871210D01*
X140409915Y-44890984D01*
X140409306Y-44892002D01*
X140407495Y-44905572D01*
X140414317Y-44927733D01*
X140431460Y-44961478D01*
X140460607Y-45009800D01*
X140503445Y-45075692D01*
X140560552Y-45160517D01*
X140611234Y-45235177D01*
X140656539Y-45302140D01*
X140693850Y-45357516D01*
X140720548Y-45397420D01*
X140734015Y-45417962D01*
X140734863Y-45419356D01*
X140733219Y-45439038D01*
X140720755Y-45477293D01*
X140699952Y-45526889D01*
X140692538Y-45542728D01*
X140660186Y-45613290D01*
X140625672Y-45693353D01*
X140597635Y-45762629D01*
X140577432Y-45814045D01*
X140561385Y-45853119D01*
X140552112Y-45873541D01*
X140550959Y-45875114D01*
X140533904Y-45877721D01*
X140493702Y-45884863D01*
X140435698Y-45895523D01*
X140365237Y-45908685D01*
X140287665Y-45923333D01*
X140208328Y-45938449D01*
X140132569Y-45953018D01*
X140065736Y-45966022D01*
X140013172Y-45976445D01*
X139980224Y-45983270D01*
X139972143Y-45985199D01*
X139963795Y-45989962D01*
X139957494Y-46000718D01*
X139952955Y-46021098D01*
X139949896Y-46054734D01*
X139948033Y-46105255D01*
X139947082Y-46176292D01*
X139946760Y-46271476D01*
X139946743Y-46310492D01*
X139946743Y-46627799D01*
X140022943Y-46642839D01*
X140065337Y-46650995D01*
X140128600Y-46662899D01*
X140205038Y-46677116D01*
X140286957Y-46692210D01*
X140309600Y-46696355D01*
X140385194Y-46711053D01*
X140451047Y-46725505D01*
X140501634Y-46738375D01*
X140531426Y-46748322D01*
X140536388Y-46751287D01*
X140548574Y-46772283D01*
X140566047Y-46812967D01*
X140585423Y-46865322D01*
X140589266Y-46876600D01*
X140614661Y-46946523D01*
X140646183Y-47025418D01*
X140677031Y-47096266D01*
X140677183Y-47096595D01*
X140728553Y-47207733D01*
X140559601Y-47456253D01*
X140390648Y-47704772D01*
X140607571Y-47922058D01*
X140673181Y-47986726D01*
X140733021Y-48043733D01*
X140783733Y-48090033D01*
X140821954Y-48122584D01*
X140844325Y-48138343D01*
X140847534Y-48139343D01*
X140866374Y-48131469D01*
X140904820Y-48109578D01*
X140958670Y-48076267D01*
X141023724Y-48034131D01*
X141094060Y-47986943D01*
X141165445Y-47938810D01*
X141229092Y-47896928D01*
X141280959Y-47863871D01*
X141317005Y-47842218D01*
X141333133Y-47834543D01*
X141352811Y-47841037D01*
X141390125Y-47858150D01*
X141437379Y-47882326D01*
X141442388Y-47885013D01*
X141506023Y-47916927D01*
X141549659Y-47932579D01*
X141576798Y-47932745D01*
X141590943Y-47918204D01*
X141591025Y-47918000D01*
X141598095Y-47900779D01*
X141614958Y-47859899D01*
X141640305Y-47798525D01*
X141672829Y-47719819D01*
X141711222Y-47626947D01*
X141754178Y-47523072D01*
X141795778Y-47422502D01*
X141841496Y-47311516D01*
X141883474Y-47208703D01*
X141920452Y-47117215D01*
X141951173Y-47040201D01*
X141974378Y-46980815D01*
X141988810Y-46942209D01*
X141993257Y-46927800D01*
X141982104Y-46911272D01*
X141952931Y-46884930D01*
X141914029Y-46855887D01*
X141803243Y-46764039D01*
X141716649Y-46658759D01*
X141655284Y-46542266D01*
X141620185Y-46416776D01*
X141612392Y-46284507D01*
X141618057Y-46223457D01*
X141648922Y-46096795D01*
X141702080Y-45984941D01*
X141774233Y-45889001D01*
X141862083Y-45810076D01*
X141962335Y-45749270D01*
X142071690Y-45707687D01*
X142186853Y-45686428D01*
X142304525Y-45686599D01*
X142421410Y-45709301D01*
X142534211Y-45755638D01*
X142639631Y-45826713D01*
X142683632Y-45866911D01*
X142768021Y-45970129D01*
X142826778Y-46082925D01*
X142860296Y-46202010D01*
X142868965Y-46324095D01*
X142853177Y-46445893D01*
X142813322Y-46564116D01*
X142749793Y-46675475D01*
X142662979Y-46776684D01*
X142565971Y-46855887D01*
X142525563Y-46886162D01*
X142497018Y-46912219D01*
X142486743Y-46927825D01*
X142492123Y-46944843D01*
X142507425Y-46985500D01*
X142531388Y-47046642D01*
X142562756Y-47125119D01*
X142600268Y-47217780D01*
X142642667Y-47321472D01*
X142684337Y-47422526D01*
X142730310Y-47533607D01*
X142772893Y-47636541D01*
X142810779Y-47728165D01*
X142842660Y-47805316D01*
X142867229Y-47864831D01*
X142883180Y-47903544D01*
X142889090Y-47918000D01*
X142903052Y-47932685D01*
X142930060Y-47932642D01*
X142973587Y-47917099D01*
X143037110Y-47885284D01*
X143037612Y-47885013D01*
X143085440Y-47860323D01*
X143124103Y-47842338D01*
X143145905Y-47834614D01*
X143146867Y-47834543D01*
X143163279Y-47842378D01*
X143199513Y-47864165D01*
X143251526Y-47897328D01*
X143315275Y-47939291D01*
X143385940Y-47986943D01*
X143457884Y-48035191D01*
X143522726Y-48077151D01*
X143576265Y-48110227D01*
X143614303Y-48131821D01*
X143632467Y-48139343D01*
X143649192Y-48129457D01*
X143682820Y-48101826D01*
X143729990Y-48059495D01*
X143787342Y-48005505D01*
X143851516Y-47942899D01*
X143872503Y-47921983D01*
X144089501Y-47704623D01*
X143924332Y-47462220D01*
X143874136Y-47387781D01*
X143830081Y-47320972D01*
X143794638Y-47265665D01*
X143770281Y-47225729D01*
X143759478Y-47205036D01*
X143759162Y-47203563D01*
X143764857Y-47184058D01*
X143780174Y-47144822D01*
X143802463Y-47092430D01*
X143818107Y-47057355D01*
X143847359Y-46990201D01*
X143874906Y-46922358D01*
X143896263Y-46865034D01*
X143902065Y-46847572D01*
X143918548Y-46800938D01*
X143934660Y-46764905D01*
X143943510Y-46751287D01*
X143963040Y-46742952D01*
X144005666Y-46731137D01*
X144065855Y-46717181D01*
X144138078Y-46702422D01*
X144170400Y-46696355D01*
X144252478Y-46681273D01*
X144331205Y-46666669D01*
X144398891Y-46653980D01*
X144447840Y-46644642D01*
X144457057Y-46642839D01*
X144533257Y-46627799D01*
X144533257Y-46310492D01*
X144533086Y-46206154D01*
X144532384Y-46127213D01*
X144530866Y-46070038D01*
X144528251Y-46030999D01*
X144524254Y-46006465D01*
X144518591Y-45992805D01*
X144510980Y-45986389D01*
X144507857Y-45985199D01*
X144489022Y-45980980D01*
X144447412Y-45972562D01*
X144388370Y-45960961D01*
X144317243Y-45947195D01*
X144239375Y-45932280D01*
X144160113Y-45917232D01*
X144084802Y-45903069D01*
X144018787Y-45890806D01*
X143967413Y-45881461D01*
X143936025Y-45876050D01*
X143929041Y-45875114D01*
X143922715Y-45862596D01*
X143908710Y-45829246D01*
X143889645Y-45781377D01*
X143882366Y-45762629D01*
X143853004Y-45690195D01*
X143818429Y-45610170D01*
X143787463Y-45542728D01*
X143764677Y-45491159D01*
X143749518Y-45448785D01*
X143744458Y-45422834D01*
X143745264Y-45419356D01*
X143755959Y-45402936D01*
X143780380Y-45366417D01*
X143815905Y-45313687D01*
X143859913Y-45248635D01*
X143909783Y-45175151D01*
X143919644Y-45160645D01*
X143977508Y-45074704D01*
X144020044Y-45009261D01*
X144048946Y-44961304D01*
X144065910Y-44927820D01*
X144072633Y-44905795D01*
X144070810Y-44892217D01*
X144070764Y-44892131D01*
X144056414Y-44874297D01*
X144024677Y-44839817D01*
X143978990Y-44792268D01*
X143922796Y-44735222D01*
X143859532Y-44672255D01*
X143852398Y-44665227D01*
X143772670Y-44588020D01*
X143711143Y-44531330D01*
X143666579Y-44494110D01*
X143637743Y-44475315D01*
X143625042Y-44472889D01*
X143606506Y-44483471D01*
X143568039Y-44507916D01*
X143513614Y-44543612D01*
X143447202Y-44587947D01*
X143372775Y-44638311D01*
X143355399Y-44650160D01*
X143108703Y-44818626D01*
X142997294Y-44768062D01*
X142929543Y-44738595D01*
X142856817Y-44708959D01*
X142794297Y-44685330D01*
X142791543Y-44684358D01*
X142742640Y-44666457D01*
X142704943Y-44651320D01*
X142686575Y-44642210D01*
X142686544Y-44642184D01*
X142680715Y-44625717D01*
X142670808Y-44585219D01*
X142657805Y-44525242D01*
X142642691Y-44450340D01*
X142626448Y-44365064D01*
X142625119Y-44357875D01*
X142608825Y-44270014D01*
X142593867Y-44190260D01*
X142581209Y-44123681D01*
X142571814Y-44075347D01*
X142566646Y-44050325D01*
X142566556Y-44049943D01*
X142563411Y-44039299D01*
X142557296Y-44031262D01*
X142544547Y-44025467D01*
X142521500Y-44021547D01*
X142484491Y-44019135D01*
X142429856Y-44017865D01*
X142353933Y-44017371D01*
X142253056Y-44017286D01*
X142240000Y-44017286D01*
X142136090Y-44017348D01*
G37*
X142136090Y-44017348D02*
X142057546Y-44017778D01*
X142000702Y-44018942D01*
X141961895Y-44021207D01*
X141937462Y-44024940D01*
X141923738Y-44030506D01*
X141917060Y-44038273D01*
X141913764Y-44048605D01*
X141913444Y-44049943D01*
X141908438Y-44074079D01*
X141899171Y-44121701D01*
X141886608Y-44187741D01*
X141871713Y-44267128D01*
X141855449Y-44354796D01*
X141854881Y-44357875D01*
X141838590Y-44443789D01*
X141823348Y-44519696D01*
X141810139Y-44581045D01*
X141799946Y-44623282D01*
X141793752Y-44641855D01*
X141793457Y-44642184D01*
X141775212Y-44651253D01*
X141737595Y-44666367D01*
X141688729Y-44684262D01*
X141688457Y-44684358D01*
X141626907Y-44707493D01*
X141554343Y-44736965D01*
X141485943Y-44766597D01*
X141482706Y-44768062D01*
X141371298Y-44818626D01*
X141124601Y-44650160D01*
X141048923Y-44598803D01*
X140980369Y-44552889D01*
X140922912Y-44515030D01*
X140880524Y-44487837D01*
X140857175Y-44473921D01*
X140854958Y-44472889D01*
X140837990Y-44477484D01*
X140806299Y-44499655D01*
X140758648Y-44540447D01*
X140693802Y-44600905D01*
X140627603Y-44665227D01*
X140563786Y-44728612D01*
X140506671Y-44786451D01*
X140459695Y-44835175D01*
X140426297Y-44871210D01*
X140409915Y-44890984D01*
X140409306Y-44892002D01*
X140407495Y-44905572D01*
X140414317Y-44927733D01*
X140431460Y-44961478D01*
X140460607Y-45009800D01*
X140503445Y-45075692D01*
X140560552Y-45160517D01*
X140611234Y-45235177D01*
X140656539Y-45302140D01*
X140693850Y-45357516D01*
X140720548Y-45397420D01*
X140734015Y-45417962D01*
X140734863Y-45419356D01*
X140733219Y-45439038D01*
X140720755Y-45477293D01*
X140699952Y-45526889D01*
X140692538Y-45542728D01*
X140660186Y-45613290D01*
X140625672Y-45693353D01*
X140597635Y-45762629D01*
X140577432Y-45814045D01*
X140561385Y-45853119D01*
X140552112Y-45873541D01*
X140550959Y-45875114D01*
X140533904Y-45877721D01*
X140493702Y-45884863D01*
X140435698Y-45895523D01*
X140365237Y-45908685D01*
X140287665Y-45923333D01*
X140208328Y-45938449D01*
X140132569Y-45953018D01*
X140065736Y-45966022D01*
X140013172Y-45976445D01*
X139980224Y-45983270D01*
X139972143Y-45985199D01*
X139963795Y-45989962D01*
X139957494Y-46000718D01*
X139952955Y-46021098D01*
X139949896Y-46054734D01*
X139948033Y-46105255D01*
X139947082Y-46176292D01*
X139946760Y-46271476D01*
X139946743Y-46310492D01*
X139946743Y-46627799D01*
X140022943Y-46642839D01*
X140065337Y-46650995D01*
X140128600Y-46662899D01*
X140205038Y-46677116D01*
X140286957Y-46692210D01*
X140309600Y-46696355D01*
X140385194Y-46711053D01*
X140451047Y-46725505D01*
X140501634Y-46738375D01*
X140531426Y-46748322D01*
X140536388Y-46751287D01*
X140548574Y-46772283D01*
X140566047Y-46812967D01*
X140585423Y-46865322D01*
X140589266Y-46876600D01*
X140614661Y-46946523D01*
X140646183Y-47025418D01*
X140677031Y-47096266D01*
X140677183Y-47096595D01*
X140728553Y-47207733D01*
X140559601Y-47456253D01*
X140390648Y-47704772D01*
X140607571Y-47922058D01*
X140673181Y-47986726D01*
X140733021Y-48043733D01*
X140783733Y-48090033D01*
X140821954Y-48122584D01*
X140844325Y-48138343D01*
X140847534Y-48139343D01*
X140866374Y-48131469D01*
X140904820Y-48109578D01*
X140958670Y-48076267D01*
X141023724Y-48034131D01*
X141094060Y-47986943D01*
X141165445Y-47938810D01*
X141229092Y-47896928D01*
X141280959Y-47863871D01*
X141317005Y-47842218D01*
X141333133Y-47834543D01*
X141352811Y-47841037D01*
X141390125Y-47858150D01*
X141437379Y-47882326D01*
X141442388Y-47885013D01*
X141506023Y-47916927D01*
X141549659Y-47932579D01*
X141576798Y-47932745D01*
X141590943Y-47918204D01*
X141591025Y-47918000D01*
X141598095Y-47900779D01*
X141614958Y-47859899D01*
X141640305Y-47798525D01*
X141672829Y-47719819D01*
X141711222Y-47626947D01*
X141754178Y-47523072D01*
X141795778Y-47422502D01*
X141841496Y-47311516D01*
X141883474Y-47208703D01*
X141920452Y-47117215D01*
X141951173Y-47040201D01*
X141974378Y-46980815D01*
X141988810Y-46942209D01*
X141993257Y-46927800D01*
X141982104Y-46911272D01*
X141952931Y-46884930D01*
X141914029Y-46855887D01*
X141803243Y-46764039D01*
X141716649Y-46658759D01*
X141655284Y-46542266D01*
X141620185Y-46416776D01*
X141612392Y-46284507D01*
X141618057Y-46223457D01*
X141648922Y-46096795D01*
X141702080Y-45984941D01*
X141774233Y-45889001D01*
X141862083Y-45810076D01*
X141962335Y-45749270D01*
X142071690Y-45707687D01*
X142186853Y-45686428D01*
X142304525Y-45686599D01*
X142421410Y-45709301D01*
X142534211Y-45755638D01*
X142639631Y-45826713D01*
X142683632Y-45866911D01*
X142768021Y-45970129D01*
X142826778Y-46082925D01*
X142860296Y-46202010D01*
X142868965Y-46324095D01*
X142853177Y-46445893D01*
X142813322Y-46564116D01*
X142749793Y-46675475D01*
X142662979Y-46776684D01*
X142565971Y-46855887D01*
X142525563Y-46886162D01*
X142497018Y-46912219D01*
X142486743Y-46927825D01*
X142492123Y-46944843D01*
X142507425Y-46985500D01*
X142531388Y-47046642D01*
X142562756Y-47125119D01*
X142600268Y-47217780D01*
X142642667Y-47321472D01*
X142684337Y-47422526D01*
X142730310Y-47533607D01*
X142772893Y-47636541D01*
X142810779Y-47728165D01*
X142842660Y-47805316D01*
X142867229Y-47864831D01*
X142883180Y-47903544D01*
X142889090Y-47918000D01*
X142903052Y-47932685D01*
X142930060Y-47932642D01*
X142973587Y-47917099D01*
X143037110Y-47885284D01*
X143037612Y-47885013D01*
X143085440Y-47860323D01*
X143124103Y-47842338D01*
X143145905Y-47834614D01*
X143146867Y-47834543D01*
X143163279Y-47842378D01*
X143199513Y-47864165D01*
X143251526Y-47897328D01*
X143315275Y-47939291D01*
X143385940Y-47986943D01*
X143457884Y-48035191D01*
X143522726Y-48077151D01*
X143576265Y-48110227D01*
X143614303Y-48131821D01*
X143632467Y-48139343D01*
X143649192Y-48129457D01*
X143682820Y-48101826D01*
X143729990Y-48059495D01*
X143787342Y-48005505D01*
X143851516Y-47942899D01*
X143872503Y-47921983D01*
X144089501Y-47704623D01*
X143924332Y-47462220D01*
X143874136Y-47387781D01*
X143830081Y-47320972D01*
X143794638Y-47265665D01*
X143770281Y-47225729D01*
X143759478Y-47205036D01*
X143759162Y-47203563D01*
X143764857Y-47184058D01*
X143780174Y-47144822D01*
X143802463Y-47092430D01*
X143818107Y-47057355D01*
X143847359Y-46990201D01*
X143874906Y-46922358D01*
X143896263Y-46865034D01*
X143902065Y-46847572D01*
X143918548Y-46800938D01*
X143934660Y-46764905D01*
X143943510Y-46751287D01*
X143963040Y-46742952D01*
X144005666Y-46731137D01*
X144065855Y-46717181D01*
X144138078Y-46702422D01*
X144170400Y-46696355D01*
X144252478Y-46681273D01*
X144331205Y-46666669D01*
X144398891Y-46653980D01*
X144447840Y-46644642D01*
X144457057Y-46642839D01*
X144533257Y-46627799D01*
X144533257Y-46310492D01*
X144533086Y-46206154D01*
X144532384Y-46127213D01*
X144530866Y-46070038D01*
X144528251Y-46030999D01*
X144524254Y-46006465D01*
X144518591Y-45992805D01*
X144510980Y-45986389D01*
X144507857Y-45985199D01*
X144489022Y-45980980D01*
X144447412Y-45972562D01*
X144388370Y-45960961D01*
X144317243Y-45947195D01*
X144239375Y-45932280D01*
X144160113Y-45917232D01*
X144084802Y-45903069D01*
X144018787Y-45890806D01*
X143967413Y-45881461D01*
X143936025Y-45876050D01*
X143929041Y-45875114D01*
X143922715Y-45862596D01*
X143908710Y-45829246D01*
X143889645Y-45781377D01*
X143882366Y-45762629D01*
X143853004Y-45690195D01*
X143818429Y-45610170D01*
X143787463Y-45542728D01*
X143764677Y-45491159D01*
X143749518Y-45448785D01*
X143744458Y-45422834D01*
X143745264Y-45419356D01*
X143755959Y-45402936D01*
X143780380Y-45366417D01*
X143815905Y-45313687D01*
X143859913Y-45248635D01*
X143909783Y-45175151D01*
X143919644Y-45160645D01*
X143977508Y-45074704D01*
X144020044Y-45009261D01*
X144048946Y-44961304D01*
X144065910Y-44927820D01*
X144072633Y-44905795D01*
X144070810Y-44892217D01*
X144070764Y-44892131D01*
X144056414Y-44874297D01*
X144024677Y-44839817D01*
X143978990Y-44792268D01*
X143922796Y-44735222D01*
X143859532Y-44672255D01*
X143852398Y-44665227D01*
X143772670Y-44588020D01*
X143711143Y-44531330D01*
X143666579Y-44494110D01*
X143637743Y-44475315D01*
X143625042Y-44472889D01*
X143606506Y-44483471D01*
X143568039Y-44507916D01*
X143513614Y-44543612D01*
X143447202Y-44587947D01*
X143372775Y-44638311D01*
X143355399Y-44650160D01*
X143108703Y-44818626D01*
X142997294Y-44768062D01*
X142929543Y-44738595D01*
X142856817Y-44708959D01*
X142794297Y-44685330D01*
X142791543Y-44684358D01*
X142742640Y-44666457D01*
X142704943Y-44651320D01*
X142686575Y-44642210D01*
X142686544Y-44642184D01*
X142680715Y-44625717D01*
X142670808Y-44585219D01*
X142657805Y-44525242D01*
X142642691Y-44450340D01*
X142626448Y-44365064D01*
X142625119Y-44357875D01*
X142608825Y-44270014D01*
X142593867Y-44190260D01*
X142581209Y-44123681D01*
X142571814Y-44075347D01*
X142566646Y-44050325D01*
X142566556Y-44049943D01*
X142563411Y-44039299D01*
X142557296Y-44031262D01*
X142544547Y-44025467D01*
X142521500Y-44021547D01*
X142484491Y-44019135D01*
X142429856Y-44017865D01*
X142353933Y-44017371D01*
X142253056Y-44017286D01*
X142240000Y-44017286D01*
X142136090Y-44017348D01*
G36*
X139086405Y-48741966D02*
G01*
X139028979Y-48779497D01*
X139001281Y-48813096D01*
X138979338Y-48874064D01*
X138977595Y-48922308D01*
X138981543Y-48986816D01*
X139130314Y-49051934D01*
X139202651Y-49085202D01*
X139249916Y-49111964D01*
X139274493Y-49135144D01*
X139278763Y-49157667D01*
X139265111Y-49182455D01*
X139250057Y-49198886D01*
X139206254Y-49225235D01*
X139158611Y-49227081D01*
X139114855Y-49206546D01*
X139082711Y-49165752D01*
X139076962Y-49151347D01*
X139049424Y-49106356D01*
X139017742Y-49087182D01*
X138974286Y-49070779D01*
X138974286Y-49132966D01*
X138978128Y-49175283D01*
X138993177Y-49210969D01*
X139024720Y-49251943D01*
X139029408Y-49257267D01*
X139064494Y-49293720D01*
X139094653Y-49313283D01*
X139132385Y-49322283D01*
X139163665Y-49325230D01*
X139219615Y-49325965D01*
X139259445Y-49316660D01*
X139284292Y-49302846D01*
X139323344Y-49272467D01*
X139350375Y-49239613D01*
X139367483Y-49198294D01*
X139376762Y-49142521D01*
X139380307Y-49066305D01*
X139380590Y-49027622D01*
X139379628Y-48981247D01*
X139291993Y-48981247D01*
X139290977Y-49006126D01*
X139288444Y-49010200D01*
X139271726Y-49004665D01*
X139235751Y-48990017D01*
X139187669Y-48969190D01*
X139177614Y-48964714D01*
X139116848Y-48933814D01*
X139083368Y-48906657D01*
X139076010Y-48881220D01*
X139093609Y-48855481D01*
X139108144Y-48844109D01*
X139160590Y-48821364D01*
X139209678Y-48825122D01*
X139250773Y-48852884D01*
X139279242Y-48902152D01*
X139288369Y-48941257D01*
X139291993Y-48981247D01*
X139379628Y-48981247D01*
X139378715Y-48937249D01*
X139371804Y-48870384D01*
X139358116Y-48821695D01*
X139335904Y-48785849D01*
X139303426Y-48757513D01*
X139289267Y-48748355D01*
X139224947Y-48724507D01*
X139154527Y-48723006D01*
X139086405Y-48741966D01*
G37*
X139086405Y-48741966D02*
X139028979Y-48779497D01*
X139001281Y-48813096D01*
X138979338Y-48874064D01*
X138977595Y-48922308D01*
X138981543Y-48986816D01*
X139130314Y-49051934D01*
X139202651Y-49085202D01*
X139249916Y-49111964D01*
X139274493Y-49135144D01*
X139278763Y-49157667D01*
X139265111Y-49182455D01*
X139250057Y-49198886D01*
X139206254Y-49225235D01*
X139158611Y-49227081D01*
X139114855Y-49206546D01*
X139082711Y-49165752D01*
X139076962Y-49151347D01*
X139049424Y-49106356D01*
X139017742Y-49087182D01*
X138974286Y-49070779D01*
X138974286Y-49132966D01*
X138978128Y-49175283D01*
X138993177Y-49210969D01*
X139024720Y-49251943D01*
X139029408Y-49257267D01*
X139064494Y-49293720D01*
X139094653Y-49313283D01*
X139132385Y-49322283D01*
X139163665Y-49325230D01*
X139219615Y-49325965D01*
X139259445Y-49316660D01*
X139284292Y-49302846D01*
X139323344Y-49272467D01*
X139350375Y-49239613D01*
X139367483Y-49198294D01*
X139376762Y-49142521D01*
X139380307Y-49066305D01*
X139380590Y-49027622D01*
X139379628Y-48981247D01*
X139291993Y-48981247D01*
X139290977Y-49006126D01*
X139288444Y-49010200D01*
X139271726Y-49004665D01*
X139235751Y-48990017D01*
X139187669Y-48969190D01*
X139177614Y-48964714D01*
X139116848Y-48933814D01*
X139083368Y-48906657D01*
X139076010Y-48881220D01*
X139093609Y-48855481D01*
X139108144Y-48844109D01*
X139160590Y-48821364D01*
X139209678Y-48825122D01*
X139250773Y-48852884D01*
X139279242Y-48902152D01*
X139288369Y-48941257D01*
X139291993Y-48981247D01*
X139379628Y-48981247D01*
X139378715Y-48937249D01*
X139371804Y-48870384D01*
X139358116Y-48821695D01*
X139335904Y-48785849D01*
X139303426Y-48757513D01*
X139289267Y-48748355D01*
X139224947Y-48724507D01*
X139154527Y-48723006D01*
X139086405Y-48741966D01*
G36*
X139587400Y-48733752D02*
G01*
X139570052Y-48741334D01*
X139528644Y-48774128D01*
X139493235Y-48821547D01*
X139471336Y-48872151D01*
X139467771Y-48897098D01*
X139479721Y-48931927D01*
X139505933Y-48950357D01*
X139534036Y-48961516D01*
X139546905Y-48963572D01*
X139553171Y-48948649D01*
X139565544Y-48916175D01*
X139570972Y-48901502D01*
X139601410Y-48850744D01*
X139645480Y-48825427D01*
X139701990Y-48826206D01*
X139706175Y-48827203D01*
X139736345Y-48841507D01*
X139758524Y-48869393D01*
X139773673Y-48914287D01*
X139782750Y-48979615D01*
X139786714Y-49068804D01*
X139787086Y-49116261D01*
X139787270Y-49191071D01*
X139788478Y-49242069D01*
X139791691Y-49274471D01*
X139797891Y-49293495D01*
X139808060Y-49304356D01*
X139823181Y-49312272D01*
X139824054Y-49312670D01*
X139853172Y-49324981D01*
X139867597Y-49329514D01*
X139869814Y-49315809D01*
X139871711Y-49277925D01*
X139873153Y-49220715D01*
X139874002Y-49149027D01*
X139874171Y-49096565D01*
X139873308Y-48995047D01*
X139869930Y-48918032D01*
X139862858Y-48861023D01*
X139850912Y-48819526D01*
X139832910Y-48789043D01*
X139807673Y-48765080D01*
X139782753Y-48748355D01*
X139722829Y-48726097D01*
X139653089Y-48721076D01*
X139587400Y-48733752D01*
G37*
X139587400Y-48733752D02*
X139570052Y-48741334D01*
X139528644Y-48774128D01*
X139493235Y-48821547D01*
X139471336Y-48872151D01*
X139467771Y-48897098D01*
X139479721Y-48931927D01*
X139505933Y-48950357D01*
X139534036Y-48961516D01*
X139546905Y-48963572D01*
X139553171Y-48948649D01*
X139565544Y-48916175D01*
X139570972Y-48901502D01*
X139601410Y-48850744D01*
X139645480Y-48825427D01*
X139701990Y-48826206D01*
X139706175Y-48827203D01*
X139736345Y-48841507D01*
X139758524Y-48869393D01*
X139773673Y-48914287D01*
X139782750Y-48979615D01*
X139786714Y-49068804D01*
X139787086Y-49116261D01*
X139787270Y-49191071D01*
X139788478Y-49242069D01*
X139791691Y-49274471D01*
X139797891Y-49293495D01*
X139808060Y-49304356D01*
X139823181Y-49312272D01*
X139824054Y-49312670D01*
X139853172Y-49324981D01*
X139867597Y-49329514D01*
X139869814Y-49315809D01*
X139871711Y-49277925D01*
X139873153Y-49220715D01*
X139874002Y-49149027D01*
X139874171Y-49096565D01*
X139873308Y-48995047D01*
X139869930Y-48918032D01*
X139862858Y-48861023D01*
X139850912Y-48819526D01*
X139832910Y-48789043D01*
X139807673Y-48765080D01*
X139782753Y-48748355D01*
X139722829Y-48726097D01*
X139653089Y-48721076D01*
X139587400Y-48733752D01*
G36*
X140095124Y-48731335D02*
G01*
X140053333Y-48750344D01*
X140020531Y-48773378D01*
X139996497Y-48799133D01*
X139979903Y-48832358D01*
X139969423Y-48877800D01*
X139963729Y-48940207D01*
X139961493Y-49024327D01*
X139961257Y-49079721D01*
X139961257Y-49295826D01*
X139998226Y-49312670D01*
X140027344Y-49324981D01*
X140041769Y-49329514D01*
X140044528Y-49316025D01*
X140046718Y-49279653D01*
X140048058Y-49226542D01*
X140048343Y-49184372D01*
X140049566Y-49123447D01*
X140052864Y-49075115D01*
X140057679Y-49045518D01*
X140061504Y-49039229D01*
X140087217Y-49045652D01*
X140127582Y-49062125D01*
X140174321Y-49084458D01*
X140219155Y-49108457D01*
X140253807Y-49129930D01*
X140269998Y-49144685D01*
X140270062Y-49144845D01*
X140268670Y-49172152D01*
X140256182Y-49198219D01*
X140234257Y-49219392D01*
X140202257Y-49226474D01*
X140174908Y-49225649D01*
X140136174Y-49225042D01*
X140115842Y-49234116D01*
X140103631Y-49258092D01*
X140102091Y-49262613D01*
X140096797Y-49296806D01*
X140110953Y-49317568D01*
X140147852Y-49327462D01*
X140187711Y-49329292D01*
X140259438Y-49315727D01*
X140296568Y-49296355D01*
X140342424Y-49250845D01*
X140366744Y-49194983D01*
X140368927Y-49135957D01*
X140348371Y-49080953D01*
X140317451Y-49046486D01*
X140286580Y-49027189D01*
X140238058Y-49002759D01*
X140181515Y-48977985D01*
X140172090Y-48974199D01*
X140109981Y-48946791D01*
X140074178Y-48922634D01*
X140062663Y-48898619D01*
X140073420Y-48871635D01*
X140091886Y-48850543D01*
X140135531Y-48824572D01*
X140183554Y-48822624D01*
X140227594Y-48842637D01*
X140259291Y-48882551D01*
X140263451Y-48892848D01*
X140287673Y-48930724D01*
X140323035Y-48958842D01*
X140367657Y-48981917D01*
X140367657Y-48916485D01*
X140365031Y-48876506D01*
X140353770Y-48844997D01*
X140328801Y-48811378D01*
X140304831Y-48785484D01*
X140267559Y-48748817D01*
X140238599Y-48729121D01*
X140207495Y-48721220D01*
X140172287Y-48719914D01*
X140095124Y-48731335D01*
G37*
X140095124Y-48731335D02*
X140053333Y-48750344D01*
X140020531Y-48773378D01*
X139996497Y-48799133D01*
X139979903Y-48832358D01*
X139969423Y-48877800D01*
X139963729Y-48940207D01*
X139961493Y-49024327D01*
X139961257Y-49079721D01*
X139961257Y-49295826D01*
X139998226Y-49312670D01*
X140027344Y-49324981D01*
X140041769Y-49329514D01*
X140044528Y-49316025D01*
X140046718Y-49279653D01*
X140048058Y-49226542D01*
X140048343Y-49184372D01*
X140049566Y-49123447D01*
X140052864Y-49075115D01*
X140057679Y-49045518D01*
X140061504Y-49039229D01*
X140087217Y-49045652D01*
X140127582Y-49062125D01*
X140174321Y-49084458D01*
X140219155Y-49108457D01*
X140253807Y-49129930D01*
X140269998Y-49144685D01*
X140270062Y-49144845D01*
X140268670Y-49172152D01*
X140256182Y-49198219D01*
X140234257Y-49219392D01*
X140202257Y-49226474D01*
X140174908Y-49225649D01*
X140136174Y-49225042D01*
X140115842Y-49234116D01*
X140103631Y-49258092D01*
X140102091Y-49262613D01*
X140096797Y-49296806D01*
X140110953Y-49317568D01*
X140147852Y-49327462D01*
X140187711Y-49329292D01*
X140259438Y-49315727D01*
X140296568Y-49296355D01*
X140342424Y-49250845D01*
X140366744Y-49194983D01*
X140368927Y-49135957D01*
X140348371Y-49080953D01*
X140317451Y-49046486D01*
X140286580Y-49027189D01*
X140238058Y-49002759D01*
X140181515Y-48977985D01*
X140172090Y-48974199D01*
X140109981Y-48946791D01*
X140074178Y-48922634D01*
X140062663Y-48898619D01*
X140073420Y-48871635D01*
X140091886Y-48850543D01*
X140135531Y-48824572D01*
X140183554Y-48822624D01*
X140227594Y-48842637D01*
X140259291Y-48882551D01*
X140263451Y-48892848D01*
X140287673Y-48930724D01*
X140323035Y-48958842D01*
X140367657Y-48981917D01*
X140367657Y-48916485D01*
X140365031Y-48876506D01*
X140353770Y-48844997D01*
X140328801Y-48811378D01*
X140304831Y-48785484D01*
X140267559Y-48748817D01*
X140238599Y-48729121D01*
X140207495Y-48721220D01*
X140172287Y-48719914D01*
X140095124Y-48731335D01*
G36*
X140460167Y-48733663D02*
G01*
X140457952Y-48771850D01*
X140456216Y-48829886D01*
X140455101Y-48903180D01*
X140454743Y-48980055D01*
X140454743Y-49240196D01*
X140500674Y-49286127D01*
X140532325Y-49314429D01*
X140560110Y-49325893D01*
X140598085Y-49325168D01*
X140613160Y-49323321D01*
X140660274Y-49317948D01*
X140699244Y-49314869D01*
X140708743Y-49314585D01*
X140740767Y-49316445D01*
X140786568Y-49321114D01*
X140804326Y-49323321D01*
X140847943Y-49326735D01*
X140877255Y-49319320D01*
X140906320Y-49296427D01*
X140916812Y-49286127D01*
X140962743Y-49240196D01*
X140962743Y-48753602D01*
X140925774Y-48736758D01*
X140893941Y-48724282D01*
X140875317Y-48719914D01*
X140870542Y-48733718D01*
X140866079Y-48772286D01*
X140862225Y-48831356D01*
X140859278Y-48906663D01*
X140857857Y-48970286D01*
X140853886Y-49220657D01*
X140819241Y-49225556D01*
X140787732Y-49222131D01*
X140772292Y-49211041D01*
X140767977Y-49190308D01*
X140764292Y-49146145D01*
X140761531Y-49084146D01*
X140759988Y-49009909D01*
X140759765Y-48971706D01*
X140759543Y-48751783D01*
X140713834Y-48735849D01*
X140681482Y-48725015D01*
X140663885Y-48719962D01*
X140663377Y-48719914D01*
X140661612Y-48733648D01*
X140659671Y-48771730D01*
X140657718Y-48829482D01*
X140655916Y-48902227D01*
X140654657Y-48970286D01*
X140650686Y-49220657D01*
X140563600Y-49220657D01*
X140559604Y-48992240D01*
X140555608Y-48763822D01*
X140513153Y-48741868D01*
X140481808Y-48726793D01*
X140463256Y-48719951D01*
X140462721Y-48719914D01*
X140460167Y-48733663D01*
G37*
X140460167Y-48733663D02*
X140457952Y-48771850D01*
X140456216Y-48829886D01*
X140455101Y-48903180D01*
X140454743Y-48980055D01*
X140454743Y-49240196D01*
X140500674Y-49286127D01*
X140532325Y-49314429D01*
X140560110Y-49325893D01*
X140598085Y-49325168D01*
X140613160Y-49323321D01*
X140660274Y-49317948D01*
X140699244Y-49314869D01*
X140708743Y-49314585D01*
X140740767Y-49316445D01*
X140786568Y-49321114D01*
X140804326Y-49323321D01*
X140847943Y-49326735D01*
X140877255Y-49319320D01*
X140906320Y-49296427D01*
X140916812Y-49286127D01*
X140962743Y-49240196D01*
X140962743Y-48753602D01*
X140925774Y-48736758D01*
X140893941Y-48724282D01*
X140875317Y-48719914D01*
X140870542Y-48733718D01*
X140866079Y-48772286D01*
X140862225Y-48831356D01*
X140859278Y-48906663D01*
X140857857Y-48970286D01*
X140853886Y-49220657D01*
X140819241Y-49225556D01*
X140787732Y-49222131D01*
X140772292Y-49211041D01*
X140767977Y-49190308D01*
X140764292Y-49146145D01*
X140761531Y-49084146D01*
X140759988Y-49009909D01*
X140759765Y-48971706D01*
X140759543Y-48751783D01*
X140713834Y-48735849D01*
X140681482Y-48725015D01*
X140663885Y-48719962D01*
X140663377Y-48719914D01*
X140661612Y-48733648D01*
X140659671Y-48771730D01*
X140657718Y-48829482D01*
X140655916Y-48902227D01*
X140654657Y-48970286D01*
X140650686Y-49220657D01*
X140563600Y-49220657D01*
X140559604Y-48992240D01*
X140555608Y-48763822D01*
X140513153Y-48741868D01*
X140481808Y-48726793D01*
X140463256Y-48719951D01*
X140462721Y-48719914D01*
X140460167Y-48733663D01*
G36*
X141049883Y-48840358D02*
G01*
X141050067Y-48948837D01*
X141050781Y-49032287D01*
X141052325Y-49094704D01*
X141054999Y-49140085D01*
X141059106Y-49172429D01*
X141064945Y-49195733D01*
X141072818Y-49213995D01*
X141078779Y-49224418D01*
X141128145Y-49280945D01*
X141190736Y-49316377D01*
X141259987Y-49329090D01*
X141329332Y-49317463D01*
X141370625Y-49296568D01*
X141413975Y-49260422D01*
X141443519Y-49216276D01*
X141461345Y-49158462D01*
X141469537Y-49081313D01*
X141470698Y-49024714D01*
X141470542Y-49020647D01*
X141369143Y-49020647D01*
X141368524Y-49085550D01*
X141365686Y-49128514D01*
X141359160Y-49156622D01*
X141347477Y-49176953D01*
X141333517Y-49192288D01*
X141286635Y-49221890D01*
X141236299Y-49224419D01*
X141188724Y-49199705D01*
X141185021Y-49196356D01*
X141169217Y-49178935D01*
X141159307Y-49158209D01*
X141153942Y-49127362D01*
X141151772Y-49079577D01*
X141151429Y-49026748D01*
X141152173Y-48960381D01*
X141155252Y-48916106D01*
X141161939Y-48887009D01*
X141173504Y-48866173D01*
X141182987Y-48855107D01*
X141227040Y-48827198D01*
X141277776Y-48823843D01*
X141326204Y-48845159D01*
X141335550Y-48853073D01*
X141351460Y-48870647D01*
X141361390Y-48891587D01*
X141366722Y-48922782D01*
X141368837Y-48971122D01*
X141369143Y-49020647D01*
X141470542Y-49020647D01*
X141467190Y-48933568D01*
X141455274Y-48865086D01*
X141432865Y-48813600D01*
X141397876Y-48773443D01*
X141370625Y-48752861D01*
X141321093Y-48730625D01*
X141263684Y-48720304D01*
X141210318Y-48723067D01*
X141180457Y-48734212D01*
X141168739Y-48737383D01*
X141160963Y-48725557D01*
X141155535Y-48693866D01*
X141151429Y-48645593D01*
X141146933Y-48591829D01*
X141140687Y-48559482D01*
X141129324Y-48540985D01*
X141109472Y-48528770D01*
X141097000Y-48523362D01*
X141049829Y-48503601D01*
X141049883Y-48840358D01*
G37*
X141049883Y-48840358D02*
X141050067Y-48948837D01*
X141050781Y-49032287D01*
X141052325Y-49094704D01*
X141054999Y-49140085D01*
X141059106Y-49172429D01*
X141064945Y-49195733D01*
X141072818Y-49213995D01*
X141078779Y-49224418D01*
X141128145Y-49280945D01*
X141190736Y-49316377D01*
X141259987Y-49329090D01*
X141329332Y-49317463D01*
X141370625Y-49296568D01*
X141413975Y-49260422D01*
X141443519Y-49216276D01*
X141461345Y-49158462D01*
X141469537Y-49081313D01*
X141470698Y-49024714D01*
X141470542Y-49020647D01*
X141369143Y-49020647D01*
X141368524Y-49085550D01*
X141365686Y-49128514D01*
X141359160Y-49156622D01*
X141347477Y-49176953D01*
X141333517Y-49192288D01*
X141286635Y-49221890D01*
X141236299Y-49224419D01*
X141188724Y-49199705D01*
X141185021Y-49196356D01*
X141169217Y-49178935D01*
X141159307Y-49158209D01*
X141153942Y-49127362D01*
X141151772Y-49079577D01*
X141151429Y-49026748D01*
X141152173Y-48960381D01*
X141155252Y-48916106D01*
X141161939Y-48887009D01*
X141173504Y-48866173D01*
X141182987Y-48855107D01*
X141227040Y-48827198D01*
X141277776Y-48823843D01*
X141326204Y-48845159D01*
X141335550Y-48853073D01*
X141351460Y-48870647D01*
X141361390Y-48891587D01*
X141366722Y-48922782D01*
X141368837Y-48971122D01*
X141369143Y-49020647D01*
X141470542Y-49020647D01*
X141467190Y-48933568D01*
X141455274Y-48865086D01*
X141432865Y-48813600D01*
X141397876Y-48773443D01*
X141370625Y-48752861D01*
X141321093Y-48730625D01*
X141263684Y-48720304D01*
X141210318Y-48723067D01*
X141180457Y-48734212D01*
X141168739Y-48737383D01*
X141160963Y-48725557D01*
X141155535Y-48693866D01*
X141151429Y-48645593D01*
X141146933Y-48591829D01*
X141140687Y-48559482D01*
X141129324Y-48540985D01*
X141109472Y-48528770D01*
X141097000Y-48523362D01*
X141049829Y-48503601D01*
X141049883Y-48840358D01*
G36*
X141710074Y-48724755D02*
G01*
X141644142Y-48749084D01*
X141590727Y-48792117D01*
X141569836Y-48822409D01*
X141547061Y-48877994D01*
X141547534Y-48918186D01*
X141571438Y-48945217D01*
X141580283Y-48949813D01*
X141618470Y-48964144D01*
X141637972Y-48960472D01*
X141644578Y-48936407D01*
X141644914Y-48923114D01*
X141657008Y-48874210D01*
X141688529Y-48839999D01*
X141732341Y-48823476D01*
X141781305Y-48827634D01*
X141821106Y-48849227D01*
X141834550Y-48861544D01*
X141844079Y-48876487D01*
X141850515Y-48899075D01*
X141854683Y-48934328D01*
X141857403Y-48987266D01*
X141859498Y-49062907D01*
X141860040Y-49086857D01*
X141862019Y-49168790D01*
X141864269Y-49226455D01*
X141867643Y-49264608D01*
X141872994Y-49288004D01*
X141881176Y-49301398D01*
X141893041Y-49309545D01*
X141900638Y-49313144D01*
X141932898Y-49325452D01*
X141951889Y-49329514D01*
X141958164Y-49315948D01*
X141961994Y-49274934D01*
X141963400Y-49205999D01*
X141962402Y-49108669D01*
X141962092Y-49093657D01*
X141959899Y-49004859D01*
X141957307Y-48940019D01*
X141953618Y-48894067D01*
X141948136Y-48861935D01*
X141940165Y-48838553D01*
X141929007Y-48818852D01*
X141923170Y-48810410D01*
X141889704Y-48773057D01*
X141852273Y-48744003D01*
X141847691Y-48741467D01*
X141780574Y-48721443D01*
X141710074Y-48724755D01*
G37*
X141710074Y-48724755D02*
X141644142Y-48749084D01*
X141590727Y-48792117D01*
X141569836Y-48822409D01*
X141547061Y-48877994D01*
X141547534Y-48918186D01*
X141571438Y-48945217D01*
X141580283Y-48949813D01*
X141618470Y-48964144D01*
X141637972Y-48960472D01*
X141644578Y-48936407D01*
X141644914Y-48923114D01*
X141657008Y-48874210D01*
X141688529Y-48839999D01*
X141732341Y-48823476D01*
X141781305Y-48827634D01*
X141821106Y-48849227D01*
X141834550Y-48861544D01*
X141844079Y-48876487D01*
X141850515Y-48899075D01*
X141854683Y-48934328D01*
X141857403Y-48987266D01*
X141859498Y-49062907D01*
X141860040Y-49086857D01*
X141862019Y-49168790D01*
X141864269Y-49226455D01*
X141867643Y-49264608D01*
X141872994Y-49288004D01*
X141881176Y-49301398D01*
X141893041Y-49309545D01*
X141900638Y-49313144D01*
X141932898Y-49325452D01*
X141951889Y-49329514D01*
X141958164Y-49315948D01*
X141961994Y-49274934D01*
X141963400Y-49205999D01*
X141962402Y-49108669D01*
X141962092Y-49093657D01*
X141959899Y-49004859D01*
X141957307Y-48940019D01*
X141953618Y-48894067D01*
X141948136Y-48861935D01*
X141940165Y-48838553D01*
X141929007Y-48818852D01*
X141923170Y-48810410D01*
X141889704Y-48773057D01*
X141852273Y-48744003D01*
X141847691Y-48741467D01*
X141780574Y-48721443D01*
X141710074Y-48724755D01*
G36*
X142200256Y-48725968D02*
G01*
X142143384Y-48747087D01*
X142142733Y-48747493D01*
X142107560Y-48773380D01*
X142081593Y-48803633D01*
X142063330Y-48843058D01*
X142051268Y-48896462D01*
X142043904Y-48968651D01*
X142039736Y-49064432D01*
X142039371Y-49078078D01*
X142034124Y-49283842D01*
X142078284Y-49306678D01*
X142110237Y-49322110D01*
X142129530Y-49329423D01*
X142130422Y-49329514D01*
X142133761Y-49316022D01*
X142136413Y-49279626D01*
X142138044Y-49226452D01*
X142138400Y-49183393D01*
X142138408Y-49113641D01*
X142141597Y-49069837D01*
X142152712Y-49048944D01*
X142176499Y-49047925D01*
X142217704Y-49063741D01*
X142279914Y-49092815D01*
X142325659Y-49116963D01*
X142349187Y-49137913D01*
X142356104Y-49160747D01*
X142356114Y-49161877D01*
X142344701Y-49201212D01*
X142310908Y-49222462D01*
X142259191Y-49225539D01*
X142221939Y-49225006D01*
X142202297Y-49235735D01*
X142190048Y-49261505D01*
X142182998Y-49294337D01*
X142193158Y-49312966D01*
X142196983Y-49315632D01*
X142232999Y-49326340D01*
X142283434Y-49327856D01*
X142335374Y-49320759D01*
X142372178Y-49307788D01*
X142423062Y-49264585D01*
X142451986Y-49204446D01*
X142457714Y-49157462D01*
X142453343Y-49115082D01*
X142437525Y-49080488D01*
X142406203Y-49049763D01*
X142355322Y-49018990D01*
X142280824Y-48984252D01*
X142276286Y-48982288D01*
X142209179Y-48951287D01*
X142167768Y-48925862D01*
X142150019Y-48903014D01*
X142153893Y-48879745D01*
X142177357Y-48853056D01*
X142184373Y-48846914D01*
X142231370Y-48823100D01*
X142280067Y-48824103D01*
X142322478Y-48847451D01*
X142350616Y-48890675D01*
X142353231Y-48899160D01*
X142378692Y-48940308D01*
X142410999Y-48960128D01*
X142457714Y-48979770D01*
X142457714Y-48928950D01*
X142443504Y-48855082D01*
X142401325Y-48787327D01*
X142379376Y-48764661D01*
X142329483Y-48735569D01*
X142266033Y-48722400D01*
X142200256Y-48725968D01*
G37*
X142200256Y-48725968D02*
X142143384Y-48747087D01*
X142142733Y-48747493D01*
X142107560Y-48773380D01*
X142081593Y-48803633D01*
X142063330Y-48843058D01*
X142051268Y-48896462D01*
X142043904Y-48968651D01*
X142039736Y-49064432D01*
X142039371Y-49078078D01*
X142034124Y-49283842D01*
X142078284Y-49306678D01*
X142110237Y-49322110D01*
X142129530Y-49329423D01*
X142130422Y-49329514D01*
X142133761Y-49316022D01*
X142136413Y-49279626D01*
X142138044Y-49226452D01*
X142138400Y-49183393D01*
X142138408Y-49113641D01*
X142141597Y-49069837D01*
X142152712Y-49048944D01*
X142176499Y-49047925D01*
X142217704Y-49063741D01*
X142279914Y-49092815D01*
X142325659Y-49116963D01*
X142349187Y-49137913D01*
X142356104Y-49160747D01*
X142356114Y-49161877D01*
X142344701Y-49201212D01*
X142310908Y-49222462D01*
X142259191Y-49225539D01*
X142221939Y-49225006D01*
X142202297Y-49235735D01*
X142190048Y-49261505D01*
X142182998Y-49294337D01*
X142193158Y-49312966D01*
X142196983Y-49315632D01*
X142232999Y-49326340D01*
X142283434Y-49327856D01*
X142335374Y-49320759D01*
X142372178Y-49307788D01*
X142423062Y-49264585D01*
X142451986Y-49204446D01*
X142457714Y-49157462D01*
X142453343Y-49115082D01*
X142437525Y-49080488D01*
X142406203Y-49049763D01*
X142355322Y-49018990D01*
X142280824Y-48984252D01*
X142276286Y-48982288D01*
X142209179Y-48951287D01*
X142167768Y-48925862D01*
X142150019Y-48903014D01*
X142153893Y-48879745D01*
X142177357Y-48853056D01*
X142184373Y-48846914D01*
X142231370Y-48823100D01*
X142280067Y-48824103D01*
X142322478Y-48847451D01*
X142350616Y-48890675D01*
X142353231Y-48899160D01*
X142378692Y-48940308D01*
X142410999Y-48960128D01*
X142457714Y-48979770D01*
X142457714Y-48928950D01*
X142443504Y-48855082D01*
X142401325Y-48787327D01*
X142379376Y-48764661D01*
X142329483Y-48735569D01*
X142266033Y-48722400D01*
X142200256Y-48725968D01*
G36*
X142864114Y-48626289D02*
G01*
X142859861Y-48685613D01*
X142854975Y-48720572D01*
X142848205Y-48735820D01*
X142838298Y-48736015D01*
X142835086Y-48734195D01*
X142792356Y-48721015D01*
X142736773Y-48721785D01*
X142680263Y-48735333D01*
X142644918Y-48752861D01*
X142608679Y-48780861D01*
X142582187Y-48812549D01*
X142564001Y-48852813D01*
X142552678Y-48906543D01*
X142546778Y-48978626D01*
X142544857Y-49073951D01*
X142544823Y-49092237D01*
X142544800Y-49297646D01*
X142590509Y-49313580D01*
X142622973Y-49324420D01*
X142640785Y-49329468D01*
X142641309Y-49329514D01*
X142643063Y-49315828D01*
X142644556Y-49278076D01*
X142645674Y-49221224D01*
X142646303Y-49150234D01*
X142646400Y-49107073D01*
X142646602Y-49021973D01*
X142647642Y-48960981D01*
X142650169Y-48919177D01*
X142654836Y-48891642D01*
X142662293Y-48873456D01*
X142673189Y-48859698D01*
X142679993Y-48853073D01*
X142726728Y-48826375D01*
X142777728Y-48824375D01*
X142823999Y-48846955D01*
X142832556Y-48855107D01*
X142845107Y-48870436D01*
X142853812Y-48888618D01*
X142859369Y-48914909D01*
X142862474Y-48954562D01*
X142863824Y-49012832D01*
X142864114Y-49093173D01*
X142864114Y-49297646D01*
X142909823Y-49313580D01*
X142942287Y-49324420D01*
X142960099Y-49329468D01*
X142960623Y-49329514D01*
X142961963Y-49315623D01*
X142963172Y-49276439D01*
X142964199Y-49215700D01*
X142964998Y-49137141D01*
X142965519Y-49044498D01*
X142965714Y-48941509D01*
X142965714Y-48544342D01*
X142918543Y-48524444D01*
X142871371Y-48504547D01*
X142864114Y-48626289D01*
G37*
X142864114Y-48626289D02*
X142859861Y-48685613D01*
X142854975Y-48720572D01*
X142848205Y-48735820D01*
X142838298Y-48736015D01*
X142835086Y-48734195D01*
X142792356Y-48721015D01*
X142736773Y-48721785D01*
X142680263Y-48735333D01*
X142644918Y-48752861D01*
X142608679Y-48780861D01*
X142582187Y-48812549D01*
X142564001Y-48852813D01*
X142552678Y-48906543D01*
X142546778Y-48978626D01*
X142544857Y-49073951D01*
X142544823Y-49092237D01*
X142544800Y-49297646D01*
X142590509Y-49313580D01*
X142622973Y-49324420D01*
X142640785Y-49329468D01*
X142641309Y-49329514D01*
X142643063Y-49315828D01*
X142644556Y-49278076D01*
X142645674Y-49221224D01*
X142646303Y-49150234D01*
X142646400Y-49107073D01*
X142646602Y-49021973D01*
X142647642Y-48960981D01*
X142650169Y-48919177D01*
X142654836Y-48891642D01*
X142662293Y-48873456D01*
X142673189Y-48859698D01*
X142679993Y-48853073D01*
X142726728Y-48826375D01*
X142777728Y-48824375D01*
X142823999Y-48846955D01*
X142832556Y-48855107D01*
X142845107Y-48870436D01*
X142853812Y-48888618D01*
X142859369Y-48914909D01*
X142862474Y-48954562D01*
X142863824Y-49012832D01*
X142864114Y-49093173D01*
X142864114Y-49297646D01*
X142909823Y-49313580D01*
X142942287Y-49324420D01*
X142960099Y-49329468D01*
X142960623Y-49329514D01*
X142961963Y-49315623D01*
X142963172Y-49276439D01*
X142964199Y-49215700D01*
X142964998Y-49137141D01*
X142965519Y-49044498D01*
X142965714Y-48941509D01*
X142965714Y-48544342D01*
X142918543Y-48524444D01*
X142871371Y-48504547D01*
X142864114Y-48626289D01*
G36*
X144071697Y-48706239D02*
G01*
X144014473Y-48744735D01*
X143970251Y-48800335D01*
X143943833Y-48871086D01*
X143938490Y-48923162D01*
X143939097Y-48944893D01*
X143944178Y-48961531D01*
X143958145Y-48976437D01*
X143985411Y-48992973D01*
X144030388Y-49014498D01*
X144097489Y-49044374D01*
X144097829Y-49044524D01*
X144159593Y-49072813D01*
X144210241Y-49097933D01*
X144244596Y-49117179D01*
X144257482Y-49127848D01*
X144257486Y-49127934D01*
X144246128Y-49151166D01*
X144219569Y-49176774D01*
X144189077Y-49195221D01*
X144173630Y-49198886D01*
X144131485Y-49186212D01*
X144095192Y-49154471D01*
X144077483Y-49119572D01*
X144060448Y-49093845D01*
X144027078Y-49064546D01*
X143987851Y-49039235D01*
X143953244Y-49025471D01*
X143946007Y-49024714D01*
X143937861Y-49037160D01*
X143937370Y-49068972D01*
X143943357Y-49111866D01*
X143954643Y-49157558D01*
X143970050Y-49197761D01*
X143970829Y-49199322D01*
X144017196Y-49264062D01*
X144077289Y-49308097D01*
X144145535Y-49329711D01*
X144216362Y-49327185D01*
X144284196Y-49298804D01*
X144287212Y-49296808D01*
X144340573Y-49248448D01*
X144375660Y-49185352D01*
X144395078Y-49102387D01*
X144397684Y-49079078D01*
X144402299Y-48969055D01*
X144396767Y-48917748D01*
X144257486Y-48917748D01*
X144255676Y-48949753D01*
X144245778Y-48959093D01*
X144221102Y-48952105D01*
X144182205Y-48935587D01*
X144138725Y-48914881D01*
X144137644Y-48914333D01*
X144100791Y-48894949D01*
X144086000Y-48882013D01*
X144089647Y-48868451D01*
X144105005Y-48850632D01*
X144144077Y-48824845D01*
X144186154Y-48822950D01*
X144223897Y-48841717D01*
X144249966Y-48877915D01*
X144257486Y-48917748D01*
X144396767Y-48917748D01*
X144392806Y-48881027D01*
X144368450Y-48811212D01*
X144334544Y-48762302D01*
X144273347Y-48712878D01*
X144205937Y-48688359D01*
X144137120Y-48686797D01*
X144071697Y-48706239D01*
G37*
X144071697Y-48706239D02*
X144014473Y-48744735D01*
X143970251Y-48800335D01*
X143943833Y-48871086D01*
X143938490Y-48923162D01*
X143939097Y-48944893D01*
X143944178Y-48961531D01*
X143958145Y-48976437D01*
X143985411Y-48992973D01*
X144030388Y-49014498D01*
X144097489Y-49044374D01*
X144097829Y-49044524D01*
X144159593Y-49072813D01*
X144210241Y-49097933D01*
X144244596Y-49117179D01*
X144257482Y-49127848D01*
X144257486Y-49127934D01*
X144246128Y-49151166D01*
X144219569Y-49176774D01*
X144189077Y-49195221D01*
X144173630Y-49198886D01*
X144131485Y-49186212D01*
X144095192Y-49154471D01*
X144077483Y-49119572D01*
X144060448Y-49093845D01*
X144027078Y-49064546D01*
X143987851Y-49039235D01*
X143953244Y-49025471D01*
X143946007Y-49024714D01*
X143937861Y-49037160D01*
X143937370Y-49068972D01*
X143943357Y-49111866D01*
X143954643Y-49157558D01*
X143970050Y-49197761D01*
X143970829Y-49199322D01*
X144017196Y-49264062D01*
X144077289Y-49308097D01*
X144145535Y-49329711D01*
X144216362Y-49327185D01*
X144284196Y-49298804D01*
X144287212Y-49296808D01*
X144340573Y-49248448D01*
X144375660Y-49185352D01*
X144395078Y-49102387D01*
X144397684Y-49079078D01*
X144402299Y-48969055D01*
X144396767Y-48917748D01*
X144257486Y-48917748D01*
X144255676Y-48949753D01*
X144245778Y-48959093D01*
X144221102Y-48952105D01*
X144182205Y-48935587D01*
X144138725Y-48914881D01*
X144137644Y-48914333D01*
X144100791Y-48894949D01*
X144086000Y-48882013D01*
X144089647Y-48868451D01*
X144105005Y-48850632D01*
X144144077Y-48824845D01*
X144186154Y-48822950D01*
X144223897Y-48841717D01*
X144249966Y-48877915D01*
X144257486Y-48917748D01*
X144396767Y-48917748D01*
X144392806Y-48881027D01*
X144368450Y-48811212D01*
X144334544Y-48762302D01*
X144273347Y-48712878D01*
X144205937Y-48688359D01*
X144137120Y-48686797D01*
X144071697Y-48706239D01*
G36*
X145198885Y-48696962D02*
G01*
X145130855Y-48732733D01*
X145080649Y-48790301D01*
X145062815Y-48827312D01*
X145048937Y-48882882D01*
X145041833Y-48953096D01*
X145041160Y-49029727D01*
X145046573Y-49104552D01*
X145057730Y-49169342D01*
X145074286Y-49215873D01*
X145079374Y-49223887D01*
X145139645Y-49283707D01*
X145211231Y-49319535D01*
X145288908Y-49330020D01*
X145367452Y-49313810D01*
X145389311Y-49304092D01*
X145431878Y-49274143D01*
X145469237Y-49234433D01*
X145472768Y-49229397D01*
X145487119Y-49205124D01*
X145496606Y-49179178D01*
X145502210Y-49145022D01*
X145504914Y-49096119D01*
X145505701Y-49025935D01*
X145505714Y-49010200D01*
X145505678Y-49005192D01*
X145360571Y-49005192D01*
X145359727Y-49071430D01*
X145356404Y-49115386D01*
X145349417Y-49143779D01*
X145337584Y-49163325D01*
X145331543Y-49169857D01*
X145296814Y-49194680D01*
X145263097Y-49193548D01*
X145229005Y-49172016D01*
X145208671Y-49149029D01*
X145196629Y-49115478D01*
X145189866Y-49062569D01*
X145189402Y-49056399D01*
X145188248Y-48960513D01*
X145200312Y-48889299D01*
X145225430Y-48843194D01*
X145263440Y-48822635D01*
X145277008Y-48821514D01*
X145312636Y-48827152D01*
X145337006Y-48846686D01*
X145351907Y-48884042D01*
X145359125Y-48943150D01*
X145360571Y-49005192D01*
X145505678Y-49005192D01*
X145505174Y-48935413D01*
X145502904Y-48883159D01*
X145497932Y-48846949D01*
X145489287Y-48820299D01*
X145475995Y-48796722D01*
X145473057Y-48792338D01*
X145423687Y-48733249D01*
X145369891Y-48698947D01*
X145304398Y-48685331D01*
X145282158Y-48684665D01*
X145198885Y-48696962D01*
G37*
X145198885Y-48696962D02*
X145130855Y-48732733D01*
X145080649Y-48790301D01*
X145062815Y-48827312D01*
X145048937Y-48882882D01*
X145041833Y-48953096D01*
X145041160Y-49029727D01*
X145046573Y-49104552D01*
X145057730Y-49169342D01*
X145074286Y-49215873D01*
X145079374Y-49223887D01*
X145139645Y-49283707D01*
X145211231Y-49319535D01*
X145288908Y-49330020D01*
X145367452Y-49313810D01*
X145389311Y-49304092D01*
X145431878Y-49274143D01*
X145469237Y-49234433D01*
X145472768Y-49229397D01*
X145487119Y-49205124D01*
X145496606Y-49179178D01*
X145502210Y-49145022D01*
X145504914Y-49096119D01*
X145505701Y-49025935D01*
X145505714Y-49010200D01*
X145505678Y-49005192D01*
X145360571Y-49005192D01*
X145359727Y-49071430D01*
X145356404Y-49115386D01*
X145349417Y-49143779D01*
X145337584Y-49163325D01*
X145331543Y-49169857D01*
X145296814Y-49194680D01*
X145263097Y-49193548D01*
X145229005Y-49172016D01*
X145208671Y-49149029D01*
X145196629Y-49115478D01*
X145189866Y-49062569D01*
X145189402Y-49056399D01*
X145188248Y-48960513D01*
X145200312Y-48889299D01*
X145225430Y-48843194D01*
X145263440Y-48822635D01*
X145277008Y-48821514D01*
X145312636Y-48827152D01*
X145337006Y-48846686D01*
X145351907Y-48884042D01*
X145359125Y-48943150D01*
X145360571Y-49005192D01*
X145505678Y-49005192D01*
X145505174Y-48935413D01*
X145502904Y-48883159D01*
X145497932Y-48846949D01*
X145489287Y-48820299D01*
X145475995Y-48796722D01*
X145473057Y-48792338D01*
X145423687Y-48733249D01*
X145369891Y-48698947D01*
X145304398Y-48685331D01*
X145282158Y-48684665D01*
X145198885Y-48696962D01*
G36*
X143523907Y-48702780D02*
G01*
X143477328Y-48729723D01*
X143444943Y-48756466D01*
X143421258Y-48784484D01*
X143404941Y-48818748D01*
X143394661Y-48864227D01*
X143389086Y-48925892D01*
X143386884Y-49008711D01*
X143386629Y-49068246D01*
X143386629Y-49287391D01*
X143448314Y-49315044D01*
X143510000Y-49342697D01*
X143517257Y-49102670D01*
X143520256Y-49013028D01*
X143523402Y-48947962D01*
X143527299Y-48903026D01*
X143532553Y-48873770D01*
X143539769Y-48855748D01*
X143549550Y-48844511D01*
X143552688Y-48842079D01*
X143600239Y-48823083D01*
X143648303Y-48830600D01*
X143676914Y-48850543D01*
X143688553Y-48864675D01*
X143696609Y-48883220D01*
X143701729Y-48911334D01*
X143704559Y-48954173D01*
X143705744Y-49016895D01*
X143705943Y-49082261D01*
X143705982Y-49164268D01*
X143707386Y-49222316D01*
X143712086Y-49261465D01*
X143722013Y-49286780D01*
X143739097Y-49303323D01*
X143765268Y-49316156D01*
X143800225Y-49329491D01*
X143838404Y-49344007D01*
X143833859Y-49086389D01*
X143832029Y-48993519D01*
X143829888Y-48924889D01*
X143826819Y-48875711D01*
X143822206Y-48841198D01*
X143815432Y-48816562D01*
X143805881Y-48797016D01*
X143794366Y-48779770D01*
X143738810Y-48724680D01*
X143671020Y-48692822D01*
X143597287Y-48685191D01*
X143523907Y-48702780D01*
G37*
X143523907Y-48702780D02*
X143477328Y-48729723D01*
X143444943Y-48756466D01*
X143421258Y-48784484D01*
X143404941Y-48818748D01*
X143394661Y-48864227D01*
X143389086Y-48925892D01*
X143386884Y-49008711D01*
X143386629Y-49068246D01*
X143386629Y-49287391D01*
X143448314Y-49315044D01*
X143510000Y-49342697D01*
X143517257Y-49102670D01*
X143520256Y-49013028D01*
X143523402Y-48947962D01*
X143527299Y-48903026D01*
X143532553Y-48873770D01*
X143539769Y-48855748D01*
X143549550Y-48844511D01*
X143552688Y-48842079D01*
X143600239Y-48823083D01*
X143648303Y-48830600D01*
X143676914Y-48850543D01*
X143688553Y-48864675D01*
X143696609Y-48883220D01*
X143701729Y-48911334D01*
X143704559Y-48954173D01*
X143705744Y-49016895D01*
X143705943Y-49082261D01*
X143705982Y-49164268D01*
X143707386Y-49222316D01*
X143712086Y-49261465D01*
X143722013Y-49286780D01*
X143739097Y-49303323D01*
X143765268Y-49316156D01*
X143800225Y-49329491D01*
X143838404Y-49344007D01*
X143833859Y-49086389D01*
X143832029Y-48993519D01*
X143829888Y-48924889D01*
X143826819Y-48875711D01*
X143822206Y-48841198D01*
X143815432Y-48816562D01*
X143805881Y-48797016D01*
X143794366Y-48779770D01*
X143738810Y-48724680D01*
X143671020Y-48692822D01*
X143597287Y-48685191D01*
X143523907Y-48702780D01*
G36*
X144640256Y-48694918D02*
G01*
X144584799Y-48722568D01*
X144535852Y-48773480D01*
X144522371Y-48792338D01*
X144507686Y-48817015D01*
X144498158Y-48843816D01*
X144492707Y-48879587D01*
X144490253Y-48931169D01*
X144489714Y-48999267D01*
X144492148Y-49092588D01*
X144500606Y-49162657D01*
X144516826Y-49214931D01*
X144542546Y-49254869D01*
X144579503Y-49287929D01*
X144582218Y-49289886D01*
X144618640Y-49309908D01*
X144662498Y-49319815D01*
X144718276Y-49322257D01*
X144808952Y-49322257D01*
X144808990Y-49410283D01*
X144809834Y-49459308D01*
X144814976Y-49488065D01*
X144828413Y-49505311D01*
X144854142Y-49519808D01*
X144860321Y-49522769D01*
X144889236Y-49536648D01*
X144911624Y-49545414D01*
X144928271Y-49546171D01*
X144939964Y-49536023D01*
X144947490Y-49512073D01*
X144951634Y-49471426D01*
X144953185Y-49411186D01*
X144952929Y-49328455D01*
X144951651Y-49220339D01*
X144951252Y-49188000D01*
X144949815Y-49076524D01*
X144948528Y-49003603D01*
X144809029Y-49003603D01*
X144808245Y-49065499D01*
X144804760Y-49105997D01*
X144796876Y-49132708D01*
X144782895Y-49153244D01*
X144773403Y-49163260D01*
X144734596Y-49192567D01*
X144700237Y-49194952D01*
X144664784Y-49170750D01*
X144663886Y-49169857D01*
X144649461Y-49151153D01*
X144640687Y-49125732D01*
X144636261Y-49086584D01*
X144634882Y-49026697D01*
X144634857Y-49013430D01*
X144638188Y-48930901D01*
X144649031Y-48873691D01*
X144668660Y-48838766D01*
X144698350Y-48823094D01*
X144715509Y-48821514D01*
X144756234Y-48828926D01*
X144784168Y-48853330D01*
X144800983Y-48897980D01*
X144808350Y-48966130D01*
X144809029Y-49003603D01*
X144948528Y-49003603D01*
X144948292Y-48990245D01*
X144946323Y-48925333D01*
X144943550Y-48877958D01*
X144939612Y-48844290D01*
X144934151Y-48820498D01*
X144926808Y-48802753D01*
X144917223Y-48787224D01*
X144913113Y-48781381D01*
X144858595Y-48726185D01*
X144789664Y-48694890D01*
X144709928Y-48686165D01*
X144640256Y-48694918D01*
G37*
X144640256Y-48694918D02*
X144584799Y-48722568D01*
X144535852Y-48773480D01*
X144522371Y-48792338D01*
X144507686Y-48817015D01*
X144498158Y-48843816D01*
X144492707Y-48879587D01*
X144490253Y-48931169D01*
X144489714Y-48999267D01*
X144492148Y-49092588D01*
X144500606Y-49162657D01*
X144516826Y-49214931D01*
X144542546Y-49254869D01*
X144579503Y-49287929D01*
X144582218Y-49289886D01*
X144618640Y-49309908D01*
X144662498Y-49319815D01*
X144718276Y-49322257D01*
X144808952Y-49322257D01*
X144808990Y-49410283D01*
X144809834Y-49459308D01*
X144814976Y-49488065D01*
X144828413Y-49505311D01*
X144854142Y-49519808D01*
X144860321Y-49522769D01*
X144889236Y-49536648D01*
X144911624Y-49545414D01*
X144928271Y-49546171D01*
X144939964Y-49536023D01*
X144947490Y-49512073D01*
X144951634Y-49471426D01*
X144953185Y-49411186D01*
X144952929Y-49328455D01*
X144951651Y-49220339D01*
X144951252Y-49188000D01*
X144949815Y-49076524D01*
X144948528Y-49003603D01*
X144809029Y-49003603D01*
X144808245Y-49065499D01*
X144804760Y-49105997D01*
X144796876Y-49132708D01*
X144782895Y-49153244D01*
X144773403Y-49163260D01*
X144734596Y-49192567D01*
X144700237Y-49194952D01*
X144664784Y-49170750D01*
X144663886Y-49169857D01*
X144649461Y-49151153D01*
X144640687Y-49125732D01*
X144636261Y-49086584D01*
X144634882Y-49026697D01*
X144634857Y-49013430D01*
X144638188Y-48930901D01*
X144649031Y-48873691D01*
X144668660Y-48838766D01*
X144698350Y-48823094D01*
X144715509Y-48821514D01*
X144756234Y-48828926D01*
X144784168Y-48853330D01*
X144800983Y-48897980D01*
X144808350Y-48966130D01*
X144809029Y-49003603D01*
X144948528Y-49003603D01*
X144948292Y-48990245D01*
X144946323Y-48925333D01*
X144943550Y-48877958D01*
X144939612Y-48844290D01*
X144934151Y-48820498D01*
X144926808Y-48802753D01*
X144917223Y-48787224D01*
X144913113Y-48781381D01*
X144858595Y-48726185D01*
X144789664Y-48694890D01*
X144709928Y-48686165D01*
X144640256Y-48694918D01*
G36*
X175861177Y-49324533D02*
G01*
X175829798Y-49346776D01*
X175802089Y-49374485D01*
X175802089Y-49683920D01*
X175802162Y-49775799D01*
X175802505Y-49847840D01*
X175803308Y-49902780D01*
X175804759Y-49943360D01*
X175807048Y-49972317D01*
X175810364Y-49992391D01*
X175814895Y-50006321D01*
X175820831Y-50016845D01*
X175825486Y-50023100D01*
X175856217Y-50047673D01*
X175891504Y-50050341D01*
X175923755Y-50035271D01*
X175934412Y-50026374D01*
X175941536Y-50014557D01*
X175945833Y-49995526D01*
X175948009Y-49964992D01*
X175948772Y-49918662D01*
X175948845Y-49882871D01*
X175948845Y-49748045D01*
X176445556Y-49748045D01*
X176445556Y-49870700D01*
X176446069Y-49926787D01*
X176448124Y-49965333D01*
X176452492Y-49991361D01*
X176459944Y-50009897D01*
X176468953Y-50023100D01*
X176499856Y-50047604D01*
X176534804Y-50050506D01*
X176568262Y-50033089D01*
X176577396Y-50023959D01*
X176583848Y-50011855D01*
X176588103Y-49993001D01*
X176590648Y-49963620D01*
X176591971Y-49919937D01*
X176592557Y-49858175D01*
X176592625Y-49844000D01*
X176593109Y-49727631D01*
X176593359Y-49631727D01*
X176593277Y-49554177D01*
X176592769Y-49492869D01*
X176591738Y-49445690D01*
X176590087Y-49410530D01*
X176587721Y-49385276D01*
X176584543Y-49367817D01*
X176580456Y-49356041D01*
X176575366Y-49347835D01*
X176569734Y-49341645D01*
X176537872Y-49321844D01*
X176504643Y-49324533D01*
X176473265Y-49346776D01*
X176460567Y-49361126D01*
X176452474Y-49376978D01*
X176447958Y-49399554D01*
X176445994Y-49434078D01*
X176445556Y-49485776D01*
X176445556Y-49601289D01*
X175948845Y-49601289D01*
X175948845Y-49482756D01*
X175948338Y-49428148D01*
X175946302Y-49391275D01*
X175941965Y-49367307D01*
X175934553Y-49351415D01*
X175926267Y-49341645D01*
X175894406Y-49321844D01*
X175861177Y-49324533D01*
G37*
X175861177Y-49324533D02*
X175829798Y-49346776D01*
X175802089Y-49374485D01*
X175802089Y-49683920D01*
X175802162Y-49775799D01*
X175802505Y-49847840D01*
X175803308Y-49902780D01*
X175804759Y-49943360D01*
X175807048Y-49972317D01*
X175810364Y-49992391D01*
X175814895Y-50006321D01*
X175820831Y-50016845D01*
X175825486Y-50023100D01*
X175856217Y-50047673D01*
X175891504Y-50050341D01*
X175923755Y-50035271D01*
X175934412Y-50026374D01*
X175941536Y-50014557D01*
X175945833Y-49995526D01*
X175948009Y-49964992D01*
X175948772Y-49918662D01*
X175948845Y-49882871D01*
X175948845Y-49748045D01*
X176445556Y-49748045D01*
X176445556Y-49870700D01*
X176446069Y-49926787D01*
X176448124Y-49965333D01*
X176452492Y-49991361D01*
X176459944Y-50009897D01*
X176468953Y-50023100D01*
X176499856Y-50047604D01*
X176534804Y-50050506D01*
X176568262Y-50033089D01*
X176577396Y-50023959D01*
X176583848Y-50011855D01*
X176588103Y-49993001D01*
X176590648Y-49963620D01*
X176591971Y-49919937D01*
X176592557Y-49858175D01*
X176592625Y-49844000D01*
X176593109Y-49727631D01*
X176593359Y-49631727D01*
X176593277Y-49554177D01*
X176592769Y-49492869D01*
X176591738Y-49445690D01*
X176590087Y-49410530D01*
X176587721Y-49385276D01*
X176584543Y-49367817D01*
X176580456Y-49356041D01*
X176575366Y-49347835D01*
X176569734Y-49341645D01*
X176537872Y-49321844D01*
X176504643Y-49324533D01*
X176473265Y-49346776D01*
X176460567Y-49361126D01*
X176452474Y-49376978D01*
X176447958Y-49399554D01*
X176445994Y-49434078D01*
X176445556Y-49485776D01*
X176445556Y-49601289D01*
X175948845Y-49601289D01*
X175948845Y-49482756D01*
X175948338Y-49428148D01*
X175946302Y-49391275D01*
X175941965Y-49367307D01*
X175934553Y-49351415D01*
X175926267Y-49341645D01*
X175894406Y-49321844D01*
X175861177Y-49324533D01*
G36*
X177126935Y-49319163D02*
G01*
X177048228Y-49319542D01*
X176987137Y-49320333D01*
X176941183Y-49321670D01*
X176907886Y-49323683D01*
X176884764Y-49326506D01*
X176869338Y-49330269D01*
X176859129Y-49335105D01*
X176854187Y-49338822D01*
X176828543Y-49371358D01*
X176825441Y-49405138D01*
X176841289Y-49435826D01*
X176851652Y-49448089D01*
X176862804Y-49456450D01*
X176878965Y-49461657D01*
X176904358Y-49464457D01*
X176943202Y-49465596D01*
X176999720Y-49465821D01*
X177010820Y-49465822D01*
X177156756Y-49465822D01*
X177156756Y-49736756D01*
X177156852Y-49822154D01*
X177157289Y-49887864D01*
X177158288Y-49936774D01*
X177160072Y-49971773D01*
X177162863Y-49995749D01*
X177166883Y-50011593D01*
X177172355Y-50022191D01*
X177179334Y-50030267D01*
X177212266Y-50050112D01*
X177246646Y-50048548D01*
X177277824Y-50025906D01*
X177280114Y-50023100D01*
X177287571Y-50012492D01*
X177293253Y-50000081D01*
X177297399Y-49982850D01*
X177300250Y-49957784D01*
X177302046Y-49921867D01*
X177303028Y-49872083D01*
X177303436Y-49805417D01*
X177303511Y-49729589D01*
X177303511Y-49465822D01*
X177442873Y-49465822D01*
X177502678Y-49465418D01*
X177544082Y-49463840D01*
X177571252Y-49460547D01*
X177588354Y-49454992D01*
X177599557Y-49446631D01*
X177600917Y-49445178D01*
X177617275Y-49411939D01*
X177615828Y-49374362D01*
X177597022Y-49341645D01*
X177589750Y-49335298D01*
X177580373Y-49330266D01*
X177566391Y-49326396D01*
X177545304Y-49323537D01*
X177514611Y-49321535D01*
X177471811Y-49320239D01*
X177414405Y-49319498D01*
X177339890Y-49319158D01*
X177245767Y-49319068D01*
X177225740Y-49319067D01*
X177126935Y-49319163D01*
G37*
X177126935Y-49319163D02*
X177048228Y-49319542D01*
X176987137Y-49320333D01*
X176941183Y-49321670D01*
X176907886Y-49323683D01*
X176884764Y-49326506D01*
X176869338Y-49330269D01*
X176859129Y-49335105D01*
X176854187Y-49338822D01*
X176828543Y-49371358D01*
X176825441Y-49405138D01*
X176841289Y-49435826D01*
X176851652Y-49448089D01*
X176862804Y-49456450D01*
X176878965Y-49461657D01*
X176904358Y-49464457D01*
X176943202Y-49465596D01*
X176999720Y-49465821D01*
X177010820Y-49465822D01*
X177156756Y-49465822D01*
X177156756Y-49736756D01*
X177156852Y-49822154D01*
X177157289Y-49887864D01*
X177158288Y-49936774D01*
X177160072Y-49971773D01*
X177162863Y-49995749D01*
X177166883Y-50011593D01*
X177172355Y-50022191D01*
X177179334Y-50030267D01*
X177212266Y-50050112D01*
X177246646Y-50048548D01*
X177277824Y-50025906D01*
X177280114Y-50023100D01*
X177287571Y-50012492D01*
X177293253Y-50000081D01*
X177297399Y-49982850D01*
X177300250Y-49957784D01*
X177302046Y-49921867D01*
X177303028Y-49872083D01*
X177303436Y-49805417D01*
X177303511Y-49729589D01*
X177303511Y-49465822D01*
X177442873Y-49465822D01*
X177502678Y-49465418D01*
X177544082Y-49463840D01*
X177571252Y-49460547D01*
X177588354Y-49454992D01*
X177599557Y-49446631D01*
X177600917Y-49445178D01*
X177617275Y-49411939D01*
X177615828Y-49374362D01*
X177597022Y-49341645D01*
X177589750Y-49335298D01*
X177580373Y-49330266D01*
X177566391Y-49326396D01*
X177545304Y-49323537D01*
X177514611Y-49321535D01*
X177471811Y-49320239D01*
X177414405Y-49319498D01*
X177339890Y-49319158D01*
X177245767Y-49319068D01*
X177225740Y-49319067D01*
X177126935Y-49319163D01*
G36*
X177901386Y-49325877D02*
G01*
X177877673Y-49340647D01*
X177851022Y-49362227D01*
X177851022Y-49683773D01*
X177851107Y-49777830D01*
X177851471Y-49851932D01*
X177852276Y-49908704D01*
X177853687Y-49950768D01*
X177855867Y-49980748D01*
X177858979Y-50001267D01*
X177863186Y-50014949D01*
X177868652Y-50024416D01*
X177872528Y-50029082D01*
X177903966Y-50049575D01*
X177939767Y-50048739D01*
X177971127Y-50031264D01*
X177997778Y-50009684D01*
X177997778Y-49362227D01*
X177971127Y-49340647D01*
X177945406Y-49324949D01*
X177924400Y-49319067D01*
X177901386Y-49325877D01*
G37*
X177901386Y-49325877D02*
X177877673Y-49340647D01*
X177851022Y-49362227D01*
X177851022Y-49683773D01*
X177851107Y-49777830D01*
X177851471Y-49851932D01*
X177852276Y-49908704D01*
X177853687Y-49950768D01*
X177855867Y-49980748D01*
X177858979Y-50001267D01*
X177863186Y-50014949D01*
X177868652Y-50024416D01*
X177872528Y-50029082D01*
X177903966Y-50049575D01*
X177939767Y-50048739D01*
X177971127Y-50031264D01*
X177997778Y-50009684D01*
X177997778Y-49362227D01*
X177971127Y-49340647D01*
X177945406Y-49324949D01*
X177924400Y-49319067D01*
X177901386Y-49325877D01*
G36*
X178345335Y-49321034D02*
G01*
X178325745Y-49328035D01*
X178324990Y-49328377D01*
X178298387Y-49348678D01*
X178283730Y-49369561D01*
X178280862Y-49379352D01*
X178281004Y-49392361D01*
X178285039Y-49410895D01*
X178293854Y-49437257D01*
X178308331Y-49473752D01*
X178329355Y-49522687D01*
X178357812Y-49586365D01*
X178394585Y-49667093D01*
X178414825Y-49711216D01*
X178451375Y-49789985D01*
X178485685Y-49862423D01*
X178516448Y-49925880D01*
X178542352Y-49977708D01*
X178562090Y-50015259D01*
X178574350Y-50035884D01*
X178576776Y-50038733D01*
X178607817Y-50051302D01*
X178642879Y-50049619D01*
X178671000Y-50034332D01*
X178672146Y-50033089D01*
X178683332Y-50016154D01*
X178702096Y-49983170D01*
X178726125Y-49938380D01*
X178753103Y-49886032D01*
X178762799Y-49866742D01*
X178835986Y-49720150D01*
X178915760Y-49879393D01*
X178944233Y-49934415D01*
X178970650Y-49982132D01*
X178992852Y-50018893D01*
X179008681Y-50041044D01*
X179014046Y-50045741D01*
X179055743Y-50052102D01*
X179090151Y-50038733D01*
X179100272Y-50024446D01*
X179117786Y-49992692D01*
X179141265Y-49946597D01*
X179169280Y-49889285D01*
X179200401Y-49823880D01*
X179233201Y-49753507D01*
X179266250Y-49681291D01*
X179298119Y-49610355D01*
X179327381Y-49543825D01*
X179352605Y-49484826D01*
X179372364Y-49436481D01*
X179385228Y-49401915D01*
X179389769Y-49384253D01*
X179389723Y-49383613D01*
X179378674Y-49361388D01*
X179356590Y-49338753D01*
X179355290Y-49337768D01*
X179328147Y-49322425D01*
X179303042Y-49322574D01*
X179293632Y-49325466D01*
X179282166Y-49331718D01*
X179269990Y-49344014D01*
X179255643Y-49364908D01*
X179237664Y-49396949D01*
X179214593Y-49442688D01*
X179184970Y-49504677D01*
X179158255Y-49561898D01*
X179127520Y-49628226D01*
X179099979Y-49687874D01*
X179077062Y-49737725D01*
X179060202Y-49774664D01*
X179050827Y-49795573D01*
X179049460Y-49798845D01*
X179043311Y-49793497D01*
X179029178Y-49771109D01*
X179008943Y-49734946D01*
X178984485Y-49688277D01*
X178974752Y-49669022D01*
X178941783Y-49604004D01*
X178916357Y-49556654D01*
X178896388Y-49524219D01*
X178879790Y-49503946D01*
X178864476Y-49493082D01*
X178848360Y-49488875D01*
X178837857Y-49488400D01*
X178819330Y-49490042D01*
X178803096Y-49496831D01*
X178786965Y-49511566D01*
X178768749Y-49537044D01*
X178746261Y-49576061D01*
X178717311Y-49631414D01*
X178701338Y-49662903D01*
X178675430Y-49713087D01*
X178652833Y-49754704D01*
X178635542Y-49784242D01*
X178625550Y-49798189D01*
X178624191Y-49798770D01*
X178617739Y-49787793D01*
X178603292Y-49759290D01*
X178582297Y-49716244D01*
X178556203Y-49661638D01*
X178526454Y-49598454D01*
X178511820Y-49567071D01*
X178473750Y-49486078D01*
X178443095Y-49423756D01*
X178418263Y-49378071D01*
X178397663Y-49346989D01*
X178379702Y-49328478D01*
X178362790Y-49320504D01*
X178345335Y-49321034D01*
G37*
X178345335Y-49321034D02*
X178325745Y-49328035D01*
X178324990Y-49328377D01*
X178298387Y-49348678D01*
X178283730Y-49369561D01*
X178280862Y-49379352D01*
X178281004Y-49392361D01*
X178285039Y-49410895D01*
X178293854Y-49437257D01*
X178308331Y-49473752D01*
X178329355Y-49522687D01*
X178357812Y-49586365D01*
X178394585Y-49667093D01*
X178414825Y-49711216D01*
X178451375Y-49789985D01*
X178485685Y-49862423D01*
X178516448Y-49925880D01*
X178542352Y-49977708D01*
X178562090Y-50015259D01*
X178574350Y-50035884D01*
X178576776Y-50038733D01*
X178607817Y-50051302D01*
X178642879Y-50049619D01*
X178671000Y-50034332D01*
X178672146Y-50033089D01*
X178683332Y-50016154D01*
X178702096Y-49983170D01*
X178726125Y-49938380D01*
X178753103Y-49886032D01*
X178762799Y-49866742D01*
X178835986Y-49720150D01*
X178915760Y-49879393D01*
X178944233Y-49934415D01*
X178970650Y-49982132D01*
X178992852Y-50018893D01*
X179008681Y-50041044D01*
X179014046Y-50045741D01*
X179055743Y-50052102D01*
X179090151Y-50038733D01*
X179100272Y-50024446D01*
X179117786Y-49992692D01*
X179141265Y-49946597D01*
X179169280Y-49889285D01*
X179200401Y-49823880D01*
X179233201Y-49753507D01*
X179266250Y-49681291D01*
X179298119Y-49610355D01*
X179327381Y-49543825D01*
X179352605Y-49484826D01*
X179372364Y-49436481D01*
X179385228Y-49401915D01*
X179389769Y-49384253D01*
X179389723Y-49383613D01*
X179378674Y-49361388D01*
X179356590Y-49338753D01*
X179355290Y-49337768D01*
X179328147Y-49322425D01*
X179303042Y-49322574D01*
X179293632Y-49325466D01*
X179282166Y-49331718D01*
X179269990Y-49344014D01*
X179255643Y-49364908D01*
X179237664Y-49396949D01*
X179214593Y-49442688D01*
X179184970Y-49504677D01*
X179158255Y-49561898D01*
X179127520Y-49628226D01*
X179099979Y-49687874D01*
X179077062Y-49737725D01*
X179060202Y-49774664D01*
X179050827Y-49795573D01*
X179049460Y-49798845D01*
X179043311Y-49793497D01*
X179029178Y-49771109D01*
X179008943Y-49734946D01*
X178984485Y-49688277D01*
X178974752Y-49669022D01*
X178941783Y-49604004D01*
X178916357Y-49556654D01*
X178896388Y-49524219D01*
X178879790Y-49503946D01*
X178864476Y-49493082D01*
X178848360Y-49488875D01*
X178837857Y-49488400D01*
X178819330Y-49490042D01*
X178803096Y-49496831D01*
X178786965Y-49511566D01*
X178768749Y-49537044D01*
X178746261Y-49576061D01*
X178717311Y-49631414D01*
X178701338Y-49662903D01*
X178675430Y-49713087D01*
X178652833Y-49754704D01*
X178635542Y-49784242D01*
X178625550Y-49798189D01*
X178624191Y-49798770D01*
X178617739Y-49787793D01*
X178603292Y-49759290D01*
X178582297Y-49716244D01*
X178556203Y-49661638D01*
X178526454Y-49598454D01*
X178511820Y-49567071D01*
X178473750Y-49486078D01*
X178443095Y-49423756D01*
X178418263Y-49378071D01*
X178397663Y-49346989D01*
X178379702Y-49328478D01*
X178362790Y-49320504D01*
X178345335Y-49321034D01*
G36*
X181071691Y-49319275D02*
G01*
X180942712Y-49323636D01*
X180833009Y-49336861D01*
X180740774Y-49359741D01*
X180664198Y-49393070D01*
X180601473Y-49437638D01*
X180550788Y-49494236D01*
X180510337Y-49563658D01*
X180509541Y-49565351D01*
X180485399Y-49627483D01*
X180476797Y-49682509D01*
X180483769Y-49737887D01*
X180506346Y-49801073D01*
X180510628Y-49810689D01*
X180539828Y-49866966D01*
X180572644Y-49910451D01*
X180614998Y-49947417D01*
X180672810Y-49984135D01*
X180676169Y-49986052D01*
X180726496Y-50010227D01*
X180783379Y-50028282D01*
X180850473Y-50040839D01*
X180931435Y-50048522D01*
X181029918Y-50051953D01*
X181064714Y-50052251D01*
X181230406Y-50052845D01*
X181253803Y-50023100D01*
X181260743Y-50013319D01*
X181266158Y-50001897D01*
X181270235Y-49986095D01*
X181273163Y-49963175D01*
X181275133Y-49930396D01*
X181275775Y-49906089D01*
X181119156Y-49906089D01*
X181025274Y-49906089D01*
X180970336Y-49904483D01*
X180913940Y-49900255D01*
X180867655Y-49894292D01*
X180864861Y-49893790D01*
X180782652Y-49871736D01*
X180718886Y-49838600D01*
X180671548Y-49792847D01*
X180638618Y-49732939D01*
X180632892Y-49717061D01*
X180627279Y-49692333D01*
X180629709Y-49667902D01*
X180641533Y-49635400D01*
X180648660Y-49619434D01*
X180672000Y-49577006D01*
X180700120Y-49547240D01*
X180731060Y-49526511D01*
X180793034Y-49499537D01*
X180872349Y-49479998D01*
X180964747Y-49468746D01*
X181031667Y-49466270D01*
X181119156Y-49465822D01*
X181119156Y-49906089D01*
X181275775Y-49906089D01*
X181276332Y-49885021D01*
X181276950Y-49824311D01*
X181277175Y-49745526D01*
X181277200Y-49683920D01*
X181277200Y-49374485D01*
X181249491Y-49346776D01*
X181237194Y-49335544D01*
X181223897Y-49327853D01*
X181205328Y-49323040D01*
X181177214Y-49320446D01*
X181135283Y-49319410D01*
X181075263Y-49319270D01*
X181071691Y-49319275D01*
G37*
X181071691Y-49319275D02*
X180942712Y-49323636D01*
X180833009Y-49336861D01*
X180740774Y-49359741D01*
X180664198Y-49393070D01*
X180601473Y-49437638D01*
X180550788Y-49494236D01*
X180510337Y-49563658D01*
X180509541Y-49565351D01*
X180485399Y-49627483D01*
X180476797Y-49682509D01*
X180483769Y-49737887D01*
X180506346Y-49801073D01*
X180510628Y-49810689D01*
X180539828Y-49866966D01*
X180572644Y-49910451D01*
X180614998Y-49947417D01*
X180672810Y-49984135D01*
X180676169Y-49986052D01*
X180726496Y-50010227D01*
X180783379Y-50028282D01*
X180850473Y-50040839D01*
X180931435Y-50048522D01*
X181029918Y-50051953D01*
X181064714Y-50052251D01*
X181230406Y-50052845D01*
X181253803Y-50023100D01*
X181260743Y-50013319D01*
X181266158Y-50001897D01*
X181270235Y-49986095D01*
X181273163Y-49963175D01*
X181275133Y-49930396D01*
X181275775Y-49906089D01*
X181119156Y-49906089D01*
X181025274Y-49906089D01*
X180970336Y-49904483D01*
X180913940Y-49900255D01*
X180867655Y-49894292D01*
X180864861Y-49893790D01*
X180782652Y-49871736D01*
X180718886Y-49838600D01*
X180671548Y-49792847D01*
X180638618Y-49732939D01*
X180632892Y-49717061D01*
X180627279Y-49692333D01*
X180629709Y-49667902D01*
X180641533Y-49635400D01*
X180648660Y-49619434D01*
X180672000Y-49577006D01*
X180700120Y-49547240D01*
X180731060Y-49526511D01*
X180793034Y-49499537D01*
X180872349Y-49479998D01*
X180964747Y-49468746D01*
X181031667Y-49466270D01*
X181119156Y-49465822D01*
X181119156Y-49906089D01*
X181275775Y-49906089D01*
X181276332Y-49885021D01*
X181276950Y-49824311D01*
X181277175Y-49745526D01*
X181277200Y-49683920D01*
X181277200Y-49374485D01*
X181249491Y-49346776D01*
X181237194Y-49335544D01*
X181223897Y-49327853D01*
X181205328Y-49323040D01*
X181177214Y-49320446D01*
X181135283Y-49319410D01*
X181075263Y-49319270D01*
X181071691Y-49319275D01*
G36*
X181859657Y-49319260D02*
G01*
X181783299Y-49320174D01*
X181724783Y-49322311D01*
X181681745Y-49326175D01*
X181651817Y-49332267D01*
X181632632Y-49341090D01*
X181621824Y-49353146D01*
X181617027Y-49368939D01*
X181615873Y-49388970D01*
X181615867Y-49391335D01*
X181616869Y-49413992D01*
X181621604Y-49431503D01*
X181632667Y-49444574D01*
X181652652Y-49453913D01*
X181684154Y-49460227D01*
X181729768Y-49464222D01*
X181792087Y-49466606D01*
X181873707Y-49468086D01*
X181898723Y-49468414D01*
X182140800Y-49471467D01*
X182144186Y-49536378D01*
X182147571Y-49601289D01*
X181979424Y-49601289D01*
X181913734Y-49601531D01*
X181866828Y-49602556D01*
X181834917Y-49604811D01*
X181814209Y-49608742D01*
X181800916Y-49614798D01*
X181791245Y-49623424D01*
X181791183Y-49623493D01*
X181773644Y-49657112D01*
X181774278Y-49693448D01*
X181792686Y-49724423D01*
X181796329Y-49727607D01*
X181809259Y-49735812D01*
X181826976Y-49741521D01*
X181853430Y-49745162D01*
X181892568Y-49747167D01*
X181948338Y-49747964D01*
X181984006Y-49748045D01*
X182146445Y-49748045D01*
X182146445Y-49906089D01*
X181899839Y-49906089D01*
X181818420Y-49906231D01*
X181756590Y-49906814D01*
X181711363Y-49908068D01*
X181679752Y-49910227D01*
X181658769Y-49913523D01*
X181645427Y-49918189D01*
X181636739Y-49924457D01*
X181634550Y-49926733D01*
X181618386Y-49958280D01*
X181617203Y-49994168D01*
X181630464Y-50025285D01*
X181640957Y-50035271D01*
X181651871Y-50040769D01*
X181668783Y-50045022D01*
X181694367Y-50048180D01*
X181731299Y-50050392D01*
X181782254Y-50051806D01*
X181849906Y-50052572D01*
X181936931Y-50052838D01*
X181956606Y-50052845D01*
X182045089Y-50052787D01*
X182113773Y-50052467D01*
X182165436Y-50051667D01*
X182202855Y-50050167D01*
X182228810Y-50047749D01*
X182246078Y-50044194D01*
X182257438Y-50039282D01*
X182265668Y-50032795D01*
X182270183Y-50028138D01*
X182276979Y-50019889D01*
X182282288Y-50009669D01*
X182286294Y-49994800D01*
X182289179Y-49972602D01*
X182291126Y-49940393D01*
X182292319Y-49895496D01*
X182292939Y-49835228D01*
X182293171Y-49756911D01*
X182293200Y-49690994D01*
X182293129Y-49598628D01*
X182292792Y-49526117D01*
X182292002Y-49470737D01*
X182290574Y-49429765D01*
X182288321Y-49400478D01*
X182285057Y-49380153D01*
X182280596Y-49366066D01*
X182274752Y-49355495D01*
X182269803Y-49348811D01*
X182246406Y-49319067D01*
X181956226Y-49319067D01*
X181859657Y-49319260D01*
G37*
X181859657Y-49319260D02*
X181783299Y-49320174D01*
X181724783Y-49322311D01*
X181681745Y-49326175D01*
X181651817Y-49332267D01*
X181632632Y-49341090D01*
X181621824Y-49353146D01*
X181617027Y-49368939D01*
X181615873Y-49388970D01*
X181615867Y-49391335D01*
X181616869Y-49413992D01*
X181621604Y-49431503D01*
X181632667Y-49444574D01*
X181652652Y-49453913D01*
X181684154Y-49460227D01*
X181729768Y-49464222D01*
X181792087Y-49466606D01*
X181873707Y-49468086D01*
X181898723Y-49468414D01*
X182140800Y-49471467D01*
X182144186Y-49536378D01*
X182147571Y-49601289D01*
X181979424Y-49601289D01*
X181913734Y-49601531D01*
X181866828Y-49602556D01*
X181834917Y-49604811D01*
X181814209Y-49608742D01*
X181800916Y-49614798D01*
X181791245Y-49623424D01*
X181791183Y-49623493D01*
X181773644Y-49657112D01*
X181774278Y-49693448D01*
X181792686Y-49724423D01*
X181796329Y-49727607D01*
X181809259Y-49735812D01*
X181826976Y-49741521D01*
X181853430Y-49745162D01*
X181892568Y-49747167D01*
X181948338Y-49747964D01*
X181984006Y-49748045D01*
X182146445Y-49748045D01*
X182146445Y-49906089D01*
X181899839Y-49906089D01*
X181818420Y-49906231D01*
X181756590Y-49906814D01*
X181711363Y-49908068D01*
X181679752Y-49910227D01*
X181658769Y-49913523D01*
X181645427Y-49918189D01*
X181636739Y-49924457D01*
X181634550Y-49926733D01*
X181618386Y-49958280D01*
X181617203Y-49994168D01*
X181630464Y-50025285D01*
X181640957Y-50035271D01*
X181651871Y-50040769D01*
X181668783Y-50045022D01*
X181694367Y-50048180D01*
X181731299Y-50050392D01*
X181782254Y-50051806D01*
X181849906Y-50052572D01*
X181936931Y-50052838D01*
X181956606Y-50052845D01*
X182045089Y-50052787D01*
X182113773Y-50052467D01*
X182165436Y-50051667D01*
X182202855Y-50050167D01*
X182228810Y-50047749D01*
X182246078Y-50044194D01*
X182257438Y-50039282D01*
X182265668Y-50032795D01*
X182270183Y-50028138D01*
X182276979Y-50019889D01*
X182282288Y-50009669D01*
X182286294Y-49994800D01*
X182289179Y-49972602D01*
X182291126Y-49940393D01*
X182292319Y-49895496D01*
X182292939Y-49835228D01*
X182293171Y-49756911D01*
X182293200Y-49690994D01*
X182293129Y-49598628D01*
X182292792Y-49526117D01*
X182292002Y-49470737D01*
X182290574Y-49429765D01*
X182288321Y-49400478D01*
X182285057Y-49380153D01*
X182280596Y-49366066D01*
X182274752Y-49355495D01*
X182269803Y-49348811D01*
X182246406Y-49319067D01*
X181956226Y-49319067D01*
X181859657Y-49319260D01*
G36*
X183390114Y-49323448D02*
G01*
X183366548Y-49337273D01*
X183335735Y-49359881D01*
X183296078Y-49392338D01*
X183245980Y-49435708D01*
X183183843Y-49491058D01*
X183108072Y-49559451D01*
X183021334Y-49638084D01*
X182840711Y-49801878D01*
X182835067Y-49582029D01*
X182833029Y-49506351D01*
X182831063Y-49449994D01*
X182828734Y-49409706D01*
X182825606Y-49382235D01*
X182821245Y-49364329D01*
X182815216Y-49352737D01*
X182807084Y-49344208D01*
X182802772Y-49340623D01*
X182768241Y-49321670D01*
X182735383Y-49324441D01*
X182709318Y-49340633D01*
X182682667Y-49362199D01*
X182679352Y-49677151D01*
X182678435Y-49769779D01*
X182677968Y-49842544D01*
X182678113Y-49898161D01*
X182679032Y-49939342D01*
X182680887Y-49968803D01*
X182683839Y-49989255D01*
X182688050Y-50003413D01*
X182693682Y-50013991D01*
X182699927Y-50022474D01*
X182713439Y-50038207D01*
X182726883Y-50048636D01*
X182742124Y-50052639D01*
X182761026Y-50049094D01*
X182785455Y-50036879D01*
X182817273Y-50014871D01*
X182858348Y-49981949D01*
X182910542Y-49936991D01*
X182975722Y-49878875D01*
X183049556Y-49812099D01*
X183314845Y-49571458D01*
X183320489Y-49790589D01*
X183322531Y-49866128D01*
X183324502Y-49922354D01*
X183326839Y-49962524D01*
X183329981Y-49989896D01*
X183334364Y-50007728D01*
X183340424Y-50019279D01*
X183348600Y-50027807D01*
X183352784Y-50031282D01*
X183389765Y-50050372D01*
X183424708Y-50047493D01*
X183455136Y-50023100D01*
X183462097Y-50013286D01*
X183467523Y-50001826D01*
X183471603Y-49985968D01*
X183474529Y-49962963D01*
X183476492Y-49930062D01*
X183477683Y-49884516D01*
X183478292Y-49823573D01*
X183478511Y-49744486D01*
X183478534Y-49685956D01*
X183478460Y-49594407D01*
X183478113Y-49522687D01*
X183477301Y-49468045D01*
X183475833Y-49427732D01*
X183473519Y-49398998D01*
X183470167Y-49379093D01*
X183465588Y-49365268D01*
X183459589Y-49354772D01*
X183455136Y-49348811D01*
X183443850Y-49334691D01*
X183433301Y-49324029D01*
X183421893Y-49317892D01*
X183408030Y-49317343D01*
X183390114Y-49323448D01*
G37*
X183390114Y-49323448D02*
X183366548Y-49337273D01*
X183335735Y-49359881D01*
X183296078Y-49392338D01*
X183245980Y-49435708D01*
X183183843Y-49491058D01*
X183108072Y-49559451D01*
X183021334Y-49638084D01*
X182840711Y-49801878D01*
X182835067Y-49582029D01*
X182833029Y-49506351D01*
X182831063Y-49449994D01*
X182828734Y-49409706D01*
X182825606Y-49382235D01*
X182821245Y-49364329D01*
X182815216Y-49352737D01*
X182807084Y-49344208D01*
X182802772Y-49340623D01*
X182768241Y-49321670D01*
X182735383Y-49324441D01*
X182709318Y-49340633D01*
X182682667Y-49362199D01*
X182679352Y-49677151D01*
X182678435Y-49769779D01*
X182677968Y-49842544D01*
X182678113Y-49898161D01*
X182679032Y-49939342D01*
X182680887Y-49968803D01*
X182683839Y-49989255D01*
X182688050Y-50003413D01*
X182693682Y-50013991D01*
X182699927Y-50022474D01*
X182713439Y-50038207D01*
X182726883Y-50048636D01*
X182742124Y-50052639D01*
X182761026Y-50049094D01*
X182785455Y-50036879D01*
X182817273Y-50014871D01*
X182858348Y-49981949D01*
X182910542Y-49936991D01*
X182975722Y-49878875D01*
X183049556Y-49812099D01*
X183314845Y-49571458D01*
X183320489Y-49790589D01*
X183322531Y-49866128D01*
X183324502Y-49922354D01*
X183326839Y-49962524D01*
X183329981Y-49989896D01*
X183334364Y-50007728D01*
X183340424Y-50019279D01*
X183348600Y-50027807D01*
X183352784Y-50031282D01*
X183389765Y-50050372D01*
X183424708Y-50047493D01*
X183455136Y-50023100D01*
X183462097Y-50013286D01*
X183467523Y-50001826D01*
X183471603Y-49985968D01*
X183474529Y-49962963D01*
X183476492Y-49930062D01*
X183477683Y-49884516D01*
X183478292Y-49823573D01*
X183478511Y-49744486D01*
X183478534Y-49685956D01*
X183478460Y-49594407D01*
X183478113Y-49522687D01*
X183477301Y-49468045D01*
X183475833Y-49427732D01*
X183473519Y-49398998D01*
X183470167Y-49379093D01*
X183465588Y-49365268D01*
X183459589Y-49354772D01*
X183455136Y-49348811D01*
X183443850Y-49334691D01*
X183433301Y-49324029D01*
X183421893Y-49317892D01*
X183408030Y-49317343D01*
X183390114Y-49323448D01*
G36*
X184040081Y-49324599D02*
G01*
X183971565Y-49336095D01*
X183918943Y-49353967D01*
X183884708Y-49377499D01*
X183875379Y-49390924D01*
X183865893Y-49422148D01*
X183872277Y-49450395D01*
X183892430Y-49477182D01*
X183923745Y-49489713D01*
X183969183Y-49488696D01*
X184004326Y-49481906D01*
X184082419Y-49468971D01*
X184162226Y-49467742D01*
X184251555Y-49478241D01*
X184276229Y-49482690D01*
X184359291Y-49506108D01*
X184424273Y-49540945D01*
X184470461Y-49586604D01*
X184497145Y-49642494D01*
X184502663Y-49671388D01*
X184499051Y-49730012D01*
X184475729Y-49781879D01*
X184434824Y-49825978D01*
X184378459Y-49861299D01*
X184308760Y-49886829D01*
X184227852Y-49901559D01*
X184137860Y-49904478D01*
X184040910Y-49894575D01*
X184035436Y-49893641D01*
X183996875Y-49886459D01*
X183975494Y-49879521D01*
X183966227Y-49869227D01*
X183964006Y-49851976D01*
X183963956Y-49842841D01*
X183963956Y-49804489D01*
X184032431Y-49804489D01*
X184092900Y-49800347D01*
X184134165Y-49787147D01*
X184158175Y-49763730D01*
X184166877Y-49728936D01*
X184166983Y-49724394D01*
X184161892Y-49694654D01*
X184144433Y-49673419D01*
X184111939Y-49659366D01*
X184061743Y-49651173D01*
X184013123Y-49648161D01*
X183942456Y-49646433D01*
X183891198Y-49649070D01*
X183856239Y-49658800D01*
X183834470Y-49678353D01*
X183822780Y-49710456D01*
X183818060Y-49757838D01*
X183817200Y-49820071D01*
X183818609Y-49889535D01*
X183822848Y-49936786D01*
X183829936Y-49962012D01*
X183831311Y-49963988D01*
X183870228Y-49995508D01*
X183927286Y-50020470D01*
X183998869Y-50038340D01*
X184081358Y-50048586D01*
X184171139Y-50050673D01*
X184264592Y-50044068D01*
X184319556Y-50035956D01*
X184405766Y-50011554D01*
X184485892Y-49971662D01*
X184552977Y-49919887D01*
X184563173Y-49909539D01*
X184596302Y-49866035D01*
X184626194Y-49812118D01*
X184649357Y-49755592D01*
X184662298Y-49704259D01*
X184663858Y-49684544D01*
X184657218Y-49643419D01*
X184639568Y-49592252D01*
X184614297Y-49538394D01*
X184584789Y-49489195D01*
X184558719Y-49456334D01*
X184497765Y-49407452D01*
X184418969Y-49368545D01*
X184325157Y-49340494D01*
X184219150Y-49324179D01*
X184122000Y-49320192D01*
X184040081Y-49324599D01*
G37*
X184040081Y-49324599D02*
X183971565Y-49336095D01*
X183918943Y-49353967D01*
X183884708Y-49377499D01*
X183875379Y-49390924D01*
X183865893Y-49422148D01*
X183872277Y-49450395D01*
X183892430Y-49477182D01*
X183923745Y-49489713D01*
X183969183Y-49488696D01*
X184004326Y-49481906D01*
X184082419Y-49468971D01*
X184162226Y-49467742D01*
X184251555Y-49478241D01*
X184276229Y-49482690D01*
X184359291Y-49506108D01*
X184424273Y-49540945D01*
X184470461Y-49586604D01*
X184497145Y-49642494D01*
X184502663Y-49671388D01*
X184499051Y-49730012D01*
X184475729Y-49781879D01*
X184434824Y-49825978D01*
X184378459Y-49861299D01*
X184308760Y-49886829D01*
X184227852Y-49901559D01*
X184137860Y-49904478D01*
X184040910Y-49894575D01*
X184035436Y-49893641D01*
X183996875Y-49886459D01*
X183975494Y-49879521D01*
X183966227Y-49869227D01*
X183964006Y-49851976D01*
X183963956Y-49842841D01*
X183963956Y-49804489D01*
X184032431Y-49804489D01*
X184092900Y-49800347D01*
X184134165Y-49787147D01*
X184158175Y-49763730D01*
X184166877Y-49728936D01*
X184166983Y-49724394D01*
X184161892Y-49694654D01*
X184144433Y-49673419D01*
X184111939Y-49659366D01*
X184061743Y-49651173D01*
X184013123Y-49648161D01*
X183942456Y-49646433D01*
X183891198Y-49649070D01*
X183856239Y-49658800D01*
X183834470Y-49678353D01*
X183822780Y-49710456D01*
X183818060Y-49757838D01*
X183817200Y-49820071D01*
X183818609Y-49889535D01*
X183822848Y-49936786D01*
X183829936Y-49962012D01*
X183831311Y-49963988D01*
X183870228Y-49995508D01*
X183927286Y-50020470D01*
X183998869Y-50038340D01*
X184081358Y-50048586D01*
X184171139Y-50050673D01*
X184264592Y-50044068D01*
X184319556Y-50035956D01*
X184405766Y-50011554D01*
X184485892Y-49971662D01*
X184552977Y-49919887D01*
X184563173Y-49909539D01*
X184596302Y-49866035D01*
X184626194Y-49812118D01*
X184649357Y-49755592D01*
X184662298Y-49704259D01*
X184663858Y-49684544D01*
X184657218Y-49643419D01*
X184639568Y-49592252D01*
X184614297Y-49538394D01*
X184584789Y-49489195D01*
X184558719Y-49456334D01*
X184497765Y-49407452D01*
X184418969Y-49368545D01*
X184325157Y-49340494D01*
X184219150Y-49324179D01*
X184122000Y-49320192D01*
X184040081Y-49324599D01*
G36*
X185013822Y-49341645D02*
G01*
X185007242Y-49349218D01*
X185002079Y-49358987D01*
X184998164Y-49373571D01*
X184995324Y-49395585D01*
X184993387Y-49427648D01*
X184992183Y-49472375D01*
X184991539Y-49532385D01*
X184991284Y-49610294D01*
X184991245Y-49685956D01*
X184991314Y-49779802D01*
X184991638Y-49853689D01*
X184992386Y-49910232D01*
X184993732Y-49952049D01*
X184995846Y-49981757D01*
X184998900Y-50001973D01*
X185003066Y-50015314D01*
X185008516Y-50024398D01*
X185013822Y-50030267D01*
X185046826Y-50049947D01*
X185081991Y-50048181D01*
X185113455Y-50026717D01*
X185120684Y-50018337D01*
X185126334Y-50008614D01*
X185130599Y-49994861D01*
X185133673Y-49974389D01*
X185135752Y-49944512D01*
X185137030Y-49902541D01*
X185137701Y-49845789D01*
X185137959Y-49771567D01*
X185138000Y-49687537D01*
X185138000Y-49374485D01*
X185110291Y-49346776D01*
X185076137Y-49323463D01*
X185043006Y-49322623D01*
X185013822Y-49341645D01*
G37*
X185013822Y-49341645D02*
X185007242Y-49349218D01*
X185002079Y-49358987D01*
X184998164Y-49373571D01*
X184995324Y-49395585D01*
X184993387Y-49427648D01*
X184992183Y-49472375D01*
X184991539Y-49532385D01*
X184991284Y-49610294D01*
X184991245Y-49685956D01*
X184991314Y-49779802D01*
X184991638Y-49853689D01*
X184992386Y-49910232D01*
X184993732Y-49952049D01*
X184995846Y-49981757D01*
X184998900Y-50001973D01*
X185003066Y-50015314D01*
X185008516Y-50024398D01*
X185013822Y-50030267D01*
X185046826Y-50049947D01*
X185081991Y-50048181D01*
X185113455Y-50026717D01*
X185120684Y-50018337D01*
X185126334Y-50008614D01*
X185130599Y-49994861D01*
X185133673Y-49974389D01*
X185135752Y-49944512D01*
X185137030Y-49902541D01*
X185137701Y-49845789D01*
X185137959Y-49771567D01*
X185138000Y-49687537D01*
X185138000Y-49374485D01*
X185110291Y-49346776D01*
X185076137Y-49323463D01*
X185043006Y-49322623D01*
X185013822Y-49341645D01*
G36*
X185781703Y-49320351D02*
G01*
X185706888Y-49325581D01*
X185637306Y-49333750D01*
X185577002Y-49344550D01*
X185530020Y-49357673D01*
X185500406Y-49372813D01*
X185495860Y-49377269D01*
X185480054Y-49411850D01*
X185484847Y-49447351D01*
X185509364Y-49477725D01*
X185510534Y-49478596D01*
X185524954Y-49487954D01*
X185540008Y-49492876D01*
X185561005Y-49493473D01*
X185593257Y-49489861D01*
X185642073Y-49482154D01*
X185646000Y-49481505D01*
X185718739Y-49472569D01*
X185797217Y-49468161D01*
X185875927Y-49468119D01*
X185949361Y-49472279D01*
X186012011Y-49480479D01*
X186058370Y-49492557D01*
X186061416Y-49493771D01*
X186095048Y-49512615D01*
X186106864Y-49531685D01*
X186097614Y-49550439D01*
X186068047Y-49568337D01*
X186018911Y-49584837D01*
X185950957Y-49599396D01*
X185905645Y-49606406D01*
X185811456Y-49619889D01*
X185736544Y-49632214D01*
X185677717Y-49644449D01*
X185631785Y-49657661D01*
X185595555Y-49672917D01*
X185565838Y-49691285D01*
X185539442Y-49713831D01*
X185518230Y-49735971D01*
X185493065Y-49766819D01*
X185480681Y-49793345D01*
X185476808Y-49826026D01*
X185476667Y-49837995D01*
X185479576Y-49877712D01*
X185491202Y-49907259D01*
X185511323Y-49933486D01*
X185552216Y-49973576D01*
X185597817Y-50004149D01*
X185651513Y-50026203D01*
X185716692Y-50040735D01*
X185796744Y-50048741D01*
X185895057Y-50051218D01*
X185911289Y-50051177D01*
X185976849Y-50049818D01*
X186041866Y-50046730D01*
X186099252Y-50042356D01*
X186141922Y-50037140D01*
X186145372Y-50036541D01*
X186187796Y-50026491D01*
X186223780Y-50013796D01*
X186244150Y-50002190D01*
X186263107Y-49971572D01*
X186264427Y-49935918D01*
X186248085Y-49904144D01*
X186244429Y-49900551D01*
X186229315Y-49889876D01*
X186210415Y-49885276D01*
X186181162Y-49886059D01*
X186145651Y-49890127D01*
X186105970Y-49893762D01*
X186050345Y-49896828D01*
X185985406Y-49899053D01*
X185917785Y-49900164D01*
X185900000Y-49900237D01*
X185832128Y-49899964D01*
X185782454Y-49898646D01*
X185746610Y-49895827D01*
X185720224Y-49891050D01*
X185698926Y-49883857D01*
X185686126Y-49877867D01*
X185658000Y-49861233D01*
X185640068Y-49846168D01*
X185637447Y-49841897D01*
X185642976Y-49824263D01*
X185669260Y-49807192D01*
X185714478Y-49791458D01*
X185776808Y-49777838D01*
X185795171Y-49774804D01*
X185891090Y-49759738D01*
X185967641Y-49747146D01*
X186027780Y-49736111D01*
X186074460Y-49725720D01*
X186110637Y-49715056D01*
X186139265Y-49703205D01*
X186163298Y-49689251D01*
X186185692Y-49672281D01*
X186209402Y-49651378D01*
X186217380Y-49644049D01*
X186245353Y-49616699D01*
X186260160Y-49595029D01*
X186265952Y-49570232D01*
X186266889Y-49538983D01*
X186256575Y-49477705D01*
X186225752Y-49425640D01*
X186174595Y-49382958D01*
X186103283Y-49349825D01*
X186052400Y-49334964D01*
X185997100Y-49325366D01*
X185930853Y-49319936D01*
X185857706Y-49318367D01*
X185781703Y-49320351D01*
G37*
X185781703Y-49320351D02*
X185706888Y-49325581D01*
X185637306Y-49333750D01*
X185577002Y-49344550D01*
X185530020Y-49357673D01*
X185500406Y-49372813D01*
X185495860Y-49377269D01*
X185480054Y-49411850D01*
X185484847Y-49447351D01*
X185509364Y-49477725D01*
X185510534Y-49478596D01*
X185524954Y-49487954D01*
X185540008Y-49492876D01*
X185561005Y-49493473D01*
X185593257Y-49489861D01*
X185642073Y-49482154D01*
X185646000Y-49481505D01*
X185718739Y-49472569D01*
X185797217Y-49468161D01*
X185875927Y-49468119D01*
X185949361Y-49472279D01*
X186012011Y-49480479D01*
X186058370Y-49492557D01*
X186061416Y-49493771D01*
X186095048Y-49512615D01*
X186106864Y-49531685D01*
X186097614Y-49550439D01*
X186068047Y-49568337D01*
X186018911Y-49584837D01*
X185950957Y-49599396D01*
X185905645Y-49606406D01*
X185811456Y-49619889D01*
X185736544Y-49632214D01*
X185677717Y-49644449D01*
X185631785Y-49657661D01*
X185595555Y-49672917D01*
X185565838Y-49691285D01*
X185539442Y-49713831D01*
X185518230Y-49735971D01*
X185493065Y-49766819D01*
X185480681Y-49793345D01*
X185476808Y-49826026D01*
X185476667Y-49837995D01*
X185479576Y-49877712D01*
X185491202Y-49907259D01*
X185511323Y-49933486D01*
X185552216Y-49973576D01*
X185597817Y-50004149D01*
X185651513Y-50026203D01*
X185716692Y-50040735D01*
X185796744Y-50048741D01*
X185895057Y-50051218D01*
X185911289Y-50051177D01*
X185976849Y-50049818D01*
X186041866Y-50046730D01*
X186099252Y-50042356D01*
X186141922Y-50037140D01*
X186145372Y-50036541D01*
X186187796Y-50026491D01*
X186223780Y-50013796D01*
X186244150Y-50002190D01*
X186263107Y-49971572D01*
X186264427Y-49935918D01*
X186248085Y-49904144D01*
X186244429Y-49900551D01*
X186229315Y-49889876D01*
X186210415Y-49885276D01*
X186181162Y-49886059D01*
X186145651Y-49890127D01*
X186105970Y-49893762D01*
X186050345Y-49896828D01*
X185985406Y-49899053D01*
X185917785Y-49900164D01*
X185900000Y-49900237D01*
X185832128Y-49899964D01*
X185782454Y-49898646D01*
X185746610Y-49895827D01*
X185720224Y-49891050D01*
X185698926Y-49883857D01*
X185686126Y-49877867D01*
X185658000Y-49861233D01*
X185640068Y-49846168D01*
X185637447Y-49841897D01*
X185642976Y-49824263D01*
X185669260Y-49807192D01*
X185714478Y-49791458D01*
X185776808Y-49777838D01*
X185795171Y-49774804D01*
X185891090Y-49759738D01*
X185967641Y-49747146D01*
X186027780Y-49736111D01*
X186074460Y-49725720D01*
X186110637Y-49715056D01*
X186139265Y-49703205D01*
X186163298Y-49689251D01*
X186185692Y-49672281D01*
X186209402Y-49651378D01*
X186217380Y-49644049D01*
X186245353Y-49616699D01*
X186260160Y-49595029D01*
X186265952Y-49570232D01*
X186266889Y-49538983D01*
X186256575Y-49477705D01*
X186225752Y-49425640D01*
X186174595Y-49382958D01*
X186103283Y-49349825D01*
X186052400Y-49334964D01*
X185997100Y-49325366D01*
X185930853Y-49319936D01*
X185857706Y-49318367D01*
X185781703Y-49320351D01*
G36*
X186802794Y-49319146D02*
G01*
X186733386Y-49319518D01*
X186680997Y-49320385D01*
X186642847Y-49321946D01*
X186616159Y-49324403D01*
X186598153Y-49327957D01*
X186586049Y-49332810D01*
X186577069Y-49339161D01*
X186573818Y-49342084D01*
X186554043Y-49373142D01*
X186550482Y-49408828D01*
X186563491Y-49440510D01*
X186569506Y-49446913D01*
X186579235Y-49453121D01*
X186594901Y-49457910D01*
X186619408Y-49461514D01*
X186655661Y-49464164D01*
X186706565Y-49466095D01*
X186775026Y-49467539D01*
X186837617Y-49468418D01*
X187085334Y-49471467D01*
X187088719Y-49536378D01*
X187092105Y-49601289D01*
X186923958Y-49601289D01*
X186850959Y-49601919D01*
X186797517Y-49604553D01*
X186760628Y-49610309D01*
X186737288Y-49620304D01*
X186724494Y-49635656D01*
X186719242Y-49657482D01*
X186718445Y-49677738D01*
X186720923Y-49702592D01*
X186730277Y-49720906D01*
X186749383Y-49733637D01*
X186781118Y-49741741D01*
X186828359Y-49746176D01*
X186893983Y-49747899D01*
X186929801Y-49748045D01*
X187090978Y-49748045D01*
X187090978Y-49906089D01*
X186842622Y-49906089D01*
X186761213Y-49906202D01*
X186699342Y-49906712D01*
X186653968Y-49907870D01*
X186622054Y-49909930D01*
X186600559Y-49913146D01*
X186586443Y-49917772D01*
X186576668Y-49924059D01*
X186571689Y-49928667D01*
X186554610Y-49955560D01*
X186549111Y-49979467D01*
X186556963Y-50008667D01*
X186571689Y-50030267D01*
X186579546Y-50037066D01*
X186589688Y-50042346D01*
X186604844Y-50046298D01*
X186627741Y-50049113D01*
X186661109Y-50050982D01*
X186707675Y-50052098D01*
X186770167Y-50052651D01*
X186851314Y-50052833D01*
X186893422Y-50052845D01*
X186983598Y-50052765D01*
X187053924Y-50052398D01*
X187107129Y-50051552D01*
X187145940Y-50050036D01*
X187173087Y-50047659D01*
X187191298Y-50044229D01*
X187203300Y-50039554D01*
X187211822Y-50033444D01*
X187215156Y-50030267D01*
X187221755Y-50022670D01*
X187226927Y-50012870D01*
X187230846Y-49998239D01*
X187233684Y-49976152D01*
X187235615Y-49943982D01*
X187236812Y-49899103D01*
X187237448Y-49838889D01*
X187237697Y-49760713D01*
X187237734Y-49687923D01*
X187237700Y-49594707D01*
X187237465Y-49521431D01*
X187236830Y-49465458D01*
X187235594Y-49424151D01*
X187233556Y-49394872D01*
X187230517Y-49374984D01*
X187226277Y-49361850D01*
X187220635Y-49352832D01*
X187213391Y-49345293D01*
X187211606Y-49343612D01*
X187202945Y-49336172D01*
X187192882Y-49330409D01*
X187178625Y-49326112D01*
X187157383Y-49323064D01*
X187126364Y-49321051D01*
X187082777Y-49319860D01*
X187023831Y-49319275D01*
X186946734Y-49319083D01*
X186892001Y-49319067D01*
X186802794Y-49319146D01*
G37*
X186802794Y-49319146D02*
X186733386Y-49319518D01*
X186680997Y-49320385D01*
X186642847Y-49321946D01*
X186616159Y-49324403D01*
X186598153Y-49327957D01*
X186586049Y-49332810D01*
X186577069Y-49339161D01*
X186573818Y-49342084D01*
X186554043Y-49373142D01*
X186550482Y-49408828D01*
X186563491Y-49440510D01*
X186569506Y-49446913D01*
X186579235Y-49453121D01*
X186594901Y-49457910D01*
X186619408Y-49461514D01*
X186655661Y-49464164D01*
X186706565Y-49466095D01*
X186775026Y-49467539D01*
X186837617Y-49468418D01*
X187085334Y-49471467D01*
X187088719Y-49536378D01*
X187092105Y-49601289D01*
X186923958Y-49601289D01*
X186850959Y-49601919D01*
X186797517Y-49604553D01*
X186760628Y-49610309D01*
X186737288Y-49620304D01*
X186724494Y-49635656D01*
X186719242Y-49657482D01*
X186718445Y-49677738D01*
X186720923Y-49702592D01*
X186730277Y-49720906D01*
X186749383Y-49733637D01*
X186781118Y-49741741D01*
X186828359Y-49746176D01*
X186893983Y-49747899D01*
X186929801Y-49748045D01*
X187090978Y-49748045D01*
X187090978Y-49906089D01*
X186842622Y-49906089D01*
X186761213Y-49906202D01*
X186699342Y-49906712D01*
X186653968Y-49907870D01*
X186622054Y-49909930D01*
X186600559Y-49913146D01*
X186586443Y-49917772D01*
X186576668Y-49924059D01*
X186571689Y-49928667D01*
X186554610Y-49955560D01*
X186549111Y-49979467D01*
X186556963Y-50008667D01*
X186571689Y-50030267D01*
X186579546Y-50037066D01*
X186589688Y-50042346D01*
X186604844Y-50046298D01*
X186627741Y-50049113D01*
X186661109Y-50050982D01*
X186707675Y-50052098D01*
X186770167Y-50052651D01*
X186851314Y-50052833D01*
X186893422Y-50052845D01*
X186983598Y-50052765D01*
X187053924Y-50052398D01*
X187107129Y-50051552D01*
X187145940Y-50050036D01*
X187173087Y-50047659D01*
X187191298Y-50044229D01*
X187203300Y-50039554D01*
X187211822Y-50033444D01*
X187215156Y-50030267D01*
X187221755Y-50022670D01*
X187226927Y-50012870D01*
X187230846Y-49998239D01*
X187233684Y-49976152D01*
X187235615Y-49943982D01*
X187236812Y-49899103D01*
X187237448Y-49838889D01*
X187237697Y-49760713D01*
X187237734Y-49687923D01*
X187237700Y-49594707D01*
X187237465Y-49521431D01*
X187236830Y-49465458D01*
X187235594Y-49424151D01*
X187233556Y-49394872D01*
X187230517Y-49374984D01*
X187226277Y-49361850D01*
X187220635Y-49352832D01*
X187213391Y-49345293D01*
X187211606Y-49343612D01*
X187202945Y-49336172D01*
X187192882Y-49330409D01*
X187178625Y-49326112D01*
X187157383Y-49323064D01*
X187126364Y-49321051D01*
X187082777Y-49319860D01*
X187023831Y-49319275D01*
X186946734Y-49319083D01*
X186892001Y-49319067D01*
X186802794Y-49319146D01*
G36*
X188211371Y-49319066D02*
G01*
X188171889Y-49319467D01*
X188056200Y-49322259D01*
X187959311Y-49330550D01*
X187877919Y-49345232D01*
X187808723Y-49367193D01*
X187748420Y-49397322D01*
X187693708Y-49436510D01*
X187674167Y-49453532D01*
X187641750Y-49493363D01*
X187612520Y-49547413D01*
X187589991Y-49607323D01*
X187577679Y-49664739D01*
X187576400Y-49685956D01*
X187584417Y-49744769D01*
X187605899Y-49809013D01*
X187636999Y-49869821D01*
X187673866Y-49918330D01*
X187679854Y-49924182D01*
X187730579Y-49965321D01*
X187786125Y-49997435D01*
X187849696Y-50021365D01*
X187924494Y-50037953D01*
X188013722Y-50048041D01*
X188120582Y-50052469D01*
X188169528Y-50052845D01*
X188231762Y-50052545D01*
X188275528Y-50051292D01*
X188304931Y-50048554D01*
X188324079Y-50043801D01*
X188337077Y-50036501D01*
X188344045Y-50030267D01*
X188350626Y-50022694D01*
X188355788Y-50012924D01*
X188359703Y-49998340D01*
X188362543Y-49976326D01*
X188364480Y-49944264D01*
X188365684Y-49899536D01*
X188366328Y-49839526D01*
X188366583Y-49761617D01*
X188366622Y-49685956D01*
X188366870Y-49585041D01*
X188366817Y-49504427D01*
X188365857Y-49465822D01*
X188219867Y-49465822D01*
X188219867Y-49906089D01*
X188126734Y-49906004D01*
X188070693Y-49904396D01*
X188011999Y-49900256D01*
X187963028Y-49894464D01*
X187961538Y-49894226D01*
X187882392Y-49875090D01*
X187821002Y-49845287D01*
X187774305Y-49802878D01*
X187744635Y-49756961D01*
X187726353Y-49706026D01*
X187727771Y-49658200D01*
X187748988Y-49606933D01*
X187790489Y-49553899D01*
X187847998Y-49514600D01*
X187922750Y-49488331D01*
X187972708Y-49479035D01*
X188029416Y-49472507D01*
X188089519Y-49467782D01*
X188140639Y-49465817D01*
X188143667Y-49465808D01*
X188219867Y-49465822D01*
X188365857Y-49465822D01*
X188365260Y-49441851D01*
X188360998Y-49395055D01*
X188352830Y-49361778D01*
X188339556Y-49339759D01*
X188319974Y-49326739D01*
X188292883Y-49320457D01*
X188257082Y-49318653D01*
X188211371Y-49319066D01*
G37*
X188211371Y-49319066D02*
X188171889Y-49319467D01*
X188056200Y-49322259D01*
X187959311Y-49330550D01*
X187877919Y-49345232D01*
X187808723Y-49367193D01*
X187748420Y-49397322D01*
X187693708Y-49436510D01*
X187674167Y-49453532D01*
X187641750Y-49493363D01*
X187612520Y-49547413D01*
X187589991Y-49607323D01*
X187577679Y-49664739D01*
X187576400Y-49685956D01*
X187584417Y-49744769D01*
X187605899Y-49809013D01*
X187636999Y-49869821D01*
X187673866Y-49918330D01*
X187679854Y-49924182D01*
X187730579Y-49965321D01*
X187786125Y-49997435D01*
X187849696Y-50021365D01*
X187924494Y-50037953D01*
X188013722Y-50048041D01*
X188120582Y-50052469D01*
X188169528Y-50052845D01*
X188231762Y-50052545D01*
X188275528Y-50051292D01*
X188304931Y-50048554D01*
X188324079Y-50043801D01*
X188337077Y-50036501D01*
X188344045Y-50030267D01*
X188350626Y-50022694D01*
X188355788Y-50012924D01*
X188359703Y-49998340D01*
X188362543Y-49976326D01*
X188364480Y-49944264D01*
X188365684Y-49899536D01*
X188366328Y-49839526D01*
X188366583Y-49761617D01*
X188366622Y-49685956D01*
X188366870Y-49585041D01*
X188366817Y-49504427D01*
X188365857Y-49465822D01*
X188219867Y-49465822D01*
X188219867Y-49906089D01*
X188126734Y-49906004D01*
X188070693Y-49904396D01*
X188011999Y-49900256D01*
X187963028Y-49894464D01*
X187961538Y-49894226D01*
X187882392Y-49875090D01*
X187821002Y-49845287D01*
X187774305Y-49802878D01*
X187744635Y-49756961D01*
X187726353Y-49706026D01*
X187727771Y-49658200D01*
X187748988Y-49606933D01*
X187790489Y-49553899D01*
X187847998Y-49514600D01*
X187922750Y-49488331D01*
X187972708Y-49479035D01*
X188029416Y-49472507D01*
X188089519Y-49467782D01*
X188140639Y-49465817D01*
X188143667Y-49465808D01*
X188219867Y-49465822D01*
X188365857Y-49465822D01*
X188365260Y-49441851D01*
X188360998Y-49395055D01*
X188352830Y-49361778D01*
X188339556Y-49339759D01*
X188319974Y-49326739D01*
X188292883Y-49320457D01*
X188257082Y-49318653D01*
X188211371Y-49319066D01*
G36*
X184363043Y-44076571D02*
G01*
X184266768Y-44100809D01*
X184180184Y-44143641D01*
X184105373Y-44203419D01*
X184044418Y-44278494D01*
X183999399Y-44367220D01*
X183973136Y-44463530D01*
X183967286Y-44560795D01*
X183982140Y-44654654D01*
X184015840Y-44742511D01*
X184066528Y-44821770D01*
X184132345Y-44889836D01*
X184211434Y-44944112D01*
X184301934Y-44982002D01*
X184353200Y-44994426D01*
X184397698Y-45001947D01*
X184431999Y-45004919D01*
X184464960Y-45003094D01*
X184505434Y-44996225D01*
X184538531Y-44989250D01*
X184631947Y-44957741D01*
X184715619Y-44906617D01*
X184787665Y-44837429D01*
X184846200Y-44751728D01*
X184860148Y-44724489D01*
X184876586Y-44688122D01*
X184886894Y-44657582D01*
X184892460Y-44625450D01*
X184894669Y-44584307D01*
X184894948Y-44538222D01*
X184890861Y-44453865D01*
X184877446Y-44384586D01*
X184852256Y-44323961D01*
X184812846Y-44265567D01*
X184774298Y-44221302D01*
X184702406Y-44155484D01*
X184627313Y-44110053D01*
X184544562Y-44082850D01*
X184466928Y-44072576D01*
X184363043Y-44076571D01*
G37*
X184363043Y-44076571D02*
X184266768Y-44100809D01*
X184180184Y-44143641D01*
X184105373Y-44203419D01*
X184044418Y-44278494D01*
X183999399Y-44367220D01*
X183973136Y-44463530D01*
X183967286Y-44560795D01*
X183982140Y-44654654D01*
X184015840Y-44742511D01*
X184066528Y-44821770D01*
X184132345Y-44889836D01*
X184211434Y-44944112D01*
X184301934Y-44982002D01*
X184353200Y-44994426D01*
X184397698Y-45001947D01*
X184431999Y-45004919D01*
X184464960Y-45003094D01*
X184505434Y-44996225D01*
X184538531Y-44989250D01*
X184631947Y-44957741D01*
X184715619Y-44906617D01*
X184787665Y-44837429D01*
X184846200Y-44751728D01*
X184860148Y-44724489D01*
X184876586Y-44688122D01*
X184886894Y-44657582D01*
X184892460Y-44625450D01*
X184894669Y-44584307D01*
X184894948Y-44538222D01*
X184890861Y-44453865D01*
X184877446Y-44384586D01*
X184852256Y-44323961D01*
X184812846Y-44265567D01*
X184774298Y-44221302D01*
X184702406Y-44155484D01*
X184627313Y-44110053D01*
X184544562Y-44082850D01*
X184466928Y-44072576D01*
X184363043Y-44076571D01*
G36*
X175903493Y-46522245D02*
G01*
X175903474Y-46756662D01*
X175903448Y-46969603D01*
X175903375Y-47162168D01*
X175903218Y-47335459D01*
X175902936Y-47490576D01*
X175902491Y-47628620D01*
X175901844Y-47750692D01*
X175900955Y-47857894D01*
X175899787Y-47951326D01*
X175898299Y-48032090D01*
X175896454Y-48101286D01*
X175894211Y-48160015D01*
X175891531Y-48209379D01*
X175888377Y-48250478D01*
X175884708Y-48284413D01*
X175880487Y-48312286D01*
X175875673Y-48335198D01*
X175870227Y-48354249D01*
X175864112Y-48370540D01*
X175857288Y-48385173D01*
X175849715Y-48399249D01*
X175841355Y-48413868D01*
X175836161Y-48422974D01*
X175801896Y-48483689D01*
X176660045Y-48483689D01*
X176660045Y-48387733D01*
X176660776Y-48344370D01*
X176662728Y-48311205D01*
X176665537Y-48293424D01*
X176666779Y-48291778D01*
X176678201Y-48298662D01*
X176700916Y-48316505D01*
X176723615Y-48335879D01*
X176778200Y-48376614D01*
X176847679Y-48417617D01*
X176924730Y-48455123D01*
X177002035Y-48485364D01*
X177032887Y-48495012D01*
X177101384Y-48509578D01*
X177184236Y-48519539D01*
X177273629Y-48524583D01*
X177361752Y-48524396D01*
X177440793Y-48518666D01*
X177478489Y-48512858D01*
X177616586Y-48474797D01*
X177743887Y-48417073D01*
X177859708Y-48340211D01*
X177963363Y-48244739D01*
X178054167Y-48131179D01*
X178120969Y-48020381D01*
X178175836Y-47903625D01*
X178217837Y-47784276D01*
X178247833Y-47658283D01*
X178266689Y-47521594D01*
X178275268Y-47370158D01*
X178275994Y-47292711D01*
X178273900Y-47235934D01*
X177444783Y-47235934D01*
X177444576Y-47329002D01*
X177441663Y-47416692D01*
X177436000Y-47493772D01*
X177427545Y-47555009D01*
X177424962Y-47567350D01*
X177393160Y-47674633D01*
X177351502Y-47761658D01*
X177299637Y-47828642D01*
X177237219Y-47875805D01*
X177163900Y-47903365D01*
X177079331Y-47911541D01*
X176983165Y-47900551D01*
X176919689Y-47884829D01*
X176870546Y-47866639D01*
X176816417Y-47840791D01*
X176775756Y-47817089D01*
X176705200Y-47770721D01*
X176705200Y-46620530D01*
X176772608Y-46576962D01*
X176851133Y-46536040D01*
X176935319Y-46509389D01*
X177020443Y-46497465D01*
X177101784Y-46500722D01*
X177174620Y-46519615D01*
X177206574Y-46535184D01*
X177264499Y-46578181D01*
X177313456Y-46634953D01*
X177354610Y-46707575D01*
X177389126Y-46798121D01*
X177418167Y-46908666D01*
X177419448Y-46914533D01*
X177429619Y-46976788D01*
X177437261Y-47054594D01*
X177442330Y-47142720D01*
X177444783Y-47235934D01*
X178273900Y-47235934D01*
X178268143Y-47079895D01*
X178246198Y-46884059D01*
X178210214Y-46705332D01*
X178160241Y-46543845D01*
X178096332Y-46399726D01*
X178018538Y-46273106D01*
X177926911Y-46164115D01*
X177821503Y-46072883D01*
X177776338Y-46041932D01*
X177675389Y-45985785D01*
X177572099Y-45946174D01*
X177462011Y-45922014D01*
X177340670Y-45912219D01*
X177248164Y-45913265D01*
X177118510Y-45924231D01*
X177005916Y-45946046D01*
X176907125Y-45979714D01*
X176818879Y-46026236D01*
X176770014Y-46060448D01*
X176740647Y-46082362D01*
X176718957Y-46097333D01*
X176710747Y-46101733D01*
X176709132Y-46090904D01*
X176707841Y-46060251D01*
X176706862Y-46012526D01*
X176706183Y-45950479D01*
X176705790Y-45876862D01*
X176705670Y-45794427D01*
X176705812Y-45705925D01*
X176706203Y-45614107D01*
X176706829Y-45521724D01*
X176707680Y-45431528D01*
X176708740Y-45346271D01*
X176709999Y-45268703D01*
X176711444Y-45201576D01*
X176713062Y-45147641D01*
X176714839Y-45109650D01*
X176715331Y-45102667D01*
X176722908Y-45032251D01*
X176734469Y-44977102D01*
X176752208Y-44929981D01*
X176778318Y-44883647D01*
X176784585Y-44874067D01*
X176809017Y-44837378D01*
X175903689Y-44837378D01*
X175903493Y-46522245D01*
G37*
X175903493Y-46522245D02*
X175903474Y-46756662D01*
X175903448Y-46969603D01*
X175903375Y-47162168D01*
X175903218Y-47335459D01*
X175902936Y-47490576D01*
X175902491Y-47628620D01*
X175901844Y-47750692D01*
X175900955Y-47857894D01*
X175899787Y-47951326D01*
X175898299Y-48032090D01*
X175896454Y-48101286D01*
X175894211Y-48160015D01*
X175891531Y-48209379D01*
X175888377Y-48250478D01*
X175884708Y-48284413D01*
X175880487Y-48312286D01*
X175875673Y-48335198D01*
X175870227Y-48354249D01*
X175864112Y-48370540D01*
X175857288Y-48385173D01*
X175849715Y-48399249D01*
X175841355Y-48413868D01*
X175836161Y-48422974D01*
X175801896Y-48483689D01*
X176660045Y-48483689D01*
X176660045Y-48387733D01*
X176660776Y-48344370D01*
X176662728Y-48311205D01*
X176665537Y-48293424D01*
X176666779Y-48291778D01*
X176678201Y-48298662D01*
X176700916Y-48316505D01*
X176723615Y-48335879D01*
X176778200Y-48376614D01*
X176847679Y-48417617D01*
X176924730Y-48455123D01*
X177002035Y-48485364D01*
X177032887Y-48495012D01*
X177101384Y-48509578D01*
X177184236Y-48519539D01*
X177273629Y-48524583D01*
X177361752Y-48524396D01*
X177440793Y-48518666D01*
X177478489Y-48512858D01*
X177616586Y-48474797D01*
X177743887Y-48417073D01*
X177859708Y-48340211D01*
X177963363Y-48244739D01*
X178054167Y-48131179D01*
X178120969Y-48020381D01*
X178175836Y-47903625D01*
X178217837Y-47784276D01*
X178247833Y-47658283D01*
X178266689Y-47521594D01*
X178275268Y-47370158D01*
X178275994Y-47292711D01*
X178273900Y-47235934D01*
X177444783Y-47235934D01*
X177444576Y-47329002D01*
X177441663Y-47416692D01*
X177436000Y-47493772D01*
X177427545Y-47555009D01*
X177424962Y-47567350D01*
X177393160Y-47674633D01*
X177351502Y-47761658D01*
X177299637Y-47828642D01*
X177237219Y-47875805D01*
X177163900Y-47903365D01*
X177079331Y-47911541D01*
X176983165Y-47900551D01*
X176919689Y-47884829D01*
X176870546Y-47866639D01*
X176816417Y-47840791D01*
X176775756Y-47817089D01*
X176705200Y-47770721D01*
X176705200Y-46620530D01*
X176772608Y-46576962D01*
X176851133Y-46536040D01*
X176935319Y-46509389D01*
X177020443Y-46497465D01*
X177101784Y-46500722D01*
X177174620Y-46519615D01*
X177206574Y-46535184D01*
X177264499Y-46578181D01*
X177313456Y-46634953D01*
X177354610Y-46707575D01*
X177389126Y-46798121D01*
X177418167Y-46908666D01*
X177419448Y-46914533D01*
X177429619Y-46976788D01*
X177437261Y-47054594D01*
X177442330Y-47142720D01*
X177444783Y-47235934D01*
X178273900Y-47235934D01*
X178268143Y-47079895D01*
X178246198Y-46884059D01*
X178210214Y-46705332D01*
X178160241Y-46543845D01*
X178096332Y-46399726D01*
X178018538Y-46273106D01*
X177926911Y-46164115D01*
X177821503Y-46072883D01*
X177776338Y-46041932D01*
X177675389Y-45985785D01*
X177572099Y-45946174D01*
X177462011Y-45922014D01*
X177340670Y-45912219D01*
X177248164Y-45913265D01*
X177118510Y-45924231D01*
X177005916Y-45946046D01*
X176907125Y-45979714D01*
X176818879Y-46026236D01*
X176770014Y-46060448D01*
X176740647Y-46082362D01*
X176718957Y-46097333D01*
X176710747Y-46101733D01*
X176709132Y-46090904D01*
X176707841Y-46060251D01*
X176706862Y-46012526D01*
X176706183Y-45950479D01*
X176705790Y-45876862D01*
X176705670Y-45794427D01*
X176705812Y-45705925D01*
X176706203Y-45614107D01*
X176706829Y-45521724D01*
X176707680Y-45431528D01*
X176708740Y-45346271D01*
X176709999Y-45268703D01*
X176711444Y-45201576D01*
X176713062Y-45147641D01*
X176714839Y-45109650D01*
X176715331Y-45102667D01*
X176722908Y-45032251D01*
X176734469Y-44977102D01*
X176752208Y-44929981D01*
X176778318Y-44883647D01*
X176784585Y-44874067D01*
X176809017Y-44837378D01*
X175903689Y-44837378D01*
X175903493Y-46522245D01*
G36*
X179416426Y-45916552D02*
G01*
X179264508Y-45936567D01*
X179129244Y-45970202D01*
X179009761Y-46017725D01*
X178905185Y-46079405D01*
X178827576Y-46142965D01*
X178758735Y-46217099D01*
X178704994Y-46296871D01*
X178662090Y-46389091D01*
X178646616Y-46432161D01*
X178633756Y-46471142D01*
X178622554Y-46507289D01*
X178612880Y-46542434D01*
X178604604Y-46578410D01*
X178597597Y-46617050D01*
X178591728Y-46660185D01*
X178586869Y-46709649D01*
X178582890Y-46767273D01*
X178579660Y-46834891D01*
X178577051Y-46914334D01*
X178574933Y-47007436D01*
X178573176Y-47116027D01*
X178571651Y-47241942D01*
X178570228Y-47387012D01*
X178568975Y-47529778D01*
X178567649Y-47685968D01*
X178566444Y-47821239D01*
X178565234Y-47937246D01*
X178563894Y-48035645D01*
X178562300Y-48118093D01*
X178560325Y-48186246D01*
X178557844Y-48241760D01*
X178554731Y-48286292D01*
X178550862Y-48321498D01*
X178546111Y-48349034D01*
X178540352Y-48370556D01*
X178533461Y-48387722D01*
X178525311Y-48402186D01*
X178515777Y-48415606D01*
X178504734Y-48429638D01*
X178500434Y-48435071D01*
X178484614Y-48457910D01*
X178477578Y-48473463D01*
X178477556Y-48473922D01*
X178488433Y-48476121D01*
X178519418Y-48478147D01*
X178568043Y-48479942D01*
X178631837Y-48481451D01*
X178708331Y-48482616D01*
X178795056Y-48483380D01*
X178889543Y-48483686D01*
X178900450Y-48483689D01*
X179323343Y-48483689D01*
X179326605Y-48387622D01*
X179329867Y-48291556D01*
X179391956Y-48342543D01*
X179489286Y-48410057D01*
X179599187Y-48464749D01*
X179685651Y-48494978D01*
X179754722Y-48509666D01*
X179838075Y-48519659D01*
X179927841Y-48524646D01*
X180016155Y-48524313D01*
X180095149Y-48518351D01*
X180131378Y-48512638D01*
X180271397Y-48474776D01*
X180397822Y-48419932D01*
X180509740Y-48348924D01*
X180606238Y-48262568D01*
X180686400Y-48161679D01*
X180749313Y-48047076D01*
X180793688Y-47920984D01*
X180806022Y-47864401D01*
X180813632Y-47802202D01*
X180817261Y-47727363D01*
X180817755Y-47693467D01*
X180817690Y-47690282D01*
X180057752Y-47690282D01*
X180048459Y-47765333D01*
X180020272Y-47829160D01*
X179971803Y-47884798D01*
X179966746Y-47889211D01*
X179918452Y-47924037D01*
X179866743Y-47946620D01*
X179806011Y-47958540D01*
X179730648Y-47961383D01*
X179712541Y-47960978D01*
X179658722Y-47958325D01*
X179618692Y-47952909D01*
X179583676Y-47942745D01*
X179544897Y-47925850D01*
X179534255Y-47920672D01*
X179473604Y-47884844D01*
X179426785Y-47842212D01*
X179414048Y-47826973D01*
X179369378Y-47770462D01*
X179369378Y-47574586D01*
X179369914Y-47495939D01*
X179371604Y-47437988D01*
X179374572Y-47398875D01*
X179378943Y-47376741D01*
X179383028Y-47370274D01*
X179398953Y-47367111D01*
X179432736Y-47364488D01*
X179479660Y-47362655D01*
X179535007Y-47361857D01*
X179543894Y-47361842D01*
X179664670Y-47367096D01*
X179767340Y-47383263D01*
X179853894Y-47410961D01*
X179926319Y-47450808D01*
X179981249Y-47497758D01*
X180025796Y-47555645D01*
X180050520Y-47618693D01*
X180057752Y-47690282D01*
X180817690Y-47690282D01*
X180815822Y-47599712D01*
X180807478Y-47520812D01*
X180791232Y-47449590D01*
X180765595Y-47378864D01*
X180741599Y-47326493D01*
X180682980Y-47231196D01*
X180604883Y-47143170D01*
X180509685Y-47064017D01*
X180399762Y-46995340D01*
X180277490Y-46938741D01*
X180145245Y-46895821D01*
X180080578Y-46880882D01*
X179944396Y-46858777D01*
X179795951Y-46844194D01*
X179644495Y-46837813D01*
X179517936Y-46839445D01*
X179356050Y-46846224D01*
X179363470Y-46787245D01*
X179382762Y-46688092D01*
X179413896Y-46607372D01*
X179457731Y-46544466D01*
X179515129Y-46498756D01*
X179586952Y-46469622D01*
X179674059Y-46456447D01*
X179777314Y-46458611D01*
X179815289Y-46462612D01*
X179956480Y-46487780D01*
X180093293Y-46528814D01*
X180187822Y-46566815D01*
X180232982Y-46586190D01*
X180271415Y-46601760D01*
X180297766Y-46611405D01*
X180305454Y-46613452D01*
X180315198Y-46604374D01*
X180331917Y-46575405D01*
X180355768Y-46526217D01*
X180386907Y-46456484D01*
X180425493Y-46365879D01*
X180432090Y-46350089D01*
X180462147Y-46277772D01*
X180489126Y-46212425D01*
X180511864Y-46156906D01*
X180529194Y-46114072D01*
X180539952Y-46086781D01*
X180543059Y-46077942D01*
X180533060Y-46073187D01*
X180506783Y-46067910D01*
X180478511Y-46064231D01*
X180448354Y-46059474D01*
X180400567Y-46050028D01*
X180339388Y-46036820D01*
X180269054Y-46020776D01*
X180193806Y-46002820D01*
X180165245Y-45995797D01*
X180060184Y-45970209D01*
X179972520Y-45950147D01*
X179897932Y-45934969D01*
X179832097Y-45924035D01*
X179770693Y-45916704D01*
X179709398Y-45912335D01*
X179643890Y-45910287D01*
X179585872Y-45909889D01*
X179416426Y-45916552D01*
G37*
X179416426Y-45916552D02*
X179264508Y-45936567D01*
X179129244Y-45970202D01*
X179009761Y-46017725D01*
X178905185Y-46079405D01*
X178827576Y-46142965D01*
X178758735Y-46217099D01*
X178704994Y-46296871D01*
X178662090Y-46389091D01*
X178646616Y-46432161D01*
X178633756Y-46471142D01*
X178622554Y-46507289D01*
X178612880Y-46542434D01*
X178604604Y-46578410D01*
X178597597Y-46617050D01*
X178591728Y-46660185D01*
X178586869Y-46709649D01*
X178582890Y-46767273D01*
X178579660Y-46834891D01*
X178577051Y-46914334D01*
X178574933Y-47007436D01*
X178573176Y-47116027D01*
X178571651Y-47241942D01*
X178570228Y-47387012D01*
X178568975Y-47529778D01*
X178567649Y-47685968D01*
X178566444Y-47821239D01*
X178565234Y-47937246D01*
X178563894Y-48035645D01*
X178562300Y-48118093D01*
X178560325Y-48186246D01*
X178557844Y-48241760D01*
X178554731Y-48286292D01*
X178550862Y-48321498D01*
X178546111Y-48349034D01*
X178540352Y-48370556D01*
X178533461Y-48387722D01*
X178525311Y-48402186D01*
X178515777Y-48415606D01*
X178504734Y-48429638D01*
X178500434Y-48435071D01*
X178484614Y-48457910D01*
X178477578Y-48473463D01*
X178477556Y-48473922D01*
X178488433Y-48476121D01*
X178519418Y-48478147D01*
X178568043Y-48479942D01*
X178631837Y-48481451D01*
X178708331Y-48482616D01*
X178795056Y-48483380D01*
X178889543Y-48483686D01*
X178900450Y-48483689D01*
X179323343Y-48483689D01*
X179326605Y-48387622D01*
X179329867Y-48291556D01*
X179391956Y-48342543D01*
X179489286Y-48410057D01*
X179599187Y-48464749D01*
X179685651Y-48494978D01*
X179754722Y-48509666D01*
X179838075Y-48519659D01*
X179927841Y-48524646D01*
X180016155Y-48524313D01*
X180095149Y-48518351D01*
X180131378Y-48512638D01*
X180271397Y-48474776D01*
X180397822Y-48419932D01*
X180509740Y-48348924D01*
X180606238Y-48262568D01*
X180686400Y-48161679D01*
X180749313Y-48047076D01*
X180793688Y-47920984D01*
X180806022Y-47864401D01*
X180813632Y-47802202D01*
X180817261Y-47727363D01*
X180817755Y-47693467D01*
X180817690Y-47690282D01*
X180057752Y-47690282D01*
X180048459Y-47765333D01*
X180020272Y-47829160D01*
X179971803Y-47884798D01*
X179966746Y-47889211D01*
X179918452Y-47924037D01*
X179866743Y-47946620D01*
X179806011Y-47958540D01*
X179730648Y-47961383D01*
X179712541Y-47960978D01*
X179658722Y-47958325D01*
X179618692Y-47952909D01*
X179583676Y-47942745D01*
X179544897Y-47925850D01*
X179534255Y-47920672D01*
X179473604Y-47884844D01*
X179426785Y-47842212D01*
X179414048Y-47826973D01*
X179369378Y-47770462D01*
X179369378Y-47574586D01*
X179369914Y-47495939D01*
X179371604Y-47437988D01*
X179374572Y-47398875D01*
X179378943Y-47376741D01*
X179383028Y-47370274D01*
X179398953Y-47367111D01*
X179432736Y-47364488D01*
X179479660Y-47362655D01*
X179535007Y-47361857D01*
X179543894Y-47361842D01*
X179664670Y-47367096D01*
X179767340Y-47383263D01*
X179853894Y-47410961D01*
X179926319Y-47450808D01*
X179981249Y-47497758D01*
X180025796Y-47555645D01*
X180050520Y-47618693D01*
X180057752Y-47690282D01*
X180817690Y-47690282D01*
X180815822Y-47599712D01*
X180807478Y-47520812D01*
X180791232Y-47449590D01*
X180765595Y-47378864D01*
X180741599Y-47326493D01*
X180682980Y-47231196D01*
X180604883Y-47143170D01*
X180509685Y-47064017D01*
X180399762Y-46995340D01*
X180277490Y-46938741D01*
X180145245Y-46895821D01*
X180080578Y-46880882D01*
X179944396Y-46858777D01*
X179795951Y-46844194D01*
X179644495Y-46837813D01*
X179517936Y-46839445D01*
X179356050Y-46846224D01*
X179363470Y-46787245D01*
X179382762Y-46688092D01*
X179413896Y-46607372D01*
X179457731Y-46544466D01*
X179515129Y-46498756D01*
X179586952Y-46469622D01*
X179674059Y-46456447D01*
X179777314Y-46458611D01*
X179815289Y-46462612D01*
X179956480Y-46487780D01*
X180093293Y-46528814D01*
X180187822Y-46566815D01*
X180232982Y-46586190D01*
X180271415Y-46601760D01*
X180297766Y-46611405D01*
X180305454Y-46613452D01*
X180315198Y-46604374D01*
X180331917Y-46575405D01*
X180355768Y-46526217D01*
X180386907Y-46456484D01*
X180425493Y-46365879D01*
X180432090Y-46350089D01*
X180462147Y-46277772D01*
X180489126Y-46212425D01*
X180511864Y-46156906D01*
X180529194Y-46114072D01*
X180539952Y-46086781D01*
X180543059Y-46077942D01*
X180533060Y-46073187D01*
X180506783Y-46067910D01*
X180478511Y-46064231D01*
X180448354Y-46059474D01*
X180400567Y-46050028D01*
X180339388Y-46036820D01*
X180269054Y-46020776D01*
X180193806Y-46002820D01*
X180165245Y-45995797D01*
X180060184Y-45970209D01*
X179972520Y-45950147D01*
X179897932Y-45934969D01*
X179832097Y-45924035D01*
X179770693Y-45916704D01*
X179709398Y-45912335D01*
X179643890Y-45910287D01*
X179585872Y-45909889D01*
X179416426Y-45916552D01*
G36*
X181761571Y-44999071D02*
G01*
X181601430Y-45020245D01*
X181437490Y-45060385D01*
X181267687Y-45119889D01*
X181089957Y-45199154D01*
X181078690Y-45204699D01*
X181020995Y-45232725D01*
X180969448Y-45256802D01*
X180927809Y-45275249D01*
X180899838Y-45286386D01*
X180890267Y-45288933D01*
X180871050Y-45293941D01*
X180866439Y-45298147D01*
X180871542Y-45308580D01*
X180887582Y-45334868D01*
X180912712Y-45374257D01*
X180945086Y-45423991D01*
X180982857Y-45481315D01*
X181024178Y-45543476D01*
X181067202Y-45607718D01*
X181110083Y-45671285D01*
X181150974Y-45731425D01*
X181188029Y-45785380D01*
X181219400Y-45830397D01*
X181243241Y-45863721D01*
X181257706Y-45882597D01*
X181259691Y-45884787D01*
X181269809Y-45880138D01*
X181292150Y-45862962D01*
X181322720Y-45836440D01*
X181338464Y-45821964D01*
X181434953Y-45746682D01*
X181541664Y-45691241D01*
X181657168Y-45656141D01*
X181780038Y-45641880D01*
X181849439Y-45643051D01*
X181970577Y-45660212D01*
X182079795Y-45696094D01*
X182177418Y-45750959D01*
X182263772Y-45825070D01*
X182339185Y-45918688D01*
X182403982Y-46032076D01*
X182441399Y-46118667D01*
X182485252Y-46254366D01*
X182517572Y-46401850D01*
X182538443Y-46557314D01*
X182547949Y-46716956D01*
X182546173Y-46876973D01*
X182533197Y-47033561D01*
X182509106Y-47182918D01*
X182473982Y-47321240D01*
X182427908Y-47444724D01*
X182411627Y-47478978D01*
X182343380Y-47593064D01*
X182262921Y-47689557D01*
X182171430Y-47767670D01*
X182070089Y-47826617D01*
X181960080Y-47865612D01*
X181842585Y-47883868D01*
X181801117Y-47885211D01*
X181679559Y-47874290D01*
X181559122Y-47841474D01*
X181441334Y-47787439D01*
X181327723Y-47712865D01*
X181236315Y-47634539D01*
X181189785Y-47590008D01*
X181008517Y-47887271D01*
X180963420Y-47961433D01*
X180922181Y-48029646D01*
X180886265Y-48089459D01*
X180857134Y-48138420D01*
X180836250Y-48174079D01*
X180825076Y-48193984D01*
X180823625Y-48197079D01*
X180831854Y-48206718D01*
X180857433Y-48223999D01*
X180897127Y-48247283D01*
X180947703Y-48274934D01*
X181005926Y-48305315D01*
X181068563Y-48336790D01*
X181132379Y-48367722D01*
X181194140Y-48396473D01*
X181250612Y-48421408D01*
X181298562Y-48440889D01*
X181322014Y-48449318D01*
X181455779Y-48487133D01*
X181593673Y-48512136D01*
X181741378Y-48525140D01*
X181868167Y-48527468D01*
X181936122Y-48526373D01*
X182001723Y-48524275D01*
X182059153Y-48521434D01*
X182102597Y-48518106D01*
X182116702Y-48516422D01*
X182255716Y-48487587D01*
X182397243Y-48442468D01*
X182534725Y-48383750D01*
X182661606Y-48314120D01*
X182739111Y-48261441D01*
X182866519Y-48153239D01*
X182984822Y-48026671D01*
X183091828Y-47884866D01*
X183185348Y-47730951D01*
X183263190Y-47568053D01*
X183307044Y-47450756D01*
X183357292Y-47267128D01*
X183390791Y-47072581D01*
X183407551Y-46871325D01*
X183407584Y-46667568D01*
X183390899Y-46465521D01*
X183357507Y-46269392D01*
X183307420Y-46083391D01*
X183303603Y-46071803D01*
X183240719Y-45909750D01*
X183163972Y-45761832D01*
X183070758Y-45623865D01*
X182958473Y-45491661D01*
X182914608Y-45446399D01*
X182778466Y-45322457D01*
X182638509Y-45219915D01*
X182492589Y-45137656D01*
X182338558Y-45074564D01*
X182174268Y-45029523D01*
X182078711Y-45012033D01*
X181919977Y-44996466D01*
X181761571Y-44999071D01*
G37*
X181761571Y-44999071D02*
X181601430Y-45020245D01*
X181437490Y-45060385D01*
X181267687Y-45119889D01*
X181089957Y-45199154D01*
X181078690Y-45204699D01*
X181020995Y-45232725D01*
X180969448Y-45256802D01*
X180927809Y-45275249D01*
X180899838Y-45286386D01*
X180890267Y-45288933D01*
X180871050Y-45293941D01*
X180866439Y-45298147D01*
X180871542Y-45308580D01*
X180887582Y-45334868D01*
X180912712Y-45374257D01*
X180945086Y-45423991D01*
X180982857Y-45481315D01*
X181024178Y-45543476D01*
X181067202Y-45607718D01*
X181110083Y-45671285D01*
X181150974Y-45731425D01*
X181188029Y-45785380D01*
X181219400Y-45830397D01*
X181243241Y-45863721D01*
X181257706Y-45882597D01*
X181259691Y-45884787D01*
X181269809Y-45880138D01*
X181292150Y-45862962D01*
X181322720Y-45836440D01*
X181338464Y-45821964D01*
X181434953Y-45746682D01*
X181541664Y-45691241D01*
X181657168Y-45656141D01*
X181780038Y-45641880D01*
X181849439Y-45643051D01*
X181970577Y-45660212D01*
X182079795Y-45696094D01*
X182177418Y-45750959D01*
X182263772Y-45825070D01*
X182339185Y-45918688D01*
X182403982Y-46032076D01*
X182441399Y-46118667D01*
X182485252Y-46254366D01*
X182517572Y-46401850D01*
X182538443Y-46557314D01*
X182547949Y-46716956D01*
X182546173Y-46876973D01*
X182533197Y-47033561D01*
X182509106Y-47182918D01*
X182473982Y-47321240D01*
X182427908Y-47444724D01*
X182411627Y-47478978D01*
X182343380Y-47593064D01*
X182262921Y-47689557D01*
X182171430Y-47767670D01*
X182070089Y-47826617D01*
X181960080Y-47865612D01*
X181842585Y-47883868D01*
X181801117Y-47885211D01*
X181679559Y-47874290D01*
X181559122Y-47841474D01*
X181441334Y-47787439D01*
X181327723Y-47712865D01*
X181236315Y-47634539D01*
X181189785Y-47590008D01*
X181008517Y-47887271D01*
X180963420Y-47961433D01*
X180922181Y-48029646D01*
X180886265Y-48089459D01*
X180857134Y-48138420D01*
X180836250Y-48174079D01*
X180825076Y-48193984D01*
X180823625Y-48197079D01*
X180831854Y-48206718D01*
X180857433Y-48223999D01*
X180897127Y-48247283D01*
X180947703Y-48274934D01*
X181005926Y-48305315D01*
X181068563Y-48336790D01*
X181132379Y-48367722D01*
X181194140Y-48396473D01*
X181250612Y-48421408D01*
X181298562Y-48440889D01*
X181322014Y-48449318D01*
X181455779Y-48487133D01*
X181593673Y-48512136D01*
X181741378Y-48525140D01*
X181868167Y-48527468D01*
X181936122Y-48526373D01*
X182001723Y-48524275D01*
X182059153Y-48521434D01*
X182102597Y-48518106D01*
X182116702Y-48516422D01*
X182255716Y-48487587D01*
X182397243Y-48442468D01*
X182534725Y-48383750D01*
X182661606Y-48314120D01*
X182739111Y-48261441D01*
X182866519Y-48153239D01*
X182984822Y-48026671D01*
X183091828Y-47884866D01*
X183185348Y-47730951D01*
X183263190Y-47568053D01*
X183307044Y-47450756D01*
X183357292Y-47267128D01*
X183390791Y-47072581D01*
X183407551Y-46871325D01*
X183407584Y-46667568D01*
X183390899Y-46465521D01*
X183357507Y-46269392D01*
X183307420Y-46083391D01*
X183303603Y-46071803D01*
X183240719Y-45909750D01*
X183163972Y-45761832D01*
X183070758Y-45623865D01*
X182958473Y-45491661D01*
X182914608Y-45446399D01*
X182778466Y-45322457D01*
X182638509Y-45219915D01*
X182492589Y-45137656D01*
X182338558Y-45074564D01*
X182174268Y-45029523D01*
X182078711Y-45012033D01*
X181919977Y-44996466D01*
X181761571Y-44999071D01*
G36*
X185036400Y-44539054D02*
G01*
X185025535Y-44652993D01*
X184993918Y-44760616D01*
X184943015Y-44859615D01*
X184874293Y-44947684D01*
X184789219Y-45022516D01*
X184692232Y-45080384D01*
X184585964Y-45120005D01*
X184478950Y-45138573D01*
X184373300Y-45137434D01*
X184271125Y-45117930D01*
X184174534Y-45081406D01*
X184085638Y-45029205D01*
X184006546Y-44962673D01*
X183939369Y-44883152D01*
X183886217Y-44791987D01*
X183849199Y-44690523D01*
X183830427Y-44580102D01*
X183828489Y-44530206D01*
X183828489Y-44442267D01*
X183776560Y-44442267D01*
X183740253Y-44445111D01*
X183713355Y-44456911D01*
X183686249Y-44480649D01*
X183647867Y-44519031D01*
X183647867Y-46710602D01*
X183647876Y-46972739D01*
X183647908Y-47213241D01*
X183647972Y-47433048D01*
X183648076Y-47633101D01*
X183648227Y-47814344D01*
X183648434Y-47977716D01*
X183648706Y-48124160D01*
X183649050Y-48254617D01*
X183649474Y-48370029D01*
X183649987Y-48471338D01*
X183650597Y-48559484D01*
X183651312Y-48635410D01*
X183652140Y-48700057D01*
X183653089Y-48754367D01*
X183654167Y-48799280D01*
X183655383Y-48835740D01*
X183656745Y-48864687D01*
X183658261Y-48887063D01*
X183659938Y-48903809D01*
X183661786Y-48915868D01*
X183663813Y-48924180D01*
X183666025Y-48929687D01*
X183667108Y-48931537D01*
X183671271Y-48938549D01*
X183674805Y-48944996D01*
X183678635Y-48950900D01*
X183683682Y-48956286D01*
X183690871Y-48961178D01*
X183701123Y-48965598D01*
X183715364Y-48969572D01*
X183734514Y-48973121D01*
X183759499Y-48976270D01*
X183791240Y-48979042D01*
X183830662Y-48981461D01*
X183878686Y-48983551D01*
X183936237Y-48985335D01*
X184004237Y-48986837D01*
X184083610Y-48988080D01*
X184175279Y-48989089D01*
X184280166Y-48989885D01*
X184399196Y-48990494D01*
X184533290Y-48990939D01*
X184683373Y-48991243D01*
X184850367Y-48991430D01*
X185035196Y-48991524D01*
X185238783Y-48991548D01*
X185462050Y-48991525D01*
X185705922Y-48991480D01*
X185971321Y-48991437D01*
X186009704Y-48991432D01*
X186276682Y-48991389D01*
X186522002Y-48991318D01*
X186746583Y-48991213D01*
X186951345Y-48991066D01*
X187137206Y-48990869D01*
X187305088Y-48990616D01*
X187455908Y-48990300D01*
X187590587Y-48989913D01*
X187710044Y-48989447D01*
X187815199Y-48988897D01*
X187906971Y-48988253D01*
X187986279Y-48987511D01*
X188054043Y-48986661D01*
X188111182Y-48985697D01*
X188158617Y-48984611D01*
X188197266Y-48983397D01*
X188228049Y-48982047D01*
X188251885Y-48980555D01*
X188269694Y-48978911D01*
X188282395Y-48977111D01*
X188290908Y-48975145D01*
X188295266Y-48973477D01*
X188303728Y-48969906D01*
X188311497Y-48967270D01*
X188318602Y-48964634D01*
X188325073Y-48961062D01*
X188330939Y-48955621D01*
X188336229Y-48947375D01*
X188340974Y-48935390D01*
X188345202Y-48918731D01*
X188348943Y-48896463D01*
X188352227Y-48867652D01*
X188355083Y-48831363D01*
X188357540Y-48786661D01*
X188359629Y-48732611D01*
X188361378Y-48668279D01*
X188362817Y-48592730D01*
X188363976Y-48505030D01*
X188364883Y-48404243D01*
X188365569Y-48289434D01*
X188366063Y-48159670D01*
X188366395Y-48014015D01*
X188366593Y-47851535D01*
X188366687Y-47671295D01*
X188366708Y-47472360D01*
X188366685Y-47253796D01*
X188366646Y-47014668D01*
X188366622Y-46754040D01*
X188366622Y-46711889D01*
X188366636Y-46448992D01*
X188366661Y-46207732D01*
X188366671Y-45987165D01*
X188366642Y-45786352D01*
X188366548Y-45604349D01*
X188366362Y-45440216D01*
X188366059Y-45293011D01*
X188365614Y-45161792D01*
X188365034Y-45051867D01*
X188062197Y-45051867D01*
X188022407Y-45109711D01*
X188011236Y-45125479D01*
X188001166Y-45139441D01*
X187992138Y-45152784D01*
X187984097Y-45166693D01*
X187976986Y-45182356D01*
X187970747Y-45200958D01*
X187965325Y-45223686D01*
X187960662Y-45251727D01*
X187956701Y-45286267D01*
X187953385Y-45328492D01*
X187950659Y-45379589D01*
X187948464Y-45440744D01*
X187946745Y-45513144D01*
X187945444Y-45597975D01*
X187944505Y-45696422D01*
X187943870Y-45809674D01*
X187943484Y-45938916D01*
X187943288Y-46085334D01*
X187943227Y-46250116D01*
X187943243Y-46434447D01*
X187943280Y-46639513D01*
X187943289Y-46762133D01*
X187943265Y-46979082D01*
X187943231Y-47174642D01*
X187943243Y-47349999D01*
X187943358Y-47506341D01*
X187943630Y-47644857D01*
X187944118Y-47766734D01*
X187944876Y-47873160D01*
X187945962Y-47965322D01*
X187947431Y-48044409D01*
X187949340Y-48111608D01*
X187951744Y-48168107D01*
X187954701Y-48215093D01*
X187958266Y-48253755D01*
X187962495Y-48285280D01*
X187967446Y-48310855D01*
X187973173Y-48331670D01*
X187979733Y-48348911D01*
X187987183Y-48363765D01*
X187995579Y-48377422D01*
X188004976Y-48391069D01*
X188015432Y-48405893D01*
X188021523Y-48414783D01*
X188060296Y-48472400D01*
X187528732Y-48472400D01*
X187405483Y-48472365D01*
X187302987Y-48472215D01*
X187219420Y-48471878D01*
X187152956Y-48471286D01*
X187101771Y-48470367D01*
X187064041Y-48469051D01*
X187037940Y-48467269D01*
X187021644Y-48464951D01*
X187013328Y-48462026D01*
X187011168Y-48458424D01*
X187013339Y-48454075D01*
X187014535Y-48452645D01*
X187039685Y-48415573D01*
X187065583Y-48362772D01*
X187089192Y-48300770D01*
X187097461Y-48274357D01*
X187102078Y-48256416D01*
X187105979Y-48235355D01*
X187109248Y-48209089D01*
X187111966Y-48175532D01*
X187114215Y-48132599D01*
X187116077Y-48078204D01*
X187117636Y-48010262D01*
X187118972Y-47926688D01*
X187120169Y-47825395D01*
X187121308Y-47704300D01*
X187121685Y-47659600D01*
X187122702Y-47534449D01*
X187123460Y-47430082D01*
X187123903Y-47344707D01*
X187123970Y-47276533D01*
X187123605Y-47223765D01*
X187122748Y-47184614D01*
X187121341Y-47157285D01*
X187119325Y-47139986D01*
X187116643Y-47130926D01*
X187113236Y-47128312D01*
X187109044Y-47130351D01*
X187104571Y-47134667D01*
X187094216Y-47147602D01*
X187072158Y-47176676D01*
X187039957Y-47219759D01*
X186999174Y-47274718D01*
X186951370Y-47339423D01*
X186898105Y-47411742D01*
X186840940Y-47489544D01*
X186781437Y-47570698D01*
X186721155Y-47653072D01*
X186661655Y-47734536D01*
X186604498Y-47812957D01*
X186551245Y-47886204D01*
X186503457Y-47952147D01*
X186462693Y-48008654D01*
X186430516Y-48053593D01*
X186408485Y-48084834D01*
X186403917Y-48091466D01*
X186380996Y-48128369D01*
X186354188Y-48176359D01*
X186328789Y-48225897D01*
X186325568Y-48232577D01*
X186303890Y-48280772D01*
X186291304Y-48318334D01*
X186285574Y-48354160D01*
X186284456Y-48396200D01*
X186285090Y-48472400D01*
X185130651Y-48472400D01*
X185221815Y-48378669D01*
X185268612Y-48328775D01*
X185318899Y-48272295D01*
X185364944Y-48218026D01*
X185385369Y-48192673D01*
X185415807Y-48153128D01*
X185455862Y-48099916D01*
X185504361Y-48034667D01*
X185560135Y-47959011D01*
X185622011Y-47874577D01*
X185688819Y-47782994D01*
X185759387Y-47685892D01*
X185832545Y-47584901D01*
X185907121Y-47481650D01*
X185981944Y-47377768D01*
X186055843Y-47274885D01*
X186127646Y-47174631D01*
X186196184Y-47078636D01*
X186260284Y-46988527D01*
X186318775Y-46905936D01*
X186370486Y-46832492D01*
X186414247Y-46769824D01*
X186448885Y-46719561D01*
X186473230Y-46683334D01*
X186486111Y-46662771D01*
X186487869Y-46658668D01*
X186479910Y-46647342D01*
X186459115Y-46620162D01*
X186426847Y-46578829D01*
X186384470Y-46525044D01*
X186333347Y-46460506D01*
X186274841Y-46386918D01*
X186210314Y-46305978D01*
X186141131Y-46219388D01*
X186068653Y-46128848D01*
X185994246Y-46036060D01*
X185934517Y-45961702D01*
X184923511Y-45961702D01*
X184917602Y-45974659D01*
X184903272Y-45996908D01*
X184902225Y-45998391D01*
X184883438Y-46028544D01*
X184863791Y-46065375D01*
X184859892Y-46073511D01*
X184856356Y-46081940D01*
X184853230Y-46092059D01*
X184850486Y-46105260D01*
X184848092Y-46122938D01*
X184846019Y-46146484D01*
X184844235Y-46177293D01*
X184842712Y-46216757D01*
X184841419Y-46266269D01*
X184840326Y-46327223D01*
X184839403Y-46401011D01*
X184838619Y-46489028D01*
X184837945Y-46592665D01*
X184837350Y-46713316D01*
X184836805Y-46852374D01*
X184836279Y-47011232D01*
X184835745Y-47190089D01*
X184835206Y-47375207D01*
X184834772Y-47539145D01*
X184834509Y-47683303D01*
X184834484Y-47809079D01*
X184834765Y-47917871D01*
X184835419Y-48011077D01*
X184836514Y-48090097D01*
X184838118Y-48156328D01*
X184840297Y-48211170D01*
X184843119Y-48256021D01*
X184846651Y-48292278D01*
X184850961Y-48321341D01*
X184856117Y-48344609D01*
X184862185Y-48363479D01*
X184869233Y-48379351D01*
X184877329Y-48393622D01*
X184886540Y-48407691D01*
X184895040Y-48420158D01*
X184912176Y-48446452D01*
X184922322Y-48464037D01*
X184923511Y-48467257D01*
X184912604Y-48468334D01*
X184881411Y-48469335D01*
X184832223Y-48470235D01*
X184767333Y-48471010D01*
X184689030Y-48471637D01*
X184599607Y-48472091D01*
X184501356Y-48472349D01*
X184432445Y-48472400D01*
X184327452Y-48472180D01*
X184230610Y-48471548D01*
X184144107Y-48470549D01*
X184070132Y-48469227D01*
X184010874Y-48467626D01*
X183968520Y-48465791D01*
X183945260Y-48463765D01*
X183941378Y-48462493D01*
X183949076Y-48447591D01*
X183957074Y-48439560D01*
X183970246Y-48422434D01*
X183987485Y-48392183D01*
X183999407Y-48367622D01*
X184026045Y-48308711D01*
X184029120Y-47131845D01*
X184032195Y-45954978D01*
X184477853Y-45954978D01*
X184575670Y-45955142D01*
X184666064Y-45955611D01*
X184746630Y-45956347D01*
X184814962Y-45957316D01*
X184868656Y-45958480D01*
X184905305Y-45959803D01*
X184922504Y-45961249D01*
X184923511Y-45961702D01*
X185934517Y-45961702D01*
X185919270Y-45942722D01*
X185845090Y-45850537D01*
X185773069Y-45761204D01*
X185704569Y-45676424D01*
X185640955Y-45597898D01*
X185583588Y-45527326D01*
X185533833Y-45466409D01*
X185493052Y-45416847D01*
X185475888Y-45396178D01*
X185389596Y-45295516D01*
X185312997Y-45212259D01*
X185244183Y-45144438D01*
X185181248Y-45090089D01*
X185171867Y-45082722D01*
X185132356Y-45052117D01*
X186264116Y-45051867D01*
X186258827Y-45099844D01*
X186262130Y-45157188D01*
X186283661Y-45225463D01*
X186323635Y-45305212D01*
X186368943Y-45377495D01*
X186385161Y-45400140D01*
X186413214Y-45437696D01*
X186451430Y-45488021D01*
X186498137Y-45548973D01*
X186551661Y-45618411D01*
X186610331Y-45694194D01*
X186672475Y-45774180D01*
X186736421Y-45856228D01*
X186800495Y-45938196D01*
X186863027Y-46017943D01*
X186922343Y-46093327D01*
X186976771Y-46162207D01*
X187024639Y-46222442D01*
X187064275Y-46271889D01*
X187094006Y-46308408D01*
X187112161Y-46329858D01*
X187115220Y-46333156D01*
X187118079Y-46325149D01*
X187120293Y-46294855D01*
X187121857Y-46242556D01*
X187122767Y-46168531D01*
X187123020Y-46073063D01*
X187122613Y-45956434D01*
X187121704Y-45836445D01*
X187120382Y-45704333D01*
X187118857Y-45592594D01*
X187116881Y-45499025D01*
X187114206Y-45421419D01*
X187110582Y-45357574D01*
X187105761Y-45305283D01*
X187099494Y-45262344D01*
X187091532Y-45226551D01*
X187081627Y-45195700D01*
X187069531Y-45167586D01*
X187054993Y-45140005D01*
X187040311Y-45114966D01*
X187002314Y-45051867D01*
X188062197Y-45051867D01*
X188365034Y-45051867D01*
X188365001Y-45045617D01*
X188364195Y-44943544D01*
X188363170Y-44854633D01*
X188361900Y-44777941D01*
X188360360Y-44712527D01*
X188358524Y-44657449D01*
X188356367Y-44611765D01*
X188353863Y-44574534D01*
X188350987Y-44544813D01*
X188347713Y-44521662D01*
X188344015Y-44504139D01*
X188339869Y-44491301D01*
X188335247Y-44482208D01*
X188330126Y-44475918D01*
X188324478Y-44471488D01*
X188318279Y-44467978D01*
X188311504Y-44464445D01*
X188305508Y-44460876D01*
X188300275Y-44458300D01*
X188292099Y-44455972D01*
X188279886Y-44453878D01*
X188262541Y-44452007D01*
X188238969Y-44450347D01*
X188208077Y-44448884D01*
X188168768Y-44447608D01*
X188119950Y-44446504D01*
X188060527Y-44445561D01*
X187989404Y-44444767D01*
X187905488Y-44444109D01*
X187807683Y-44443575D01*
X187694894Y-44443153D01*
X187566029Y-44442829D01*
X187419991Y-44442592D01*
X187255686Y-44442430D01*
X187072020Y-44442330D01*
X186867897Y-44442280D01*
X186656753Y-44442267D01*
X185036400Y-44442267D01*
X185036400Y-44539054D01*
G37*
X185036400Y-44539054D02*
X185025535Y-44652993D01*
X184993918Y-44760616D01*
X184943015Y-44859615D01*
X184874293Y-44947684D01*
X184789219Y-45022516D01*
X184692232Y-45080384D01*
X184585964Y-45120005D01*
X184478950Y-45138573D01*
X184373300Y-45137434D01*
X184271125Y-45117930D01*
X184174534Y-45081406D01*
X184085638Y-45029205D01*
X184006546Y-44962673D01*
X183939369Y-44883152D01*
X183886217Y-44791987D01*
X183849199Y-44690523D01*
X183830427Y-44580102D01*
X183828489Y-44530206D01*
X183828489Y-44442267D01*
X183776560Y-44442267D01*
X183740253Y-44445111D01*
X183713355Y-44456911D01*
X183686249Y-44480649D01*
X183647867Y-44519031D01*
X183647867Y-46710602D01*
X183647876Y-46972739D01*
X183647908Y-47213241D01*
X183647972Y-47433048D01*
X183648076Y-47633101D01*
X183648227Y-47814344D01*
X183648434Y-47977716D01*
X183648706Y-48124160D01*
X183649050Y-48254617D01*
X183649474Y-48370029D01*
X183649987Y-48471338D01*
X183650597Y-48559484D01*
X183651312Y-48635410D01*
X183652140Y-48700057D01*
X183653089Y-48754367D01*
X183654167Y-48799280D01*
X183655383Y-48835740D01*
X183656745Y-48864687D01*
X183658261Y-48887063D01*
X183659938Y-48903809D01*
X183661786Y-48915868D01*
X183663813Y-48924180D01*
X183666025Y-48929687D01*
X183667108Y-48931537D01*
X183671271Y-48938549D01*
X183674805Y-48944996D01*
X183678635Y-48950900D01*
X183683682Y-48956286D01*
X183690871Y-48961178D01*
X183701123Y-48965598D01*
X183715364Y-48969572D01*
X183734514Y-48973121D01*
X183759499Y-48976270D01*
X183791240Y-48979042D01*
X183830662Y-48981461D01*
X183878686Y-48983551D01*
X183936237Y-48985335D01*
X184004237Y-48986837D01*
X184083610Y-48988080D01*
X184175279Y-48989089D01*
X184280166Y-48989885D01*
X184399196Y-48990494D01*
X184533290Y-48990939D01*
X184683373Y-48991243D01*
X184850367Y-48991430D01*
X185035196Y-48991524D01*
X185238783Y-48991548D01*
X185462050Y-48991525D01*
X185705922Y-48991480D01*
X185971321Y-48991437D01*
X186009704Y-48991432D01*
X186276682Y-48991389D01*
X186522002Y-48991318D01*
X186746583Y-48991213D01*
X186951345Y-48991066D01*
X187137206Y-48990869D01*
X187305088Y-48990616D01*
X187455908Y-48990300D01*
X187590587Y-48989913D01*
X187710044Y-48989447D01*
X187815199Y-48988897D01*
X187906971Y-48988253D01*
X187986279Y-48987511D01*
X188054043Y-48986661D01*
X188111182Y-48985697D01*
X188158617Y-48984611D01*
X188197266Y-48983397D01*
X188228049Y-48982047D01*
X188251885Y-48980555D01*
X188269694Y-48978911D01*
X188282395Y-48977111D01*
X188290908Y-48975145D01*
X188295266Y-48973477D01*
X188303728Y-48969906D01*
X188311497Y-48967270D01*
X188318602Y-48964634D01*
X188325073Y-48961062D01*
X188330939Y-48955621D01*
X188336229Y-48947375D01*
X188340974Y-48935390D01*
X188345202Y-48918731D01*
X188348943Y-48896463D01*
X188352227Y-48867652D01*
X188355083Y-48831363D01*
X188357540Y-48786661D01*
X188359629Y-48732611D01*
X188361378Y-48668279D01*
X188362817Y-48592730D01*
X188363976Y-48505030D01*
X188364883Y-48404243D01*
X188365569Y-48289434D01*
X188366063Y-48159670D01*
X188366395Y-48014015D01*
X188366593Y-47851535D01*
X188366687Y-47671295D01*
X188366708Y-47472360D01*
X188366685Y-47253796D01*
X188366646Y-47014668D01*
X188366622Y-46754040D01*
X188366622Y-46711889D01*
X188366636Y-46448992D01*
X188366661Y-46207732D01*
X188366671Y-45987165D01*
X188366642Y-45786352D01*
X188366548Y-45604349D01*
X188366362Y-45440216D01*
X188366059Y-45293011D01*
X188365614Y-45161792D01*
X188365034Y-45051867D01*
X188062197Y-45051867D01*
X188022407Y-45109711D01*
X188011236Y-45125479D01*
X188001166Y-45139441D01*
X187992138Y-45152784D01*
X187984097Y-45166693D01*
X187976986Y-45182356D01*
X187970747Y-45200958D01*
X187965325Y-45223686D01*
X187960662Y-45251727D01*
X187956701Y-45286267D01*
X187953385Y-45328492D01*
X187950659Y-45379589D01*
X187948464Y-45440744D01*
X187946745Y-45513144D01*
X187945444Y-45597975D01*
X187944505Y-45696422D01*
X187943870Y-45809674D01*
X187943484Y-45938916D01*
X187943288Y-46085334D01*
X187943227Y-46250116D01*
X187943243Y-46434447D01*
X187943280Y-46639513D01*
X187943289Y-46762133D01*
X187943265Y-46979082D01*
X187943231Y-47174642D01*
X187943243Y-47349999D01*
X187943358Y-47506341D01*
X187943630Y-47644857D01*
X187944118Y-47766734D01*
X187944876Y-47873160D01*
X187945962Y-47965322D01*
X187947431Y-48044409D01*
X187949340Y-48111608D01*
X187951744Y-48168107D01*
X187954701Y-48215093D01*
X187958266Y-48253755D01*
X187962495Y-48285280D01*
X187967446Y-48310855D01*
X187973173Y-48331670D01*
X187979733Y-48348911D01*
X187987183Y-48363765D01*
X187995579Y-48377422D01*
X188004976Y-48391069D01*
X188015432Y-48405893D01*
X188021523Y-48414783D01*
X188060296Y-48472400D01*
X187528732Y-48472400D01*
X187405483Y-48472365D01*
X187302987Y-48472215D01*
X187219420Y-48471878D01*
X187152956Y-48471286D01*
X187101771Y-48470367D01*
X187064041Y-48469051D01*
X187037940Y-48467269D01*
X187021644Y-48464951D01*
X187013328Y-48462026D01*
X187011168Y-48458424D01*
X187013339Y-48454075D01*
X187014535Y-48452645D01*
X187039685Y-48415573D01*
X187065583Y-48362772D01*
X187089192Y-48300770D01*
X187097461Y-48274357D01*
X187102078Y-48256416D01*
X187105979Y-48235355D01*
X187109248Y-48209089D01*
X187111966Y-48175532D01*
X187114215Y-48132599D01*
X187116077Y-48078204D01*
X187117636Y-48010262D01*
X187118972Y-47926688D01*
X187120169Y-47825395D01*
X187121308Y-47704300D01*
X187121685Y-47659600D01*
X187122702Y-47534449D01*
X187123460Y-47430082D01*
X187123903Y-47344707D01*
X187123970Y-47276533D01*
X187123605Y-47223765D01*
X187122748Y-47184614D01*
X187121341Y-47157285D01*
X187119325Y-47139986D01*
X187116643Y-47130926D01*
X187113236Y-47128312D01*
X187109044Y-47130351D01*
X187104571Y-47134667D01*
X187094216Y-47147602D01*
X187072158Y-47176676D01*
X187039957Y-47219759D01*
X186999174Y-47274718D01*
X186951370Y-47339423D01*
X186898105Y-47411742D01*
X186840940Y-47489544D01*
X186781437Y-47570698D01*
X186721155Y-47653072D01*
X186661655Y-47734536D01*
X186604498Y-47812957D01*
X186551245Y-47886204D01*
X186503457Y-47952147D01*
X186462693Y-48008654D01*
X186430516Y-48053593D01*
X186408485Y-48084834D01*
X186403917Y-48091466D01*
X186380996Y-48128369D01*
X186354188Y-48176359D01*
X186328789Y-48225897D01*
X186325568Y-48232577D01*
X186303890Y-48280772D01*
X186291304Y-48318334D01*
X186285574Y-48354160D01*
X186284456Y-48396200D01*
X186285090Y-48472400D01*
X185130651Y-48472400D01*
X185221815Y-48378669D01*
X185268612Y-48328775D01*
X185318899Y-48272295D01*
X185364944Y-48218026D01*
X185385369Y-48192673D01*
X185415807Y-48153128D01*
X185455862Y-48099916D01*
X185504361Y-48034667D01*
X185560135Y-47959011D01*
X185622011Y-47874577D01*
X185688819Y-47782994D01*
X185759387Y-47685892D01*
X185832545Y-47584901D01*
X185907121Y-47481650D01*
X185981944Y-47377768D01*
X186055843Y-47274885D01*
X186127646Y-47174631D01*
X186196184Y-47078636D01*
X186260284Y-46988527D01*
X186318775Y-46905936D01*
X186370486Y-46832492D01*
X186414247Y-46769824D01*
X186448885Y-46719561D01*
X186473230Y-46683334D01*
X186486111Y-46662771D01*
X186487869Y-46658668D01*
X186479910Y-46647342D01*
X186459115Y-46620162D01*
X186426847Y-46578829D01*
X186384470Y-46525044D01*
X186333347Y-46460506D01*
X186274841Y-46386918D01*
X186210314Y-46305978D01*
X186141131Y-46219388D01*
X186068653Y-46128848D01*
X185994246Y-46036060D01*
X185934517Y-45961702D01*
X184923511Y-45961702D01*
X184917602Y-45974659D01*
X184903272Y-45996908D01*
X184902225Y-45998391D01*
X184883438Y-46028544D01*
X184863791Y-46065375D01*
X184859892Y-46073511D01*
X184856356Y-46081940D01*
X184853230Y-46092059D01*
X184850486Y-46105260D01*
X184848092Y-46122938D01*
X184846019Y-46146484D01*
X184844235Y-46177293D01*
X184842712Y-46216757D01*
X184841419Y-46266269D01*
X184840326Y-46327223D01*
X184839403Y-46401011D01*
X184838619Y-46489028D01*
X184837945Y-46592665D01*
X184837350Y-46713316D01*
X184836805Y-46852374D01*
X184836279Y-47011232D01*
X184835745Y-47190089D01*
X184835206Y-47375207D01*
X184834772Y-47539145D01*
X184834509Y-47683303D01*
X184834484Y-47809079D01*
X184834765Y-47917871D01*
X184835419Y-48011077D01*
X184836514Y-48090097D01*
X184838118Y-48156328D01*
X184840297Y-48211170D01*
X184843119Y-48256021D01*
X184846651Y-48292278D01*
X184850961Y-48321341D01*
X184856117Y-48344609D01*
X184862185Y-48363479D01*
X184869233Y-48379351D01*
X184877329Y-48393622D01*
X184886540Y-48407691D01*
X184895040Y-48420158D01*
X184912176Y-48446452D01*
X184922322Y-48464037D01*
X184923511Y-48467257D01*
X184912604Y-48468334D01*
X184881411Y-48469335D01*
X184832223Y-48470235D01*
X184767333Y-48471010D01*
X184689030Y-48471637D01*
X184599607Y-48472091D01*
X184501356Y-48472349D01*
X184432445Y-48472400D01*
X184327452Y-48472180D01*
X184230610Y-48471548D01*
X184144107Y-48470549D01*
X184070132Y-48469227D01*
X184010874Y-48467626D01*
X183968520Y-48465791D01*
X183945260Y-48463765D01*
X183941378Y-48462493D01*
X183949076Y-48447591D01*
X183957074Y-48439560D01*
X183970246Y-48422434D01*
X183987485Y-48392183D01*
X183999407Y-48367622D01*
X184026045Y-48308711D01*
X184029120Y-47131845D01*
X184032195Y-45954978D01*
X184477853Y-45954978D01*
X184575670Y-45955142D01*
X184666064Y-45955611D01*
X184746630Y-45956347D01*
X184814962Y-45957316D01*
X184868656Y-45958480D01*
X184905305Y-45959803D01*
X184922504Y-45961249D01*
X184923511Y-45961702D01*
X185934517Y-45961702D01*
X185919270Y-45942722D01*
X185845090Y-45850537D01*
X185773069Y-45761204D01*
X185704569Y-45676424D01*
X185640955Y-45597898D01*
X185583588Y-45527326D01*
X185533833Y-45466409D01*
X185493052Y-45416847D01*
X185475888Y-45396178D01*
X185389596Y-45295516D01*
X185312997Y-45212259D01*
X185244183Y-45144438D01*
X185181248Y-45090089D01*
X185171867Y-45082722D01*
X185132356Y-45052117D01*
X186264116Y-45051867D01*
X186258827Y-45099844D01*
X186262130Y-45157188D01*
X186283661Y-45225463D01*
X186323635Y-45305212D01*
X186368943Y-45377495D01*
X186385161Y-45400140D01*
X186413214Y-45437696D01*
X186451430Y-45488021D01*
X186498137Y-45548973D01*
X186551661Y-45618411D01*
X186610331Y-45694194D01*
X186672475Y-45774180D01*
X186736421Y-45856228D01*
X186800495Y-45938196D01*
X186863027Y-46017943D01*
X186922343Y-46093327D01*
X186976771Y-46162207D01*
X187024639Y-46222442D01*
X187064275Y-46271889D01*
X187094006Y-46308408D01*
X187112161Y-46329858D01*
X187115220Y-46333156D01*
X187118079Y-46325149D01*
X187120293Y-46294855D01*
X187121857Y-46242556D01*
X187122767Y-46168531D01*
X187123020Y-46073063D01*
X187122613Y-45956434D01*
X187121704Y-45836445D01*
X187120382Y-45704333D01*
X187118857Y-45592594D01*
X187116881Y-45499025D01*
X187114206Y-45421419D01*
X187110582Y-45357574D01*
X187105761Y-45305283D01*
X187099494Y-45262344D01*
X187091532Y-45226551D01*
X187081627Y-45195700D01*
X187069531Y-45167586D01*
X187054993Y-45140005D01*
X187040311Y-45114966D01*
X187002314Y-45051867D01*
X188062197Y-45051867D01*
X188365034Y-45051867D01*
X188365001Y-45045617D01*
X188364195Y-44943544D01*
X188363170Y-44854633D01*
X188361900Y-44777941D01*
X188360360Y-44712527D01*
X188358524Y-44657449D01*
X188356367Y-44611765D01*
X188353863Y-44574534D01*
X188350987Y-44544813D01*
X188347713Y-44521662D01*
X188344015Y-44504139D01*
X188339869Y-44491301D01*
X188335247Y-44482208D01*
X188330126Y-44475918D01*
X188324478Y-44471488D01*
X188318279Y-44467978D01*
X188311504Y-44464445D01*
X188305508Y-44460876D01*
X188300275Y-44458300D01*
X188292099Y-44455972D01*
X188279886Y-44453878D01*
X188262541Y-44452007D01*
X188238969Y-44450347D01*
X188208077Y-44448884D01*
X188168768Y-44447608D01*
X188119950Y-44446504D01*
X188060527Y-44445561D01*
X187989404Y-44444767D01*
X187905488Y-44444109D01*
X187807683Y-44443575D01*
X187694894Y-44443153D01*
X187566029Y-44442829D01*
X187419991Y-44442592D01*
X187255686Y-44442430D01*
X187072020Y-44442330D01*
X186867897Y-44442280D01*
X186656753Y-44442267D01*
X185036400Y-44442267D01*
X185036400Y-44539054D01*
D12*
X220590000Y-91760000D02*
X215390000Y-91760000D01*
X220590000Y-61220000D02*
X220590000Y-91760000D01*
X215390000Y-58620000D02*
X215390000Y-91760000D01*
X220590000Y-61220000D02*
X217990000Y-61220000D01*
X217990000Y-61220000D02*
X217990000Y-58620000D01*
X217990000Y-58620000D02*
X215390000Y-58620000D01*
X220590000Y-59950000D02*
X220590000Y-58620000D01*
X220590000Y-58620000D02*
X219260000Y-58620000D01*
D13*
X218323333Y-57072380D02*
X218323333Y-57786666D01*
X218370952Y-57929523D01*
X218466190Y-58024761D01*
X218609047Y-58072380D01*
X218704285Y-58072380D01*
X217323333Y-58072380D02*
X217894761Y-58072380D01*
X217609047Y-58072380D02*
X217609047Y-57072380D01*
X217704285Y-57215238D01*
X217799523Y-57310476D01*
X217894761Y-57358095D01*
%LPC*%
D14*
X169015000Y-87050000D03*
X174015000Y-87050000D03*
X158242000Y-87050000D03*
X163242000Y-87050000D03*
X177565000Y-108525000D03*
X177565000Y-113525000D03*
D15*
X209438000Y-40042000D03*
X211978000Y-40042000D03*
X214518000Y-40042000D03*
X217058000Y-40042000D03*
X219598000Y-40042000D03*
X219598000Y-55282000D03*
X217058000Y-55282000D03*
X214518000Y-55282000D03*
X211978000Y-55282000D03*
G36*
G01*
X208625000Y-56544000D02*
X208625000Y-54020000D01*
G75*
G02*
X208676000Y-53969000I51000J0D01*
G01*
X210200000Y-53969000D01*
G75*
G02*
X210251000Y-54020000I0J-51000D01*
G01*
X210251000Y-56544000D01*
G75*
G02*
X210200000Y-56595000I-51000J0D01*
G01*
X208676000Y-56595000D01*
G75*
G02*
X208625000Y-56544000I0J51000D01*
G01*
G37*
D14*
X195290000Y-98750000D03*
X195290000Y-93750000D03*
G36*
G01*
X175756000Y-66196000D02*
X174256000Y-66196000D01*
G75*
G02*
X174205000Y-66145000I0J51000D01*
G01*
X174205000Y-65095000D01*
G75*
G02*
X174256000Y-65044000I51000J0D01*
G01*
X175756000Y-65044000D01*
G75*
G02*
X175807000Y-65095000I0J-51000D01*
G01*
X175807000Y-66145000D01*
G75*
G02*
X175756000Y-66196000I-51000J0D01*
G01*
G37*
D16*
X175006000Y-63080000D03*
X175006000Y-64350000D03*
X183166000Y-64350000D03*
X183166000Y-63080000D03*
G36*
G01*
X183916000Y-66196000D02*
X182416000Y-66196000D01*
G75*
G02*
X182365000Y-66145000I0J51000D01*
G01*
X182365000Y-65095000D01*
G75*
G02*
X182416000Y-65044000I51000J0D01*
G01*
X183916000Y-65044000D01*
G75*
G02*
X183967000Y-65095000I0J-51000D01*
G01*
X183967000Y-66145000D01*
G75*
G02*
X183916000Y-66196000I-51000J0D01*
G01*
G37*
D17*
X202910000Y-105525000D03*
D14*
X195290000Y-105525000D03*
X195290000Y-102150000D03*
D17*
X202910000Y-102150000D03*
D14*
X186806000Y-62290000D03*
D17*
X186806000Y-69910000D03*
X153162000Y-64520000D03*
D14*
X160782000Y-64520000D03*
G36*
G01*
X189573000Y-112738000D02*
X189573000Y-114338000D01*
G75*
G02*
X189522000Y-114389000I-51000J0D01*
G01*
X187922000Y-114389000D01*
G75*
G02*
X187871000Y-114338000I0J51000D01*
G01*
X187871000Y-112738000D01*
G75*
G02*
X187922000Y-112687000I51000J0D01*
G01*
X189522000Y-112687000D01*
G75*
G02*
X189573000Y-112738000I0J-51000D01*
G01*
G37*
D17*
X181102000Y-90678000D03*
X188722000Y-110998000D03*
X181102000Y-93218000D03*
X188722000Y-108458000D03*
X181102000Y-95758000D03*
X188722000Y-105918000D03*
X181102000Y-98298000D03*
X188722000Y-103378000D03*
X181102000Y-100838000D03*
X188722000Y-100838000D03*
X181102000Y-103378000D03*
X188722000Y-98298000D03*
X181102000Y-105918000D03*
X188722000Y-95758000D03*
X181102000Y-108458000D03*
X188722000Y-93218000D03*
X181102000Y-110998000D03*
X188722000Y-90678000D03*
X181102000Y-113538000D03*
G36*
G01*
X198189000Y-91478000D02*
X198189000Y-89878000D01*
G75*
G02*
X198240000Y-89827000I51000J0D01*
G01*
X199840000Y-89827000D01*
G75*
G02*
X199891000Y-89878000I0J-51000D01*
G01*
X199891000Y-91478000D01*
G75*
G02*
X199840000Y-91529000I-51000J0D01*
G01*
X198240000Y-91529000D01*
G75*
G02*
X198189000Y-91478000I0J51000D01*
G01*
G37*
X206660000Y-98298000D03*
X199040000Y-93218000D03*
X206660000Y-95758000D03*
X199040000Y-95758000D03*
X206660000Y-93218000D03*
X199040000Y-98298000D03*
X206660000Y-90678000D03*
G36*
G01*
X139174000Y-66196000D02*
X137674000Y-66196000D01*
G75*
G02*
X137623000Y-66145000I0J51000D01*
G01*
X137623000Y-65095000D01*
G75*
G02*
X137674000Y-65044000I51000J0D01*
G01*
X139174000Y-65044000D01*
G75*
G02*
X139225000Y-65095000I0J-51000D01*
G01*
X139225000Y-66145000D01*
G75*
G02*
X139174000Y-66196000I-51000J0D01*
G01*
G37*
D16*
X138424000Y-63080000D03*
X138424000Y-64350000D03*
X146529333Y-64350000D03*
X146529333Y-63080000D03*
G36*
G01*
X147279333Y-66196000D02*
X145779333Y-66196000D01*
G75*
G02*
X145728333Y-66145000I0J51000D01*
G01*
X145728333Y-65095000D01*
G75*
G02*
X145779333Y-65044000I51000J0D01*
G01*
X147279333Y-65044000D01*
G75*
G02*
X147330333Y-65095000I0J-51000D01*
G01*
X147330333Y-66145000D01*
G75*
G02*
X147279333Y-66196000I-51000J0D01*
G01*
G37*
X191210666Y-64350000D03*
X191210666Y-63080000D03*
G36*
G01*
X191960666Y-66196000D02*
X190460666Y-66196000D01*
G75*
G02*
X190409666Y-66145000I0J51000D01*
G01*
X190409666Y-65095000D01*
G75*
G02*
X190460666Y-65044000I51000J0D01*
G01*
X191960666Y-65044000D01*
G75*
G02*
X192011666Y-65095000I0J-51000D01*
G01*
X192011666Y-66145000D01*
G75*
G02*
X191960666Y-66196000I-51000J0D01*
G01*
G37*
G36*
G01*
X200066000Y-66196000D02*
X198566000Y-66196000D01*
G75*
G02*
X198515000Y-66145000I0J51000D01*
G01*
X198515000Y-65095000D01*
G75*
G02*
X198566000Y-65044000I51000J0D01*
G01*
X200066000Y-65044000D01*
G75*
G02*
X200117000Y-65095000I0J-51000D01*
G01*
X200117000Y-66145000D01*
G75*
G02*
X200066000Y-66196000I-51000J0D01*
G01*
G37*
X199316000Y-63080000D03*
X199316000Y-64350000D03*
D14*
X160782000Y-68160000D03*
D17*
X153162000Y-68160000D03*
D14*
X142064000Y-62290000D03*
D17*
X142064000Y-69910000D03*
X150169333Y-69910000D03*
D14*
X150169333Y-62290000D03*
D17*
X213360000Y-64520000D03*
D14*
X205740000Y-64520000D03*
G36*
G01*
X203670000Y-74079000D02*
X205270000Y-74079000D01*
G75*
G02*
X205321000Y-74130000I0J-51000D01*
G01*
X205321000Y-75730000D01*
G75*
G02*
X205270000Y-75781000I-51000J0D01*
G01*
X203670000Y-75781000D01*
G75*
G02*
X203619000Y-75730000I0J51000D01*
G01*
X203619000Y-74130000D01*
G75*
G02*
X203670000Y-74079000I51000J0D01*
G01*
G37*
D17*
X186690000Y-82550000D03*
X201930000Y-74930000D03*
X189230000Y-82550000D03*
X199390000Y-74930000D03*
X191770000Y-82550000D03*
X196850000Y-74930000D03*
X194310000Y-82550000D03*
X194310000Y-74930000D03*
X196850000Y-82550000D03*
X191770000Y-74930000D03*
X199390000Y-82550000D03*
X189230000Y-74930000D03*
X201930000Y-82550000D03*
X186690000Y-74930000D03*
X204470000Y-82550000D03*
X180167000Y-82550000D03*
X162387000Y-74930000D03*
X177627000Y-82550000D03*
X164927000Y-74930000D03*
X175087000Y-82550000D03*
X167467000Y-74930000D03*
X172547000Y-82550000D03*
X170007000Y-74930000D03*
X170007000Y-82550000D03*
X172547000Y-74930000D03*
X167467000Y-82550000D03*
X175087000Y-74930000D03*
X164927000Y-82550000D03*
X177627000Y-74930000D03*
X162387000Y-82550000D03*
G36*
G01*
X179367000Y-74079000D02*
X180967000Y-74079000D01*
G75*
G02*
X181018000Y-74130000I0J-51000D01*
G01*
X181018000Y-75730000D01*
G75*
G02*
X180967000Y-75781000I-51000J0D01*
G01*
X179367000Y-75781000D01*
G75*
G02*
X179316000Y-75730000I0J51000D01*
G01*
X179316000Y-74130000D01*
G75*
G02*
X179367000Y-74079000I51000J0D01*
G01*
G37*
X170688000Y-68160000D03*
D14*
X163068000Y-68160000D03*
D17*
X170688000Y-64520000D03*
D14*
X163068000Y-64520000D03*
D17*
X178646000Y-69910000D03*
D14*
X178646000Y-62290000D03*
X205740000Y-68160000D03*
D17*
X213360000Y-68160000D03*
D14*
X194850666Y-62290000D03*
D17*
X194850666Y-69910000D03*
D14*
X202956000Y-62290000D03*
D17*
X202956000Y-69910000D03*
G36*
G01*
X155064000Y-74079000D02*
X156664000Y-74079000D01*
G75*
G02*
X156715000Y-74130000I0J-51000D01*
G01*
X156715000Y-75730000D01*
G75*
G02*
X156664000Y-75781000I-51000J0D01*
G01*
X155064000Y-75781000D01*
G75*
G02*
X155013000Y-75730000I0J51000D01*
G01*
X155013000Y-74130000D01*
G75*
G02*
X155064000Y-74079000I51000J0D01*
G01*
G37*
X138084000Y-82550000D03*
X153324000Y-74930000D03*
X140624000Y-82550000D03*
X150784000Y-74930000D03*
X143164000Y-82550000D03*
X148244000Y-74930000D03*
X145704000Y-82550000D03*
X145704000Y-74930000D03*
X148244000Y-82550000D03*
X143164000Y-74930000D03*
X150784000Y-82550000D03*
X140624000Y-74930000D03*
X153324000Y-82550000D03*
X138084000Y-74930000D03*
X155864000Y-82550000D03*
G36*
G01*
X162725000Y-91478000D02*
X162725000Y-89878000D01*
G75*
G02*
X162776000Y-89827000I51000J0D01*
G01*
X164376000Y-89827000D01*
G75*
G02*
X164427000Y-89878000I0J-51000D01*
G01*
X164427000Y-91478000D01*
G75*
G02*
X164376000Y-91529000I-51000J0D01*
G01*
X162776000Y-91529000D01*
G75*
G02*
X162725000Y-91478000I0J51000D01*
G01*
G37*
X171196000Y-113538000D03*
X163576000Y-93218000D03*
X171196000Y-110998000D03*
X163576000Y-95758000D03*
X171196000Y-108458000D03*
X163576000Y-98298000D03*
X171196000Y-105918000D03*
X163576000Y-100838000D03*
X171196000Y-103378000D03*
X163576000Y-103378000D03*
X171196000Y-100838000D03*
X163576000Y-105918000D03*
X171196000Y-98298000D03*
X163576000Y-108458000D03*
X171196000Y-95758000D03*
X163576000Y-110998000D03*
X171196000Y-93218000D03*
X163576000Y-113538000D03*
X171196000Y-90678000D03*
X158242000Y-90678000D03*
X150622000Y-113538000D03*
X158242000Y-93218000D03*
X150622000Y-110998000D03*
X158242000Y-95758000D03*
X150622000Y-108458000D03*
X158242000Y-98298000D03*
X150622000Y-105918000D03*
X158242000Y-100838000D03*
X150622000Y-103378000D03*
X158242000Y-103378000D03*
X150622000Y-100838000D03*
X158242000Y-105918000D03*
X150622000Y-98298000D03*
X158242000Y-108458000D03*
X150622000Y-95758000D03*
X158242000Y-110998000D03*
X150622000Y-93218000D03*
X158242000Y-113538000D03*
G36*
G01*
X149771000Y-91478000D02*
X149771000Y-89878000D01*
G75*
G02*
X149822000Y-89827000I51000J0D01*
G01*
X151422000Y-89827000D01*
G75*
G02*
X151473000Y-89878000I0J-51000D01*
G01*
X151473000Y-91478000D01*
G75*
G02*
X151422000Y-91529000I-51000J0D01*
G01*
X149822000Y-91529000D01*
G75*
G02*
X149771000Y-91478000I0J51000D01*
G01*
G37*
G36*
G01*
X136127000Y-56290000D02*
X136127000Y-53766000D01*
G75*
G02*
X136178000Y-53715000I51000J0D01*
G01*
X137702000Y-53715000D01*
G75*
G02*
X137753000Y-53766000I0J-51000D01*
G01*
X137753000Y-56290000D01*
G75*
G02*
X137702000Y-56341000I-51000J0D01*
G01*
X136178000Y-56341000D01*
G75*
G02*
X136127000Y-56290000I0J51000D01*
G01*
G37*
D15*
X139480000Y-55028000D03*
X142020000Y-55028000D03*
X144560000Y-55028000D03*
X147100000Y-55028000D03*
X147100000Y-39788000D03*
X144560000Y-39788000D03*
X142020000Y-39788000D03*
X139480000Y-39788000D03*
X136940000Y-39788000D03*
X149640000Y-39788000D03*
X152180000Y-39788000D03*
X154720000Y-39788000D03*
X157260000Y-39788000D03*
X159800000Y-39788000D03*
X159800000Y-55028000D03*
X157260000Y-55028000D03*
X154720000Y-55028000D03*
X152180000Y-55028000D03*
G36*
G01*
X148827000Y-56290000D02*
X148827000Y-53766000D01*
G75*
G02*
X148878000Y-53715000I51000J0D01*
G01*
X150402000Y-53715000D01*
G75*
G02*
X150453000Y-53766000I0J-51000D01*
G01*
X150453000Y-56290000D01*
G75*
G02*
X150402000Y-56341000I-51000J0D01*
G01*
X148878000Y-56341000D01*
G75*
G02*
X148827000Y-56290000I0J51000D01*
G01*
G37*
G36*
G01*
X161527000Y-56290000D02*
X161527000Y-53766000D01*
G75*
G02*
X161578000Y-53715000I51000J0D01*
G01*
X163102000Y-53715000D01*
G75*
G02*
X163153000Y-53766000I0J-51000D01*
G01*
X163153000Y-56290000D01*
G75*
G02*
X163102000Y-56341000I-51000J0D01*
G01*
X161578000Y-56341000D01*
G75*
G02*
X161527000Y-56290000I0J51000D01*
G01*
G37*
X164880000Y-55028000D03*
X167420000Y-55028000D03*
X169960000Y-55028000D03*
X172500000Y-55028000D03*
X172500000Y-39788000D03*
X169960000Y-39788000D03*
X167420000Y-39788000D03*
X164880000Y-39788000D03*
X162340000Y-39788000D03*
X175040000Y-39788000D03*
X177580000Y-39788000D03*
X180120000Y-39788000D03*
X182660000Y-39788000D03*
X185200000Y-39788000D03*
X185200000Y-55028000D03*
X182660000Y-55028000D03*
X180120000Y-55028000D03*
X177580000Y-55028000D03*
G36*
G01*
X174227000Y-56290000D02*
X174227000Y-53766000D01*
G75*
G02*
X174278000Y-53715000I51000J0D01*
G01*
X175802000Y-53715000D01*
G75*
G02*
X175853000Y-53766000I0J-51000D01*
G01*
X175853000Y-56290000D01*
G75*
G02*
X175802000Y-56341000I-51000J0D01*
G01*
X174278000Y-56341000D01*
G75*
G02*
X174227000Y-56290000I0J51000D01*
G01*
G37*
G36*
G01*
X195925000Y-56544000D02*
X195925000Y-54020000D01*
G75*
G02*
X195976000Y-53969000I51000J0D01*
G01*
X197500000Y-53969000D01*
G75*
G02*
X197551000Y-54020000I0J-51000D01*
G01*
X197551000Y-56544000D01*
G75*
G02*
X197500000Y-56595000I-51000J0D01*
G01*
X195976000Y-56595000D01*
G75*
G02*
X195925000Y-56544000I0J51000D01*
G01*
G37*
X199278000Y-55282000D03*
X201818000Y-55282000D03*
X204358000Y-55282000D03*
X206898000Y-55282000D03*
X206898000Y-40042000D03*
X204358000Y-40042000D03*
X201818000Y-40042000D03*
X199278000Y-40042000D03*
X196738000Y-40042000D03*
D14*
X206660000Y-101350000D03*
X206660000Y-106350000D03*
D18*
X192565000Y-116250000D03*
X202565000Y-113750000D03*
X192565000Y-111250000D03*
X205840000Y-111250000D03*
X215840000Y-113750000D03*
X205840000Y-116250000D03*
D19*
X219440000Y-116455000D03*
X219440000Y-113915000D03*
G36*
G01*
X218539000Y-112225000D02*
X218539000Y-110525000D01*
G75*
G02*
X218590000Y-110474000I51000J0D01*
G01*
X220290000Y-110474000D01*
G75*
G02*
X220341000Y-110525000I0J-51000D01*
G01*
X220341000Y-112225000D01*
G75*
G02*
X220290000Y-112276000I-51000J0D01*
G01*
X218590000Y-112276000D01*
G75*
G02*
X218539000Y-112225000I0J51000D01*
G01*
G37*
G36*
G01*
X220161000Y-59100000D02*
X220161000Y-60800000D01*
G75*
G02*
X220110000Y-60851000I-51000J0D01*
G01*
X218410000Y-60851000D01*
G75*
G02*
X218359000Y-60800000I0J51000D01*
G01*
X218359000Y-59100000D01*
G75*
G02*
X218410000Y-59049000I51000J0D01*
G01*
X220110000Y-59049000D01*
G75*
G02*
X220161000Y-59100000I0J-51000D01*
G01*
G37*
X216720000Y-59950000D03*
X219260000Y-62490000D03*
X216720000Y-62490000D03*
X219260000Y-65030000D03*
X216720000Y-65030000D03*
X219260000Y-67570000D03*
X216720000Y-67570000D03*
X219260000Y-70110000D03*
X216720000Y-70110000D03*
X219260000Y-72650000D03*
X216720000Y-72650000D03*
X219260000Y-75190000D03*
X216720000Y-75190000D03*
X219260000Y-77730000D03*
X216720000Y-77730000D03*
X219260000Y-80270000D03*
X216720000Y-80270000D03*
X219260000Y-82810000D03*
X216720000Y-82810000D03*
X219260000Y-85350000D03*
X216720000Y-85350000D03*
X219260000Y-87890000D03*
X216720000Y-87890000D03*
X219260000Y-90430000D03*
X216720000Y-90430000D03*
D20*
X137465000Y-59425000D03*
M02*
