G04 #@! TF.GenerationSoftware,KiCad,Pcbnew,(5.1.9)-1*
G04 #@! TF.CreationDate,2023-05-09T22:05:53+01:00*
G04 #@! TF.ProjectId,AT65C02_HEX_rev003,41543635-4330-4325-9f48-45585f726576,Rev003*
G04 #@! TF.SameCoordinates,Original*
G04 #@! TF.FileFunction,Legend,Top*
G04 #@! TF.FilePolarity,Positive*
%FSLAX46Y46*%
G04 Gerber Fmt 4.6, Leading zero omitted, Abs format (unit mm)*
G04 Created by KiCad (PCBNEW (5.1.9)-1) date 2023-05-09 22:05:53*
%MOMM*%
%LPD*%
G01*
G04 APERTURE LIST*
%ADD10C,0.150000*%
%ADD11C,0.300000*%
%ADD12C,0.120000*%
%ADD13C,1.702000*%
%ADD14O,1.626000X2.626000*%
%ADD15O,1.602000X1.152000*%
%ADD16O,1.702000X1.702000*%
%ADD17C,2.442000*%
%ADD18O,1.802000X1.802000*%
%ADD19C,2.302000*%
G04 APERTURE END LIST*
D10*
X197857857Y-65414285D02*
X197895952Y-65328571D01*
X197934047Y-65300000D01*
X198010238Y-65271428D01*
X198124523Y-65271428D01*
X198200714Y-65300000D01*
X198238809Y-65328571D01*
X198276904Y-65385714D01*
X198276904Y-65614285D01*
X197476904Y-65614285D01*
X197476904Y-65414285D01*
X197515000Y-65357142D01*
X197553095Y-65328571D01*
X197629285Y-65300000D01*
X197705476Y-65300000D01*
X197781666Y-65328571D01*
X197819761Y-65357142D01*
X197857857Y-65414285D01*
X197857857Y-65614285D01*
X198200714Y-64671428D02*
X198238809Y-64700000D01*
X198276904Y-64785714D01*
X198276904Y-64842857D01*
X198238809Y-64928571D01*
X198162619Y-64985714D01*
X198086428Y-65014285D01*
X197934047Y-65042857D01*
X197819761Y-65042857D01*
X197667380Y-65014285D01*
X197591190Y-64985714D01*
X197515000Y-64928571D01*
X197476904Y-64842857D01*
X197476904Y-64785714D01*
X197515000Y-64700000D01*
X197553095Y-64671428D01*
X197476904Y-64128571D02*
X197476904Y-64414285D01*
X197857857Y-64442857D01*
X197819761Y-64414285D01*
X197781666Y-64357142D01*
X197781666Y-64214285D01*
X197819761Y-64157142D01*
X197857857Y-64128571D01*
X197934047Y-64100000D01*
X198124523Y-64100000D01*
X198200714Y-64128571D01*
X198238809Y-64157142D01*
X198276904Y-64214285D01*
X198276904Y-64357142D01*
X198238809Y-64414285D01*
X198200714Y-64442857D01*
X197476904Y-63557142D02*
X197476904Y-63842857D01*
X197857857Y-63871428D01*
X197819761Y-63842857D01*
X197781666Y-63785714D01*
X197781666Y-63642857D01*
X197819761Y-63585714D01*
X197857857Y-63557142D01*
X197934047Y-63528571D01*
X198124523Y-63528571D01*
X198200714Y-63557142D01*
X198238809Y-63585714D01*
X198276904Y-63642857D01*
X198276904Y-63785714D01*
X198238809Y-63842857D01*
X198200714Y-63871428D01*
X197476904Y-63328571D02*
X197476904Y-62928571D01*
X198276904Y-63185714D01*
X189732857Y-65414285D02*
X189770952Y-65328571D01*
X189809047Y-65300000D01*
X189885238Y-65271428D01*
X189999523Y-65271428D01*
X190075714Y-65300000D01*
X190113809Y-65328571D01*
X190151904Y-65385714D01*
X190151904Y-65614285D01*
X189351904Y-65614285D01*
X189351904Y-65414285D01*
X189390000Y-65357142D01*
X189428095Y-65328571D01*
X189504285Y-65300000D01*
X189580476Y-65300000D01*
X189656666Y-65328571D01*
X189694761Y-65357142D01*
X189732857Y-65414285D01*
X189732857Y-65614285D01*
X190075714Y-64671428D02*
X190113809Y-64700000D01*
X190151904Y-64785714D01*
X190151904Y-64842857D01*
X190113809Y-64928571D01*
X190037619Y-64985714D01*
X189961428Y-65014285D01*
X189809047Y-65042857D01*
X189694761Y-65042857D01*
X189542380Y-65014285D01*
X189466190Y-64985714D01*
X189390000Y-64928571D01*
X189351904Y-64842857D01*
X189351904Y-64785714D01*
X189390000Y-64700000D01*
X189428095Y-64671428D01*
X189351904Y-64128571D02*
X189351904Y-64414285D01*
X189732857Y-64442857D01*
X189694761Y-64414285D01*
X189656666Y-64357142D01*
X189656666Y-64214285D01*
X189694761Y-64157142D01*
X189732857Y-64128571D01*
X189809047Y-64100000D01*
X189999523Y-64100000D01*
X190075714Y-64128571D01*
X190113809Y-64157142D01*
X190151904Y-64214285D01*
X190151904Y-64357142D01*
X190113809Y-64414285D01*
X190075714Y-64442857D01*
X189351904Y-63557142D02*
X189351904Y-63842857D01*
X189732857Y-63871428D01*
X189694761Y-63842857D01*
X189656666Y-63785714D01*
X189656666Y-63642857D01*
X189694761Y-63585714D01*
X189732857Y-63557142D01*
X189809047Y-63528571D01*
X189999523Y-63528571D01*
X190075714Y-63557142D01*
X190113809Y-63585714D01*
X190151904Y-63642857D01*
X190151904Y-63785714D01*
X190113809Y-63842857D01*
X190075714Y-63871428D01*
X189351904Y-63328571D02*
X189351904Y-62928571D01*
X190151904Y-63185714D01*
X181707857Y-65414285D02*
X181745952Y-65328571D01*
X181784047Y-65300000D01*
X181860238Y-65271428D01*
X181974523Y-65271428D01*
X182050714Y-65300000D01*
X182088809Y-65328571D01*
X182126904Y-65385714D01*
X182126904Y-65614285D01*
X181326904Y-65614285D01*
X181326904Y-65414285D01*
X181365000Y-65357142D01*
X181403095Y-65328571D01*
X181479285Y-65300000D01*
X181555476Y-65300000D01*
X181631666Y-65328571D01*
X181669761Y-65357142D01*
X181707857Y-65414285D01*
X181707857Y-65614285D01*
X182050714Y-64671428D02*
X182088809Y-64700000D01*
X182126904Y-64785714D01*
X182126904Y-64842857D01*
X182088809Y-64928571D01*
X182012619Y-64985714D01*
X181936428Y-65014285D01*
X181784047Y-65042857D01*
X181669761Y-65042857D01*
X181517380Y-65014285D01*
X181441190Y-64985714D01*
X181365000Y-64928571D01*
X181326904Y-64842857D01*
X181326904Y-64785714D01*
X181365000Y-64700000D01*
X181403095Y-64671428D01*
X181326904Y-64128571D02*
X181326904Y-64414285D01*
X181707857Y-64442857D01*
X181669761Y-64414285D01*
X181631666Y-64357142D01*
X181631666Y-64214285D01*
X181669761Y-64157142D01*
X181707857Y-64128571D01*
X181784047Y-64100000D01*
X181974523Y-64100000D01*
X182050714Y-64128571D01*
X182088809Y-64157142D01*
X182126904Y-64214285D01*
X182126904Y-64357142D01*
X182088809Y-64414285D01*
X182050714Y-64442857D01*
X181326904Y-63557142D02*
X181326904Y-63842857D01*
X181707857Y-63871428D01*
X181669761Y-63842857D01*
X181631666Y-63785714D01*
X181631666Y-63642857D01*
X181669761Y-63585714D01*
X181707857Y-63557142D01*
X181784047Y-63528571D01*
X181974523Y-63528571D01*
X182050714Y-63557142D01*
X182088809Y-63585714D01*
X182126904Y-63642857D01*
X182126904Y-63785714D01*
X182088809Y-63842857D01*
X182050714Y-63871428D01*
X181326904Y-63328571D02*
X181326904Y-62928571D01*
X182126904Y-63185714D01*
X173532857Y-65414285D02*
X173570952Y-65328571D01*
X173609047Y-65300000D01*
X173685238Y-65271428D01*
X173799523Y-65271428D01*
X173875714Y-65300000D01*
X173913809Y-65328571D01*
X173951904Y-65385714D01*
X173951904Y-65614285D01*
X173151904Y-65614285D01*
X173151904Y-65414285D01*
X173190000Y-65357142D01*
X173228095Y-65328571D01*
X173304285Y-65300000D01*
X173380476Y-65300000D01*
X173456666Y-65328571D01*
X173494761Y-65357142D01*
X173532857Y-65414285D01*
X173532857Y-65614285D01*
X173875714Y-64671428D02*
X173913809Y-64700000D01*
X173951904Y-64785714D01*
X173951904Y-64842857D01*
X173913809Y-64928571D01*
X173837619Y-64985714D01*
X173761428Y-65014285D01*
X173609047Y-65042857D01*
X173494761Y-65042857D01*
X173342380Y-65014285D01*
X173266190Y-64985714D01*
X173190000Y-64928571D01*
X173151904Y-64842857D01*
X173151904Y-64785714D01*
X173190000Y-64700000D01*
X173228095Y-64671428D01*
X173151904Y-64128571D02*
X173151904Y-64414285D01*
X173532857Y-64442857D01*
X173494761Y-64414285D01*
X173456666Y-64357142D01*
X173456666Y-64214285D01*
X173494761Y-64157142D01*
X173532857Y-64128571D01*
X173609047Y-64100000D01*
X173799523Y-64100000D01*
X173875714Y-64128571D01*
X173913809Y-64157142D01*
X173951904Y-64214285D01*
X173951904Y-64357142D01*
X173913809Y-64414285D01*
X173875714Y-64442857D01*
X173151904Y-63557142D02*
X173151904Y-63842857D01*
X173532857Y-63871428D01*
X173494761Y-63842857D01*
X173456666Y-63785714D01*
X173456666Y-63642857D01*
X173494761Y-63585714D01*
X173532857Y-63557142D01*
X173609047Y-63528571D01*
X173799523Y-63528571D01*
X173875714Y-63557142D01*
X173913809Y-63585714D01*
X173951904Y-63642857D01*
X173951904Y-63785714D01*
X173913809Y-63842857D01*
X173875714Y-63871428D01*
X173151904Y-63328571D02*
X173151904Y-62928571D01*
X173951904Y-63185714D01*
X145082857Y-65414285D02*
X145120952Y-65328571D01*
X145159047Y-65300000D01*
X145235238Y-65271428D01*
X145349523Y-65271428D01*
X145425714Y-65300000D01*
X145463809Y-65328571D01*
X145501904Y-65385714D01*
X145501904Y-65614285D01*
X144701904Y-65614285D01*
X144701904Y-65414285D01*
X144740000Y-65357142D01*
X144778095Y-65328571D01*
X144854285Y-65300000D01*
X144930476Y-65300000D01*
X145006666Y-65328571D01*
X145044761Y-65357142D01*
X145082857Y-65414285D01*
X145082857Y-65614285D01*
X145425714Y-64671428D02*
X145463809Y-64700000D01*
X145501904Y-64785714D01*
X145501904Y-64842857D01*
X145463809Y-64928571D01*
X145387619Y-64985714D01*
X145311428Y-65014285D01*
X145159047Y-65042857D01*
X145044761Y-65042857D01*
X144892380Y-65014285D01*
X144816190Y-64985714D01*
X144740000Y-64928571D01*
X144701904Y-64842857D01*
X144701904Y-64785714D01*
X144740000Y-64700000D01*
X144778095Y-64671428D01*
X144701904Y-64128571D02*
X144701904Y-64414285D01*
X145082857Y-64442857D01*
X145044761Y-64414285D01*
X145006666Y-64357142D01*
X145006666Y-64214285D01*
X145044761Y-64157142D01*
X145082857Y-64128571D01*
X145159047Y-64100000D01*
X145349523Y-64100000D01*
X145425714Y-64128571D01*
X145463809Y-64157142D01*
X145501904Y-64214285D01*
X145501904Y-64357142D01*
X145463809Y-64414285D01*
X145425714Y-64442857D01*
X144701904Y-63557142D02*
X144701904Y-63842857D01*
X145082857Y-63871428D01*
X145044761Y-63842857D01*
X145006666Y-63785714D01*
X145006666Y-63642857D01*
X145044761Y-63585714D01*
X145082857Y-63557142D01*
X145159047Y-63528571D01*
X145349523Y-63528571D01*
X145425714Y-63557142D01*
X145463809Y-63585714D01*
X145501904Y-63642857D01*
X145501904Y-63785714D01*
X145463809Y-63842857D01*
X145425714Y-63871428D01*
X144701904Y-63328571D02*
X144701904Y-62928571D01*
X145501904Y-63185714D01*
X136907857Y-65414285D02*
X136945952Y-65328571D01*
X136984047Y-65300000D01*
X137060238Y-65271428D01*
X137174523Y-65271428D01*
X137250714Y-65300000D01*
X137288809Y-65328571D01*
X137326904Y-65385714D01*
X137326904Y-65614285D01*
X136526904Y-65614285D01*
X136526904Y-65414285D01*
X136565000Y-65357142D01*
X136603095Y-65328571D01*
X136679285Y-65300000D01*
X136755476Y-65300000D01*
X136831666Y-65328571D01*
X136869761Y-65357142D01*
X136907857Y-65414285D01*
X136907857Y-65614285D01*
X137250714Y-64671428D02*
X137288809Y-64700000D01*
X137326904Y-64785714D01*
X137326904Y-64842857D01*
X137288809Y-64928571D01*
X137212619Y-64985714D01*
X137136428Y-65014285D01*
X136984047Y-65042857D01*
X136869761Y-65042857D01*
X136717380Y-65014285D01*
X136641190Y-64985714D01*
X136565000Y-64928571D01*
X136526904Y-64842857D01*
X136526904Y-64785714D01*
X136565000Y-64700000D01*
X136603095Y-64671428D01*
X136526904Y-64128571D02*
X136526904Y-64414285D01*
X136907857Y-64442857D01*
X136869761Y-64414285D01*
X136831666Y-64357142D01*
X136831666Y-64214285D01*
X136869761Y-64157142D01*
X136907857Y-64128571D01*
X136984047Y-64100000D01*
X137174523Y-64100000D01*
X137250714Y-64128571D01*
X137288809Y-64157142D01*
X137326904Y-64214285D01*
X137326904Y-64357142D01*
X137288809Y-64414285D01*
X137250714Y-64442857D01*
X136526904Y-63557142D02*
X136526904Y-63842857D01*
X136907857Y-63871428D01*
X136869761Y-63842857D01*
X136831666Y-63785714D01*
X136831666Y-63642857D01*
X136869761Y-63585714D01*
X136907857Y-63557142D01*
X136984047Y-63528571D01*
X137174523Y-63528571D01*
X137250714Y-63557142D01*
X137288809Y-63585714D01*
X137326904Y-63642857D01*
X137326904Y-63785714D01*
X137288809Y-63842857D01*
X137250714Y-63871428D01*
X136526904Y-63328571D02*
X136526904Y-62928571D01*
X137326904Y-63185714D01*
X210436428Y-113338095D02*
X210474523Y-113300000D01*
X210550714Y-113261904D01*
X210741190Y-113261904D01*
X210817380Y-113300000D01*
X210855476Y-113338095D01*
X210893571Y-113414285D01*
X210893571Y-113490476D01*
X210855476Y-113604761D01*
X210398333Y-114061904D01*
X210893571Y-114061904D01*
X211236428Y-114061904D02*
X211236428Y-113261904D01*
X211693571Y-114061904D02*
X211350714Y-113604761D01*
X211693571Y-113261904D02*
X211236428Y-113719047D01*
X197236428Y-113338095D02*
X197274523Y-113300000D01*
X197350714Y-113261904D01*
X197541190Y-113261904D01*
X197617380Y-113300000D01*
X197655476Y-113338095D01*
X197693571Y-113414285D01*
X197693571Y-113490476D01*
X197655476Y-113604761D01*
X197198333Y-114061904D01*
X197693571Y-114061904D01*
X198036428Y-114061904D02*
X198036428Y-113261904D01*
X198493571Y-114061904D02*
X198150714Y-113604761D01*
X198493571Y-113261904D02*
X198036428Y-113719047D01*
X193692380Y-79111904D02*
X193235238Y-79111904D01*
X193463809Y-79111904D02*
X193463809Y-78311904D01*
X193387619Y-78426190D01*
X193311428Y-78502380D01*
X193235238Y-78540476D01*
X194187619Y-78311904D02*
X194263809Y-78311904D01*
X194340000Y-78350000D01*
X194378095Y-78388095D01*
X194416190Y-78464285D01*
X194454285Y-78616666D01*
X194454285Y-78807142D01*
X194416190Y-78959523D01*
X194378095Y-79035714D01*
X194340000Y-79073809D01*
X194263809Y-79111904D01*
X194187619Y-79111904D01*
X194111428Y-79073809D01*
X194073333Y-79035714D01*
X194035238Y-78959523D01*
X193997142Y-78807142D01*
X193997142Y-78616666D01*
X194035238Y-78464285D01*
X194073333Y-78388095D01*
X194111428Y-78350000D01*
X194187619Y-78311904D01*
X194949523Y-78311904D02*
X195025714Y-78311904D01*
X195101904Y-78350000D01*
X195140000Y-78388095D01*
X195178095Y-78464285D01*
X195216190Y-78616666D01*
X195216190Y-78807142D01*
X195178095Y-78959523D01*
X195140000Y-79035714D01*
X195101904Y-79073809D01*
X195025714Y-79111904D01*
X194949523Y-79111904D01*
X194873333Y-79073809D01*
X194835238Y-79035714D01*
X194797142Y-78959523D01*
X194759047Y-78807142D01*
X194759047Y-78616666D01*
X194797142Y-78464285D01*
X194835238Y-78388095D01*
X194873333Y-78350000D01*
X194949523Y-78311904D01*
X196016190Y-79111904D02*
X195749523Y-78730952D01*
X195559047Y-79111904D02*
X195559047Y-78311904D01*
X195863809Y-78311904D01*
X195940000Y-78350000D01*
X195978095Y-78388095D01*
X196016190Y-78464285D01*
X196016190Y-78578571D01*
X195978095Y-78654761D01*
X195940000Y-78692857D01*
X195863809Y-78730952D01*
X195559047Y-78730952D01*
X196892380Y-79111904D02*
X197311428Y-78578571D01*
X196892380Y-78578571D02*
X197311428Y-79111904D01*
X198340000Y-78654761D02*
X198263809Y-78616666D01*
X198225714Y-78578571D01*
X198187619Y-78502380D01*
X198187619Y-78464285D01*
X198225714Y-78388095D01*
X198263809Y-78350000D01*
X198340000Y-78311904D01*
X198492380Y-78311904D01*
X198568571Y-78350000D01*
X198606666Y-78388095D01*
X198644761Y-78464285D01*
X198644761Y-78502380D01*
X198606666Y-78578571D01*
X198568571Y-78616666D01*
X198492380Y-78654761D01*
X198340000Y-78654761D01*
X198263809Y-78692857D01*
X198225714Y-78730952D01*
X198187619Y-78807142D01*
X198187619Y-78959523D01*
X198225714Y-79035714D01*
X198263809Y-79073809D01*
X198340000Y-79111904D01*
X198492380Y-79111904D01*
X198568571Y-79073809D01*
X198606666Y-79035714D01*
X198644761Y-78959523D01*
X198644761Y-78807142D01*
X198606666Y-78730952D01*
X198568571Y-78692857D01*
X198492380Y-78654761D01*
X168992380Y-79111904D02*
X168535238Y-79111904D01*
X168763809Y-79111904D02*
X168763809Y-78311904D01*
X168687619Y-78426190D01*
X168611428Y-78502380D01*
X168535238Y-78540476D01*
X169487619Y-78311904D02*
X169563809Y-78311904D01*
X169640000Y-78350000D01*
X169678095Y-78388095D01*
X169716190Y-78464285D01*
X169754285Y-78616666D01*
X169754285Y-78807142D01*
X169716190Y-78959523D01*
X169678095Y-79035714D01*
X169640000Y-79073809D01*
X169563809Y-79111904D01*
X169487619Y-79111904D01*
X169411428Y-79073809D01*
X169373333Y-79035714D01*
X169335238Y-78959523D01*
X169297142Y-78807142D01*
X169297142Y-78616666D01*
X169335238Y-78464285D01*
X169373333Y-78388095D01*
X169411428Y-78350000D01*
X169487619Y-78311904D01*
X170249523Y-78311904D02*
X170325714Y-78311904D01*
X170401904Y-78350000D01*
X170440000Y-78388095D01*
X170478095Y-78464285D01*
X170516190Y-78616666D01*
X170516190Y-78807142D01*
X170478095Y-78959523D01*
X170440000Y-79035714D01*
X170401904Y-79073809D01*
X170325714Y-79111904D01*
X170249523Y-79111904D01*
X170173333Y-79073809D01*
X170135238Y-79035714D01*
X170097142Y-78959523D01*
X170059047Y-78807142D01*
X170059047Y-78616666D01*
X170097142Y-78464285D01*
X170135238Y-78388095D01*
X170173333Y-78350000D01*
X170249523Y-78311904D01*
X171316190Y-79111904D02*
X171049523Y-78730952D01*
X170859047Y-79111904D02*
X170859047Y-78311904D01*
X171163809Y-78311904D01*
X171240000Y-78350000D01*
X171278095Y-78388095D01*
X171316190Y-78464285D01*
X171316190Y-78578571D01*
X171278095Y-78654761D01*
X171240000Y-78692857D01*
X171163809Y-78730952D01*
X170859047Y-78730952D01*
X172192380Y-79111904D02*
X172611428Y-78578571D01*
X172192380Y-78578571D02*
X172611428Y-79111904D01*
X173640000Y-78654761D02*
X173563809Y-78616666D01*
X173525714Y-78578571D01*
X173487619Y-78502380D01*
X173487619Y-78464285D01*
X173525714Y-78388095D01*
X173563809Y-78350000D01*
X173640000Y-78311904D01*
X173792380Y-78311904D01*
X173868571Y-78350000D01*
X173906666Y-78388095D01*
X173944761Y-78464285D01*
X173944761Y-78502380D01*
X173906666Y-78578571D01*
X173868571Y-78616666D01*
X173792380Y-78654761D01*
X173640000Y-78654761D01*
X173563809Y-78692857D01*
X173525714Y-78730952D01*
X173487619Y-78807142D01*
X173487619Y-78959523D01*
X173525714Y-79035714D01*
X173563809Y-79073809D01*
X173640000Y-79111904D01*
X173792380Y-79111904D01*
X173868571Y-79073809D01*
X173906666Y-79035714D01*
X173944761Y-78959523D01*
X173944761Y-78807142D01*
X173906666Y-78730952D01*
X173868571Y-78692857D01*
X173792380Y-78654761D01*
X144367380Y-79111904D02*
X143910238Y-79111904D01*
X144138809Y-79111904D02*
X144138809Y-78311904D01*
X144062619Y-78426190D01*
X143986428Y-78502380D01*
X143910238Y-78540476D01*
X144862619Y-78311904D02*
X144938809Y-78311904D01*
X145015000Y-78350000D01*
X145053095Y-78388095D01*
X145091190Y-78464285D01*
X145129285Y-78616666D01*
X145129285Y-78807142D01*
X145091190Y-78959523D01*
X145053095Y-79035714D01*
X145015000Y-79073809D01*
X144938809Y-79111904D01*
X144862619Y-79111904D01*
X144786428Y-79073809D01*
X144748333Y-79035714D01*
X144710238Y-78959523D01*
X144672142Y-78807142D01*
X144672142Y-78616666D01*
X144710238Y-78464285D01*
X144748333Y-78388095D01*
X144786428Y-78350000D01*
X144862619Y-78311904D01*
X145624523Y-78311904D02*
X145700714Y-78311904D01*
X145776904Y-78350000D01*
X145815000Y-78388095D01*
X145853095Y-78464285D01*
X145891190Y-78616666D01*
X145891190Y-78807142D01*
X145853095Y-78959523D01*
X145815000Y-79035714D01*
X145776904Y-79073809D01*
X145700714Y-79111904D01*
X145624523Y-79111904D01*
X145548333Y-79073809D01*
X145510238Y-79035714D01*
X145472142Y-78959523D01*
X145434047Y-78807142D01*
X145434047Y-78616666D01*
X145472142Y-78464285D01*
X145510238Y-78388095D01*
X145548333Y-78350000D01*
X145624523Y-78311904D01*
X146691190Y-79111904D02*
X146424523Y-78730952D01*
X146234047Y-79111904D02*
X146234047Y-78311904D01*
X146538809Y-78311904D01*
X146615000Y-78350000D01*
X146653095Y-78388095D01*
X146691190Y-78464285D01*
X146691190Y-78578571D01*
X146653095Y-78654761D01*
X146615000Y-78692857D01*
X146538809Y-78730952D01*
X146234047Y-78730952D01*
X147567380Y-79111904D02*
X147986428Y-78578571D01*
X147567380Y-78578571D02*
X147986428Y-79111904D01*
X149015000Y-78654761D02*
X148938809Y-78616666D01*
X148900714Y-78578571D01*
X148862619Y-78502380D01*
X148862619Y-78464285D01*
X148900714Y-78388095D01*
X148938809Y-78350000D01*
X149015000Y-78311904D01*
X149167380Y-78311904D01*
X149243571Y-78350000D01*
X149281666Y-78388095D01*
X149319761Y-78464285D01*
X149319761Y-78502380D01*
X149281666Y-78578571D01*
X149243571Y-78616666D01*
X149167380Y-78654761D01*
X149015000Y-78654761D01*
X148938809Y-78692857D01*
X148900714Y-78730952D01*
X148862619Y-78807142D01*
X148862619Y-78959523D01*
X148900714Y-79035714D01*
X148938809Y-79073809D01*
X149015000Y-79111904D01*
X149167380Y-79111904D01*
X149243571Y-79073809D01*
X149281666Y-79035714D01*
X149319761Y-78959523D01*
X149319761Y-78807142D01*
X149281666Y-78730952D01*
X149243571Y-78692857D01*
X149167380Y-78654761D01*
X209037619Y-68103571D02*
X209037619Y-68636904D01*
X208847142Y-67798809D02*
X208656666Y-68370238D01*
X209151904Y-68370238D01*
X209456666Y-68636904D02*
X209456666Y-67836904D01*
X209532857Y-68332142D02*
X209761428Y-68636904D01*
X209761428Y-68103571D02*
X209456666Y-68408333D01*
X210028095Y-67836904D02*
X210561428Y-67836904D01*
X210218571Y-68636904D01*
X209037619Y-64503571D02*
X209037619Y-65036904D01*
X208847142Y-64198809D02*
X208656666Y-64770238D01*
X209151904Y-64770238D01*
X209456666Y-65036904D02*
X209456666Y-64236904D01*
X209532857Y-64732142D02*
X209761428Y-65036904D01*
X209761428Y-64503571D02*
X209456666Y-64808333D01*
X210028095Y-64236904D02*
X210561428Y-64236904D01*
X210218571Y-65036904D01*
X166187619Y-68053571D02*
X166187619Y-68586904D01*
X165997142Y-67748809D02*
X165806666Y-68320238D01*
X166301904Y-68320238D01*
X166606666Y-68586904D02*
X166606666Y-67786904D01*
X166682857Y-68282142D02*
X166911428Y-68586904D01*
X166911428Y-68053571D02*
X166606666Y-68358333D01*
X167178095Y-67786904D02*
X167711428Y-67786904D01*
X167368571Y-68586904D01*
X166187619Y-64378571D02*
X166187619Y-64911904D01*
X165997142Y-64073809D02*
X165806666Y-64645238D01*
X166301904Y-64645238D01*
X166606666Y-64911904D02*
X166606666Y-64111904D01*
X166682857Y-64607142D02*
X166911428Y-64911904D01*
X166911428Y-64378571D02*
X166606666Y-64683333D01*
X167178095Y-64111904D02*
X167711428Y-64111904D01*
X167368571Y-64911904D01*
X156312619Y-68053571D02*
X156312619Y-68586904D01*
X156122142Y-67748809D02*
X155931666Y-68320238D01*
X156426904Y-68320238D01*
X156731666Y-68586904D02*
X156731666Y-67786904D01*
X156807857Y-68282142D02*
X157036428Y-68586904D01*
X157036428Y-68053571D02*
X156731666Y-68358333D01*
X157303095Y-67786904D02*
X157836428Y-67786904D01*
X157493571Y-68586904D01*
X156312619Y-64378571D02*
X156312619Y-64911904D01*
X156122142Y-64073809D02*
X155931666Y-64645238D01*
X156426904Y-64645238D01*
X156731666Y-64911904D02*
X156731666Y-64111904D01*
X156807857Y-64607142D02*
X157036428Y-64911904D01*
X157036428Y-64378571D02*
X156731666Y-64683333D01*
X157303095Y-64111904D02*
X157836428Y-64111904D01*
X157493571Y-64911904D01*
X202843571Y-66577380D02*
X203376904Y-66577380D01*
X202538809Y-66767857D02*
X203110238Y-66958333D01*
X203110238Y-66463095D01*
X203376904Y-66158333D02*
X202576904Y-66158333D01*
X203072142Y-66082142D02*
X203376904Y-65853571D01*
X202843571Y-65853571D02*
X203148333Y-66158333D01*
X202576904Y-65586904D02*
X202576904Y-65053571D01*
X203376904Y-65396428D01*
X194693571Y-66577380D02*
X195226904Y-66577380D01*
X194388809Y-66767857D02*
X194960238Y-66958333D01*
X194960238Y-66463095D01*
X195226904Y-66158333D02*
X194426904Y-66158333D01*
X194922142Y-66082142D02*
X195226904Y-65853571D01*
X194693571Y-65853571D02*
X194998333Y-66158333D01*
X194426904Y-65586904D02*
X194426904Y-65053571D01*
X195226904Y-65396428D01*
X186693571Y-66577380D02*
X187226904Y-66577380D01*
X186388809Y-66767857D02*
X186960238Y-66958333D01*
X186960238Y-66463095D01*
X187226904Y-66158333D02*
X186426904Y-66158333D01*
X186922142Y-66082142D02*
X187226904Y-65853571D01*
X186693571Y-65853571D02*
X186998333Y-66158333D01*
X186426904Y-65586904D02*
X186426904Y-65053571D01*
X187226904Y-65396428D01*
X178568571Y-66577380D02*
X179101904Y-66577380D01*
X178263809Y-66767857D02*
X178835238Y-66958333D01*
X178835238Y-66463095D01*
X179101904Y-66158333D02*
X178301904Y-66158333D01*
X178797142Y-66082142D02*
X179101904Y-65853571D01*
X178568571Y-65853571D02*
X178873333Y-66158333D01*
X178301904Y-65586904D02*
X178301904Y-65053571D01*
X179101904Y-65396428D01*
X150043571Y-66577380D02*
X150576904Y-66577380D01*
X149738809Y-66767857D02*
X150310238Y-66958333D01*
X150310238Y-66463095D01*
X150576904Y-66158333D02*
X149776904Y-66158333D01*
X150272142Y-66082142D02*
X150576904Y-65853571D01*
X150043571Y-65853571D02*
X150348333Y-66158333D01*
X149776904Y-65586904D02*
X149776904Y-65053571D01*
X150576904Y-65396428D01*
X141993571Y-66577380D02*
X142526904Y-66577380D01*
X141688809Y-66767857D02*
X142260238Y-66958333D01*
X142260238Y-66463095D01*
X142526904Y-66158333D02*
X141726904Y-66158333D01*
X142222142Y-66082142D02*
X142526904Y-65853571D01*
X141993571Y-65853571D02*
X142298333Y-66158333D01*
X141726904Y-65586904D02*
X141726904Y-65053571D01*
X142526904Y-65396428D01*
X199043571Y-105936904D02*
X198586428Y-105936904D01*
X198815000Y-105936904D02*
X198815000Y-105136904D01*
X198738809Y-105251190D01*
X198662619Y-105327380D01*
X198586428Y-105365476D01*
X199386428Y-105936904D02*
X199386428Y-105136904D01*
X199843571Y-105936904D02*
X199500714Y-105479761D01*
X199843571Y-105136904D02*
X199386428Y-105594047D01*
X198281666Y-102611904D02*
X197824523Y-102611904D01*
X198053095Y-102611904D02*
X198053095Y-101811904D01*
X197976904Y-101926190D01*
X197900714Y-102002380D01*
X197824523Y-102040476D01*
X198776904Y-101811904D02*
X198853095Y-101811904D01*
X198929285Y-101850000D01*
X198967380Y-101888095D01*
X199005476Y-101964285D01*
X199043571Y-102116666D01*
X199043571Y-102307142D01*
X199005476Y-102459523D01*
X198967380Y-102535714D01*
X198929285Y-102573809D01*
X198853095Y-102611904D01*
X198776904Y-102611904D01*
X198700714Y-102573809D01*
X198662619Y-102535714D01*
X198624523Y-102459523D01*
X198586428Y-102307142D01*
X198586428Y-102116666D01*
X198624523Y-101964285D01*
X198662619Y-101888095D01*
X198700714Y-101850000D01*
X198776904Y-101811904D01*
X199538809Y-101811904D02*
X199615000Y-101811904D01*
X199691190Y-101850000D01*
X199729285Y-101888095D01*
X199767380Y-101964285D01*
X199805476Y-102116666D01*
X199805476Y-102307142D01*
X199767380Y-102459523D01*
X199729285Y-102535714D01*
X199691190Y-102573809D01*
X199615000Y-102611904D01*
X199538809Y-102611904D01*
X199462619Y-102573809D01*
X199424523Y-102535714D01*
X199386428Y-102459523D01*
X199348333Y-102307142D01*
X199348333Y-102116666D01*
X199386428Y-101964285D01*
X199424523Y-101888095D01*
X199462619Y-101850000D01*
X199538809Y-101811904D01*
X200148333Y-102611904D02*
X200148333Y-101811904D01*
X200605476Y-102611904D02*
X200262619Y-102154761D01*
X200605476Y-101811904D02*
X200148333Y-102269047D01*
X202317380Y-95364285D02*
X202317380Y-95840476D01*
X202793571Y-95888095D01*
X202745952Y-95840476D01*
X202698333Y-95745238D01*
X202698333Y-95507142D01*
X202745952Y-95411904D01*
X202793571Y-95364285D01*
X202888809Y-95316666D01*
X203126904Y-95316666D01*
X203222142Y-95364285D01*
X203269761Y-95411904D01*
X203317380Y-95507142D01*
X203317380Y-95745238D01*
X203269761Y-95840476D01*
X203222142Y-95888095D01*
X202317380Y-94411904D02*
X202317380Y-94888095D01*
X202793571Y-94935714D01*
X202745952Y-94888095D01*
X202698333Y-94792857D01*
X202698333Y-94554761D01*
X202745952Y-94459523D01*
X202793571Y-94411904D01*
X202888809Y-94364285D01*
X203126904Y-94364285D01*
X203222142Y-94411904D01*
X203269761Y-94459523D01*
X203317380Y-94554761D01*
X203317380Y-94792857D01*
X203269761Y-94888095D01*
X203222142Y-94935714D01*
X202317380Y-93459523D02*
X202317380Y-93935714D01*
X202793571Y-93983333D01*
X202745952Y-93935714D01*
X202698333Y-93840476D01*
X202698333Y-93602380D01*
X202745952Y-93507142D01*
X202793571Y-93459523D01*
X202888809Y-93411904D01*
X203126904Y-93411904D01*
X203222142Y-93459523D01*
X203269761Y-93507142D01*
X203317380Y-93602380D01*
X203317380Y-93840476D01*
X203269761Y-93935714D01*
X203222142Y-93983333D01*
X218820952Y-108127380D02*
X219011428Y-108127380D01*
X219106666Y-108175000D01*
X219201904Y-108270238D01*
X219249523Y-108460714D01*
X219249523Y-108794047D01*
X219201904Y-108984523D01*
X219106666Y-109079761D01*
X219011428Y-109127380D01*
X218820952Y-109127380D01*
X218725714Y-109079761D01*
X218630476Y-108984523D01*
X218582857Y-108794047D01*
X218582857Y-108460714D01*
X218630476Y-108270238D01*
X218725714Y-108175000D01*
X218820952Y-108127380D01*
X219678095Y-109127380D02*
X219678095Y-108127380D01*
X220249523Y-109127380D01*
X220249523Y-108127380D01*
X218487619Y-118502380D02*
X218678095Y-118502380D01*
X218773333Y-118550000D01*
X218868571Y-118645238D01*
X218916190Y-118835714D01*
X218916190Y-119169047D01*
X218868571Y-119359523D01*
X218773333Y-119454761D01*
X218678095Y-119502380D01*
X218487619Y-119502380D01*
X218392380Y-119454761D01*
X218297142Y-119359523D01*
X218249523Y-119169047D01*
X218249523Y-118835714D01*
X218297142Y-118645238D01*
X218392380Y-118550000D01*
X218487619Y-118502380D01*
X219678095Y-118978571D02*
X219344761Y-118978571D01*
X219344761Y-119502380D02*
X219344761Y-118502380D01*
X219820952Y-118502380D01*
X220535238Y-118978571D02*
X220201904Y-118978571D01*
X220201904Y-119502380D02*
X220201904Y-118502380D01*
X220678095Y-118502380D01*
X163243571Y-116266666D02*
X163719761Y-116266666D01*
X163148333Y-116552380D02*
X163481666Y-115552380D01*
X163815000Y-116552380D01*
X164481666Y-116028571D02*
X164624523Y-116076190D01*
X164672142Y-116123809D01*
X164719761Y-116219047D01*
X164719761Y-116361904D01*
X164672142Y-116457142D01*
X164624523Y-116504761D01*
X164529285Y-116552380D01*
X164148333Y-116552380D01*
X164148333Y-115552380D01*
X164481666Y-115552380D01*
X164576904Y-115600000D01*
X164624523Y-115647619D01*
X164672142Y-115742857D01*
X164672142Y-115838095D01*
X164624523Y-115933333D01*
X164576904Y-115980952D01*
X164481666Y-116028571D01*
X164148333Y-116028571D01*
X165576904Y-115885714D02*
X165576904Y-116552380D01*
X165148333Y-115885714D02*
X165148333Y-116409523D01*
X165195952Y-116504761D01*
X165291190Y-116552380D01*
X165434047Y-116552380D01*
X165529285Y-116504761D01*
X165576904Y-116457142D01*
X166005476Y-116504761D02*
X166100714Y-116552380D01*
X166291190Y-116552380D01*
X166386428Y-116504761D01*
X166434047Y-116409523D01*
X166434047Y-116361904D01*
X166386428Y-116266666D01*
X166291190Y-116219047D01*
X166148333Y-116219047D01*
X166053095Y-116171428D01*
X166005476Y-116076190D01*
X166005476Y-116028571D01*
X166053095Y-115933333D01*
X166148333Y-115885714D01*
X166291190Y-115885714D01*
X166386428Y-115933333D01*
X167910238Y-116885714D02*
X167672142Y-116885714D01*
X167672142Y-115457142D01*
X167910238Y-115457142D01*
X168481666Y-115552380D02*
X168576904Y-115552380D01*
X168672142Y-115600000D01*
X168719761Y-115647619D01*
X168767380Y-115742857D01*
X168815000Y-115933333D01*
X168815000Y-116171428D01*
X168767380Y-116361904D01*
X168719761Y-116457142D01*
X168672142Y-116504761D01*
X168576904Y-116552380D01*
X168481666Y-116552380D01*
X168386428Y-116504761D01*
X168338809Y-116457142D01*
X168291190Y-116361904D01*
X168243571Y-116171428D01*
X168243571Y-115933333D01*
X168291190Y-115742857D01*
X168338809Y-115647619D01*
X168386428Y-115600000D01*
X168481666Y-115552380D01*
X169243571Y-116457142D02*
X169291190Y-116504761D01*
X169243571Y-116552380D01*
X169195952Y-116504761D01*
X169243571Y-116457142D01*
X169243571Y-116552380D01*
X169719761Y-116457142D02*
X169767380Y-116504761D01*
X169719761Y-116552380D01*
X169672142Y-116504761D01*
X169719761Y-116457142D01*
X169719761Y-116552380D01*
X170100714Y-115552380D02*
X170767380Y-115552380D01*
X170338809Y-116552380D01*
X171053095Y-116885714D02*
X171291190Y-116885714D01*
X171291190Y-115457142D01*
X171053095Y-115457142D01*
X149892380Y-116166666D02*
X150368571Y-116166666D01*
X149797142Y-116452380D02*
X150130476Y-115452380D01*
X150463809Y-116452380D01*
X151130476Y-115928571D02*
X151273333Y-115976190D01*
X151320952Y-116023809D01*
X151368571Y-116119047D01*
X151368571Y-116261904D01*
X151320952Y-116357142D01*
X151273333Y-116404761D01*
X151178095Y-116452380D01*
X150797142Y-116452380D01*
X150797142Y-115452380D01*
X151130476Y-115452380D01*
X151225714Y-115500000D01*
X151273333Y-115547619D01*
X151320952Y-115642857D01*
X151320952Y-115738095D01*
X151273333Y-115833333D01*
X151225714Y-115880952D01*
X151130476Y-115928571D01*
X150797142Y-115928571D01*
X152225714Y-115785714D02*
X152225714Y-116452380D01*
X151797142Y-115785714D02*
X151797142Y-116309523D01*
X151844761Y-116404761D01*
X151940000Y-116452380D01*
X152082857Y-116452380D01*
X152178095Y-116404761D01*
X152225714Y-116357142D01*
X152654285Y-116404761D02*
X152749523Y-116452380D01*
X152940000Y-116452380D01*
X153035238Y-116404761D01*
X153082857Y-116309523D01*
X153082857Y-116261904D01*
X153035238Y-116166666D01*
X152940000Y-116119047D01*
X152797142Y-116119047D01*
X152701904Y-116071428D01*
X152654285Y-115976190D01*
X152654285Y-115928571D01*
X152701904Y-115833333D01*
X152797142Y-115785714D01*
X152940000Y-115785714D01*
X153035238Y-115833333D01*
X154559047Y-116785714D02*
X154320952Y-116785714D01*
X154320952Y-115357142D01*
X154559047Y-115357142D01*
X155082857Y-115880952D02*
X154987619Y-115833333D01*
X154940000Y-115785714D01*
X154892380Y-115690476D01*
X154892380Y-115642857D01*
X154940000Y-115547619D01*
X154987619Y-115500000D01*
X155082857Y-115452380D01*
X155273333Y-115452380D01*
X155368571Y-115500000D01*
X155416190Y-115547619D01*
X155463809Y-115642857D01*
X155463809Y-115690476D01*
X155416190Y-115785714D01*
X155368571Y-115833333D01*
X155273333Y-115880952D01*
X155082857Y-115880952D01*
X154987619Y-115928571D01*
X154940000Y-115976190D01*
X154892380Y-116071428D01*
X154892380Y-116261904D01*
X154940000Y-116357142D01*
X154987619Y-116404761D01*
X155082857Y-116452380D01*
X155273333Y-116452380D01*
X155368571Y-116404761D01*
X155416190Y-116357142D01*
X155463809Y-116261904D01*
X155463809Y-116071428D01*
X155416190Y-115976190D01*
X155368571Y-115928571D01*
X155273333Y-115880952D01*
X155892380Y-116357142D02*
X155940000Y-116404761D01*
X155892380Y-116452380D01*
X155844761Y-116404761D01*
X155892380Y-116357142D01*
X155892380Y-116452380D01*
X156368571Y-116357142D02*
X156416190Y-116404761D01*
X156368571Y-116452380D01*
X156320952Y-116404761D01*
X156368571Y-116357142D01*
X156368571Y-116452380D01*
X157368571Y-116452380D02*
X156797142Y-116452380D01*
X157082857Y-116452380D02*
X157082857Y-115452380D01*
X156987619Y-115595238D01*
X156892380Y-115690476D01*
X156797142Y-115738095D01*
X158273333Y-115452380D02*
X157797142Y-115452380D01*
X157749523Y-115928571D01*
X157797142Y-115880952D01*
X157892380Y-115833333D01*
X158130476Y-115833333D01*
X158225714Y-115880952D01*
X158273333Y-115928571D01*
X158320952Y-116023809D01*
X158320952Y-116261904D01*
X158273333Y-116357142D01*
X158225714Y-116404761D01*
X158130476Y-116452380D01*
X157892380Y-116452380D01*
X157797142Y-116404761D01*
X157749523Y-116357142D01*
X158654285Y-116785714D02*
X158892380Y-116785714D01*
X158892380Y-115357142D01*
X158654285Y-115357142D01*
X183270952Y-88552380D02*
X183270952Y-87552380D01*
X183509047Y-87552380D01*
X183651904Y-87600000D01*
X183747142Y-87695238D01*
X183794761Y-87790476D01*
X183842380Y-87980952D01*
X183842380Y-88123809D01*
X183794761Y-88314285D01*
X183747142Y-88409523D01*
X183651904Y-88504761D01*
X183509047Y-88552380D01*
X183270952Y-88552380D01*
X184604285Y-88028571D02*
X184747142Y-88076190D01*
X184794761Y-88123809D01*
X184842380Y-88219047D01*
X184842380Y-88361904D01*
X184794761Y-88457142D01*
X184747142Y-88504761D01*
X184651904Y-88552380D01*
X184270952Y-88552380D01*
X184270952Y-87552380D01*
X184604285Y-87552380D01*
X184699523Y-87600000D01*
X184747142Y-87647619D01*
X184794761Y-87742857D01*
X184794761Y-87838095D01*
X184747142Y-87933333D01*
X184699523Y-87980952D01*
X184604285Y-88028571D01*
X184270952Y-88028571D01*
X185699523Y-87885714D02*
X185699523Y-88552380D01*
X185270952Y-87885714D02*
X185270952Y-88409523D01*
X185318571Y-88504761D01*
X185413809Y-88552380D01*
X185556666Y-88552380D01*
X185651904Y-88504761D01*
X185699523Y-88457142D01*
X186128095Y-88504761D02*
X186223333Y-88552380D01*
X186413809Y-88552380D01*
X186509047Y-88504761D01*
X186556666Y-88409523D01*
X186556666Y-88361904D01*
X186509047Y-88266666D01*
X186413809Y-88219047D01*
X186270952Y-88219047D01*
X186175714Y-88171428D01*
X186128095Y-88076190D01*
X186128095Y-88028571D01*
X186175714Y-87933333D01*
X186270952Y-87885714D01*
X186413809Y-87885714D01*
X186509047Y-87933333D01*
X184315000Y-103003571D02*
X184267380Y-103098809D01*
X184267380Y-103241666D01*
X184315000Y-103384523D01*
X184410238Y-103479761D01*
X184505476Y-103527380D01*
X184695952Y-103575000D01*
X184838809Y-103575000D01*
X185029285Y-103527380D01*
X185124523Y-103479761D01*
X185219761Y-103384523D01*
X185267380Y-103241666D01*
X185267380Y-103146428D01*
X185219761Y-103003571D01*
X185172142Y-102955952D01*
X184838809Y-102955952D01*
X184838809Y-103146428D01*
X184981666Y-102575000D02*
X184981666Y-102098809D01*
X185267380Y-102670238D02*
X184267380Y-102336904D01*
X185267380Y-102003571D01*
X185267380Y-101194047D02*
X185267380Y-101670238D01*
X184267380Y-101670238D01*
X185267380Y-100336904D02*
X185267380Y-100908333D01*
X185267380Y-100622619D02*
X184267380Y-100622619D01*
X184410238Y-100717857D01*
X184505476Y-100813095D01*
X184553095Y-100908333D01*
X184267380Y-99479761D02*
X184267380Y-99670238D01*
X184315000Y-99765476D01*
X184362619Y-99813095D01*
X184505476Y-99908333D01*
X184695952Y-99955952D01*
X185076904Y-99955952D01*
X185172142Y-99908333D01*
X185219761Y-99860714D01*
X185267380Y-99765476D01*
X185267380Y-99575000D01*
X185219761Y-99479761D01*
X185172142Y-99432142D01*
X185076904Y-99384523D01*
X184838809Y-99384523D01*
X184743571Y-99432142D01*
X184695952Y-99479761D01*
X184648333Y-99575000D01*
X184648333Y-99765476D01*
X184695952Y-99860714D01*
X184743571Y-99908333D01*
X184838809Y-99955952D01*
X184267380Y-99098809D02*
X185267380Y-98765476D01*
X184267380Y-98432142D01*
X184695952Y-97955952D02*
X184648333Y-98051190D01*
X184600714Y-98098809D01*
X184505476Y-98146428D01*
X184457857Y-98146428D01*
X184362619Y-98098809D01*
X184315000Y-98051190D01*
X184267380Y-97955952D01*
X184267380Y-97765476D01*
X184315000Y-97670238D01*
X184362619Y-97622619D01*
X184457857Y-97575000D01*
X184505476Y-97575000D01*
X184600714Y-97622619D01*
X184648333Y-97670238D01*
X184695952Y-97765476D01*
X184695952Y-97955952D01*
X184743571Y-98051190D01*
X184791190Y-98098809D01*
X184886428Y-98146428D01*
X185076904Y-98146428D01*
X185172142Y-98098809D01*
X185219761Y-98051190D01*
X185267380Y-97955952D01*
X185267380Y-97765476D01*
X185219761Y-97670238D01*
X185172142Y-97622619D01*
X185076904Y-97575000D01*
X184886428Y-97575000D01*
X184791190Y-97622619D01*
X184743571Y-97670238D01*
X184695952Y-97765476D01*
X167465000Y-103003571D02*
X167417380Y-103098809D01*
X167417380Y-103241666D01*
X167465000Y-103384523D01*
X167560238Y-103479761D01*
X167655476Y-103527380D01*
X167845952Y-103575000D01*
X167988809Y-103575000D01*
X168179285Y-103527380D01*
X168274523Y-103479761D01*
X168369761Y-103384523D01*
X168417380Y-103241666D01*
X168417380Y-103146428D01*
X168369761Y-103003571D01*
X168322142Y-102955952D01*
X167988809Y-102955952D01*
X167988809Y-103146428D01*
X168131666Y-102575000D02*
X168131666Y-102098809D01*
X168417380Y-102670238D02*
X167417380Y-102336904D01*
X168417380Y-102003571D01*
X168417380Y-101194047D02*
X168417380Y-101670238D01*
X167417380Y-101670238D01*
X168417380Y-100336904D02*
X168417380Y-100908333D01*
X168417380Y-100622619D02*
X167417380Y-100622619D01*
X167560238Y-100717857D01*
X167655476Y-100813095D01*
X167703095Y-100908333D01*
X167417380Y-99479761D02*
X167417380Y-99670238D01*
X167465000Y-99765476D01*
X167512619Y-99813095D01*
X167655476Y-99908333D01*
X167845952Y-99955952D01*
X168226904Y-99955952D01*
X168322142Y-99908333D01*
X168369761Y-99860714D01*
X168417380Y-99765476D01*
X168417380Y-99575000D01*
X168369761Y-99479761D01*
X168322142Y-99432142D01*
X168226904Y-99384523D01*
X167988809Y-99384523D01*
X167893571Y-99432142D01*
X167845952Y-99479761D01*
X167798333Y-99575000D01*
X167798333Y-99765476D01*
X167845952Y-99860714D01*
X167893571Y-99908333D01*
X167988809Y-99955952D01*
X167417380Y-99098809D02*
X168417380Y-98765476D01*
X167417380Y-98432142D01*
X167845952Y-97955952D02*
X167798333Y-98051190D01*
X167750714Y-98098809D01*
X167655476Y-98146428D01*
X167607857Y-98146428D01*
X167512619Y-98098809D01*
X167465000Y-98051190D01*
X167417380Y-97955952D01*
X167417380Y-97765476D01*
X167465000Y-97670238D01*
X167512619Y-97622619D01*
X167607857Y-97575000D01*
X167655476Y-97575000D01*
X167750714Y-97622619D01*
X167798333Y-97670238D01*
X167845952Y-97765476D01*
X167845952Y-97955952D01*
X167893571Y-98051190D01*
X167941190Y-98098809D01*
X168036428Y-98146428D01*
X168226904Y-98146428D01*
X168322142Y-98098809D01*
X168369761Y-98051190D01*
X168417380Y-97955952D01*
X168417380Y-97765476D01*
X168369761Y-97670238D01*
X168322142Y-97622619D01*
X168226904Y-97575000D01*
X168036428Y-97575000D01*
X167941190Y-97622619D01*
X167893571Y-97670238D01*
X167845952Y-97765476D01*
X154015000Y-103003571D02*
X153967380Y-103098809D01*
X153967380Y-103241666D01*
X154015000Y-103384523D01*
X154110238Y-103479761D01*
X154205476Y-103527380D01*
X154395952Y-103575000D01*
X154538809Y-103575000D01*
X154729285Y-103527380D01*
X154824523Y-103479761D01*
X154919761Y-103384523D01*
X154967380Y-103241666D01*
X154967380Y-103146428D01*
X154919761Y-103003571D01*
X154872142Y-102955952D01*
X154538809Y-102955952D01*
X154538809Y-103146428D01*
X154681666Y-102575000D02*
X154681666Y-102098809D01*
X154967380Y-102670238D02*
X153967380Y-102336904D01*
X154967380Y-102003571D01*
X154967380Y-101194047D02*
X154967380Y-101670238D01*
X153967380Y-101670238D01*
X154967380Y-100336904D02*
X154967380Y-100908333D01*
X154967380Y-100622619D02*
X153967380Y-100622619D01*
X154110238Y-100717857D01*
X154205476Y-100813095D01*
X154253095Y-100908333D01*
X153967380Y-99479761D02*
X153967380Y-99670238D01*
X154015000Y-99765476D01*
X154062619Y-99813095D01*
X154205476Y-99908333D01*
X154395952Y-99955952D01*
X154776904Y-99955952D01*
X154872142Y-99908333D01*
X154919761Y-99860714D01*
X154967380Y-99765476D01*
X154967380Y-99575000D01*
X154919761Y-99479761D01*
X154872142Y-99432142D01*
X154776904Y-99384523D01*
X154538809Y-99384523D01*
X154443571Y-99432142D01*
X154395952Y-99479761D01*
X154348333Y-99575000D01*
X154348333Y-99765476D01*
X154395952Y-99860714D01*
X154443571Y-99908333D01*
X154538809Y-99955952D01*
X153967380Y-99098809D02*
X154967380Y-98765476D01*
X153967380Y-98432142D01*
X154395952Y-97955952D02*
X154348333Y-98051190D01*
X154300714Y-98098809D01*
X154205476Y-98146428D01*
X154157857Y-98146428D01*
X154062619Y-98098809D01*
X154015000Y-98051190D01*
X153967380Y-97955952D01*
X153967380Y-97765476D01*
X154015000Y-97670238D01*
X154062619Y-97622619D01*
X154157857Y-97575000D01*
X154205476Y-97575000D01*
X154300714Y-97622619D01*
X154348333Y-97670238D01*
X154395952Y-97765476D01*
X154395952Y-97955952D01*
X154443571Y-98051190D01*
X154491190Y-98098809D01*
X154586428Y-98146428D01*
X154776904Y-98146428D01*
X154872142Y-98098809D01*
X154919761Y-98051190D01*
X154967380Y-97955952D01*
X154967380Y-97765476D01*
X154919761Y-97670238D01*
X154872142Y-97622619D01*
X154776904Y-97575000D01*
X154586428Y-97575000D01*
X154491190Y-97622619D01*
X154443571Y-97670238D01*
X154395952Y-97765476D01*
D11*
X206290000Y-60928571D02*
X206290000Y-59428571D01*
X206647142Y-59428571D01*
X206861428Y-59500000D01*
X207004285Y-59642857D01*
X207075714Y-59785714D01*
X207147142Y-60071428D01*
X207147142Y-60285714D01*
X207075714Y-60571428D01*
X207004285Y-60714285D01*
X206861428Y-60857142D01*
X206647142Y-60928571D01*
X206290000Y-60928571D01*
X207718571Y-60500000D02*
X208432857Y-60500000D01*
X207575714Y-60928571D02*
X208075714Y-59428571D01*
X208575714Y-60928571D01*
X208861428Y-59428571D02*
X209718571Y-59428571D01*
X209290000Y-60928571D02*
X209290000Y-59428571D01*
X210147142Y-60500000D02*
X210861428Y-60500000D01*
X210004285Y-60928571D02*
X210504285Y-59428571D01*
X211004285Y-60928571D01*
X158261714Y-60342000D02*
X158976000Y-60342000D01*
X158118857Y-60770571D02*
X158618857Y-59270571D01*
X159118857Y-60770571D01*
X159618857Y-60770571D02*
X159618857Y-59270571D01*
X159976000Y-59270571D01*
X160190285Y-59342000D01*
X160333142Y-59484857D01*
X160404571Y-59627714D01*
X160476000Y-59913428D01*
X160476000Y-60127714D01*
X160404571Y-60413428D01*
X160333142Y-60556285D01*
X160190285Y-60699142D01*
X159976000Y-60770571D01*
X159618857Y-60770571D01*
X161118857Y-60770571D02*
X161118857Y-59270571D01*
X161476000Y-59270571D01*
X161690285Y-59342000D01*
X161833142Y-59484857D01*
X161904571Y-59627714D01*
X161976000Y-59913428D01*
X161976000Y-60127714D01*
X161904571Y-60413428D01*
X161833142Y-60556285D01*
X161690285Y-60699142D01*
X161476000Y-60770571D01*
X161118857Y-60770571D01*
X163476000Y-60770571D02*
X162976000Y-60056285D01*
X162618857Y-60770571D02*
X162618857Y-59270571D01*
X163190285Y-59270571D01*
X163333142Y-59342000D01*
X163404571Y-59413428D01*
X163476000Y-59556285D01*
X163476000Y-59770571D01*
X163404571Y-59913428D01*
X163333142Y-59984857D01*
X163190285Y-60056285D01*
X162618857Y-60056285D01*
X164118857Y-59984857D02*
X164618857Y-59984857D01*
X164833142Y-60770571D02*
X164118857Y-60770571D01*
X164118857Y-59270571D01*
X164833142Y-59270571D01*
X165404571Y-60699142D02*
X165618857Y-60770571D01*
X165976000Y-60770571D01*
X166118857Y-60699142D01*
X166190285Y-60627714D01*
X166261714Y-60484857D01*
X166261714Y-60342000D01*
X166190285Y-60199142D01*
X166118857Y-60127714D01*
X165976000Y-60056285D01*
X165690285Y-59984857D01*
X165547428Y-59913428D01*
X165476000Y-59842000D01*
X165404571Y-59699142D01*
X165404571Y-59556285D01*
X165476000Y-59413428D01*
X165547428Y-59342000D01*
X165690285Y-59270571D01*
X166047428Y-59270571D01*
X166261714Y-59342000D01*
X166833142Y-60699142D02*
X167047428Y-60770571D01*
X167404571Y-60770571D01*
X167547428Y-60699142D01*
X167618857Y-60627714D01*
X167690285Y-60484857D01*
X167690285Y-60342000D01*
X167618857Y-60199142D01*
X167547428Y-60127714D01*
X167404571Y-60056285D01*
X167118857Y-59984857D01*
X166976000Y-59913428D01*
X166904571Y-59842000D01*
X166833142Y-59699142D01*
X166833142Y-59556285D01*
X166904571Y-59413428D01*
X166976000Y-59342000D01*
X167118857Y-59270571D01*
X167476000Y-59270571D01*
X167690285Y-59342000D01*
D12*
X168895000Y-85995000D02*
X168895000Y-85680000D01*
X168895000Y-88420000D02*
X168895000Y-88105000D01*
X174135000Y-85995000D02*
X174135000Y-85680000D01*
X174135000Y-88420000D02*
X174135000Y-88105000D01*
X174135000Y-85680000D02*
X168895000Y-85680000D01*
X174135000Y-88420000D02*
X168895000Y-88420000D01*
X158122000Y-85680000D02*
X163362000Y-85680000D01*
X158122000Y-88420000D02*
X163362000Y-88420000D01*
X158122000Y-85680000D02*
X158122000Y-85995000D01*
X158122000Y-88105000D02*
X158122000Y-88420000D01*
X163362000Y-85680000D02*
X163362000Y-85995000D01*
X163362000Y-88105000D02*
X163362000Y-88420000D01*
X178620000Y-108405000D02*
X178935000Y-108405000D01*
X176195000Y-108405000D02*
X176510000Y-108405000D01*
X178620000Y-113645000D02*
X178935000Y-113645000D01*
X176195000Y-113645000D02*
X176510000Y-113645000D01*
X178935000Y-113645000D02*
X178935000Y-108405000D01*
X176195000Y-113645000D02*
X176195000Y-108405000D01*
X218965214Y-52662000D02*
G75*
G03*
X218965214Y-52662000I-447214J0D01*
G01*
X211518000Y-42662000D02*
X218518000Y-42662000D01*
X217518000Y-47662000D02*
X210518000Y-47662000D01*
X218518000Y-42662000D02*
X217518000Y-47662000D01*
X216518000Y-52662000D02*
X217518000Y-47662000D01*
X209518000Y-52662000D02*
X216518000Y-52662000D01*
X210518000Y-47662000D02*
X209518000Y-52662000D01*
X211518000Y-42662000D02*
X210518000Y-47662000D01*
X220818000Y-38027000D02*
X208218000Y-38027000D01*
X209218000Y-57297000D02*
X220818000Y-57297000D01*
X220928000Y-53377000D02*
X220928000Y-41947000D01*
X208108000Y-53377000D02*
X208108000Y-41947000D01*
X193920000Y-98870000D02*
X193920000Y-93630000D01*
X196660000Y-98870000D02*
X196660000Y-93630000D01*
X193920000Y-98870000D02*
X194235000Y-98870000D01*
X196345000Y-98870000D02*
X196660000Y-98870000D01*
X193920000Y-93630000D02*
X194235000Y-93630000D01*
X196345000Y-93630000D02*
X196660000Y-93630000D01*
X176856000Y-66150000D02*
X176856000Y-62550000D01*
X176844478Y-62511522D02*
G75*
G03*
X172406000Y-64350000I-1838478J-1838478D01*
G01*
X176844478Y-66188478D02*
G75*
G02*
X172406000Y-64350000I-1838478J1838478D01*
G01*
X185016000Y-66150000D02*
X185016000Y-62550000D01*
X185004478Y-66188478D02*
G75*
G02*
X180566000Y-64350000I-1838478J1838478D01*
G01*
X185004478Y-62511522D02*
G75*
G03*
X180566000Y-64350000I-1838478J-1838478D01*
G01*
X202370000Y-106895000D02*
X202370000Y-106565000D01*
X195830000Y-106895000D02*
X202370000Y-106895000D01*
X195830000Y-106565000D02*
X195830000Y-106895000D01*
X202370000Y-104155000D02*
X202370000Y-104485000D01*
X195830000Y-104155000D02*
X202370000Y-104155000D01*
X195830000Y-104485000D02*
X195830000Y-104155000D01*
X195830000Y-101110000D02*
X195830000Y-100780000D01*
X195830000Y-100780000D02*
X202370000Y-100780000D01*
X202370000Y-100780000D02*
X202370000Y-101110000D01*
X195830000Y-103190000D02*
X195830000Y-103520000D01*
X195830000Y-103520000D02*
X202370000Y-103520000D01*
X202370000Y-103520000D02*
X202370000Y-103190000D01*
X187846000Y-62830000D02*
X188176000Y-62830000D01*
X188176000Y-62830000D02*
X188176000Y-69370000D01*
X188176000Y-69370000D02*
X187846000Y-69370000D01*
X185766000Y-62830000D02*
X185436000Y-62830000D01*
X185436000Y-62830000D02*
X185436000Y-69370000D01*
X185436000Y-69370000D02*
X185766000Y-69370000D01*
X153702000Y-63150000D02*
X153702000Y-63480000D01*
X160242000Y-63150000D02*
X153702000Y-63150000D01*
X160242000Y-63480000D02*
X160242000Y-63150000D01*
X153702000Y-65890000D02*
X153702000Y-65560000D01*
X160242000Y-65890000D02*
X153702000Y-65890000D01*
X160242000Y-65560000D02*
X160242000Y-65890000D01*
X185912000Y-114868000D02*
X187562000Y-114868000D01*
X187562000Y-114868000D02*
X187562000Y-89348000D01*
X187562000Y-89348000D02*
X182262000Y-89348000D01*
X182262000Y-89348000D02*
X182262000Y-114868000D01*
X182262000Y-114868000D02*
X183912000Y-114868000D01*
X190052000Y-114928000D02*
X190052000Y-89288000D01*
X190052000Y-89288000D02*
X179772000Y-89288000D01*
X179772000Y-89288000D02*
X179772000Y-114928000D01*
X179772000Y-114928000D02*
X190052000Y-114928000D01*
X183912000Y-114868000D02*
G75*
G02*
X185912000Y-114868000I1000000J0D01*
G01*
X201850000Y-89348000D02*
X200200000Y-89348000D01*
X200200000Y-89348000D02*
X200200000Y-99628000D01*
X200200000Y-99628000D02*
X205500000Y-99628000D01*
X205500000Y-99628000D02*
X205500000Y-89348000D01*
X205500000Y-89348000D02*
X203850000Y-89348000D01*
X197710000Y-89288000D02*
X197710000Y-99688000D01*
X197710000Y-99688000D02*
X207990000Y-99688000D01*
X207990000Y-99688000D02*
X207990000Y-89288000D01*
X207990000Y-89288000D02*
X197710000Y-89288000D01*
X203850000Y-89348000D02*
G75*
G02*
X201850000Y-89348000I-1000000J0D01*
G01*
X140274000Y-66150000D02*
X140274000Y-62550000D01*
X140262478Y-62511522D02*
G75*
G03*
X135824000Y-64350000I-1838478J-1838478D01*
G01*
X140262478Y-66188478D02*
G75*
G02*
X135824000Y-64350000I-1838478J1838478D01*
G01*
X148379333Y-66150000D02*
X148379333Y-62550000D01*
X148367811Y-66188478D02*
G75*
G02*
X143929333Y-64350000I-1838478J1838478D01*
G01*
X148367811Y-62511522D02*
G75*
G03*
X143929333Y-64350000I-1838478J-1838478D01*
G01*
X193060666Y-66150000D02*
X193060666Y-62550000D01*
X193049144Y-66188478D02*
G75*
G02*
X188610666Y-64350000I-1838478J1838478D01*
G01*
X193049144Y-62511522D02*
G75*
G03*
X188610666Y-64350000I-1838478J-1838478D01*
G01*
X201166000Y-66150000D02*
X201166000Y-62550000D01*
X201154478Y-62511522D02*
G75*
G03*
X196716000Y-64350000I-1838478J-1838478D01*
G01*
X201154478Y-66188478D02*
G75*
G02*
X196716000Y-64350000I-1838478J1838478D01*
G01*
X153702000Y-66790000D02*
X153702000Y-67120000D01*
X160242000Y-66790000D02*
X153702000Y-66790000D01*
X160242000Y-67120000D02*
X160242000Y-66790000D01*
X153702000Y-69530000D02*
X153702000Y-69200000D01*
X160242000Y-69530000D02*
X153702000Y-69530000D01*
X160242000Y-69200000D02*
X160242000Y-69530000D01*
X140694000Y-69370000D02*
X141024000Y-69370000D01*
X140694000Y-62830000D02*
X140694000Y-69370000D01*
X141024000Y-62830000D02*
X140694000Y-62830000D01*
X143434000Y-69370000D02*
X143104000Y-69370000D01*
X143434000Y-62830000D02*
X143434000Y-69370000D01*
X143104000Y-62830000D02*
X143434000Y-62830000D01*
X151209333Y-62830000D02*
X151539333Y-62830000D01*
X151539333Y-62830000D02*
X151539333Y-69370000D01*
X151539333Y-69370000D02*
X151209333Y-69370000D01*
X149129333Y-62830000D02*
X148799333Y-62830000D01*
X148799333Y-62830000D02*
X148799333Y-69370000D01*
X148799333Y-69370000D02*
X149129333Y-69370000D01*
X206280000Y-63480000D02*
X206280000Y-63150000D01*
X206280000Y-63150000D02*
X212820000Y-63150000D01*
X212820000Y-63150000D02*
X212820000Y-63480000D01*
X206280000Y-65560000D02*
X206280000Y-65890000D01*
X206280000Y-65890000D02*
X212820000Y-65890000D01*
X212820000Y-65890000D02*
X212820000Y-65560000D01*
X205800000Y-77740000D02*
X205800000Y-76090000D01*
X205800000Y-76090000D02*
X185360000Y-76090000D01*
X185360000Y-76090000D02*
X185360000Y-81390000D01*
X185360000Y-81390000D02*
X205800000Y-81390000D01*
X205800000Y-81390000D02*
X205800000Y-79740000D01*
X205860000Y-73600000D02*
X185300000Y-73600000D01*
X185300000Y-73600000D02*
X185300000Y-83880000D01*
X185300000Y-83880000D02*
X205860000Y-83880000D01*
X205860000Y-83880000D02*
X205860000Y-73600000D01*
X205800000Y-79740000D02*
G75*
G02*
X205800000Y-77740000I0J1000000D01*
G01*
X181557000Y-83880000D02*
X181557000Y-73600000D01*
X160997000Y-83880000D02*
X181557000Y-83880000D01*
X160997000Y-73600000D02*
X160997000Y-83880000D01*
X181557000Y-73600000D02*
X160997000Y-73600000D01*
X181497000Y-81390000D02*
X181497000Y-79740000D01*
X161057000Y-81390000D02*
X181497000Y-81390000D01*
X161057000Y-76090000D02*
X161057000Y-81390000D01*
X181497000Y-76090000D02*
X161057000Y-76090000D01*
X181497000Y-77740000D02*
X181497000Y-76090000D01*
X181497000Y-79740000D02*
G75*
G02*
X181497000Y-77740000I0J1000000D01*
G01*
X170148000Y-69530000D02*
X170148000Y-69200000D01*
X163608000Y-69530000D02*
X170148000Y-69530000D01*
X163608000Y-69200000D02*
X163608000Y-69530000D01*
X170148000Y-66790000D02*
X170148000Y-67120000D01*
X163608000Y-66790000D02*
X170148000Y-66790000D01*
X163608000Y-67120000D02*
X163608000Y-66790000D01*
X170148000Y-65890000D02*
X170148000Y-65560000D01*
X163608000Y-65890000D02*
X170148000Y-65890000D01*
X163608000Y-65560000D02*
X163608000Y-65890000D01*
X170148000Y-63150000D02*
X170148000Y-63480000D01*
X163608000Y-63150000D02*
X170148000Y-63150000D01*
X163608000Y-63480000D02*
X163608000Y-63150000D01*
X177276000Y-69370000D02*
X177606000Y-69370000D01*
X177276000Y-62830000D02*
X177276000Y-69370000D01*
X177606000Y-62830000D02*
X177276000Y-62830000D01*
X180016000Y-69370000D02*
X179686000Y-69370000D01*
X180016000Y-62830000D02*
X180016000Y-69370000D01*
X179686000Y-62830000D02*
X180016000Y-62830000D01*
X206280000Y-67120000D02*
X206280000Y-66790000D01*
X206280000Y-66790000D02*
X212820000Y-66790000D01*
X212820000Y-66790000D02*
X212820000Y-67120000D01*
X206280000Y-69200000D02*
X206280000Y-69530000D01*
X206280000Y-69530000D02*
X212820000Y-69530000D01*
X212820000Y-69530000D02*
X212820000Y-69200000D01*
X195890666Y-62830000D02*
X196220666Y-62830000D01*
X196220666Y-62830000D02*
X196220666Y-69370000D01*
X196220666Y-69370000D02*
X195890666Y-69370000D01*
X193810666Y-62830000D02*
X193480666Y-62830000D01*
X193480666Y-62830000D02*
X193480666Y-69370000D01*
X193480666Y-69370000D02*
X193810666Y-69370000D01*
X203996000Y-62830000D02*
X204326000Y-62830000D01*
X204326000Y-62830000D02*
X204326000Y-69370000D01*
X204326000Y-69370000D02*
X203996000Y-69370000D01*
X201916000Y-62830000D02*
X201586000Y-62830000D01*
X201586000Y-62830000D02*
X201586000Y-69370000D01*
X201586000Y-69370000D02*
X201916000Y-69370000D01*
X157194000Y-77740000D02*
X157194000Y-76090000D01*
X157194000Y-76090000D02*
X136754000Y-76090000D01*
X136754000Y-76090000D02*
X136754000Y-81390000D01*
X136754000Y-81390000D02*
X157194000Y-81390000D01*
X157194000Y-81390000D02*
X157194000Y-79740000D01*
X157254000Y-73600000D02*
X136694000Y-73600000D01*
X136694000Y-73600000D02*
X136694000Y-83880000D01*
X136694000Y-83880000D02*
X157254000Y-83880000D01*
X157254000Y-83880000D02*
X157254000Y-73600000D01*
X157194000Y-79740000D02*
G75*
G02*
X157194000Y-77740000I0J1000000D01*
G01*
X166386000Y-89348000D02*
X164736000Y-89348000D01*
X164736000Y-89348000D02*
X164736000Y-114868000D01*
X164736000Y-114868000D02*
X170036000Y-114868000D01*
X170036000Y-114868000D02*
X170036000Y-89348000D01*
X170036000Y-89348000D02*
X168386000Y-89348000D01*
X162246000Y-89288000D02*
X162246000Y-114928000D01*
X162246000Y-114928000D02*
X172526000Y-114928000D01*
X172526000Y-114928000D02*
X172526000Y-89288000D01*
X172526000Y-89288000D02*
X162246000Y-89288000D01*
X168386000Y-89348000D02*
G75*
G02*
X166386000Y-89348000I-1000000J0D01*
G01*
X159572000Y-89288000D02*
X149292000Y-89288000D01*
X159572000Y-114928000D02*
X159572000Y-89288000D01*
X149292000Y-114928000D02*
X159572000Y-114928000D01*
X149292000Y-89288000D02*
X149292000Y-114928000D01*
X157082000Y-89348000D02*
X155432000Y-89348000D01*
X157082000Y-114868000D02*
X157082000Y-89348000D01*
X151782000Y-114868000D02*
X157082000Y-114868000D01*
X151782000Y-89348000D02*
X151782000Y-114868000D01*
X153432000Y-89348000D02*
X151782000Y-89348000D01*
X155432000Y-89348000D02*
G75*
G02*
X153432000Y-89348000I-1000000J0D01*
G01*
X135610000Y-53123000D02*
X135610000Y-41693000D01*
X148430000Y-53123000D02*
X148430000Y-41693000D01*
X136720000Y-57043000D02*
X148320000Y-57043000D01*
X148320000Y-37773000D02*
X135720000Y-37773000D01*
X139020000Y-42408000D02*
X138020000Y-47408000D01*
X138020000Y-47408000D02*
X137020000Y-52408000D01*
X137020000Y-52408000D02*
X144020000Y-52408000D01*
X144020000Y-52408000D02*
X145020000Y-47408000D01*
X146020000Y-42408000D02*
X145020000Y-47408000D01*
X145020000Y-47408000D02*
X138020000Y-47408000D01*
X139020000Y-42408000D02*
X146020000Y-42408000D01*
X146467214Y-52408000D02*
G75*
G03*
X146467214Y-52408000I-447214J0D01*
G01*
X159167214Y-52408000D02*
G75*
G03*
X159167214Y-52408000I-447214J0D01*
G01*
X151720000Y-42408000D02*
X158720000Y-42408000D01*
X157720000Y-47408000D02*
X150720000Y-47408000D01*
X158720000Y-42408000D02*
X157720000Y-47408000D01*
X156720000Y-52408000D02*
X157720000Y-47408000D01*
X149720000Y-52408000D02*
X156720000Y-52408000D01*
X150720000Y-47408000D02*
X149720000Y-52408000D01*
X151720000Y-42408000D02*
X150720000Y-47408000D01*
X161020000Y-37773000D02*
X148420000Y-37773000D01*
X149420000Y-57043000D02*
X161020000Y-57043000D01*
X161130000Y-53123000D02*
X161130000Y-41693000D01*
X148310000Y-53123000D02*
X148310000Y-41693000D01*
X161010000Y-53123000D02*
X161010000Y-41693000D01*
X173830000Y-53123000D02*
X173830000Y-41693000D01*
X162120000Y-57043000D02*
X173720000Y-57043000D01*
X173720000Y-37773000D02*
X161120000Y-37773000D01*
X164420000Y-42408000D02*
X163420000Y-47408000D01*
X163420000Y-47408000D02*
X162420000Y-52408000D01*
X162420000Y-52408000D02*
X169420000Y-52408000D01*
X169420000Y-52408000D02*
X170420000Y-47408000D01*
X171420000Y-42408000D02*
X170420000Y-47408000D01*
X170420000Y-47408000D02*
X163420000Y-47408000D01*
X164420000Y-42408000D02*
X171420000Y-42408000D01*
X171867214Y-52408000D02*
G75*
G03*
X171867214Y-52408000I-447214J0D01*
G01*
X184567214Y-52408000D02*
G75*
G03*
X184567214Y-52408000I-447214J0D01*
G01*
X177120000Y-42408000D02*
X184120000Y-42408000D01*
X183120000Y-47408000D02*
X176120000Y-47408000D01*
X184120000Y-42408000D02*
X183120000Y-47408000D01*
X182120000Y-52408000D02*
X183120000Y-47408000D01*
X175120000Y-52408000D02*
X182120000Y-52408000D01*
X176120000Y-47408000D02*
X175120000Y-52408000D01*
X177120000Y-42408000D02*
X176120000Y-47408000D01*
X186420000Y-37773000D02*
X173820000Y-37773000D01*
X174820000Y-57043000D02*
X186420000Y-57043000D01*
X186530000Y-53123000D02*
X186530000Y-41693000D01*
X173710000Y-53123000D02*
X173710000Y-41693000D01*
X195408000Y-53377000D02*
X195408000Y-41947000D01*
X208228000Y-53377000D02*
X208228000Y-41947000D01*
X196518000Y-57297000D02*
X208118000Y-57297000D01*
X208118000Y-38027000D02*
X195518000Y-38027000D01*
X198818000Y-42662000D02*
X197818000Y-47662000D01*
X197818000Y-47662000D02*
X196818000Y-52662000D01*
X196818000Y-52662000D02*
X203818000Y-52662000D01*
X203818000Y-52662000D02*
X204818000Y-47662000D01*
X205818000Y-42662000D02*
X204818000Y-47662000D01*
X204818000Y-47662000D02*
X197818000Y-47662000D01*
X198818000Y-42662000D02*
X205818000Y-42662000D01*
X206265214Y-52662000D02*
G75*
G03*
X206265214Y-52662000I-447214J0D01*
G01*
X205605000Y-106470000D02*
X205290000Y-106470000D01*
X208030000Y-106470000D02*
X207715000Y-106470000D01*
X205605000Y-101230000D02*
X205290000Y-101230000D01*
X208030000Y-101230000D02*
X207715000Y-101230000D01*
X205290000Y-101230000D02*
X205290000Y-106470000D01*
X208030000Y-101230000D02*
X208030000Y-106470000D01*
X197657030Y-118869357D02*
G75*
G02*
X193774000Y-117261000I-92030J5269357D01*
G01*
X192450609Y-114874881D02*
G75*
G02*
X192391000Y-112594000I5114391J1274881D01*
G01*
X193528379Y-110211525D02*
G75*
G02*
X202679000Y-112326000I4036621J-3388475D01*
G01*
X202604726Y-115140799D02*
G75*
G02*
X197565000Y-118870000I-5039726J1540799D01*
G01*
X215879726Y-115140799D02*
G75*
G02*
X210840000Y-118870000I-5039726J1540799D01*
G01*
X206803379Y-110211525D02*
G75*
G02*
X215954000Y-112326000I4036621J-3388475D01*
G01*
X205725609Y-114874881D02*
G75*
G02*
X205666000Y-112594000I5114391J1274881D01*
G01*
X210932030Y-118869357D02*
G75*
G02*
X207049000Y-117261000I-92030J5269357D01*
G01*
X218110000Y-117785000D02*
X220770000Y-117785000D01*
X218110000Y-112645000D02*
X218110000Y-117785000D01*
X220770000Y-112645000D02*
X220770000Y-117785000D01*
X218110000Y-112645000D02*
X220770000Y-112645000D01*
X218110000Y-111375000D02*
X218110000Y-110045000D01*
X218110000Y-110045000D02*
X219440000Y-110045000D01*
D10*
X171298333Y-85257142D02*
X171250714Y-85304761D01*
X171107857Y-85352380D01*
X171012619Y-85352380D01*
X170869761Y-85304761D01*
X170774523Y-85209523D01*
X170726904Y-85114285D01*
X170679285Y-84923809D01*
X170679285Y-84780952D01*
X170726904Y-84590476D01*
X170774523Y-84495238D01*
X170869761Y-84400000D01*
X171012619Y-84352380D01*
X171107857Y-84352380D01*
X171250714Y-84400000D01*
X171298333Y-84447619D01*
X171631666Y-84352380D02*
X172250714Y-84352380D01*
X171917380Y-84733333D01*
X172060238Y-84733333D01*
X172155476Y-84780952D01*
X172203095Y-84828571D01*
X172250714Y-84923809D01*
X172250714Y-85161904D01*
X172203095Y-85257142D01*
X172155476Y-85304761D01*
X172060238Y-85352380D01*
X171774523Y-85352380D01*
X171679285Y-85304761D01*
X171631666Y-85257142D01*
X160573333Y-85232142D02*
X160525714Y-85279761D01*
X160382857Y-85327380D01*
X160287619Y-85327380D01*
X160144761Y-85279761D01*
X160049523Y-85184523D01*
X160001904Y-85089285D01*
X159954285Y-84898809D01*
X159954285Y-84755952D01*
X160001904Y-84565476D01*
X160049523Y-84470238D01*
X160144761Y-84375000D01*
X160287619Y-84327380D01*
X160382857Y-84327380D01*
X160525714Y-84375000D01*
X160573333Y-84422619D01*
X161430476Y-84660714D02*
X161430476Y-85327380D01*
X161192380Y-84279761D02*
X160954285Y-84994047D01*
X161573333Y-84994047D01*
X177897142Y-106229666D02*
X177944761Y-106277285D01*
X177992380Y-106420142D01*
X177992380Y-106515380D01*
X177944761Y-106658238D01*
X177849523Y-106753476D01*
X177754285Y-106801095D01*
X177563809Y-106848714D01*
X177420952Y-106848714D01*
X177230476Y-106801095D01*
X177135238Y-106753476D01*
X177040000Y-106658238D01*
X176992380Y-106515380D01*
X176992380Y-106420142D01*
X177040000Y-106277285D01*
X177087619Y-106229666D01*
X177087619Y-105848714D02*
X177040000Y-105801095D01*
X176992380Y-105705857D01*
X176992380Y-105467761D01*
X177040000Y-105372523D01*
X177087619Y-105324904D01*
X177182857Y-105277285D01*
X177278095Y-105277285D01*
X177420952Y-105324904D01*
X177992380Y-105896333D01*
X177992380Y-105277285D01*
X208470380Y-48900095D02*
X209279904Y-48900095D01*
X209375142Y-48852476D01*
X209422761Y-48804857D01*
X209470380Y-48709619D01*
X209470380Y-48519142D01*
X209422761Y-48423904D01*
X209375142Y-48376285D01*
X209279904Y-48328666D01*
X208470380Y-48328666D01*
X209470380Y-47328666D02*
X209470380Y-47900095D01*
X209470380Y-47614380D02*
X208470380Y-47614380D01*
X208613238Y-47709619D01*
X208708476Y-47804857D01*
X208756095Y-47900095D01*
X208470380Y-46709619D02*
X208470380Y-46614380D01*
X208518000Y-46519142D01*
X208565619Y-46471523D01*
X208660857Y-46423904D01*
X208851333Y-46376285D01*
X209089428Y-46376285D01*
X209279904Y-46423904D01*
X209375142Y-46471523D01*
X209422761Y-46519142D01*
X209470380Y-46614380D01*
X209470380Y-46709619D01*
X209422761Y-46804857D01*
X209375142Y-46852476D01*
X209279904Y-46900095D01*
X209089428Y-46947714D01*
X208851333Y-46947714D01*
X208660857Y-46900095D01*
X208565619Y-46852476D01*
X208518000Y-46804857D01*
X208470380Y-46709619D01*
X195098333Y-91432142D02*
X195050714Y-91479761D01*
X194907857Y-91527380D01*
X194812619Y-91527380D01*
X194669761Y-91479761D01*
X194574523Y-91384523D01*
X194526904Y-91289285D01*
X194479285Y-91098809D01*
X194479285Y-90955952D01*
X194526904Y-90765476D01*
X194574523Y-90670238D01*
X194669761Y-90575000D01*
X194812619Y-90527380D01*
X194907857Y-90527380D01*
X195050714Y-90575000D01*
X195098333Y-90622619D01*
X196050714Y-91527380D02*
X195479285Y-91527380D01*
X195765000Y-91527380D02*
X195765000Y-90527380D01*
X195669761Y-90670238D01*
X195574523Y-90765476D01*
X195479285Y-90813095D01*
X174930761Y-68437619D02*
X174835523Y-68390000D01*
X174740285Y-68294761D01*
X174597428Y-68151904D01*
X174502190Y-68104285D01*
X174406952Y-68104285D01*
X174454571Y-68342380D02*
X174359333Y-68294761D01*
X174264095Y-68199523D01*
X174216476Y-68009047D01*
X174216476Y-67675714D01*
X174264095Y-67485238D01*
X174359333Y-67390000D01*
X174454571Y-67342380D01*
X174645047Y-67342380D01*
X174740285Y-67390000D01*
X174835523Y-67485238D01*
X174883142Y-67675714D01*
X174883142Y-68009047D01*
X174835523Y-68199523D01*
X174740285Y-68294761D01*
X174645047Y-68342380D01*
X174454571Y-68342380D01*
X175835523Y-68342380D02*
X175264095Y-68342380D01*
X175549809Y-68342380D02*
X175549809Y-67342380D01*
X175454571Y-67485238D01*
X175359333Y-67580476D01*
X175264095Y-67628095D01*
X183090761Y-68437619D02*
X182995523Y-68390000D01*
X182900285Y-68294761D01*
X182757428Y-68151904D01*
X182662190Y-68104285D01*
X182566952Y-68104285D01*
X182614571Y-68342380D02*
X182519333Y-68294761D01*
X182424095Y-68199523D01*
X182376476Y-68009047D01*
X182376476Y-67675714D01*
X182424095Y-67485238D01*
X182519333Y-67390000D01*
X182614571Y-67342380D01*
X182805047Y-67342380D01*
X182900285Y-67390000D01*
X182995523Y-67485238D01*
X183043142Y-67675714D01*
X183043142Y-68009047D01*
X182995523Y-68199523D01*
X182900285Y-68294761D01*
X182805047Y-68342380D01*
X182614571Y-68342380D01*
X183424095Y-67437619D02*
X183471714Y-67390000D01*
X183566952Y-67342380D01*
X183805047Y-67342380D01*
X183900285Y-67390000D01*
X183947904Y-67437619D01*
X183995523Y-67532857D01*
X183995523Y-67628095D01*
X183947904Y-67770952D01*
X183376476Y-68342380D01*
X183995523Y-68342380D01*
X192198333Y-106002380D02*
X191865000Y-105526190D01*
X191626904Y-106002380D02*
X191626904Y-105002380D01*
X192007857Y-105002380D01*
X192103095Y-105050000D01*
X192150714Y-105097619D01*
X192198333Y-105192857D01*
X192198333Y-105335714D01*
X192150714Y-105430952D01*
X192103095Y-105478571D01*
X192007857Y-105526190D01*
X191626904Y-105526190D01*
X193150714Y-106002380D02*
X192579285Y-106002380D01*
X192865000Y-106002380D02*
X192865000Y-105002380D01*
X192769761Y-105145238D01*
X192674523Y-105240476D01*
X192579285Y-105288095D01*
X192148333Y-102502380D02*
X191815000Y-102026190D01*
X191576904Y-102502380D02*
X191576904Y-101502380D01*
X191957857Y-101502380D01*
X192053095Y-101550000D01*
X192100714Y-101597619D01*
X192148333Y-101692857D01*
X192148333Y-101835714D01*
X192100714Y-101930952D01*
X192053095Y-101978571D01*
X191957857Y-102026190D01*
X191576904Y-102026190D01*
X192529285Y-101597619D02*
X192576904Y-101550000D01*
X192672142Y-101502380D01*
X192910238Y-101502380D01*
X193005476Y-101550000D01*
X193053095Y-101597619D01*
X193100714Y-101692857D01*
X193100714Y-101788095D01*
X193053095Y-101930952D01*
X192481666Y-102502380D01*
X193100714Y-102502380D01*
X186123142Y-72352380D02*
X185789809Y-71876190D01*
X185551714Y-72352380D02*
X185551714Y-71352380D01*
X185932666Y-71352380D01*
X186027904Y-71400000D01*
X186075523Y-71447619D01*
X186123142Y-71542857D01*
X186123142Y-71685714D01*
X186075523Y-71780952D01*
X186027904Y-71828571D01*
X185932666Y-71876190D01*
X185551714Y-71876190D01*
X187075523Y-72352380D02*
X186504095Y-72352380D01*
X186789809Y-72352380D02*
X186789809Y-71352380D01*
X186694571Y-71495238D01*
X186599333Y-71590476D01*
X186504095Y-71638095D01*
X187694571Y-71352380D02*
X187789809Y-71352380D01*
X187885047Y-71400000D01*
X187932666Y-71447619D01*
X187980285Y-71542857D01*
X188027904Y-71733333D01*
X188027904Y-71971428D01*
X187980285Y-72161904D01*
X187932666Y-72257142D01*
X187885047Y-72304761D01*
X187789809Y-72352380D01*
X187694571Y-72352380D01*
X187599333Y-72304761D01*
X187551714Y-72257142D01*
X187504095Y-72161904D01*
X187456476Y-71971428D01*
X187456476Y-71733333D01*
X187504095Y-71542857D01*
X187551714Y-71447619D01*
X187599333Y-71400000D01*
X187694571Y-71352380D01*
X156583142Y-70998380D02*
X156249809Y-70522190D01*
X156011714Y-70998380D02*
X156011714Y-69998380D01*
X156392666Y-69998380D01*
X156487904Y-70046000D01*
X156535523Y-70093619D01*
X156583142Y-70188857D01*
X156583142Y-70331714D01*
X156535523Y-70426952D01*
X156487904Y-70474571D01*
X156392666Y-70522190D01*
X156011714Y-70522190D01*
X157535523Y-70998380D02*
X156964095Y-70998380D01*
X157249809Y-70998380D02*
X157249809Y-69998380D01*
X157154571Y-70141238D01*
X157059333Y-70236476D01*
X156964095Y-70284095D01*
X158487904Y-70998380D02*
X157916476Y-70998380D01*
X158202190Y-70998380D02*
X158202190Y-69998380D01*
X158106952Y-70141238D01*
X158011714Y-70236476D01*
X157916476Y-70284095D01*
X184150095Y-115320380D02*
X184150095Y-116129904D01*
X184197714Y-116225142D01*
X184245333Y-116272761D01*
X184340571Y-116320380D01*
X184531047Y-116320380D01*
X184626285Y-116272761D01*
X184673904Y-116225142D01*
X184721523Y-116129904D01*
X184721523Y-115320380D01*
X185150095Y-115415619D02*
X185197714Y-115368000D01*
X185292952Y-115320380D01*
X185531047Y-115320380D01*
X185626285Y-115368000D01*
X185673904Y-115415619D01*
X185721523Y-115510857D01*
X185721523Y-115606095D01*
X185673904Y-115748952D01*
X185102476Y-116320380D01*
X185721523Y-116320380D01*
X202088095Y-87800380D02*
X202088095Y-88609904D01*
X202135714Y-88705142D01*
X202183333Y-88752761D01*
X202278571Y-88800380D01*
X202469047Y-88800380D01*
X202564285Y-88752761D01*
X202611904Y-88705142D01*
X202659523Y-88609904D01*
X202659523Y-87800380D01*
X203659523Y-88800380D02*
X203088095Y-88800380D01*
X203373809Y-88800380D02*
X203373809Y-87800380D01*
X203278571Y-87943238D01*
X203183333Y-88038476D01*
X203088095Y-88086095D01*
X138328761Y-68437619D02*
X138233523Y-68390000D01*
X138138285Y-68294761D01*
X137995428Y-68151904D01*
X137900190Y-68104285D01*
X137804952Y-68104285D01*
X137852571Y-68342380D02*
X137757333Y-68294761D01*
X137662095Y-68199523D01*
X137614476Y-68009047D01*
X137614476Y-67675714D01*
X137662095Y-67485238D01*
X137757333Y-67390000D01*
X137852571Y-67342380D01*
X138043047Y-67342380D01*
X138138285Y-67390000D01*
X138233523Y-67485238D01*
X138281142Y-67675714D01*
X138281142Y-68009047D01*
X138233523Y-68199523D01*
X138138285Y-68294761D01*
X138043047Y-68342380D01*
X137852571Y-68342380D01*
X138614476Y-67342380D02*
X139233523Y-67342380D01*
X138900190Y-67723333D01*
X139043047Y-67723333D01*
X139138285Y-67770952D01*
X139185904Y-67818571D01*
X139233523Y-67913809D01*
X139233523Y-68151904D01*
X139185904Y-68247142D01*
X139138285Y-68294761D01*
X139043047Y-68342380D01*
X138757333Y-68342380D01*
X138662095Y-68294761D01*
X138614476Y-68247142D01*
X146434094Y-68437619D02*
X146338856Y-68390000D01*
X146243618Y-68294761D01*
X146100761Y-68151904D01*
X146005523Y-68104285D01*
X145910285Y-68104285D01*
X145957904Y-68342380D02*
X145862666Y-68294761D01*
X145767428Y-68199523D01*
X145719809Y-68009047D01*
X145719809Y-67675714D01*
X145767428Y-67485238D01*
X145862666Y-67390000D01*
X145957904Y-67342380D01*
X146148380Y-67342380D01*
X146243618Y-67390000D01*
X146338856Y-67485238D01*
X146386475Y-67675714D01*
X146386475Y-68009047D01*
X146338856Y-68199523D01*
X146243618Y-68294761D01*
X146148380Y-68342380D01*
X145957904Y-68342380D01*
X147243618Y-67675714D02*
X147243618Y-68342380D01*
X147005523Y-67294761D02*
X146767428Y-68009047D01*
X147386475Y-68009047D01*
X191115427Y-68437619D02*
X191020189Y-68390000D01*
X190924951Y-68294761D01*
X190782094Y-68151904D01*
X190686856Y-68104285D01*
X190591618Y-68104285D01*
X190639237Y-68342380D02*
X190543999Y-68294761D01*
X190448761Y-68199523D01*
X190401142Y-68009047D01*
X190401142Y-67675714D01*
X190448761Y-67485238D01*
X190543999Y-67390000D01*
X190639237Y-67342380D01*
X190829713Y-67342380D01*
X190924951Y-67390000D01*
X191020189Y-67485238D01*
X191067808Y-67675714D01*
X191067808Y-68009047D01*
X191020189Y-68199523D01*
X190924951Y-68294761D01*
X190829713Y-68342380D01*
X190639237Y-68342380D01*
X191972570Y-67342380D02*
X191496380Y-67342380D01*
X191448761Y-67818571D01*
X191496380Y-67770952D01*
X191591618Y-67723333D01*
X191829713Y-67723333D01*
X191924951Y-67770952D01*
X191972570Y-67818571D01*
X192020189Y-67913809D01*
X192020189Y-68151904D01*
X191972570Y-68247142D01*
X191924951Y-68294761D01*
X191829713Y-68342380D01*
X191591618Y-68342380D01*
X191496380Y-68294761D01*
X191448761Y-68247142D01*
X199160761Y-68437619D02*
X199065523Y-68390000D01*
X198970285Y-68294761D01*
X198827428Y-68151904D01*
X198732190Y-68104285D01*
X198636952Y-68104285D01*
X198684571Y-68342380D02*
X198589333Y-68294761D01*
X198494095Y-68199523D01*
X198446476Y-68009047D01*
X198446476Y-67675714D01*
X198494095Y-67485238D01*
X198589333Y-67390000D01*
X198684571Y-67342380D01*
X198875047Y-67342380D01*
X198970285Y-67390000D01*
X199065523Y-67485238D01*
X199113142Y-67675714D01*
X199113142Y-68009047D01*
X199065523Y-68199523D01*
X198970285Y-68294761D01*
X198875047Y-68342380D01*
X198684571Y-68342380D01*
X199970285Y-67342380D02*
X199779809Y-67342380D01*
X199684571Y-67390000D01*
X199636952Y-67437619D01*
X199541714Y-67580476D01*
X199494095Y-67770952D01*
X199494095Y-68151904D01*
X199541714Y-68247142D01*
X199589333Y-68294761D01*
X199684571Y-68342380D01*
X199875047Y-68342380D01*
X199970285Y-68294761D01*
X200017904Y-68247142D01*
X200065523Y-68151904D01*
X200065523Y-67913809D01*
X200017904Y-67818571D01*
X199970285Y-67770952D01*
X199875047Y-67723333D01*
X199684571Y-67723333D01*
X199589333Y-67770952D01*
X199541714Y-67818571D01*
X199494095Y-67913809D01*
X156583142Y-72352380D02*
X156249809Y-71876190D01*
X156011714Y-72352380D02*
X156011714Y-71352380D01*
X156392666Y-71352380D01*
X156487904Y-71400000D01*
X156535523Y-71447619D01*
X156583142Y-71542857D01*
X156583142Y-71685714D01*
X156535523Y-71780952D01*
X156487904Y-71828571D01*
X156392666Y-71876190D01*
X156011714Y-71876190D01*
X157535523Y-72352380D02*
X156964095Y-72352380D01*
X157249809Y-72352380D02*
X157249809Y-71352380D01*
X157154571Y-71495238D01*
X157059333Y-71590476D01*
X156964095Y-71638095D01*
X157916476Y-71447619D02*
X157964095Y-71400000D01*
X158059333Y-71352380D01*
X158297428Y-71352380D01*
X158392666Y-71400000D01*
X158440285Y-71447619D01*
X158487904Y-71542857D01*
X158487904Y-71638095D01*
X158440285Y-71780952D01*
X157868857Y-72352380D01*
X158487904Y-72352380D01*
X141387809Y-72352380D02*
X141054476Y-71876190D01*
X140816381Y-72352380D02*
X140816381Y-71352380D01*
X141197333Y-71352380D01*
X141292571Y-71400000D01*
X141340190Y-71447619D01*
X141387809Y-71542857D01*
X141387809Y-71685714D01*
X141340190Y-71780952D01*
X141292571Y-71828571D01*
X141197333Y-71876190D01*
X140816381Y-71876190D01*
X142340190Y-72352380D02*
X141768762Y-72352380D01*
X142054476Y-72352380D02*
X142054476Y-71352380D01*
X141959238Y-71495238D01*
X141864000Y-71590476D01*
X141768762Y-71638095D01*
X142673524Y-71352380D02*
X143292571Y-71352380D01*
X142959238Y-71733333D01*
X143102095Y-71733333D01*
X143197333Y-71780952D01*
X143244952Y-71828571D01*
X143292571Y-71923809D01*
X143292571Y-72161904D01*
X143244952Y-72257142D01*
X143197333Y-72304761D01*
X143102095Y-72352380D01*
X142816381Y-72352380D01*
X142721143Y-72304761D01*
X142673524Y-72257142D01*
X149589809Y-72352380D02*
X149256476Y-71876190D01*
X149018381Y-72352380D02*
X149018381Y-71352380D01*
X149399333Y-71352380D01*
X149494571Y-71400000D01*
X149542190Y-71447619D01*
X149589809Y-71542857D01*
X149589809Y-71685714D01*
X149542190Y-71780952D01*
X149494571Y-71828571D01*
X149399333Y-71876190D01*
X149018381Y-71876190D01*
X150542190Y-72352380D02*
X149970762Y-72352380D01*
X150256476Y-72352380D02*
X150256476Y-71352380D01*
X150161238Y-71495238D01*
X150066000Y-71590476D01*
X149970762Y-71638095D01*
X151399333Y-71685714D02*
X151399333Y-72352380D01*
X151161238Y-71304761D02*
X150923143Y-72019047D01*
X151542190Y-72019047D01*
X208907142Y-70998380D02*
X208573809Y-70522190D01*
X208335714Y-70998380D02*
X208335714Y-69998380D01*
X208716666Y-69998380D01*
X208811904Y-70046000D01*
X208859523Y-70093619D01*
X208907142Y-70188857D01*
X208907142Y-70331714D01*
X208859523Y-70426952D01*
X208811904Y-70474571D01*
X208716666Y-70522190D01*
X208335714Y-70522190D01*
X209859523Y-70998380D02*
X209288095Y-70998380D01*
X209573809Y-70998380D02*
X209573809Y-69998380D01*
X209478571Y-70141238D01*
X209383333Y-70236476D01*
X209288095Y-70284095D01*
X210764285Y-69998380D02*
X210288095Y-69998380D01*
X210240476Y-70474571D01*
X210288095Y-70426952D01*
X210383333Y-70379333D01*
X210621428Y-70379333D01*
X210716666Y-70426952D01*
X210764285Y-70474571D01*
X210811904Y-70569809D01*
X210811904Y-70807904D01*
X210764285Y-70903142D01*
X210716666Y-70950761D01*
X210621428Y-70998380D01*
X210383333Y-70998380D01*
X210288095Y-70950761D01*
X210240476Y-70903142D01*
X207367380Y-79440476D02*
X206891190Y-79773809D01*
X207367380Y-80011904D02*
X206367380Y-80011904D01*
X206367380Y-79630952D01*
X206415000Y-79535714D01*
X206462619Y-79488095D01*
X206557857Y-79440476D01*
X206700714Y-79440476D01*
X206795952Y-79488095D01*
X206843571Y-79535714D01*
X206891190Y-79630952D01*
X206891190Y-80011904D01*
X207367380Y-79011904D02*
X206367380Y-79011904D01*
X207367380Y-78440476D01*
X206367380Y-78440476D01*
X207367380Y-77440476D02*
X207367380Y-78011904D01*
X207367380Y-77726190D02*
X206367380Y-77726190D01*
X206510238Y-77821428D01*
X206605476Y-77916666D01*
X206653095Y-78011904D01*
X182949380Y-79440476D02*
X182473190Y-79773809D01*
X182949380Y-80011904D02*
X181949380Y-80011904D01*
X181949380Y-79630952D01*
X181997000Y-79535714D01*
X182044619Y-79488095D01*
X182139857Y-79440476D01*
X182282714Y-79440476D01*
X182377952Y-79488095D01*
X182425571Y-79535714D01*
X182473190Y-79630952D01*
X182473190Y-80011904D01*
X182949380Y-79011904D02*
X181949380Y-79011904D01*
X182949380Y-78440476D01*
X181949380Y-78440476D01*
X182044619Y-78011904D02*
X181997000Y-77964285D01*
X181949380Y-77869047D01*
X181949380Y-77630952D01*
X181997000Y-77535714D01*
X182044619Y-77488095D01*
X182139857Y-77440476D01*
X182235095Y-77440476D01*
X182377952Y-77488095D01*
X182949380Y-78059523D01*
X182949380Y-77440476D01*
X166965333Y-72352380D02*
X166632000Y-71876190D01*
X166393904Y-72352380D02*
X166393904Y-71352380D01*
X166774857Y-71352380D01*
X166870095Y-71400000D01*
X166917714Y-71447619D01*
X166965333Y-71542857D01*
X166965333Y-71685714D01*
X166917714Y-71780952D01*
X166870095Y-71828571D01*
X166774857Y-71876190D01*
X166393904Y-71876190D01*
X167298666Y-71352380D02*
X167965333Y-71352380D01*
X167536761Y-72352380D01*
X166965333Y-70998380D02*
X166632000Y-70522190D01*
X166393904Y-70998380D02*
X166393904Y-69998380D01*
X166774857Y-69998380D01*
X166870095Y-70046000D01*
X166917714Y-70093619D01*
X166965333Y-70188857D01*
X166965333Y-70331714D01*
X166917714Y-70426952D01*
X166870095Y-70474571D01*
X166774857Y-70522190D01*
X166393904Y-70522190D01*
X167536761Y-70426952D02*
X167441523Y-70379333D01*
X167393904Y-70331714D01*
X167346285Y-70236476D01*
X167346285Y-70188857D01*
X167393904Y-70093619D01*
X167441523Y-70046000D01*
X167536761Y-69998380D01*
X167727238Y-69998380D01*
X167822476Y-70046000D01*
X167870095Y-70093619D01*
X167917714Y-70188857D01*
X167917714Y-70236476D01*
X167870095Y-70331714D01*
X167822476Y-70379333D01*
X167727238Y-70426952D01*
X167536761Y-70426952D01*
X167441523Y-70474571D01*
X167393904Y-70522190D01*
X167346285Y-70617428D01*
X167346285Y-70807904D01*
X167393904Y-70903142D01*
X167441523Y-70950761D01*
X167536761Y-70998380D01*
X167727238Y-70998380D01*
X167822476Y-70950761D01*
X167870095Y-70903142D01*
X167917714Y-70807904D01*
X167917714Y-70617428D01*
X167870095Y-70522190D01*
X167822476Y-70474571D01*
X167727238Y-70426952D01*
X178649333Y-72352380D02*
X178316000Y-71876190D01*
X178077904Y-72352380D02*
X178077904Y-71352380D01*
X178458857Y-71352380D01*
X178554095Y-71400000D01*
X178601714Y-71447619D01*
X178649333Y-71542857D01*
X178649333Y-71685714D01*
X178601714Y-71780952D01*
X178554095Y-71828571D01*
X178458857Y-71876190D01*
X178077904Y-71876190D01*
X179125523Y-72352380D02*
X179316000Y-72352380D01*
X179411238Y-72304761D01*
X179458857Y-72257142D01*
X179554095Y-72114285D01*
X179601714Y-71923809D01*
X179601714Y-71542857D01*
X179554095Y-71447619D01*
X179506476Y-71400000D01*
X179411238Y-71352380D01*
X179220761Y-71352380D01*
X179125523Y-71400000D01*
X179077904Y-71447619D01*
X179030285Y-71542857D01*
X179030285Y-71780952D01*
X179077904Y-71876190D01*
X179125523Y-71923809D01*
X179220761Y-71971428D01*
X179411238Y-71971428D01*
X179506476Y-71923809D01*
X179554095Y-71876190D01*
X179601714Y-71780952D01*
X208907142Y-72352380D02*
X208573809Y-71876190D01*
X208335714Y-72352380D02*
X208335714Y-71352380D01*
X208716666Y-71352380D01*
X208811904Y-71400000D01*
X208859523Y-71447619D01*
X208907142Y-71542857D01*
X208907142Y-71685714D01*
X208859523Y-71780952D01*
X208811904Y-71828571D01*
X208716666Y-71876190D01*
X208335714Y-71876190D01*
X209859523Y-72352380D02*
X209288095Y-72352380D01*
X209573809Y-72352380D02*
X209573809Y-71352380D01*
X209478571Y-71495238D01*
X209383333Y-71590476D01*
X209288095Y-71638095D01*
X210716666Y-71352380D02*
X210526190Y-71352380D01*
X210430952Y-71400000D01*
X210383333Y-71447619D01*
X210288095Y-71590476D01*
X210240476Y-71780952D01*
X210240476Y-72161904D01*
X210288095Y-72257142D01*
X210335714Y-72304761D01*
X210430952Y-72352380D01*
X210621428Y-72352380D01*
X210716666Y-72304761D01*
X210764285Y-72257142D01*
X210811904Y-72161904D01*
X210811904Y-71923809D01*
X210764285Y-71828571D01*
X210716666Y-71780952D01*
X210621428Y-71733333D01*
X210430952Y-71733333D01*
X210335714Y-71780952D01*
X210288095Y-71828571D01*
X210240476Y-71923809D01*
X194429142Y-72352380D02*
X194095809Y-71876190D01*
X193857714Y-72352380D02*
X193857714Y-71352380D01*
X194238666Y-71352380D01*
X194333904Y-71400000D01*
X194381523Y-71447619D01*
X194429142Y-71542857D01*
X194429142Y-71685714D01*
X194381523Y-71780952D01*
X194333904Y-71828571D01*
X194238666Y-71876190D01*
X193857714Y-71876190D01*
X195381523Y-72352380D02*
X194810095Y-72352380D01*
X195095809Y-72352380D02*
X195095809Y-71352380D01*
X195000571Y-71495238D01*
X194905333Y-71590476D01*
X194810095Y-71638095D01*
X195714857Y-71352380D02*
X196381523Y-71352380D01*
X195952952Y-72352380D01*
X202557142Y-72352380D02*
X202223809Y-71876190D01*
X201985714Y-72352380D02*
X201985714Y-71352380D01*
X202366666Y-71352380D01*
X202461904Y-71400000D01*
X202509523Y-71447619D01*
X202557142Y-71542857D01*
X202557142Y-71685714D01*
X202509523Y-71780952D01*
X202461904Y-71828571D01*
X202366666Y-71876190D01*
X201985714Y-71876190D01*
X203509523Y-72352380D02*
X202938095Y-72352380D01*
X203223809Y-72352380D02*
X203223809Y-71352380D01*
X203128571Y-71495238D01*
X203033333Y-71590476D01*
X202938095Y-71638095D01*
X204080952Y-71780952D02*
X203985714Y-71733333D01*
X203938095Y-71685714D01*
X203890476Y-71590476D01*
X203890476Y-71542857D01*
X203938095Y-71447619D01*
X203985714Y-71400000D01*
X204080952Y-71352380D01*
X204271428Y-71352380D01*
X204366666Y-71400000D01*
X204414285Y-71447619D01*
X204461904Y-71542857D01*
X204461904Y-71590476D01*
X204414285Y-71685714D01*
X204366666Y-71733333D01*
X204271428Y-71780952D01*
X204080952Y-71780952D01*
X203985714Y-71828571D01*
X203938095Y-71876190D01*
X203890476Y-71971428D01*
X203890476Y-72161904D01*
X203938095Y-72257142D01*
X203985714Y-72304761D01*
X204080952Y-72352380D01*
X204271428Y-72352380D01*
X204366666Y-72304761D01*
X204414285Y-72257142D01*
X204461904Y-72161904D01*
X204461904Y-71971428D01*
X204414285Y-71876190D01*
X204366666Y-71828571D01*
X204271428Y-71780952D01*
X158646380Y-79440476D02*
X158170190Y-79773809D01*
X158646380Y-80011904D02*
X157646380Y-80011904D01*
X157646380Y-79630952D01*
X157694000Y-79535714D01*
X157741619Y-79488095D01*
X157836857Y-79440476D01*
X157979714Y-79440476D01*
X158074952Y-79488095D01*
X158122571Y-79535714D01*
X158170190Y-79630952D01*
X158170190Y-80011904D01*
X158646380Y-79011904D02*
X157646380Y-79011904D01*
X158646380Y-78440476D01*
X157646380Y-78440476D01*
X157646380Y-78059523D02*
X157646380Y-77440476D01*
X158027333Y-77773809D01*
X158027333Y-77630952D01*
X158074952Y-77535714D01*
X158122571Y-77488095D01*
X158217809Y-77440476D01*
X158455904Y-77440476D01*
X158551142Y-77488095D01*
X158598761Y-77535714D01*
X158646380Y-77630952D01*
X158646380Y-77916666D01*
X158598761Y-78011904D01*
X158551142Y-78059523D01*
X166624095Y-87800380D02*
X166624095Y-88609904D01*
X166671714Y-88705142D01*
X166719333Y-88752761D01*
X166814571Y-88800380D01*
X167005047Y-88800380D01*
X167100285Y-88752761D01*
X167147904Y-88705142D01*
X167195523Y-88609904D01*
X167195523Y-87800380D01*
X167576476Y-87800380D02*
X168195523Y-87800380D01*
X167862190Y-88181333D01*
X168005047Y-88181333D01*
X168100285Y-88228952D01*
X168147904Y-88276571D01*
X168195523Y-88371809D01*
X168195523Y-88609904D01*
X168147904Y-88705142D01*
X168100285Y-88752761D01*
X168005047Y-88800380D01*
X167719333Y-88800380D01*
X167624095Y-88752761D01*
X167576476Y-88705142D01*
X153603095Y-87652380D02*
X153603095Y-88461904D01*
X153650714Y-88557142D01*
X153698333Y-88604761D01*
X153793571Y-88652380D01*
X153984047Y-88652380D01*
X154079285Y-88604761D01*
X154126904Y-88557142D01*
X154174523Y-88461904D01*
X154174523Y-87652380D01*
X155079285Y-87985714D02*
X155079285Y-88652380D01*
X154841190Y-87604761D02*
X154603095Y-88319047D01*
X155222142Y-88319047D01*
X136167380Y-47886904D02*
X136976904Y-47886904D01*
X137072142Y-47839285D01*
X137119761Y-47791666D01*
X137167380Y-47696428D01*
X137167380Y-47505952D01*
X137119761Y-47410714D01*
X137072142Y-47363095D01*
X136976904Y-47315476D01*
X136167380Y-47315476D01*
X136167380Y-46363095D02*
X136167380Y-46839285D01*
X136643571Y-46886904D01*
X136595952Y-46839285D01*
X136548333Y-46744047D01*
X136548333Y-46505952D01*
X136595952Y-46410714D01*
X136643571Y-46363095D01*
X136738809Y-46315476D01*
X136976904Y-46315476D01*
X137072142Y-46363095D01*
X137119761Y-46410714D01*
X137167380Y-46505952D01*
X137167380Y-46744047D01*
X137119761Y-46839285D01*
X137072142Y-46886904D01*
X146672380Y-48169904D02*
X147481904Y-48169904D01*
X147577142Y-48122285D01*
X147624761Y-48074666D01*
X147672380Y-47979428D01*
X147672380Y-47788952D01*
X147624761Y-47693714D01*
X147577142Y-47646095D01*
X147481904Y-47598476D01*
X146672380Y-47598476D01*
X146672380Y-46693714D02*
X146672380Y-46884190D01*
X146720000Y-46979428D01*
X146767619Y-47027047D01*
X146910476Y-47122285D01*
X147100952Y-47169904D01*
X147481904Y-47169904D01*
X147577142Y-47122285D01*
X147624761Y-47074666D01*
X147672380Y-46979428D01*
X147672380Y-46788952D01*
X147624761Y-46693714D01*
X147577142Y-46646095D01*
X147481904Y-46598476D01*
X147243809Y-46598476D01*
X147148571Y-46646095D01*
X147100952Y-46693714D01*
X147053333Y-46788952D01*
X147053333Y-46979428D01*
X147100952Y-47074666D01*
X147148571Y-47122285D01*
X147243809Y-47169904D01*
X159372380Y-48169904D02*
X160181904Y-48169904D01*
X160277142Y-48122285D01*
X160324761Y-48074666D01*
X160372380Y-47979428D01*
X160372380Y-47788952D01*
X160324761Y-47693714D01*
X160277142Y-47646095D01*
X160181904Y-47598476D01*
X159372380Y-47598476D01*
X159372380Y-47217523D02*
X159372380Y-46550857D01*
X160372380Y-46979428D01*
X172072380Y-48169904D02*
X172881904Y-48169904D01*
X172977142Y-48122285D01*
X173024761Y-48074666D01*
X173072380Y-47979428D01*
X173072380Y-47788952D01*
X173024761Y-47693714D01*
X172977142Y-47646095D01*
X172881904Y-47598476D01*
X172072380Y-47598476D01*
X172500952Y-46979428D02*
X172453333Y-47074666D01*
X172405714Y-47122285D01*
X172310476Y-47169904D01*
X172262857Y-47169904D01*
X172167619Y-47122285D01*
X172120000Y-47074666D01*
X172072380Y-46979428D01*
X172072380Y-46788952D01*
X172120000Y-46693714D01*
X172167619Y-46646095D01*
X172262857Y-46598476D01*
X172310476Y-46598476D01*
X172405714Y-46646095D01*
X172453333Y-46693714D01*
X172500952Y-46788952D01*
X172500952Y-46979428D01*
X172548571Y-47074666D01*
X172596190Y-47122285D01*
X172691428Y-47169904D01*
X172881904Y-47169904D01*
X172977142Y-47122285D01*
X173024761Y-47074666D01*
X173072380Y-46979428D01*
X173072380Y-46788952D01*
X173024761Y-46693714D01*
X172977142Y-46646095D01*
X172881904Y-46598476D01*
X172691428Y-46598476D01*
X172596190Y-46646095D01*
X172548571Y-46693714D01*
X172500952Y-46788952D01*
X195770380Y-48423904D02*
X196579904Y-48423904D01*
X196675142Y-48376285D01*
X196722761Y-48328666D01*
X196770380Y-48233428D01*
X196770380Y-48042952D01*
X196722761Y-47947714D01*
X196675142Y-47900095D01*
X196579904Y-47852476D01*
X195770380Y-47852476D01*
X196770380Y-47328666D02*
X196770380Y-47138190D01*
X196722761Y-47042952D01*
X196675142Y-46995333D01*
X196532285Y-46900095D01*
X196341809Y-46852476D01*
X195960857Y-46852476D01*
X195865619Y-46900095D01*
X195818000Y-46947714D01*
X195770380Y-47042952D01*
X195770380Y-47233428D01*
X195818000Y-47328666D01*
X195865619Y-47376285D01*
X195960857Y-47423904D01*
X196198952Y-47423904D01*
X196294190Y-47376285D01*
X196341809Y-47328666D01*
X196389428Y-47233428D01*
X196389428Y-47042952D01*
X196341809Y-46947714D01*
X196294190Y-46900095D01*
X196198952Y-46852476D01*
X209517142Y-104016666D02*
X209564761Y-104064285D01*
X209612380Y-104207142D01*
X209612380Y-104302380D01*
X209564761Y-104445238D01*
X209469523Y-104540476D01*
X209374285Y-104588095D01*
X209183809Y-104635714D01*
X209040952Y-104635714D01*
X208850476Y-104588095D01*
X208755238Y-104540476D01*
X208660000Y-104445238D01*
X208612380Y-104302380D01*
X208612380Y-104207142D01*
X208660000Y-104064285D01*
X208707619Y-104016666D01*
X208612380Y-103111904D02*
X208612380Y-103588095D01*
X209088571Y-103635714D01*
X209040952Y-103588095D01*
X208993333Y-103492857D01*
X208993333Y-103254761D01*
X209040952Y-103159523D01*
X209088571Y-103111904D01*
X209183809Y-103064285D01*
X209421904Y-103064285D01*
X209517142Y-103111904D01*
X209564761Y-103159523D01*
X209612380Y-103254761D01*
X209612380Y-103492857D01*
X209564761Y-103588095D01*
X209517142Y-103635714D01*
X189069761Y-118952380D02*
X188736428Y-118476190D01*
X188498333Y-118952380D02*
X188498333Y-117952380D01*
X188879285Y-117952380D01*
X188974523Y-118000000D01*
X189022142Y-118047619D01*
X189069761Y-118142857D01*
X189069761Y-118285714D01*
X189022142Y-118380952D01*
X188974523Y-118428571D01*
X188879285Y-118476190D01*
X188498333Y-118476190D01*
X189355476Y-117952380D02*
X189688809Y-118952380D01*
X190022142Y-117952380D01*
X190879285Y-118952380D02*
X190307857Y-118952380D01*
X190593571Y-118952380D02*
X190593571Y-117952380D01*
X190498333Y-118095238D01*
X190403095Y-118190476D01*
X190307857Y-118238095D01*
X202344761Y-118952380D02*
X202011428Y-118476190D01*
X201773333Y-118952380D02*
X201773333Y-117952380D01*
X202154285Y-117952380D01*
X202249523Y-118000000D01*
X202297142Y-118047619D01*
X202344761Y-118142857D01*
X202344761Y-118285714D01*
X202297142Y-118380952D01*
X202249523Y-118428571D01*
X202154285Y-118476190D01*
X201773333Y-118476190D01*
X202630476Y-117952380D02*
X202963809Y-118952380D01*
X203297142Y-117952380D01*
X203582857Y-118047619D02*
X203630476Y-118000000D01*
X203725714Y-117952380D01*
X203963809Y-117952380D01*
X204059047Y-118000000D01*
X204106666Y-118047619D01*
X204154285Y-118142857D01*
X204154285Y-118238095D01*
X204106666Y-118380952D01*
X203535238Y-118952380D01*
X204154285Y-118952380D01*
%LPC*%
D13*
X169015000Y-87050000D03*
X174015000Y-87050000D03*
X158242000Y-87050000D03*
X163242000Y-87050000D03*
X177565000Y-108525000D03*
X177565000Y-113525000D03*
D14*
X209438000Y-40042000D03*
X211978000Y-40042000D03*
X214518000Y-40042000D03*
X217058000Y-40042000D03*
X219598000Y-40042000D03*
X219598000Y-55282000D03*
X217058000Y-55282000D03*
X214518000Y-55282000D03*
X211978000Y-55282000D03*
G36*
G01*
X208625000Y-56544000D02*
X208625000Y-54020000D01*
G75*
G02*
X208676000Y-53969000I51000J0D01*
G01*
X210200000Y-53969000D01*
G75*
G02*
X210251000Y-54020000I0J-51000D01*
G01*
X210251000Y-56544000D01*
G75*
G02*
X210200000Y-56595000I-51000J0D01*
G01*
X208676000Y-56595000D01*
G75*
G02*
X208625000Y-56544000I0J51000D01*
G01*
G37*
D13*
X195290000Y-98750000D03*
X195290000Y-93750000D03*
G36*
G01*
X175756000Y-66196000D02*
X174256000Y-66196000D01*
G75*
G02*
X174205000Y-66145000I0J51000D01*
G01*
X174205000Y-65095000D01*
G75*
G02*
X174256000Y-65044000I51000J0D01*
G01*
X175756000Y-65044000D01*
G75*
G02*
X175807000Y-65095000I0J-51000D01*
G01*
X175807000Y-66145000D01*
G75*
G02*
X175756000Y-66196000I-51000J0D01*
G01*
G37*
D15*
X175006000Y-63080000D03*
X175006000Y-64350000D03*
X183166000Y-64350000D03*
X183166000Y-63080000D03*
G36*
G01*
X183916000Y-66196000D02*
X182416000Y-66196000D01*
G75*
G02*
X182365000Y-66145000I0J51000D01*
G01*
X182365000Y-65095000D01*
G75*
G02*
X182416000Y-65044000I51000J0D01*
G01*
X183916000Y-65044000D01*
G75*
G02*
X183967000Y-65095000I0J-51000D01*
G01*
X183967000Y-66145000D01*
G75*
G02*
X183916000Y-66196000I-51000J0D01*
G01*
G37*
D16*
X202910000Y-105525000D03*
D13*
X195290000Y-105525000D03*
X195290000Y-102150000D03*
D16*
X202910000Y-102150000D03*
D13*
X186806000Y-62290000D03*
D16*
X186806000Y-69910000D03*
X153162000Y-64520000D03*
D13*
X160782000Y-64520000D03*
G36*
G01*
X189573000Y-112738000D02*
X189573000Y-114338000D01*
G75*
G02*
X189522000Y-114389000I-51000J0D01*
G01*
X187922000Y-114389000D01*
G75*
G02*
X187871000Y-114338000I0J51000D01*
G01*
X187871000Y-112738000D01*
G75*
G02*
X187922000Y-112687000I51000J0D01*
G01*
X189522000Y-112687000D01*
G75*
G02*
X189573000Y-112738000I0J-51000D01*
G01*
G37*
D16*
X181102000Y-90678000D03*
X188722000Y-110998000D03*
X181102000Y-93218000D03*
X188722000Y-108458000D03*
X181102000Y-95758000D03*
X188722000Y-105918000D03*
X181102000Y-98298000D03*
X188722000Y-103378000D03*
X181102000Y-100838000D03*
X188722000Y-100838000D03*
X181102000Y-103378000D03*
X188722000Y-98298000D03*
X181102000Y-105918000D03*
X188722000Y-95758000D03*
X181102000Y-108458000D03*
X188722000Y-93218000D03*
X181102000Y-110998000D03*
X188722000Y-90678000D03*
X181102000Y-113538000D03*
G36*
G01*
X198189000Y-91478000D02*
X198189000Y-89878000D01*
G75*
G02*
X198240000Y-89827000I51000J0D01*
G01*
X199840000Y-89827000D01*
G75*
G02*
X199891000Y-89878000I0J-51000D01*
G01*
X199891000Y-91478000D01*
G75*
G02*
X199840000Y-91529000I-51000J0D01*
G01*
X198240000Y-91529000D01*
G75*
G02*
X198189000Y-91478000I0J51000D01*
G01*
G37*
X206660000Y-98298000D03*
X199040000Y-93218000D03*
X206660000Y-95758000D03*
X199040000Y-95758000D03*
X206660000Y-93218000D03*
X199040000Y-98298000D03*
X206660000Y-90678000D03*
G36*
G01*
X139174000Y-66196000D02*
X137674000Y-66196000D01*
G75*
G02*
X137623000Y-66145000I0J51000D01*
G01*
X137623000Y-65095000D01*
G75*
G02*
X137674000Y-65044000I51000J0D01*
G01*
X139174000Y-65044000D01*
G75*
G02*
X139225000Y-65095000I0J-51000D01*
G01*
X139225000Y-66145000D01*
G75*
G02*
X139174000Y-66196000I-51000J0D01*
G01*
G37*
D15*
X138424000Y-63080000D03*
X138424000Y-64350000D03*
X146529333Y-64350000D03*
X146529333Y-63080000D03*
G36*
G01*
X147279333Y-66196000D02*
X145779333Y-66196000D01*
G75*
G02*
X145728333Y-66145000I0J51000D01*
G01*
X145728333Y-65095000D01*
G75*
G02*
X145779333Y-65044000I51000J0D01*
G01*
X147279333Y-65044000D01*
G75*
G02*
X147330333Y-65095000I0J-51000D01*
G01*
X147330333Y-66145000D01*
G75*
G02*
X147279333Y-66196000I-51000J0D01*
G01*
G37*
X191210666Y-64350000D03*
X191210666Y-63080000D03*
G36*
G01*
X191960666Y-66196000D02*
X190460666Y-66196000D01*
G75*
G02*
X190409666Y-66145000I0J51000D01*
G01*
X190409666Y-65095000D01*
G75*
G02*
X190460666Y-65044000I51000J0D01*
G01*
X191960666Y-65044000D01*
G75*
G02*
X192011666Y-65095000I0J-51000D01*
G01*
X192011666Y-66145000D01*
G75*
G02*
X191960666Y-66196000I-51000J0D01*
G01*
G37*
G36*
G01*
X200066000Y-66196000D02*
X198566000Y-66196000D01*
G75*
G02*
X198515000Y-66145000I0J51000D01*
G01*
X198515000Y-65095000D01*
G75*
G02*
X198566000Y-65044000I51000J0D01*
G01*
X200066000Y-65044000D01*
G75*
G02*
X200117000Y-65095000I0J-51000D01*
G01*
X200117000Y-66145000D01*
G75*
G02*
X200066000Y-66196000I-51000J0D01*
G01*
G37*
X199316000Y-63080000D03*
X199316000Y-64350000D03*
D13*
X160782000Y-68160000D03*
D16*
X153162000Y-68160000D03*
D13*
X142064000Y-62290000D03*
D16*
X142064000Y-69910000D03*
X150169333Y-69910000D03*
D13*
X150169333Y-62290000D03*
D16*
X213360000Y-64520000D03*
D13*
X205740000Y-64520000D03*
G36*
G01*
X203670000Y-74079000D02*
X205270000Y-74079000D01*
G75*
G02*
X205321000Y-74130000I0J-51000D01*
G01*
X205321000Y-75730000D01*
G75*
G02*
X205270000Y-75781000I-51000J0D01*
G01*
X203670000Y-75781000D01*
G75*
G02*
X203619000Y-75730000I0J51000D01*
G01*
X203619000Y-74130000D01*
G75*
G02*
X203670000Y-74079000I51000J0D01*
G01*
G37*
D16*
X186690000Y-82550000D03*
X201930000Y-74930000D03*
X189230000Y-82550000D03*
X199390000Y-74930000D03*
X191770000Y-82550000D03*
X196850000Y-74930000D03*
X194310000Y-82550000D03*
X194310000Y-74930000D03*
X196850000Y-82550000D03*
X191770000Y-74930000D03*
X199390000Y-82550000D03*
X189230000Y-74930000D03*
X201930000Y-82550000D03*
X186690000Y-74930000D03*
X204470000Y-82550000D03*
X180167000Y-82550000D03*
X162387000Y-74930000D03*
X177627000Y-82550000D03*
X164927000Y-74930000D03*
X175087000Y-82550000D03*
X167467000Y-74930000D03*
X172547000Y-82550000D03*
X170007000Y-74930000D03*
X170007000Y-82550000D03*
X172547000Y-74930000D03*
X167467000Y-82550000D03*
X175087000Y-74930000D03*
X164927000Y-82550000D03*
X177627000Y-74930000D03*
X162387000Y-82550000D03*
G36*
G01*
X179367000Y-74079000D02*
X180967000Y-74079000D01*
G75*
G02*
X181018000Y-74130000I0J-51000D01*
G01*
X181018000Y-75730000D01*
G75*
G02*
X180967000Y-75781000I-51000J0D01*
G01*
X179367000Y-75781000D01*
G75*
G02*
X179316000Y-75730000I0J51000D01*
G01*
X179316000Y-74130000D01*
G75*
G02*
X179367000Y-74079000I51000J0D01*
G01*
G37*
X170688000Y-68160000D03*
D13*
X163068000Y-68160000D03*
D16*
X170688000Y-64520000D03*
D13*
X163068000Y-64520000D03*
D16*
X178646000Y-69910000D03*
D13*
X178646000Y-62290000D03*
X205740000Y-68160000D03*
D16*
X213360000Y-68160000D03*
D13*
X194850666Y-62290000D03*
D16*
X194850666Y-69910000D03*
D13*
X202956000Y-62290000D03*
D16*
X202956000Y-69910000D03*
G36*
G01*
X155064000Y-74079000D02*
X156664000Y-74079000D01*
G75*
G02*
X156715000Y-74130000I0J-51000D01*
G01*
X156715000Y-75730000D01*
G75*
G02*
X156664000Y-75781000I-51000J0D01*
G01*
X155064000Y-75781000D01*
G75*
G02*
X155013000Y-75730000I0J51000D01*
G01*
X155013000Y-74130000D01*
G75*
G02*
X155064000Y-74079000I51000J0D01*
G01*
G37*
X138084000Y-82550000D03*
X153324000Y-74930000D03*
X140624000Y-82550000D03*
X150784000Y-74930000D03*
X143164000Y-82550000D03*
X148244000Y-74930000D03*
X145704000Y-82550000D03*
X145704000Y-74930000D03*
X148244000Y-82550000D03*
X143164000Y-74930000D03*
X150784000Y-82550000D03*
X140624000Y-74930000D03*
X153324000Y-82550000D03*
X138084000Y-74930000D03*
X155864000Y-82550000D03*
G36*
G01*
X162725000Y-91478000D02*
X162725000Y-89878000D01*
G75*
G02*
X162776000Y-89827000I51000J0D01*
G01*
X164376000Y-89827000D01*
G75*
G02*
X164427000Y-89878000I0J-51000D01*
G01*
X164427000Y-91478000D01*
G75*
G02*
X164376000Y-91529000I-51000J0D01*
G01*
X162776000Y-91529000D01*
G75*
G02*
X162725000Y-91478000I0J51000D01*
G01*
G37*
X171196000Y-113538000D03*
X163576000Y-93218000D03*
X171196000Y-110998000D03*
X163576000Y-95758000D03*
X171196000Y-108458000D03*
X163576000Y-98298000D03*
X171196000Y-105918000D03*
X163576000Y-100838000D03*
X171196000Y-103378000D03*
X163576000Y-103378000D03*
X171196000Y-100838000D03*
X163576000Y-105918000D03*
X171196000Y-98298000D03*
X163576000Y-108458000D03*
X171196000Y-95758000D03*
X163576000Y-110998000D03*
X171196000Y-93218000D03*
X163576000Y-113538000D03*
X171196000Y-90678000D03*
X158242000Y-90678000D03*
X150622000Y-113538000D03*
X158242000Y-93218000D03*
X150622000Y-110998000D03*
X158242000Y-95758000D03*
X150622000Y-108458000D03*
X158242000Y-98298000D03*
X150622000Y-105918000D03*
X158242000Y-100838000D03*
X150622000Y-103378000D03*
X158242000Y-103378000D03*
X150622000Y-100838000D03*
X158242000Y-105918000D03*
X150622000Y-98298000D03*
X158242000Y-108458000D03*
X150622000Y-95758000D03*
X158242000Y-110998000D03*
X150622000Y-93218000D03*
X158242000Y-113538000D03*
G36*
G01*
X149771000Y-91478000D02*
X149771000Y-89878000D01*
G75*
G02*
X149822000Y-89827000I51000J0D01*
G01*
X151422000Y-89827000D01*
G75*
G02*
X151473000Y-89878000I0J-51000D01*
G01*
X151473000Y-91478000D01*
G75*
G02*
X151422000Y-91529000I-51000J0D01*
G01*
X149822000Y-91529000D01*
G75*
G02*
X149771000Y-91478000I0J51000D01*
G01*
G37*
G36*
G01*
X136127000Y-56290000D02*
X136127000Y-53766000D01*
G75*
G02*
X136178000Y-53715000I51000J0D01*
G01*
X137702000Y-53715000D01*
G75*
G02*
X137753000Y-53766000I0J-51000D01*
G01*
X137753000Y-56290000D01*
G75*
G02*
X137702000Y-56341000I-51000J0D01*
G01*
X136178000Y-56341000D01*
G75*
G02*
X136127000Y-56290000I0J51000D01*
G01*
G37*
D14*
X139480000Y-55028000D03*
X142020000Y-55028000D03*
X144560000Y-55028000D03*
X147100000Y-55028000D03*
X147100000Y-39788000D03*
X144560000Y-39788000D03*
X142020000Y-39788000D03*
X139480000Y-39788000D03*
X136940000Y-39788000D03*
X149640000Y-39788000D03*
X152180000Y-39788000D03*
X154720000Y-39788000D03*
X157260000Y-39788000D03*
X159800000Y-39788000D03*
X159800000Y-55028000D03*
X157260000Y-55028000D03*
X154720000Y-55028000D03*
X152180000Y-55028000D03*
G36*
G01*
X148827000Y-56290000D02*
X148827000Y-53766000D01*
G75*
G02*
X148878000Y-53715000I51000J0D01*
G01*
X150402000Y-53715000D01*
G75*
G02*
X150453000Y-53766000I0J-51000D01*
G01*
X150453000Y-56290000D01*
G75*
G02*
X150402000Y-56341000I-51000J0D01*
G01*
X148878000Y-56341000D01*
G75*
G02*
X148827000Y-56290000I0J51000D01*
G01*
G37*
G36*
G01*
X161527000Y-56290000D02*
X161527000Y-53766000D01*
G75*
G02*
X161578000Y-53715000I51000J0D01*
G01*
X163102000Y-53715000D01*
G75*
G02*
X163153000Y-53766000I0J-51000D01*
G01*
X163153000Y-56290000D01*
G75*
G02*
X163102000Y-56341000I-51000J0D01*
G01*
X161578000Y-56341000D01*
G75*
G02*
X161527000Y-56290000I0J51000D01*
G01*
G37*
X164880000Y-55028000D03*
X167420000Y-55028000D03*
X169960000Y-55028000D03*
X172500000Y-55028000D03*
X172500000Y-39788000D03*
X169960000Y-39788000D03*
X167420000Y-39788000D03*
X164880000Y-39788000D03*
X162340000Y-39788000D03*
X175040000Y-39788000D03*
X177580000Y-39788000D03*
X180120000Y-39788000D03*
X182660000Y-39788000D03*
X185200000Y-39788000D03*
X185200000Y-55028000D03*
X182660000Y-55028000D03*
X180120000Y-55028000D03*
X177580000Y-55028000D03*
G36*
G01*
X174227000Y-56290000D02*
X174227000Y-53766000D01*
G75*
G02*
X174278000Y-53715000I51000J0D01*
G01*
X175802000Y-53715000D01*
G75*
G02*
X175853000Y-53766000I0J-51000D01*
G01*
X175853000Y-56290000D01*
G75*
G02*
X175802000Y-56341000I-51000J0D01*
G01*
X174278000Y-56341000D01*
G75*
G02*
X174227000Y-56290000I0J51000D01*
G01*
G37*
G36*
G01*
X195925000Y-56544000D02*
X195925000Y-54020000D01*
G75*
G02*
X195976000Y-53969000I51000J0D01*
G01*
X197500000Y-53969000D01*
G75*
G02*
X197551000Y-54020000I0J-51000D01*
G01*
X197551000Y-56544000D01*
G75*
G02*
X197500000Y-56595000I-51000J0D01*
G01*
X195976000Y-56595000D01*
G75*
G02*
X195925000Y-56544000I0J51000D01*
G01*
G37*
X199278000Y-55282000D03*
X201818000Y-55282000D03*
X204358000Y-55282000D03*
X206898000Y-55282000D03*
X206898000Y-40042000D03*
X204358000Y-40042000D03*
X201818000Y-40042000D03*
X199278000Y-40042000D03*
X196738000Y-40042000D03*
D13*
X206660000Y-101350000D03*
X206660000Y-106350000D03*
D17*
X192565000Y-116250000D03*
X202565000Y-113750000D03*
X192565000Y-111250000D03*
X205840000Y-111250000D03*
X215840000Y-113750000D03*
X205840000Y-116250000D03*
D18*
X219440000Y-116455000D03*
X219440000Y-113915000D03*
G36*
G01*
X218539000Y-112225000D02*
X218539000Y-110525000D01*
G75*
G02*
X218590000Y-110474000I51000J0D01*
G01*
X220290000Y-110474000D01*
G75*
G02*
X220341000Y-110525000I0J-51000D01*
G01*
X220341000Y-112225000D01*
G75*
G02*
X220290000Y-112276000I-51000J0D01*
G01*
X218590000Y-112276000D01*
G75*
G02*
X218539000Y-112225000I0J51000D01*
G01*
G37*
G36*
G01*
X220161000Y-59100000D02*
X220161000Y-60800000D01*
G75*
G02*
X220110000Y-60851000I-51000J0D01*
G01*
X218410000Y-60851000D01*
G75*
G02*
X218359000Y-60800000I0J51000D01*
G01*
X218359000Y-59100000D01*
G75*
G02*
X218410000Y-59049000I51000J0D01*
G01*
X220110000Y-59049000D01*
G75*
G02*
X220161000Y-59100000I0J-51000D01*
G01*
G37*
X216720000Y-59950000D03*
X219260000Y-62490000D03*
X216720000Y-62490000D03*
X219260000Y-65030000D03*
X216720000Y-65030000D03*
X219260000Y-67570000D03*
X216720000Y-67570000D03*
X219260000Y-70110000D03*
X216720000Y-70110000D03*
X219260000Y-72650000D03*
X216720000Y-72650000D03*
X219260000Y-75190000D03*
X216720000Y-75190000D03*
X219260000Y-77730000D03*
X216720000Y-77730000D03*
X219260000Y-80270000D03*
X216720000Y-80270000D03*
X219260000Y-82810000D03*
X216720000Y-82810000D03*
X219260000Y-85350000D03*
X216720000Y-85350000D03*
X219260000Y-87890000D03*
X216720000Y-87890000D03*
X219260000Y-90430000D03*
X216720000Y-90430000D03*
D19*
X137465000Y-59425000D03*
M02*
