M48
; DRILL file {KiCad (5.1.9)-1} date 05/10/23 16:33:01
; FORMAT={-:-/ absolute / metric / decimal}
; #@! TF.CreationDate,2023-05-10T16:33:01+01:00
; #@! TF.GenerationSoftware,Kicad,Pcbnew,(5.1.9)-1
; #@! TF.FileFunction,Plated,1,2,PTH
FMAT,2
METRIC
T1C0.400
T2C0.508
T3C0.750
T4C0.800
T5C1.000
T6C1.300
%
G90
G05
T1
X146.558Y-42.418
X171.466Y-42.164
X172.63Y-52.75
X182.199Y-57.883
X207.518Y-53.086
X209.804Y-42.672
X213.719Y-58.15
T2
X148.415Y-89.325
X158.72Y-65.62
X210.14Y-78.925
X212.715Y-82.85
T3
X138.424Y-63.08
X138.424Y-64.35
X138.424Y-65.62
X146.529Y-63.08
X146.529Y-64.35
X146.529Y-65.62
X175.006Y-63.08
X175.006Y-64.35
X175.006Y-65.62
X183.166Y-63.08
X183.166Y-64.35
X183.166Y-65.62
X191.211Y-63.08
X191.211Y-64.35
X191.211Y-65.62
X199.316Y-63.08
X199.316Y-64.35
X199.316Y-65.62
T4
X136.94Y-39.788
X136.94Y-55.028
X138.084Y-74.93
X138.084Y-82.55
X139.48Y-39.788
X139.48Y-55.028
X140.624Y-74.93
X140.624Y-82.55
X142.02Y-39.788
X142.02Y-55.028
X142.064Y-62.29
X142.064Y-69.91
X143.164Y-74.93
X143.164Y-82.55
X144.56Y-39.788
X144.56Y-55.028
X145.704Y-74.93
X145.704Y-82.55
X147.1Y-39.788
X147.1Y-55.028
X148.244Y-74.93
X148.244Y-82.55
X149.64Y-39.788
X149.64Y-55.028
X150.169Y-62.29
X150.169Y-69.91
X150.622Y-90.678
X150.622Y-93.218
X150.622Y-95.758
X150.622Y-98.298
X150.622Y-100.838
X150.622Y-103.378
X150.622Y-105.918
X150.622Y-108.458
X150.622Y-110.998
X150.622Y-113.538
X150.784Y-74.93
X150.784Y-82.55
X152.18Y-39.788
X152.18Y-55.028
X153.162Y-64.52
X153.162Y-68.16
X153.324Y-74.93
X153.324Y-82.55
X154.72Y-39.788
X154.72Y-55.028
X155.864Y-74.93
X155.864Y-82.55
X157.26Y-39.788
X157.26Y-55.028
X158.242Y-87.05
X158.242Y-90.678
X158.242Y-93.218
X158.242Y-95.758
X158.242Y-98.298
X158.242Y-100.838
X158.242Y-103.378
X158.242Y-105.918
X158.242Y-108.458
X158.242Y-110.998
X158.242Y-113.538
X159.8Y-39.788
X159.8Y-55.028
X160.782Y-64.52
X160.782Y-68.16
X162.34Y-39.788
X162.34Y-55.028
X162.387Y-74.93
X162.387Y-82.55
X163.068Y-64.52
X163.068Y-68.16
X163.242Y-87.05
X163.576Y-90.678
X163.576Y-93.218
X163.576Y-95.758
X163.576Y-98.298
X163.576Y-100.838
X163.576Y-103.378
X163.576Y-105.918
X163.576Y-108.458
X163.576Y-110.998
X163.576Y-113.538
X164.88Y-39.788
X164.88Y-55.028
X164.927Y-74.93
X164.927Y-82.55
X167.42Y-39.788
X167.42Y-55.028
X167.467Y-74.93
X167.467Y-82.55
X169.015Y-87.05
X169.96Y-39.788
X169.96Y-55.028
X170.007Y-74.93
X170.007Y-82.55
X170.688Y-64.52
X170.688Y-68.16
X171.196Y-90.678
X171.196Y-93.218
X171.196Y-95.758
X171.196Y-98.298
X171.196Y-100.838
X171.196Y-103.378
X171.196Y-105.918
X171.196Y-108.458
X171.196Y-110.998
X171.196Y-113.538
X172.5Y-39.788
X172.5Y-55.028
X172.547Y-74.93
X172.547Y-82.55
X174.015Y-87.05
X175.04Y-39.788
X175.04Y-55.028
X175.087Y-74.93
X175.087Y-82.55
X177.565Y-108.525
X177.565Y-113.525
X177.58Y-39.788
X177.58Y-55.028
X177.627Y-74.93
X177.627Y-82.55
X178.646Y-62.29
X178.646Y-69.91
X180.12Y-39.788
X180.12Y-55.028
X180.167Y-74.93
X180.167Y-82.55
X181.102Y-90.678
X181.102Y-93.218
X181.102Y-95.758
X181.102Y-98.298
X181.102Y-100.838
X181.102Y-103.378
X181.102Y-105.918
X181.102Y-108.458
X181.102Y-110.998
X181.102Y-113.538
X182.66Y-39.788
X182.66Y-55.028
X185.2Y-39.788
X185.2Y-55.028
X186.69Y-74.93
X186.69Y-82.55
X186.806Y-62.29
X186.806Y-69.91
X188.722Y-90.678
X188.722Y-93.218
X188.722Y-95.758
X188.722Y-98.298
X188.722Y-100.838
X188.722Y-103.378
X188.722Y-105.918
X188.722Y-108.458
X188.722Y-110.998
X188.722Y-113.538
X189.23Y-74.93
X189.23Y-82.55
X191.77Y-74.93
X191.77Y-82.55
X194.31Y-74.93
X194.31Y-82.55
X194.851Y-62.29
X194.851Y-69.91
X195.29Y-93.75
X195.29Y-98.75
X195.29Y-102.15
X195.29Y-105.525
X196.738Y-40.042
X196.738Y-55.282
X196.85Y-74.93
X196.85Y-82.55
X199.04Y-90.678
X199.04Y-93.218
X199.04Y-95.758
X199.04Y-98.298
X199.278Y-40.042
X199.278Y-55.282
X199.39Y-74.93
X199.39Y-82.55
X201.818Y-40.042
X201.818Y-55.282
X201.93Y-74.93
X201.93Y-82.55
X202.91Y-102.15
X202.91Y-105.525
X202.956Y-62.29
X202.956Y-69.91
X204.358Y-40.042
X204.358Y-55.282
X204.47Y-74.93
X204.47Y-82.55
X205.74Y-64.52
X205.74Y-68.16
X206.66Y-90.678
X206.66Y-93.218
X206.66Y-95.758
X206.66Y-98.298
X206.66Y-101.35
X206.66Y-106.35
X206.898Y-40.042
X206.898Y-55.282
X209.438Y-40.042
X209.438Y-55.282
X211.978Y-40.042
X211.978Y-55.282
X213.36Y-64.52
X213.36Y-68.16
X214.518Y-40.042
X214.518Y-55.282
X217.058Y-40.042
X217.058Y-55.282
X219.598Y-40.042
X219.598Y-55.282
T5
X216.72Y-59.95
X216.72Y-62.49
X216.72Y-65.03
X216.72Y-67.57
X216.72Y-70.11
X216.72Y-72.65
X216.72Y-75.19
X216.72Y-77.73
X216.72Y-80.27
X216.72Y-82.81
X216.72Y-85.35
X216.72Y-87.89
X216.72Y-90.43
X219.26Y-59.95
X219.26Y-62.49
X219.26Y-65.03
X219.26Y-67.57
X219.26Y-70.11
X219.26Y-72.65
X219.26Y-75.19
X219.26Y-77.73
X219.26Y-80.27
X219.26Y-82.81
X219.26Y-85.35
X219.26Y-87.89
X219.26Y-90.43
X219.44Y-111.375
X219.44Y-113.915
X219.44Y-116.455
T6
X192.565Y-111.25
X192.565Y-116.25
X202.565Y-113.75
X205.84Y-111.25
X205.84Y-116.25
X215.84Y-113.75
T0
M30
