%FSLAX45Y45*%
G04 Gerber Fmt 4.5, Leading zero omitted, Abs format (unit mm)*
G04 Created by KiCad (PCBNEW (5.1.9)-1) date 2022-11-15 19:47:58*
%MOMM*%
%LPD*%
G01*
G04 APERTURE LIST*
%TA.AperFunction,Profile*%
%ADD10C,0.050000*%
%TD*%
%ADD11C,0.200000*%
%ADD12C,0.300000*%
G04 APERTURE END LIST*
D10*
X1778000Y-16256000D02*
X1778000Y-2794000D01*
X21336000Y-17018000D02*
X2540000Y-17018000D01*
X22098000Y-2794000D02*
X22098000Y-16256000D01*
X2540000Y-2032000D02*
X21336000Y-2032000D01*
X2540000Y-17018000D02*
G75*
G02*
X1778000Y-16256000I0J762000D01*
G01*
X22098000Y-16256000D02*
G75*
G02*
X21336000Y-17018000I-762000J0D01*
G01*
X21336000Y-2032000D02*
G75*
G02*
X22098000Y-2794000I0J-762000D01*
G01*
X1778000Y-2794000D02*
G75*
G02*
X2540000Y-2032000I762000J0D01*
G01*
D11*
X3934000Y-10560000D02*
X3974000Y-10600000D01*
X3974000Y-10560000D02*
X3934000Y-10600000D01*
X5267000Y-9013000D02*
X5307000Y-9053000D01*
X5307000Y-9013000D02*
X5267000Y-9053000D01*
X8951000Y-14902000D02*
X8991000Y-14942000D01*
X8991000Y-14902000D02*
X8951000Y-14942000D01*
X8952000Y-4959000D02*
X8992000Y-4999000D01*
X8992000Y-4959000D02*
X8952000Y-4999000D01*
X8952000Y-6874000D02*
X8992000Y-6914000D01*
X8992000Y-6874000D02*
X8952000Y-6914000D01*
X8952000Y-9202000D02*
X8992000Y-9242000D01*
X8992000Y-9202000D02*
X8952000Y-9242000D01*
X8952000Y-11867000D02*
X8992000Y-11907000D01*
X8992000Y-11867000D02*
X8952000Y-11907000D01*
X8952000Y-14213000D02*
X8992000Y-14253000D01*
X8992000Y-14213000D02*
X8952000Y-14253000D01*
X9030000Y-14004000D02*
X9070000Y-14044000D01*
X9070000Y-14004000D02*
X9030000Y-14044000D01*
X9032000Y-14832000D02*
X9072000Y-14872000D01*
X9072000Y-14832000D02*
X9032000Y-14872000D01*
X9033000Y-5035000D02*
X9073000Y-5075000D01*
X9073000Y-5035000D02*
X9033000Y-5075000D01*
X9033000Y-6954000D02*
X9073000Y-6994000D01*
X9073000Y-6954000D02*
X9033000Y-6994000D01*
X9033140Y-11613860D02*
X9073140Y-11653860D01*
X9073140Y-11613860D02*
X9033140Y-11653860D01*
X9047195Y-9361861D02*
X9087195Y-9401861D01*
X9087195Y-9361861D02*
X9047195Y-9401861D01*
X9110000Y-11320000D02*
X9150000Y-11360000D01*
X9150000Y-11320000D02*
X9110000Y-11360000D01*
X9111000Y-14750000D02*
X9151000Y-14790000D01*
X9151000Y-14750000D02*
X9111000Y-14790000D01*
X9112000Y-5144000D02*
X9152000Y-5184000D01*
X9152000Y-5144000D02*
X9112000Y-5184000D01*
X9112000Y-7031000D02*
X9152000Y-7071000D01*
X9152000Y-7031000D02*
X9112000Y-7071000D01*
X9112000Y-9448000D02*
X9152000Y-9488000D01*
X9152000Y-9448000D02*
X9112000Y-9488000D01*
X9188000Y-5250000D02*
X9228000Y-5290000D01*
X9228000Y-5250000D02*
X9188000Y-5290000D01*
X9191000Y-14683000D02*
X9231000Y-14723000D01*
X9231000Y-14683000D02*
X9191000Y-14723000D01*
X9192000Y-7113000D02*
X9232000Y-7153000D01*
X9232000Y-7113000D02*
X9192000Y-7153000D01*
X9192000Y-9626000D02*
X9232000Y-9666000D01*
X9232000Y-9626000D02*
X9192000Y-9666000D01*
X9192000Y-11107000D02*
X9232000Y-11147000D01*
X9232000Y-11107000D02*
X9192000Y-11147000D01*
X9268601Y-5190304D02*
X9308601Y-5230304D01*
X9308601Y-5190304D02*
X9268601Y-5230304D01*
X9272000Y-7195000D02*
X9312000Y-7235000D01*
X9312000Y-7195000D02*
X9272000Y-7235000D01*
X9272000Y-9799000D02*
X9312000Y-9839000D01*
X9312000Y-9799000D02*
X9272000Y-9839000D01*
X9272000Y-10816000D02*
X9312000Y-10856000D01*
X9312000Y-10816000D02*
X9272000Y-10856000D01*
X9352000Y-7272000D02*
X9392000Y-7312000D01*
X9392000Y-7272000D02*
X9352000Y-7312000D01*
X9352000Y-10174000D02*
X9392000Y-10214000D01*
X9392000Y-10174000D02*
X9352000Y-10214000D01*
X9352000Y-10697000D02*
X9392000Y-10737000D01*
X9392000Y-10697000D02*
X9352000Y-10737000D01*
X9353000Y-5345000D02*
X9393000Y-5385000D01*
X9393000Y-5345000D02*
X9353000Y-5385000D01*
X9433000Y-5286000D02*
X9473000Y-5326000D01*
X9473000Y-5286000D02*
X9433000Y-5326000D01*
X9433000Y-7354000D02*
X9473000Y-7394000D01*
X9473000Y-7354000D02*
X9433000Y-7394000D01*
X9433000Y-10255000D02*
X9473000Y-10295000D01*
X9473000Y-10255000D02*
X9433000Y-10295000D01*
X9436000Y-10494000D02*
X9476000Y-10534000D01*
X9476000Y-10494000D02*
X9436000Y-10534000D01*
X9511000Y-5349000D02*
X9551000Y-5389000D01*
X9551000Y-5349000D02*
X9511000Y-5389000D01*
X9512000Y-7436000D02*
X9552000Y-7476000D01*
X9552000Y-7436000D02*
X9512000Y-7476000D01*
X9512000Y-10333000D02*
X9552000Y-10373000D01*
X9552000Y-10333000D02*
X9512000Y-10373000D01*
X9514588Y-10085205D02*
X9554588Y-10125205D01*
X9554588Y-10085205D02*
X9514588Y-10125205D01*
X9592000Y-7515000D02*
X9632000Y-7555000D01*
X9632000Y-7515000D02*
X9592000Y-7555000D01*
X9592000Y-10503000D02*
X9632000Y-10543000D01*
X9632000Y-10503000D02*
X9592000Y-10543000D01*
X9594000Y-5399000D02*
X9634000Y-5439000D01*
X9634000Y-5399000D02*
X9594000Y-5439000D01*
X9672000Y-5504000D02*
X9712000Y-5544000D01*
X9712000Y-5504000D02*
X9672000Y-5544000D01*
X9672000Y-7592000D02*
X9712000Y-7632000D01*
X9712000Y-7592000D02*
X9672000Y-7632000D01*
X9676234Y-10688439D02*
X9716234Y-10728439D01*
X9716234Y-10688439D02*
X9676234Y-10728439D01*
X9747631Y-8207139D02*
X9787631Y-8247139D01*
X9787631Y-8207139D02*
X9747631Y-8247139D01*
X9750000Y-5597000D02*
X9790000Y-5637000D01*
X9790000Y-5597000D02*
X9750000Y-5637000D01*
X9752000Y-7673000D02*
X9792000Y-7713000D01*
X9792000Y-7673000D02*
X9752000Y-7713000D01*
X9752000Y-11260000D02*
X9792000Y-11300000D01*
X9792000Y-11260000D02*
X9752000Y-11300000D01*
X9752000Y-14119000D02*
X9792000Y-14159000D01*
X9792000Y-14119000D02*
X9752000Y-14159000D01*
X9831000Y-5526000D02*
X9871000Y-5566000D01*
X9871000Y-5526000D02*
X9831000Y-5566000D01*
X9832000Y-7975000D02*
X9872000Y-8015000D01*
X9872000Y-7975000D02*
X9832000Y-8015000D01*
X9832000Y-8291000D02*
X9872000Y-8331000D01*
X9872000Y-8291000D02*
X9832000Y-8331000D01*
X9832000Y-10749000D02*
X9872000Y-10789000D01*
X9872000Y-10749000D02*
X9832000Y-10789000D01*
X9832000Y-11184000D02*
X9872000Y-11224000D01*
X9872000Y-11184000D02*
X9832000Y-11224000D01*
X9834000Y-13438861D02*
X9874000Y-13478861D01*
X9874000Y-13438861D02*
X9834000Y-13478861D01*
X9911000Y-5605000D02*
X9951000Y-5645000D01*
X9951000Y-5605000D02*
X9911000Y-5645000D01*
X9911000Y-11356000D02*
X9951000Y-11396000D01*
X9951000Y-11356000D02*
X9911000Y-11396000D01*
X9912000Y-6548000D02*
X9952000Y-6588000D01*
X9952000Y-6548000D02*
X9912000Y-6588000D01*
X9912000Y-9836000D02*
X9952000Y-9876000D01*
X9952000Y-9836000D02*
X9912000Y-9876000D01*
X9990860Y-11502140D02*
X10030860Y-11542140D01*
X10030860Y-11502140D02*
X9990860Y-11542140D01*
X9992000Y-6689000D02*
X10032000Y-6729000D01*
X10032000Y-6689000D02*
X9992000Y-6729000D01*
X9992000Y-7120000D02*
X10032000Y-7160000D01*
X10032000Y-7120000D02*
X9992000Y-7160000D01*
X9992000Y-9987000D02*
X10032000Y-10027000D01*
X10032000Y-9987000D02*
X9992000Y-10027000D01*
X9994000Y-5550000D02*
X10034000Y-5590000D01*
X10034000Y-5550000D02*
X9994000Y-5590000D01*
X10072000Y-6792000D02*
X10112000Y-6832000D01*
X10112000Y-6792000D02*
X10072000Y-6832000D01*
X10072000Y-9046000D02*
X10112000Y-9086000D01*
X10112000Y-9046000D02*
X10072000Y-9086000D01*
X10073000Y-11921000D02*
X10113000Y-11961000D01*
X10113000Y-11921000D02*
X10073000Y-11961000D01*
X10074000Y-5626112D02*
X10114000Y-5666112D01*
X10114000Y-5626112D02*
X10074000Y-5666112D01*
X10145659Y-6875341D02*
X10185659Y-6915341D01*
X10185659Y-6875341D02*
X10145659Y-6915341D01*
X10152000Y-12993000D02*
X10192000Y-13033000D01*
X10192000Y-12993000D02*
X10152000Y-13033000D01*
X10155000Y-5571000D02*
X10195000Y-5611000D01*
X10195000Y-5571000D02*
X10155000Y-5611000D01*
X10230000Y-14072000D02*
X10270000Y-14112000D01*
X10270000Y-14072000D02*
X10230000Y-14112000D01*
X10232000Y-6305000D02*
X10272000Y-6345000D01*
X10272000Y-6305000D02*
X10232000Y-6345000D01*
X10233000Y-10402861D02*
X10273000Y-10442861D01*
X10273000Y-10402861D02*
X10233000Y-10442861D01*
X10233000Y-11765000D02*
X10273000Y-11805000D01*
X10273000Y-11765000D02*
X10233000Y-11805000D01*
X10257000Y-4026000D02*
X10297000Y-4066000D01*
X10297000Y-4026000D02*
X10257000Y-4066000D01*
X10306000Y-14151000D02*
X10346000Y-14191000D01*
X10346000Y-14151000D02*
X10306000Y-14191000D01*
X10312000Y-6237000D02*
X10352000Y-6277000D01*
X10352000Y-6237000D02*
X10312000Y-6277000D01*
X10312000Y-10243000D02*
X10352000Y-10283000D01*
X10352000Y-10243000D02*
X10312000Y-10283000D01*
X10313000Y-12019000D02*
X10353000Y-12059000D01*
X10353000Y-12019000D02*
X10313000Y-12059000D01*
X10389000Y-14221000D02*
X10429000Y-14261000D01*
X10429000Y-14221000D02*
X10389000Y-14261000D01*
X10392000Y-6173000D02*
X10432000Y-6213000D01*
X10432000Y-6173000D02*
X10392000Y-6213000D01*
X10392000Y-10089000D02*
X10432000Y-10129000D01*
X10432000Y-10089000D02*
X10392000Y-10129000D01*
X10393000Y-12273000D02*
X10433000Y-12313000D01*
X10433000Y-12273000D02*
X10393000Y-12313000D01*
X10443000Y-3990550D02*
X10483000Y-4030550D01*
X10483000Y-3990550D02*
X10443000Y-4030550D01*
X10468000Y-14291000D02*
X10508000Y-14331000D01*
X10508000Y-14291000D02*
X10468000Y-14331000D01*
X10471000Y-6114000D02*
X10511000Y-6154000D01*
X10511000Y-6114000D02*
X10471000Y-6154000D01*
X10471000Y-9834000D02*
X10511000Y-9874000D01*
X10511000Y-9834000D02*
X10471000Y-9874000D01*
X10472000Y-12527000D02*
X10512000Y-12567000D01*
X10512000Y-12527000D02*
X10472000Y-12567000D01*
X10505861Y-3895308D02*
X10545861Y-3935308D01*
X10545861Y-3895308D02*
X10505861Y-3935308D01*
X10548000Y-14386000D02*
X10588000Y-14426000D01*
X10588000Y-14386000D02*
X10548000Y-14426000D01*
X10552000Y-9549000D02*
X10592000Y-9589000D01*
X10592000Y-9549000D02*
X10552000Y-9589000D01*
X10552000Y-12781000D02*
X10592000Y-12821000D01*
X10592000Y-12781000D02*
X10552000Y-12821000D01*
X10556115Y-6051139D02*
X10596115Y-6091139D01*
X10596115Y-6051139D02*
X10556115Y-6091139D01*
X10633000Y-5970000D02*
X10673000Y-6010000D01*
X10673000Y-5970000D02*
X10633000Y-6010000D01*
X10633000Y-9305000D02*
X10673000Y-9345000D01*
X10673000Y-9305000D02*
X10633000Y-9345000D01*
X10633000Y-12630000D02*
X10673000Y-12670000D01*
X10673000Y-12630000D02*
X10633000Y-12670000D01*
X10634000Y-14520000D02*
X10674000Y-14560000D01*
X10674000Y-14520000D02*
X10634000Y-14560000D01*
X10700000Y-3899000D02*
X10740000Y-3939000D01*
X10740000Y-3899000D02*
X10700000Y-3939000D01*
X10713000Y-9070000D02*
X10753000Y-9110000D01*
X10753000Y-9070000D02*
X10713000Y-9110000D01*
X10713140Y-12375860D02*
X10753140Y-12415860D01*
X10753140Y-12375860D02*
X10713140Y-12415860D01*
X10714000Y-14587000D02*
X10754000Y-14627000D01*
X10754000Y-14587000D02*
X10714000Y-14627000D01*
X10715871Y-5906134D02*
X10755871Y-5946134D01*
X10755871Y-5906134D02*
X10715871Y-5946134D01*
X10775000Y-3791000D02*
X10815000Y-3831000D01*
X10815000Y-3791000D02*
X10775000Y-3831000D01*
X10791000Y-8793000D02*
X10831000Y-8833000D01*
X10831000Y-8793000D02*
X10791000Y-8833000D01*
X10792000Y-5830000D02*
X10832000Y-5870000D01*
X10832000Y-5830000D02*
X10792000Y-5870000D01*
X10792000Y-12253000D02*
X10832000Y-12293000D01*
X10832000Y-12253000D02*
X10792000Y-12293000D01*
X10794000Y-14666000D02*
X10834000Y-14706000D01*
X10834000Y-14666000D02*
X10794000Y-14706000D01*
X10840000Y-3694000D02*
X10880000Y-3734000D01*
X10880000Y-3694000D02*
X10840000Y-3734000D01*
X10864497Y-14903497D02*
X10904497Y-14943497D01*
X10904497Y-14903497D02*
X10864497Y-14943497D01*
X10872000Y-5765344D02*
X10912000Y-5805344D01*
X10912000Y-5765344D02*
X10872000Y-5805344D01*
X10872000Y-7578861D02*
X10912000Y-7618861D01*
X10912000Y-7578861D02*
X10872000Y-7618861D01*
X10872000Y-9736000D02*
X10912000Y-9776000D01*
X10912000Y-9736000D02*
X10872000Y-9776000D01*
X10872000Y-13515342D02*
X10912000Y-13555342D01*
X10912000Y-13515342D02*
X10872000Y-13555342D01*
X10907000Y-3600000D02*
X10947000Y-3640000D01*
X10947000Y-3600000D02*
X10907000Y-3640000D01*
X10934861Y-7748000D02*
X10974861Y-7788000D01*
X10974861Y-7748000D02*
X10934861Y-7788000D01*
X10934861Y-11734861D02*
X10974861Y-11774861D01*
X10974861Y-11734861D02*
X10934861Y-11774861D01*
X10936000Y-12255000D02*
X10976000Y-12295000D01*
X10976000Y-12255000D02*
X10936000Y-12295000D01*
X10997000Y-3517000D02*
X11037000Y-3557000D01*
X11037000Y-3517000D02*
X10997000Y-3557000D01*
X11023001Y-13356861D02*
X11063001Y-13396861D01*
X11063001Y-13356861D02*
X11023001Y-13396861D01*
X11026000Y-7363000D02*
X11066000Y-7403000D01*
X11066000Y-7363000D02*
X11026000Y-7403000D01*
X11071000Y-3448861D02*
X11111000Y-3488861D01*
X11111000Y-3448861D02*
X11071000Y-3488861D01*
X11086000Y-4108000D02*
X11126000Y-4148000D01*
X11126000Y-4108000D02*
X11086000Y-4148000D01*
X11088882Y-5729483D02*
X11128882Y-5769483D01*
X11128882Y-5729483D02*
X11088882Y-5769483D01*
X11089000Y-6235000D02*
X11129000Y-6275000D01*
X11129000Y-6235000D02*
X11089000Y-6275000D01*
X11089000Y-14005000D02*
X11129000Y-14045000D01*
X11129000Y-14005000D02*
X11089000Y-14045000D01*
X11090773Y-13423777D02*
X11130773Y-13463777D01*
X11130773Y-13423777D02*
X11090773Y-13463777D01*
X11185000Y-7757000D02*
X11225000Y-7797000D01*
X11225000Y-7757000D02*
X11185000Y-7797000D01*
X11187000Y-6965000D02*
X11227000Y-7005000D01*
X11227000Y-6965000D02*
X11187000Y-7005000D01*
X11270000Y-13657000D02*
X11310000Y-13697000D01*
X11310000Y-13657000D02*
X11270000Y-13697000D01*
X11338000Y-14142000D02*
X11378000Y-14182000D01*
X11378000Y-14142000D02*
X11338000Y-14182000D01*
X11398208Y-10998099D02*
X11438208Y-11038099D01*
X11438208Y-10998099D02*
X11398208Y-11038099D01*
X11398208Y-12243792D02*
X11438208Y-12283792D01*
X11438208Y-12243792D02*
X11398208Y-12283792D01*
X11427050Y-10896950D02*
X11467050Y-10936950D01*
X11467050Y-10896950D02*
X11427050Y-10936950D01*
X11473000Y-13397861D02*
X11513000Y-13437861D01*
X11513000Y-13397861D02*
X11473000Y-13437861D01*
X12223000Y-13158000D02*
X12263000Y-13198000D01*
X12263000Y-13158000D02*
X12223000Y-13198000D01*
X12530000Y-12892000D02*
X12570000Y-12932000D01*
X12570000Y-12892000D02*
X12530000Y-12932000D01*
X12763759Y-8319952D02*
X12803759Y-8359952D01*
X12803759Y-8319952D02*
X12763759Y-8359952D01*
X12779000Y-5970000D02*
X12819000Y-6010000D01*
X12819000Y-5970000D02*
X12779000Y-6010000D01*
X12859000Y-8319000D02*
X12899000Y-8359000D01*
X12899000Y-8319000D02*
X12859000Y-8359000D01*
X13244000Y-3817000D02*
X13284000Y-3857000D01*
X13284000Y-3817000D02*
X13244000Y-3857000D01*
X13627861Y-3707000D02*
X13667861Y-3747000D01*
X13667861Y-3707000D02*
X13627861Y-3747000D01*
X13750139Y-3972000D02*
X13790139Y-4012000D01*
X13790139Y-3972000D02*
X13750139Y-4012000D01*
X14386139Y-6625000D02*
X14426139Y-6665000D01*
X14426139Y-6625000D02*
X14386139Y-6665000D01*
X14751739Y-4298261D02*
X14791739Y-4338261D01*
X14791739Y-4298261D02*
X14751739Y-4338261D01*
X14756500Y-6142500D02*
X14796500Y-6182500D01*
X14796500Y-6142500D02*
X14756500Y-6182500D01*
X14884000Y-15805000D02*
X14924000Y-15845000D01*
X14924000Y-15805000D02*
X14884000Y-15845000D01*
X16704000Y-4663000D02*
X16744000Y-4703000D01*
X16744000Y-4663000D02*
X16704000Y-4703000D01*
X17465880Y-2934880D02*
X17505880Y-2974880D01*
X17505880Y-2934880D02*
X17465880Y-2974880D01*
X17475000Y-12452000D02*
X17515000Y-12492000D01*
X17515000Y-12452000D02*
X17475000Y-12492000D01*
X18112000Y-12660000D02*
X18152000Y-12700000D01*
X18152000Y-12660000D02*
X18112000Y-12700000D01*
X19405500Y-12544500D02*
X19445500Y-12584500D01*
X19445500Y-12544500D02*
X19405500Y-12584500D01*
X2149000Y-13918000D02*
G75*
G03*
X2149000Y-13918000I-40000J0D01*
G01*
X2150000Y-14553000D02*
G75*
G03*
X2150000Y-14553000I-40000J0D01*
G01*
X2150000Y-15311000D02*
G75*
G03*
X2150000Y-15311000I-40000J0D01*
G01*
X2175000Y-12275000D02*
G75*
G03*
X2175000Y-12275000I-40000J0D01*
G01*
X2175000Y-12781000D02*
G75*
G03*
X2175000Y-12781000I-40000J0D01*
G01*
X2175000Y-13031000D02*
G75*
G03*
X2175000Y-13031000I-40000J0D01*
G01*
X2303000Y-5292000D02*
G75*
G03*
X2303000Y-5292000I-40000J0D01*
G01*
X2303000Y-6816000D02*
G75*
G03*
X2303000Y-6816000I-40000J0D01*
G01*
X2670000Y-12777000D02*
G75*
G03*
X2670000Y-12777000I-40000J0D01*
G01*
X2670000Y-13031000D02*
G75*
G03*
X2670000Y-13031000I-40000J0D01*
G01*
X2670000Y-13285000D02*
G75*
G03*
X2670000Y-13285000I-40000J0D01*
G01*
X2670000Y-13539000D02*
G75*
G03*
X2670000Y-13539000I-40000J0D01*
G01*
X2911000Y-13918000D02*
G75*
G03*
X2911000Y-13918000I-40000J0D01*
G01*
X2912000Y-14553000D02*
G75*
G03*
X2912000Y-14553000I-40000J0D01*
G01*
X2912000Y-15311000D02*
G75*
G03*
X2912000Y-15311000I-40000J0D01*
G01*
X2937000Y-12275000D02*
G75*
G03*
X2937000Y-12275000I-40000J0D01*
G01*
X3065000Y-5292000D02*
G75*
G03*
X3065000Y-5292000I-40000J0D01*
G01*
X3065000Y-6816000D02*
G75*
G03*
X3065000Y-6816000I-40000J0D01*
G01*
X3307000Y-14112000D02*
G75*
G03*
X3307000Y-14112000I-40000J0D01*
G01*
X3323000Y-14866000D02*
G75*
G03*
X3323000Y-14866000I-40000J0D01*
G01*
X3432000Y-12777000D02*
G75*
G03*
X3432000Y-12777000I-40000J0D01*
G01*
X3432000Y-13031000D02*
G75*
G03*
X3432000Y-13031000I-40000J0D01*
G01*
X3432000Y-13285000D02*
G75*
G03*
X3432000Y-13285000I-40000J0D01*
G01*
X3432000Y-13539000D02*
G75*
G03*
X3432000Y-13539000I-40000J0D01*
G01*
X3557000Y-14112000D02*
G75*
G03*
X3557000Y-14112000I-40000J0D01*
G01*
X3573000Y-14866000D02*
G75*
G03*
X3573000Y-14866000I-40000J0D01*
G01*
X4038000Y-6481000D02*
G75*
G03*
X4038000Y-6481000I-40000J0D01*
G01*
X4038000Y-8005000D02*
G75*
G03*
X4038000Y-8005000I-40000J0D01*
G01*
X4038000Y-13677000D02*
G75*
G03*
X4038000Y-13677000I-40000J0D01*
G01*
X4038000Y-15201000D02*
G75*
G03*
X4038000Y-15201000I-40000J0D01*
G01*
X4269000Y-8582000D02*
G75*
G03*
X4269000Y-8582000I-40000J0D01*
G01*
X4292000Y-6481000D02*
G75*
G03*
X4292000Y-6481000I-40000J0D01*
G01*
X4292000Y-8005000D02*
G75*
G03*
X4292000Y-8005000I-40000J0D01*
G01*
X4292000Y-13677000D02*
G75*
G03*
X4292000Y-13677000I-40000J0D01*
G01*
X4292000Y-15201000D02*
G75*
G03*
X4292000Y-15201000I-40000J0D01*
G01*
X4546000Y-6481000D02*
G75*
G03*
X4546000Y-6481000I-40000J0D01*
G01*
X4546000Y-8005000D02*
G75*
G03*
X4546000Y-8005000I-40000J0D01*
G01*
X4546000Y-13677000D02*
G75*
G03*
X4546000Y-13677000I-40000J0D01*
G01*
X4546000Y-15201000D02*
G75*
G03*
X4546000Y-15201000I-40000J0D01*
G01*
X4572000Y-2576500D02*
G75*
G03*
X4572000Y-2576500I-40000J0D01*
G01*
X4572000Y-2826500D02*
G75*
G03*
X4572000Y-2826500I-40000J0D01*
G01*
X4744000Y-9499000D02*
G75*
G03*
X4744000Y-9499000I-40000J0D01*
G01*
X4744000Y-9753000D02*
G75*
G03*
X4744000Y-9753000I-40000J0D01*
G01*
X4744000Y-10007000D02*
G75*
G03*
X4744000Y-10007000I-40000J0D01*
G01*
X4744000Y-10261000D02*
G75*
G03*
X4744000Y-10261000I-40000J0D01*
G01*
X4744000Y-10515000D02*
G75*
G03*
X4744000Y-10515000I-40000J0D01*
G01*
X4744000Y-10769000D02*
G75*
G03*
X4744000Y-10769000I-40000J0D01*
G01*
X4744000Y-11023000D02*
G75*
G03*
X4744000Y-11023000I-40000J0D01*
G01*
X4744000Y-11277000D02*
G75*
G03*
X4744000Y-11277000I-40000J0D01*
G01*
X4744000Y-11531000D02*
G75*
G03*
X4744000Y-11531000I-40000J0D01*
G01*
X4744000Y-11785000D02*
G75*
G03*
X4744000Y-11785000I-40000J0D01*
G01*
X4744000Y-12039000D02*
G75*
G03*
X4744000Y-12039000I-40000J0D01*
G01*
X4744000Y-12293000D02*
G75*
G03*
X4744000Y-12293000I-40000J0D01*
G01*
X4744000Y-12547000D02*
G75*
G03*
X4744000Y-12547000I-40000J0D01*
G01*
X4744000Y-12801000D02*
G75*
G03*
X4744000Y-12801000I-40000J0D01*
G01*
X4800000Y-6481000D02*
G75*
G03*
X4800000Y-6481000I-40000J0D01*
G01*
X4800000Y-8005000D02*
G75*
G03*
X4800000Y-8005000I-40000J0D01*
G01*
X4800000Y-13677000D02*
G75*
G03*
X4800000Y-13677000I-40000J0D01*
G01*
X4800000Y-15201000D02*
G75*
G03*
X4800000Y-15201000I-40000J0D01*
G01*
X5031000Y-8582000D02*
G75*
G03*
X5031000Y-8582000I-40000J0D01*
G01*
X5054000Y-6481000D02*
G75*
G03*
X5054000Y-6481000I-40000J0D01*
G01*
X5054000Y-8005000D02*
G75*
G03*
X5054000Y-8005000I-40000J0D01*
G01*
X5054000Y-13677000D02*
G75*
G03*
X5054000Y-13677000I-40000J0D01*
G01*
X5054000Y-15201000D02*
G75*
G03*
X5054000Y-15201000I-40000J0D01*
G01*
X5308000Y-6481000D02*
G75*
G03*
X5308000Y-6481000I-40000J0D01*
G01*
X5308000Y-8005000D02*
G75*
G03*
X5308000Y-8005000I-40000J0D01*
G01*
X5308000Y-13677000D02*
G75*
G03*
X5308000Y-13677000I-40000J0D01*
G01*
X5308000Y-15201000D02*
G75*
G03*
X5308000Y-15201000I-40000J0D01*
G01*
X5318000Y-8582000D02*
G75*
G03*
X5318000Y-8582000I-40000J0D01*
G01*
X5562000Y-6481000D02*
G75*
G03*
X5562000Y-6481000I-40000J0D01*
G01*
X5562000Y-8005000D02*
G75*
G03*
X5562000Y-8005000I-40000J0D01*
G01*
X5562000Y-13677000D02*
G75*
G03*
X5562000Y-13677000I-40000J0D01*
G01*
X5562000Y-15201000D02*
G75*
G03*
X5562000Y-15201000I-40000J0D01*
G01*
X5816000Y-6481000D02*
G75*
G03*
X5816000Y-6481000I-40000J0D01*
G01*
X5816000Y-8005000D02*
G75*
G03*
X5816000Y-8005000I-40000J0D01*
G01*
X5816000Y-13677000D02*
G75*
G03*
X5816000Y-13677000I-40000J0D01*
G01*
X5816000Y-15201000D02*
G75*
G03*
X5816000Y-15201000I-40000J0D01*
G01*
X6070000Y-6481000D02*
G75*
G03*
X6070000Y-6481000I-40000J0D01*
G01*
X6070000Y-8005000D02*
G75*
G03*
X6070000Y-8005000I-40000J0D01*
G01*
X6070000Y-13677000D02*
G75*
G03*
X6070000Y-13677000I-40000J0D01*
G01*
X6070000Y-15201000D02*
G75*
G03*
X6070000Y-15201000I-40000J0D01*
G01*
X6080000Y-8582000D02*
G75*
G03*
X6080000Y-8582000I-40000J0D01*
G01*
X6268000Y-9499000D02*
G75*
G03*
X6268000Y-9499000I-40000J0D01*
G01*
X6268000Y-9753000D02*
G75*
G03*
X6268000Y-9753000I-40000J0D01*
G01*
X6268000Y-10007000D02*
G75*
G03*
X6268000Y-10007000I-40000J0D01*
G01*
X6268000Y-10261000D02*
G75*
G03*
X6268000Y-10261000I-40000J0D01*
G01*
X6268000Y-10515000D02*
G75*
G03*
X6268000Y-10515000I-40000J0D01*
G01*
X6268000Y-10769000D02*
G75*
G03*
X6268000Y-10769000I-40000J0D01*
G01*
X6268000Y-11023000D02*
G75*
G03*
X6268000Y-11023000I-40000J0D01*
G01*
X6268000Y-11277000D02*
G75*
G03*
X6268000Y-11277000I-40000J0D01*
G01*
X6268000Y-11531000D02*
G75*
G03*
X6268000Y-11531000I-40000J0D01*
G01*
X6268000Y-11785000D02*
G75*
G03*
X6268000Y-11785000I-40000J0D01*
G01*
X6268000Y-12039000D02*
G75*
G03*
X6268000Y-12039000I-40000J0D01*
G01*
X6268000Y-12293000D02*
G75*
G03*
X6268000Y-12293000I-40000J0D01*
G01*
X6268000Y-12547000D02*
G75*
G03*
X6268000Y-12547000I-40000J0D01*
G01*
X6268000Y-12801000D02*
G75*
G03*
X6268000Y-12801000I-40000J0D01*
G01*
X6324000Y-6481000D02*
G75*
G03*
X6324000Y-6481000I-40000J0D01*
G01*
X6324000Y-8005000D02*
G75*
G03*
X6324000Y-8005000I-40000J0D01*
G01*
X6324000Y-13677000D02*
G75*
G03*
X6324000Y-13677000I-40000J0D01*
G01*
X6324000Y-15201000D02*
G75*
G03*
X6324000Y-15201000I-40000J0D01*
G01*
X6390000Y-8581000D02*
G75*
G03*
X6390000Y-8581000I-40000J0D01*
G01*
X6578000Y-6481000D02*
G75*
G03*
X6578000Y-6481000I-40000J0D01*
G01*
X6578000Y-8005000D02*
G75*
G03*
X6578000Y-8005000I-40000J0D01*
G01*
X6578000Y-13677000D02*
G75*
G03*
X6578000Y-13677000I-40000J0D01*
G01*
X6578000Y-15201000D02*
G75*
G03*
X6578000Y-15201000I-40000J0D01*
G01*
X6640000Y-8581000D02*
G75*
G03*
X6640000Y-8581000I-40000J0D01*
G01*
X6832000Y-6481000D02*
G75*
G03*
X6832000Y-6481000I-40000J0D01*
G01*
X6832000Y-8005000D02*
G75*
G03*
X6832000Y-8005000I-40000J0D01*
G01*
X6832000Y-13677000D02*
G75*
G03*
X6832000Y-13677000I-40000J0D01*
G01*
X6832000Y-15201000D02*
G75*
G03*
X6832000Y-15201000I-40000J0D01*
G01*
X7037000Y-9206000D02*
G75*
G03*
X7037000Y-9206000I-40000J0D01*
G01*
X7046000Y-9499000D02*
G75*
G03*
X7046000Y-9499000I-40000J0D01*
G01*
X7046000Y-9753000D02*
G75*
G03*
X7046000Y-9753000I-40000J0D01*
G01*
X7046000Y-10007000D02*
G75*
G03*
X7046000Y-10007000I-40000J0D01*
G01*
X7046000Y-10261000D02*
G75*
G03*
X7046000Y-10261000I-40000J0D01*
G01*
X7046000Y-10515000D02*
G75*
G03*
X7046000Y-10515000I-40000J0D01*
G01*
X7046000Y-10769000D02*
G75*
G03*
X7046000Y-10769000I-40000J0D01*
G01*
X7046000Y-11023000D02*
G75*
G03*
X7046000Y-11023000I-40000J0D01*
G01*
X7046000Y-11277000D02*
G75*
G03*
X7046000Y-11277000I-40000J0D01*
G01*
X7046000Y-11531000D02*
G75*
G03*
X7046000Y-11531000I-40000J0D01*
G01*
X7046000Y-11785000D02*
G75*
G03*
X7046000Y-11785000I-40000J0D01*
G01*
X7046000Y-12039000D02*
G75*
G03*
X7046000Y-12039000I-40000J0D01*
G01*
X7046000Y-12293000D02*
G75*
G03*
X7046000Y-12293000I-40000J0D01*
G01*
X7046000Y-12547000D02*
G75*
G03*
X7046000Y-12547000I-40000J0D01*
G01*
X7046000Y-12801000D02*
G75*
G03*
X7046000Y-12801000I-40000J0D01*
G01*
X7086000Y-6481000D02*
G75*
G03*
X7086000Y-6481000I-40000J0D01*
G01*
X7086000Y-8005000D02*
G75*
G03*
X7086000Y-8005000I-40000J0D01*
G01*
X7086000Y-13677000D02*
G75*
G03*
X7086000Y-13677000I-40000J0D01*
G01*
X7086000Y-15201000D02*
G75*
G03*
X7086000Y-15201000I-40000J0D01*
G01*
X7287000Y-9206000D02*
G75*
G03*
X7287000Y-9206000I-40000J0D01*
G01*
X7340000Y-6481000D02*
G75*
G03*
X7340000Y-6481000I-40000J0D01*
G01*
X7340000Y-8005000D02*
G75*
G03*
X7340000Y-8005000I-40000J0D01*
G01*
X7340000Y-13677000D02*
G75*
G03*
X7340000Y-13677000I-40000J0D01*
G01*
X7340000Y-15201000D02*
G75*
G03*
X7340000Y-15201000I-40000J0D01*
G01*
X7594000Y-6481000D02*
G75*
G03*
X7594000Y-6481000I-40000J0D01*
G01*
X7594000Y-8005000D02*
G75*
G03*
X7594000Y-8005000I-40000J0D01*
G01*
X7594000Y-13677000D02*
G75*
G03*
X7594000Y-13677000I-40000J0D01*
G01*
X7594000Y-15201000D02*
G75*
G03*
X7594000Y-15201000I-40000J0D01*
G01*
X7848000Y-6481000D02*
G75*
G03*
X7848000Y-6481000I-40000J0D01*
G01*
X7848000Y-8005000D02*
G75*
G03*
X7848000Y-8005000I-40000J0D01*
G01*
X7848000Y-13677000D02*
G75*
G03*
X7848000Y-13677000I-40000J0D01*
G01*
X7848000Y-15201000D02*
G75*
G03*
X7848000Y-15201000I-40000J0D01*
G01*
X8007000Y-3268000D02*
G75*
G03*
X8007000Y-3268000I-40000J0D01*
G01*
X8007000Y-4030000D02*
G75*
G03*
X8007000Y-4030000I-40000J0D01*
G01*
X8102000Y-6481000D02*
G75*
G03*
X8102000Y-6481000I-40000J0D01*
G01*
X8102000Y-8005000D02*
G75*
G03*
X8102000Y-8005000I-40000J0D01*
G01*
X8102000Y-13677000D02*
G75*
G03*
X8102000Y-13677000I-40000J0D01*
G01*
X8102000Y-15201000D02*
G75*
G03*
X8102000Y-15201000I-40000J0D01*
G01*
X8356000Y-6481000D02*
G75*
G03*
X8356000Y-6481000I-40000J0D01*
G01*
X8356000Y-8005000D02*
G75*
G03*
X8356000Y-8005000I-40000J0D01*
G01*
X8356000Y-13677000D02*
G75*
G03*
X8356000Y-13677000I-40000J0D01*
G01*
X8356000Y-15201000D02*
G75*
G03*
X8356000Y-15201000I-40000J0D01*
G01*
X8570000Y-9499000D02*
G75*
G03*
X8570000Y-9499000I-40000J0D01*
G01*
X8570000Y-9753000D02*
G75*
G03*
X8570000Y-9753000I-40000J0D01*
G01*
X8570000Y-10007000D02*
G75*
G03*
X8570000Y-10007000I-40000J0D01*
G01*
X8570000Y-10261000D02*
G75*
G03*
X8570000Y-10261000I-40000J0D01*
G01*
X8570000Y-10515000D02*
G75*
G03*
X8570000Y-10515000I-40000J0D01*
G01*
X8570000Y-10769000D02*
G75*
G03*
X8570000Y-10769000I-40000J0D01*
G01*
X8570000Y-11023000D02*
G75*
G03*
X8570000Y-11023000I-40000J0D01*
G01*
X8570000Y-11277000D02*
G75*
G03*
X8570000Y-11277000I-40000J0D01*
G01*
X8570000Y-11531000D02*
G75*
G03*
X8570000Y-11531000I-40000J0D01*
G01*
X8570000Y-11785000D02*
G75*
G03*
X8570000Y-11785000I-40000J0D01*
G01*
X8570000Y-12039000D02*
G75*
G03*
X8570000Y-12039000I-40000J0D01*
G01*
X8570000Y-12293000D02*
G75*
G03*
X8570000Y-12293000I-40000J0D01*
G01*
X8570000Y-12547000D02*
G75*
G03*
X8570000Y-12547000I-40000J0D01*
G01*
X8570000Y-12801000D02*
G75*
G03*
X8570000Y-12801000I-40000J0D01*
G01*
X8575000Y-9202000D02*
G75*
G03*
X8575000Y-9202000I-40000J0D01*
G01*
X8610000Y-6481000D02*
G75*
G03*
X8610000Y-6481000I-40000J0D01*
G01*
X8610000Y-8005000D02*
G75*
G03*
X8610000Y-8005000I-40000J0D01*
G01*
X8610000Y-13677000D02*
G75*
G03*
X8610000Y-13677000I-40000J0D01*
G01*
X8610000Y-15201000D02*
G75*
G03*
X8610000Y-15201000I-40000J0D01*
G01*
X8614000Y-15734000D02*
G75*
G03*
X8614000Y-15734000I-40000J0D01*
G01*
X8825000Y-9202000D02*
G75*
G03*
X8825000Y-9202000I-40000J0D01*
G01*
X8864000Y-6481000D02*
G75*
G03*
X8864000Y-6481000I-40000J0D01*
G01*
X8864000Y-8005000D02*
G75*
G03*
X8864000Y-8005000I-40000J0D01*
G01*
X8864000Y-13677000D02*
G75*
G03*
X8864000Y-13677000I-40000J0D01*
G01*
X8864000Y-15201000D02*
G75*
G03*
X8864000Y-15201000I-40000J0D01*
G01*
X8864000Y-15734000D02*
G75*
G03*
X8864000Y-15734000I-40000J0D01*
G01*
X9420000Y-3197000D02*
G75*
G03*
X9420000Y-3197000I-40000J0D01*
G01*
X9420000Y-4721000D02*
G75*
G03*
X9420000Y-4721000I-40000J0D01*
G01*
X9674000Y-3197000D02*
G75*
G03*
X9674000Y-3197000I-40000J0D01*
G01*
X9674000Y-4721000D02*
G75*
G03*
X9674000Y-4721000I-40000J0D01*
G01*
X9928000Y-3197000D02*
G75*
G03*
X9928000Y-3197000I-40000J0D01*
G01*
X9928000Y-4721000D02*
G75*
G03*
X9928000Y-4721000I-40000J0D01*
G01*
X10182000Y-3197000D02*
G75*
G03*
X10182000Y-3197000I-40000J0D01*
G01*
X10182000Y-4721000D02*
G75*
G03*
X10182000Y-4721000I-40000J0D01*
G01*
X10436000Y-3197000D02*
G75*
G03*
X10436000Y-3197000I-40000J0D01*
G01*
X10436000Y-4721000D02*
G75*
G03*
X10436000Y-4721000I-40000J0D01*
G01*
X10690000Y-3197000D02*
G75*
G03*
X10690000Y-3197000I-40000J0D01*
G01*
X10690000Y-4721000D02*
G75*
G03*
X10690000Y-4721000I-40000J0D01*
G01*
X10944000Y-3197000D02*
G75*
G03*
X10944000Y-3197000I-40000J0D01*
G01*
X10944000Y-4721000D02*
G75*
G03*
X10944000Y-4721000I-40000J0D01*
G01*
X11198000Y-3197000D02*
G75*
G03*
X11198000Y-3197000I-40000J0D01*
G01*
X11198000Y-4721000D02*
G75*
G03*
X11198000Y-4721000I-40000J0D01*
G01*
X11370000Y-6111000D02*
G75*
G03*
X11370000Y-6111000I-40000J0D01*
G01*
X11452000Y-3197000D02*
G75*
G03*
X11452000Y-3197000I-40000J0D01*
G01*
X11452000Y-4721000D02*
G75*
G03*
X11452000Y-4721000I-40000J0D01*
G01*
X11612000Y-6508000D02*
G75*
G03*
X11612000Y-6508000I-40000J0D01*
G01*
X11612000Y-6762000D02*
G75*
G03*
X11612000Y-6762000I-40000J0D01*
G01*
X11612000Y-7016000D02*
G75*
G03*
X11612000Y-7016000I-40000J0D01*
G01*
X11612000Y-7270000D02*
G75*
G03*
X11612000Y-7270000I-40000J0D01*
G01*
X11612000Y-7524000D02*
G75*
G03*
X11612000Y-7524000I-40000J0D01*
G01*
X11612000Y-7778000D02*
G75*
G03*
X11612000Y-7778000I-40000J0D01*
G01*
X11612000Y-8032000D02*
G75*
G03*
X11612000Y-8032000I-40000J0D01*
G01*
X11612000Y-13681000D02*
G75*
G03*
X11612000Y-13681000I-40000J0D01*
G01*
X11612000Y-15205000D02*
G75*
G03*
X11612000Y-15205000I-40000J0D01*
G01*
X11628000Y-15734000D02*
G75*
G03*
X11628000Y-15734000I-40000J0D01*
G01*
X11706000Y-3197000D02*
G75*
G03*
X11706000Y-3197000I-40000J0D01*
G01*
X11706000Y-4721000D02*
G75*
G03*
X11706000Y-4721000I-40000J0D01*
G01*
X11866000Y-13681000D02*
G75*
G03*
X11866000Y-13681000I-40000J0D01*
G01*
X11866000Y-15205000D02*
G75*
G03*
X11866000Y-15205000I-40000J0D01*
G01*
X11878000Y-15734000D02*
G75*
G03*
X11878000Y-15734000I-40000J0D01*
G01*
X11960000Y-3197000D02*
G75*
G03*
X11960000Y-3197000I-40000J0D01*
G01*
X11960000Y-4721000D02*
G75*
G03*
X11960000Y-4721000I-40000J0D01*
G01*
X12120000Y-13681000D02*
G75*
G03*
X12120000Y-13681000I-40000J0D01*
G01*
X12120000Y-15205000D02*
G75*
G03*
X12120000Y-15205000I-40000J0D01*
G01*
X12132000Y-6111000D02*
G75*
G03*
X12132000Y-6111000I-40000J0D01*
G01*
X12214000Y-3197000D02*
G75*
G03*
X12214000Y-3197000I-40000J0D01*
G01*
X12214000Y-4721000D02*
G75*
G03*
X12214000Y-4721000I-40000J0D01*
G01*
X12374000Y-6508000D02*
G75*
G03*
X12374000Y-6508000I-40000J0D01*
G01*
X12374000Y-6762000D02*
G75*
G03*
X12374000Y-6762000I-40000J0D01*
G01*
X12374000Y-7016000D02*
G75*
G03*
X12374000Y-7016000I-40000J0D01*
G01*
X12374000Y-7270000D02*
G75*
G03*
X12374000Y-7270000I-40000J0D01*
G01*
X12374000Y-7524000D02*
G75*
G03*
X12374000Y-7524000I-40000J0D01*
G01*
X12374000Y-7778000D02*
G75*
G03*
X12374000Y-7778000I-40000J0D01*
G01*
X12374000Y-8032000D02*
G75*
G03*
X12374000Y-8032000I-40000J0D01*
G01*
X12374000Y-13681000D02*
G75*
G03*
X12374000Y-13681000I-40000J0D01*
G01*
X12374000Y-15205000D02*
G75*
G03*
X12374000Y-15205000I-40000J0D01*
G01*
X12376000Y-6111000D02*
G75*
G03*
X12376000Y-6111000I-40000J0D01*
G01*
X12468000Y-3197000D02*
G75*
G03*
X12468000Y-3197000I-40000J0D01*
G01*
X12468000Y-4721000D02*
G75*
G03*
X12468000Y-4721000I-40000J0D01*
G01*
X12626000Y-6111000D02*
G75*
G03*
X12626000Y-6111000I-40000J0D01*
G01*
X12628000Y-13681000D02*
G75*
G03*
X12628000Y-13681000I-40000J0D01*
G01*
X12628000Y-15205000D02*
G75*
G03*
X12628000Y-15205000I-40000J0D01*
G01*
X12722000Y-3197000D02*
G75*
G03*
X12722000Y-3197000I-40000J0D01*
G01*
X12722000Y-4721000D02*
G75*
G03*
X12722000Y-4721000I-40000J0D01*
G01*
X12752000Y-8541000D02*
G75*
G03*
X12752000Y-8541000I-40000J0D01*
G01*
X12752000Y-9303000D02*
G75*
G03*
X12752000Y-9303000I-40000J0D01*
G01*
X12752000Y-9822667D02*
G75*
G03*
X12752000Y-9822667I-40000J0D01*
G01*
X12752000Y-10584667D02*
G75*
G03*
X12752000Y-10584667I-40000J0D01*
G01*
X12752000Y-11104333D02*
G75*
G03*
X12752000Y-11104333I-40000J0D01*
G01*
X12752000Y-11866333D02*
G75*
G03*
X12752000Y-11866333I-40000J0D01*
G01*
X12752000Y-12386000D02*
G75*
G03*
X12752000Y-12386000I-40000J0D01*
G01*
X12752000Y-13148000D02*
G75*
G03*
X12752000Y-13148000I-40000J0D01*
G01*
X12882000Y-13681000D02*
G75*
G03*
X12882000Y-13681000I-40000J0D01*
G01*
X12882000Y-15205000D02*
G75*
G03*
X12882000Y-15205000I-40000J0D01*
G01*
X12944000Y-6508000D02*
G75*
G03*
X12944000Y-6508000I-40000J0D01*
G01*
X12944000Y-6762000D02*
G75*
G03*
X12944000Y-6762000I-40000J0D01*
G01*
X12944000Y-7016000D02*
G75*
G03*
X12944000Y-7016000I-40000J0D01*
G01*
X12944000Y-7270000D02*
G75*
G03*
X12944000Y-7270000I-40000J0D01*
G01*
X12944000Y-7524000D02*
G75*
G03*
X12944000Y-7524000I-40000J0D01*
G01*
X12944000Y-7778000D02*
G75*
G03*
X12944000Y-7778000I-40000J0D01*
G01*
X12944000Y-8032000D02*
G75*
G03*
X12944000Y-8032000I-40000J0D01*
G01*
X12976000Y-3197000D02*
G75*
G03*
X12976000Y-3197000I-40000J0D01*
G01*
X12976000Y-4721000D02*
G75*
G03*
X12976000Y-4721000I-40000J0D01*
G01*
X13006000Y-8541000D02*
G75*
G03*
X13006000Y-8541000I-40000J0D01*
G01*
X13006000Y-9303000D02*
G75*
G03*
X13006000Y-9303000I-40000J0D01*
G01*
X13006000Y-9822667D02*
G75*
G03*
X13006000Y-9822667I-40000J0D01*
G01*
X13006000Y-10584667D02*
G75*
G03*
X13006000Y-10584667I-40000J0D01*
G01*
X13006000Y-11104333D02*
G75*
G03*
X13006000Y-11104333I-40000J0D01*
G01*
X13006000Y-11866333D02*
G75*
G03*
X13006000Y-11866333I-40000J0D01*
G01*
X13006000Y-12386000D02*
G75*
G03*
X13006000Y-12386000I-40000J0D01*
G01*
X13006000Y-13148000D02*
G75*
G03*
X13006000Y-13148000I-40000J0D01*
G01*
X13136000Y-13681000D02*
G75*
G03*
X13136000Y-13681000I-40000J0D01*
G01*
X13136000Y-15205000D02*
G75*
G03*
X13136000Y-15205000I-40000J0D01*
G01*
X13230000Y-3197000D02*
G75*
G03*
X13230000Y-3197000I-40000J0D01*
G01*
X13230000Y-4721000D02*
G75*
G03*
X13230000Y-4721000I-40000J0D01*
G01*
X13260000Y-8541000D02*
G75*
G03*
X13260000Y-8541000I-40000J0D01*
G01*
X13260000Y-9303000D02*
G75*
G03*
X13260000Y-9303000I-40000J0D01*
G01*
X13260000Y-9822667D02*
G75*
G03*
X13260000Y-9822667I-40000J0D01*
G01*
X13260000Y-10584667D02*
G75*
G03*
X13260000Y-10584667I-40000J0D01*
G01*
X13260000Y-11104333D02*
G75*
G03*
X13260000Y-11104333I-40000J0D01*
G01*
X13260000Y-11866333D02*
G75*
G03*
X13260000Y-11866333I-40000J0D01*
G01*
X13260000Y-12386000D02*
G75*
G03*
X13260000Y-12386000I-40000J0D01*
G01*
X13260000Y-13148000D02*
G75*
G03*
X13260000Y-13148000I-40000J0D01*
G01*
X13390000Y-13681000D02*
G75*
G03*
X13390000Y-13681000I-40000J0D01*
G01*
X13390000Y-15205000D02*
G75*
G03*
X13390000Y-15205000I-40000J0D01*
G01*
X13484000Y-3197000D02*
G75*
G03*
X13484000Y-3197000I-40000J0D01*
G01*
X13484000Y-4721000D02*
G75*
G03*
X13484000Y-4721000I-40000J0D01*
G01*
X13514000Y-8541000D02*
G75*
G03*
X13514000Y-8541000I-40000J0D01*
G01*
X13514000Y-9303000D02*
G75*
G03*
X13514000Y-9303000I-40000J0D01*
G01*
X13514000Y-9822667D02*
G75*
G03*
X13514000Y-9822667I-40000J0D01*
G01*
X13514000Y-10584667D02*
G75*
G03*
X13514000Y-10584667I-40000J0D01*
G01*
X13514000Y-11104333D02*
G75*
G03*
X13514000Y-11104333I-40000J0D01*
G01*
X13514000Y-11866333D02*
G75*
G03*
X13514000Y-11866333I-40000J0D01*
G01*
X13514000Y-12386000D02*
G75*
G03*
X13514000Y-12386000I-40000J0D01*
G01*
X13514000Y-13148000D02*
G75*
G03*
X13514000Y-13148000I-40000J0D01*
G01*
X13644000Y-13681000D02*
G75*
G03*
X13644000Y-13681000I-40000J0D01*
G01*
X13644000Y-15205000D02*
G75*
G03*
X13644000Y-15205000I-40000J0D01*
G01*
X13706000Y-6508000D02*
G75*
G03*
X13706000Y-6508000I-40000J0D01*
G01*
X13706000Y-6762000D02*
G75*
G03*
X13706000Y-6762000I-40000J0D01*
G01*
X13706000Y-7016000D02*
G75*
G03*
X13706000Y-7016000I-40000J0D01*
G01*
X13706000Y-7270000D02*
G75*
G03*
X13706000Y-7270000I-40000J0D01*
G01*
X13706000Y-7524000D02*
G75*
G03*
X13706000Y-7524000I-40000J0D01*
G01*
X13706000Y-7778000D02*
G75*
G03*
X13706000Y-7778000I-40000J0D01*
G01*
X13706000Y-8032000D02*
G75*
G03*
X13706000Y-8032000I-40000J0D01*
G01*
X13738000Y-3197000D02*
G75*
G03*
X13738000Y-3197000I-40000J0D01*
G01*
X13738000Y-4721000D02*
G75*
G03*
X13738000Y-4721000I-40000J0D01*
G01*
X13768000Y-8541000D02*
G75*
G03*
X13768000Y-8541000I-40000J0D01*
G01*
X13768000Y-9303000D02*
G75*
G03*
X13768000Y-9303000I-40000J0D01*
G01*
X13768000Y-9822667D02*
G75*
G03*
X13768000Y-9822667I-40000J0D01*
G01*
X13768000Y-10584667D02*
G75*
G03*
X13768000Y-10584667I-40000J0D01*
G01*
X13768000Y-11104333D02*
G75*
G03*
X13768000Y-11104333I-40000J0D01*
G01*
X13768000Y-11866333D02*
G75*
G03*
X13768000Y-11866333I-40000J0D01*
G01*
X13768000Y-12386000D02*
G75*
G03*
X13768000Y-12386000I-40000J0D01*
G01*
X13768000Y-13148000D02*
G75*
G03*
X13768000Y-13148000I-40000J0D01*
G01*
X13898000Y-13681000D02*
G75*
G03*
X13898000Y-13681000I-40000J0D01*
G01*
X13898000Y-15205000D02*
G75*
G03*
X13898000Y-15205000I-40000J0D01*
G01*
X13946000Y-6111000D02*
G75*
G03*
X13946000Y-6111000I-40000J0D01*
G01*
X13992000Y-3197000D02*
G75*
G03*
X13992000Y-3197000I-40000J0D01*
G01*
X13992000Y-4721000D02*
G75*
G03*
X13992000Y-4721000I-40000J0D01*
G01*
X14022000Y-8541000D02*
G75*
G03*
X14022000Y-8541000I-40000J0D01*
G01*
X14022000Y-9303000D02*
G75*
G03*
X14022000Y-9303000I-40000J0D01*
G01*
X14022000Y-9822667D02*
G75*
G03*
X14022000Y-9822667I-40000J0D01*
G01*
X14022000Y-10584667D02*
G75*
G03*
X14022000Y-10584667I-40000J0D01*
G01*
X14022000Y-11104333D02*
G75*
G03*
X14022000Y-11104333I-40000J0D01*
G01*
X14022000Y-11866333D02*
G75*
G03*
X14022000Y-11866333I-40000J0D01*
G01*
X14022000Y-12386000D02*
G75*
G03*
X14022000Y-12386000I-40000J0D01*
G01*
X14022000Y-13148000D02*
G75*
G03*
X14022000Y-13148000I-40000J0D01*
G01*
X14152000Y-13681000D02*
G75*
G03*
X14152000Y-13681000I-40000J0D01*
G01*
X14152000Y-15205000D02*
G75*
G03*
X14152000Y-15205000I-40000J0D01*
G01*
X14196000Y-6111000D02*
G75*
G03*
X14196000Y-6111000I-40000J0D01*
G01*
X14246000Y-3197000D02*
G75*
G03*
X14246000Y-3197000I-40000J0D01*
G01*
X14246000Y-4721000D02*
G75*
G03*
X14246000Y-4721000I-40000J0D01*
G01*
X14276000Y-6508000D02*
G75*
G03*
X14276000Y-6508000I-40000J0D01*
G01*
X14276000Y-6762000D02*
G75*
G03*
X14276000Y-6762000I-40000J0D01*
G01*
X14276000Y-7016000D02*
G75*
G03*
X14276000Y-7016000I-40000J0D01*
G01*
X14276000Y-7270000D02*
G75*
G03*
X14276000Y-7270000I-40000J0D01*
G01*
X14276000Y-7524000D02*
G75*
G03*
X14276000Y-7524000I-40000J0D01*
G01*
X14276000Y-7778000D02*
G75*
G03*
X14276000Y-7778000I-40000J0D01*
G01*
X14276000Y-8032000D02*
G75*
G03*
X14276000Y-8032000I-40000J0D01*
G01*
X14276000Y-8541000D02*
G75*
G03*
X14276000Y-8541000I-40000J0D01*
G01*
X14276000Y-9303000D02*
G75*
G03*
X14276000Y-9303000I-40000J0D01*
G01*
X14276000Y-9822667D02*
G75*
G03*
X14276000Y-9822667I-40000J0D01*
G01*
X14276000Y-10584667D02*
G75*
G03*
X14276000Y-10584667I-40000J0D01*
G01*
X14276000Y-11104333D02*
G75*
G03*
X14276000Y-11104333I-40000J0D01*
G01*
X14276000Y-11866333D02*
G75*
G03*
X14276000Y-11866333I-40000J0D01*
G01*
X14276000Y-12386000D02*
G75*
G03*
X14276000Y-12386000I-40000J0D01*
G01*
X14276000Y-13148000D02*
G75*
G03*
X14276000Y-13148000I-40000J0D01*
G01*
X14406000Y-13681000D02*
G75*
G03*
X14406000Y-13681000I-40000J0D01*
G01*
X14406000Y-15205000D02*
G75*
G03*
X14406000Y-15205000I-40000J0D01*
G01*
X14530000Y-8541000D02*
G75*
G03*
X14530000Y-8541000I-40000J0D01*
G01*
X14530000Y-9303000D02*
G75*
G03*
X14530000Y-9303000I-40000J0D01*
G01*
X14530000Y-9822667D02*
G75*
G03*
X14530000Y-9822667I-40000J0D01*
G01*
X14530000Y-10584667D02*
G75*
G03*
X14530000Y-10584667I-40000J0D01*
G01*
X14530000Y-11104333D02*
G75*
G03*
X14530000Y-11104333I-40000J0D01*
G01*
X14530000Y-11866333D02*
G75*
G03*
X14530000Y-11866333I-40000J0D01*
G01*
X14530000Y-12386000D02*
G75*
G03*
X14530000Y-12386000I-40000J0D01*
G01*
X14530000Y-13148000D02*
G75*
G03*
X14530000Y-13148000I-40000J0D01*
G01*
X14641000Y-3441000D02*
G75*
G03*
X14641000Y-3441000I-40000J0D01*
G01*
X14641000Y-3691000D02*
G75*
G03*
X14641000Y-3691000I-40000J0D01*
G01*
X14660000Y-13681000D02*
G75*
G03*
X14660000Y-13681000I-40000J0D01*
G01*
X14660000Y-15205000D02*
G75*
G03*
X14660000Y-15205000I-40000J0D01*
G01*
X14784000Y-8541000D02*
G75*
G03*
X14784000Y-8541000I-40000J0D01*
G01*
X14784000Y-9303000D02*
G75*
G03*
X14784000Y-9303000I-40000J0D01*
G01*
X14784000Y-9822667D02*
G75*
G03*
X14784000Y-9822667I-40000J0D01*
G01*
X14784000Y-10584667D02*
G75*
G03*
X14784000Y-10584667I-40000J0D01*
G01*
X14784000Y-11104333D02*
G75*
G03*
X14784000Y-11104333I-40000J0D01*
G01*
X14784000Y-11866333D02*
G75*
G03*
X14784000Y-11866333I-40000J0D01*
G01*
X14784000Y-12386000D02*
G75*
G03*
X14784000Y-12386000I-40000J0D01*
G01*
X14784000Y-13148000D02*
G75*
G03*
X14784000Y-13148000I-40000J0D01*
G01*
X14914000Y-13681000D02*
G75*
G03*
X14914000Y-13681000I-40000J0D01*
G01*
X14914000Y-15205000D02*
G75*
G03*
X14914000Y-15205000I-40000J0D01*
G01*
X15038000Y-6508000D02*
G75*
G03*
X15038000Y-6508000I-40000J0D01*
G01*
X15038000Y-6762000D02*
G75*
G03*
X15038000Y-6762000I-40000J0D01*
G01*
X15038000Y-7016000D02*
G75*
G03*
X15038000Y-7016000I-40000J0D01*
G01*
X15038000Y-7270000D02*
G75*
G03*
X15038000Y-7270000I-40000J0D01*
G01*
X15038000Y-7524000D02*
G75*
G03*
X15038000Y-7524000I-40000J0D01*
G01*
X15038000Y-7778000D02*
G75*
G03*
X15038000Y-7778000I-40000J0D01*
G01*
X15038000Y-8032000D02*
G75*
G03*
X15038000Y-8032000I-40000J0D01*
G01*
X15038000Y-8541000D02*
G75*
G03*
X15038000Y-8541000I-40000J0D01*
G01*
X15038000Y-9303000D02*
G75*
G03*
X15038000Y-9303000I-40000J0D01*
G01*
X15038000Y-9822667D02*
G75*
G03*
X15038000Y-9822667I-40000J0D01*
G01*
X15038000Y-10584667D02*
G75*
G03*
X15038000Y-10584667I-40000J0D01*
G01*
X15038000Y-11104333D02*
G75*
G03*
X15038000Y-11104333I-40000J0D01*
G01*
X15038000Y-11866333D02*
G75*
G03*
X15038000Y-11866333I-40000J0D01*
G01*
X15038000Y-12386000D02*
G75*
G03*
X15038000Y-12386000I-40000J0D01*
G01*
X15038000Y-13148000D02*
G75*
G03*
X15038000Y-13148000I-40000J0D01*
G01*
X15063000Y-6111000D02*
G75*
G03*
X15063000Y-6111000I-40000J0D01*
G01*
X15313000Y-6111000D02*
G75*
G03*
X15313000Y-6111000I-40000J0D01*
G01*
X15589000Y-14059000D02*
G75*
G03*
X15589000Y-14059000I-40000J0D01*
G01*
X15589000Y-14821000D02*
G75*
G03*
X15589000Y-14821000I-40000J0D01*
G01*
X15613000Y-2677000D02*
G75*
G03*
X15613000Y-2677000I-40000J0D01*
G01*
X15613000Y-3439000D02*
G75*
G03*
X15613000Y-3439000I-40000J0D01*
G01*
X15737700Y-5168300D02*
G75*
G03*
X15737700Y-5168300I-40000J0D01*
G01*
X15737700Y-5422300D02*
G75*
G03*
X15737700Y-5422300I-40000J0D01*
G01*
X15737700Y-5676300D02*
G75*
G03*
X15737700Y-5676300I-40000J0D01*
G01*
X15737700Y-5930300D02*
G75*
G03*
X15737700Y-5930300I-40000J0D01*
G01*
X15737700Y-6184300D02*
G75*
G03*
X15737700Y-6184300I-40000J0D01*
G01*
X15737700Y-6438300D02*
G75*
G03*
X15737700Y-6438300I-40000J0D01*
G01*
X15737700Y-6692300D02*
G75*
G03*
X15737700Y-6692300I-40000J0D01*
G01*
X15737700Y-6946300D02*
G75*
G03*
X15737700Y-6946300I-40000J0D01*
G01*
X15737700Y-7200300D02*
G75*
G03*
X15737700Y-7200300I-40000J0D01*
G01*
X15737700Y-7454300D02*
G75*
G03*
X15737700Y-7454300I-40000J0D01*
G01*
X15867000Y-2677000D02*
G75*
G03*
X15867000Y-2677000I-40000J0D01*
G01*
X15867000Y-3439000D02*
G75*
G03*
X15867000Y-3439000I-40000J0D01*
G01*
X15995700Y-4752000D02*
G75*
G03*
X15995700Y-4752000I-40000J0D01*
G01*
X16121000Y-2677000D02*
G75*
G03*
X16121000Y-2677000I-40000J0D01*
G01*
X16121000Y-3439000D02*
G75*
G03*
X16121000Y-3439000I-40000J0D01*
G01*
X16245700Y-4752000D02*
G75*
G03*
X16245700Y-4752000I-40000J0D01*
G01*
X16267300Y-8680500D02*
G75*
G03*
X16267300Y-8680500I-40000J0D01*
G01*
X16267300Y-8934500D02*
G75*
G03*
X16267300Y-8934500I-40000J0D01*
G01*
X16267300Y-9188500D02*
G75*
G03*
X16267300Y-9188500I-40000J0D01*
G01*
X16267300Y-9442500D02*
G75*
G03*
X16267300Y-9442500I-40000J0D01*
G01*
X16267300Y-9696500D02*
G75*
G03*
X16267300Y-9696500I-40000J0D01*
G01*
X16267300Y-9950500D02*
G75*
G03*
X16267300Y-9950500I-40000J0D01*
G01*
X16267300Y-10204500D02*
G75*
G03*
X16267300Y-10204500I-40000J0D01*
G01*
X16267300Y-10458500D02*
G75*
G03*
X16267300Y-10458500I-40000J0D01*
G01*
X16267300Y-10712500D02*
G75*
G03*
X16267300Y-10712500I-40000J0D01*
G01*
X16267300Y-11286500D02*
G75*
G03*
X16267300Y-11286500I-40000J0D01*
G01*
X16267300Y-11540500D02*
G75*
G03*
X16267300Y-11540500I-40000J0D01*
G01*
X16267300Y-11794500D02*
G75*
G03*
X16267300Y-11794500I-40000J0D01*
G01*
X16267300Y-12048500D02*
G75*
G03*
X16267300Y-12048500I-40000J0D01*
G01*
X16267300Y-12302500D02*
G75*
G03*
X16267300Y-12302500I-40000J0D01*
G01*
X16267300Y-12556500D02*
G75*
G03*
X16267300Y-12556500I-40000J0D01*
G01*
X16267300Y-12810500D02*
G75*
G03*
X16267300Y-12810500I-40000J0D01*
G01*
X16267300Y-13064500D02*
G75*
G03*
X16267300Y-13064500I-40000J0D01*
G01*
X16267300Y-13318500D02*
G75*
G03*
X16267300Y-13318500I-40000J0D01*
G01*
X16375000Y-2677000D02*
G75*
G03*
X16375000Y-2677000I-40000J0D01*
G01*
X16375000Y-3439000D02*
G75*
G03*
X16375000Y-3439000I-40000J0D01*
G01*
X16499700Y-5168300D02*
G75*
G03*
X16499700Y-5168300I-40000J0D01*
G01*
X16499700Y-5422300D02*
G75*
G03*
X16499700Y-5422300I-40000J0D01*
G01*
X16499700Y-5676300D02*
G75*
G03*
X16499700Y-5676300I-40000J0D01*
G01*
X16499700Y-5930300D02*
G75*
G03*
X16499700Y-5930300I-40000J0D01*
G01*
X16499700Y-6184300D02*
G75*
G03*
X16499700Y-6184300I-40000J0D01*
G01*
X16499700Y-6438300D02*
G75*
G03*
X16499700Y-6438300I-40000J0D01*
G01*
X16499700Y-6692300D02*
G75*
G03*
X16499700Y-6692300I-40000J0D01*
G01*
X16499700Y-6946300D02*
G75*
G03*
X16499700Y-6946300I-40000J0D01*
G01*
X16499700Y-7200300D02*
G75*
G03*
X16499700Y-7200300I-40000J0D01*
G01*
X16499700Y-7454300D02*
G75*
G03*
X16499700Y-7454300I-40000J0D01*
G01*
X16629000Y-2677000D02*
G75*
G03*
X16629000Y-2677000I-40000J0D01*
G01*
X16629000Y-3439000D02*
G75*
G03*
X16629000Y-3439000I-40000J0D01*
G01*
X16737300Y-8678500D02*
G75*
G03*
X16737300Y-8678500I-40000J0D01*
G01*
X16737300Y-8932500D02*
G75*
G03*
X16737300Y-8932500I-40000J0D01*
G01*
X16737300Y-9186500D02*
G75*
G03*
X16737300Y-9186500I-40000J0D01*
G01*
X16737300Y-9440500D02*
G75*
G03*
X16737300Y-9440500I-40000J0D01*
G01*
X16737300Y-9694500D02*
G75*
G03*
X16737300Y-9694500I-40000J0D01*
G01*
X16737300Y-9948500D02*
G75*
G03*
X16737300Y-9948500I-40000J0D01*
G01*
X16737300Y-10202500D02*
G75*
G03*
X16737300Y-10202500I-40000J0D01*
G01*
X16737300Y-10456500D02*
G75*
G03*
X16737300Y-10456500I-40000J0D01*
G01*
X16737300Y-10710500D02*
G75*
G03*
X16737300Y-10710500I-40000J0D01*
G01*
X16737300Y-11286500D02*
G75*
G03*
X16737300Y-11286500I-40000J0D01*
G01*
X16737300Y-11540500D02*
G75*
G03*
X16737300Y-11540500I-40000J0D01*
G01*
X16737300Y-11794500D02*
G75*
G03*
X16737300Y-11794500I-40000J0D01*
G01*
X16737300Y-12048500D02*
G75*
G03*
X16737300Y-12048500I-40000J0D01*
G01*
X16737300Y-12302500D02*
G75*
G03*
X16737300Y-12302500I-40000J0D01*
G01*
X16737300Y-12556500D02*
G75*
G03*
X16737300Y-12556500I-40000J0D01*
G01*
X16737300Y-12810500D02*
G75*
G03*
X16737300Y-12810500I-40000J0D01*
G01*
X16737300Y-13064500D02*
G75*
G03*
X16737300Y-13064500I-40000J0D01*
G01*
X16737300Y-13318500D02*
G75*
G03*
X16737300Y-13318500I-40000J0D01*
G01*
X16883000Y-2677000D02*
G75*
G03*
X16883000Y-2677000I-40000J0D01*
G01*
X16883000Y-3439000D02*
G75*
G03*
X16883000Y-3439000I-40000J0D01*
G01*
X17058300Y-5168300D02*
G75*
G03*
X17058300Y-5168300I-40000J0D01*
G01*
X17058300Y-5422300D02*
G75*
G03*
X17058300Y-5422300I-40000J0D01*
G01*
X17058300Y-5676300D02*
G75*
G03*
X17058300Y-5676300I-40000J0D01*
G01*
X17058300Y-5930300D02*
G75*
G03*
X17058300Y-5930300I-40000J0D01*
G01*
X17058300Y-6184300D02*
G75*
G03*
X17058300Y-6184300I-40000J0D01*
G01*
X17058300Y-6438300D02*
G75*
G03*
X17058300Y-6438300I-40000J0D01*
G01*
X17058300Y-6692300D02*
G75*
G03*
X17058300Y-6692300I-40000J0D01*
G01*
X17058300Y-6946300D02*
G75*
G03*
X17058300Y-6946300I-40000J0D01*
G01*
X17058300Y-7200300D02*
G75*
G03*
X17058300Y-7200300I-40000J0D01*
G01*
X17058300Y-7454300D02*
G75*
G03*
X17058300Y-7454300I-40000J0D01*
G01*
X17068900Y-12156500D02*
G75*
G03*
X17068900Y-12156500I-40000J0D01*
G01*
X17068900Y-12918500D02*
G75*
G03*
X17068900Y-12918500I-40000J0D01*
G01*
X17113000Y-14059000D02*
G75*
G03*
X17113000Y-14059000I-40000J0D01*
G01*
X17113000Y-14821000D02*
G75*
G03*
X17113000Y-14821000I-40000J0D01*
G01*
X17128400Y-10124500D02*
G75*
G03*
X17128400Y-10124500I-40000J0D01*
G01*
X17128400Y-10378500D02*
G75*
G03*
X17128400Y-10378500I-40000J0D01*
G01*
X17128400Y-10632500D02*
G75*
G03*
X17128400Y-10632500I-40000J0D01*
G01*
X17128400Y-10886500D02*
G75*
G03*
X17128400Y-10886500I-40000J0D01*
G01*
X17128400Y-11458000D02*
G75*
G03*
X17128400Y-11458000I-40000J0D01*
G01*
X17137000Y-2677000D02*
G75*
G03*
X17137000Y-2677000I-40000J0D01*
G01*
X17137000Y-3439000D02*
G75*
G03*
X17137000Y-3439000I-40000J0D01*
G01*
X17155400Y-8786500D02*
G75*
G03*
X17155400Y-8786500I-40000J0D01*
G01*
X17155400Y-9562000D02*
G75*
G03*
X17155400Y-9562000I-40000J0D01*
G01*
X17378400Y-11458000D02*
G75*
G03*
X17378400Y-11458000I-40000J0D01*
G01*
X17391000Y-2677000D02*
G75*
G03*
X17391000Y-2677000I-40000J0D01*
G01*
X17391000Y-3439000D02*
G75*
G03*
X17391000Y-3439000I-40000J0D01*
G01*
X17405400Y-8786500D02*
G75*
G03*
X17405400Y-8786500I-40000J0D01*
G01*
X17405400Y-9562000D02*
G75*
G03*
X17405400Y-9562000I-40000J0D01*
G01*
X17487000Y-4752000D02*
G75*
G03*
X17487000Y-4752000I-40000J0D01*
G01*
X17507900Y-12156500D02*
G75*
G03*
X17507900Y-12156500I-40000J0D01*
G01*
X17507900Y-12918500D02*
G75*
G03*
X17507900Y-12918500I-40000J0D01*
G01*
X17645000Y-2677000D02*
G75*
G03*
X17645000Y-2677000I-40000J0D01*
G01*
X17645000Y-3439000D02*
G75*
G03*
X17645000Y-3439000I-40000J0D01*
G01*
X17694400Y-11458000D02*
G75*
G03*
X17694400Y-11458000I-40000J0D01*
G01*
X17737000Y-4752000D02*
G75*
G03*
X17737000Y-4752000I-40000J0D01*
G01*
X17804900Y-8655500D02*
G75*
G03*
X17804900Y-8655500I-40000J0D01*
G01*
X17804900Y-9417500D02*
G75*
G03*
X17804900Y-9417500I-40000J0D01*
G01*
X17820300Y-5168300D02*
G75*
G03*
X17820300Y-5168300I-40000J0D01*
G01*
X17820300Y-5422300D02*
G75*
G03*
X17820300Y-5422300I-40000J0D01*
G01*
X17820300Y-5676300D02*
G75*
G03*
X17820300Y-5676300I-40000J0D01*
G01*
X17820300Y-5930300D02*
G75*
G03*
X17820300Y-5930300I-40000J0D01*
G01*
X17820300Y-6184300D02*
G75*
G03*
X17820300Y-6184300I-40000J0D01*
G01*
X17820300Y-6438300D02*
G75*
G03*
X17820300Y-6438300I-40000J0D01*
G01*
X17820300Y-6692300D02*
G75*
G03*
X17820300Y-6692300I-40000J0D01*
G01*
X17820300Y-6946300D02*
G75*
G03*
X17820300Y-6946300I-40000J0D01*
G01*
X17820300Y-7200300D02*
G75*
G03*
X17820300Y-7200300I-40000J0D01*
G01*
X17820300Y-7454300D02*
G75*
G03*
X17820300Y-7454300I-40000J0D01*
G01*
X17890400Y-10124500D02*
G75*
G03*
X17890400Y-10124500I-40000J0D01*
G01*
X17890400Y-10378500D02*
G75*
G03*
X17890400Y-10378500I-40000J0D01*
G01*
X17890400Y-10632500D02*
G75*
G03*
X17890400Y-10632500I-40000J0D01*
G01*
X17890400Y-10886500D02*
G75*
G03*
X17890400Y-10886500I-40000J0D01*
G01*
X17899000Y-2677000D02*
G75*
G03*
X17899000Y-2677000I-40000J0D01*
G01*
X17899000Y-3439000D02*
G75*
G03*
X17899000Y-3439000I-40000J0D01*
G01*
X17944400Y-11458000D02*
G75*
G03*
X17944400Y-11458000I-40000J0D01*
G01*
X17946900Y-12156500D02*
G75*
G03*
X17946900Y-12156500I-40000J0D01*
G01*
X17946900Y-12918500D02*
G75*
G03*
X17946900Y-12918500I-40000J0D01*
G01*
X18203400Y-8655500D02*
G75*
G03*
X18203400Y-8655500I-40000J0D01*
G01*
X18203400Y-9417500D02*
G75*
G03*
X18203400Y-9417500I-40000J0D01*
G01*
X18243000Y-3439000D02*
G75*
G03*
X18243000Y-3439000I-40000J0D01*
G01*
X18385900Y-12156500D02*
G75*
G03*
X18385900Y-12156500I-40000J0D01*
G01*
X18385900Y-12918500D02*
G75*
G03*
X18385900Y-12918500I-40000J0D01*
G01*
X18389000Y-5168300D02*
G75*
G03*
X18389000Y-5168300I-40000J0D01*
G01*
X18389000Y-5422300D02*
G75*
G03*
X18389000Y-5422300I-40000J0D01*
G01*
X18389000Y-5676300D02*
G75*
G03*
X18389000Y-5676300I-40000J0D01*
G01*
X18389000Y-5930300D02*
G75*
G03*
X18389000Y-5930300I-40000J0D01*
G01*
X18389000Y-6184300D02*
G75*
G03*
X18389000Y-6184300I-40000J0D01*
G01*
X18389000Y-6438300D02*
G75*
G03*
X18389000Y-6438300I-40000J0D01*
G01*
X18389000Y-6692300D02*
G75*
G03*
X18389000Y-6692300I-40000J0D01*
G01*
X18389000Y-6946300D02*
G75*
G03*
X18389000Y-6946300I-40000J0D01*
G01*
X18389000Y-7200300D02*
G75*
G03*
X18389000Y-7200300I-40000J0D01*
G01*
X18389000Y-7454300D02*
G75*
G03*
X18389000Y-7454300I-40000J0D01*
G01*
X18406400Y-10124500D02*
G75*
G03*
X18406400Y-10124500I-40000J0D01*
G01*
X18406400Y-10378500D02*
G75*
G03*
X18406400Y-10378500I-40000J0D01*
G01*
X18406400Y-10632500D02*
G75*
G03*
X18406400Y-10632500I-40000J0D01*
G01*
X18406400Y-10886500D02*
G75*
G03*
X18406400Y-10886500I-40000J0D01*
G01*
X18406400Y-11458000D02*
G75*
G03*
X18406400Y-11458000I-40000J0D01*
G01*
X18493000Y-3452000D02*
G75*
G03*
X18493000Y-3452000I-40000J0D01*
G01*
X18601900Y-8655500D02*
G75*
G03*
X18601900Y-8655500I-40000J0D01*
G01*
X18601900Y-9417500D02*
G75*
G03*
X18601900Y-9417500I-40000J0D01*
G01*
X18656400Y-11458000D02*
G75*
G03*
X18656400Y-11458000I-40000J0D01*
G01*
X18824900Y-12156500D02*
G75*
G03*
X18824900Y-12156500I-40000J0D01*
G01*
X18824900Y-12918500D02*
G75*
G03*
X18824900Y-12918500I-40000J0D01*
G01*
X18968400Y-11458000D02*
G75*
G03*
X18968400Y-11458000I-40000J0D01*
G01*
X19000400Y-8655500D02*
G75*
G03*
X19000400Y-8655500I-40000J0D01*
G01*
X19000400Y-9417500D02*
G75*
G03*
X19000400Y-9417500I-40000J0D01*
G01*
X19151000Y-4752000D02*
G75*
G03*
X19151000Y-4752000I-40000J0D01*
G01*
X19151000Y-5168300D02*
G75*
G03*
X19151000Y-5168300I-40000J0D01*
G01*
X19151000Y-5422300D02*
G75*
G03*
X19151000Y-5422300I-40000J0D01*
G01*
X19151000Y-5676300D02*
G75*
G03*
X19151000Y-5676300I-40000J0D01*
G01*
X19151000Y-5930300D02*
G75*
G03*
X19151000Y-5930300I-40000J0D01*
G01*
X19151000Y-6184300D02*
G75*
G03*
X19151000Y-6184300I-40000J0D01*
G01*
X19151000Y-6438300D02*
G75*
G03*
X19151000Y-6438300I-40000J0D01*
G01*
X19151000Y-6692300D02*
G75*
G03*
X19151000Y-6692300I-40000J0D01*
G01*
X19151000Y-6946300D02*
G75*
G03*
X19151000Y-6946300I-40000J0D01*
G01*
X19151000Y-7200300D02*
G75*
G03*
X19151000Y-7200300I-40000J0D01*
G01*
X19151000Y-7454300D02*
G75*
G03*
X19151000Y-7454300I-40000J0D01*
G01*
X19168400Y-10124500D02*
G75*
G03*
X19168400Y-10124500I-40000J0D01*
G01*
X19168400Y-10378500D02*
G75*
G03*
X19168400Y-10378500I-40000J0D01*
G01*
X19168400Y-10632500D02*
G75*
G03*
X19168400Y-10632500I-40000J0D01*
G01*
X19168400Y-10886500D02*
G75*
G03*
X19168400Y-10886500I-40000J0D01*
G01*
X19218400Y-11458000D02*
G75*
G03*
X19218400Y-11458000I-40000J0D01*
G01*
X19250400Y-12156500D02*
G75*
G03*
X19250400Y-12156500I-40000J0D01*
G01*
X19250400Y-12918500D02*
G75*
G03*
X19250400Y-12918500I-40000J0D01*
G01*
X19398900Y-8655500D02*
G75*
G03*
X19398900Y-8655500I-40000J0D01*
G01*
X19398900Y-9417500D02*
G75*
G03*
X19398900Y-9417500I-40000J0D01*
G01*
X19401000Y-4752000D02*
G75*
G03*
X19401000Y-4752000I-40000J0D01*
G01*
X19651000Y-3935000D02*
G75*
G03*
X19651000Y-3935000I-40000J0D01*
G01*
X19658300Y-5168300D02*
G75*
G03*
X19658300Y-5168300I-40000J0D01*
G01*
X19658300Y-5422300D02*
G75*
G03*
X19658300Y-5422300I-40000J0D01*
G01*
X19658300Y-5676300D02*
G75*
G03*
X19658300Y-5676300I-40000J0D01*
G01*
X19658300Y-5930300D02*
G75*
G03*
X19658300Y-5930300I-40000J0D01*
G01*
X19658300Y-6184300D02*
G75*
G03*
X19658300Y-6184300I-40000J0D01*
G01*
X19658300Y-6438300D02*
G75*
G03*
X19658300Y-6438300I-40000J0D01*
G01*
X19658300Y-6692300D02*
G75*
G03*
X19658300Y-6692300I-40000J0D01*
G01*
X19658300Y-6946300D02*
G75*
G03*
X19658300Y-6946300I-40000J0D01*
G01*
X19658300Y-7200300D02*
G75*
G03*
X19658300Y-7200300I-40000J0D01*
G01*
X19658300Y-7454300D02*
G75*
G03*
X19658300Y-7454300I-40000J0D01*
G01*
X19684400Y-10124500D02*
G75*
G03*
X19684400Y-10124500I-40000J0D01*
G01*
X19684400Y-10378500D02*
G75*
G03*
X19684400Y-10378500I-40000J0D01*
G01*
X19684400Y-10632500D02*
G75*
G03*
X19684400Y-10632500I-40000J0D01*
G01*
X19684400Y-10886500D02*
G75*
G03*
X19684400Y-10886500I-40000J0D01*
G01*
X19684400Y-11458000D02*
G75*
G03*
X19684400Y-11458000I-40000J0D01*
G01*
X19684400Y-12187500D02*
G75*
G03*
X19684400Y-12187500I-40000J0D01*
G01*
X19684400Y-12441500D02*
G75*
G03*
X19684400Y-12441500I-40000J0D01*
G01*
X19684400Y-12695500D02*
G75*
G03*
X19684400Y-12695500I-40000J0D01*
G01*
X19684400Y-12949500D02*
G75*
G03*
X19684400Y-12949500I-40000J0D01*
G01*
X19684400Y-13203500D02*
G75*
G03*
X19684400Y-13203500I-40000J0D01*
G01*
X19684400Y-13457500D02*
G75*
G03*
X19684400Y-13457500I-40000J0D01*
G01*
X19684400Y-13711500D02*
G75*
G03*
X19684400Y-13711500I-40000J0D01*
G01*
X19797400Y-8655500D02*
G75*
G03*
X19797400Y-8655500I-40000J0D01*
G01*
X19797400Y-9417500D02*
G75*
G03*
X19797400Y-9417500I-40000J0D01*
G01*
X19901000Y-3935000D02*
G75*
G03*
X19901000Y-3935000I-40000J0D01*
G01*
X19934400Y-11458000D02*
G75*
G03*
X19934400Y-11458000I-40000J0D01*
G01*
X20195900Y-8655500D02*
G75*
G03*
X20195900Y-8655500I-40000J0D01*
G01*
X20195900Y-9417500D02*
G75*
G03*
X20195900Y-9417500I-40000J0D01*
G01*
X20250400Y-11458000D02*
G75*
G03*
X20250400Y-11458000I-40000J0D01*
G01*
X20374300Y-4752000D02*
G75*
G03*
X20374300Y-4752000I-40000J0D01*
G01*
X20420300Y-5168300D02*
G75*
G03*
X20420300Y-5168300I-40000J0D01*
G01*
X20420300Y-5422300D02*
G75*
G03*
X20420300Y-5422300I-40000J0D01*
G01*
X20420300Y-5676300D02*
G75*
G03*
X20420300Y-5676300I-40000J0D01*
G01*
X20420300Y-5930300D02*
G75*
G03*
X20420300Y-5930300I-40000J0D01*
G01*
X20420300Y-6184300D02*
G75*
G03*
X20420300Y-6184300I-40000J0D01*
G01*
X20420300Y-6438300D02*
G75*
G03*
X20420300Y-6438300I-40000J0D01*
G01*
X20420300Y-6692300D02*
G75*
G03*
X20420300Y-6692300I-40000J0D01*
G01*
X20420300Y-6946300D02*
G75*
G03*
X20420300Y-6946300I-40000J0D01*
G01*
X20420300Y-7200300D02*
G75*
G03*
X20420300Y-7200300I-40000J0D01*
G01*
X20420300Y-7454300D02*
G75*
G03*
X20420300Y-7454300I-40000J0D01*
G01*
X20446400Y-10124500D02*
G75*
G03*
X20446400Y-10124500I-40000J0D01*
G01*
X20446400Y-10378500D02*
G75*
G03*
X20446400Y-10378500I-40000J0D01*
G01*
X20446400Y-10632500D02*
G75*
G03*
X20446400Y-10632500I-40000J0D01*
G01*
X20446400Y-10886500D02*
G75*
G03*
X20446400Y-10886500I-40000J0D01*
G01*
X20446400Y-12187500D02*
G75*
G03*
X20446400Y-12187500I-40000J0D01*
G01*
X20446400Y-12441500D02*
G75*
G03*
X20446400Y-12441500I-40000J0D01*
G01*
X20446400Y-12695500D02*
G75*
G03*
X20446400Y-12695500I-40000J0D01*
G01*
X20446400Y-12949500D02*
G75*
G03*
X20446400Y-12949500I-40000J0D01*
G01*
X20446400Y-13203500D02*
G75*
G03*
X20446400Y-13203500I-40000J0D01*
G01*
X20446400Y-13457500D02*
G75*
G03*
X20446400Y-13457500I-40000J0D01*
G01*
X20446400Y-13711500D02*
G75*
G03*
X20446400Y-13711500I-40000J0D01*
G01*
X20500400Y-11458000D02*
G75*
G03*
X20500400Y-11458000I-40000J0D01*
G01*
X20594400Y-8655500D02*
G75*
G03*
X20594400Y-8655500I-40000J0D01*
G01*
X20594400Y-9417500D02*
G75*
G03*
X20594400Y-9417500I-40000J0D01*
G01*
X20624300Y-4752000D02*
G75*
G03*
X20624300Y-4752000I-40000J0D01*
G01*
X20899400Y-10124500D02*
G75*
G03*
X20899400Y-10124500I-40000J0D01*
G01*
X20899400Y-10378500D02*
G75*
G03*
X20899400Y-10378500I-40000J0D01*
G01*
X20899400Y-10632500D02*
G75*
G03*
X20899400Y-10632500I-40000J0D01*
G01*
X20899400Y-10886500D02*
G75*
G03*
X20899400Y-10886500I-40000J0D01*
G01*
X20899400Y-11140500D02*
G75*
G03*
X20899400Y-11140500I-40000J0D01*
G01*
X20899400Y-11394500D02*
G75*
G03*
X20899400Y-11394500I-40000J0D01*
G01*
X20899400Y-11648500D02*
G75*
G03*
X20899400Y-11648500I-40000J0D01*
G01*
X20899400Y-12187500D02*
G75*
G03*
X20899400Y-12187500I-40000J0D01*
G01*
X20899400Y-12441500D02*
G75*
G03*
X20899400Y-12441500I-40000J0D01*
G01*
X20899400Y-12695500D02*
G75*
G03*
X20899400Y-12695500I-40000J0D01*
G01*
X20899400Y-12949500D02*
G75*
G03*
X20899400Y-12949500I-40000J0D01*
G01*
X20899400Y-13203500D02*
G75*
G03*
X20899400Y-13203500I-40000J0D01*
G01*
X20899400Y-13457500D02*
G75*
G03*
X20899400Y-13457500I-40000J0D01*
G01*
X20899400Y-13711500D02*
G75*
G03*
X20899400Y-13711500I-40000J0D01*
G01*
X20969000Y-3981000D02*
G75*
G03*
X20969000Y-3981000I-40000J0D01*
G01*
X20969000Y-4661000D02*
G75*
G03*
X20969000Y-4661000I-40000J0D01*
G01*
X20992900Y-8655500D02*
G75*
G03*
X20992900Y-8655500I-40000J0D01*
G01*
X20992900Y-9417500D02*
G75*
G03*
X20992900Y-9417500I-40000J0D01*
G01*
X21249000Y-3981000D02*
G75*
G03*
X21249000Y-3981000I-40000J0D01*
G01*
X21249000Y-4191000D02*
G75*
G03*
X21249000Y-4191000I-40000J0D01*
G01*
X21249000Y-4451000D02*
G75*
G03*
X21249000Y-4451000I-40000J0D01*
G01*
X21249000Y-4661000D02*
G75*
G03*
X21249000Y-4661000I-40000J0D01*
G01*
X21476400Y-9316000D02*
G75*
G03*
X21476400Y-9316000I-40000J0D01*
G01*
X21661400Y-10124500D02*
G75*
G03*
X21661400Y-10124500I-40000J0D01*
G01*
X21661400Y-10378500D02*
G75*
G03*
X21661400Y-10378500I-40000J0D01*
G01*
X21661400Y-10632500D02*
G75*
G03*
X21661400Y-10632500I-40000J0D01*
G01*
X21661400Y-10886500D02*
G75*
G03*
X21661400Y-10886500I-40000J0D01*
G01*
X21661400Y-11140500D02*
G75*
G03*
X21661400Y-11140500I-40000J0D01*
G01*
X21661400Y-11394500D02*
G75*
G03*
X21661400Y-11394500I-40000J0D01*
G01*
X21661400Y-11648500D02*
G75*
G03*
X21661400Y-11648500I-40000J0D01*
G01*
X21661400Y-12187500D02*
G75*
G03*
X21661400Y-12187500I-40000J0D01*
G01*
X21661400Y-12441500D02*
G75*
G03*
X21661400Y-12441500I-40000J0D01*
G01*
X21661400Y-12695500D02*
G75*
G03*
X21661400Y-12695500I-40000J0D01*
G01*
X21661400Y-12949500D02*
G75*
G03*
X21661400Y-12949500I-40000J0D01*
G01*
X21661400Y-13203500D02*
G75*
G03*
X21661400Y-13203500I-40000J0D01*
G01*
X21661400Y-13457500D02*
G75*
G03*
X21661400Y-13457500I-40000J0D01*
G01*
X21661400Y-13711500D02*
G75*
G03*
X21661400Y-13711500I-40000J0D01*
G01*
X21726400Y-9316000D02*
G75*
G03*
X21726400Y-9316000I-40000J0D01*
G01*
X7715000Y-2718000D02*
X7715000Y-2808000D01*
X7670000Y-2763000D02*
X7760000Y-2763000D01*
X7969000Y-2718000D02*
X7969000Y-2808000D01*
X7924000Y-2763000D02*
X8014000Y-2763000D01*
X17806900Y-14346500D02*
X17806900Y-14436500D01*
X17761900Y-14391500D02*
X17851900Y-14391500D01*
X18060900Y-14346500D02*
X18060900Y-14436500D01*
X18015900Y-14391500D02*
X18105900Y-14391500D01*
X18568900Y-14346500D02*
X18568900Y-14436500D01*
X18523900Y-14391500D02*
X18613900Y-14391500D01*
X18822900Y-14346500D02*
X18822900Y-14436500D01*
X18777900Y-14391500D02*
X18867900Y-14391500D01*
X19330900Y-14346500D02*
X19330900Y-14436500D01*
X19285900Y-14391500D02*
X19375900Y-14391500D01*
X19584900Y-14346500D02*
X19584900Y-14436500D01*
X19539900Y-14391500D02*
X19629900Y-14391500D01*
X20092900Y-14346500D02*
X20092900Y-14436500D01*
X20047900Y-14391500D02*
X20137900Y-14391500D01*
X20346900Y-14346500D02*
X20346900Y-14436500D01*
X20301900Y-14391500D02*
X20391900Y-14391500D01*
X20854900Y-14346500D02*
X20854900Y-14436500D01*
X20809900Y-14391500D02*
X20899900Y-14391500D01*
X21108900Y-14346500D02*
X21108900Y-14436500D01*
X21063900Y-14391500D02*
X21153900Y-14391500D01*
X2298356Y-3766356D02*
X2298356Y-3695644D01*
X2227644Y-3695644D01*
X2227644Y-3766356D01*
X2298356Y-3766356D01*
X2298356Y-4684356D02*
X2298356Y-4613644D01*
X2227644Y-4613644D01*
X2227644Y-4684356D01*
X2298356Y-4684356D01*
X2552356Y-4684356D02*
X2552356Y-4613644D01*
X2481644Y-4613644D01*
X2481644Y-4684356D01*
X2552356Y-4684356D01*
X2554856Y-3766356D02*
X2554856Y-3695644D01*
X2484144Y-3695644D01*
X2484144Y-3766356D01*
X2554856Y-3766356D01*
X2689356Y-7581356D02*
X2689356Y-7510644D01*
X2618644Y-7510644D01*
X2618644Y-7581356D01*
X2689356Y-7581356D01*
X2689356Y-7835356D02*
X2689356Y-7764644D01*
X2618644Y-7764644D01*
X2618644Y-7835356D01*
X2689356Y-7835356D01*
X2689356Y-8089356D02*
X2689356Y-8018644D01*
X2618644Y-8018644D01*
X2618644Y-8089356D01*
X2689356Y-8089356D01*
X2689356Y-8343356D02*
X2689356Y-8272644D01*
X2618644Y-8272644D01*
X2618644Y-8343356D01*
X2689356Y-8343356D01*
X2689356Y-8597356D02*
X2689356Y-8526644D01*
X2618644Y-8526644D01*
X2618644Y-8597356D01*
X2689356Y-8597356D01*
X2689356Y-8851356D02*
X2689356Y-8780644D01*
X2618644Y-8780644D01*
X2618644Y-8851356D01*
X2689356Y-8851356D01*
X2689356Y-9105356D02*
X2689356Y-9034644D01*
X2618644Y-9034644D01*
X2618644Y-9105356D01*
X2689356Y-9105356D01*
X2689356Y-9359356D02*
X2689356Y-9288644D01*
X2618644Y-9288644D01*
X2618644Y-9359356D01*
X2689356Y-9359356D01*
X2689356Y-9613356D02*
X2689356Y-9542644D01*
X2618644Y-9542644D01*
X2618644Y-9613356D01*
X2689356Y-9613356D01*
X2689356Y-9867356D02*
X2689356Y-9796644D01*
X2618644Y-9796644D01*
X2618644Y-9867356D01*
X2689356Y-9867356D01*
X2689356Y-10121356D02*
X2689356Y-10050644D01*
X2618644Y-10050644D01*
X2618644Y-10121356D01*
X2689356Y-10121356D01*
X2689356Y-10375356D02*
X2689356Y-10304644D01*
X2618644Y-10304644D01*
X2618644Y-10375356D01*
X2689356Y-10375356D01*
X2689356Y-10629356D02*
X2689356Y-10558644D01*
X2618644Y-10558644D01*
X2618644Y-10629356D01*
X2689356Y-10629356D01*
X2689356Y-10883356D02*
X2689356Y-10812644D01*
X2618644Y-10812644D01*
X2618644Y-10883356D01*
X2689356Y-10883356D01*
X2689356Y-11137356D02*
X2689356Y-11066644D01*
X2618644Y-11066644D01*
X2618644Y-11137356D01*
X2689356Y-11137356D01*
X2689356Y-11391356D02*
X2689356Y-11320644D01*
X2618644Y-11320644D01*
X2618644Y-11391356D01*
X2689356Y-11391356D01*
X2806356Y-4684356D02*
X2806356Y-4613644D01*
X2735644Y-4613644D01*
X2735644Y-4684356D01*
X2806356Y-4684356D01*
X2808856Y-3766356D02*
X2808856Y-3695644D01*
X2738144Y-3695644D01*
X2738144Y-3766356D01*
X2808856Y-3766356D01*
X2943356Y-7581356D02*
X2943356Y-7510644D01*
X2872644Y-7510644D01*
X2872644Y-7581356D01*
X2943356Y-7581356D01*
X2943356Y-7835356D02*
X2943356Y-7764644D01*
X2872644Y-7764644D01*
X2872644Y-7835356D01*
X2943356Y-7835356D01*
X2943356Y-8089356D02*
X2943356Y-8018644D01*
X2872644Y-8018644D01*
X2872644Y-8089356D01*
X2943356Y-8089356D01*
X2943356Y-8343356D02*
X2943356Y-8272644D01*
X2872644Y-8272644D01*
X2872644Y-8343356D01*
X2943356Y-8343356D01*
X2943356Y-8597356D02*
X2943356Y-8526644D01*
X2872644Y-8526644D01*
X2872644Y-8597356D01*
X2943356Y-8597356D01*
X2943356Y-8851356D02*
X2943356Y-8780644D01*
X2872644Y-8780644D01*
X2872644Y-8851356D01*
X2943356Y-8851356D01*
X2943356Y-9105356D02*
X2943356Y-9034644D01*
X2872644Y-9034644D01*
X2872644Y-9105356D01*
X2943356Y-9105356D01*
X2943356Y-9359356D02*
X2943356Y-9288644D01*
X2872644Y-9288644D01*
X2872644Y-9359356D01*
X2943356Y-9359356D01*
X2943356Y-9613356D02*
X2943356Y-9542644D01*
X2872644Y-9542644D01*
X2872644Y-9613356D01*
X2943356Y-9613356D01*
X2943356Y-9867356D02*
X2943356Y-9796644D01*
X2872644Y-9796644D01*
X2872644Y-9867356D01*
X2943356Y-9867356D01*
X2943356Y-10121356D02*
X2943356Y-10050644D01*
X2872644Y-10050644D01*
X2872644Y-10121356D01*
X2943356Y-10121356D01*
X2943356Y-10375356D02*
X2943356Y-10304644D01*
X2872644Y-10304644D01*
X2872644Y-10375356D01*
X2943356Y-10375356D01*
X2943356Y-10629356D02*
X2943356Y-10558644D01*
X2872644Y-10558644D01*
X2872644Y-10629356D01*
X2943356Y-10629356D01*
X2943356Y-10883356D02*
X2943356Y-10812644D01*
X2872644Y-10812644D01*
X2872644Y-10883356D01*
X2943356Y-10883356D01*
X2943356Y-11137356D02*
X2943356Y-11066644D01*
X2872644Y-11066644D01*
X2872644Y-11137356D01*
X2943356Y-11137356D01*
X2943356Y-11391356D02*
X2943356Y-11320644D01*
X2872644Y-11320644D01*
X2872644Y-11391356D01*
X2943356Y-11391356D01*
X3335356Y-3196856D02*
X3335356Y-3126144D01*
X3264644Y-3126144D01*
X3264644Y-3196856D01*
X3335356Y-3196856D01*
X3260000Y-3061500D02*
X3260000Y-3261500D01*
X3340000Y-3061500D02*
X3340000Y-3261500D01*
X3260000Y-3261500D02*
G75*
G03*
X3340000Y-3261500I40000J0D01*
G01*
X3340000Y-3061500D02*
G75*
G03*
X3260000Y-3061500I-40000J0D01*
G01*
X3805356Y-2896856D02*
X3805356Y-2826144D01*
X3734644Y-2826144D01*
X3734644Y-2896856D01*
X3805356Y-2896856D01*
X3870000Y-2821500D02*
X3670000Y-2821500D01*
X3870000Y-2901500D02*
X3670000Y-2901500D01*
X3670000Y-2821500D02*
G75*
G03*
X3670000Y-2901500I0J-40000D01*
G01*
X3870000Y-2901500D02*
G75*
G03*
X3870000Y-2821500I0J40000D01*
G01*
X3805356Y-3496856D02*
X3805356Y-3426144D01*
X3734644Y-3426144D01*
X3734644Y-3496856D01*
X3805356Y-3496856D01*
X3870000Y-3421500D02*
X3670000Y-3421500D01*
X3870000Y-3501500D02*
X3670000Y-3501500D01*
X3670000Y-3421500D02*
G75*
G03*
X3670000Y-3501500I0J-40000D01*
G01*
X3870000Y-3501500D02*
G75*
G03*
X3870000Y-3421500I0J40000D01*
G01*
X4889356Y-16125356D02*
X4889356Y-16054644D01*
X4818644Y-16054644D01*
X4818644Y-16125356D01*
X4889356Y-16125356D01*
X4889356Y-16379356D02*
X4889356Y-16308644D01*
X4818644Y-16308644D01*
X4818644Y-16379356D01*
X4889356Y-16379356D01*
X5143356Y-16125356D02*
X5143356Y-16054644D01*
X5072644Y-16054644D01*
X5072644Y-16125356D01*
X5143356Y-16125356D01*
X5143356Y-16379356D02*
X5143356Y-16308644D01*
X5072644Y-16308644D01*
X5072644Y-16379356D01*
X5143356Y-16379356D01*
X5397356Y-16125356D02*
X5397356Y-16054644D01*
X5326644Y-16054644D01*
X5326644Y-16125356D01*
X5397356Y-16125356D01*
X5397356Y-16379356D02*
X5397356Y-16308644D01*
X5326644Y-16308644D01*
X5326644Y-16379356D01*
X5397356Y-16379356D01*
X5472356Y-5422356D02*
X5472356Y-5351644D01*
X5401644Y-5351644D01*
X5401644Y-5422356D01*
X5472356Y-5422356D01*
X5472356Y-5676356D02*
X5472356Y-5605644D01*
X5401644Y-5605644D01*
X5401644Y-5676356D01*
X5472356Y-5676356D01*
X5651356Y-16125356D02*
X5651356Y-16054644D01*
X5580644Y-16054644D01*
X5580644Y-16125356D01*
X5651356Y-16125356D01*
X5651356Y-16379356D02*
X5651356Y-16308644D01*
X5580644Y-16308644D01*
X5580644Y-16379356D01*
X5651356Y-16379356D01*
X5726356Y-5422356D02*
X5726356Y-5351644D01*
X5655644Y-5351644D01*
X5655644Y-5422356D01*
X5726356Y-5422356D01*
X5726356Y-5676356D02*
X5726356Y-5605644D01*
X5655644Y-5605644D01*
X5655644Y-5676356D01*
X5726356Y-5676356D01*
X5905356Y-16125356D02*
X5905356Y-16054644D01*
X5834644Y-16054644D01*
X5834644Y-16125356D01*
X5905356Y-16125356D01*
X5905356Y-16379356D02*
X5905356Y-16308644D01*
X5834644Y-16308644D01*
X5834644Y-16379356D01*
X5905356Y-16379356D01*
X5980356Y-5422356D02*
X5980356Y-5351644D01*
X5909644Y-5351644D01*
X5909644Y-5422356D01*
X5980356Y-5422356D01*
X5980356Y-5676356D02*
X5980356Y-5605644D01*
X5909644Y-5605644D01*
X5909644Y-5676356D01*
X5980356Y-5676356D01*
X6159356Y-16125356D02*
X6159356Y-16054644D01*
X6088644Y-16054644D01*
X6088644Y-16125356D01*
X6159356Y-16125356D01*
X6159356Y-16379356D02*
X6159356Y-16308644D01*
X6088644Y-16308644D01*
X6088644Y-16379356D01*
X6159356Y-16379356D01*
X6234356Y-5422356D02*
X6234356Y-5351644D01*
X6163644Y-5351644D01*
X6163644Y-5422356D01*
X6234356Y-5422356D01*
X6234356Y-5676356D02*
X6234356Y-5605644D01*
X6163644Y-5605644D01*
X6163644Y-5676356D01*
X6234356Y-5676356D01*
X6368356Y-2798356D02*
X6368356Y-2727644D01*
X6297644Y-2727644D01*
X6297644Y-2798356D01*
X6368356Y-2798356D01*
X6413356Y-16125356D02*
X6413356Y-16054644D01*
X6342644Y-16054644D01*
X6342644Y-16125356D01*
X6413356Y-16125356D01*
X6413356Y-16379356D02*
X6413356Y-16308644D01*
X6342644Y-16308644D01*
X6342644Y-16379356D01*
X6413356Y-16379356D01*
X6488356Y-5422356D02*
X6488356Y-5351644D01*
X6417644Y-5351644D01*
X6417644Y-5422356D01*
X6488356Y-5422356D01*
X6488356Y-5676356D02*
X6488356Y-5605644D01*
X6417644Y-5605644D01*
X6417644Y-5676356D01*
X6488356Y-5676356D01*
X6667356Y-16125356D02*
X6667356Y-16054644D01*
X6596644Y-16054644D01*
X6596644Y-16125356D01*
X6667356Y-16125356D01*
X6667356Y-16379356D02*
X6667356Y-16308644D01*
X6596644Y-16308644D01*
X6596644Y-16379356D01*
X6667356Y-16379356D01*
X6742356Y-5422356D02*
X6742356Y-5351644D01*
X6671644Y-5351644D01*
X6671644Y-5422356D01*
X6742356Y-5422356D01*
X6742356Y-5676356D02*
X6742356Y-5605644D01*
X6671644Y-5605644D01*
X6671644Y-5676356D01*
X6742356Y-5676356D01*
X6868356Y-2798356D02*
X6868356Y-2727644D01*
X6797644Y-2727644D01*
X6797644Y-2798356D01*
X6868356Y-2798356D01*
X6921356Y-16125356D02*
X6921356Y-16054644D01*
X6850644Y-16054644D01*
X6850644Y-16125356D01*
X6921356Y-16125356D01*
X6921356Y-16379356D02*
X6921356Y-16308644D01*
X6850644Y-16308644D01*
X6850644Y-16379356D01*
X6921356Y-16379356D01*
X7175356Y-16125356D02*
X7175356Y-16054644D01*
X7104644Y-16054644D01*
X7104644Y-16125356D01*
X7175356Y-16125356D01*
X7175356Y-16379356D02*
X7175356Y-16308644D01*
X7104644Y-16308644D01*
X7104644Y-16379356D01*
X7175356Y-16379356D01*
X7429356Y-16125356D02*
X7429356Y-16054644D01*
X7358644Y-16054644D01*
X7358644Y-16125356D01*
X7429356Y-16125356D01*
X7429356Y-16379356D02*
X7429356Y-16308644D01*
X7358644Y-16308644D01*
X7358644Y-16379356D01*
X7429356Y-16379356D01*
X7683356Y-16125356D02*
X7683356Y-16054644D01*
X7612644Y-16054644D01*
X7612644Y-16125356D01*
X7683356Y-16125356D01*
X7683356Y-16379356D02*
X7683356Y-16308644D01*
X7612644Y-16308644D01*
X7612644Y-16379356D01*
X7683356Y-16379356D01*
X9455356Y-2746356D02*
X9455356Y-2675644D01*
X9384644Y-2675644D01*
X9384644Y-2746356D01*
X9455356Y-2746356D01*
X9598356Y-15256356D02*
X9598356Y-15185644D01*
X9527644Y-15185644D01*
X9527644Y-15256356D01*
X9598356Y-15256356D01*
X9598356Y-16526356D02*
X9598356Y-16455644D01*
X9527644Y-16455644D01*
X9527644Y-16526356D01*
X9598356Y-16526356D01*
X9709356Y-2746356D02*
X9709356Y-2675644D01*
X9638644Y-2675644D01*
X9638644Y-2746356D01*
X9709356Y-2746356D01*
X9852356Y-15256356D02*
X9852356Y-15185644D01*
X9781644Y-15185644D01*
X9781644Y-15256356D01*
X9852356Y-15256356D01*
X9852356Y-16526356D02*
X9852356Y-16455644D01*
X9781644Y-16455644D01*
X9781644Y-16526356D01*
X9852356Y-16526356D01*
X9963356Y-2746356D02*
X9963356Y-2675644D01*
X9892644Y-2675644D01*
X9892644Y-2746356D01*
X9963356Y-2746356D01*
X10106356Y-15256356D02*
X10106356Y-15185644D01*
X10035644Y-15185644D01*
X10035644Y-15256356D01*
X10106356Y-15256356D01*
X10106356Y-16526356D02*
X10106356Y-16455644D01*
X10035644Y-16455644D01*
X10035644Y-16526356D01*
X10106356Y-16526356D01*
X10217356Y-2746356D02*
X10217356Y-2675644D01*
X10146644Y-2675644D01*
X10146644Y-2746356D01*
X10217356Y-2746356D01*
X10360356Y-15256356D02*
X10360356Y-15185644D01*
X10289644Y-15185644D01*
X10289644Y-15256356D01*
X10360356Y-15256356D01*
X10360356Y-16526356D02*
X10360356Y-16455644D01*
X10289644Y-16455644D01*
X10289644Y-16526356D01*
X10360356Y-16526356D01*
X10471356Y-2746356D02*
X10471356Y-2675644D01*
X10400644Y-2675644D01*
X10400644Y-2746356D01*
X10471356Y-2746356D01*
X10614356Y-15256356D02*
X10614356Y-15185644D01*
X10543644Y-15185644D01*
X10543644Y-15256356D01*
X10614356Y-15256356D01*
X10614356Y-16526356D02*
X10614356Y-16455644D01*
X10543644Y-16455644D01*
X10543644Y-16526356D01*
X10614356Y-16526356D01*
X10725356Y-2746356D02*
X10725356Y-2675644D01*
X10654644Y-2675644D01*
X10654644Y-2746356D01*
X10725356Y-2746356D01*
X10868356Y-15256356D02*
X10868356Y-15185644D01*
X10797644Y-15185644D01*
X10797644Y-15256356D01*
X10868356Y-15256356D01*
X10868356Y-16526356D02*
X10868356Y-16455644D01*
X10797644Y-16455644D01*
X10797644Y-16526356D01*
X10868356Y-16526356D01*
X10979356Y-2746356D02*
X10979356Y-2675644D01*
X10908644Y-2675644D01*
X10908644Y-2746356D01*
X10979356Y-2746356D01*
X11233356Y-2746356D02*
X11233356Y-2675644D01*
X11162644Y-2675644D01*
X11162644Y-2746356D01*
X11233356Y-2746356D01*
X11487356Y-2746356D02*
X11487356Y-2675644D01*
X11416644Y-2675644D01*
X11416644Y-2746356D01*
X11487356Y-2746356D01*
X11687356Y-8871356D02*
X11687356Y-8800644D01*
X11616644Y-8800644D01*
X11616644Y-8871356D01*
X11687356Y-8871356D01*
X11687356Y-9125356D02*
X11687356Y-9054644D01*
X11616644Y-9054644D01*
X11616644Y-9125356D01*
X11687356Y-9125356D01*
X11687356Y-9379356D02*
X11687356Y-9308644D01*
X11616644Y-9308644D01*
X11616644Y-9379356D01*
X11687356Y-9379356D01*
X11687356Y-9633356D02*
X11687356Y-9562644D01*
X11616644Y-9562644D01*
X11616644Y-9633356D01*
X11687356Y-9633356D01*
X11687356Y-9887356D02*
X11687356Y-9816644D01*
X11616644Y-9816644D01*
X11616644Y-9887356D01*
X11687356Y-9887356D01*
X11687356Y-10141356D02*
X11687356Y-10070644D01*
X11616644Y-10070644D01*
X11616644Y-10141356D01*
X11687356Y-10141356D01*
X11687356Y-10395356D02*
X11687356Y-10324644D01*
X11616644Y-10324644D01*
X11616644Y-10395356D01*
X11687356Y-10395356D01*
X11687356Y-10649356D02*
X11687356Y-10578644D01*
X11616644Y-10578644D01*
X11616644Y-10649356D01*
X11687356Y-10649356D01*
X11687356Y-10903356D02*
X11687356Y-10832644D01*
X11616644Y-10832644D01*
X11616644Y-10903356D01*
X11687356Y-10903356D01*
X11687356Y-11157356D02*
X11687356Y-11086644D01*
X11616644Y-11086644D01*
X11616644Y-11157356D01*
X11687356Y-11157356D01*
X11687356Y-11411356D02*
X11687356Y-11340644D01*
X11616644Y-11340644D01*
X11616644Y-11411356D01*
X11687356Y-11411356D01*
X11687356Y-11665356D02*
X11687356Y-11594644D01*
X11616644Y-11594644D01*
X11616644Y-11665356D01*
X11687356Y-11665356D01*
X11687356Y-11919356D02*
X11687356Y-11848644D01*
X11616644Y-11848644D01*
X11616644Y-11919356D01*
X11687356Y-11919356D01*
X11687356Y-12173356D02*
X11687356Y-12102644D01*
X11616644Y-12102644D01*
X11616644Y-12173356D01*
X11687356Y-12173356D01*
X11687356Y-12427356D02*
X11687356Y-12356644D01*
X11616644Y-12356644D01*
X11616644Y-12427356D01*
X11687356Y-12427356D01*
X11687356Y-12681356D02*
X11687356Y-12610644D01*
X11616644Y-12610644D01*
X11616644Y-12681356D01*
X11687356Y-12681356D01*
X11741356Y-2746356D02*
X11741356Y-2675644D01*
X11670644Y-2675644D01*
X11670644Y-2746356D01*
X11741356Y-2746356D01*
X11941356Y-8871356D02*
X11941356Y-8800644D01*
X11870644Y-8800644D01*
X11870644Y-8871356D01*
X11941356Y-8871356D01*
X11941356Y-9125356D02*
X11941356Y-9054644D01*
X11870644Y-9054644D01*
X11870644Y-9125356D01*
X11941356Y-9125356D01*
X11941356Y-9379356D02*
X11941356Y-9308644D01*
X11870644Y-9308644D01*
X11870644Y-9379356D01*
X11941356Y-9379356D01*
X11941356Y-9633356D02*
X11941356Y-9562644D01*
X11870644Y-9562644D01*
X11870644Y-9633356D01*
X11941356Y-9633356D01*
X11941356Y-9887356D02*
X11941356Y-9816644D01*
X11870644Y-9816644D01*
X11870644Y-9887356D01*
X11941356Y-9887356D01*
X11941356Y-10141356D02*
X11941356Y-10070644D01*
X11870644Y-10070644D01*
X11870644Y-10141356D01*
X11941356Y-10141356D01*
X11941356Y-10395356D02*
X11941356Y-10324644D01*
X11870644Y-10324644D01*
X11870644Y-10395356D01*
X11941356Y-10395356D01*
X11941356Y-10649356D02*
X11941356Y-10578644D01*
X11870644Y-10578644D01*
X11870644Y-10649356D01*
X11941356Y-10649356D01*
X11941356Y-10903356D02*
X11941356Y-10832644D01*
X11870644Y-10832644D01*
X11870644Y-10903356D01*
X11941356Y-10903356D01*
X11941356Y-11157356D02*
X11941356Y-11086644D01*
X11870644Y-11086644D01*
X11870644Y-11157356D01*
X11941356Y-11157356D01*
X11941356Y-11411356D02*
X11941356Y-11340644D01*
X11870644Y-11340644D01*
X11870644Y-11411356D01*
X11941356Y-11411356D01*
X11941356Y-11665356D02*
X11941356Y-11594644D01*
X11870644Y-11594644D01*
X11870644Y-11665356D01*
X11941356Y-11665356D01*
X11941356Y-11919356D02*
X11941356Y-11848644D01*
X11870644Y-11848644D01*
X11870644Y-11919356D01*
X11941356Y-11919356D01*
X11941356Y-12173356D02*
X11941356Y-12102644D01*
X11870644Y-12102644D01*
X11870644Y-12173356D01*
X11941356Y-12173356D01*
X11941356Y-12427356D02*
X11941356Y-12356644D01*
X11870644Y-12356644D01*
X11870644Y-12427356D01*
X11941356Y-12427356D01*
X11941356Y-12681356D02*
X11941356Y-12610644D01*
X11870644Y-12610644D01*
X11870644Y-12681356D01*
X11941356Y-12681356D01*
X11995356Y-2746356D02*
X11995356Y-2675644D01*
X11924644Y-2675644D01*
X11924644Y-2746356D01*
X11995356Y-2746356D01*
X12249356Y-2746356D02*
X12249356Y-2675644D01*
X12178644Y-2675644D01*
X12178644Y-2746356D01*
X12249356Y-2746356D01*
X12503356Y-2746356D02*
X12503356Y-2675644D01*
X12432644Y-2675644D01*
X12432644Y-2746356D01*
X12503356Y-2746356D01*
X12757356Y-2746356D02*
X12757356Y-2675644D01*
X12686644Y-2675644D01*
X12686644Y-2746356D01*
X12757356Y-2746356D01*
X13011356Y-2746356D02*
X13011356Y-2675644D01*
X12940644Y-2675644D01*
X12940644Y-2746356D01*
X13011356Y-2746356D01*
X13100356Y-6146356D02*
X13100356Y-6075644D01*
X13029644Y-6075644D01*
X13029644Y-6146356D01*
X13100356Y-6146356D01*
X13265356Y-2746356D02*
X13265356Y-2675644D01*
X13194644Y-2675644D01*
X13194644Y-2746356D01*
X13265356Y-2746356D01*
X13354356Y-6146356D02*
X13354356Y-6075644D01*
X13283644Y-6075644D01*
X13283644Y-6146356D01*
X13354356Y-6146356D01*
X13608356Y-6146356D02*
X13608356Y-6075644D01*
X13537644Y-6075644D01*
X13537644Y-6146356D01*
X13608356Y-6146356D01*
X13767356Y-15795356D02*
X13767356Y-15724644D01*
X13696644Y-15724644D01*
X13696644Y-15795356D01*
X13767356Y-15795356D01*
X13767356Y-16049356D02*
X13767356Y-15978644D01*
X13696644Y-15978644D01*
X13696644Y-16049356D01*
X13767356Y-16049356D01*
X13767356Y-16303356D02*
X13767356Y-16232644D01*
X13696644Y-16232644D01*
X13696644Y-16303356D01*
X13767356Y-16303356D01*
X13767356Y-16557356D02*
X13767356Y-16486644D01*
X13696644Y-16486644D01*
X13696644Y-16557356D01*
X13767356Y-16557356D01*
X14021356Y-15795356D02*
X14021356Y-15724644D01*
X13950644Y-15724644D01*
X13950644Y-15795356D01*
X14021356Y-15795356D01*
X14021356Y-16049356D02*
X14021356Y-15978644D01*
X13950644Y-15978644D01*
X13950644Y-16049356D01*
X14021356Y-16049356D01*
X14021356Y-16303356D02*
X14021356Y-16232644D01*
X13950644Y-16232644D01*
X13950644Y-16303356D01*
X14021356Y-16303356D01*
X14021356Y-16557356D02*
X14021356Y-16486644D01*
X13950644Y-16486644D01*
X13950644Y-16557356D01*
X14021356Y-16557356D01*
X14796356Y-16303356D02*
X14796356Y-16232644D01*
X14725644Y-16232644D01*
X14725644Y-16303356D01*
X14796356Y-16303356D01*
X15050356Y-16303356D02*
X15050356Y-16232644D01*
X14979644Y-16232644D01*
X14979644Y-16303356D01*
X15050356Y-16303356D01*
X15304356Y-16303356D02*
X15304356Y-16232644D01*
X15233644Y-16232644D01*
X15233644Y-16303356D01*
X15304356Y-16303356D01*
X15558356Y-16303356D02*
X15558356Y-16232644D01*
X15487644Y-16232644D01*
X15487644Y-16303356D01*
X15558356Y-16303356D01*
X15812356Y-16303356D02*
X15812356Y-16232644D01*
X15741644Y-16232644D01*
X15741644Y-16303356D01*
X15812356Y-16303356D01*
X16066356Y-16303356D02*
X16066356Y-16232644D01*
X15995644Y-16232644D01*
X15995644Y-16303356D01*
X16066356Y-16303356D01*
X16216356Y-4311356D02*
X16216356Y-4240644D01*
X16145644Y-4240644D01*
X16145644Y-4311356D01*
X16216356Y-4311356D01*
X16470356Y-4311356D02*
X16470356Y-4240644D01*
X16399644Y-4240644D01*
X16399644Y-4311356D01*
X16470356Y-4311356D01*
X16724356Y-4311356D02*
X16724356Y-4240644D01*
X16653644Y-4240644D01*
X16653644Y-4311356D01*
X16724356Y-4311356D01*
X17268356Y-4311356D02*
X17268356Y-4240644D01*
X17197644Y-4240644D01*
X17197644Y-4311356D01*
X17268356Y-4311356D01*
X17522356Y-4311356D02*
X17522356Y-4240644D01*
X17451644Y-4240644D01*
X17451644Y-4311356D01*
X17522356Y-4311356D01*
X17776356Y-4311356D02*
X17776356Y-4240644D01*
X17705644Y-4240644D01*
X17705644Y-4311356D01*
X17776356Y-4311356D01*
X18320356Y-4311356D02*
X18320356Y-4240644D01*
X18249644Y-4240644D01*
X18249644Y-4311356D01*
X18320356Y-4311356D01*
X18450356Y-13480356D02*
X18450356Y-13409644D01*
X18379644Y-13409644D01*
X18379644Y-13480356D01*
X18450356Y-13480356D01*
X18450356Y-13734356D02*
X18450356Y-13663644D01*
X18379644Y-13663644D01*
X18379644Y-13734356D01*
X18450356Y-13734356D01*
X18574356Y-4311356D02*
X18574356Y-4240644D01*
X18503644Y-4240644D01*
X18503644Y-4311356D01*
X18574356Y-4311356D01*
X18704356Y-13480356D02*
X18704356Y-13409644D01*
X18633644Y-13409644D01*
X18633644Y-13480356D01*
X18704356Y-13480356D01*
X18704356Y-13734356D02*
X18704356Y-13663644D01*
X18633644Y-13663644D01*
X18633644Y-13734356D01*
X18704356Y-13734356D01*
X18828356Y-4311356D02*
X18828356Y-4240644D01*
X18757644Y-4240644D01*
X18757644Y-4311356D01*
X18828356Y-4311356D01*
X21098356Y-5971356D02*
X21098356Y-5900644D01*
X21027644Y-5900644D01*
X21027644Y-5971356D01*
X21098356Y-5971356D01*
X21098356Y-6225356D02*
X21098356Y-6154644D01*
X21027644Y-6154644D01*
X21027644Y-6225356D01*
X21098356Y-6225356D01*
X21352356Y-5971356D02*
X21352356Y-5900644D01*
X21281644Y-5900644D01*
X21281644Y-5971356D01*
X21352356Y-5971356D01*
X21352356Y-6225356D02*
X21352356Y-6154644D01*
X21281644Y-6154644D01*
X21281644Y-6225356D01*
X21352356Y-6225356D01*
X21529356Y-3671356D02*
X21529356Y-3600644D01*
X21458644Y-3600644D01*
X21458644Y-3671356D01*
X21529356Y-3671356D01*
X21419000Y-3676000D02*
X21569000Y-3676000D01*
X21419000Y-3596000D02*
X21569000Y-3596000D01*
X21569000Y-3676000D02*
G75*
G03*
X21569000Y-3596000I0J40000D01*
G01*
X21419000Y-3596000D02*
G75*
G03*
X21419000Y-3676000I0J-40000D01*
G01*
X21529356Y-5041356D02*
X21529356Y-4970644D01*
X21458644Y-4970644D01*
X21458644Y-5041356D01*
X21529356Y-5041356D01*
X21419000Y-5046000D02*
X21569000Y-5046000D01*
X21419000Y-4966000D02*
X21569000Y-4966000D01*
X21569000Y-5046000D02*
G75*
G03*
X21569000Y-4966000I0J40000D01*
G01*
X21419000Y-4966000D02*
G75*
G03*
X21419000Y-5046000I0J-40000D01*
G01*
X21606356Y-5971356D02*
X21606356Y-5900644D01*
X21535644Y-5900644D01*
X21535644Y-5971356D01*
X21606356Y-5971356D01*
X21606356Y-6225356D02*
X21606356Y-6154644D01*
X21535644Y-6154644D01*
X21535644Y-6225356D01*
X21606356Y-6225356D01*
X21609356Y-4356356D02*
X21609356Y-4285644D01*
X21538644Y-4285644D01*
X21538644Y-4356356D01*
X21609356Y-4356356D01*
X21614000Y-4421000D02*
X21614000Y-4221000D01*
X21534000Y-4421000D02*
X21534000Y-4221000D01*
X21614000Y-4221000D02*
G75*
G03*
X21534000Y-4221000I-40000J0D01*
G01*
X21534000Y-4421000D02*
G75*
G03*
X21614000Y-4421000I40000J0D01*
G01*
X3224000Y-15717500D02*
X3279000Y-15662500D01*
X3224000Y-15607500D01*
X3169000Y-15662500D01*
X3224000Y-15717500D01*
X3224000Y-16167500D02*
X3279000Y-16112500D01*
X3224000Y-16057500D01*
X3169000Y-16112500D01*
X3224000Y-16167500D01*
X3262000Y-4137000D02*
X3317000Y-4082000D01*
X3262000Y-4027000D01*
X3207000Y-4082000D01*
X3262000Y-4137000D01*
X3874000Y-15717500D02*
X3929000Y-15662500D01*
X3874000Y-15607500D01*
X3819000Y-15662500D01*
X3874000Y-15717500D01*
X3874000Y-16167500D02*
X3929000Y-16112500D01*
X3874000Y-16057500D01*
X3819000Y-16112500D01*
X3874000Y-16167500D01*
X4278000Y-4137000D02*
X4333000Y-4082000D01*
X4278000Y-4027000D01*
X4223000Y-4082000D01*
X4278000Y-4137000D01*
X5090000Y-2627500D02*
X5145000Y-2572500D01*
X5090000Y-2517500D01*
X5035000Y-2572500D01*
X5090000Y-2627500D01*
X5344000Y-2627500D02*
X5399000Y-2572500D01*
X5344000Y-2517500D01*
X5289000Y-2572500D01*
X5344000Y-2627500D01*
X5598000Y-2627500D02*
X5653000Y-2572500D01*
X5598000Y-2517500D01*
X5543000Y-2572500D01*
X5598000Y-2627500D01*
X18637900Y-15717500D02*
X18692900Y-15662500D01*
X18637900Y-15607500D01*
X18582900Y-15662500D01*
X18637900Y-15717500D01*
X18637900Y-16167500D02*
X18692900Y-16112500D01*
X18637900Y-16057500D01*
X18582900Y-16112500D01*
X18637900Y-16167500D01*
X18814000Y-2732000D02*
X18869000Y-2677000D01*
X18814000Y-2622000D01*
X18759000Y-2677000D01*
X18814000Y-2732000D01*
X18814000Y-2986000D02*
X18869000Y-2931000D01*
X18814000Y-2876000D01*
X18759000Y-2931000D01*
X18814000Y-2986000D01*
X18814000Y-3240000D02*
X18869000Y-3185000D01*
X18814000Y-3130000D01*
X18759000Y-3185000D01*
X18814000Y-3240000D01*
X19287900Y-15717500D02*
X19342900Y-15662500D01*
X19287900Y-15607500D01*
X19232900Y-15662500D01*
X19287900Y-15717500D01*
X19287900Y-16167500D02*
X19342900Y-16112500D01*
X19287900Y-16057500D01*
X19232900Y-16112500D01*
X19287900Y-16167500D01*
X19961900Y-15717500D02*
X20016900Y-15662500D01*
X19961900Y-15607500D01*
X19906900Y-15662500D01*
X19961900Y-15717500D01*
X19961900Y-16167500D02*
X20016900Y-16112500D01*
X19961900Y-16057500D01*
X19906900Y-16112500D01*
X19961900Y-16167500D01*
X20611900Y-15717500D02*
X20666900Y-15662500D01*
X20611900Y-15607500D01*
X20556900Y-15662500D01*
X20611900Y-15717500D01*
X20611900Y-16167500D02*
X20666900Y-16112500D01*
X20611900Y-16057500D01*
X20556900Y-16112500D01*
X20611900Y-16167500D01*
X6467000Y-3734000D02*
X6597000Y-3864000D01*
X6597000Y-3734000D02*
X6467000Y-3864000D01*
X6597000Y-3799000D02*
G75*
G03*
X6597000Y-3799000I-65000J0D01*
G01*
X6467000Y-4234000D02*
X6597000Y-4364000D01*
X6597000Y-4234000D02*
X6467000Y-4364000D01*
X6597000Y-4299000D02*
G75*
G03*
X6597000Y-4299000I-65000J0D01*
G01*
X7467000Y-3984000D02*
X7597000Y-4114000D01*
X7597000Y-3984000D02*
X7467000Y-4114000D01*
X7597000Y-4049000D02*
G75*
G03*
X7597000Y-4049000I-65000J0D01*
G01*
X17074400Y-15615500D02*
X17204400Y-15745500D01*
X17204400Y-15615500D02*
X17074400Y-15745500D01*
X17204400Y-15680500D02*
G75*
G03*
X17204400Y-15680500I-65000J0D01*
G01*
X17074400Y-16115500D02*
X17204400Y-16245500D01*
X17204400Y-16115500D02*
X17074400Y-16245500D01*
X17204400Y-16180500D02*
G75*
G03*
X17204400Y-16180500I-65000J0D01*
G01*
X18074400Y-15865500D02*
X18204400Y-15995500D01*
X18204400Y-15865500D02*
X18074400Y-15995500D01*
X18204400Y-15930500D02*
G75*
G03*
X18204400Y-15930500I-65000J0D01*
G01*
X20731000Y-7168000D02*
X20861000Y-7298000D01*
X20861000Y-7168000D02*
X20731000Y-7298000D01*
X20861000Y-7233000D02*
G75*
G03*
X20861000Y-7233000I-65000J0D01*
G01*
X20731000Y-7668000D02*
X20861000Y-7798000D01*
X20861000Y-7668000D02*
X20731000Y-7798000D01*
X20861000Y-7733000D02*
G75*
G03*
X20861000Y-7733000I-65000J0D01*
G01*
X21731000Y-7418000D02*
X21861000Y-7548000D01*
X21861000Y-7418000D02*
X21731000Y-7548000D01*
X21861000Y-7483000D02*
G75*
G03*
X21861000Y-7483000I-65000J0D01*
G01*
X2390000Y-2644000D02*
X2690000Y-2944000D01*
X2690000Y-2644000D02*
X2390000Y-2944000D01*
X2540000Y-2644000D02*
X2540000Y-2944000D01*
X2390000Y-2794000D02*
X2690000Y-2794000D01*
X2390000Y-16106000D02*
X2690000Y-16406000D01*
X2690000Y-16106000D02*
X2390000Y-16406000D01*
X2540000Y-16106000D02*
X2540000Y-16406000D01*
X2390000Y-16256000D02*
X2690000Y-16256000D01*
X21186000Y-2644000D02*
X21486000Y-2944000D01*
X21486000Y-2644000D02*
X21186000Y-2944000D01*
X21336000Y-2644000D02*
X21336000Y-2944000D01*
X21186000Y-2794000D02*
X21486000Y-2794000D01*
X21186000Y-16106000D02*
X21486000Y-16406000D01*
X21486000Y-16106000D02*
X21186000Y-16406000D01*
X21336000Y-16106000D02*
X21336000Y-16406000D01*
X21186000Y-16256000D02*
X21486000Y-16256000D01*
D12*
X2061928Y-17486214D02*
X2061928Y-17186214D01*
X2133357Y-17186214D01*
X2176214Y-17200500D01*
X2204786Y-17229072D01*
X2219071Y-17257643D01*
X2233357Y-17314786D01*
X2233357Y-17357643D01*
X2219071Y-17414786D01*
X2204786Y-17443357D01*
X2176214Y-17471929D01*
X2133357Y-17486214D01*
X2061928Y-17486214D01*
X2361928Y-17486214D02*
X2361928Y-17286214D01*
X2361928Y-17343357D02*
X2376214Y-17314786D01*
X2390500Y-17300500D01*
X2419071Y-17286214D01*
X2447643Y-17286214D01*
X2547643Y-17486214D02*
X2547643Y-17286214D01*
X2547643Y-17186214D02*
X2533357Y-17200500D01*
X2547643Y-17214786D01*
X2561928Y-17200500D01*
X2547643Y-17186214D01*
X2547643Y-17214786D01*
X2733357Y-17486214D02*
X2704786Y-17471929D01*
X2690500Y-17443357D01*
X2690500Y-17186214D01*
X2890500Y-17486214D02*
X2861928Y-17471929D01*
X2847643Y-17443357D01*
X2847643Y-17186214D01*
X3233357Y-17486214D02*
X3233357Y-17186214D01*
X3333357Y-17400500D01*
X3433357Y-17186214D01*
X3433357Y-17486214D01*
X3704786Y-17486214D02*
X3704786Y-17329072D01*
X3690500Y-17300500D01*
X3661928Y-17286214D01*
X3604786Y-17286214D01*
X3576214Y-17300500D01*
X3704786Y-17471929D02*
X3676214Y-17486214D01*
X3604786Y-17486214D01*
X3576214Y-17471929D01*
X3561928Y-17443357D01*
X3561928Y-17414786D01*
X3576214Y-17386214D01*
X3604786Y-17371929D01*
X3676214Y-17371929D01*
X3704786Y-17357643D01*
X3847643Y-17286214D02*
X3847643Y-17586214D01*
X3847643Y-17300500D02*
X3876214Y-17286214D01*
X3933357Y-17286214D01*
X3961928Y-17300500D01*
X3976214Y-17314786D01*
X3990500Y-17343357D01*
X3990500Y-17429072D01*
X3976214Y-17457643D01*
X3961928Y-17471929D01*
X3933357Y-17486214D01*
X3876214Y-17486214D01*
X3847643Y-17471929D01*
X4119071Y-17457643D02*
X4133357Y-17471929D01*
X4119071Y-17486214D01*
X4104786Y-17471929D01*
X4119071Y-17457643D01*
X4119071Y-17486214D01*
X4119071Y-17300500D02*
X4133357Y-17314786D01*
X4119071Y-17329072D01*
X4104786Y-17314786D01*
X4119071Y-17300500D01*
X4119071Y-17329072D01*
X1735500Y-17960500D02*
X1775500Y-18000500D01*
X1775500Y-17960500D02*
X1735500Y-18000500D01*
X2119071Y-17816214D02*
X2147643Y-17816214D01*
X2176214Y-17830500D01*
X2190500Y-17844786D01*
X2204786Y-17873357D01*
X2219071Y-17930500D01*
X2219071Y-18001929D01*
X2204786Y-18059072D01*
X2190500Y-18087643D01*
X2176214Y-18101929D01*
X2147643Y-18116214D01*
X2119071Y-18116214D01*
X2090500Y-18101929D01*
X2076214Y-18087643D01*
X2061928Y-18059072D01*
X2047643Y-18001929D01*
X2047643Y-17930500D01*
X2061928Y-17873357D01*
X2076214Y-17844786D01*
X2090500Y-17830500D01*
X2119071Y-17816214D01*
X2347643Y-18087643D02*
X2361928Y-18101929D01*
X2347643Y-18116214D01*
X2333357Y-18101929D01*
X2347643Y-18087643D01*
X2347643Y-18116214D01*
X2619071Y-17916214D02*
X2619071Y-18116214D01*
X2547643Y-17801929D02*
X2476214Y-18016214D01*
X2661928Y-18016214D01*
X2833357Y-17816214D02*
X2861928Y-17816214D01*
X2890500Y-17830500D01*
X2904786Y-17844786D01*
X2919071Y-17873357D01*
X2933357Y-17930500D01*
X2933357Y-18001929D01*
X2919071Y-18059072D01*
X2904786Y-18087643D01*
X2890500Y-18101929D01*
X2861928Y-18116214D01*
X2833357Y-18116214D01*
X2804786Y-18101929D01*
X2790500Y-18087643D01*
X2776214Y-18059072D01*
X2761928Y-18001929D01*
X2761928Y-17930500D01*
X2776214Y-17873357D01*
X2790500Y-17844786D01*
X2804786Y-17830500D01*
X2833357Y-17816214D01*
X3061928Y-18116214D02*
X3061928Y-17916214D01*
X3061928Y-17944786D02*
X3076214Y-17930500D01*
X3104786Y-17916214D01*
X3147643Y-17916214D01*
X3176214Y-17930500D01*
X3190500Y-17959072D01*
X3190500Y-18116214D01*
X3190500Y-17959072D02*
X3204786Y-17930500D01*
X3233357Y-17916214D01*
X3276214Y-17916214D01*
X3304786Y-17930500D01*
X3319071Y-17959072D01*
X3319071Y-18116214D01*
X3461928Y-18116214D02*
X3461928Y-17916214D01*
X3461928Y-17944786D02*
X3476214Y-17930500D01*
X3504786Y-17916214D01*
X3547643Y-17916214D01*
X3576214Y-17930500D01*
X3590500Y-17959072D01*
X3590500Y-18116214D01*
X3590500Y-17959072D02*
X3604786Y-17930500D01*
X3633357Y-17916214D01*
X3676214Y-17916214D01*
X3704786Y-17930500D01*
X3719071Y-17959072D01*
X3719071Y-18116214D01*
X4304786Y-17801929D02*
X4047643Y-18187643D01*
X4690500Y-17816214D02*
X4719071Y-17816214D01*
X4747643Y-17830500D01*
X4761928Y-17844786D01*
X4776214Y-17873357D01*
X4790500Y-17930500D01*
X4790500Y-18001929D01*
X4776214Y-18059072D01*
X4761928Y-18087643D01*
X4747643Y-18101929D01*
X4719071Y-18116214D01*
X4690500Y-18116214D01*
X4661928Y-18101929D01*
X4647643Y-18087643D01*
X4633357Y-18059072D01*
X4619071Y-18001929D01*
X4619071Y-17930500D01*
X4633357Y-17873357D01*
X4647643Y-17844786D01*
X4661928Y-17830500D01*
X4690500Y-17816214D01*
X4919071Y-18087643D02*
X4933357Y-18101929D01*
X4919071Y-18116214D01*
X4904786Y-18101929D01*
X4919071Y-18087643D01*
X4919071Y-18116214D01*
X5119071Y-17816214D02*
X5147643Y-17816214D01*
X5176214Y-17830500D01*
X5190500Y-17844786D01*
X5204786Y-17873357D01*
X5219071Y-17930500D01*
X5219071Y-18001929D01*
X5204786Y-18059072D01*
X5190500Y-18087643D01*
X5176214Y-18101929D01*
X5147643Y-18116214D01*
X5119071Y-18116214D01*
X5090500Y-18101929D01*
X5076214Y-18087643D01*
X5061928Y-18059072D01*
X5047643Y-18001929D01*
X5047643Y-17930500D01*
X5061928Y-17873357D01*
X5076214Y-17844786D01*
X5090500Y-17830500D01*
X5119071Y-17816214D01*
X5504786Y-18116214D02*
X5333357Y-18116214D01*
X5419071Y-18116214D02*
X5419071Y-17816214D01*
X5390500Y-17859072D01*
X5361928Y-17887643D01*
X5333357Y-17901929D01*
X5761928Y-17816214D02*
X5704786Y-17816214D01*
X5676214Y-17830500D01*
X5661928Y-17844786D01*
X5633357Y-17887643D01*
X5619071Y-17944786D01*
X5619071Y-18059072D01*
X5633357Y-18087643D01*
X5647643Y-18101929D01*
X5676214Y-18116214D01*
X5733357Y-18116214D01*
X5761928Y-18101929D01*
X5776214Y-18087643D01*
X5790500Y-18059072D01*
X5790500Y-17987643D01*
X5776214Y-17959072D01*
X5761928Y-17944786D01*
X5733357Y-17930500D01*
X5676214Y-17930500D01*
X5647643Y-17944786D01*
X5633357Y-17959072D01*
X5619071Y-17987643D01*
X5904786Y-17816214D02*
X5904786Y-17873357D01*
X6019071Y-17816214D02*
X6019071Y-17873357D01*
X6461928Y-18230500D02*
X6447643Y-18216214D01*
X6419071Y-18173357D01*
X6404786Y-18144786D01*
X6390500Y-18101929D01*
X6376214Y-18030500D01*
X6376214Y-17973357D01*
X6390500Y-17901929D01*
X6404786Y-17859072D01*
X6419071Y-17830500D01*
X6447643Y-17787643D01*
X6461928Y-17773357D01*
X6733357Y-18116214D02*
X6561928Y-18116214D01*
X6647643Y-18116214D02*
X6647643Y-17816214D01*
X6619071Y-17859072D01*
X6590500Y-17887643D01*
X6561928Y-17901929D01*
X7004786Y-17816214D02*
X6861928Y-17816214D01*
X6847643Y-17959072D01*
X6861928Y-17944786D01*
X6890500Y-17930500D01*
X6961928Y-17930500D01*
X6990500Y-17944786D01*
X7004786Y-17959072D01*
X7019071Y-17987643D01*
X7019071Y-18059072D01*
X7004786Y-18087643D01*
X6990500Y-18101929D01*
X6961928Y-18116214D01*
X6890500Y-18116214D01*
X6861928Y-18101929D01*
X6847643Y-18087643D01*
X7276214Y-17916214D02*
X7276214Y-18116214D01*
X7204786Y-17801929D02*
X7133357Y-18016214D01*
X7319071Y-18016214D01*
X7661928Y-18116214D02*
X7661928Y-17816214D01*
X7790500Y-18116214D02*
X7790500Y-17959072D01*
X7776214Y-17930500D01*
X7747643Y-17916214D01*
X7704786Y-17916214D01*
X7676214Y-17930500D01*
X7661928Y-17944786D01*
X7976214Y-18116214D02*
X7947643Y-18101929D01*
X7933357Y-18087643D01*
X7919071Y-18059072D01*
X7919071Y-17973357D01*
X7933357Y-17944786D01*
X7947643Y-17930500D01*
X7976214Y-17916214D01*
X8019071Y-17916214D01*
X8047643Y-17930500D01*
X8061928Y-17944786D01*
X8076214Y-17973357D01*
X8076214Y-18059072D01*
X8061928Y-18087643D01*
X8047643Y-18101929D01*
X8019071Y-18116214D01*
X7976214Y-18116214D01*
X8247643Y-18116214D02*
X8219071Y-18101929D01*
X8204786Y-18073357D01*
X8204786Y-17816214D01*
X8476214Y-18101929D02*
X8447643Y-18116214D01*
X8390500Y-18116214D01*
X8361928Y-18101929D01*
X8347643Y-18073357D01*
X8347643Y-17959072D01*
X8361928Y-17930500D01*
X8390500Y-17916214D01*
X8447643Y-17916214D01*
X8476214Y-17930500D01*
X8490500Y-17959072D01*
X8490500Y-17987643D01*
X8347643Y-18016214D01*
X8604786Y-18101929D02*
X8633357Y-18116214D01*
X8690500Y-18116214D01*
X8719071Y-18101929D01*
X8733357Y-18073357D01*
X8733357Y-18059072D01*
X8719071Y-18030500D01*
X8690500Y-18016214D01*
X8647643Y-18016214D01*
X8619071Y-18001929D01*
X8604786Y-17973357D01*
X8604786Y-17959072D01*
X8619071Y-17930500D01*
X8647643Y-17916214D01*
X8690500Y-17916214D01*
X8719071Y-17930500D01*
X8833357Y-18230500D02*
X8847643Y-18216214D01*
X8876214Y-18173357D01*
X8890500Y-18144786D01*
X8904786Y-18101929D01*
X8919071Y-18030500D01*
X8919071Y-17973357D01*
X8904786Y-17901929D01*
X8890500Y-17859072D01*
X8876214Y-17830500D01*
X8847643Y-17787643D01*
X8833357Y-17773357D01*
X1775500Y-18376500D02*
G75*
G03*
X1775500Y-18376500I-40000J0D01*
G01*
X2119071Y-18212214D02*
X2147643Y-18212214D01*
X2176214Y-18226500D01*
X2190500Y-18240786D01*
X2204786Y-18269357D01*
X2219071Y-18326500D01*
X2219071Y-18397929D01*
X2204786Y-18455072D01*
X2190500Y-18483643D01*
X2176214Y-18497929D01*
X2147643Y-18512214D01*
X2119071Y-18512214D01*
X2090500Y-18497929D01*
X2076214Y-18483643D01*
X2061928Y-18455072D01*
X2047643Y-18397929D01*
X2047643Y-18326500D01*
X2061928Y-18269357D01*
X2076214Y-18240786D01*
X2090500Y-18226500D01*
X2119071Y-18212214D01*
X2347643Y-18483643D02*
X2361928Y-18497929D01*
X2347643Y-18512214D01*
X2333357Y-18497929D01*
X2347643Y-18483643D01*
X2347643Y-18512214D01*
X2533357Y-18340786D02*
X2504786Y-18326500D01*
X2490500Y-18312214D01*
X2476214Y-18283643D01*
X2476214Y-18269357D01*
X2490500Y-18240786D01*
X2504786Y-18226500D01*
X2533357Y-18212214D01*
X2590500Y-18212214D01*
X2619071Y-18226500D01*
X2633357Y-18240786D01*
X2647643Y-18269357D01*
X2647643Y-18283643D01*
X2633357Y-18312214D01*
X2619071Y-18326500D01*
X2590500Y-18340786D01*
X2533357Y-18340786D01*
X2504786Y-18355072D01*
X2490500Y-18369357D01*
X2476214Y-18397929D01*
X2476214Y-18455072D01*
X2490500Y-18483643D01*
X2504786Y-18497929D01*
X2533357Y-18512214D01*
X2590500Y-18512214D01*
X2619071Y-18497929D01*
X2633357Y-18483643D01*
X2647643Y-18455072D01*
X2647643Y-18397929D01*
X2633357Y-18369357D01*
X2619071Y-18355072D01*
X2590500Y-18340786D01*
X2833357Y-18212214D02*
X2861928Y-18212214D01*
X2890500Y-18226500D01*
X2904786Y-18240786D01*
X2919071Y-18269357D01*
X2933357Y-18326500D01*
X2933357Y-18397929D01*
X2919071Y-18455072D01*
X2904786Y-18483643D01*
X2890500Y-18497929D01*
X2861928Y-18512214D01*
X2833357Y-18512214D01*
X2804786Y-18497929D01*
X2790500Y-18483643D01*
X2776214Y-18455072D01*
X2761928Y-18397929D01*
X2761928Y-18326500D01*
X2776214Y-18269357D01*
X2790500Y-18240786D01*
X2804786Y-18226500D01*
X2833357Y-18212214D01*
X3061928Y-18512214D02*
X3061928Y-18312214D01*
X3061928Y-18340786D02*
X3076214Y-18326500D01*
X3104786Y-18312214D01*
X3147643Y-18312214D01*
X3176214Y-18326500D01*
X3190500Y-18355072D01*
X3190500Y-18512214D01*
X3190500Y-18355072D02*
X3204786Y-18326500D01*
X3233357Y-18312214D01*
X3276214Y-18312214D01*
X3304786Y-18326500D01*
X3319071Y-18355072D01*
X3319071Y-18512214D01*
X3461928Y-18512214D02*
X3461928Y-18312214D01*
X3461928Y-18340786D02*
X3476214Y-18326500D01*
X3504786Y-18312214D01*
X3547643Y-18312214D01*
X3576214Y-18326500D01*
X3590500Y-18355072D01*
X3590500Y-18512214D01*
X3590500Y-18355072D02*
X3604786Y-18326500D01*
X3633357Y-18312214D01*
X3676214Y-18312214D01*
X3704786Y-18326500D01*
X3719071Y-18355072D01*
X3719071Y-18512214D01*
X4304786Y-18197929D02*
X4047643Y-18583643D01*
X4690500Y-18212214D02*
X4719071Y-18212214D01*
X4747643Y-18226500D01*
X4761928Y-18240786D01*
X4776214Y-18269357D01*
X4790500Y-18326500D01*
X4790500Y-18397929D01*
X4776214Y-18455072D01*
X4761928Y-18483643D01*
X4747643Y-18497929D01*
X4719071Y-18512214D01*
X4690500Y-18512214D01*
X4661928Y-18497929D01*
X4647643Y-18483643D01*
X4633357Y-18455072D01*
X4619071Y-18397929D01*
X4619071Y-18326500D01*
X4633357Y-18269357D01*
X4647643Y-18240786D01*
X4661928Y-18226500D01*
X4690500Y-18212214D01*
X4919071Y-18483643D02*
X4933357Y-18497929D01*
X4919071Y-18512214D01*
X4904786Y-18497929D01*
X4919071Y-18483643D01*
X4919071Y-18512214D01*
X5119071Y-18212214D02*
X5147643Y-18212214D01*
X5176214Y-18226500D01*
X5190500Y-18240786D01*
X5204786Y-18269357D01*
X5219071Y-18326500D01*
X5219071Y-18397929D01*
X5204786Y-18455072D01*
X5190500Y-18483643D01*
X5176214Y-18497929D01*
X5147643Y-18512214D01*
X5119071Y-18512214D01*
X5090500Y-18497929D01*
X5076214Y-18483643D01*
X5061928Y-18455072D01*
X5047643Y-18397929D01*
X5047643Y-18326500D01*
X5061928Y-18269357D01*
X5076214Y-18240786D01*
X5090500Y-18226500D01*
X5119071Y-18212214D01*
X5319071Y-18212214D02*
X5504786Y-18212214D01*
X5404786Y-18326500D01*
X5447643Y-18326500D01*
X5476214Y-18340786D01*
X5490500Y-18355072D01*
X5504786Y-18383643D01*
X5504786Y-18455072D01*
X5490500Y-18483643D01*
X5476214Y-18497929D01*
X5447643Y-18512214D01*
X5361928Y-18512214D01*
X5333357Y-18497929D01*
X5319071Y-18483643D01*
X5790500Y-18512214D02*
X5619071Y-18512214D01*
X5704786Y-18512214D02*
X5704786Y-18212214D01*
X5676214Y-18255072D01*
X5647643Y-18283643D01*
X5619071Y-18297929D01*
X5904786Y-18212214D02*
X5904786Y-18269357D01*
X6019071Y-18212214D02*
X6019071Y-18269357D01*
X6461928Y-18626500D02*
X6447643Y-18612214D01*
X6419071Y-18569357D01*
X6404786Y-18540786D01*
X6390500Y-18497929D01*
X6376214Y-18426500D01*
X6376214Y-18369357D01*
X6390500Y-18297929D01*
X6404786Y-18255072D01*
X6419071Y-18226500D01*
X6447643Y-18183643D01*
X6461928Y-18169357D01*
X6704786Y-18212214D02*
X6647643Y-18212214D01*
X6619071Y-18226500D01*
X6604786Y-18240786D01*
X6576214Y-18283643D01*
X6561928Y-18340786D01*
X6561928Y-18455072D01*
X6576214Y-18483643D01*
X6590500Y-18497929D01*
X6619071Y-18512214D01*
X6676214Y-18512214D01*
X6704786Y-18497929D01*
X6719071Y-18483643D01*
X6733357Y-18455072D01*
X6733357Y-18383643D01*
X6719071Y-18355072D01*
X6704786Y-18340786D01*
X6676214Y-18326500D01*
X6619071Y-18326500D01*
X6590500Y-18340786D01*
X6576214Y-18355072D01*
X6561928Y-18383643D01*
X7004786Y-18212214D02*
X6861928Y-18212214D01*
X6847643Y-18355072D01*
X6861928Y-18340786D01*
X6890500Y-18326500D01*
X6961928Y-18326500D01*
X6990500Y-18340786D01*
X7004786Y-18355072D01*
X7019071Y-18383643D01*
X7019071Y-18455072D01*
X7004786Y-18483643D01*
X6990500Y-18497929D01*
X6961928Y-18512214D01*
X6890500Y-18512214D01*
X6861928Y-18497929D01*
X6847643Y-18483643D01*
X7133357Y-18240786D02*
X7147643Y-18226500D01*
X7176214Y-18212214D01*
X7247643Y-18212214D01*
X7276214Y-18226500D01*
X7290500Y-18240786D01*
X7304786Y-18269357D01*
X7304786Y-18297929D01*
X7290500Y-18340786D01*
X7119071Y-18512214D01*
X7304786Y-18512214D01*
X7661928Y-18512214D02*
X7661928Y-18212214D01*
X7790500Y-18512214D02*
X7790500Y-18355072D01*
X7776214Y-18326500D01*
X7747643Y-18312214D01*
X7704786Y-18312214D01*
X7676214Y-18326500D01*
X7661928Y-18340786D01*
X7976214Y-18512214D02*
X7947643Y-18497929D01*
X7933357Y-18483643D01*
X7919071Y-18455072D01*
X7919071Y-18369357D01*
X7933357Y-18340786D01*
X7947643Y-18326500D01*
X7976214Y-18312214D01*
X8019071Y-18312214D01*
X8047643Y-18326500D01*
X8061928Y-18340786D01*
X8076214Y-18369357D01*
X8076214Y-18455072D01*
X8061928Y-18483643D01*
X8047643Y-18497929D01*
X8019071Y-18512214D01*
X7976214Y-18512214D01*
X8247643Y-18512214D02*
X8219071Y-18497929D01*
X8204786Y-18469357D01*
X8204786Y-18212214D01*
X8476214Y-18497929D02*
X8447643Y-18512214D01*
X8390500Y-18512214D01*
X8361928Y-18497929D01*
X8347643Y-18469357D01*
X8347643Y-18355072D01*
X8361928Y-18326500D01*
X8390500Y-18312214D01*
X8447643Y-18312214D01*
X8476214Y-18326500D01*
X8490500Y-18355072D01*
X8490500Y-18383643D01*
X8347643Y-18412214D01*
X8604786Y-18497929D02*
X8633357Y-18512214D01*
X8690500Y-18512214D01*
X8719071Y-18497929D01*
X8733357Y-18469357D01*
X8733357Y-18455072D01*
X8719071Y-18426500D01*
X8690500Y-18412214D01*
X8647643Y-18412214D01*
X8619071Y-18397929D01*
X8604786Y-18369357D01*
X8604786Y-18355072D01*
X8619071Y-18326500D01*
X8647643Y-18312214D01*
X8690500Y-18312214D01*
X8719071Y-18326500D01*
X8833357Y-18626500D02*
X8847643Y-18612214D01*
X8876214Y-18569357D01*
X8890500Y-18540786D01*
X8904786Y-18497929D01*
X8919071Y-18426500D01*
X8919071Y-18369357D01*
X8904786Y-18297929D01*
X8890500Y-18255072D01*
X8876214Y-18226500D01*
X8847643Y-18183643D01*
X8833357Y-18169357D01*
X1730500Y-18727500D02*
X1730500Y-18817500D01*
X1685500Y-18772500D02*
X1775500Y-18772500D01*
X2119071Y-18608214D02*
X2147643Y-18608214D01*
X2176214Y-18622500D01*
X2190500Y-18636786D01*
X2204786Y-18665357D01*
X2219071Y-18722500D01*
X2219071Y-18793929D01*
X2204786Y-18851072D01*
X2190500Y-18879643D01*
X2176214Y-18893929D01*
X2147643Y-18908214D01*
X2119071Y-18908214D01*
X2090500Y-18893929D01*
X2076214Y-18879643D01*
X2061928Y-18851072D01*
X2047643Y-18793929D01*
X2047643Y-18722500D01*
X2061928Y-18665357D01*
X2076214Y-18636786D01*
X2090500Y-18622500D01*
X2119071Y-18608214D01*
X2347643Y-18879643D02*
X2361928Y-18893929D01*
X2347643Y-18908214D01*
X2333357Y-18893929D01*
X2347643Y-18879643D01*
X2347643Y-18908214D01*
X2504786Y-18908214D02*
X2561928Y-18908214D01*
X2590500Y-18893929D01*
X2604786Y-18879643D01*
X2633357Y-18836786D01*
X2647643Y-18779643D01*
X2647643Y-18665357D01*
X2633357Y-18636786D01*
X2619071Y-18622500D01*
X2590500Y-18608214D01*
X2533357Y-18608214D01*
X2504786Y-18622500D01*
X2490500Y-18636786D01*
X2476214Y-18665357D01*
X2476214Y-18736786D01*
X2490500Y-18765357D01*
X2504786Y-18779643D01*
X2533357Y-18793929D01*
X2590500Y-18793929D01*
X2619071Y-18779643D01*
X2633357Y-18765357D01*
X2647643Y-18736786D01*
X2833357Y-18608214D02*
X2861928Y-18608214D01*
X2890500Y-18622500D01*
X2904786Y-18636786D01*
X2919071Y-18665357D01*
X2933357Y-18722500D01*
X2933357Y-18793929D01*
X2919071Y-18851072D01*
X2904786Y-18879643D01*
X2890500Y-18893929D01*
X2861928Y-18908214D01*
X2833357Y-18908214D01*
X2804786Y-18893929D01*
X2790500Y-18879643D01*
X2776214Y-18851072D01*
X2761928Y-18793929D01*
X2761928Y-18722500D01*
X2776214Y-18665357D01*
X2790500Y-18636786D01*
X2804786Y-18622500D01*
X2833357Y-18608214D01*
X3061928Y-18908214D02*
X3061928Y-18708214D01*
X3061928Y-18736786D02*
X3076214Y-18722500D01*
X3104786Y-18708214D01*
X3147643Y-18708214D01*
X3176214Y-18722500D01*
X3190500Y-18751072D01*
X3190500Y-18908214D01*
X3190500Y-18751072D02*
X3204786Y-18722500D01*
X3233357Y-18708214D01*
X3276214Y-18708214D01*
X3304786Y-18722500D01*
X3319071Y-18751072D01*
X3319071Y-18908214D01*
X3461928Y-18908214D02*
X3461928Y-18708214D01*
X3461928Y-18736786D02*
X3476214Y-18722500D01*
X3504786Y-18708214D01*
X3547643Y-18708214D01*
X3576214Y-18722500D01*
X3590500Y-18751072D01*
X3590500Y-18908214D01*
X3590500Y-18751072D02*
X3604786Y-18722500D01*
X3633357Y-18708214D01*
X3676214Y-18708214D01*
X3704786Y-18722500D01*
X3719071Y-18751072D01*
X3719071Y-18908214D01*
X4304786Y-18593929D02*
X4047643Y-18979643D01*
X4690500Y-18608214D02*
X4719071Y-18608214D01*
X4747643Y-18622500D01*
X4761928Y-18636786D01*
X4776214Y-18665357D01*
X4790500Y-18722500D01*
X4790500Y-18793929D01*
X4776214Y-18851072D01*
X4761928Y-18879643D01*
X4747643Y-18893929D01*
X4719071Y-18908214D01*
X4690500Y-18908214D01*
X4661928Y-18893929D01*
X4647643Y-18879643D01*
X4633357Y-18851072D01*
X4619071Y-18793929D01*
X4619071Y-18722500D01*
X4633357Y-18665357D01*
X4647643Y-18636786D01*
X4661928Y-18622500D01*
X4690500Y-18608214D01*
X4919071Y-18879643D02*
X4933357Y-18893929D01*
X4919071Y-18908214D01*
X4904786Y-18893929D01*
X4919071Y-18879643D01*
X4919071Y-18908214D01*
X5119071Y-18608214D02*
X5147643Y-18608214D01*
X5176214Y-18622500D01*
X5190500Y-18636786D01*
X5204786Y-18665357D01*
X5219071Y-18722500D01*
X5219071Y-18793929D01*
X5204786Y-18851072D01*
X5190500Y-18879643D01*
X5176214Y-18893929D01*
X5147643Y-18908214D01*
X5119071Y-18908214D01*
X5090500Y-18893929D01*
X5076214Y-18879643D01*
X5061928Y-18851072D01*
X5047643Y-18793929D01*
X5047643Y-18722500D01*
X5061928Y-18665357D01*
X5076214Y-18636786D01*
X5090500Y-18622500D01*
X5119071Y-18608214D01*
X5319071Y-18608214D02*
X5504786Y-18608214D01*
X5404786Y-18722500D01*
X5447643Y-18722500D01*
X5476214Y-18736786D01*
X5490500Y-18751072D01*
X5504786Y-18779643D01*
X5504786Y-18851072D01*
X5490500Y-18879643D01*
X5476214Y-18893929D01*
X5447643Y-18908214D01*
X5361928Y-18908214D01*
X5333357Y-18893929D01*
X5319071Y-18879643D01*
X5776214Y-18608214D02*
X5633357Y-18608214D01*
X5619071Y-18751072D01*
X5633357Y-18736786D01*
X5661928Y-18722500D01*
X5733357Y-18722500D01*
X5761928Y-18736786D01*
X5776214Y-18751072D01*
X5790500Y-18779643D01*
X5790500Y-18851072D01*
X5776214Y-18879643D01*
X5761928Y-18893929D01*
X5733357Y-18908214D01*
X5661928Y-18908214D01*
X5633357Y-18893929D01*
X5619071Y-18879643D01*
X5904786Y-18608214D02*
X5904786Y-18665357D01*
X6019071Y-18608214D02*
X6019071Y-18665357D01*
X6461928Y-19022500D02*
X6447643Y-19008214D01*
X6419071Y-18965357D01*
X6404786Y-18936786D01*
X6390500Y-18893929D01*
X6376214Y-18822500D01*
X6376214Y-18765357D01*
X6390500Y-18693929D01*
X6404786Y-18651072D01*
X6419071Y-18622500D01*
X6447643Y-18579643D01*
X6461928Y-18565357D01*
X6733357Y-18908214D02*
X6561928Y-18908214D01*
X6647643Y-18908214D02*
X6647643Y-18608214D01*
X6619071Y-18651072D01*
X6590500Y-18679643D01*
X6561928Y-18693929D01*
X6847643Y-18636786D02*
X6861928Y-18622500D01*
X6890500Y-18608214D01*
X6961928Y-18608214D01*
X6990500Y-18622500D01*
X7004786Y-18636786D01*
X7019071Y-18665357D01*
X7019071Y-18693929D01*
X7004786Y-18736786D01*
X6833357Y-18908214D01*
X7019071Y-18908214D01*
X7376214Y-18908214D02*
X7376214Y-18608214D01*
X7504786Y-18908214D02*
X7504786Y-18751072D01*
X7490500Y-18722500D01*
X7461928Y-18708214D01*
X7419071Y-18708214D01*
X7390500Y-18722500D01*
X7376214Y-18736786D01*
X7690500Y-18908214D02*
X7661928Y-18893929D01*
X7647643Y-18879643D01*
X7633357Y-18851072D01*
X7633357Y-18765357D01*
X7647643Y-18736786D01*
X7661928Y-18722500D01*
X7690500Y-18708214D01*
X7733357Y-18708214D01*
X7761928Y-18722500D01*
X7776214Y-18736786D01*
X7790500Y-18765357D01*
X7790500Y-18851072D01*
X7776214Y-18879643D01*
X7761928Y-18893929D01*
X7733357Y-18908214D01*
X7690500Y-18908214D01*
X7961928Y-18908214D02*
X7933357Y-18893929D01*
X7919071Y-18865357D01*
X7919071Y-18608214D01*
X8190500Y-18893929D02*
X8161928Y-18908214D01*
X8104786Y-18908214D01*
X8076214Y-18893929D01*
X8061928Y-18865357D01*
X8061928Y-18751072D01*
X8076214Y-18722500D01*
X8104786Y-18708214D01*
X8161928Y-18708214D01*
X8190500Y-18722500D01*
X8204786Y-18751072D01*
X8204786Y-18779643D01*
X8061928Y-18808214D01*
X8319071Y-18893929D02*
X8347643Y-18908214D01*
X8404786Y-18908214D01*
X8433357Y-18893929D01*
X8447643Y-18865357D01*
X8447643Y-18851072D01*
X8433357Y-18822500D01*
X8404786Y-18808214D01*
X8361928Y-18808214D01*
X8333357Y-18793929D01*
X8319071Y-18765357D01*
X8319071Y-18751072D01*
X8333357Y-18722500D01*
X8361928Y-18708214D01*
X8404786Y-18708214D01*
X8433357Y-18722500D01*
X8547643Y-19022500D02*
X8561928Y-19008214D01*
X8590500Y-18965357D01*
X8604786Y-18936786D01*
X8619071Y-18893929D01*
X8633357Y-18822500D01*
X8633357Y-18765357D01*
X8619071Y-18693929D01*
X8604786Y-18651072D01*
X8590500Y-18622500D01*
X8561928Y-18579643D01*
X8547643Y-18565357D01*
X1760856Y-19203856D02*
X1760856Y-19133144D01*
X1690144Y-19133144D01*
X1690144Y-19203856D01*
X1760856Y-19203856D01*
X2219071Y-19304214D02*
X2047643Y-19304214D01*
X2133357Y-19304214D02*
X2133357Y-19004214D01*
X2104786Y-19047072D01*
X2076214Y-19075643D01*
X2047643Y-19089929D01*
X2347643Y-19275643D02*
X2361928Y-19289929D01*
X2347643Y-19304214D01*
X2333357Y-19289929D01*
X2347643Y-19275643D01*
X2347643Y-19304214D01*
X2547643Y-19004214D02*
X2576214Y-19004214D01*
X2604786Y-19018500D01*
X2619071Y-19032786D01*
X2633357Y-19061357D01*
X2647643Y-19118500D01*
X2647643Y-19189929D01*
X2633357Y-19247072D01*
X2619071Y-19275643D01*
X2604786Y-19289929D01*
X2576214Y-19304214D01*
X2547643Y-19304214D01*
X2519071Y-19289929D01*
X2504786Y-19275643D01*
X2490500Y-19247072D01*
X2476214Y-19189929D01*
X2476214Y-19118500D01*
X2490500Y-19061357D01*
X2504786Y-19032786D01*
X2519071Y-19018500D01*
X2547643Y-19004214D01*
X2833357Y-19004214D02*
X2861928Y-19004214D01*
X2890500Y-19018500D01*
X2904786Y-19032786D01*
X2919071Y-19061357D01*
X2933357Y-19118500D01*
X2933357Y-19189929D01*
X2919071Y-19247072D01*
X2904786Y-19275643D01*
X2890500Y-19289929D01*
X2861928Y-19304214D01*
X2833357Y-19304214D01*
X2804786Y-19289929D01*
X2790500Y-19275643D01*
X2776214Y-19247072D01*
X2761928Y-19189929D01*
X2761928Y-19118500D01*
X2776214Y-19061357D01*
X2790500Y-19032786D01*
X2804786Y-19018500D01*
X2833357Y-19004214D01*
X3061928Y-19304214D02*
X3061928Y-19104214D01*
X3061928Y-19132786D02*
X3076214Y-19118500D01*
X3104786Y-19104214D01*
X3147643Y-19104214D01*
X3176214Y-19118500D01*
X3190500Y-19147072D01*
X3190500Y-19304214D01*
X3190500Y-19147072D02*
X3204786Y-19118500D01*
X3233357Y-19104214D01*
X3276214Y-19104214D01*
X3304786Y-19118500D01*
X3319071Y-19147072D01*
X3319071Y-19304214D01*
X3461928Y-19304214D02*
X3461928Y-19104214D01*
X3461928Y-19132786D02*
X3476214Y-19118500D01*
X3504786Y-19104214D01*
X3547643Y-19104214D01*
X3576214Y-19118500D01*
X3590500Y-19147072D01*
X3590500Y-19304214D01*
X3590500Y-19147072D02*
X3604786Y-19118500D01*
X3633357Y-19104214D01*
X3676214Y-19104214D01*
X3704786Y-19118500D01*
X3719071Y-19147072D01*
X3719071Y-19304214D01*
X4304786Y-18989929D02*
X4047643Y-19375643D01*
X4690500Y-19004214D02*
X4719071Y-19004214D01*
X4747643Y-19018500D01*
X4761928Y-19032786D01*
X4776214Y-19061357D01*
X4790500Y-19118500D01*
X4790500Y-19189929D01*
X4776214Y-19247072D01*
X4761928Y-19275643D01*
X4747643Y-19289929D01*
X4719071Y-19304214D01*
X4690500Y-19304214D01*
X4661928Y-19289929D01*
X4647643Y-19275643D01*
X4633357Y-19247072D01*
X4619071Y-19189929D01*
X4619071Y-19118500D01*
X4633357Y-19061357D01*
X4647643Y-19032786D01*
X4661928Y-19018500D01*
X4690500Y-19004214D01*
X4919071Y-19275643D02*
X4933357Y-19289929D01*
X4919071Y-19304214D01*
X4904786Y-19289929D01*
X4919071Y-19275643D01*
X4919071Y-19304214D01*
X5119071Y-19004214D02*
X5147643Y-19004214D01*
X5176214Y-19018500D01*
X5190500Y-19032786D01*
X5204786Y-19061357D01*
X5219071Y-19118500D01*
X5219071Y-19189929D01*
X5204786Y-19247072D01*
X5190500Y-19275643D01*
X5176214Y-19289929D01*
X5147643Y-19304214D01*
X5119071Y-19304214D01*
X5090500Y-19289929D01*
X5076214Y-19275643D01*
X5061928Y-19247072D01*
X5047643Y-19189929D01*
X5047643Y-19118500D01*
X5061928Y-19061357D01*
X5076214Y-19032786D01*
X5090500Y-19018500D01*
X5119071Y-19004214D01*
X5319071Y-19004214D02*
X5504786Y-19004214D01*
X5404786Y-19118500D01*
X5447643Y-19118500D01*
X5476214Y-19132786D01*
X5490500Y-19147072D01*
X5504786Y-19175643D01*
X5504786Y-19247072D01*
X5490500Y-19275643D01*
X5476214Y-19289929D01*
X5447643Y-19304214D01*
X5361928Y-19304214D01*
X5333357Y-19289929D01*
X5319071Y-19275643D01*
X5647643Y-19304214D02*
X5704786Y-19304214D01*
X5733357Y-19289929D01*
X5747643Y-19275643D01*
X5776214Y-19232786D01*
X5790500Y-19175643D01*
X5790500Y-19061357D01*
X5776214Y-19032786D01*
X5761928Y-19018500D01*
X5733357Y-19004214D01*
X5676214Y-19004214D01*
X5647643Y-19018500D01*
X5633357Y-19032786D01*
X5619071Y-19061357D01*
X5619071Y-19132786D01*
X5633357Y-19161357D01*
X5647643Y-19175643D01*
X5676214Y-19189929D01*
X5733357Y-19189929D01*
X5761928Y-19175643D01*
X5776214Y-19161357D01*
X5790500Y-19132786D01*
X5904786Y-19004214D02*
X5904786Y-19061357D01*
X6019071Y-19004214D02*
X6019071Y-19061357D01*
X6461928Y-19418500D02*
X6447643Y-19404214D01*
X6419071Y-19361357D01*
X6404786Y-19332786D01*
X6390500Y-19289929D01*
X6376214Y-19218500D01*
X6376214Y-19161357D01*
X6390500Y-19089929D01*
X6404786Y-19047072D01*
X6419071Y-19018500D01*
X6447643Y-18975643D01*
X6461928Y-18961357D01*
X6733357Y-19304214D02*
X6561928Y-19304214D01*
X6647643Y-19304214D02*
X6647643Y-19004214D01*
X6619071Y-19047072D01*
X6590500Y-19075643D01*
X6561928Y-19089929D01*
X6833357Y-19004214D02*
X7033357Y-19004214D01*
X6904786Y-19304214D01*
X7133357Y-19032786D02*
X7147643Y-19018500D01*
X7176214Y-19004214D01*
X7247643Y-19004214D01*
X7276214Y-19018500D01*
X7290500Y-19032786D01*
X7304786Y-19061357D01*
X7304786Y-19089929D01*
X7290500Y-19132786D01*
X7119071Y-19304214D01*
X7304786Y-19304214D01*
X7661928Y-19304214D02*
X7661928Y-19004214D01*
X7790500Y-19304214D02*
X7790500Y-19147072D01*
X7776214Y-19118500D01*
X7747643Y-19104214D01*
X7704786Y-19104214D01*
X7676214Y-19118500D01*
X7661928Y-19132786D01*
X7976214Y-19304214D02*
X7947643Y-19289929D01*
X7933357Y-19275643D01*
X7919071Y-19247072D01*
X7919071Y-19161357D01*
X7933357Y-19132786D01*
X7947643Y-19118500D01*
X7976214Y-19104214D01*
X8019071Y-19104214D01*
X8047643Y-19118500D01*
X8061928Y-19132786D01*
X8076214Y-19161357D01*
X8076214Y-19247072D01*
X8061928Y-19275643D01*
X8047643Y-19289929D01*
X8019071Y-19304214D01*
X7976214Y-19304214D01*
X8247643Y-19304214D02*
X8219071Y-19289929D01*
X8204786Y-19261357D01*
X8204786Y-19004214D01*
X8476214Y-19289929D02*
X8447643Y-19304214D01*
X8390500Y-19304214D01*
X8361928Y-19289929D01*
X8347643Y-19261357D01*
X8347643Y-19147072D01*
X8361928Y-19118500D01*
X8390500Y-19104214D01*
X8447643Y-19104214D01*
X8476214Y-19118500D01*
X8490500Y-19147072D01*
X8490500Y-19175643D01*
X8347643Y-19204214D01*
X8604786Y-19289929D02*
X8633357Y-19304214D01*
X8690500Y-19304214D01*
X8719071Y-19289929D01*
X8733357Y-19261357D01*
X8733357Y-19247072D01*
X8719071Y-19218500D01*
X8690500Y-19204214D01*
X8647643Y-19204214D01*
X8619071Y-19189929D01*
X8604786Y-19161357D01*
X8604786Y-19147072D01*
X8619071Y-19118500D01*
X8647643Y-19104214D01*
X8690500Y-19104214D01*
X8719071Y-19118500D01*
X9090500Y-19189929D02*
X9319071Y-19189929D01*
X9204786Y-19304214D02*
X9204786Y-19075643D01*
X9819071Y-19004214D02*
X9761928Y-19004214D01*
X9733357Y-19018500D01*
X9719071Y-19032786D01*
X9690500Y-19075643D01*
X9676214Y-19132786D01*
X9676214Y-19247072D01*
X9690500Y-19275643D01*
X9704786Y-19289929D01*
X9733357Y-19304214D01*
X9790500Y-19304214D01*
X9819071Y-19289929D01*
X9833357Y-19275643D01*
X9847643Y-19247072D01*
X9847643Y-19175643D01*
X9833357Y-19147072D01*
X9819071Y-19132786D01*
X9790500Y-19118500D01*
X9733357Y-19118500D01*
X9704786Y-19132786D01*
X9690500Y-19147072D01*
X9676214Y-19175643D01*
X10190500Y-19289929D02*
X10219071Y-19304214D01*
X10276214Y-19304214D01*
X10304786Y-19289929D01*
X10319071Y-19261357D01*
X10319071Y-19247072D01*
X10304786Y-19218500D01*
X10276214Y-19204214D01*
X10233357Y-19204214D01*
X10204786Y-19189929D01*
X10190500Y-19161357D01*
X10190500Y-19147072D01*
X10204786Y-19118500D01*
X10233357Y-19104214D01*
X10276214Y-19104214D01*
X10304786Y-19118500D01*
X10490500Y-19304214D02*
X10461928Y-19289929D01*
X10447643Y-19261357D01*
X10447643Y-19004214D01*
X10647643Y-19304214D02*
X10619071Y-19289929D01*
X10604786Y-19275643D01*
X10590500Y-19247072D01*
X10590500Y-19161357D01*
X10604786Y-19132786D01*
X10619071Y-19118500D01*
X10647643Y-19104214D01*
X10690500Y-19104214D01*
X10719071Y-19118500D01*
X10733357Y-19132786D01*
X10747643Y-19161357D01*
X10747643Y-19247072D01*
X10733357Y-19275643D01*
X10719071Y-19289929D01*
X10690500Y-19304214D01*
X10647643Y-19304214D01*
X10833357Y-19104214D02*
X10947643Y-19104214D01*
X10876214Y-19004214D02*
X10876214Y-19261357D01*
X10890500Y-19289929D01*
X10919071Y-19304214D01*
X10947643Y-19304214D01*
X11033357Y-19289929D02*
X11061928Y-19304214D01*
X11119071Y-19304214D01*
X11147643Y-19289929D01*
X11161928Y-19261357D01*
X11161928Y-19247072D01*
X11147643Y-19218500D01*
X11119071Y-19204214D01*
X11076214Y-19204214D01*
X11047643Y-19189929D01*
X11033357Y-19161357D01*
X11033357Y-19147072D01*
X11047643Y-19118500D01*
X11076214Y-19104214D01*
X11119071Y-19104214D01*
X11147643Y-19118500D01*
X11261928Y-19418500D02*
X11276214Y-19404214D01*
X11304786Y-19361357D01*
X11319071Y-19332786D01*
X11333357Y-19289929D01*
X11347643Y-19218500D01*
X11347643Y-19161357D01*
X11333357Y-19089929D01*
X11319071Y-19047072D01*
X11304786Y-19018500D01*
X11276214Y-18975643D01*
X11261928Y-18961357D01*
X1720500Y-19619500D02*
X1775500Y-19564500D01*
X1720500Y-19509500D01*
X1665500Y-19564500D01*
X1720500Y-19619500D01*
X2219071Y-19700214D02*
X2047643Y-19700214D01*
X2133357Y-19700214D02*
X2133357Y-19400214D01*
X2104786Y-19443072D01*
X2076214Y-19471643D01*
X2047643Y-19485929D01*
X2347643Y-19671643D02*
X2361928Y-19685929D01*
X2347643Y-19700214D01*
X2333357Y-19685929D01*
X2347643Y-19671643D01*
X2347643Y-19700214D01*
X2647643Y-19700214D02*
X2476214Y-19700214D01*
X2561928Y-19700214D02*
X2561928Y-19400214D01*
X2533357Y-19443072D01*
X2504786Y-19471643D01*
X2476214Y-19485929D01*
X2833357Y-19400214D02*
X2861928Y-19400214D01*
X2890500Y-19414500D01*
X2904786Y-19428786D01*
X2919071Y-19457357D01*
X2933357Y-19514500D01*
X2933357Y-19585929D01*
X2919071Y-19643072D01*
X2904786Y-19671643D01*
X2890500Y-19685929D01*
X2861928Y-19700214D01*
X2833357Y-19700214D01*
X2804786Y-19685929D01*
X2790500Y-19671643D01*
X2776214Y-19643072D01*
X2761928Y-19585929D01*
X2761928Y-19514500D01*
X2776214Y-19457357D01*
X2790500Y-19428786D01*
X2804786Y-19414500D01*
X2833357Y-19400214D01*
X3061928Y-19700214D02*
X3061928Y-19500214D01*
X3061928Y-19528786D02*
X3076214Y-19514500D01*
X3104786Y-19500214D01*
X3147643Y-19500214D01*
X3176214Y-19514500D01*
X3190500Y-19543072D01*
X3190500Y-19700214D01*
X3190500Y-19543072D02*
X3204786Y-19514500D01*
X3233357Y-19500214D01*
X3276214Y-19500214D01*
X3304786Y-19514500D01*
X3319071Y-19543072D01*
X3319071Y-19700214D01*
X3461928Y-19700214D02*
X3461928Y-19500214D01*
X3461928Y-19528786D02*
X3476214Y-19514500D01*
X3504786Y-19500214D01*
X3547643Y-19500214D01*
X3576214Y-19514500D01*
X3590500Y-19543072D01*
X3590500Y-19700214D01*
X3590500Y-19543072D02*
X3604786Y-19514500D01*
X3633357Y-19500214D01*
X3676214Y-19500214D01*
X3704786Y-19514500D01*
X3719071Y-19543072D01*
X3719071Y-19700214D01*
X4304786Y-19385929D02*
X4047643Y-19771643D01*
X4690500Y-19400214D02*
X4719071Y-19400214D01*
X4747643Y-19414500D01*
X4761928Y-19428786D01*
X4776214Y-19457357D01*
X4790500Y-19514500D01*
X4790500Y-19585929D01*
X4776214Y-19643072D01*
X4761928Y-19671643D01*
X4747643Y-19685929D01*
X4719071Y-19700214D01*
X4690500Y-19700214D01*
X4661928Y-19685929D01*
X4647643Y-19671643D01*
X4633357Y-19643072D01*
X4619071Y-19585929D01*
X4619071Y-19514500D01*
X4633357Y-19457357D01*
X4647643Y-19428786D01*
X4661928Y-19414500D01*
X4690500Y-19400214D01*
X4919071Y-19671643D02*
X4933357Y-19685929D01*
X4919071Y-19700214D01*
X4904786Y-19685929D01*
X4919071Y-19671643D01*
X4919071Y-19700214D01*
X5119071Y-19400214D02*
X5147643Y-19400214D01*
X5176214Y-19414500D01*
X5190500Y-19428786D01*
X5204786Y-19457357D01*
X5219071Y-19514500D01*
X5219071Y-19585929D01*
X5204786Y-19643072D01*
X5190500Y-19671643D01*
X5176214Y-19685929D01*
X5147643Y-19700214D01*
X5119071Y-19700214D01*
X5090500Y-19685929D01*
X5076214Y-19671643D01*
X5061928Y-19643072D01*
X5047643Y-19585929D01*
X5047643Y-19514500D01*
X5061928Y-19457357D01*
X5076214Y-19428786D01*
X5090500Y-19414500D01*
X5119071Y-19400214D01*
X5476214Y-19500214D02*
X5476214Y-19700214D01*
X5404786Y-19385929D02*
X5333357Y-19600214D01*
X5519071Y-19600214D01*
X5604786Y-19400214D02*
X5790500Y-19400214D01*
X5690500Y-19514500D01*
X5733357Y-19514500D01*
X5761928Y-19528786D01*
X5776214Y-19543072D01*
X5790500Y-19571643D01*
X5790500Y-19643072D01*
X5776214Y-19671643D01*
X5761928Y-19685929D01*
X5733357Y-19700214D01*
X5647643Y-19700214D01*
X5619071Y-19685929D01*
X5604786Y-19671643D01*
X5904786Y-19400214D02*
X5904786Y-19457357D01*
X6019071Y-19400214D02*
X6019071Y-19457357D01*
X6461928Y-19814500D02*
X6447643Y-19800214D01*
X6419071Y-19757357D01*
X6404786Y-19728786D01*
X6390500Y-19685929D01*
X6376214Y-19614500D01*
X6376214Y-19557357D01*
X6390500Y-19485929D01*
X6404786Y-19443072D01*
X6419071Y-19414500D01*
X6447643Y-19371643D01*
X6461928Y-19357357D01*
X6561928Y-19428786D02*
X6576214Y-19414500D01*
X6604786Y-19400214D01*
X6676214Y-19400214D01*
X6704786Y-19414500D01*
X6719071Y-19428786D01*
X6733357Y-19457357D01*
X6733357Y-19485929D01*
X6719071Y-19528786D01*
X6547643Y-19700214D01*
X6733357Y-19700214D01*
X6919071Y-19400214D02*
X6947643Y-19400214D01*
X6976214Y-19414500D01*
X6990500Y-19428786D01*
X7004786Y-19457357D01*
X7019071Y-19514500D01*
X7019071Y-19585929D01*
X7004786Y-19643072D01*
X6990500Y-19671643D01*
X6976214Y-19685929D01*
X6947643Y-19700214D01*
X6919071Y-19700214D01*
X6890500Y-19685929D01*
X6876214Y-19671643D01*
X6861928Y-19643072D01*
X6847643Y-19585929D01*
X6847643Y-19514500D01*
X6861928Y-19457357D01*
X6876214Y-19428786D01*
X6890500Y-19414500D01*
X6919071Y-19400214D01*
X7376214Y-19700214D02*
X7376214Y-19400214D01*
X7504786Y-19700214D02*
X7504786Y-19543072D01*
X7490500Y-19514500D01*
X7461928Y-19500214D01*
X7419071Y-19500214D01*
X7390500Y-19514500D01*
X7376214Y-19528786D01*
X7690500Y-19700214D02*
X7661928Y-19685929D01*
X7647643Y-19671643D01*
X7633357Y-19643072D01*
X7633357Y-19557357D01*
X7647643Y-19528786D01*
X7661928Y-19514500D01*
X7690500Y-19500214D01*
X7733357Y-19500214D01*
X7761928Y-19514500D01*
X7776214Y-19528786D01*
X7790500Y-19557357D01*
X7790500Y-19643072D01*
X7776214Y-19671643D01*
X7761928Y-19685929D01*
X7733357Y-19700214D01*
X7690500Y-19700214D01*
X7961928Y-19700214D02*
X7933357Y-19685929D01*
X7919071Y-19657357D01*
X7919071Y-19400214D01*
X8190500Y-19685929D02*
X8161928Y-19700214D01*
X8104786Y-19700214D01*
X8076214Y-19685929D01*
X8061928Y-19657357D01*
X8061928Y-19543072D01*
X8076214Y-19514500D01*
X8104786Y-19500214D01*
X8161928Y-19500214D01*
X8190500Y-19514500D01*
X8204786Y-19543072D01*
X8204786Y-19571643D01*
X8061928Y-19600214D01*
X8319071Y-19685929D02*
X8347643Y-19700214D01*
X8404786Y-19700214D01*
X8433357Y-19685929D01*
X8447643Y-19657357D01*
X8447643Y-19643072D01*
X8433357Y-19614500D01*
X8404786Y-19600214D01*
X8361928Y-19600214D01*
X8333357Y-19585929D01*
X8319071Y-19557357D01*
X8319071Y-19543072D01*
X8333357Y-19514500D01*
X8361928Y-19500214D01*
X8404786Y-19500214D01*
X8433357Y-19514500D01*
X8547643Y-19814500D02*
X8561928Y-19800214D01*
X8590500Y-19757357D01*
X8604786Y-19728786D01*
X8619071Y-19685929D01*
X8633357Y-19614500D01*
X8633357Y-19557357D01*
X8619071Y-19485929D01*
X8604786Y-19443072D01*
X8590500Y-19414500D01*
X8561928Y-19371643D01*
X8547643Y-19357357D01*
X1645500Y-19895500D02*
X1775500Y-20025500D01*
X1775500Y-19895500D02*
X1645500Y-20025500D01*
X1775500Y-19960500D02*
G75*
G03*
X1775500Y-19960500I-65000J0D01*
G01*
X2219071Y-20096214D02*
X2047643Y-20096214D01*
X2133357Y-20096214D02*
X2133357Y-19796214D01*
X2104786Y-19839072D01*
X2076214Y-19867643D01*
X2047643Y-19881929D01*
X2347643Y-20067643D02*
X2361928Y-20081929D01*
X2347643Y-20096214D01*
X2333357Y-20081929D01*
X2347643Y-20067643D01*
X2347643Y-20096214D01*
X2461928Y-19796214D02*
X2647643Y-19796214D01*
X2547643Y-19910500D01*
X2590500Y-19910500D01*
X2619071Y-19924786D01*
X2633357Y-19939072D01*
X2647643Y-19967643D01*
X2647643Y-20039072D01*
X2633357Y-20067643D01*
X2619071Y-20081929D01*
X2590500Y-20096214D01*
X2504786Y-20096214D01*
X2476214Y-20081929D01*
X2461928Y-20067643D01*
X2833357Y-19796214D02*
X2861928Y-19796214D01*
X2890500Y-19810500D01*
X2904786Y-19824786D01*
X2919071Y-19853357D01*
X2933357Y-19910500D01*
X2933357Y-19981929D01*
X2919071Y-20039072D01*
X2904786Y-20067643D01*
X2890500Y-20081929D01*
X2861928Y-20096214D01*
X2833357Y-20096214D01*
X2804786Y-20081929D01*
X2790500Y-20067643D01*
X2776214Y-20039072D01*
X2761928Y-19981929D01*
X2761928Y-19910500D01*
X2776214Y-19853357D01*
X2790500Y-19824786D01*
X2804786Y-19810500D01*
X2833357Y-19796214D01*
X3061928Y-20096214D02*
X3061928Y-19896214D01*
X3061928Y-19924786D02*
X3076214Y-19910500D01*
X3104786Y-19896214D01*
X3147643Y-19896214D01*
X3176214Y-19910500D01*
X3190500Y-19939072D01*
X3190500Y-20096214D01*
X3190500Y-19939072D02*
X3204786Y-19910500D01*
X3233357Y-19896214D01*
X3276214Y-19896214D01*
X3304786Y-19910500D01*
X3319071Y-19939072D01*
X3319071Y-20096214D01*
X3461928Y-20096214D02*
X3461928Y-19896214D01*
X3461928Y-19924786D02*
X3476214Y-19910500D01*
X3504786Y-19896214D01*
X3547643Y-19896214D01*
X3576214Y-19910500D01*
X3590500Y-19939072D01*
X3590500Y-20096214D01*
X3590500Y-19939072D02*
X3604786Y-19910500D01*
X3633357Y-19896214D01*
X3676214Y-19896214D01*
X3704786Y-19910500D01*
X3719071Y-19939072D01*
X3719071Y-20096214D01*
X4304786Y-19781929D02*
X4047643Y-20167643D01*
X4690500Y-19796214D02*
X4719071Y-19796214D01*
X4747643Y-19810500D01*
X4761928Y-19824786D01*
X4776214Y-19853357D01*
X4790500Y-19910500D01*
X4790500Y-19981929D01*
X4776214Y-20039072D01*
X4761928Y-20067643D01*
X4747643Y-20081929D01*
X4719071Y-20096214D01*
X4690500Y-20096214D01*
X4661928Y-20081929D01*
X4647643Y-20067643D01*
X4633357Y-20039072D01*
X4619071Y-19981929D01*
X4619071Y-19910500D01*
X4633357Y-19853357D01*
X4647643Y-19824786D01*
X4661928Y-19810500D01*
X4690500Y-19796214D01*
X4919071Y-20067643D02*
X4933357Y-20081929D01*
X4919071Y-20096214D01*
X4904786Y-20081929D01*
X4919071Y-20067643D01*
X4919071Y-20096214D01*
X5119071Y-19796214D02*
X5147643Y-19796214D01*
X5176214Y-19810500D01*
X5190500Y-19824786D01*
X5204786Y-19853357D01*
X5219071Y-19910500D01*
X5219071Y-19981929D01*
X5204786Y-20039072D01*
X5190500Y-20067643D01*
X5176214Y-20081929D01*
X5147643Y-20096214D01*
X5119071Y-20096214D01*
X5090500Y-20081929D01*
X5076214Y-20067643D01*
X5061928Y-20039072D01*
X5047643Y-19981929D01*
X5047643Y-19910500D01*
X5061928Y-19853357D01*
X5076214Y-19824786D01*
X5090500Y-19810500D01*
X5119071Y-19796214D01*
X5490500Y-19796214D02*
X5347643Y-19796214D01*
X5333357Y-19939072D01*
X5347643Y-19924786D01*
X5376214Y-19910500D01*
X5447643Y-19910500D01*
X5476214Y-19924786D01*
X5490500Y-19939072D01*
X5504786Y-19967643D01*
X5504786Y-20039072D01*
X5490500Y-20067643D01*
X5476214Y-20081929D01*
X5447643Y-20096214D01*
X5376214Y-20096214D01*
X5347643Y-20081929D01*
X5333357Y-20067643D01*
X5790500Y-20096214D02*
X5619071Y-20096214D01*
X5704786Y-20096214D02*
X5704786Y-19796214D01*
X5676214Y-19839072D01*
X5647643Y-19867643D01*
X5619071Y-19881929D01*
X5904786Y-19796214D02*
X5904786Y-19853357D01*
X6019071Y-19796214D02*
X6019071Y-19853357D01*
X6461928Y-20210500D02*
X6447643Y-20196214D01*
X6419071Y-20153357D01*
X6404786Y-20124786D01*
X6390500Y-20081929D01*
X6376214Y-20010500D01*
X6376214Y-19953357D01*
X6390500Y-19881929D01*
X6404786Y-19839072D01*
X6419071Y-19810500D01*
X6447643Y-19767643D01*
X6461928Y-19753357D01*
X6590500Y-20096214D02*
X6647643Y-20096214D01*
X6676214Y-20081929D01*
X6690500Y-20067643D01*
X6719071Y-20024786D01*
X6733357Y-19967643D01*
X6733357Y-19853357D01*
X6719071Y-19824786D01*
X6704786Y-19810500D01*
X6676214Y-19796214D01*
X6619071Y-19796214D01*
X6590500Y-19810500D01*
X6576214Y-19824786D01*
X6561928Y-19853357D01*
X6561928Y-19924786D01*
X6576214Y-19953357D01*
X6590500Y-19967643D01*
X6619071Y-19981929D01*
X6676214Y-19981929D01*
X6704786Y-19967643D01*
X6719071Y-19953357D01*
X6733357Y-19924786D01*
X7090500Y-20096214D02*
X7090500Y-19796214D01*
X7219071Y-20096214D02*
X7219071Y-19939072D01*
X7204786Y-19910500D01*
X7176214Y-19896214D01*
X7133357Y-19896214D01*
X7104786Y-19910500D01*
X7090500Y-19924786D01*
X7404786Y-20096214D02*
X7376214Y-20081929D01*
X7361928Y-20067643D01*
X7347643Y-20039072D01*
X7347643Y-19953357D01*
X7361928Y-19924786D01*
X7376214Y-19910500D01*
X7404786Y-19896214D01*
X7447643Y-19896214D01*
X7476214Y-19910500D01*
X7490500Y-19924786D01*
X7504786Y-19953357D01*
X7504786Y-20039072D01*
X7490500Y-20067643D01*
X7476214Y-20081929D01*
X7447643Y-20096214D01*
X7404786Y-20096214D01*
X7676214Y-20096214D02*
X7647643Y-20081929D01*
X7633357Y-20053357D01*
X7633357Y-19796214D01*
X7904786Y-20081929D02*
X7876214Y-20096214D01*
X7819071Y-20096214D01*
X7790500Y-20081929D01*
X7776214Y-20053357D01*
X7776214Y-19939072D01*
X7790500Y-19910500D01*
X7819071Y-19896214D01*
X7876214Y-19896214D01*
X7904786Y-19910500D01*
X7919071Y-19939072D01*
X7919071Y-19967643D01*
X7776214Y-19996214D01*
X8033357Y-20081929D02*
X8061928Y-20096214D01*
X8119071Y-20096214D01*
X8147643Y-20081929D01*
X8161928Y-20053357D01*
X8161928Y-20039072D01*
X8147643Y-20010500D01*
X8119071Y-19996214D01*
X8076214Y-19996214D01*
X8047643Y-19981929D01*
X8033357Y-19953357D01*
X8033357Y-19939072D01*
X8047643Y-19910500D01*
X8076214Y-19896214D01*
X8119071Y-19896214D01*
X8147643Y-19910500D01*
X8261928Y-20210500D02*
X8276214Y-20196214D01*
X8304786Y-20153357D01*
X8319071Y-20124786D01*
X8333357Y-20081929D01*
X8347643Y-20010500D01*
X8347643Y-19953357D01*
X8333357Y-19881929D01*
X8319071Y-19839072D01*
X8304786Y-19810500D01*
X8276214Y-19767643D01*
X8261928Y-19753357D01*
X1475500Y-20206500D02*
X1775500Y-20506500D01*
X1775500Y-20206500D02*
X1475500Y-20506500D01*
X1625500Y-20206500D02*
X1625500Y-20506500D01*
X1475500Y-20356500D02*
X1775500Y-20356500D01*
X2033357Y-20192214D02*
X2219071Y-20192214D01*
X2119071Y-20306500D01*
X2161928Y-20306500D01*
X2190500Y-20320786D01*
X2204786Y-20335072D01*
X2219071Y-20363643D01*
X2219071Y-20435072D01*
X2204786Y-20463643D01*
X2190500Y-20477929D01*
X2161928Y-20492214D01*
X2076214Y-20492214D01*
X2047643Y-20477929D01*
X2033357Y-20463643D01*
X2347643Y-20463643D02*
X2361928Y-20477929D01*
X2347643Y-20492214D01*
X2333357Y-20477929D01*
X2347643Y-20463643D01*
X2347643Y-20492214D01*
X2547643Y-20192214D02*
X2576214Y-20192214D01*
X2604786Y-20206500D01*
X2619071Y-20220786D01*
X2633357Y-20249357D01*
X2647643Y-20306500D01*
X2647643Y-20377929D01*
X2633357Y-20435072D01*
X2619071Y-20463643D01*
X2604786Y-20477929D01*
X2576214Y-20492214D01*
X2547643Y-20492214D01*
X2519071Y-20477929D01*
X2504786Y-20463643D01*
X2490500Y-20435072D01*
X2476214Y-20377929D01*
X2476214Y-20306500D01*
X2490500Y-20249357D01*
X2504786Y-20220786D01*
X2519071Y-20206500D01*
X2547643Y-20192214D01*
X2833357Y-20192214D02*
X2861928Y-20192214D01*
X2890500Y-20206500D01*
X2904786Y-20220786D01*
X2919071Y-20249357D01*
X2933357Y-20306500D01*
X2933357Y-20377929D01*
X2919071Y-20435072D01*
X2904786Y-20463643D01*
X2890500Y-20477929D01*
X2861928Y-20492214D01*
X2833357Y-20492214D01*
X2804786Y-20477929D01*
X2790500Y-20463643D01*
X2776214Y-20435072D01*
X2761928Y-20377929D01*
X2761928Y-20306500D01*
X2776214Y-20249357D01*
X2790500Y-20220786D01*
X2804786Y-20206500D01*
X2833357Y-20192214D01*
X3061928Y-20492214D02*
X3061928Y-20292214D01*
X3061928Y-20320786D02*
X3076214Y-20306500D01*
X3104786Y-20292214D01*
X3147643Y-20292214D01*
X3176214Y-20306500D01*
X3190500Y-20335072D01*
X3190500Y-20492214D01*
X3190500Y-20335072D02*
X3204786Y-20306500D01*
X3233357Y-20292214D01*
X3276214Y-20292214D01*
X3304786Y-20306500D01*
X3319071Y-20335072D01*
X3319071Y-20492214D01*
X3461928Y-20492214D02*
X3461928Y-20292214D01*
X3461928Y-20320786D02*
X3476214Y-20306500D01*
X3504786Y-20292214D01*
X3547643Y-20292214D01*
X3576214Y-20306500D01*
X3590500Y-20335072D01*
X3590500Y-20492214D01*
X3590500Y-20335072D02*
X3604786Y-20306500D01*
X3633357Y-20292214D01*
X3676214Y-20292214D01*
X3704786Y-20306500D01*
X3719071Y-20335072D01*
X3719071Y-20492214D01*
X4304786Y-20177929D02*
X4047643Y-20563643D01*
X4690500Y-20192214D02*
X4719071Y-20192214D01*
X4747643Y-20206500D01*
X4761928Y-20220786D01*
X4776214Y-20249357D01*
X4790500Y-20306500D01*
X4790500Y-20377929D01*
X4776214Y-20435072D01*
X4761928Y-20463643D01*
X4747643Y-20477929D01*
X4719071Y-20492214D01*
X4690500Y-20492214D01*
X4661928Y-20477929D01*
X4647643Y-20463643D01*
X4633357Y-20435072D01*
X4619071Y-20377929D01*
X4619071Y-20306500D01*
X4633357Y-20249357D01*
X4647643Y-20220786D01*
X4661928Y-20206500D01*
X4690500Y-20192214D01*
X4919071Y-20463643D02*
X4933357Y-20477929D01*
X4919071Y-20492214D01*
X4904786Y-20477929D01*
X4919071Y-20463643D01*
X4919071Y-20492214D01*
X5219071Y-20492214D02*
X5047643Y-20492214D01*
X5133357Y-20492214D02*
X5133357Y-20192214D01*
X5104786Y-20235072D01*
X5076214Y-20263643D01*
X5047643Y-20277929D01*
X5504786Y-20492214D02*
X5333357Y-20492214D01*
X5419071Y-20492214D02*
X5419071Y-20192214D01*
X5390500Y-20235072D01*
X5361928Y-20263643D01*
X5333357Y-20277929D01*
X5676214Y-20320786D02*
X5647643Y-20306500D01*
X5633357Y-20292214D01*
X5619071Y-20263643D01*
X5619071Y-20249357D01*
X5633357Y-20220786D01*
X5647643Y-20206500D01*
X5676214Y-20192214D01*
X5733357Y-20192214D01*
X5761928Y-20206500D01*
X5776214Y-20220786D01*
X5790500Y-20249357D01*
X5790500Y-20263643D01*
X5776214Y-20292214D01*
X5761928Y-20306500D01*
X5733357Y-20320786D01*
X5676214Y-20320786D01*
X5647643Y-20335072D01*
X5633357Y-20349357D01*
X5619071Y-20377929D01*
X5619071Y-20435072D01*
X5633357Y-20463643D01*
X5647643Y-20477929D01*
X5676214Y-20492214D01*
X5733357Y-20492214D01*
X5761928Y-20477929D01*
X5776214Y-20463643D01*
X5790500Y-20435072D01*
X5790500Y-20377929D01*
X5776214Y-20349357D01*
X5761928Y-20335072D01*
X5733357Y-20320786D01*
X5904786Y-20192214D02*
X5904786Y-20249357D01*
X6019071Y-20192214D02*
X6019071Y-20249357D01*
X6461928Y-20606500D02*
X6447643Y-20592214D01*
X6419071Y-20549357D01*
X6404786Y-20520786D01*
X6390500Y-20477929D01*
X6376214Y-20406500D01*
X6376214Y-20349357D01*
X6390500Y-20277929D01*
X6404786Y-20235072D01*
X6419071Y-20206500D01*
X6447643Y-20163643D01*
X6461928Y-20149357D01*
X6704786Y-20292214D02*
X6704786Y-20492214D01*
X6633357Y-20177929D02*
X6561928Y-20392214D01*
X6747643Y-20392214D01*
X7090500Y-20492214D02*
X7090500Y-20192214D01*
X7219071Y-20492214D02*
X7219071Y-20335072D01*
X7204786Y-20306500D01*
X7176214Y-20292214D01*
X7133357Y-20292214D01*
X7104786Y-20306500D01*
X7090500Y-20320786D01*
X7404786Y-20492214D02*
X7376214Y-20477929D01*
X7361928Y-20463643D01*
X7347643Y-20435072D01*
X7347643Y-20349357D01*
X7361928Y-20320786D01*
X7376214Y-20306500D01*
X7404786Y-20292214D01*
X7447643Y-20292214D01*
X7476214Y-20306500D01*
X7490500Y-20320786D01*
X7504786Y-20349357D01*
X7504786Y-20435072D01*
X7490500Y-20463643D01*
X7476214Y-20477929D01*
X7447643Y-20492214D01*
X7404786Y-20492214D01*
X7676214Y-20492214D02*
X7647643Y-20477929D01*
X7633357Y-20449357D01*
X7633357Y-20192214D01*
X7904786Y-20477929D02*
X7876214Y-20492214D01*
X7819071Y-20492214D01*
X7790500Y-20477929D01*
X7776214Y-20449357D01*
X7776214Y-20335072D01*
X7790500Y-20306500D01*
X7819071Y-20292214D01*
X7876214Y-20292214D01*
X7904786Y-20306500D01*
X7919071Y-20335072D01*
X7919071Y-20363643D01*
X7776214Y-20392214D01*
X8033357Y-20477929D02*
X8061928Y-20492214D01*
X8119071Y-20492214D01*
X8147643Y-20477929D01*
X8161928Y-20449357D01*
X8161928Y-20435072D01*
X8147643Y-20406500D01*
X8119071Y-20392214D01*
X8076214Y-20392214D01*
X8047643Y-20377929D01*
X8033357Y-20349357D01*
X8033357Y-20335072D01*
X8047643Y-20306500D01*
X8076214Y-20292214D01*
X8119071Y-20292214D01*
X8147643Y-20306500D01*
X8261928Y-20606500D02*
X8276214Y-20592214D01*
X8304786Y-20549357D01*
X8319071Y-20520786D01*
X8333357Y-20477929D01*
X8347643Y-20406500D01*
X8347643Y-20349357D01*
X8333357Y-20277929D01*
X8319071Y-20235072D01*
X8304786Y-20206500D01*
X8276214Y-20163643D01*
X8261928Y-20149357D01*
M02*
