%FSLAX45Y45*%
G04 Gerber Fmt 4.5, Leading zero omitted, Abs format (unit mm)*
G04 Created by KiCad (PCBNEW (5.1.9)-1) date 2022-11-15 19:47:58*
%MOMM*%
%LPD*%
G01*
G04 APERTURE LIST*
%TA.AperFunction,Profile*%
%ADD10C,0.050000*%
%TD*%
%ADD11C,0.200000*%
%ADD12C,0.300000*%
G04 APERTURE END LIST*
D10*
X1778000Y-16256000D02*
X1778000Y-2794000D01*
X21336000Y-17018000D02*
X2540000Y-17018000D01*
X22098000Y-2794000D02*
X22098000Y-16256000D01*
X2540000Y-2032000D02*
X21336000Y-2032000D01*
X2540000Y-17018000D02*
G75*
G02*
X1778000Y-16256000I0J762000D01*
G01*
X22098000Y-16256000D02*
G75*
G02*
X21336000Y-17018000I-762000J0D01*
G01*
X21336000Y-2032000D02*
G75*
G02*
X22098000Y-2794000I0J-762000D01*
G01*
X1778000Y-2794000D02*
G75*
G02*
X2540000Y-2032000I762000J0D01*
G01*
D11*
X5169000Y-4063500D02*
X5519000Y-4413500D01*
X5519000Y-4063500D02*
X5169000Y-4413500D01*
X20305000Y-2756000D02*
X20655000Y-3106000D01*
X20655000Y-2756000D02*
X20305000Y-3106000D01*
D12*
X2061928Y-17486214D02*
X2061928Y-17186214D01*
X2133357Y-17186214D01*
X2176214Y-17200500D01*
X2204786Y-17229072D01*
X2219071Y-17257643D01*
X2233357Y-17314786D01*
X2233357Y-17357643D01*
X2219071Y-17414786D01*
X2204786Y-17443357D01*
X2176214Y-17471929D01*
X2133357Y-17486214D01*
X2061928Y-17486214D01*
X2361928Y-17486214D02*
X2361928Y-17286214D01*
X2361928Y-17343357D02*
X2376214Y-17314786D01*
X2390500Y-17300500D01*
X2419071Y-17286214D01*
X2447643Y-17286214D01*
X2547643Y-17486214D02*
X2547643Y-17286214D01*
X2547643Y-17186214D02*
X2533357Y-17200500D01*
X2547643Y-17214786D01*
X2561928Y-17200500D01*
X2547643Y-17186214D01*
X2547643Y-17214786D01*
X2733357Y-17486214D02*
X2704786Y-17471929D01*
X2690500Y-17443357D01*
X2690500Y-17186214D01*
X2890500Y-17486214D02*
X2861928Y-17471929D01*
X2847643Y-17443357D01*
X2847643Y-17186214D01*
X3233357Y-17486214D02*
X3233357Y-17186214D01*
X3333357Y-17400500D01*
X3433357Y-17186214D01*
X3433357Y-17486214D01*
X3704786Y-17486214D02*
X3704786Y-17329072D01*
X3690500Y-17300500D01*
X3661928Y-17286214D01*
X3604786Y-17286214D01*
X3576214Y-17300500D01*
X3704786Y-17471929D02*
X3676214Y-17486214D01*
X3604786Y-17486214D01*
X3576214Y-17471929D01*
X3561928Y-17443357D01*
X3561928Y-17414786D01*
X3576214Y-17386214D01*
X3604786Y-17371929D01*
X3676214Y-17371929D01*
X3704786Y-17357643D01*
X3847643Y-17286214D02*
X3847643Y-17586214D01*
X3847643Y-17300500D02*
X3876214Y-17286214D01*
X3933357Y-17286214D01*
X3961928Y-17300500D01*
X3976214Y-17314786D01*
X3990500Y-17343357D01*
X3990500Y-17429072D01*
X3976214Y-17457643D01*
X3961928Y-17471929D01*
X3933357Y-17486214D01*
X3876214Y-17486214D01*
X3847643Y-17471929D01*
X4119071Y-17457643D02*
X4133357Y-17471929D01*
X4119071Y-17486214D01*
X4104786Y-17471929D01*
X4119071Y-17457643D01*
X4119071Y-17486214D01*
X4119071Y-17300500D02*
X4133357Y-17314786D01*
X4119071Y-17329072D01*
X4104786Y-17314786D01*
X4119071Y-17300500D01*
X4119071Y-17329072D01*
X1425500Y-17805500D02*
X1775500Y-18155500D01*
X1775500Y-17805500D02*
X1425500Y-18155500D01*
X2033357Y-17816214D02*
X2219071Y-17816214D01*
X2119071Y-17930500D01*
X2161928Y-17930500D01*
X2190500Y-17944786D01*
X2204786Y-17959072D01*
X2219071Y-17987643D01*
X2219071Y-18059072D01*
X2204786Y-18087643D01*
X2190500Y-18101929D01*
X2161928Y-18116214D01*
X2076214Y-18116214D01*
X2047643Y-18101929D01*
X2033357Y-18087643D01*
X2347643Y-18087643D02*
X2361928Y-18101929D01*
X2347643Y-18116214D01*
X2333357Y-18101929D01*
X2347643Y-18087643D01*
X2347643Y-18116214D01*
X2633357Y-17816214D02*
X2490500Y-17816214D01*
X2476214Y-17959072D01*
X2490500Y-17944786D01*
X2519071Y-17930500D01*
X2590500Y-17930500D01*
X2619071Y-17944786D01*
X2633357Y-17959072D01*
X2647643Y-17987643D01*
X2647643Y-18059072D01*
X2633357Y-18087643D01*
X2619071Y-18101929D01*
X2590500Y-18116214D01*
X2519071Y-18116214D01*
X2490500Y-18101929D01*
X2476214Y-18087643D01*
X2833357Y-17816214D02*
X2861928Y-17816214D01*
X2890500Y-17830500D01*
X2904786Y-17844786D01*
X2919071Y-17873357D01*
X2933357Y-17930500D01*
X2933357Y-18001929D01*
X2919071Y-18059072D01*
X2904786Y-18087643D01*
X2890500Y-18101929D01*
X2861928Y-18116214D01*
X2833357Y-18116214D01*
X2804786Y-18101929D01*
X2790500Y-18087643D01*
X2776214Y-18059072D01*
X2761928Y-18001929D01*
X2761928Y-17930500D01*
X2776214Y-17873357D01*
X2790500Y-17844786D01*
X2804786Y-17830500D01*
X2833357Y-17816214D01*
X3061928Y-18116214D02*
X3061928Y-17916214D01*
X3061928Y-17944786D02*
X3076214Y-17930500D01*
X3104786Y-17916214D01*
X3147643Y-17916214D01*
X3176214Y-17930500D01*
X3190500Y-17959072D01*
X3190500Y-18116214D01*
X3190500Y-17959072D02*
X3204786Y-17930500D01*
X3233357Y-17916214D01*
X3276214Y-17916214D01*
X3304786Y-17930500D01*
X3319071Y-17959072D01*
X3319071Y-18116214D01*
X3461928Y-18116214D02*
X3461928Y-17916214D01*
X3461928Y-17944786D02*
X3476214Y-17930500D01*
X3504786Y-17916214D01*
X3547643Y-17916214D01*
X3576214Y-17930500D01*
X3590500Y-17959072D01*
X3590500Y-18116214D01*
X3590500Y-17959072D02*
X3604786Y-17930500D01*
X3633357Y-17916214D01*
X3676214Y-17916214D01*
X3704786Y-17930500D01*
X3719071Y-17959072D01*
X3719071Y-18116214D01*
X4304786Y-17801929D02*
X4047643Y-18187643D01*
X4690500Y-17816214D02*
X4719071Y-17816214D01*
X4747643Y-17830500D01*
X4761928Y-17844786D01*
X4776214Y-17873357D01*
X4790500Y-17930500D01*
X4790500Y-18001929D01*
X4776214Y-18059072D01*
X4761928Y-18087643D01*
X4747643Y-18101929D01*
X4719071Y-18116214D01*
X4690500Y-18116214D01*
X4661928Y-18101929D01*
X4647643Y-18087643D01*
X4633357Y-18059072D01*
X4619071Y-18001929D01*
X4619071Y-17930500D01*
X4633357Y-17873357D01*
X4647643Y-17844786D01*
X4661928Y-17830500D01*
X4690500Y-17816214D01*
X4919071Y-18087643D02*
X4933357Y-18101929D01*
X4919071Y-18116214D01*
X4904786Y-18101929D01*
X4919071Y-18087643D01*
X4919071Y-18116214D01*
X5219071Y-18116214D02*
X5047643Y-18116214D01*
X5133357Y-18116214D02*
X5133357Y-17816214D01*
X5104786Y-17859072D01*
X5076214Y-17887643D01*
X5047643Y-17901929D01*
X5319071Y-17816214D02*
X5504786Y-17816214D01*
X5404786Y-17930500D01*
X5447643Y-17930500D01*
X5476214Y-17944786D01*
X5490500Y-17959072D01*
X5504786Y-17987643D01*
X5504786Y-18059072D01*
X5490500Y-18087643D01*
X5476214Y-18101929D01*
X5447643Y-18116214D01*
X5361928Y-18116214D01*
X5333357Y-18101929D01*
X5319071Y-18087643D01*
X5676214Y-17944786D02*
X5647643Y-17930500D01*
X5633357Y-17916214D01*
X5619071Y-17887643D01*
X5619071Y-17873357D01*
X5633357Y-17844786D01*
X5647643Y-17830500D01*
X5676214Y-17816214D01*
X5733357Y-17816214D01*
X5761928Y-17830500D01*
X5776214Y-17844786D01*
X5790500Y-17873357D01*
X5790500Y-17887643D01*
X5776214Y-17916214D01*
X5761928Y-17930500D01*
X5733357Y-17944786D01*
X5676214Y-17944786D01*
X5647643Y-17959072D01*
X5633357Y-17973357D01*
X5619071Y-18001929D01*
X5619071Y-18059072D01*
X5633357Y-18087643D01*
X5647643Y-18101929D01*
X5676214Y-18116214D01*
X5733357Y-18116214D01*
X5761928Y-18101929D01*
X5776214Y-18087643D01*
X5790500Y-18059072D01*
X5790500Y-18001929D01*
X5776214Y-17973357D01*
X5761928Y-17959072D01*
X5733357Y-17944786D01*
X5904786Y-17816214D02*
X5904786Y-17873357D01*
X6019071Y-17816214D02*
X6019071Y-17873357D01*
X6461928Y-18230500D02*
X6447643Y-18216214D01*
X6419071Y-18173357D01*
X6404786Y-18144786D01*
X6390500Y-18101929D01*
X6376214Y-18030500D01*
X6376214Y-17973357D01*
X6390500Y-17901929D01*
X6404786Y-17859072D01*
X6419071Y-17830500D01*
X6447643Y-17787643D01*
X6461928Y-17773357D01*
X6561928Y-17844786D02*
X6576214Y-17830500D01*
X6604786Y-17816214D01*
X6676214Y-17816214D01*
X6704786Y-17830500D01*
X6719071Y-17844786D01*
X6733357Y-17873357D01*
X6733357Y-17901929D01*
X6719071Y-17944786D01*
X6547643Y-18116214D01*
X6733357Y-18116214D01*
X7090500Y-18116214D02*
X7090500Y-17816214D01*
X7219071Y-18116214D02*
X7219071Y-17959072D01*
X7204786Y-17930500D01*
X7176214Y-17916214D01*
X7133357Y-17916214D01*
X7104786Y-17930500D01*
X7090500Y-17944786D01*
X7404786Y-18116214D02*
X7376214Y-18101929D01*
X7361928Y-18087643D01*
X7347643Y-18059072D01*
X7347643Y-17973357D01*
X7361928Y-17944786D01*
X7376214Y-17930500D01*
X7404786Y-17916214D01*
X7447643Y-17916214D01*
X7476214Y-17930500D01*
X7490500Y-17944786D01*
X7504786Y-17973357D01*
X7504786Y-18059072D01*
X7490500Y-18087643D01*
X7476214Y-18101929D01*
X7447643Y-18116214D01*
X7404786Y-18116214D01*
X7676214Y-18116214D02*
X7647643Y-18101929D01*
X7633357Y-18073357D01*
X7633357Y-17816214D01*
X7904786Y-18101929D02*
X7876214Y-18116214D01*
X7819071Y-18116214D01*
X7790500Y-18101929D01*
X7776214Y-18073357D01*
X7776214Y-17959072D01*
X7790500Y-17930500D01*
X7819071Y-17916214D01*
X7876214Y-17916214D01*
X7904786Y-17930500D01*
X7919071Y-17959072D01*
X7919071Y-17987643D01*
X7776214Y-18016214D01*
X8033357Y-18101929D02*
X8061928Y-18116214D01*
X8119071Y-18116214D01*
X8147643Y-18101929D01*
X8161928Y-18073357D01*
X8161928Y-18059072D01*
X8147643Y-18030500D01*
X8119071Y-18016214D01*
X8076214Y-18016214D01*
X8047643Y-18001929D01*
X8033357Y-17973357D01*
X8033357Y-17959072D01*
X8047643Y-17930500D01*
X8076214Y-17916214D01*
X8119071Y-17916214D01*
X8147643Y-17930500D01*
X8261928Y-18230500D02*
X8276214Y-18216214D01*
X8304786Y-18173357D01*
X8319071Y-18144786D01*
X8333357Y-18101929D01*
X8347643Y-18030500D01*
X8347643Y-17973357D01*
X8333357Y-17901929D01*
X8319071Y-17859072D01*
X8304786Y-17830500D01*
X8276214Y-17787643D01*
X8261928Y-17773357D01*
X8804786Y-18230500D02*
X8790500Y-18216214D01*
X8761928Y-18173357D01*
X8747643Y-18144786D01*
X8733357Y-18101929D01*
X8719071Y-18030500D01*
X8719071Y-17973357D01*
X8733357Y-17901929D01*
X8747643Y-17859072D01*
X8761928Y-17830500D01*
X8790500Y-17787643D01*
X8804786Y-17773357D01*
X8919071Y-17916214D02*
X8919071Y-18116214D01*
X8919071Y-17944786D02*
X8933357Y-17930500D01*
X8961928Y-17916214D01*
X9004786Y-17916214D01*
X9033357Y-17930500D01*
X9047643Y-17959072D01*
X9047643Y-18116214D01*
X9233357Y-18116214D02*
X9204786Y-18101929D01*
X9190500Y-18087643D01*
X9176214Y-18059072D01*
X9176214Y-17973357D01*
X9190500Y-17944786D01*
X9204786Y-17930500D01*
X9233357Y-17916214D01*
X9276214Y-17916214D01*
X9304786Y-17930500D01*
X9319071Y-17944786D01*
X9333357Y-17973357D01*
X9333357Y-18059072D01*
X9319071Y-18087643D01*
X9304786Y-18101929D01*
X9276214Y-18116214D01*
X9233357Y-18116214D01*
X9419071Y-17916214D02*
X9533357Y-17916214D01*
X9461928Y-17816214D02*
X9461928Y-18073357D01*
X9476214Y-18101929D01*
X9504786Y-18116214D01*
X9533357Y-18116214D01*
X9861928Y-17916214D02*
X9861928Y-18216214D01*
X9861928Y-17930500D02*
X9890500Y-17916214D01*
X9947643Y-17916214D01*
X9976214Y-17930500D01*
X9990500Y-17944786D01*
X10004786Y-17973357D01*
X10004786Y-18059072D01*
X9990500Y-18087643D01*
X9976214Y-18101929D01*
X9947643Y-18116214D01*
X9890500Y-18116214D01*
X9861928Y-18101929D01*
X10176214Y-18116214D02*
X10147643Y-18101929D01*
X10133357Y-18073357D01*
X10133357Y-17816214D01*
X10419071Y-18116214D02*
X10419071Y-17959072D01*
X10404786Y-17930500D01*
X10376214Y-17916214D01*
X10319071Y-17916214D01*
X10290500Y-17930500D01*
X10419071Y-18101929D02*
X10390500Y-18116214D01*
X10319071Y-18116214D01*
X10290500Y-18101929D01*
X10276214Y-18073357D01*
X10276214Y-18044786D01*
X10290500Y-18016214D01*
X10319071Y-18001929D01*
X10390500Y-18001929D01*
X10419071Y-17987643D01*
X10519071Y-17916214D02*
X10633357Y-17916214D01*
X10561928Y-17816214D02*
X10561928Y-18073357D01*
X10576214Y-18101929D01*
X10604786Y-18116214D01*
X10633357Y-18116214D01*
X10847643Y-18101929D02*
X10819071Y-18116214D01*
X10761928Y-18116214D01*
X10733357Y-18101929D01*
X10719071Y-18073357D01*
X10719071Y-17959072D01*
X10733357Y-17930500D01*
X10761928Y-17916214D01*
X10819071Y-17916214D01*
X10847643Y-17930500D01*
X10861928Y-17959072D01*
X10861928Y-17987643D01*
X10719071Y-18016214D01*
X11119071Y-18116214D02*
X11119071Y-17816214D01*
X11119071Y-18101929D02*
X11090500Y-18116214D01*
X11033357Y-18116214D01*
X11004786Y-18101929D01*
X10990500Y-18087643D01*
X10976214Y-18059072D01*
X10976214Y-17973357D01*
X10990500Y-17944786D01*
X11004786Y-17930500D01*
X11033357Y-17916214D01*
X11090500Y-17916214D01*
X11119071Y-17930500D01*
X11233357Y-18230500D02*
X11247643Y-18216214D01*
X11276214Y-18173357D01*
X11290500Y-18144786D01*
X11304786Y-18101929D01*
X11319071Y-18030500D01*
X11319071Y-17973357D01*
X11304786Y-17901929D01*
X11290500Y-17859072D01*
X11276214Y-17830500D01*
X11247643Y-17787643D01*
X11233357Y-17773357D01*
M02*
